<?xml version="1.0" encoding="utf-8"?>
<!-- Generator: Adobe Illustrator 28.3.0, SVG Export Plug-In . SVG Version: 6.00 Build 0)  -->
<svg version="1.1" id="Layer_1" xmlns="http://www.w3.org/2000/svg" xmlns:xlink="http://www.w3.org/1999/xlink" x="0px" y="0px"
	 viewBox="0 0 1000 1000" style="enable-background:new 0 0 1000 1000;" xml:space="preserve">
<style type="text/css">
	.st0{fill:#8BCDED;}
</style>
<path class="st0" d="M543,159.6l-43.5-77.2C383.9,282.1,326.1,412.5,326.2,473.7l0.1,48.3c0.1,61.1,59,193,176.7,395.6
	c114-199.7,170.9-329.3,170.9-388.8l-0.1-55.5c0-27.4-14.6-73.6-43.6-138.7C601.1,269.4,572,211.1,543,159.6L543,159.6z
	 M570.1,567.5c-19.3,19.3-42.6,29-70,29.1c-27.4,0-50.7-9.6-70-28.9c-19.3-19.3-29-42.6-29.1-70c0-27.4,9.6-50.7,28.9-70
	c19.3-19.3,42.6-29,70-29.1c27.4,0,50.7,9.6,70,28.9c19.3,19.3,29,42.6,29.1,70C599,524.8,589.4,548.2,570.1,567.5L570.1,567.5z
	 M570.1,567.5"/>
</svg>
