<?xml version="1.0" standalone="no"?>
<!DOCTYPE svg PUBLIC "-//W3C//DTD SVG 1.1//EN" "http://www.w3.org/Graphics/SVG/1.1/DTD/svg11.dtd" >
<svg xmlns="http://www.w3.org/2000/svg" xmlns:xlink="http://www.w3.org/1999/xlink" version="1.1">
<metadata>
Created by FontForge 20170731 at Fri Oct 20 20:27:36 2023
 By Aleksey,,,
Copyright (c) 2023 by Designova. All rights reserved.
</metadata>
<defs>
<font id="Cord-BoldItalic" horiz-adv-x="912" >
  <font-face 
    font-family="Cord"
    font-weight="700"
    font-style="italic"
    font-stretch="normal"
    units-per-em="2048"
    panose-1="0 0 0 0 0 0 0 0 0 0"
    ascent="1638"
    descent="-410"
    x-height="1362"
    cap-height="1362"
    bbox="-8 -400 2226 1730"
    underline-thickness="50"
    underline-position="-175"
    unicode-range="U+000D-2122"
  />
<missing-glyph horiz-adv-x="1025" 
d="M841 1650v-2050h-650v2050h650zM342 -259h341v68h-209l143 96h66v68h-341v-68h144l-144 -96v-68zM342 20h341v232h-341v-232zM342 375h341v232h-205v-115h69v47h68v-96h-205v164h-68v-232zM342 652h341v205h-68v-136h-273v-69zM342 769h205v143h136v68h-341v-68h136v-76
h-136v-67zM342 1035h341v70h-136v143h-205v-213zM342 1302h341v67h-136v76h136v68h-339v-68h134v-76h-136v-67zM410 88v96h205v-96h-205zM410 1105v74h68v-74h-68z" />
    <glyph glyph-name=".notdef" horiz-adv-x="1025" 
d="M841 1650v-2050h-650v2050h650zM342 -259h341v68h-209l143 96h66v68h-341v-68h144l-144 -96v-68zM342 20h341v232h-341v-232zM342 375h341v232h-205v-115h69v47h68v-96h-205v164h-68v-232zM342 652h341v205h-68v-136h-273v-69zM342 769h205v143h136v68h-341v-68h136v-76
h-136v-67zM342 1035h341v70h-136v143h-205v-213zM342 1302h341v67h-136v76h136v68h-339v-68h134v-76h-136v-67zM410 88v96h205v-96h-205zM410 1105v74h68v-74h-68z" />
    <glyph glyph-name=".null" horiz-adv-x="159" 
 />
    <glyph glyph-name="nonmarkingreturn" horiz-adv-x="682" 
 />
    <glyph glyph-name="CR" unicode="&#xd;" horiz-adv-x="159" 
 />
    <glyph glyph-name="space" unicode=" " horiz-adv-x="635" 
 />
    <glyph glyph-name="exclam" unicode="!" horiz-adv-x="503" 
d="M106 -1l42 269h291l-42 -269h-291zM180 303l37 360q2 21 4.5 53.5t5 57.5t6.5 54l95 602h299l-95 -602q-6 -37 -18.5 -91.5t-16.5 -73.5l-77 -360h-240z" />
    <glyph glyph-name="quotedbl" unicode="&#x22;" horiz-adv-x="776" 
d="M596 1310l-82 -344h-225l39 464h296zM587 966l58 464h277l-109 -464h-226z" />
    <glyph glyph-name="numbersign" unicode="#" horiz-adv-x="944" 
d="M107 -1l104 392h-97l54 213h99l78 297h-99l55 214h101l83 315h259l-83 -315h50l82 315h259l-81 -315h101l-56 -214h-102l-79 -297h102l-57 -213h-101l-103 -392h-259l103 392h-50l-104 -392h-259zM527 604h49l79 297h-50z" />
    <glyph glyph-name="dollar" unicode="$" horiz-adv-x="913" 
d="M330 19q-55 16 -94 47t-58.5 67t-28 81.5t-7.5 84t8 80.5l20 124h288l-22 -139q-8 -47 4 -75q13 -27 51 -27q41 0 63 27q20 24 29 75q11 72 -18.5 125.5t-101.5 118.5q-109 103 -153 170q-73 115 -47 274q44 287 287 356l18 111h260l-18 -111q223 -65 178 -356l-12 -75
h-286l5 31q1 9 4.5 28.5t4.5 27.5q4 38 2 57q-7 49 -56 49q-36 0 -58 -28q-21 -29 -28 -78q-12 -71 17.5 -124.5t101.5 -118.5q110 -102 154 -167q72 -111 46 -275q-9 -54 -26 -102.5t-49 -102t-88 -94.5t-130 -61l-17 -107h-260z" />
    <glyph glyph-name="percent" unicode="%" horiz-adv-x="1540" 
d="M383 -1l800 1431h213l-801 -1431h-212zM198 685l88 555q15 91 83 141t190 50q121 0 172 -50t36 -141l-88 -555q-14 -91 -81 -141.5t-188 -50.5t-173.5 50.5t-38.5 141.5zM410 721q-7 -45 29 -45q34 0 41 45l76 480q8 46 -26 46q-37 0 -44 -46zM998 183l88 554
q15 92 82.5 142t189.5 50q121 0 172 -50.5t37 -141.5l-88 -554q-31 -193 -270 -193q-121 0 -173.5 50.5t-37.5 142.5zM1210 218q-8 -45 28 -45q34 0 42 45l76 480q7 46 -27 46q-36 0 -43 -46z" />
    <glyph glyph-name="ampersand" unicode="&#x26;" horiz-adv-x="989" 
d="M556 32q-76 -48 -172 -48q-167 0 -217 129q-32 85 -11 214l22 139q32 203 169 287q-37 28 -58 66.5t-24.5 84t-1.5 79.5t9 77q8 55 25 103.5t49.5 99t78 86t115.5 58.5t157 23h291l-40 -256h-287q-41 0 -60 -26q-21 -28 -28 -77l-14 -85q-9 -58 6.5 -85.5t66.5 -27.5h57
l25 153h299l-25 -153h99l-41 -258h-99l-97 -616h-299zM458 345q-8 -49 4 -77q14 -28 53 -28q73 0 88 88l45 287h-44q-63 0 -91 -38q-24 -33 -35 -105z" />
    <glyph glyph-name="quotesingle" unicode="'" horiz-adv-x="487" 
d="M282 966l40 464h296l-110 -464h-226z" />
    <glyph glyph-name="parenleft" unicode="(" horiz-adv-x="624" 
d="M457 -35q-87 0 -148 17.5t-92.5 48t-48 72t-14.5 90t9 102.5l122 770q9 58 23.5 103t43.5 89.5t70.5 73.5t108 47t153.5 18h107l-37 -237h-93q-39 0 -54 -22q-13 -18 -22 -72l-122 -770q-9 -54 -1 -72q8 -22 47 -22h93l-38 -236h-107z" />
    <glyph glyph-name="parenright" unicode=")" horiz-adv-x="624" 
d="M48 -37l38 236h93q39 0 54 22q13 18 22 72l122 770q8 52 1 72q-8 22 -48 22h-93l38 237h107q87 0 148 -17.5t92.5 -48t48 -72.5t14.5 -90.5t-9 -102.5l-122 -770q-9 -58 -23.5 -102.5t-43.5 -89.5t-71 -73.5t-108 -46.5t-153 -18h-107z" />
    <glyph glyph-name="asterisk" unicode="*" horiz-adv-x="929" 
d="M235 770l251 213l-298 51l116 237l253 -134l-2 293h270l-93 -293l293 134l43 -237l-314 -51l183 -213l-237 -153l-97 261l-179 -261z" />
    <glyph glyph-name="plus" unicode="+" horiz-adv-x="913" 
d="M392 339l42 269h-268l34 213h268l42 264h235l-42 -264h268l-34 -213h-268l-42 -269h-235z" />
    <glyph glyph-name="comma" unicode="," horiz-adv-x="494" 
d="M88 -196l88 195h-74l42 269h291l-34 -216q-2 -7 -9 -18q-7 -14 -13 -24t-21 -34.5t-23 -37.5q-13 -22 -29 -49.5t-26 -44.5t-12 -20l-12 -20h-168z" />
    <glyph glyph-name="hyphen" unicode="-" horiz-adv-x="661" 
d="M185 586l41 257h478l-41 -257h-478z" />
    <glyph glyph-name="period" unicode="." horiz-adv-x="494" 
d="M102 -1l42 269h291l-42 -269h-291z" />
    <glyph glyph-name="slash" unicode="/" horiz-adv-x="907" 
d="M30 -1l801 1431h272l-800 -1431h-273z" />
    <glyph glyph-name="zero" unicode="0" horiz-adv-x="922" 
d="M277 1091q22 136 122 211t281 75q180 0 255.5 -75.5t54.5 -210.5l-130 -821q-22 -136 -121.5 -211t-279.5 -75q-181 0 -257.5 75t-54.5 211zM468 209q8 -5 23 -5q54 0 65 68l37 233zM545 857l125 296q-9 4 -28 4q-26 0 -40 -15t-20 -51z" />
    <glyph glyph-name="one" unicode="1" horiz-adv-x="660" 
d="M249 -1l168 1063h-163l48 300h468l-216 -1363h-305z" />
    <glyph glyph-name="two" unicode="2" horiz-adv-x="907" 
d="M161 381q10 60 35.5 109.5t68 90t76.5 65.5t89 59q60 38 82 53q39 25 69 53q67 59 79 136l23 144q6 36 -4 51t-37 15q-28 0 -43 -15.5t-20 -50.5l-42 -267h-305l42 267q22 136 122 211t281 75q180 0 255.5 -75.5t54.5 -210.5l-24 -151q-9 -53 -34.5 -104t-67 -96.5
t-79 -79.5t-89.5 -74q-136 -105 -158 -125q-65 -57 -72 -99l-16 -104h395l-41 -259h-700z" />
    <glyph glyph-name="three" unicode="3" horiz-adv-x="916" 
d="M170 440h305l-27 -168q-11 -68 42 -68q27 0 41.5 16t20.5 52l38 240q3 19 -11.5 34.5t-31.5 15.5h-168l40 251h168q17 0 36.5 16t22.5 35l36 227q6 36 -4 51t-37 15q-28 0 -43 -15.5t-20 -50.5l-24 -153h-305l24 153q22 136 122 211t281 75q180 0 255.5 -75.5
t54.5 -210.5l-30 -186q-24 -156 -128 -218q84 -67 59 -220l-31 -197q-22 -136 -121.5 -211t-279.5 -75q-181 0 -257.5 75t-54.5 211z" />
    <glyph glyph-name="four" unicode="4" horiz-adv-x="897" 
d="M486 -1l63 396h-389l153 967h305l-106 -667h84l106 667h305l-216 -1363h-305z" />
    <glyph glyph-name="five" unicode="5" horiz-adv-x="913" 
d="M168 409h305l-22 -137q-11 -68 42 -68q27 0 41.5 16t20.5 52l43 268q5 36 -4.5 51.5t-36.5 15.5q-35 0 -50 -28q-8 -16 -14 -40q-1 -7 -3 -22t-4 -22l-5 -31h-305l143 898h700l-46 -290h-395l-37 -232q38 2 53 2q174 0 253 -56.5t66 -180.5l-63 -388q-32 -113 -132 -173
t-260 -60q-181 0 -257.5 75t-54.5 211z" />
    <glyph glyph-name="six" unicode="6" horiz-adv-x="921" 
d="M686 1091q5 36 -5.5 51t-38.5 15q-26 0 -40 -15t-20 -51l-40 -252q36 2 53 2q180 0 255.5 -75t54.5 -210l-45 -283q-21 -136 -120.5 -211t-279.5 -75q-178 0 -256.5 73t-57.5 207l131 824q22 136 122 211t281 75q180 0 255.5 -75.5t54.5 -210.5l-29 -179h-304zM452 273
q-6 -36 4 -51t36 -15q28 0 43 15t21 51l42 264q6 35 -5 50t-39 15q-26 0 -40 -14.5t-20 -50.5z" />
    <glyph glyph-name="seven" unicode="7" horiz-adv-x="827" 
d="M160 -1l385 1072h-284l46 291h656l-504 -1363h-299z" />
    <glyph glyph-name="eight" unicode="8" horiz-adv-x="919" 
d="M305 682q-83 66 -59 224l31 194q21 132 124 204.5t278 72.5q176 0 254 -72.5t57 -204.5l-31 -194q-23 -157 -129 -224q84 -68 58 -226l-31 -195q-21 -132 -122 -204.5t-277 -72.5q-174 0 -254 72.5t-60 204.5l31 195q26 158 130 226zM451 272q-11 -68 42 -68
q27 0 41.5 16t20.5 52l35 219q6 36 -4 51t-37 15q-28 0 -43 -15.5t-20 -50.5zM546 870q-11 -67 42 -67q27 0 41.5 15t20.5 52l35 221q6 36 -4 51t-37 15q-28 0 -43 -15.5t-20 -50.5z" />
    <glyph glyph-name="nine" unicode="9" horiz-adv-x="921" 
d="M176 452h305l-29 -179q-6 -36 4.5 -51t38.5 -15q27 0 41 15t20 51l40 252q-36 -2 -54 -2q-180 0 -255.5 75t-54.5 210l45 283q21 135 120.5 210.5t279.5 75.5q178 0 256.5 -73t57.5 -207l-131 -824q-22 -137 -122 -211.5t-281 -74.5q-180 0 -255.5 75t-54.5 211zM540 826
q-6 -34 4.5 -49t38.5 -15q27 0 41 14.5t20 49.5l42 265q6 36 -4 51t-37 15q-28 0 -43 -15.5t-20 -50.5z" />
    <glyph glyph-name="colon" unicode=":" horiz-adv-x="494" 
d="M102 -1l42 269h291l-42 -269h-291zM220 744l42 269h291l-42 -269h-291z" />
    <glyph glyph-name="semicolon" unicode=";" horiz-adv-x="494" 
d="M220 744l42 269h291l-42 -269h-291zM88 -196l88 195h-74l42 269h291l-34 -216q-2 -7 -9 -18q-7 -14 -13 -24t-21 -34.5t-23 -37.5q-13 -22 -29 -49.5t-26 -44.5t-12 -20l-12 -20h-168z" />
    <glyph glyph-name="less" unicode="&#x3c;" horiz-adv-x="913" 
d="M178 619l30 191l772 263l-35 -221l-413 -137l369 -138l-35 -222z" />
    <glyph glyph-name="equal" unicode="=" horiz-adv-x="913" 
d="M163 449l34 215h729l-34 -215h-729zM213 767l34 213h729l-34 -213h-729z" />
    <glyph glyph-name="greater" unicode="&#x3e;" horiz-adv-x="913" 
d="M158 355l35 222l414 138l-370 137l35 221l688 -263l-30 -191z" />
    <glyph glyph-name="question" unicode="?" horiz-adv-x="840" 
d="M251 -1l42 269h292l-42 -269h-292zM205 905l27 166q8 53 24.5 101.5t49 100t77.5 88t115 60.5t156 24q72 0 127.5 -16t89.5 -45t56 -65t30 -79.5t8 -84t-7 -84.5q-16 -97 -53.5 -177.5t-107.5 -166.5q-18 -22 -65.5 -75t-68.5 -81q-57 -79 -70 -162q-6 -38 -5 -72l3 -34
h-273l-5 22q-7 43 1 93q25 152 134 282q83 97 86 101q99 120 126 283q8 55 -3 78q-11 26 -50 26q-38 0 -59 -27q-21 -30 -28 -77l-29 -179h-286z" />
    <glyph glyph-name="at" unicode="@" horiz-adv-x="1496" 
d="M1183 -1q-198 -117 -452 -117q-116 0 -209 23t-156 62.5t-108 96t-68.5 118t-33.5 134.5t-7.5 140.5t14.5 140.5q47 305 205 531q122 173 301 277t415 104q102 0 183.5 -19t137 -51.5t94.5 -79.5t60 -99t29.5 -114.5t6 -121t-12.5 -122.5q-46 -285 -166 -441
q-29 -38 -62.5 -71.5t-80 -67.5t-104.5 -54t-119 -20h-39q-24 0 -62 2q-39 2 -65 11q-30 11 -49 36q-66 -38 -141 -38q-136 0 -181 98q-27 64 -11 167q5 30 15 70q14 51 52 199q13 48 27 84.5t43 83t66.5 77t98 51.5t135.5 21q63 0 100 -16l4 8h246l-158 -599l-3 -8v-9
q19 0 51 24q25 21 49 54q15 21 26 46q56 123 81 289q8 60 8.5 116t-19 104.5t-52.5 84.5t-92.5 56.5t-139.5 20.5q-137 0 -250 -60q-84 -46 -150.5 -121.5t-107.5 -166.5t-65 -174t-38 -172q-9 -53 -11 -101.5t4.5 -97.5t21.5 -90t43 -77t67 -60.5t96 -39t128 -14.5
q120 0 213.5 29t190.5 94l85 58l-70 -280zM770 571q-5 -37 5 -53t38 -16q29 0 50 27q21 26 32 69l48 186q1 2 4 15q5 33 -5.5 47.5t-39.5 14.5q-27 0 -50 -27q-20 -25 -31 -69l-44 -167q-3 -9 -7 -27z" />
    <glyph glyph-name="A" unicode="A" horiz-adv-x="909" 
d="M86 -1l354 1363h462l-79 -1363h-300l18 226h-101l-53 -226h-301zM490 489h83l55 543h-22z" />
    <glyph glyph-name="B" unicode="B" horiz-adv-x="921" 
d="M106 -1l216 1363h352q179 0 249 -71t49 -206l-28 -178q-25 -151 -132 -210q47 -23 70 -64t22.5 -84t-6.5 -90l-29 -179q-44 -281 -396 -281h-367zM454 271h47q26 0 44.5 19t23.5 53l21 131q5 34 -7 53.5t-38 19.5h-47zM541 819h29q57 0 68 73l21 130q11 74 -45 74h-29z
" />
    <glyph glyph-name="C" unicode="C" 
d="M603 589h304l-50 -319q-22 -136 -121.5 -211t-279.5 -75t-257 75t-55 211l130 821q22 136 122 211t281 75q180 0 255.5 -75.5t54.5 -210.5l-51 -320h-304l42 264q6 36 -3.5 51.5t-36.5 15.5q-53 0 -64 -67l-113 -712q-10 -67 43 -67q27 0 41 15.5t20 51.5z" />
    <glyph glyph-name="D" unicode="D" horiz-adv-x="915" 
d="M501 271q54 0 64 63l109 690q10 63 -44 63h-47l-129 -816h47zM106 -1l216 1363h373q172 0 242.5 -76.5t49.5 -205.5l-127 -800q-33 -216 -260 -266q-68 -15 -121 -15h-373z" />
    <glyph glyph-name="E" unicode="E" horiz-adv-x="829" 
d="M106 -1l216 1363h638l-44 -275h-333l-43 -271h245l-43 -276h-245l-42 -264h333l-44 -277h-638z" />
    <glyph glyph-name="F" unicode="F" horiz-adv-x="821" 
d="M106 -1l216 1363h638l-44 -275h-333l-43 -271h245l-43 -276h-245l-86 -541h-305z" />
    <glyph glyph-name="G" unicode="G" horiz-adv-x="918" 
d="M457 -15q-181 0 -258 74.5t-55 210.5l130 822q22 136 122.5 210t280.5 74t256 -74.5t54 -209.5l-48 -304h-304l39 248q6 36 -3.5 51.5t-36.5 15.5q-53 0 -64 -67l-113 -714q-10 -67 42 -67q27 0 41.5 15.5t20.5 51.5l30 187h-76l36 231h380l-74 -470
q-22 -136 -121.5 -210.5t-278.5 -74.5z" />
    <glyph glyph-name="H" unicode="H" horiz-adv-x="913" 
d="M106 -1l216 1363h305l-86 -543h90l86 543h305l-216 -1363h-303l85 548h-90l-89 -548h-303z" />
    <glyph glyph-name="I" unicode="I" horiz-adv-x="517" 
d="M106 -1l216 1363h305l-216 -1363h-305z" />
    <glyph glyph-name="J" unicode="J" horiz-adv-x="895" 
d="M169 590h306l-42 -268q-6 -36 3.5 -51.5t36.5 -15.5q54 0 64 67l165 1040h305l-173 -1092q-22 -136 -122 -210.5t-281 -74.5q-180 0 -257 75t-55 210z" />
    <glyph glyph-name="K" unicode="K" horiz-adv-x="902" 
d="M106 -1l216 1363h305l-68 -428l163 428h309l-188 -470q-9 -24 -51 -110q-26 -55 -33 -102q-9 -51 1 -102q15 -102 16 -110l39 -469h-309l-27 429l-68 -429h-305z" />
    <glyph glyph-name="L" unicode="L" horiz-adv-x="812" 
d="M106 -1l216 1363h305l-172 -1087h333l-44 -276h-638z" />
    <glyph glyph-name="M" unicode="M" horiz-adv-x="1263" 
d="M106 -1l216 1363h408l6 -742l229 742h408l-216 -1363h-300l87 549l-187 -549h-252l-12 549l-87 -549h-300z" />
    <glyph glyph-name="N" unicode="N" horiz-adv-x="979" 
d="M106 -1l216 1363h363l37 -624l100 624h266l-216 -1363h-366l-33 613l-97 -613h-270z" />
    <glyph glyph-name="O" unicode="O" horiz-adv-x="916" 
d="M499 255q27 0 41.5 15.5t20.5 51.5l113 714q6 36 -3.5 51.5t-36.5 15.5q-53 0 -64 -67l-113 -714q-10 -67 42 -67zM144 270l130 822q22 136 122.5 210t280.5 74t256 -74.5t54 -209.5l-130 -822q-22 -136 -121.5 -210.5t-278.5 -74.5q-181 0 -258 74.5t-55 210.5z" />
    <glyph glyph-name="P" unicode="P" horiz-adv-x="882" 
d="M106 -1l216 1363h367q81 0 139 -19t87 -50.5t44.5 -73.5t12.5 -88t-8 -93l-26 -166q-8 -52 -21.5 -94t-41.5 -85.5t-67.5 -72.5t-102.5 -47.5t-144 -18.5h-62l-88 -555h-305zM541 819h29q57 0 68 73l21 130q11 74 -45 74h-29z" />
    <glyph glyph-name="Q" unicode="Q" horiz-adv-x="919" 
d="M457 -15q-180 0 -257.5 74.5t-55.5 210.5l130 822q22 136 122.5 210t280.5 74t256 -74.5t54 -209.5l-130 -822q-20 -123 -98 -192l59 -121l-285 -150zM457 322q-10 -67 42 -67q27 0 41.5 15.5t20.5 51.5l113 714q6 36 -3.5 51.5t-36.5 15.5q-53 0 -64 -67z" />
    <glyph glyph-name="R" unicode="R" 
d="M106 -1l216 1363h367q81 0 139 -19t87 -50.5t44.5 -73.5t12.5 -88t-8 -93l-26 -166q-25 -159 -112 -235l-2 -638h-301l18 554h-42l-88 -554h-305zM541 819h29q57 0 68 73l21 130q11 74 -45 74h-29z" />
    <glyph glyph-name="S" unicode="S" horiz-adv-x="907" 
d="M450 -16q-180 0 -257 75t-55 211l37 235h305l-28 -176q-5 -35 5.5 -50.5t37.5 -15.5q35 0 49 27q9 19 12 38q3 16 7 44q6 34 4 53t-19 43q-2 4 -6 10l-5 5l-199 214q-61 67 -80 139t-5 161l14 88q22 138 120 215t281 77q182 0 259 -75t55 -211l-36 -223h-305l27 170
q6 36 -3.5 51.5t-36.5 15.5q-35 0 -52 -29q-8 -20 -12 -40q0 -2 -7 -45q-5 -32 1 -54t26 -51l21 -26l199 -214l1 -1l2 -2t8 -6q27 -29 34 -39q33 -49 33 -118q-1 -40 -13 -116l-14 -88q-47 -292 -405 -292z" />
    <glyph glyph-name="T" unicode="T" horiz-adv-x="867" 
d="M280 -1l172 1089h-208l44 274h722l-44 -274h-209l-172 -1089h-305z" />
    <glyph glyph-name="U" unicode="U" horiz-adv-x="919" 
d="M317 1362h305l-165 -1040q-10 -67 42 -67q27 0 41.5 15.5t20.5 51.5l165 1040h304l-173 -1092q-22 -136 -121.5 -210.5t-278.5 -74.5q-181 0 -258 74.5t-55 210.5z" />
    <glyph glyph-name="V" unicode="V" horiz-adv-x="921" 
d="M218 -1l84 1363h305l-50 -742l187 742h307l-350 -1363h-483z" />
    <glyph glyph-name="W" unicode="W" horiz-adv-x="1365" 
d="M231 -1l70 1363h305l-49 -658l187 658h311l-23 -655l156 655h310l-363 -1363h-377l32 679l-181 -679h-378z" />
    <glyph glyph-name="X" unicode="X" horiz-adv-x="935" 
d="M322 674v2q0 3 1 5q0 6 1 6l-22 675h315l7 -379l128 379h314l-236 -675q-1 0 -1 -6q-2 -7 -1 -7l22 -675h-314l-8 381l-127 -381h-315z" />
    <glyph glyph-name="Y" unicode="Y" horiz-adv-x="929" 
d="M309 -1l25 157l39 250l-54 612l-30 344h322l7 -383l131 383h323l-142 -342l-252 -610l-40 -252l-25 -159h-304z" />
    <glyph glyph-name="Z" unicode="Z" horiz-adv-x="756" 
d="M82 -1l394 1089h-200l44 274h572l-402 -1086h223l-44 -277h-587z" />
    <glyph glyph-name="bracketleft" unicode="[" horiz-adv-x="624" 
d="M110 -39l226 1431h442l-37 -237h-142l-152 -957h142l-37 -237h-442z" />
    <glyph glyph-name="backslash" unicode="\" horiz-adv-x="907" 
d="M605 -1l-349 1431h273l348 -1431h-272z" />
    <glyph glyph-name="bracketright" unicode="]" horiz-adv-x="624" 
d="M59 -39l37 237h143l152 957h-143l37 237h443l-226 -1431h-443z" />
    <glyph glyph-name="asciicircum" unicode="^" horiz-adv-x="942" 
d="M182 763l409 667h211l200 -667h-260l-96 344l-205 -344h-259z" />
    <glyph glyph-name="underscore" unicode="_" horiz-adv-x="1118" 
d="M-8 -177l35 219h1077l-35 -219h-1077z" />
    <glyph glyph-name="grave" unicode="`" horiz-adv-x="614" 
d="M451 1121l-150 241h313l95 -241h-258z" />
    <glyph glyph-name="a" unicode="a" horiz-adv-x="909" 
d="M86 -1l354 1363h462l-79 -1363h-300l18 226h-101l-53 -226h-301zM490 489h83l66 607h-22z" />
    <glyph glyph-name="b" unicode="b" horiz-adv-x="921" 
d="M106 -1l216 1363h352q178 0 248.5 -71.5t49.5 -205.5l-28 -178q-25 -151 -132 -210q47 -23 70 -64t22.5 -84t-6.5 -90l-29 -179q-44 -281 -396 -281h-367zM444 211h47q26 0 45 19.5t24 53.5l35 218q5 34 -7.5 53t-38.5 19h-47zM536 788h29q57 0 68 72l35 217q5 36 -7 55
t-39 19h-29z" />
    <glyph glyph-name="c" unicode="c" 
d="M603 590h304l-50 -320q-22 -136 -121.5 -210.5t-278.5 -74.5q-181 0 -258 74.5t-55 210.5l130 822q22 136 122.5 210t280.5 74t256 -74.5t54 -209.5l-51 -322h-304l42 266q6 36 -3.5 51.5t-36.5 15.5q-53 0 -64 -67l-113 -714q-10 -67 42 -67q27 0 41.5 15.5t20.5 51.5z
" />
    <glyph glyph-name="d" unicode="d" horiz-adv-x="915" 
d="M501 272q28 0 43.5 14.5t20.5 48.5l109 689q10 63 -44 63h-47l-129 -815h47zM106 -1l216 1363h373q171 0 242 -76t50 -205l-127 -802q-33 -214 -260 -265q-68 -15 -121 -15h-373z" />
    <glyph glyph-name="e" unicode="e" horiz-adv-x="829" 
d="M106 -1l216 1363h638l-44 -275h-333l-43 -271h245l-43 -276h-245l-42 -264h333l-44 -277h-638z" />
    <glyph glyph-name="f" unicode="f" horiz-adv-x="821" 
d="M106 -1l216 1363h638l-44 -275h-333l-43 -271h245l-43 -276h-245l-86 -541h-305z" />
    <glyph glyph-name="g" unicode="g" horiz-adv-x="918" 
d="M457 322q-10 -67 42 -67q27 0 41.5 15.5t20.5 51.5l30 187h-104zM144 270l130 822q22 136 122.5 210t280.5 74t256 -74.5t54 -209.5l-51 -319v-3l-79 -500q-22 -136 -121.5 -210.5t-278.5 -74.5q-181 0 -258 74.5t-55 210.5zM528 773h104l42 263q6 36 -3.5 51.5
t-36.5 15.5q-53 0 -64 -67z" />
    <glyph glyph-name="h" unicode="h" horiz-adv-x="913" 
d="M106 -1l216 1363h305l-86 -543h90l86 543h305l-216 -1363h-303l85 548h-90l-89 -548h-303z" />
    <glyph glyph-name="i" unicode="i" horiz-adv-x="517" 
d="M106 -1l216 1363h305l-216 -1363h-305z" />
    <glyph glyph-name="j" unicode="j" horiz-adv-x="895" 
d="M169 590h306l-42 -268q-6 -36 3.5 -51.5t36.5 -15.5q54 0 64 67l165 1040h305l-173 -1092q-22 -136 -122 -210.5t-281 -74.5q-180 0 -257 75t-55 210z" />
    <glyph glyph-name="k" unicode="k" horiz-adv-x="902" 
d="M106 -1l216 1363h305l-68 -428l163 428h309l-188 -470q-9 -24 -51 -110q-26 -55 -33 -102q-9 -51 1 -102q15 -102 16 -110l39 -469h-309l-27 429l-68 -429h-305z" />
    <glyph glyph-name="l" unicode="l" horiz-adv-x="812" 
d="M106 -1l216 1363h305l-172 -1087h333l-44 -276h-638z" />
    <glyph glyph-name="m" unicode="m" horiz-adv-x="1263" 
d="M106 -1l216 1363h408l6 -742q32 118 89.5 303.5t98.5 312.5l41 126h408l-216 -1363h-300l87 549l-187 -549h-252l-12 549l-87 -549h-300z" />
    <glyph glyph-name="n" unicode="n" horiz-adv-x="979" 
d="M106 -1l216 1363h363l37 -624l100 624h266l-216 -1363h-366l-33 613l-97 -613h-270z" />
    <glyph glyph-name="o" unicode="o" horiz-adv-x="916" 
d="M499 255q27 0 41.5 15.5t20.5 51.5l113 714q6 36 -3.5 51.5t-36.5 15.5q-53 0 -64 -67l-113 -714q-10 -67 42 -67zM144 270l130 822q22 136 122.5 210t280.5 74t256 -74.5t54 -209.5l-130 -822q-22 -136 -121.5 -210.5t-278.5 -74.5q-181 0 -258 74.5t-55 210.5z" />
    <glyph glyph-name="p" unicode="p" horiz-adv-x="882" 
d="M106 -1l216 1363h367q81 0 139 -19t87 -50.5t44.5 -73.5t12.5 -88t-8 -93l-26 -166q-8 -52 -22 -94t-42 -85.5t-67.5 -73t-102.5 -48t-143 -18.5h-62l-88 -554h-305zM541 819h29q57 0 68 73l21 130q11 74 -45 74h-29z" />
    <glyph glyph-name="q" unicode="q" horiz-adv-x="919" 
d="M457 -15q-180 0 -257.5 74.5t-55.5 210.5l130 822q22 136 122.5 210t280.5 74t256 -74.5t54 -209.5l-130 -822q-20 -123 -98 -192l59 -121l-285 -150zM457 322q-10 -67 42 -67q27 0 41.5 15.5t20.5 51.5l113 714q6 36 -3.5 51.5t-36.5 15.5q-53 0 -64 -67z" />
    <glyph glyph-name="r" unicode="r" 
d="M106 -1l216 1363h367q81 0 139 -19t87 -50.5t44.5 -73.5t12.5 -88t-8 -93l-26 -166q-25 -158 -111 -234l-3 -639h-301l19 554h-43l-88 -554h-305zM541 819h29q57 0 68 73l21 130q11 74 -45 74h-29z" />
    <glyph glyph-name="s" unicode="s" horiz-adv-x="907" 
d="M450 -16q-180 0 -257 75t-55 211l37 235h305l-28 -176q-5 -35 5.5 -50.5t37.5 -15.5q35 0 49 27q9 19 12 38q3 16 7 44q6 34 4 53t-19 43q-2 4 -6 10l-5 5l-199 214q-61 67 -80 139t-5 161l14 88q22 138 120 215t281 77q182 0 259 -75t55 -211l-36 -223h-305l27 170
q6 36 -3.5 51.5t-36.5 15.5q-35 0 -52 -29q-8 -20 -12 -40q0 -2 -7 -45q-5 -32 1 -54t26 -51l21 -26l199 -214l1 -1l2 -2t8 -6q27 -29 34 -39q33 -49 33 -118q-1 -40 -13 -116l-14 -88q-47 -292 -405 -292z" />
    <glyph glyph-name="t" unicode="t" horiz-adv-x="867" 
d="M280 -1l172 1089h-208l44 274h722l-44 -274h-209l-172 -1089h-305z" />
    <glyph glyph-name="u" unicode="u" horiz-adv-x="922" 
d="M317 1362h305l-165 -1040q-10 -67 42 -67q27 0 41.5 15.5t20.5 51.5l165 1040h304l-173 -1092q-22 -136 -121.5 -210.5t-278.5 -74.5q-181 0 -258 74.5t-55 210.5z" />
    <glyph glyph-name="v" unicode="v" horiz-adv-x="921" 
d="M218 -1l84 1363h305l-50 -742l187 742h307l-350 -1363h-483z" />
    <glyph glyph-name="w" unicode="w" horiz-adv-x="1365" 
d="M231 -1l70 1363h305l-49 -658l187 658h311l-23 -655l156 655h310l-363 -1363h-377l32 679l-181 -679h-378z" />
    <glyph glyph-name="x" unicode="x" horiz-adv-x="935" 
d="M322 674v2q0 3 1 5q0 6 1 6l-22 675h315l7 -379l128 379h314l-236 -675q-1 0 -1 -6q-2 -7 -1 -7l22 -675h-314l-8 381l-127 -381h-315z" />
    <glyph glyph-name="y" unicode="y" horiz-adv-x="929" 
d="M310 -1l25 157l39 250l-54 612l-30 344h322l7 -383l131 383h323l-142 -342l-252 -610l-40 -252l-25 -159h-304z" />
    <glyph glyph-name="z" unicode="z" horiz-adv-x="756" 
d="M82 -1l393 1089h-199l44 274h572l-402 -1086h223l-44 -277h-587z" />
    <glyph glyph-name="braceleft" unicode="{" horiz-adv-x="634" 
d="M425 -41q-58 0 -101.5 15.5t-67 40.5t-38.5 57.5t-16 66t0 65.5q4 48 12.5 136t12.5 127q4 33 0 53q-2 24 -12.5 31t-43.5 6h-39l38 237h39q33 -1 45 5.5t22 29.5t17 53l58 262q10 44 29 83.5t53 78.5t90 62t128 23h151l-37 -238h-72q-38 0 -58 -28q-7 -11 -16 -38
q-1 -3 -11 -43q-6 -31 -19.5 -96.5t-20.5 -100.5q-24 -120 -116 -172q75 -53 62 -173q-18 -146 -23 -196q-3 -39 -3 -44q0 -23 4 -38q10 -28 49 -28h72l-37 -237h-151z" />
    <glyph glyph-name="bar" unicode="|" horiz-adv-x="1133" 
d="M426 -128l267 1685h260l-267 -1685h-260z" />
    <glyph glyph-name="braceright" unicode="}" horiz-adv-x="634" 
d="M38 -41l37 237h72q38 0 57 28q8 12 15 38q2 5 11 44q9 38 23 108t18 88q23 119 116 173q-75 53 -62 172q17 138 22 197q3 39 3 43q1 22 -3 38q-11 28 -48 28h-72l37 238h151q58 0 101.5 -15.5t66.5 -41.5t38 -58.5t16 -66t0 -65.5q-2 -24 -11 -117.5t-13 -144.5
q-3 -31 -1 -53q2 -23 12.5 -29.5t44.5 -5.5h39l-38 -237h-39q-34 1 -46 -6t-22 -31q-9 -22 -16 -53q-12 -51 -34 -149.5t-25 -113.5q-10 -44 -29 -83.5t-53 -78t-90 -61t-127 -22.5h-151z" />
    <glyph glyph-name="asciitilde" unicode="~" horiz-adv-x="926" 
d="M160 692q23 29 49 58q31 34 66 62q92 74 187 74q47 0 97 -23q31 -18 71 -44q14 -11 31 -22q21 -14 27 -17q23 -13 40 -13q14 0 31 12q22 16 41 38q15 15 41 45l36 42l131 -160l-15 -17q-57 -71 -114 -115q-91 -69 -188 -69q-38 0 -96 22q-41 23 -69 45q-6 3 -16.5 10.5
t-15.5 11.5q-6 5 -27 17q-24 14 -42 14q-14 0 -31 -12q-30 -27 -40 -38q-7 -7 -40 -46l-35 -39l-135 148z" />
    <glyph glyph-name="uni00A0" unicode="&#xa0;" horiz-adv-x="769" 
 />
    <glyph glyph-name="exclamdown" unicode="&#xa1;" horiz-adv-x="503" 
d="M290 1162l42 268h291l-42 -268h-291zM102 -1l95 602q4 29 9.5 54t14 58t13.5 55l76 359h240l-36 -359q-3 -25 -7.5 -77.5t-10.5 -89.5l-95 -602h-299z" />
    <glyph glyph-name="cent" unicode="&#xa2;" horiz-adv-x="913" 
d="M340 80q-54 16 -92.5 47.5t-57.5 67t-27 80t-7 82.5t7 79l88 557q9 53 26 101t48.5 100.5t87 93t128.5 61.5l17 110h260l-17 -108q231 -63 183 -358l-20 -125h-286l22 138q9 49 -5 76q-12 28 -52 28q-41 0 -62 -28q-20 -25 -29 -76l-92 -582q-7 -53 5 -77q12 -27 53 -27
q40 0 61 28q22 28 29 76l30 186h286l-28 -174q-9 -54 -26 -102.5t-49 -102t-89 -94.5t-133 -60l-17 -108h-260z" />
    <glyph glyph-name="sterling" unicode="&#xa3;" horiz-adv-x="913" 
d="M80 -1l39 250h41q71 0 121 61q34 42 52 100h-159l36 228h119q-7 29 -24 82.5t-23 72.5q-37 118 -11 278q8 53 24.5 101.5t49.5 99.5t78 88t114.5 61t155.5 24q72 0 127.5 -16t89.5 -45t56 -64.5t29.5 -79.5t7.5 -84.5t-7 -84.5l-27 -166h-286l29 179q7 54 -3 78
q-11 26 -51 26q-37 0 -58 -27q-21 -30 -28 -77q-25 -151 8 -264q41 -144 47 -182h249l-36 -228h-230q-30 -89 -92 -154h335l-41 -257h-732z" />
    <glyph glyph-name="yen" unicode="&#xa5;" horiz-adv-x="930" 
d="M170 226l27 169h182l4 27h-182l26 168h155l-121 840h312l53 -483l205 483h292l-388 -840h156l-26 -168h-183l-4 -27h183l-27 -169h-183l-36 -227h-299l36 227h-182z" />
    <glyph glyph-name="brokenbar" unicode="&#xa6;" horiz-adv-x="1133" 
d="M426 -128l119 756h260l-119 -756h-260zM573 802l120 755h260l-120 -755h-260z" />
    <glyph glyph-name="section" unicode="&#xa7;" horiz-adv-x="914" 
d="M139 281h288l-16 -98q-7 -41 7 -64.5t47 -23.5q70 0 84 80q5 37 -42 68q-34 20 -58 32q-46 21 -75 35q-46 24 -78 50t-62 65.5t-40.5 94.5t0.5 124q24 153 156 240q-103 92 -78 253q21 131 128 219.5t283 88.5q175 0 255.5 -82.5t60.5 -213.5l-16 -100h-286l11 71
q7 41 -7.5 64t-48.5 23q-70 0 -82 -79q-5 -34 34 -64q5 -4 45 -25q9 -5 52 -25q112 -53 167 -115q80 -85 55 -241q-10 -68 -49 -131.5t-107 -109.5q104 -92 78 -252q-21 -131 -128 -220t-283 -89q-175 0 -255.5 83t-60.5 214zM485 652q-6 -41 10.5 -67.5t59.5 -49.5
q23 7 47 37q24 34 32 78q6 39 -11.5 65.5t-61.5 51.5q-23 -9 -46 -38q-23 -36 -30 -77z" />
    <glyph glyph-name="dieresis" unicode="&#xa8;" horiz-adv-x="676" 
d="M507 1121h-240l38 241h240zM525 1121l38 241h240l-38 -241h-240z" />
    <glyph glyph-name="copyright" unicode="&#xa9;" horiz-adv-x="1590" 
d="M184 426q-34 126 -9 289q23 142 96 280.5t194 240.5q114 97 258 153t302 56q157 0 284 -55.5t210 -153.5q88 -103 117 -241.5t6 -279.5q-23 -142 -95.5 -280t-192.5 -241q-114 -98 -258.5 -154t-302.5 -56q-105 0 -196 24t-158 64.5t-119 97.5t-85 120.5t-51 135.5z
M394 715q-23 -147 28 -279q47 -115 149.5 -184.5t253.5 -69.5q144 0 267 66q139 73 221.5 199.5t104.5 267.5q25 160 -24 279q-46 115 -148.5 184.5t-251.5 69.5q-150 0 -275.5 -69.5t-208.5 -184.5q-93 -132 -116 -279zM612 529l58 367q7 47 24 89t49.5 84.5t90.5 67.5
t135 25q62 0 107.5 -17t67.5 -44.5t35 -63t11 -71.5t-5 -70l-15 -97h-218l17 110q5 31 -3 47q-5 13 -23 13q-20 0 -30 -13q-11 -16 -16 -47l-61 -388q-5 -32 1 -47q7 -12 26 -12q17 0 27 12q13 17 18 47l22 145h218l-21 -137q-8 -47 -25.5 -88.5t-50.5 -83t-90.5 -66
t-133.5 -24.5q-62 0 -107 16.5t-67 44t-35 62t-11 70t5 69.5z" />
    <glyph glyph-name="ordfeminine" unicode="&#xaa;" horiz-adv-x="809" 
d="M655 1273q1 9 -6.5 13.5t-32.5 4.5q-48 0 -50 -18l-6 -36q28 1 89 1zM187 588l33 207h617l-33 -207h-617zM257 1032q21 136 142 179h-88l4 31q2 18 9 38q3 11 8 26q5 16 15 31q40 68 121 106t176 38q134 0 209.5 -53.5t58.5 -156.5l-73 -464h-258l1 8q-53 -13 -118 -13
q-56 0 -97.5 14t-63.5 37t-35.5 53t-13.5 62t3 64zM511 994q0 -16 4 -23q4 -14 40 -14q32 0 43 16q10 14 19 60l11 70h-35q-39 0 -53 -9q0 -1 -2 -3.5t-3 -4.5q-2 -3 -5 -9l-4 -8q-8 -19 -11 -40q-4 -24 -4 -35z" />
    <glyph glyph-name="guillemotleft" unicode="&#xab;" horiz-adv-x="837" 
d="M180 534q-2 20 -7.5 51t-6.5 35q-4 59 2 97q5 37 28 91q31 59 40 82l146 360h277l-147 -371q-12 -28 -41 -84q-21 -47 -25 -78q-6 -32 0 -83q13 -86 13 -90l26 -392h-277zM490 620q-6 56 1 97q6 40 29 91q31 59 40 82l145 360h278l-149 -371q-6 -15 -39 -84
q-21 -45 -26 -78q-6 -32 0 -83q11 -75 12 -90l28 -392h-278l-27 382q-2 20 -7.5 51t-6.5 35z" />
    <glyph glyph-name="logicalnot" unicode="&#xac;" horiz-adv-x="913" 
d="M166 608l34 213h771l-76 -482h-236l42 269h-535z" />
    <glyph glyph-name="uni00AD" unicode="&#xad;" horiz-adv-x="661" 
d="M185 586l41 257h478l-41 -257h-478z" />
    <glyph glyph-name="registered" unicode="&#xae;" horiz-adv-x="1590" 
d="M184 426q-34 126 -9 289q23 142 96 280.5t194 240.5q114 97 258 153t302 56q157 0 284 -55.5t210 -153.5q88 -103 117 -241.5t6 -279.5q-23 -142 -95.5 -280t-192.5 -241q-114 -98 -258.5 -154t-302.5 -56q-105 0 -196 24t-158 64.5t-119 97.5t-85 120.5t-51 135.5z
M394 715q-23 -147 28 -279q47 -115 149.5 -184.5t253.5 -69.5q144 0 267 66q139 73 221.5 199.5t104.5 267.5q25 160 -24 279q-46 115 -148.5 184.5t-251.5 69.5q-150 0 -275.5 -69.5t-208.5 -184.5q-93 -132 -116 -279zM633 299l133 837h226q62 0 102 -17.5t54 -45.5
t18 -64t-5 -72l-16 -103q-16 -98 -69 -145v-390h-186l12 339h-27l-54 -339h-188zM901 803h19q33 0 40 44l13 80q7 45 -26 45h-19z" />
    <glyph glyph-name="degree" unicode="&#xb0;" horiz-adv-x="575" 
d="M471 1157q22 0 43 18.5t25 45.5t-11 47.5t-36 20.5t-43 -20.5t-26 -47.5t11 -45.5t37 -18.5zM245 1221q6 36 26 73.5t52.5 72t83.5 56.5t110 22t103 -22t66 -56.5t30.5 -72t2.5 -73.5q-14 -91 -91 -156q-83 -70 -182 -70q-98 0 -159 70q-56 61 -42 156z" />
    <glyph glyph-name="plusminus" unicode="&#xb1;" horiz-adv-x="913" 
d="M146 339l34 215h247l15 95h-247l34 214h247l35 222h235l-35 -222h247l-34 -214h-247l-15 -95h247l-34 -215h-729z" />
    <glyph glyph-name="acute" unicode="&#xb4;" horiz-adv-x="614" 
d="M263 1121l171 241h313l-226 -241h-258z" />
    <glyph glyph-name="paragraph" unicode="&#xb6;" horiz-adv-x="913" 
d="M392 521q-139 16 -186 138q-36 95 -16 224l28 177q8 55 24.5 103.5t49.5 99t78 86t115.5 58.5t157.5 23h393l-246 -1558h-239l212 1340h-26l-212 -1340h-240z" />
    <glyph glyph-name="periodcentered" unicode="&#xb7;" horiz-adv-x="494" 
d="M194 580l42 268h291l-42 -268h-291z" />
    <glyph glyph-name="cedilla" unicode="&#xb8;" horiz-adv-x="482" 
d="M69 -124q142 0 148 37q3 19 -30 28t-106 9l47 294h219l-30 -188q128 -35 111 -143q-14 -89 -101.5 -125t-276.5 -36z" />
    <glyph glyph-name="ordmasculine" unicode="&#xba;" horiz-adv-x="809" 
d="M514 1014q-3 -17 9.5 -27t35.5 -10q49 0 56 37l36 230q3 17 -9 28t-35 11t-38.5 -11t-18.5 -28zM187 588l33 207h223q-101 16 -151 73t-36 146l36 230q17 109 110 167.5t235 58.5t215.5 -58.5t56.5 -167.5l-36 -230q-14 -89 -82.5 -146t-173.5 -73h220l-33 -207h-617z
" />
    <glyph glyph-name="guillemotright" unicode="&#xbb;" horiz-adv-x="838" 
d="M229 544q8 21 23 52.5t18 37.5q19 37 27 83q5 39 -1 78q0 2 -6 33t-8 51l-30 371h278l31 -360q0 -2 13 -82q7 -47 1 -91q-6 -40 -31 -97q-35 -76 -39 -86l-149 -382h-278zM401 152l150 392q8 21 23 52.5t18 37.5q20 43 27 83q4 29 0 78q-12 61 -15 84l-29 371h278
l31 -360q0 -2 13 -82q9 -44 2 -91q-7 -43 -32 -97q-4 -10 -18 -38.5t-21 -47.5l-149 -382h-278z" />
    <glyph glyph-name="questiondown" unicode="&#xbf;" horiz-adv-x="840" 
d="M483 1162l42 268h291l-42 -268h-291zM111 358q31 195 148 331q21 26 69 79.5t70 81.5q62 84 76 170q5 40 5 71l-3 36h273l5 -24q6 -40 -2 -91q-23 -150 -134 -282q-70 -81 -84 -101q-102 -120 -127 -284q-8 -47 3 -77q14 -28 51 -28q38 0 57 28q18 23 28 77l28 179h288
l-26 -166q-9 -53 -25 -101t-49 -99.5t-78 -88.5t-114.5 -61t-155.5 -24q-62 0 -112 12.5t-83.5 33.5t-57.5 51t-36 62.5t-17.5 70.5t-4 72.5t7.5 71.5z" />
    <glyph glyph-name="Agrave" unicode="&#xc0;" horiz-adv-x="909" 
d="M602 1389l-151 240h313l96 -240h-258zM86 -1l354 1363h462l-79 -1363h-300l18 226h-101l-53 -226h-301zM490 489h83l66 607h-22z" />
    <glyph glyph-name="Aacute" unicode="&#xc1;" horiz-adv-x="909" 
d="M492 1388l166 240h316l-228 -240h-254zM86 -1l354 1363h462l-79 -1363h-300l18 226h-101l-53 -226h-301zM490 489h83l66 607h-22z" />
    <glyph glyph-name="Acircumflex" unicode="&#xc2;" horiz-adv-x="909" 
d="M86 -1l354 1363h462l-79 -1363h-300l18 226h-101l-53 -226h-301zM394 1389l193 240h253l114 -240l-247 1l-20 89l-41 -89zM490 489h83l66 607h-22z" />
    <glyph glyph-name="Atilde" unicode="&#xc3;" horiz-adv-x="909" 
d="M409 1448q13 78 43 116q51 64 157 64q56 0 111 -32q2 -1 6 -3.5t7 -4.5t5 -4v1l7 43h243l-7 -46q-14 -82 -43 -122q-50 -72 -162 -72q-57 0 -109 34q-2 2 -8.5 7t-10.5 7v-2q-2 -12 -2 -16l-5 -30h-241zM86 -1l354 1363h462l-79 -1363h-300l18 226h-101l-53 -226h-301z
M490 489h83l66 607h-22z" />
    <glyph glyph-name="Adieresis" unicode="&#xc4;" horiz-adv-x="909" 
d="M86 -1l354 1363h462l-79 -1363h-300l18 226h-101l-53 -226h-301zM426 1389l38 241h236l-38 -241h-236zM490 489h83l66 607h-22zM688 1389l38 241h236l-38 -241h-236z" />
    <glyph glyph-name="Aring" unicode="&#xc5;" horiz-adv-x="909" 
d="M466 1560q13 79 91.5 124.5t179.5 45.5q100 0 163.5 -46t51.5 -124q-12 -77 -91 -122.5t-178 -45.5q-100 0 -164.5 45t-52.5 123zM86 -1l354 1363h462l-79 -1363h-300l18 226h-101l-53 -226h-301zM490 489h83l66 607h-22zM646 1558q-3 -14 13 -30q13 -14 44 -14t51 14
q17 13 20 30q3 19 -10 32q-16 14 -47 14t-48 -14q-20 -16 -23 -32z" />
    <glyph glyph-name="AE" unicode="&#xc6;" horiz-adv-x="1152" 
d="M86 -1l354 1363h844l-44 -275h-333l-43 -271h245l-43 -276h-245l-42 -264h333l-44 -277h-637l36 226h-27l-53 -226h-301zM488 489h32l97 607z" />
    <glyph glyph-name="Ccedilla" unicode="&#xc7;" 
d="M314 -263q142 0 148 37q2 13 -12 21t-45 12.5t-79 4.5l29 180q-125 20 -177 92t-34 186l130 821q22 136 122 211t281 75q180 0 255.5 -75.5t54.5 -210.5l-51 -320h-304l42 264q6 36 -3.5 51.5t-36.5 15.5q-53 0 -64 -67l-113 -712q-10 -67 43 -67q27 0 41 15.5t20 51.5
l42 266h304l-50 -319q-37 -233 -284 -276l-12 -77q130 -35 112 -143q-14 -89 -101.5 -125t-276.5 -36z" />
    <glyph glyph-name="Egrave" unicode="&#xc8;" horiz-adv-x="829" 
d="M590 1391l-150 240h312l96 -240h-258zM106 -1l216 1363h638l-44 -275h-333l-43 -271h245l-43 -276h-245l-42 -264h333l-44 -277h-638z" />
    <glyph glyph-name="Eacute" unicode="&#xc9;" horiz-adv-x="829" 
d="M450 1388l167 240h317l-229 -240h-255zM106 -1l216 1363h638l-44 -275h-333l-43 -271h245l-43 -276h-245l-42 -264h333l-44 -277h-638z" />
    <glyph glyph-name="Ecircumflex" unicode="&#xca;" horiz-adv-x="829" 
d="M106 -1l216 1363h638l-44 -275h-333l-43 -271h245l-43 -276h-245l-42 -264h333l-44 -277h-638zM366 1389l194 240h253l113 -240l-247 1l-19 89l-42 -89z" />
    <glyph glyph-name="Edieresis" unicode="&#xcb;" horiz-adv-x="829" 
d="M106 -1l216 1363h638l-44 -275h-333l-43 -271h245l-43 -276h-245l-42 -264h333l-44 -277h-638zM400 1391l38 241h236l-38 -241h-236zM661 1391l38 241h237l-38 -241h-237z" />
    <glyph glyph-name="Igrave" unicode="&#xcc;" horiz-adv-x="611" 
d="M480 1390l-150 240h313l96 -240h-259zM167 -1l216 1363h304l-216 -1363h-304z" />
    <glyph glyph-name="Iacute" unicode="&#xcd;" horiz-adv-x="611" 
d="M314 1395l172 241h313l-226 -241h-259zM138 -1l216 1363h307l-216 -1363h-307z" />
    <glyph glyph-name="Icircumflex" unicode="&#xce;" horiz-adv-x="665" 
d="M179 -1l216 1363h307l-216 -1363h-307zM268 1389l193 240h253l114 -240l-247 1l-20 89l-41 -89z" />
    <glyph glyph-name="Idieresis" unicode="&#xcf;" horiz-adv-x="609" 
d="M153 -1l216 1363h304l-216 -1363h-304zM275 1391l38 241h236l-38 -241h-236zM536 1391l38 241h237l-38 -241h-237z" />
    <glyph glyph-name="Ntilde" unicode="&#xd1;" horiz-adv-x="979" 
d="M442 1439q14 83 41 122q53 72 164 72q65 0 110 -33q4 -2 18 -11q2 6 2 8l6 36h240l-10 -61q-13 -77 -42 -115q-53 -65 -158 -65q-57 0 -108 35q-4 3 -20 13v-3q-2 -10 -3 -14l-5 -31h-243zM106 -1l216 1363h363l37 -624l100 624h266l-216 -1363h-366l-33 613l-97 -613
h-270z" />
    <glyph glyph-name="Ograve" unicode="&#xd2;" horiz-adv-x="916" 
d="M605 1391l-151 240h313l96 -240h-258zM144 270l130 822q22 136 122.5 210t280.5 74t256 -74.5t54 -209.5l-130 -822q-22 -136 -121.5 -210.5t-278.5 -74.5q-181 0 -258 74.5t-55 210.5zM457 322q-10 -67 42 -67q27 0 41.5 15.5t20.5 51.5l113 714q6 36 -3.5 51.5
t-36.5 15.5q-53 0 -64 -67z" />
    <glyph glyph-name="Oacute" unicode="&#xd3;" horiz-adv-x="916" 
d="M494 1389l171 240h312l-225 -240h-258zM144 270l130 822q22 136 122.5 210t280.5 74t256 -74.5t54 -209.5l-130 -822q-22 -136 -121.5 -210.5t-278.5 -74.5q-181 0 -258 74.5t-55 210.5zM457 322q-10 -67 42 -67q27 0 41.5 15.5t20.5 51.5l113 714q6 36 -3.5 51.5
t-36.5 15.5q-53 0 -64 -67z" />
    <glyph glyph-name="Ocircumflex" unicode="&#xd4;" horiz-adv-x="916" 
d="M274 1092q22 136 122.5 210t280.5 74t256 -74.5t54 -209.5l-130 -822q-22 -136 -121.5 -210.5t-278.5 -74.5q-181 0 -258 74.5t-55 210.5zM397 1389l193 240h253l114 -240l-247 1l-20 89l-41 -89zM457 322q-10 -67 42 -67q27 0 41.5 15.5t20.5 51.5l113 714
q6 36 -3.5 51.5t-36.5 15.5q-53 0 -64 -67z" />
    <glyph glyph-name="Otilde" unicode="&#xd5;" horiz-adv-x="916" 
d="M411 1441q14 85 39 120q53 72 163 72q57 0 110 -33q4 -2 7.5 -4t7.5 -4.5t6 -3.5q0 6 1 9l6 36h241l-8 -49q-14 -83 -41 -120q-51 -72 -162 -72q-55 0 -108 35q-12 9 -20 14l-2 -5q0 -7 -2 -13l-5 -31h-241zM144 270l130 822q22 136 122.5 210t280.5 74t256 -74.5
t54 -209.5l-130 -822q-22 -136 -121.5 -210.5t-278.5 -74.5q-181 0 -258 74.5t-55 210.5zM457 322q-10 -67 42 -67q27 0 41.5 15.5t20.5 51.5l113 714q6 36 -3.5 51.5t-36.5 15.5q-53 0 -64 -67z" />
    <glyph glyph-name="Odieresis" unicode="&#xd6;" horiz-adv-x="916" 
d="M274 1092q22 136 122.5 210t280.5 74t256 -74.5t54 -209.5l-130 -822q-22 -136 -121.5 -210.5t-278.5 -74.5q-181 0 -258 74.5t-55 210.5zM431 1391l38 241h236l-38 -241h-236zM457 322q-10 -67 42 -67q27 0 41.5 15.5t20.5 51.5l113 714q6 36 -3.5 51.5t-36.5 15.5
q-53 0 -64 -67zM693 1391l38 241h236l-38 -241h-236z" />
    <glyph glyph-name="multiply" unicode="&#xd7;" horiz-adv-x="935" 
d="M310 354l-132 154l245 207l-177 206l180 151l179 -205l245 208l131 -152l-244 -208l178 -207l-179 -154l-179 207z" />
    <glyph glyph-name="Oslash" unicode="&#xd8;" horiz-adv-x="916" 
d="M263 20q-149 64 -119 250l130 822q22 136 122.5 210t280.5 74q8 0 22.5 -0.5t21.5 -0.5l37 110h171l-49 -147q135 -66 107 -246l-130 -822q-22 -136 -121.5 -210.5t-278.5 -74.5q-6 0 -16 0.5t-15 0.5l-36 -108h-175zM457 322q-10 -67 42 -67q27 0 41.5 15.5t20.5 51.5
l113 714q6 36 -3.5 51.5t-36.5 15.5q-53 0 -64 -67z" />
    <glyph glyph-name="Ugrave" unicode="&#xd9;" horiz-adv-x="919" 
d="M605 1391l-151 240h313l96 -240h-258zM144 270l173 1092h305l-165 -1040q-10 -67 42 -67q27 0 41.5 15.5t20.5 51.5l165 1040h304l-173 -1092q-22 -136 -121.5 -210.5t-278.5 -74.5q-181 0 -258 74.5t-55 210.5z" />
    <glyph glyph-name="Uacute" unicode="&#xda;" horiz-adv-x="922" 
d="M497 1386l171 240h312l-225 -240h-258zM144 270l173 1092h305l-165 -1040q-10 -67 42 -67q27 0 41.5 15.5t20.5 51.5l165 1040h304l-173 -1092q-22 -136 -121.5 -210.5t-278.5 -74.5q-181 0 -258 74.5t-55 210.5z" />
    <glyph glyph-name="Ucircumflex" unicode="&#xdb;" horiz-adv-x="919" 
d="M317 1362h305l-165 -1040q-10 -67 42 -67q27 0 41.5 15.5t20.5 51.5l165 1040h304l-173 -1092q-22 -136 -121.5 -210.5t-278.5 -74.5q-181 0 -258 74.5t-55 210.5zM397 1389l193 240h253l114 -240l-247 1l-20 89l-41 -89z" />
    <glyph glyph-name="Udieresis" unicode="&#xdc;" horiz-adv-x="919" 
d="M317 1362h305l-165 -1040q-10 -67 42 -67q27 0 41.5 15.5t20.5 51.5l165 1040h304l-173 -1092q-22 -136 -121.5 -210.5t-278.5 -74.5q-181 0 -258 74.5t-55 210.5zM431 1391l38 241h236l-38 -241h-236zM693 1391l38 241h236l-38 -241h-236z" />
    <glyph glyph-name="Yacute" unicode="&#xdd;" horiz-adv-x="929" 
d="M501 1391l166 240h316l-228 -240h-254zM289 1362h322l7 -383l131 383h323l-142 -342l-252 -610l-40 -252l-25 -159h-304l25 157l39 250l-54 612z" />
    <glyph glyph-name="germandbls" unicode="&#xdf;" horiz-adv-x="919" 
d="M278 1100q21 133 118 205t272 72q184 0 255 -71t49 -209l-32 -198q-10 -66 -38 -115.5t-89 -84.5q47 -25 69 -65.5t21 -83t-7 -89.5l-27 -172q-23 -142 -117 -216t-281 -74h-60l33 212h60q21 0 35 18q12 19 20 60l33 211q7 37 0 59q-8 18 -30 18h-62l-105 -663h-305z
M534 788h30q26 0 44 18.5t23 53.5l37 231q5 35 -3 51q-7 15 -32 15q-21 0 -32 -15q-14 -15 -19 -51z" />
    <glyph glyph-name="agrave" unicode="&#xe0;" horiz-adv-x="909" 
d="M602 1390l-151 240h313l96 -240h-258zM86 -1l354 1363h462l-79 -1363h-300l18 226h-101l-53 -226h-301zM490 489h83l66 607h-22z" />
    <glyph glyph-name="aacute" unicode="&#xe1;" horiz-adv-x="909" 
d="M492 1390l166 240h316l-228 -240h-254zM86 -1l354 1363h462l-79 -1363h-300l18 226h-101l-53 -226h-301zM490 489h83l66 607h-22z" />
    <glyph glyph-name="acircumflex" unicode="&#xe2;" horiz-adv-x="909" 
d="M86 -1l354 1363h462l-79 -1363h-300l18 226h-101l-53 -226h-301zM394 1389l193 240h253l114 -240l-247 1l-20 89l-41 -89zM490 489h83l66 607h-22z" />
    <glyph glyph-name="atilde" unicode="&#xe3;" horiz-adv-x="909" 
d="M410 1453q13 78 43 116q51 64 157 64q59 0 110 -33q7 -3 19 -11v1l7 43h243l-8 -46q-14 -83 -42 -122q-52 -73 -163 -73q-52 0 -108 34q-16 13 -19 15v-2q-2 -12 -3 -16l-5 -31h-241zM86 -1l354 1363h462l-79 -1363h-300l18 226h-101l-53 -226h-301zM490 489h83l66 607
h-22z" />
    <glyph glyph-name="adieresis" unicode="&#xe4;" horiz-adv-x="909" 
d="M86 -1l354 1363h462l-79 -1363h-300l18 226h-101l-53 -226h-301zM426 1391l38 241h236l-38 -241h-236zM490 489h83l66 607h-22zM688 1391l38 241h236l-38 -241h-236z" />
    <glyph glyph-name="aring" unicode="&#xe5;" horiz-adv-x="909" 
d="M466 1560q13 79 91.5 124.5t179.5 45.5q100 0 163.5 -46t51.5 -124q-12 -77 -91 -122.5t-178 -45.5q-100 0 -164.5 45t-52.5 123zM86 -1l354 1363h462l-79 -1363h-300l18 226h-101l-53 -226h-301zM490 489h83l66 607h-22zM646 1558q-3 -14 13 -30q13 -14 44 -14t51 14
q17 13 20 30q3 19 -10 32q-16 14 -47 14t-48 -14q-20 -16 -23 -32z" />
    <glyph glyph-name="ae" unicode="&#xe6;" horiz-adv-x="1152" 
d="M86 -1l354 1363h844l-44 -275h-333l-43 -271h245l-43 -276h-245l-42 -264h333l-44 -277h-637l36 226h-27l-53 -226h-301zM488 489h32l97 607z" />
    <glyph glyph-name="ccedilla" unicode="&#xe7;" 
d="M314 -263q142 0 148 37q2 13 -12 21t-45 12.5t-79 4.5l29 180q-125 20 -177 92t-34 186l130 821q22 136 122 211t281 75q180 0 255.5 -75.5t54.5 -210.5l-51 -320h-304l42 264q6 36 -3.5 51.5t-36.5 15.5q-53 0 -64 -67l-113 -712q-10 -67 43 -67q27 0 41 15.5t20 51.5
l42 266h304l-50 -319q-37 -233 -284 -276l-12 -77q130 -35 112 -143q-14 -89 -101.5 -125t-276.5 -36z" />
    <glyph glyph-name="egrave" unicode="&#xe8;" horiz-adv-x="829" 
d="M590 1392l-149 241h312l95 -241h-258zM106 -1l216 1363h638l-44 -275h-333l-43 -271h245l-43 -276h-245l-42 -264h333l-44 -277h-638z" />
    <glyph glyph-name="eacute" unicode="&#xe9;" horiz-adv-x="829" 
d="M455 1403l167 241h317l-229 -241h-255zM106 -1l216 1363h638l-44 -275h-333l-43 -271h245l-43 -276h-245l-42 -264h333l-44 -277h-638z" />
    <glyph glyph-name="ecircumflex" unicode="&#xea;" horiz-adv-x="829" 
d="M106 -1l216 1363h638l-44 -275h-333l-43 -271h245l-43 -276h-245l-42 -264h333l-44 -277h-638zM370 1394l194 240h253l113 -240l-247 1l-19 89l-42 -89z" />
    <glyph glyph-name="edieresis" unicode="&#xeb;" horiz-adv-x="829" 
d="M106 -1l216 1363h638l-44 -275h-333l-43 -271h245l-43 -276h-245l-42 -264h333l-44 -277h-638zM403 1391l38 241h236l-38 -241h-236zM664 1391l38 241h237l-38 -241h-237z" />
    <glyph glyph-name="igrave" unicode="&#xec;" horiz-adv-x="611" 
d="M480 1389l-150 240h313l96 -240h-259zM167 -1l216 1363h304l-216 -1363h-304z" />
    <glyph glyph-name="iacute" unicode="&#xed;" horiz-adv-x="611" 
d="M313 1392l173 241h313l-227 -241h-259zM138 -1l216 1363h307l-216 -1363h-307z" />
    <glyph glyph-name="icircumflex" unicode="&#xee;" horiz-adv-x="665" 
d="M179 -1l216 1363h307l-216 -1363h-307zM273 1394l193 240h253l114 -240l-247 1l-20 89l-41 -89z" />
    <glyph glyph-name="idieresis" unicode="&#xef;" horiz-adv-x="609" 
d="M153 -1l216 1363h304l-216 -1363h-304zM273 1391l38 241h236l-38 -241h-236zM534 1391l38 241h237l-38 -241h-237z" />
    <glyph glyph-name="ntilde" unicode="&#xf1;" horiz-adv-x="979" 
d="M442 1439q14 83 41 122q53 72 164 72q65 0 110 -33q4 -2 18 -11q2 6 2 8l6 36h240l-10 -61q-13 -77 -42 -115q-53 -65 -158 -65q-57 0 -108 35q-4 3 -20 13v-3q-2 -10 -3 -14l-5 -31h-243zM106 -1l216 1363h363l37 -624l100 624h266l-216 -1363h-366l-33 613l-97 -613
h-270z" />
    <glyph glyph-name="ograve" unicode="&#xf2;" horiz-adv-x="916" 
d="M605 1386l-151 240h313l96 -240h-258zM144 270l130 822q22 136 122.5 210t280.5 74t256 -74.5t54 -209.5l-130 -822q-22 -136 -121.5 -210.5t-278.5 -74.5q-181 0 -258 74.5t-55 210.5zM457 322q-10 -67 42 -67q27 0 41.5 15.5t20.5 51.5l113 714q6 36 -3.5 51.5
t-36.5 15.5q-53 0 -64 -67z" />
    <glyph glyph-name="oacute" unicode="&#xf3;" horiz-adv-x="916" 
d="M494 1392l171 240h312l-225 -240h-258zM144 270l130 822q22 136 122.5 210t280.5 74t256 -74.5t54 -209.5l-130 -822q-22 -136 -121.5 -210.5t-278.5 -74.5q-181 0 -258 74.5t-55 210.5zM457 322q-10 -67 42 -67q27 0 41.5 15.5t20.5 51.5l113 714q6 36 -3.5 51.5
t-36.5 15.5q-53 0 -64 -67z" />
    <glyph glyph-name="ocircumflex" unicode="&#xf4;" horiz-adv-x="916" 
d="M274 1092q22 136 122.5 210t280.5 74t256 -74.5t54 -209.5l-130 -822q-22 -136 -121.5 -210.5t-278.5 -74.5q-181 0 -258 74.5t-55 210.5zM400 1392l193 240h253l114 -240l-246 1l-20 89l-41 -89zM457 322q-10 -67 42 -67q27 0 41.5 15.5t20.5 51.5l113 714
q6 36 -3.5 51.5t-36.5 15.5q-53 0 -64 -67z" />
    <glyph glyph-name="otilde" unicode="&#xf5;" horiz-adv-x="916" 
d="M411 1441q14 85 39 120q53 72 163 72q57 0 110 -33q4 -2 7.5 -4t7.5 -4.5t6 -3.5q0 6 1 9l6 36h241l-8 -49q-14 -83 -41 -120q-51 -72 -162 -72q-55 0 -108 35q-12 9 -20 14l-2 -5q0 -7 -2 -13l-5 -31h-241zM144 270l130 822q22 136 122.5 210t280.5 74t256 -74.5
t54 -209.5l-130 -822q-22 -136 -121.5 -210.5t-278.5 -74.5q-181 0 -258 74.5t-55 210.5zM457 322q-10 -67 42 -67q27 0 41.5 15.5t20.5 51.5l113 714q6 36 -3.5 51.5t-36.5 15.5q-53 0 -64 -67z" />
    <glyph glyph-name="odieresis" unicode="&#xf6;" horiz-adv-x="916" 
d="M274 1092q22 136 122.5 210t280.5 74t256 -74.5t54 -209.5l-130 -822q-22 -136 -121.5 -210.5t-278.5 -74.5q-181 0 -258 74.5t-55 210.5zM433 1389l38 241h236l-38 -241h-236zM457 322q-10 -67 42 -67q27 0 41.5 15.5t20.5 51.5l113 714q6 36 -3.5 51.5t-36.5 15.5
q-53 0 -64 -67zM695 1389l38 241h236l-38 -241h-236z" />
    <glyph glyph-name="divide" unicode="&#xf7;" horiz-adv-x="913" 
d="M449 878l43 269h291l-43 -269h-291zM166 608l34 213h771l-34 -213h-771zM355 281l42 269h291l-42 -269h-291z" />
    <glyph glyph-name="oslash" unicode="&#xf8;" horiz-adv-x="916" 
d="M263 20q-149 64 -119 250l130 822q22 136 122.5 210t280.5 74q8 0 22.5 -0.5t21.5 -0.5l37 110h171l-49 -147q135 -66 107 -246l-130 -822q-22 -136 -121.5 -210.5t-278.5 -74.5q-6 0 -16 0.5t-15 0.5l-36 -108h-175zM457 322q-10 -67 42 -67q27 0 41.5 15.5t20.5 51.5
l113 714q6 36 -3.5 51.5t-36.5 15.5q-53 0 -64 -67z" />
    <glyph glyph-name="ugrave" unicode="&#xf9;" horiz-adv-x="922" 
d="M607 1392l-149 241h313l95 -241h-259zM150 270l173 1092h305l-165 -1040q-10 -67 42 -67q27 0 41.5 15.5t20.5 51.5l165 1040h304l-173 -1092q-22 -136 -121.5 -210.5t-278.5 -74.5q-181 0 -258 74.5t-55 210.5z" />
    <glyph glyph-name="uacute" unicode="&#xfa;" horiz-adv-x="922" 
d="M498 1394l171 241h312l-225 -241h-258zM144 270l173 1092h305l-165 -1040q-10 -67 42 -67q27 0 41.5 15.5t20.5 51.5l165 1040h304l-173 -1092q-22 -136 -121.5 -210.5t-278.5 -74.5q-181 0 -258 74.5t-55 210.5z" />
    <glyph glyph-name="ucircumflex" unicode="&#xfb;" horiz-adv-x="922" 
d="M323 1362h305l-165 -1040q-10 -67 42 -67q27 0 41.5 15.5t20.5 51.5l165 1040h304l-173 -1092q-22 -136 -121.5 -210.5t-278.5 -74.5q-181 0 -258 74.5t-55 210.5zM394 1393l193 240h253l114 -240l-247 1l-20 89l-41 -89z" />
    <glyph glyph-name="udieresis" unicode="&#xfc;" horiz-adv-x="922" 
d="M323 1362h305l-165 -1040q-10 -67 42 -67q27 0 41.5 15.5t20.5 51.5l165 1040h304l-173 -1092q-22 -136 -121.5 -210.5t-278.5 -74.5q-181 0 -258 74.5t-55 210.5zM433 1389l38 241h236l-38 -241h-236zM695 1389l38 241h236l-38 -241h-236z" />
    <glyph glyph-name="yacute" unicode="&#xfd;" horiz-adv-x="929" 
d="M501 1389l166 240h316l-228 -240h-254zM290 1362h322l7 -383l131 383h323l-142 -342l-252 -610l-40 -252l-25 -159h-304l25 157l39 250l-54 612z" />
    <glyph glyph-name="ydieresis" unicode="&#xff;" horiz-adv-x="929" 
d="M310 -1l25 157l39 250l-54 612l-30 344h322l7 -383l131 383h323l-142 -342l-252 -610l-40 -252l-25 -159h-304zM435 1389l38 241h236l-38 -241h-236zM697 1389l38 241h236l-38 -241h-236z" />
    <glyph glyph-name="Cacute" unicode="&#x106;" 
d="M493 1384l171 241h312l-225 -241h-258zM144 270l130 822q22 136 122.5 210t280.5 74t256 -74.5t54 -209.5l-51 -322h-304l42 266q6 36 -3.5 51.5t-36.5 15.5q-53 0 -64 -67l-113 -714q-10 -67 42 -67q27 0 41.5 15.5t20.5 51.5l42 268h304l-50 -320
q-22 -136 -121.5 -210.5t-278.5 -74.5q-181 0 -258 74.5t-55 210.5z" />
    <glyph glyph-name="cacute" unicode="&#x107;" 
d="M494 1392l172 241h312l-226 -241h-258zM144 270l130 822q22 136 122.5 210t280.5 74t256 -74.5t54 -209.5l-51 -322h-304l42 266q6 36 -3.5 51.5t-36.5 15.5q-53 0 -64 -67l-113 -714q-10 -67 42 -67q27 0 41.5 15.5t20.5 51.5l42 268h304l-50 -320
q-22 -136 -121.5 -210.5t-278.5 -74.5q-181 0 -258 74.5t-55 210.5z" />
    <glyph glyph-name="Ccircumflex" unicode="&#x108;" 
d="M603 590h304l-50 -320q-22 -136 -121.5 -210.5t-278.5 -74.5q-181 0 -258 74.5t-55 210.5l130 822q22 136 122.5 210t280.5 74t256 -74.5t54 -209.5l-51 -322h-304l42 266q6 36 -3.5 51.5t-36.5 15.5q-53 0 -64 -67l-113 -714q-10 -67 42 -67q27 0 41.5 15.5t20.5 51.5z
M394 1389l193 240h253l114 -240l-247 1l-20 89l-41 -89z" />
    <glyph glyph-name="ccircumflex" unicode="&#x109;" 
d="M603 590h304l-50 -320q-22 -136 -121.5 -210.5t-278.5 -74.5q-181 0 -258 74.5t-55 210.5l130 822q22 136 122.5 210t280.5 74t256 -74.5t54 -209.5l-51 -322h-304l42 266q6 36 -3.5 51.5t-36.5 15.5q-53 0 -64 -67l-113 -714q-10 -67 42 -67q27 0 41.5 15.5t20.5 51.5z
M395 1396l193 240h253l114 -240l-247 1l-20 89l-41 -89z" />
    <glyph glyph-name="Ccaron" unicode="&#x10c;" 
d="M603 590h304l-50 -320q-22 -136 -121.5 -210.5t-278.5 -74.5q-181 0 -258 74.5t-55 210.5l130 822q22 136 122.5 210t280.5 74t256 -74.5t54 -209.5l-51 -322h-304l42 266q6 36 -3.5 51.5t-36.5 15.5q-53 0 -64 -67l-113 -714q-10 -67 42 -67q27 0 41.5 15.5t20.5 51.5z
M434 1632l252 -1l13 -89l48 89l247 1l-190 -240h-253z" />
    <glyph glyph-name="ccaron" unicode="&#x10d;" 
d="M603 590h304l-50 -320q-22 -136 -121.5 -210.5t-278.5 -74.5q-181 0 -258 74.5t-55 210.5l130 822q22 136 122.5 210t280.5 74t256 -74.5t54 -209.5l-51 -322h-304l42 266q6 36 -3.5 51.5t-36.5 15.5q-53 0 -64 -67l-113 -714q-10 -67 42 -67q27 0 41.5 15.5t20.5 51.5z
M437 1632l252 -1l13 -89l48 89l247 1l-190 -240h-253z" />
    <glyph glyph-name="Dcaron" unicode="&#x10e;" horiz-adv-x="924" 
d="M106 -1l216 1363h373q171 0 242 -76t50 -205l-127 -802q-33 -214 -260 -265q-68 -15 -121 -15h-373zM442 1632l251 -1l14 -89l48 89l247 1l-190 -240h-253zM454 272h47q28 0 43.5 14.5t20.5 48.5l109 689q10 63 -44 63h-47z" />
    <glyph glyph-name="dcaron" unicode="&#x10f;" horiz-adv-x="924" 
d="M106 -1l216 1363h373q171 0 242 -76t50 -205l-127 -802q-33 -214 -260 -265q-68 -15 -121 -15h-373zM444 1632l251 -1l14 -89l48 89l247 1l-190 -240h-253zM454 272h47q28 0 43.5 14.5t20.5 48.5l109 689q10 63 -44 63h-47z" />
    <glyph glyph-name="Ecaron" unicode="&#x11a;" horiz-adv-x="829" 
d="M106 -1l216 1363h638l-44 -275h-333l-43 -271h245l-43 -276h-245l-42 -264h333l-44 -277h-638zM406 1632l252 -1l14 -89l47 89l247 1l-189 -240h-253z" />
    <glyph glyph-name="ecaron" unicode="&#x11b;" horiz-adv-x="829" 
d="M106 -1l216 1363h638l-44 -275h-333l-43 -271h245l-43 -276h-245l-42 -264h333l-44 -277h-638zM405 1634l252 -1l14 -89l47 89l247 1l-189 -240h-253z" />
    <glyph glyph-name="Itilde" unicode="&#x128;" horiz-adv-x="638" 
d="M272 1439q14 83 41 122q51 72 164 72q66 0 109 -33q4 -2 18 -11q2 6 2 8l6 36h241l-10 -61q-13 -77 -43 -115q-50 -65 -157 -65q-59 0 -108 35q-4 3 -20 13v-3q-2 -10 -3 -14l-5 -31h-243zM167 -1l216 1363h304l-216 -1363h-304z" />
    <glyph glyph-name="itilde" unicode="&#x129;" horiz-adv-x="638" 
d="M271 1433q14 85 41 122q50 72 164 72q63 0 110 -32l17 -12q2 6 2 8l6 36h241l-10 -61q-13 -77 -43 -115q-51 -64 -156 -64q-62 0 -109 35q-1 1 -4.5 3t-8 4.5t-7.5 4.5v-3q-2 -10 -2 -13l-5 -31h-243zM167 -1l216 1363h304l-216 -1363h-304z" />
    <glyph glyph-name="dotlessi" unicode="&#x131;" horiz-adv-x="565" 
d="M130 -1l216 1363h305l-216 -1363h-305z" />
    <glyph glyph-name="Lacute" unicode="&#x139;" horiz-adv-x="832" 
d="M126 -1l216 1363h305l-172 -1087h333l-44 -276h-638zM349 1395l172 241h312l-225 -241h-259z" />
    <glyph glyph-name="lacute" unicode="&#x13a;" horiz-adv-x="832" 
d="M126 -1l216 1363h305l-172 -1087h333l-44 -276h-638zM349 1395l172 241h312l-225 -241h-259z" />
    <glyph glyph-name="Nacute" unicode="&#x143;" horiz-adv-x="979" 
d="M525 1392l171 240h313l-227 -240h-257zM106 -1l216 1363h363l37 -624l100 624h266l-216 -1363h-366l-33 613l-97 -613h-270z" />
    <glyph glyph-name="nacute" unicode="&#x144;" horiz-adv-x="979" 
d="M525 1390l171 240h313l-227 -240h-257zM106 -1l216 1363h363l37 -624l100 624h266l-216 -1363h-366l-33 613l-97 -613h-270z" />
    <glyph glyph-name="Ncaron" unicode="&#x147;" horiz-adv-x="979" 
d="M106 -1l216 1363h363l37 -624l100 624h266l-216 -1363h-366l-33 613l-97 -613h-270zM455 1632l252 -1l14 -89l48 89l247 1l-190 -240h-253z" />
    <glyph glyph-name="ncaron" unicode="&#x148;" horiz-adv-x="979" 
d="M106 -1l216 1363h363l37 -624l100 624h266l-216 -1363h-366l-33 613l-97 -613h-270zM464 1630l252 -1l14 -89l48 89l247 1l-190 -240h-253z" />
    <glyph glyph-name="OE" unicode="&#x152;" horiz-adv-x="1233" 
d="M860 276h334l-44 -277h-556l-14 -3q-13 -3 -23 -4q-56 -7 -100 -7q-181 0 -258 74.5t-55 210.5l130 822q22 136 122.5 210t280.5 74q56 0 98 -7q13 -3 23 -4l13 -3h555l-44 -275h-334l-43 -271h246l-43 -276h-246zM457 322q-10 -67 42 -67q27 0 41.5 15.5t20.5 51.5
l113 714q6 36 -3.5 51.5t-36.5 15.5q-53 0 -64 -67z" />
    <glyph glyph-name="oe" unicode="&#x153;" horiz-adv-x="1233" 
d="M860 276h334l-44 -277h-556l-14 -3q-13 -3 -23 -4q-56 -7 -100 -7q-181 0 -258 74.5t-55 210.5l130 822q22 136 122.5 210t280.5 74q56 0 98 -7q13 -3 23 -4l13 -3h555l-44 -275h-334l-43 -271h246l-43 -276h-246zM457 322q-10 -67 42 -67q27 0 41.5 15.5t20.5 51.5
l113 714q6 36 -3.5 51.5t-36.5 15.5q-53 0 -64 -67z" />
    <glyph glyph-name="Racute" unicode="&#x154;" 
d="M509 1392l167 240h316l-228 -240h-255zM106 -1l216 1363h367q81 0 139 -19t87 -50.5t44.5 -73.5t12.5 -88t-8 -93l-26 -166q-25 -158 -111 -234l-3 -639h-301l19 554h-43l-88 -554h-305zM541 819h29q57 0 68 73l21 130q11 74 -45 74h-29z" />
    <glyph glyph-name="racute" unicode="&#x155;" 
d="M521 1396l167 241h316l-229 -241h-254zM106 -1l216 1363h367q81 0 139 -19t87 -50.5t44.5 -73.5t12.5 -88t-8 -93l-26 -166q-25 -158 -111 -234l-3 -639h-301l19 554h-43l-88 -554h-305zM541 819h29q57 0 68 73l21 130q11 74 -45 74h-29z" />
    <glyph glyph-name="Rcaron" unicode="&#x158;" 
d="M106 -1l216 1363h367q81 0 139 -19t87 -50.5t44.5 -73.5t12.5 -88t-8 -93l-26 -166q-25 -158 -111 -234l-3 -639h-301l19 554h-43l-88 -554h-305zM457 1632l252 -1l14 -89l48 89l247 1l-190 -240h-253zM541 819h29q57 0 68 73l21 130q11 74 -45 74h-29z" />
    <glyph glyph-name="rcaron" unicode="&#x159;" 
d="M106 -1l216 1363h367q81 0 139 -19t87 -50.5t44.5 -73.5t12.5 -88t-8 -93l-26 -166q-25 -158 -111 -234l-3 -639h-301l19 554h-43l-88 -554h-305zM459 1630l252 -1l14 -89l48 89l247 1l-190 -240h-253zM541 819h29q57 0 68 73l21 130q11 74 -45 74h-29z" />
    <glyph glyph-name="Sacute" unicode="&#x15a;" horiz-adv-x="907" 
d="M492 1388l166 240h313l-225 -240h-254zM138 270l37 235h305l-28 -176q-5 -35 5.5 -50.5t37.5 -15.5q35 0 49 27q9 19 12 38q3 16 7 44q6 34 4 53t-19 43q-2 4 -6 10l-5 5l-199 214q-61 67 -80 139t-5 161l14 88q22 138 120 215t281 77q182 0 259 -75t55 -211l-36 -223
h-305l27 170q6 36 -3.5 51.5t-36.5 15.5q-35 0 -52 -29q-8 -20 -12 -40q0 -2 -7 -45q-5 -32 1 -54t26 -51l21 -26l199 -214l1 -1l2 -2t8 -6q27 -29 34 -39q33 -49 33 -118q-1 -40 -13 -116l-14 -88q-47 -292 -405 -292q-180 0 -257 75t-55 211z" />
    <glyph glyph-name="sacute" unicode="&#x15b;" horiz-adv-x="907" 
d="M491 1384l166 241h313l-225 -241h-254zM138 270l37 235h305l-28 -176q-5 -35 5.5 -50.5t37.5 -15.5q35 0 49 27q9 19 12 38q3 16 7 44q6 34 4 53t-19 43q-2 4 -6 10l-5 5l-199 214q-61 67 -80 139t-5 161l14 88q22 138 120 215t281 77q182 0 259 -75t55 -211l-36 -223
h-305l27 170q6 36 -3.5 51.5t-36.5 15.5q-35 0 -52 -29q-8 -20 -12 -40q0 -2 -7 -45q-5 -32 1 -54t26 -51l21 -26l199 -214l1 -1l2 -2t8 -6q27 -29 34 -39q33 -49 33 -118q-1 -40 -13 -116l-14 -88q-47 -292 -405 -292q-180 0 -257 75t-55 211z" />
    <glyph glyph-name="Scircumflex" unicode="&#x15c;" horiz-adv-x="907" 
d="M590 1629h253l114 -240l-247 1l-20 89l-41 -89l-252 -1zM138 270l37 235h305l-28 -176q-5 -35 5.5 -50.5t37.5 -15.5q35 0 49 27q9 19 12 38q3 16 7 44q6 34 4 53t-19 43q-2 4 -6 10l-5 5l-199 214q-61 67 -80 139t-5 161l14 88q22 138 120 215t281 77q182 0 259 -75
t55 -211l-36 -223h-305l27 170q6 36 -3.5 51.5t-36.5 15.5q-35 0 -52 -29q-8 -20 -12 -40q0 -2 -7 -45q-5 -32 1 -54t26 -51l21 -26l199 -214l1 -1l2 -2t8 -6q27 -29 34 -39q33 -49 33 -118q-1 -40 -13 -116l-14 -88q-47 -292 -405 -292q-180 0 -257 75t-55 211z" />
    <glyph glyph-name="scircumflex" unicode="&#x15d;" horiz-adv-x="907" 
d="M587 1633h253l114 -240l-247 1l-20 89l-41 -89l-252 -1zM138 270l37 235h305l-28 -176q-5 -35 5.5 -50.5t37.5 -15.5q35 0 49 27q9 19 12 38q3 16 7 44q6 34 4 53t-19 43q-2 4 -6 10l-5 5l-199 214q-61 67 -80 139t-5 161l14 88q22 138 120 215t281 77q182 0 259 -75
t55 -211l-36 -223h-305l27 170q6 36 -3.5 51.5t-36.5 15.5q-35 0 -52 -29q-8 -20 -12 -40q0 -2 -7 -45q-5 -32 1 -54t26 -51l21 -26l199 -214l1 -1l2 -2t8 -6q27 -29 34 -39q33 -49 33 -118q-1 -40 -13 -116l-14 -88q-47 -292 -405 -292q-180 0 -257 75t-55 211z" />
    <glyph glyph-name="Scedilla" unicode="&#x15e;" horiz-adv-x="907" 
d="M138 270l37 235h305l-28 -176q-5 -35 5.5 -50.5t37.5 -15.5q35 0 49 27q9 19 12 38q3 16 7 44q6 34 4 53t-19 43q-2 4 -6 10l-5 5l-199 214q-61 67 -80 139t-5 161l14 88q22 138 120 215t281 77q182 0 259 -75t55 -211l-36 -223h-305l27 170q6 36 -3.5 51.5t-36.5 15.5
q-35 0 -52 -29q-8 -20 -12 -40q0 -2 -7 -45q-5 -33 1 -55.5t26 -49.5l21 -26l199 -214l1 -1l2 -2t8 -6q27 -29 34 -39q33 -49 33 -118q-1 -40 -13 -116l-14 -88q-18 -113 -84.5 -183t-196.5 -95l-13 -81q130 -35 112 -143q-14 -89 -101.5 -125t-276.5 -36l19 124
q142 0 148 37q2 13 -12 21t-45 12.5t-79 4.5l29 180q-255 42 -217 278z" />
    <glyph glyph-name="scedilla" unicode="&#x15f;" horiz-adv-x="1308" 
d="M138 270l37 235h305l-28 -176q-5 -35 5.5 -50.5t37.5 -15.5q35 0 49 27q9 19 12 38q3 16 7 44q6 34 4 53t-19 43q-2 4 -6 10l-5 5l-199 214q-61 67 -80 139t-5 161l14 88q22 138 120 215t281 77q182 0 259 -75t55 -211l-36 -223h-305l27 170q6 36 -3.5 51.5t-36.5 15.5
q-35 0 -52 -29q-8 -20 -12 -40q0 -2 -7 -45q-5 -33 1 -55.5t26 -49.5l21 -26l199 -214l1 -1l2 -2t8 -6q27 -29 34 -39q33 -49 33 -118q-1 -40 -13 -116l-14 -88q-18 -113 -84.5 -183t-196.5 -95l-13 -81q130 -35 112 -143q-14 -89 -101.5 -125t-276.5 -36l19 124
q142 0 148 37q2 13 -12 21t-45 12.5t-79 4.5l29 180q-255 42 -217 278z" />
    <glyph glyph-name="Scaron" unicode="&#x160;" horiz-adv-x="907" 
d="M548 1388l-117 240l252 -1l13 -89l48 89l247 1l-190 -240h-253zM138 270l37 235h305l-28 -176q-5 -35 5.5 -50.5t37.5 -15.5q35 0 49 27q9 19 12 38q3 16 7 44q6 34 4 53t-19 43q-2 4 -6 10l-5 5l-199 214q-61 67 -80 139t-5 161l14 88q22 138 120 215t281 77
q182 0 259 -75t55 -211l-36 -223h-305l27 170q6 36 -3.5 51.5t-36.5 15.5q-35 0 -52 -29q-8 -20 -12 -40q0 -2 -7 -45q-5 -32 1 -54t26 -51l21 -26l199 -214l1 -1l2 -2t8 -6q27 -29 34 -39q33 -49 33 -118q-1 -40 -13 -116l-14 -88q-47 -292 -405 -292q-180 0 -257 75
t-55 211z" />
    <glyph glyph-name="scaron" unicode="&#x161;" horiz-adv-x="907" 
d="M548 1392l-117 240l252 -1l13 -89l48 89l247 1l-190 -240h-253zM138 270l37 235h305l-28 -176q-5 -35 5.5 -50.5t37.5 -15.5q35 0 49 27q9 19 12 38q3 16 7 44q6 34 4 53t-19 43q-2 4 -6 10l-5 5l-199 214q-61 67 -80 139t-5 161l14 88q22 138 120 215t281 77
q182 0 259 -75t55 -211l-36 -223h-305l27 170q6 36 -3.5 51.5t-36.5 15.5q-35 0 -52 -29q-8 -20 -12 -40q0 -2 -7 -45q-5 -32 1 -54t26 -51l21 -26l199 -214l1 -1l2 -2t8 -6q27 -29 34 -39q33 -49 33 -118q-1 -40 -13 -116l-14 -88q-47 -292 -405 -292q-180 0 -257 75
t-55 211z" />
    <glyph glyph-name="Utilde" unicode="&#x168;" horiz-adv-x="922" 
d="M413 1434q14 86 40 120q50 72 162 72q55 0 108 -32q11 -6 21 -14q2 4 4 16l5 30h241l-8 -49q-14 -82 -41 -120q-53 -72 -162 -72q-57 0 -107 34l-21 14l-1 -2q-1 -2 -1 -3q0 -6 -2 -12l-5 -31h-241zM144 270l173 1092h305l-165 -1040q-10 -67 42 -67q27 0 41.5 15.5
t20.5 51.5l165 1040h304l-173 -1092q-22 -136 -121.5 -210.5t-278.5 -74.5q-181 0 -258 74.5t-55 210.5z" />
    <glyph glyph-name="utilde" unicode="&#x169;" horiz-adv-x="922" 
d="M414 1440q14 84 40 120q51 72 161 72q56 0 109 -32q11 -6 21 -14q1 2 4 15l4 31h241l-7 -49q-14 -83 -41 -120q-51 -72 -162 -72q-57 0 -107 34l-21 14l-1 -2q-1 -2 -1 -3q0 -2 -0.5 -6.5t-1.5 -6.5l-5 -30h-241zM143 270l173 1092h305l-165 -1040q-10 -67 42 -67
q27 0 41.5 15.5t20.5 51.5l165 1040h304l-173 -1092q-22 -136 -121.5 -210.5t-278.5 -74.5q-181 0 -258 74.5t-55 210.5z" />
    <glyph glyph-name="Uring" unicode="&#x16e;" horiz-adv-x="919" 
d="M463 1560q13 79 91.5 124.5t179.5 45.5q100 0 163.5 -46t51.5 -124q-12 -77 -91 -122.5t-178 -45.5q-100 0 -164.5 45t-52.5 123zM144 270l173 1092h305l-165 -1040q-10 -67 42 -67q27 0 41.5 15.5t20.5 51.5l165 1040h304l-173 -1092q-22 -136 -121.5 -210.5
t-278.5 -74.5q-181 0 -258 74.5t-55 210.5zM646 1558q-3 -14 13 -30q13 -14 44 -14t51 14q17 13 20 30q3 19 -10 32q-16 14 -47 14t-48 -14q-20 -16 -23 -32z" />
    <glyph glyph-name="uring" unicode="&#x16f;" horiz-adv-x="922" 
d="M463 1560q13 79 91.5 124.5t179.5 45.5q100 0 163.5 -46t51.5 -124q-12 -77 -91 -122.5t-178 -45.5q-100 0 -164.5 45t-52.5 123zM143 270l173 1092h305l-165 -1040q-10 -67 42 -67q27 0 41.5 15.5t20.5 51.5l165 1040h304l-173 -1092q-22 -136 -121.5 -210.5
t-278.5 -74.5q-181 0 -258 74.5t-55 210.5zM646 1558q-3 -14 13 -30q13 -14 44 -14t51 14q17 13 20 30q3 19 -10 32q-16 14 -47 14t-48 -14q-20 -16 -23 -32z" />
    <glyph glyph-name="Wcircumflex" unicode="&#x174;" horiz-adv-x="1365" 
d="M231 -1l70 1363h305l-49 -658l187 658h311l-23 -655l156 655h310l-363 -1363h-377l32 679l-181 -679h-378zM620 1389l194 240h252l114 -240l-247 1l-19 89l-42 -89z" />
    <glyph glyph-name="wcircumflex" unicode="&#x175;" horiz-adv-x="1365" 
d="M231 -1l70 1363h305l-49 -658l187 658h311l-23 -655l156 655h310l-363 -1363h-377l32 679l-181 -679h-378zM620 1393l194 240h252l114 -240l-247 1l-19 89l-42 -89z" />
    <glyph glyph-name="Ycircumflex" unicode="&#x176;" horiz-adv-x="929" 
d="M309 -1l25 157l39 250l-54 612l-30 344h322l7 -383l131 383h323l-142 -342l-252 -610l-40 -252l-25 -159h-304zM403 1389l193 240h253l114 -240l-247 1l-20 89l-42 -89z" />
    <glyph glyph-name="ycircumflex" unicode="&#x177;" horiz-adv-x="929" 
d="M310 -1l25 157l39 250l-54 612l-30 344h322l7 -383l131 383h323l-142 -342l-252 -610l-40 -252l-25 -159h-304zM404 1393l193 240h253l114 -240l-247 1l-20 89l-42 -89z" />
    <glyph glyph-name="Ydieresis" unicode="&#x178;" horiz-adv-x="929" 
d="M309 -1l25 157l39 250l-54 612l-30 344h322l7 -383l131 383h323l-142 -342l-252 -610l-40 -252l-25 -159h-304zM431 1391l38 241h236l-38 -241h-236zM693 1391l38 241h236l-38 -241h-236z" />
    <glyph glyph-name="Zacute" unicode="&#x179;" horiz-adv-x="756" 
d="M416 1393l167 241h317l-230 -241h-254zM82 -1l393 1089h-199l44 274h572l-402 -1086h223l-44 -277h-587z" />
    <glyph glyph-name="zacute" unicode="&#x17a;" horiz-adv-x="756" 
d="M415 1390l167 240h317l-230 -240h-254zM82 -1l393 1089h-199l44 274h572l-402 -1086h223l-44 -277h-587z" />
    <glyph glyph-name="Zcaron" unicode="&#x17d;" horiz-adv-x="756" 
d="M82 -1l393 1089h-199l44 274h572l-402 -1086h223l-44 -277h-587zM351 1628l252 -1l14 -89l48 89l247 1l-190 -240h-253z" />
    <glyph glyph-name="zcaron" unicode="&#x17e;" horiz-adv-x="756" 
d="M82 -1l393 1089h-199l44 274h572l-402 -1086h223l-44 -277h-587z" />
    <glyph glyph-name="uni01CD" unicode="&#x1cd;" horiz-adv-x="921" 
d="M560 1391l-117 240l251 -1l14 -89l48 89l247 1l-190 -240h-253zM86 -1l354 1363h462l-79 -1363h-300l18 226h-101l-53 -226h-301zM490 489h83l66 607h-22z" />
    <glyph glyph-name="uni01CE" unicode="&#x1ce;" horiz-adv-x="921" 
d="M86 -1l354 1363h462l-79 -1363h-300l18 226h-101l-53 -226h-301zM437 1632l252 -1l13 -89l48 89l247 1l-190 -240h-253zM490 489h83l66 607h-22z" />
    <glyph glyph-name="uni01CF" unicode="&#x1cf;" horiz-adv-x="609" 
d="M152 -1l216 1363h305l-216 -1363h-305zM281 1632l252 -1l14 -89l47 89l247 1l-189 -240h-253z" />
    <glyph glyph-name="uni01D0" unicode="&#x1d0;" horiz-adv-x="609" 
d="M152 -1l216 1363h305l-216 -1363h-305zM281 1634l252 -1l14 -89l47 89l247 1l-189 -240h-253z" />
    <glyph glyph-name="uni01D1" unicode="&#x1d1;" horiz-adv-x="957" 
d="M294 1092q22 136 122 210t281 74q180 0 256 -74.5t54 -209.5l-130 -822q-22 -136 -121.5 -210.5t-278.5 -74.5q-181 0 -258 74.5t-55 210.5zM457 1632l252 -1l14 -89l48 89l247 1l-190 -240h-253zM477 322q-5 -35 4.5 -51t37.5 -16q27 0 41.5 15.5t20.5 51.5l113 714
q6 36 -3.5 51.5t-36.5 15.5q-28 0 -43 -15.5t-21 -51.5z" />
    <glyph glyph-name="uni01D2" unicode="&#x1d2;" horiz-adv-x="957" 
d="M295 1092q22 136 122 210t281 74q180 0 256 -74.5t54 -209.5l-130 -822q-22 -136 -121.5 -210.5t-278.5 -74.5q-181 0 -258 74.5t-55 210.5zM465 1636l252 -1l14 -89l48 89l247 1l-190 -240h-253zM478 322q-5 -35 4.5 -51t37.5 -16q27 0 41.5 15.5t20.5 51.5l113 714
q6 36 -3.5 51.5t-36.5 15.5q-28 0 -43 -15.5t-21 -51.5z" />
    <glyph glyph-name="uni01D3" unicode="&#x1d3;" horiz-adv-x="919" 
d="M317 1362h305l-165 -1040q-10 -67 42 -67q27 0 41.5 15.5t20.5 51.5l165 1040h304l-173 -1092q-22 -136 -121.5 -210.5t-278.5 -74.5q-181 0 -258 74.5t-55 210.5zM438 1628l252 -1l13 -89l48 89l247 1l-190 -240h-253z" />
    <glyph glyph-name="uni01D4" unicode="&#x1d4;" horiz-adv-x="969" 
d="M342 1362h306l-165 -1040q-5 -35 4.5 -51t37.5 -16q27 0 41.5 15.5t20.5 51.5l165 1040h304l-173 -1092q-22 -136 -121.5 -210.5t-278.5 -74.5q-181 0 -258.5 74.5t-55.5 210.5zM459 1630l252 -1l14 -89l48 89l247 1l-190 -240h-253z" />
    <glyph glyph-name="circumflex" unicode="&#x2c6;" horiz-adv-x="731" 
d="M455 1352h253l114 -240l-247 1l-20 89l-42 -89l-252 -1z" />
    <glyph glyph-name="caron" unicode="&#x2c7;" horiz-adv-x="731" 
d="M419 1123l-118 240l252 -1l14 -89l48 89l247 1l-190 -240h-253z" />
    <glyph glyph-name="tilde" unicode="&#x2dc;" horiz-adv-x="730" 
d="M274 1169q14 83 42 121q53 72 164 72q60 0 111 -33q3 -2 8 -6t8 -6l3 14l5 31h241l-10 -61q-13 -78 -43 -116q-52 -64 -157 -64q-56 0 -108 34q-13 7 -20 13v-2q-1 -6 -3 -14l-4 -31h-244z" />
    <glyph glyph-name="Wgrave" unicode="&#x1e80;" horiz-adv-x="1365" 
d="M831 1387l-152 240h316l90 -240h-254zM231 -1l70 1363h305l-49 -658l187 658h311l-23 -655l156 655h310l-363 -1363h-377l32 679l-181 -679h-378z" />
    <glyph glyph-name="wgrave" unicode="&#x1e81;" horiz-adv-x="1365" 
d="M831 1391l-152 240h316l90 -240h-254zM231 -1l70 1363h305l-49 -658l187 658h311l-23 -655l156 655h310l-363 -1363h-377l32 679l-181 -679h-378z" />
    <glyph glyph-name="Wacute" unicode="&#x1e82;" horiz-adv-x="1365" 
d="M231 -1l70 1363h305l-49 -658l187 658h311l-23 -655l156 655h310l-363 -1363h-377l32 679l-181 -679h-378zM717 1387l172 240h312l-225 -240h-259z" />
    <glyph glyph-name="wacute" unicode="&#x1e83;" horiz-adv-x="1365" 
d="M717 1392l172 240h312l-225 -240h-259zM231 -1l70 1363h305l-49 -658l187 658h311l-23 -655l156 655h310l-363 -1363h-377l32 679l-181 -679h-378z" />
    <glyph glyph-name="Wdieresis" unicode="&#x1e84;" horiz-adv-x="1365" 
d="M231 -1l70 1363h305l-49 -658l187 658h311l-23 -655l156 655h310l-363 -1363h-377l32 679l-181 -679h-378zM653 1391l38 241h236l-38 -241h-236zM914 1391l38 241h236l-38 -241h-236z" />
    <glyph glyph-name="wdieresis" unicode="&#x1e85;" horiz-adv-x="1365" 
d="M231 -1l70 1363h305l-49 -658l187 658h311l-23 -655l156 655h310l-363 -1363h-377l32 679l-181 -679h-378zM651 1389l38 241h236l-38 -241h-236zM912 1389l38 241h237l-38 -241h-237z" />
    <glyph glyph-name="uni1EBC" unicode="&#x1ebc;" horiz-adv-x="829" 
d="M378 1439q14 83 42 122q50 72 163 72q66 0 109 -33q4 -2 18 -11q2 6 2 8l6 36h241l-10 -61q-13 -77 -42 -115q-52 -65 -158 -65q-59 0 -108 35q-4 3 -20 13v-3q-2 -10 -3 -14l-5 -31h-243zM106 -1l216 1363h638l-44 -275h-333l-43 -271h245l-43 -276h-245l-42 -264h333
l-44 -277h-638z" />
    <glyph glyph-name="uni1EBD" unicode="&#x1ebd;" horiz-adv-x="829" 
d="M375 1439q14 83 42 122q50 72 163 72q65 0 110 -33q2 -1 17 -11q2 6 2 8l6 36h241l-10 -61q-13 -77 -42 -115q-52 -65 -158 -65q-59 0 -108 35q-4 3 -20 13v-3q-2 -10 -3 -14l-5 -31h-243zM106 -1l216 1363h638l-44 -275h-333l-43 -271h245l-43 -276h-245l-42 -264h333
l-44 -277h-638z" />
    <glyph glyph-name="Ygrave" unicode="&#x1ef2;" horiz-adv-x="929" 
d="M611 1391l-151 240h313l96 -240h-258zM289 1362h322l7 -383l131 383h323l-142 -342l-252 -610l-40 -252l-25 -159h-304l25 157l39 250l-54 612z" />
    <glyph glyph-name="ygrave" unicode="&#x1ef3;" horiz-adv-x="929" 
d="M612 1396l-151 241h313l96 -241h-258zM290 1362h322l7 -383l131 383h323l-142 -342l-252 -610l-40 -252l-25 -159h-304l25 157l39 250l-54 612z" />
    <glyph glyph-name="uni1EF8" unicode="&#x1ef8;" horiz-adv-x="914" 
d="M412 1453q13 80 42 116q51 64 157 64q59 0 110 -33q4 -2 18 -11l3 13l5 31h243l-8 -46q-14 -83 -41 -122q-54 -73 -164 -73q-54 0 -107 34q-2 2 -9 7.5t-11 7.5v-2q-2 -12 -3 -16l-5 -31h-240zM281 1362h323l6 -383l131 383h323l-141 -342l-253 -610l-40 -252l-25 -159
h-304l25 157l39 250l-54 612z" />
    <glyph glyph-name="uni1EF9" unicode="&#x1ef9;" horiz-adv-x="914" 
d="M412 1453q13 80 42 116q51 64 157 64q59 0 110 -33q4 -2 18 -11l3 13l5 31h243l-8 -46q-14 -83 -41 -122q-54 -73 -164 -73q-54 0 -107 34q-2 2 -9 7.5t-11 7.5v-2q-2 -12 -3 -16l-5 -31h-240zM281 1362h323l6 -383l131 383h323l-141 -342l-253 -610l-40 -252l-25 -159
h-304l25 157l39 250l-54 612z" />
    <glyph glyph-name="uni2010" unicode="&#x2010;" horiz-adv-x="661" 
d="M185 586l41 257h478l-41 -257h-478z" />
    <glyph glyph-name="uni2011" unicode="&#x2011;" horiz-adv-x="661" 
d="M185 586l41 257h478l-41 -257h-478z" />
    <glyph glyph-name="figuredash" unicode="&#x2012;" horiz-adv-x="661" 
d="M185 586l41 257h478l-41 -257h-478z" />
    <glyph glyph-name="endash" unicode="&#x2013;" horiz-adv-x="1118" 
d="M114 596l38 237h1077l-38 -237h-1077z" />
    <glyph glyph-name="emdash" unicode="&#x2014;" horiz-adv-x="2115" 
d="M114 596l38 237h2074l-38 -237h-2074z" />
    <glyph glyph-name="quoteleft" unicode="&#x2018;" horiz-adv-x="494" 
d="M289 1182q2 6 9 18l15 24q10 19 42 71q55 92 67 115l12 20h169l-88 -195h74l-43 -269h-291z" />
    <glyph glyph-name="quoteright" unicode="&#x2019;" horiz-adv-x="494" 
d="M272 966l88 196h-74l42 268h291l-34 -217q-2 -6 -9 -18q-5 -10 -13 -22q-3 -5 -44 -72q-13 -23 -29 -50t-26.5 -44.5t-11.5 -19.5l-12 -21h-168z" />
    <glyph glyph-name="quotesinglbase" unicode="&#x201a;" horiz-adv-x="494" 
d="M88 -196l88 195h-74l42 269h291l-34 -216q-2 -7 -9 -18q-7 -14 -13 -24t-21 -34.5t-23 -37.5q-13 -22 -29 -49.5t-26 -44.5t-12 -20l-12 -20h-168z" />
    <glyph glyph-name="quotedblleft" unicode="&#x201c;" horiz-adv-x="808" 
d="M918 1431l-87 -195h73l-43 -269h-290l34 216q2 7 9 18q7 14 14 24q5 10 42 72q11 19 29 49t27.5 45.5t11.5 19.5l13 20h167zM255 967l34 216q2 7 9 18q7 14 14 24l43 72q62 104 67 114l13 20h168l-88 -195h74l-43 -269h-291z" />
    <glyph glyph-name="quotedblright" unicode="&#x201d;" horiz-adv-x="808" 
d="M272 967l88 196h-74l43 268h291l-35 -216q-2 -7 -8 -18q-4 -8 -14 -23l-43 -72q-67 -113 -68 -114l-12 -21h-168zM587 967l88 196h-73l43 268h290l-35 -216q-2 -7 -8 -18q-4 -8 -14 -23l-42 -72q-46 -78 -69 -114l-12 -21h-168z" />
    <glyph glyph-name="quotedblbase" unicode="&#x201e;" horiz-adv-x="808" 
d="M88 -196l88 195h-74l42 269h291l-34 -216q-2 -7 -9 -18q-7 -14 -13 -24t-21 -34.5t-23 -37.5q-13 -22 -29 -49.5t-26 -44.5t-12 -20l-12 -20h-168zM403 -196l88 195h-73l42 269h290l-34 -216q-2 -7 -9 -18q-7 -14 -13 -24l-43 -72q-13 -22 -29.5 -49.5t-26.5 -44.5
t-12 -20l-12 -20h-168z" />
    <glyph glyph-name="dagger" unicode="&#x2020;" horiz-adv-x="1258" 
d="M423 -114l64 407h-266l38 237h266l163 1027h260l-163 -1027h261l-38 -237h-261l-64 -407h-260z" />
    <glyph glyph-name="bullet" unicode="&#x2022;" horiz-adv-x="915" 
d="M261 599q-16 56 -7 116q11 66 47 122q46 75 130.5 127.5t187.5 52.5t171 -52t91 -127q17 -63 7 -123q-9 -58 -41 -116q-46 -77 -132 -132t-192 -55t-174.5 55.5t-87.5 131.5z" />
    <glyph glyph-name="ellipsis" unicode="&#x2026;" horiz-adv-x="1076" 
d="M102 -1l42 269h873l-42 -269h-873z" />
    <glyph glyph-name="guilsinglleft" unicode="&#x2039;" horiz-adv-x="520" 
d="M178 528q-2 19 -6.5 49t-5.5 41q-4 64 2 99q5 36 28 93q0 1 16 33.5t24 52.5l145 372h288l-147 -383q-6 -16 -13 -31.5t-15.5 -31.5t-12.5 -25q-20 -45 -25 -80q-7 -37 -1 -86q11 -82 12 -94l21 -403h-288z" />
    <glyph glyph-name="guilsinglright" unicode="&#x203a;" horiz-adv-x="521" 
d="M225 537q12 32 42 94q20 48 27 86q5 35 -1 80q-12 80 -13 88l-25 383h287l28 -372q1 -15 2.5 -30t4 -31.5t3.5 -24.5q8 -45 2 -93q-8 -47 -31 -99q-30 -65 -39 -90l-149 -394h-287z" />
    <glyph glyph-name="fraction" unicode="&#x2044;" horiz-adv-x="917" 
d="M78 13l721 1413l271 -8l-723 -1415z" />
    <glyph glyph-name="Euro" unicode="&#x20ac;" horiz-adv-x="913" 
d="M144 528l26 168h55l8 47h-55l26 169h55l26 159q8 54 24 102t48.5 99.5t76.5 88.5t114 60.5t157 23.5q73 0 128.5 -16t89.5 -45t55.5 -64.5t28.5 -79.5t7 -84.5t-7 -84.5l-21 -131h-287l23 144q7 54 -1 78q-11 26 -51 26q-39 0 -57 -26q-19 -28 -26 -78l-28 -172h306
l-26 -169h-306l-8 -47h306l-26 -168h-306l-29 -183q-9 -52 1 -77q9 -26 49 -26t60 27q16 25 25 76l24 154h287l-22 -141q-9 -54 -25 -102t-48.5 -99.5t-76.5 -88t-114 -60.5t-157 -24q-73 0 -128.5 16t-89 45t-55 64.5t-29 79.5t-7 84.5t7.5 84.5l27 170h-55z" />
    <glyph glyph-name="trademark" unicode="&#x2122;" horiz-adv-x="1109" 
d="M270 698l92 582h-110l23 146h384l-23 -146h-111l-92 -582h-163zM589 700l115 726h218l4 -393l120 393h219l-115 -726h-161l46 292l-99 -292h-134l-6 292l-46 -292h-161z" />
    <glyph glyph-name="_Designova" horiz-adv-x="1655" 
d="M826 27q-170 0 -314 84.5t-228 229.5t-84 315q0 127 50 243t134 200t200.5 133.5t243.5 49.5t243 -49.5t200 -133.5t134 -200t50 -243q0 -128 -49.5 -244.5t-134 -201t-201 -134t-244.5 -49.5zM275 656q0 -113 43.5 -215.5t117.5 -176.5t176 -118t215 -44q150 0 277.5 74
t201.5 201t74 277t-73.5 277.5t-200.5 201.5t-276 74q-113 0 -216 -43.5t-177 -117.5t-118 -176t-44 -214zM472 766q2 0 4 -1t4.5 -2t3.5 -1q52 -22 111 -31q41 -3 80 3q36 8 53 13q3 0 17 7l-17 8.5t-19 10t-14.5 10.5t-14.5 14h19q47 2 84 21q78 46 155 69q32 10 63 11
q4 0 25 1t25 0q62 -2 99 -37q7 -6 18.5 -19.5t13.5 -16.5q-1 -1 -1 -2q-1 0 -2.5 0.5t-2.5 1.5q-52 19 -94 4t-70 -59q-9 -16 -28 -63q-6 -13 -24.5 -57t-29.5 -68q-35 -72 -72 -115q-23 -30 -73 -65q-48 -36 -131 -61h-2l-2 -1h-2l26 25q20 16 29 50q40 112 50 143
q31 85 65 146v3q-4 -5 -13 -14q-9 -11 -10 -14q-24 -32 -36 -64q-4 -7 -9 -7q-112 6 -198 77q-19 17 -65 61q-5 5 -15 19z" />
    <glyph glyph-name="_Fontastica" horiz-adv-x="1458" 
d="M176 200q-3 0 -4.5 2t-1.5 4v1v1082h812v-160h-626v-450h626v-167h-626v-312h-180zM175 35v121h91v-25h-60v-27h54v-26h-54v-43h-31zM272 95q0 28 18.5 45.5t46.5 17.5t46.5 -17.5t18.5 -45.5q0 -27 -18.5 -45t-46.5 -18t-46.5 17.5t-18.5 45.5zM304 95q0 -14 9.5 -25
t23.5 -11t23.5 11t9.5 24q0 7 -4 19q-7 18 -28 18q-15 0 -24.5 -10.5t-9.5 -25.5zM418 35v121h28l56 -73l-1 73h30v-121h-28l-55 72v-72h-30zM477 200v169h626v443h-626v172h626v305h185v-1089h-811zM544 130v26h104v-26h-37v-95h-30v95h-37zM636 35l51 121h32l52 -121h-33
l-10 21h-52l-8 -21h-32zM685 80h33l-14 44zM772 52l12 26q19 -19 43 -19q10 0 12 2q5 3 5 8q0 4 -4 7q-10 7 -20 8q-15 5 -22 8q-9 3 -13 9q-5 8 -5 18q0 20 14 30t34 10q24 0 48 -14l-12 -26q-20 13 -37 13q-14 0 -14 -8q0 -10 22 -16q18 -4 22 -6q8 -5 14 -11q5 -10 5 -20
q0 -19 -14.5 -28.5t-33.5 -9.5q-34 0 -56 19zM883 130v26h102v-26h-34v-95h-33v95h-35zM999 35v121h31v-121h-31zM1047 95q0 27 18.5 45t45.5 18q30 0 49 -21l-18 -22q-13 16 -31 16q-13 0 -23 -9.5t-10 -27.5q0 -10 5 -16q11 -18 29 -18q16 0 30 14l19 -19q-25 -23 -52 -23
q-26 0 -44 18.5t-18 44.5zM1160 35l51 121h33l51 -121h-34l-8 21h-53l-8 -21h-32zM1210 80h33l-16 44z" />
    <glyph glyph-name="_VendorID" horiz-adv-x="1123" 
d="M779 755q-104 0 -168 53.5t-53 127.5h73q-16 -44 29.5 -78.5t118.5 -34.5q62 0 105 26.5t43 65.5q0 68 -155 91q-99 15 -150 54.5t-51 98.5q0 66 58 109.5t145 43.5q96 0 158 -51.5t50 -122.5h-74q17 40 -24.5 72.5t-109.5 32.5q-56 0 -94.5 -24t-38.5 -58q0 -66 140 -86
q106 -15 161.5 -56t55.5 -104q0 -69 -62.5 -114.5t-156.5 -45.5zM73 77h13l7 -33l6 32h14l7 -32l7 33h12l-13 -42h-13l-7 31l-7 -31h-12zM120 137v535h413v-68h-343v-164h323v-70h-323v-233h-70zM120 766v535h413v-69h-343v-164h323v-69h-323v-233h-70zM139 77h12l7 -33
l8 32h13l7 -32l7 33h12l-13 -42h-12l-7 31l-8 -31h-13zM205 77h12l7 -33l8 32h13l7 -32l8 33h11l-14 -42h-12l-7 31l-7 -31h-13zM270 40q0 7 6 7q7 0 7 -7t-7 -7q-6 0 -6 7zM288 56q0 22 20 22q6 0 10 -2l3 -4v21h11v-58h-11v6l-3 -4q-6 -4 -12 -4q-18 0 -18 23zM299 56
q0 -15 10 -15q12 0 12 15v1q0 14 -11 14t-11 -15zM339 56q0 22 22 22q20 0 20 -22q0 -1 -1 -3h-30q1 -12 10 -12q7 0 9 8h11q-5 -16 -21 -16q-20 0 -20 23zM350 60h19q-2 11 -9 11q-8 0 -10 -11zM384 47h11q2 -7 8 -7t6 6q0 3 -10 7q-13 4 -13 12q0 13 17 13q16 0 16 -13
h-10q-1 6 -7 6q-5 0 -5 -5q0 -3 10 -6q13 -4 13 -14q0 -13 -17 -13q-16 0 -19 14zM427 87q0 5 6 5t6 -5q0 -6 -6 -6t-6 6zM428 35v42h10v-42h-10zM445 56q0 22 21 22q6 0 10 -2l3 -4v5h11v-31q0 -7 -1 -9q0 -19 -22 -19q-20 0 -20 14v1h10v-1q1 -6 10 -6t12 10v6l-4 -5
q-4 -2 -10 -2q-20 0 -20 21zM457 56q0 -14 10 -14q12 0 12 14v1q0 14 -12 14q-10 0 -10 -15zM500 35v42h10v-7l4 5q4 3 10 3q14 0 15 -12q1 -2 1 -7v-24h-12v28q0 8 -8 8q-10 0 -10 -17v-19h-10zM546 56q0 22 22 22t22 -22q0 -23 -22 -23t-22 23zM557 56q0 -15 11 -15
q10 0 10 15t-10 15q-11 0 -11 -15zM558 307h73q-16 -43 29.5 -77t118.5 -34q62 0 105 25.5t43 63.5q0 70 -152 93q-100 14 -152 53.5t-52 99.5q0 66 58.5 109.5t145.5 43.5q96 0 157 -51.5t50 -122.5h-74q17 40 -24.5 72.5t-108.5 32.5q-56 0 -95 -24t-39 -59q0 -64 139 -84
q218 -32 218 -162q0 -69 -62 -114.5t-156 -45.5q-103 0 -168 53t-54 128zM593 77h11l11 -34l10 34h12l-16 -42h-13zM640 46q0 14 23 14h3v2q0 2 -1 3q0 6 -5 6q-8 0 -8 -8h-11q0 15 19 15q15 0 17 -12v-31h-10l-1 5l-2 -4q-6 -3 -11 -3q-13 0 -13 13zM651 47q0 -6 6 -6
q9 0 9 9v4q-15 2 -15 -7zM683 69v7h4v7q2 11 16 11h5v-8q-9 2 -9 -4v-6h9v-7h-9v-34h-12v34h-4zM711 56q0 22 21 22q22 0 22 -22q0 -23 -22 -23q-21 0 -21 23zM722 56q0 -15 10 -15q12 0 12 15t-12 15q-10 0 -10 -15zM761 35v42h11v-7l4 5q4 3 10 3q14 0 15 -12q1 -2 1 -7
v-24h-12v28q-2 8 -8 8q-10 0 -10 -17v-19h-11zM806 69v7h7v11h11v-11h8v-7h-8v-23q2 -6 8 -5v-7h-7q-12 0 -12 9v26h-7zM836 47h11q2 -7 8 -7t6 6q0 3 -10 7q-13 3 -13 12q0 13 16 13q15 0 18 -13h-12q0 6 -7 6q-4 0 -4 -5q0 -3 9 -6q14 -5 14 -14q0 -13 -17 -13t-19 14z
M877 40q0 7 6 7q7 0 7 -7t-7 -7q-6 0 -6 7zM895 56q0 22 22 22q17 0 19 -16h-11q-1 9 -8 9q-11 0 -11 -15t11 -15q6 0 8 8h11q-3 -16 -20 -16q-21 0 -21 23zM940 56q0 22 22 22t22 -22q0 -23 -22 -23t-22 23zM951 56q0 -15 11 -15t11 15t-11 15t-11 -15zM991 35v42h11v-6
l3 5q6 2 9 2q10 0 13 -8l4 6q6 2 9 2q12 0 14 -10v-33h-10v21q0 2 -0.5 4.5t-0.5 3.5q0 7 -8 7q-7 0 -7 -15v-21h-11v29q0 7 -7 7q-8 0 -8 -15v-21h-11z" />
    <glyph glyph-name=".notedef" horiz-adv-x="963" 
d="M873 1h-783v1371h783v-1371zM148 144l300 542l-300 540v-1082zM168 1312l312 -564l315 564h-627zM170 62h625l-312 563zM515 686l302 -546v1090z" />
    </font>
</defs>
</svg>
