<?xml version="1.0" standalone="no"?>
<!DOCTYPE svg PUBLIC "-//W3C//DTD SVG 1.1//EN" "http://www.w3.org/Graphics/SVG/1.1/DTD/svg11.dtd" >
<svg xmlns="http://www.w3.org/2000/svg" xmlns:xlink="http://www.w3.org/1999/xlink" version="1.1">
<metadata>
Created by FontForge 20201107 at Tue May 28 21:44:46 2024
 By 
Copyright (c) 2024 by Designova. All rights reserved.
</metadata>
<defs>
<font id="NORD-Thin" horiz-adv-x="1533" >
  <font-face 
    font-family="NORD Thin"
    font-weight="100"
    font-stretch="normal"
    units-per-em="2048"
    panose-1="0 0 0 0 0 0 0 0 0 0"
    ascent="1638"
    descent="-410"
    x-height="1360"
    cap-height="1360"
    bbox="-61 -377 2488 1978"
    underline-thickness="102"
    underline-position="-255"
    unicode-range="U+0020-2212"
  />
<missing-glyph horiz-adv-x="1458" 
d="M102 0v1411h1254v-1411h-1254zM301 522l119 -116l305 305l311 -305l121 116l-307 309l303 308l-117 116l-311 -305l-303 305l-121 -116l307 -308zM311 170h31v84h2l64 -84h28v131h-30v-82h-3l-65 82h-27v-131zM451 219q0 -30 24 -45q30 -6 31 -6q31 0 49 25q6 12 6 26
q0 32 -26 45q-12 6 -29 6q-37 0 -49 -24q-6 -12 -6 -27zM481 219q0 16 11 27q8 4 14 4q13 0 20 -14q2 -6 2 -17q0 -16 -10 -26q-2 0 -5.5 -1.5t-6.5 -1.5q-18 0 -21 15q-4 4 -4 14zM612 236q0 -44 33 -60q24 -8 39 -8q38 0 55 27q9 12 9 28v19h-62v-23h33q0 -15 -17 -22
q-6 -4 -18 -4q-25 0 -35 20q-4 6 -4 23q0 28 19 38q14 7 18 7q12 0 22 -6.5t11 -16.5h30q0 18 -20 35q-17 10 -43 10q-40 0 -59 -31q-11 -14 -11 -36zM766 170h29v131h-29v-131zM805 270l41 -102l-2 -4q-2 -12 -23 -8l-8 -19q12 -4 21 -4q21 0 32 14q4 2 8 13l44 110h-33
l-23 -73h-2l-22 73h-33zM928 133h30v53q8 -12 19 -14q4 -4 14 -4q27 0 39 25q6 8 6 26q0 32 -20 45q-12 6 -25 6q-16 0 -26 -10q-6 -6 -7 -8v18h-30v-137zM958 219q0 18 11 25q6 6 12 6q17 0 20 -14q5 -15 5 -17q0 -11 -11 -26l-14 -3q-14 0 -20 15q-3 6 -3 14zM1053 170h28
v57q0 15 11 19q4 2 12 2q18 0 18 -19v-59h33v63q0 24 -20 33q-8 4 -19 4q-26 0 -35 -18h-2v49h-26v-131z" />
    <glyph glyph-name=".notdef" horiz-adv-x="1458" 
d="M102 0v1411h1254v-1411h-1254zM301 522l119 -116l305 305l311 -305l121 116l-307 309l303 308l-117 116l-311 -305l-303 305l-121 -116l307 -308zM311 170h31v84h2l64 -84h28v131h-30v-82h-3l-65 82h-27v-131zM451 219q0 -30 24 -45q30 -6 31 -6q31 0 49 25q6 12 6 26
q0 32 -26 45q-12 6 -29 6q-37 0 -49 -24q-6 -12 -6 -27zM481 219q0 16 11 27q8 4 14 4q13 0 20 -14q2 -6 2 -17q0 -16 -10 -26q-2 0 -5.5 -1.5t-6.5 -1.5q-18 0 -21 15q-4 4 -4 14zM612 236q0 -44 33 -60q24 -8 39 -8q38 0 55 27q9 12 9 28v19h-62v-23h33q0 -15 -17 -22
q-6 -4 -18 -4q-25 0 -35 20q-4 6 -4 23q0 28 19 38q14 7 18 7q12 0 22 -6.5t11 -16.5h30q0 18 -20 35q-17 10 -43 10q-40 0 -59 -31q-11 -14 -11 -36zM766 170h29v131h-29v-131zM805 270l41 -102l-2 -4q-2 -12 -23 -8l-8 -19q12 -4 21 -4q21 0 32 14q4 2 8 13l44 110h-33
l-23 -73h-2l-22 73h-33zM928 133h30v53q8 -12 19 -14q4 -4 14 -4q27 0 39 25q6 8 6 26q0 32 -20 45q-12 6 -25 6q-16 0 -26 -10q-6 -6 -7 -8v18h-30v-137zM958 219q0 18 11 25q6 6 12 6q17 0 20 -14q5 -15 5 -17q0 -11 -11 -26l-14 -3q-14 0 -20 15q-3 6 -3 14zM1053 170h28
v57q0 15 11 19q4 2 12 2q18 0 18 -19v-59h33v63q0 24 -20 33q-8 4 -19 4q-26 0 -35 -18h-2v49h-26v-131z" />
    <glyph glyph-name=".null" horiz-adv-x="0" 
 />
    <glyph glyph-name=".null" horiz-adv-x="0" 
 />
    <glyph glyph-name="nonmarkingreturn" horiz-adv-x="682" 
 />
    <glyph glyph-name="space" unicode=" " horiz-adv-x="671" 
 />
    <glyph glyph-name="space" unicode="&#xa0;" horiz-adv-x="671" 
 />
    <glyph glyph-name="exclam" unicode="!" horiz-adv-x="514" 
d="M307 1145q0 -349 -41 -762h-18q-41 356 -41 762v215h100v-215zM166 78q0 50 23 78t65 28q47 0 71.5 -28t24.5 -78q0 -52 -24.5 -80.5t-71.5 -28.5q-43 0 -65.5 29t-22.5 80z" />
    <glyph glyph-name="quotedbl" unicode="&#x22;" horiz-adv-x="849" 
d="M688 1223q0 -172 -33 -293h-37q-30 110 -30 293v137h100v-137zM166 1223v137h100v-137q0 -155 -30 -293h-39q-31 114 -31 293z" />
    <glyph glyph-name="numbersign" unicode="#" horiz-adv-x="1611" 
d="M139 399h258l103 562h-246v57h256l61 342h76l-63 -342h516l59 342h76l-61 -342h249v-57h-262l-98 -562h244v-61h-258l-60 -338h-74l62 338h-518l-60 -338h-75l61 338h-246v61zM471 399h514l102 562h-514z" />
    <glyph glyph-name="dollar" unicode="$" horiz-adv-x="1056" 
d="M477 125v526h-8q-52 2 -88.5 4.5t-83.5 8t-79.5 15.5t-69 25.5t-60.5 38.5t-44 53.5t-30 72.5t-10 94q0 77 26.5 136t68.5 96t105 62.5t125.5 37t139.5 16.5l8 2v336h70v-340l8 -2q367 -38 432 -271h-96q-59 155 -334 191h-10v-496h10q81 -1 140.5 -7.5t123.5 -26.5
t104.5 -54t66.5 -93.5t26 -141.5q0 -78 -25.5 -138.5t-67.5 -99t-104 -64.5t-125 -38.5t-141 -18.5l-8 -2v-348h-70v346l-8 2q-412 38 -477 275h94q17 -42 51 -75.5t71 -53t88 -34.5t87.5 -21.5t83.5 -12.5h10zM98 973q0 -34 8 -63.5t19.5 -51t32.5 -39.5t40 -30t49 -22
t51.5 -15.5t57 -10.5t55.5 -7t56 -5h10v498h-10q-369 -44 -369 -254zM547 131h10q375 38 375 270q0 62 -26 108t-62 71t-91.5 41.5t-98 21.5t-97.5 8h-10v-520z" />
    <glyph glyph-name="percent" unicode="%" horiz-adv-x="1953" 
d="M1499 555q152 0 240 -108t88 -269t-87.5 -262.5t-240.5 -101.5q-155 0 -245.5 102t-90.5 262q0 161 91 269t245 108zM127 1167q0 161 89.5 270t242.5 109t240 -108.5t87 -270.5q0 -160 -86.5 -262t-240.5 -102q-153 0 -242.5 103t-89.5 261zM199 1171q0 -123 68.5 -206.5
t191.5 -83.5q121 0 188.5 85.5t67.5 207.5q0 124 -67 210t-189 86q-124 0 -192 -87t-68 -212zM451 158l999 1099l51 -55l-999 -1100zM1237 184q0 -122 69 -207.5t191 -85.5q121 0 189.5 85.5t68.5 207.5t-68.5 208.5t-189.5 86.5q-123 0 -191.5 -86.5t-68.5 -208.5z" />
    <glyph glyph-name="ampersand" unicode="&#x26;" horiz-adv-x="1277" 
d="M614 1411q124 0 208.5 -75t84.5 -195q0 -87 -46 -151t-130 -126l-115 -80l328 -489l76 143q8 17 43 99l70 -19q-40 -137 -119 -244l-10 -18l14 -12q84 -85 102 -101q48 -45 94 -77l-59 -82q-15 10 -28.5 20t-29.5 24.5t-25 22t-28 27t-23.5 23.5t-27.5 28t-24 25l-15 18
l-18 -16q-100 -102 -180 -145.5t-199 -43.5q-189 0 -309.5 93t-120.5 272q0 64 19.5 119.5t48.5 96.5t77.5 81.5t92.5 68t108 62.5l25 12l-15 21q-41 54 -64.5 87t-54 84.5t-45 99.5t-14.5 95q0 76 46.5 135t116 88t146.5 29zM223 338q0 -137 85.5 -224t221.5 -87
q54 0 103 14.5t96 45t78 56t78 68.5l12 12l-371 510l-18 -8q-47 -26 -85 -51.5t-76.5 -62t-64.5 -75.5t-42.5 -90t-16.5 -108zM387 1169q0 -86 23 -138t84 -132q7 -10 27 -33.5t28 -36.5l12 -14l109 78q78 50 123 105t45 132q0 100 -64.5 162t-157.5 62q-36 0 -73.5 -10.5
t-73.5 -31t-59 -58t-23 -85.5z" />
    <glyph glyph-name="quotesingle" unicode="'" horiz-adv-x="430" 
d="M266 1223q0 -155 -30 -293h-39q-31 114 -31 293v137h100v-137z" />
    <glyph glyph-name="parenleft" unicode="(" horiz-adv-x="518" 
d="M127 680q0 265 65.5 523t196.5 468l66 -47q-115 -208 -172.5 -451.5t-57.5 -492.5q0 -526 230 -944l-66 -49q-131 210 -196.5 468.5t-65.5 524.5z" />
    <glyph glyph-name="parenright" unicode=")" horiz-adv-x="518" 
d="M129 1671q131 -210 196.5 -468t65.5 -523q0 -266 -65.5 -524.5t-196.5 -468.5l-66 49q226 421 226 944q0 248 -56.5 491.5t-169.5 452.5z" />
    <glyph glyph-name="asterisk" unicode="*" horiz-adv-x="843" 
d="M160 1214q70 -42 101.5 -71t68.5 -84q-61 10 -100 29t-103 63zM127 831q85 53 120 66t79 18q-35 -53 -64.5 -79t-101.5 -68zM389 952v86l66 21l47 -25v-69l-51 -56zM416 606v127q0 32 33 103q26 -73 26 -103v-127h-59zM416 1249v123h59v-123q0 -31 -26 -104
q-33 71 -33 104zM563 1059q31 50 65 80.5t107 74.5l31 -63q-71 -47 -110 -65t-93 -27zM565 915q41 -5 77.5 -18t56 -24.5t67.5 -41.5l-35 -63q-70 42 -101.5 69.5t-64.5 77.5z" />
    <glyph glyph-name="plus" unicode="+" horiz-adv-x="1323" 
d="M190 725h420v479h103v-479h422v-88h-422v-481h-103v481h-420v88z" />
    <glyph glyph-name="comma" unicode="," horiz-adv-x="514" 
d="M238 -31q-42 18 -57 38t-15 65q0 112 92 112t92 -129q0 -173 -102 -309l20 45q7 22 20.5 67t20.5 66l6 23l-22 6q-8 3 -27 8t-28 8z" />
    <glyph glyph-name="hyphen" unicode="-" horiz-adv-x="1181" 
d="M190 637v88h801v-88h-801z" />
    <glyph glyph-name="period" unicode="." horiz-adv-x="514" 
d="M166 78q0 50 23 78t65 28q47 0 71.5 -28t24.5 -78q0 -52 -24.5 -80.5t-71.5 -28.5q-43 0 -65.5 29t-22.5 80z" />
    <glyph glyph-name="slash" unicode="/" horiz-adv-x="1034" 
d="M100 -145l768 1687l66 -37l-766 -1687z" />
    <glyph glyph-name="zero" unicode="0" horiz-adv-x="1468" 
d="M729 -31q-123 0 -219.5 36t-160.5 99t-105.5 153.5t-59.5 193.5t-18 225q0 123 18 227t60.5 195t107 154.5t162.5 100t223 36.5q123 0 220 -35.5t161.5 -98.5t107 -152.5t61 -193t18.5 -225.5q0 -123 -18.5 -227t-61.5 -195.5t-108.5 -155.5t-164 -100.5t-223.5 -36.5z
M279 680q0 -92 13 -174.5t46.5 -162.5t84 -137.5t130.5 -92.5t182 -35q101 0 180.5 35.5t129.5 93t83 137t46.5 162.5t13.5 174t-13 173.5t-46 163t-83 139t-130 94.5t-181 36q-102 0 -182.5 -35.5t-130.5 -94t-83.5 -139t-46.5 -163t-13 -174.5z" />
    <glyph glyph-name="one" unicode="1" horiz-adv-x="479" 
d="M190 0v1360h101v-1360h-101z" />
    <glyph glyph-name="two" unicode="2" horiz-adv-x="1327" 
d="M260 92h891v-92h-999v121q0 77 32 151t82 131t120.5 111t136.5 92t141 72q11 4 112 51q52 26 89 51t72 60t53 81t18 101q0 70 -32 123.5t-84 83t-109 43.5t-115 14q-56 0 -110 -12t-104.5 -36.5t-89 -68t-55.5 -100.5h-123q14 83 56.5 145.5t105.5 100t138.5 56
t162.5 18.5q73 0 140 -12.5t128.5 -40.5t106.5 -69t71.5 -102.5t26.5 -136.5q0 -120 -62 -202.5t-175 -149.5q-80 -46 -217 -107q-76 -35 -150.5 -87t-138.5 -115t-97.5 -136t-21.5 -139z" />
    <glyph glyph-name="three" unicode="3" horiz-adv-x="1316" 
d="M653 -31q-88 0 -164 14.5t-145 47t-115.5 91.5t-62.5 140h121q20 -54 62 -92.5t97 -57t105.5 -26.5t103.5 -8h2q53 0 103.5 7t103.5 26.5t91.5 50t63.5 80.5t25 114q0 78 -36.5 136t-95.5 87.5t-119 43t-121 12.5q-47 2 -137 2v88h45q59 0 92 2q61 -1 117 14t105 46
t78 87t29 130q0 75 -29.5 131t-79.5 88t-109 47.5t-126 15.5h-16q-52 0 -101.5 -9t-98 -29.5t-85.5 -58.5t-55 -91h-125q16 81 59.5 139.5t109 90.5t138.5 46.5t160 14.5h14q77 0 143 -11t125.5 -37.5t101 -66.5t65.5 -101t24 -139v-24q0 -216 -182 -322q223 -104 223 -340
v-22q0 -80 -28.5 -143t-75 -102.5t-112.5 -65t-135 -36t-147 -10.5h-6z" />
    <glyph glyph-name="four" unicode="4" horiz-adv-x="1345" 
d="M862 0v309h-786v121l766 930h123v-961h254v-90h-254v-309h-103zM184 399h678v832z" />
    <glyph glyph-name="five" unicode="5" horiz-adv-x="1316" 
d="M1059 1360v-92h-772v-496h22q41 0 123.5 2t124.5 2q71 0 128.5 -3.5t121 -14.5t112 -29t94 -48.5t75.5 -72t47.5 -100.5t17.5 -133q0 -109 -38.5 -189.5t-108.5 -127t-158 -68t-197 -21.5q-87 0 -163 14.5t-144.5 47t-115.5 91.5t-62 140h121q20 -53 61.5 -91.5
t94.5 -57.5t103.5 -27t102.5 -8q73 0 138 15t124 47.5t94 94.5t35 146q0 82 -34 142.5t-92 93.5t-122.5 48t-136.5 15h-473v680h877z" />
    <glyph glyph-name="six" unicode="6" horiz-adv-x="1337" 
d="M694 -31q-122 0 -219 35.5t-161.5 97t-107 151t-61 192t-18.5 223.5q0 119 17.5 222t58.5 196t103 159t157.5 105t216.5 39q108 0 201.5 -28.5t167 -96t94.5 -166.5h-117q-21 51 -62 89t-92 59t-101.5 30.5t-100.5 9.5q-76 0 -140.5 -23.5t-110 -64t-82.5 -95
t-57.5 -115.5t-35 -126t-15.5 -127.5t2 -118.5q91 90 224.5 132.5t251.5 42.5q98 0 187.5 -26t161 -75.5t114 -129t42.5 -177.5q0 -105 -42.5 -186.5t-116.5 -130t-164.5 -73t-194.5 -24.5zM248 518l2 -12q16 -98 46 -173t80.5 -134t128.5 -90t181 -31q73 0 141.5 16.5
t130 51t99 98t37.5 147.5q0 82 -37.5 144t-99 95.5t-128.5 49.5t-139 16q-113 0 -228 -48t-214 -130z" />
    <glyph glyph-name="seven" unicode="7" horiz-adv-x="1236" 
d="M139 1268v92h944v-131l-528 -1229h-113l549 1268h-852z" />
    <glyph glyph-name="eight" unicode="8" horiz-adv-x="1331" 
d="M664 -31q-77 0 -147.5 12.5t-135 41.5t-112 72t-75.5 108t-28 145q0 236 223 340q-182 106 -182 322q0 97 36.5 171t100.5 118.5t145 67t177 22.5h2q95 0 176.5 -22.5t145 -67t100 -118.5t36.5 -171q0 -216 -182 -322q223 -104 223 -340q0 -99 -42 -174.5t-114 -119
t-158 -64.5t-183 -21h-6zM279 356q0 -64 25 -114t63.5 -80.5t91.5 -50t103.5 -26.5t103.5 -7h2q53 0 103.5 7t103.5 26.5t91.5 50t63.5 80.5t25 114t-25 114t-64 80.5t-92 51t-103.5 28t-102.5 7.5q-53 0 -104 -7.5t-103.5 -28t-92 -51t-64.5 -80.5t-25 -114zM322 1004
q0 -74 29.5 -130t80 -87.5t109.5 -46.5t125 -15h2q66 0 125 15t109.5 46.5t80 87.5t29.5 130q0 75 -29.5 131t-79.5 88t-109 47.5t-126 15.5h-2q-67 0 -126 -15.5t-109 -47.5t-79.5 -88t-29.5 -131z" />
    <glyph glyph-name="nine" unicode="9" horiz-adv-x="1337" 
d="M645 1395q122 0 219 -35.5t161.5 -97t107 -151t61 -192t18.5 -223.5q0 -119 -17.5 -222t-58.5 -196t-103 -159t-157.5 -105t-216.5 -39q-108 0 -201 28.5t-166.5 96t-94.5 166.5h116q21 -51 62.5 -89t92 -59t101.5 -30.5t101 -9.5q67 0 125 18t101 50t79 76t59.5 94.5
t41.5 106t24.5 112t10 111t-2.5 102.5q-91 -90 -224 -132.5t-251 -42.5q-98 0 -187.5 26t-161.5 75.5t-114.5 129t-42.5 177.5q0 105 42.5 186.5t116.5 130t164.5 73t194.5 24.5zM246 973q0 -82 37 -144t98.5 -95.5t128.5 -49.5t139 -16q114 0 229 48t214 130l-2 12
q-16 98 -46.5 173t-81 134t-128.5 90t-181 31q-57 0 -112 -9.5t-109.5 -33t-95 -58t-65.5 -89.5t-25 -123z" />
    <glyph glyph-name="colon" unicode=":" horiz-adv-x="514" 
d="M254 -31q-43 0 -65.5 29t-22.5 80q0 50 23 78t65 28q47 0 71.5 -28t24.5 -78q0 -52 -24.5 -80.5t-71.5 -28.5zM166 987q0 51 22.5 80t65.5 29q47 0 71.5 -28.5t24.5 -80.5q0 -48 -25 -76t-71 -28q-42 0 -65 28t-23 76z" />
    <glyph glyph-name="semicolon" unicode=";" horiz-adv-x="514" 
d="M258 184q92 0 92 -129q0 -173 -102 -309l20 45q7 22 20.5 67t20.5 66l6 23l-22 6q-8 3 -27 8t-28 8q-42 18 -57 38t-15 65q0 112 92 112zM166 987q0 51 22.5 80t65.5 29q47 0 71.5 -28.5t24.5 -80.5q0 -48 -25 -76t-71 -28q-42 0 -65 28t-23 76z" />
    <glyph glyph-name="less" unicode="&#x3c;" horiz-adv-x="776" 
d="M29 655l682 336v-114l-463 -222l463 -221v-115z" />
    <glyph glyph-name="equal" unicode="=" horiz-adv-x="1323" 
d="M1135 1036v-92h-945v92h945zM190 326v92h945v-92h-945z" />
    <glyph glyph-name="greater" unicode="&#x3e;" horiz-adv-x="800" 
d="M59 877v114l682 -336l-682 -336v115l463 221z" />
    <glyph glyph-name="question" unicode="?" horiz-adv-x="1406" 
d="M127 1083q24 84 89.5 146.5t155 95.5t180 48.5t183.5 15.5q84 0 159.5 -12t147.5 -41.5t124.5 -74t84 -114t31.5 -156.5q0 -61 -16 -110t-41.5 -83t-66.5 -60t-82 -41t-97.5 -25.5t-104.5 -15t-110 -7.5l-14 -2l-31 -104h-41q-30 84 -33 200q53 0 89.5 1t97.5 6.5
t103.5 15t92.5 29t81 47t52 70t21 96.5q0 50 -17.5 92.5t-46.5 72t-69.5 52t-82 36t-88.5 22.5t-85.5 12t-75.5 3q-63 0 -128.5 -9t-140 -31t-133.5 -67t-84 -108h-104zM606 78q0 48 24.5 77t67.5 29q45 0 69 -28t24 -78q0 -52 -24 -80.5t-69 -28.5t-68.5 29t-23.5 80z" />
    <glyph glyph-name="at" unicode="@" horiz-adv-x="2091" 
d="M127 692q0 217 62.5 401t178.5 318.5t292 210.5t393 76q187 0 350.5 -55.5t286 -158t193.5 -259t71 -348.5q0 -132 -35 -245.5t-101.5 -199.5t-170.5 -135t-234 -49q-53 0 -73.5 29.5t-20.5 111.5l-51 -31q-112 -69 -230 -69q-161 0 -267.5 110t-106.5 275t106 275
t268 110q91 0 158 -24.5t133 -108.5l-8 100h109v-698l28 8q195 57 287 184.5t92 337.5q0 167 -62 309t-169 237t-251 148.5t-306 53.5q-153 0 -284 -48t-226 -133t-162 -200t-100 -251t-33 -284q0 -206 65.5 -380.5t183.5 -298t289 -192.5t375 -69q249 0 432 82l37 -63
q-186 -107 -489 -107q-227 0 -415.5 75t-319.5 209.5t-203 326t-72 419.5zM780 676q0 -119 79 -209t196 -90q116 0 196 91t80 208q0 116 -78.5 205.5t-195.5 89.5q-116 0 -196.5 -89t-80.5 -206z" />
    <glyph glyph-name="A" unicode="A" horiz-adv-x="1458" 
d="M180 0h-104l586 1370h102l618 -1370h-106l-164 387h-770zM367 463h723l-373 815z" />
    <glyph glyph-name="B" unicode="B" horiz-adv-x="1550" 
d="M1028 1360q135 0 227.5 -99.5t92.5 -252.5q0 -115 -34.5 -185.5t-107.5 -126.5q72 -22 117.5 -78t61.5 -120t16 -142q0 -163 -83 -259.5t-237 -96.5h-891v1360h838zM291 92h790q115 0 174.5 75.5t59.5 190.5q0 72 -23.5 133.5t-78 103.5t-132.5 42h-790v-545zM291 725
h737q114 0 171.5 76t57.5 190q0 112 -58.5 194.5t-170.5 82.5h-737v-543z" />
    <glyph glyph-name="C" unicode="C" horiz-adv-x="1501" 
d="M762 78q176 0 311 102t191 269h110q-61 -218 -223.5 -349t-386.5 -131q-190 0 -337 98t-223.5 258.5t-76.5 354.5q0 143 45 272t126 226t202 154t264 57q224 0 386.5 -130t223.5 -348h-110q-57 168 -192 271.5t-310 103.5q-120 0 -222.5 -52t-169 -137.5t-104 -193
t-37.5 -221.5q0 -115 37.5 -223t104 -193t169 -136.5t222.5 -51.5z" />
    <glyph glyph-name="D" unicode="D" horiz-adv-x="1566" 
d="M803 1360q187 0 333.5 -90t225 -244t78.5 -344t-78.5 -345t-225 -246t-333.5 -91h-613v1360h613zM291 92h512q120 0 223.5 48.5t173 129.5t109 187.5t39.5 222.5q0 114 -39.5 220.5t-109 188t-173 130.5t-223.5 49h-512v-1176z" />
    <glyph glyph-name="E" unicode="E" horiz-adv-x="1536" 
d="M1384 1360v-92h-1093v-543h815v-88h-815v-545h1093v-92h-1194v1360h1194z" />
    <glyph glyph-name="F" unicode="F" horiz-adv-x="1484" 
d="M1358 1360v-92h-1067v-543h786v-88h-786v-637h-101v1360h1168z" />
    <glyph glyph-name="G" unicode="G" 
d="M764 78q145 0 262 71t185 187t85 258l2 24h-442v93h549q0 -6 1 -16t1 -15q0 -144 -45 -273.5t-126.5 -226.5t-203.5 -154t-266 -57t-265 56.5t-202.5 153.5t-126.5 226.5t-45 274.5q0 142 44.5 270.5t124.5 226t200.5 155t263.5 57.5q169 0 312 -79.5t231 -222.5l-138 -2
q-74 95 -179.5 148t-225.5 53t-221.5 -52t-167 -137.5t-102 -193t-36.5 -221.5q0 -116 36.5 -224t103 -193t168.5 -136t223 -51z" />
    <glyph glyph-name="H" unicode="H" horiz-adv-x="1601" 
d="M291 1360v-635h1024v635h98v-1360h-98v637h-1024v-637h-101v1360h101z" />
    <glyph glyph-name="I" unicode="I" horiz-adv-x="479" 
d="M190 0v1360h101v-1360h-101z" />
    <glyph glyph-name="J" unicode="J" horiz-adv-x="1267" 
d="M604 66q111 0 198 63t131 160.5t44 206.5v864h100v-864q0 -142 -56.5 -261.5t-165.5 -192.5t-249 -73q-186 0 -313 121t-154 309h105q28 -141 124.5 -237t235.5 -96z" />
    <glyph glyph-name="K" unicode="K" horiz-adv-x="1439" 
d="M291 1360v-877l880 877h136l-547 -545l594 -815h-121l-539 750l-403 -398v-352h-101v1360h101z" />
    <glyph glyph-name="L" unicode="L" horiz-adv-x="1236" 
d="M190 1360h101v-1268h844v-92h-945v1360z" />
    <glyph glyph-name="M" unicode="M" horiz-adv-x="1601" 
d="M307 1360l498 -670l491 670h117v-1360h-98v1241l-469 -643h-92l-463 645v-1243h-101v1360h117z" />
    <glyph glyph-name="N" unicode="N" horiz-adv-x="1601" 
d="M311 1360l1004 -1227v1227h98v-1360h-123l-999 1229v-1229h-101v1360h121z" />
    <glyph glyph-name="O" unicode="O" 
d="M764 -31q-190 0 -337 98t-223.5 258.5t-76.5 354.5q0 143 45 272t126 226t202 154t264 57q116 0 218 -36.5t179 -102.5t133 -154t84.5 -194.5t28.5 -221.5q0 -116 -28.5 -222.5t-84.5 -195t-133 -154.5t-179 -102.5t-218 -36.5zM242 682q0 -116 35.5 -224t100 -193
t165 -136t221.5 -51q122 0 224 50.5t168 135t102 192t36 224.5q0 92 -22.5 180t-67.5 165t-107 135.5t-148 92t-185 33.5q-97 0 -181.5 -33.5t-146 -92t-106 -135t-66.5 -164.5t-22 -179z" />
    <glyph glyph-name="P" unicode="P" horiz-adv-x="1552" 
d="M1112 1360q154 0 241 -102.5t87 -264.5q0 -159 -86.5 -257.5t-241.5 -98.5h-821v-637h-101v1360h922zM291 725h821q115 0 176.5 77t61.5 189q0 111 -62 194t-176 83h-821v-543z" />
    <glyph glyph-name="Q" unicode="Q" horiz-adv-x="1519" 
d="M764 1389q116 0 218 -36.5t179 -102.5t133 -154t84.5 -194.5t28.5 -221.5q0 -278 -147 -469l135 -152l-78 -67l-127 141q-175 -164 -426 -164q-190 0 -337 98t-223.5 258.5t-76.5 354.5q0 143 45 272t126 226t202 154t264 57zM242 682q0 -116 35.5 -224t100 -193
t165 -136t221.5 -51q206 0 350 141l-246 275l76 71l238 -266q112 165 112 381q0 92 -22.5 180t-67.5 165t-107 135.5t-148 92t-185 33.5q-97 0 -181.5 -33.5t-146 -92t-106 -135t-66.5 -164.5t-22 -179z" />
    <glyph glyph-name="R" unicode="R" horiz-adv-x="1576" 
d="M190 0v1360h922q154 0 241 -102.5t87 -264.5q0 -149 -73.5 -248t-213.5 -106l-96 -8h-35l352 -631h-110l-351 637h-622v-637h-101zM291 725h821q114 0 170.5 76t56.5 190q0 72 -22 132.5t-75 102.5t-130 42h-821v-543z" />
    <glyph glyph-name="S" unicode="S" horiz-adv-x="1404" 
d="M147 997q0 85 32.5 152t85.5 109.5t126 70.5t149 39.5t160 11.5q72 0 138 -8.5t133.5 -29.5t119 -53.5t90 -85.5t50.5 -120h-92q-10 61 -61.5 106t-125.5 67t-141.5 32t-130.5 10q-53 0 -109 -8.5t-117 -30t-108.5 -54t-78.5 -86.5t-31 -122q0 -35 9 -64.5t22.5 -52
t38 -41t45.5 -31t54.5 -22.5t56.5 -16t61 -11t58 -7t56.5 -5t48.5 -4q22 -2 67 -7q74 -8 112 -12.5t103 -16.5t100 -26.5t80 -41t68 -60.5t39.5 -84.5t16.5 -113.5q0 -90 -32.5 -160.5t-86 -114.5t-128 -73.5t-152 -41t-164.5 -11.5q-73 0 -141.5 8t-142 29t-131 53.5
t-103 86t-64.5 122.5h104q25 -63 82.5 -108.5t130 -68t138 -32t127.5 -9.5q47 0 95.5 5.5t104 18t102.5 36t86.5 56t62 82t22.5 110.5q0 70 -25 119t-54.5 75.5t-101 45t-114.5 24t-145 14.5q-28 3 -42 4q-201 19 -264 31q-186 38 -250 147q-39 67 -39 168z" />
    <glyph glyph-name="T" unicode="T" horiz-adv-x="1425" 
d="M1325 1360v-92h-563v-1268h-100v1268h-562v92h1225z" />
    <glyph glyph-name="U" unicode="U" horiz-adv-x="1546" 
d="M190 1360h101v-711q0 -109 32 -211t91 -184t152.5 -132t207.5 -50q113 0 206.5 50t153 132.5t91.5 184.5t32 210v711h101v-711q0 -134 -40 -256t-113 -216.5t-185 -151t-246 -56.5t-245.5 56.5t-184.5 151t-113.5 217t-40.5 255.5v711z" />
    <glyph glyph-name="V" unicode="V" horiz-adv-x="1458" 
d="M180 1370l541 -1286l555 1286h106l-591 -1370h-142l-573 1370h104z" />
    <glyph glyph-name="W" unicode="W" horiz-adv-x="1654" 
d="M346 94l408 1016h137l436 -1016l137 1266h90l-145 -1360h-154l-430 1012l-419 -1012h-154l-152 1360h95z" />
    <glyph glyph-name="X" unicode="X" horiz-adv-x="1304" 
d="M221 1360l434 -574l435 574h120l-497 -647l540 -713h-137l-477 637l-475 -637h-113l533 709l-490 651h127z" />
    <glyph glyph-name="Y" unicode="Y" horiz-adv-x="1241" 
d="M621 582l452 778h117l-518 -885v-475h-103v475l-518 885h111z" />
    <glyph glyph-name="Z" unicode="Z" horiz-adv-x="1497" 
d="M1210 1268h-1032v92h1143v-117l-1061 -1151h1086v-92h-1194v115z" />
    <glyph glyph-name="bracketleft" unicode="[" horiz-adv-x="618" 
d="M502 1667v-90h-211v-1794h211v-92h-312v1976h312z" />
    <glyph glyph-name="backslash" unicode="\" horiz-adv-x="1034" 
d="M100 1505l68 37l766 -1687l-66 -37z" />
    <glyph glyph-name="bracketright" unicode="]" horiz-adv-x="620" 
d="M115 -217h209l2 1794h-211v90h313v-1976h-311z" />
    <glyph glyph-name="asciicircum" unicode="^" horiz-adv-x="532" 
d="M117 1090l106 229h119l107 -229h-62l-104 180l-103 -180h-63z" />
    <glyph glyph-name="underscore" unicode="_" horiz-adv-x="1181" 
d="M190 -295v90h801v-90h-801z" />
    <glyph glyph-name="grave" unicode="`" horiz-adv-x="524" 
d="M72 1317h114l107 -232h-60z" />
    <glyph glyph-name="a" unicode="a" horiz-adv-x="1458" 
d="M180 0h-104l586 1370h102l618 -1370h-106l-164 387h-770zM367 463h723l-373 815z" />
    <glyph glyph-name="b" unicode="b" horiz-adv-x="1550" 
d="M1028 1360q135 0 227.5 -99.5t92.5 -252.5q0 -115 -34.5 -185.5t-107.5 -126.5q72 -22 117.5 -78t61.5 -120t16 -142q0 -163 -83 -259.5t-237 -96.5h-891v1360h838zM291 92h790q115 0 174.5 75.5t59.5 190.5q0 72 -23.5 133.5t-78 103.5t-132.5 42h-790v-545zM291 725
h737q114 0 171.5 76t57.5 190q0 112 -58.5 194.5t-170.5 82.5h-737v-543z" />
    <glyph glyph-name="c" unicode="c" horiz-adv-x="1501" 
d="M762 78q176 0 311 102t191 269h110q-61 -218 -223.5 -349t-386.5 -131q-190 0 -337 98t-223.5 258.5t-76.5 354.5q0 143 45 272t126 226t202 154t264 57q224 0 386.5 -130t223.5 -348h-110q-57 168 -192 271.5t-310 103.5q-120 0 -222.5 -52t-169 -137.5t-104 -193
t-37.5 -221.5q0 -115 37.5 -223t104 -193t169 -136.5t222.5 -51.5z" />
    <glyph glyph-name="d" unicode="d" horiz-adv-x="1566" 
d="M803 1360q187 0 333.5 -90t225 -244t78.5 -344t-78.5 -345t-225 -246t-333.5 -91h-613v1360h613zM291 92h512q120 0 223.5 48.5t173 129.5t109 187.5t39.5 222.5q0 114 -39.5 220.5t-109 188t-173 130.5t-223.5 49h-512v-1176z" />
    <glyph glyph-name="e" unicode="e" horiz-adv-x="1536" 
d="M1384 1360v-92h-1093v-543h815v-88h-815v-545h1093v-92h-1194v1360h1194z" />
    <glyph glyph-name="f" unicode="f" horiz-adv-x="1484" 
d="M1358 1360v-92h-1067v-543h786v-88h-786v-637h-101v1360h1168z" />
    <glyph glyph-name="g" unicode="g" 
d="M764 78q145 0 262 71t185 187t85 258l2 24h-442v93h549q0 -6 1 -16t1 -15q0 -144 -45 -273.5t-126.5 -226.5t-203.5 -154t-266 -57t-265 56.5t-202.5 153.5t-126.5 226.5t-45 274.5q0 142 44.5 270.5t124.5 226t200.5 155t263.5 57.5q169 0 312 -79.5t231 -222.5l-138 -2
q-74 95 -179.5 148t-225.5 53t-221.5 -52t-167 -137.5t-102 -193t-36.5 -221.5q0 -116 36.5 -224t103 -193t168.5 -136t223 -51z" />
    <glyph glyph-name="h" unicode="h" horiz-adv-x="1601" 
d="M291 1360v-635h1024v635h98v-1360h-98v637h-1024v-637h-101v1360h101z" />
    <glyph glyph-name="i" unicode="i" horiz-adv-x="479" 
d="M190 0v1360h101v-1360h-101z" />
    <glyph glyph-name="j" unicode="j" horiz-adv-x="1292" 
d="M604 66q111 0 198 63t131 160.5t44 206.5v864h100v-864q0 -142 -56.5 -261.5t-165.5 -192.5t-249 -73q-186 0 -313 121t-154 309h105q28 -141 124.5 -237t235.5 -96z" />
    <glyph glyph-name="k" unicode="k" horiz-adv-x="1439" 
d="M291 1360v-877l880 877h136l-547 -545l594 -815h-121l-539 750l-403 -398v-352h-101v1360h101z" />
    <glyph glyph-name="l" unicode="l" horiz-adv-x="1236" 
d="M190 1360h101v-1268h844v-92h-945v1360z" />
    <glyph glyph-name="m" unicode="m" horiz-adv-x="1601" 
d="M307 1360l498 -670l491 670h117v-1360h-98v1241l-469 -643h-92l-463 645v-1243h-101v1360h117z" />
    <glyph glyph-name="n" unicode="n" horiz-adv-x="1601" 
d="M311 1360l1004 -1227v1227h98v-1360h-123l-999 1229v-1229h-101v1360h121z" />
    <glyph glyph-name="o" unicode="o" 
d="M764 -31q-190 0 -337 98t-223.5 258.5t-76.5 354.5q0 143 45 272t126 226t202 154t264 57q116 0 218 -36.5t179 -102.5t133 -154t84.5 -194.5t28.5 -221.5q0 -116 -28.5 -222.5t-84.5 -195t-133 -154.5t-179 -102.5t-218 -36.5zM244 682q0 -116 35 -224t99 -193
t164.5 -136t221.5 -51q122 0 223.5 50.5t167 135t101.5 192t36 224.5q0 116 -35.5 223.5t-101 193.5t-167.5 137.5t-224 51.5q-120 0 -220.5 -51.5t-164.5 -137t-99.5 -193t-35.5 -222.5z" />
    <glyph glyph-name="p" unicode="p" horiz-adv-x="1566" 
d="M1112 1360q154 0 241 -102.5t87 -264.5q0 -159 -86.5 -257.5t-241.5 -98.5h-821v-637h-101v1360h922zM291 725h821q115 0 176.5 77t61.5 189q0 111 -62 194t-176 83h-821v-543z" />
    <glyph glyph-name="q" unicode="q" horiz-adv-x="1519" 
d="M764 1389q116 0 218 -36.5t179 -102.5t133 -154t84.5 -194.5t28.5 -221.5q0 -278 -147 -469l135 -152l-78 -67l-127 141q-175 -164 -426 -164q-190 0 -337 98t-223.5 258.5t-76.5 354.5q0 143 45 272t126 226t202 154t264 57zM242 682q0 -116 35.5 -224t100 -193
t165 -136t221.5 -51q206 0 350 141l-246 275l76 71l238 -266q112 165 112 381q0 92 -22.5 180t-67.5 165t-107 135.5t-148 92t-185 33.5q-97 0 -181.5 -33.5t-146 -92t-106 -135t-66.5 -164.5t-22 -179z" />
    <glyph glyph-name="r" unicode="r" horiz-adv-x="1576" 
d="M190 0v1360h922q154 0 241 -102.5t87 -264.5q0 -149 -73.5 -248t-213.5 -106l-96 -8h-35l352 -631h-110l-351 637h-622v-637h-101zM291 725h821q114 0 170.5 76t56.5 190q0 72 -22 132.5t-75 102.5t-130 42h-821v-543z" />
    <glyph glyph-name="s" unicode="s" horiz-adv-x="1404" 
d="M147 997q0 85 32.5 152t85.5 109.5t126 70.5t149 39.5t160 11.5q72 0 138 -8.5t133.5 -29.5t119 -53.5t90 -85.5t50.5 -120h-92q-10 61 -61.5 106t-125.5 67t-141.5 32t-130.5 10q-53 0 -109 -8.5t-117 -30t-108.5 -54t-78.5 -86.5t-31 -122q0 -35 9 -64.5t22.5 -52
t38 -41t45.5 -31t54.5 -22.5t56.5 -16t61 -11t58 -7t56.5 -5t48.5 -4q22 -2 67 -7q74 -8 112 -12.5t103 -16.5t100 -26.5t80 -41t68 -60.5t39.5 -84.5t16.5 -113.5q0 -90 -32.5 -160.5t-86 -114.5t-128 -73.5t-152 -41t-164.5 -11.5q-73 0 -141.5 8t-142 29t-131 53.5
t-103 86t-64.5 122.5h104q25 -63 82.5 -108.5t130 -68t138 -32t127.5 -9.5q47 0 95.5 5.5t104 18t102.5 36t86.5 56t62 82t22.5 110.5q0 70 -25 119t-54.5 75.5t-101 45t-114.5 24t-145 14.5q-28 3 -42 4q-201 19 -264 31q-186 38 -250 147q-39 67 -39 168z" />
    <glyph glyph-name="t" unicode="t" horiz-adv-x="1425" 
d="M1325 1360v-92h-563v-1268h-100v1268h-562v92h1225z" />
    <glyph glyph-name="u" unicode="u" horiz-adv-x="1546" 
d="M190 1360h101v-711q0 -109 32 -211t91 -184t152.5 -132t207.5 -50q113 0 206.5 50t153 132.5t91.5 184.5t32 210v711h101v-711q0 -134 -40 -256t-113 -216.5t-185 -151t-246 -56.5t-245.5 56.5t-184.5 151t-113.5 217t-40.5 255.5v711z" />
    <glyph glyph-name="v" unicode="v" horiz-adv-x="1458" 
d="M180 1370l541 -1286l555 1286h106l-591 -1370h-142l-573 1370h104z" />
    <glyph glyph-name="w" unicode="w" horiz-adv-x="1654" 
d="M346 94l408 1016h137l436 -1016l137 1266h90l-145 -1360h-154l-430 1012l-419 -1012h-154l-152 1360h95z" />
    <glyph glyph-name="x" unicode="x" horiz-adv-x="1376" 
d="M238 1360l454 -584l447 584h121l-512 -651l552 -709h-118l-500 637l-485 -637h-121l551 709l-508 651h119z" />
    <glyph glyph-name="y" unicode="y" horiz-adv-x="1290" 
d="M621 582l452 778h117l-518 -885v-475h-103v475l-518 885h111z" />
    <glyph glyph-name="z" unicode="z" horiz-adv-x="1497" 
d="M1210 1268h-1032v92h1143v-117l-1061 -1151h1086v-92h-1194v115z" />
    <glyph glyph-name="braceleft" unicode="{" horiz-adv-x="698" 
d="M63 727q95 7 153 78t58 170v323q0 159 81.5 260.5t228.5 108.5v-90q-93 -9 -153 -74.5t-60 -161.5v-303q0 -187 -121 -280l-107 -78l107 -76q121 -89 121 -280v-308q0 -95 60 -160t153 -73v-92q-147 9 -228.5 111.5t-81.5 260.5v324q0 96 -57.5 167.5t-150.5 80.5z" />
    <glyph glyph-name="bar" unicode="|" horiz-adv-x="479" 
d="M190 -309v1978h101v-1978h-101z" />
    <glyph glyph-name="braceright" unicode="}" horiz-adv-x="698" 
d="M115 1667q148 -7 230.5 -108.5t82.5 -260.5v-323q0 -99 56 -170t151 -78l2 -92q-95 -9 -152 -80t-57 -168v-324q0 -159 -82 -261t-231 -111v92q93 7 151 72t58 161v308q0 84 33 160t96 120q72 52 82 58l26 18l-26 16q-56 39 -89.5 68.5t-64 70t-44 90t-13.5 113.5v303
q0 97 -57.5 162t-151.5 74v90z" />
    <glyph glyph-name="asciitilde" unicode="~" horiz-adv-x="509" 
d="M162 1280q32 0 65 -26.5t60.5 -53t44.5 -26.5q12 0 28.5 11t28 23.5t31.5 35.5t29 32v-55q-8 -8 -26 -28t-27 -28t-26.5 -16t-37.5 -8q-29 0 -60 25t-60 50t-54 25q-16 0 -33.5 -15t-41 -41t-40.5 -40v51q13 11 36.5 37.5t40.5 36.5t42 10z" />
    <glyph glyph-name="exclamdown" unicode="&#xa1;" horiz-adv-x="514" 
d="M207 184q0 406 41 762h18q41 -413 41 -762v-215h-100v215zM166 1251q0 49 22.5 79t65.5 30q46 0 71 -29t25 -80q0 -50 -24.5 -78t-71.5 -28q-42 0 -65 28t-23 78z" />
    <glyph glyph-name="cent" unicode="&#xa2;" horiz-adv-x="1075" 
d="M471 150q-193 31 -305.5 173.5t-112.5 356.5q0 215 112 357t306 173l8 4v435h68v-428l12 -2q337 -44 430 -347h-74q-40 120 -122.5 187.5t-229.5 99.5l-16 2v-958l16 2q146 29 229 97t123 190h74q-94 -308 -430 -349l-12 -2v-442h-68v448zM117 680q0 -164 78.5 -287
t214.5 -172q11 -1 36 -10l33 -10v958l-33 -10q-163 -55 -246 -174.5t-83 -294.5z" />
    <glyph glyph-name="sterling" unicode="&#xa3;" horiz-adv-x="1107" 
d="M63 713v71h199l-8 27q-66 208 -66 317q0 190 104.5 309t289.5 119q136 0 238.5 -80.5t137.5 -213.5l-108 -21q-31 100 -98.5 160.5t-169.5 60.5q-135 0 -214 -95.5t-79 -231.5q0 -129 78 -336l6 -15h299v-71h-277v-90q0 -86 -5.5 -137.5t-27 -103t-50 -92t-87.5 -112.5
l-37 -43l58 8q25 2 71 2q193 0 308 -34l84 -25q54 -8 86 -8q57 0 166 33l47 -107q-100 -35 -177 -35q-11 0 -23.5 1t-22.5 1.5t-24 3.5t-22 4t-24 5l-22 5.5t-24 6.5t-22 6t-24.5 7t-22.5 7q-156 54 -246 54q-108 0 -225 -62l-47 117q93 85 150 194t57 228q0 50 -21 149
l-6 17h-199z" />
    <glyph glyph-name="yen" unicode="&#xa5;" horiz-adv-x="1011" 
d="M436 377v315h-373v62h310l-310 692h107l311 -719l320 719h108l-311 -692h311v-62h-374v-315h374v-60h-374v-297h-99v297h-373v60h373z" />
    <glyph glyph-name="section" unicode="&#xa7;" horiz-adv-x="1032" 
d="M156 186q19 -42 62.5 -72.5t98 -45t103 -21t96.5 -6.5q35 0 71 3.5t77.5 11.5t77.5 24t66 38t47 55.5t17 74.5q0 44 -17.5 76t-43.5 51t-69.5 31t-82.5 17.5t-94 8.5q-199 14 -248 23q-127 20 -186 82q-27 30 -35 57t-8 74q0 171 201 233l18 6l-18 2q-102 23 -156.5 70.5
t-54.5 142.5q0 61 28.5 108.5t71.5 75.5t102 45.5t113 24t111 6.5q66 0 124.5 -8t121.5 -28t106.5 -62.5t56.5 -103.5h-79q-7 43 -47.5 73.5t-98.5 44.5t-106.5 19.5t-92.5 5.5q-50 0 -103.5 -10t-108 -31t-89 -62.5t-34.5 -97.5q0 -32 11 -57t33.5 -41.5t44.5 -28t56 -18.5
t55 -10t54 -6q85 -10 145 -13q50 -4 85.5 -8t79.5 -12.5t74.5 -19t61.5 -29t49.5 -41.5t30.5 -56.5t12 -74.5q0 -164 -180 -234l-12 -4l12 -4q90 -23 138 -73t48 -138q0 -54 -19.5 -97.5t-54 -72t-76.5 -49t-93 -31.5t-97.5 -15.5t-95.5 -4.5q-68 0 -130 8t-129.5 28
t-117 62.5t-69.5 103.5h86zM162 668q0 -43 21 -74t60 -47.5t70 -23.5t76 -13q133 -14 174 -14q66 0 132.5 19.5t118.5 67.5t52 115q0 44 -29 77t-70.5 50.5t-96.5 28t-95 13.5t-79 3q-50 0 -102.5 -9.5t-107.5 -30.5t-89.5 -63t-34.5 -99z" />
    <glyph glyph-name="dieresis" unicode="&#xa8;" horiz-adv-x="524" 
d="M369 1266q77 0 77 -74q0 -76 -77 -76q-36 0 -55 20.5t-19 55.5q0 34 19.5 54t54.5 20zM51 1192q0 76 70 76q39 0 60.5 -20t21.5 -56q0 -34 -21.5 -53t-60.5 -19q-70 0 -70 72z" />
    <glyph glyph-name="copyright" unicode="&#xa9;" horiz-adv-x="1708" 
d="M819 55q-175 0 -323.5 86t-235 234t-86.5 323t86.5 323.5t235 235t323.5 86.5t323.5 -86.5t235 -235t86.5 -323.5t-86.5 -323t-235 -234t-323.5 -86zM262 694q0 -153 74 -282.5t202.5 -205t280.5 -75.5q151 0 279.5 75.5t203 205t74.5 282.5q0 115 -44 220t-119 180.5
t-178 120.5t-216 45q-114 0 -217 -45t-177.5 -120.5t-118.5 -180.5t-44 -220zM498 698q0 149 89.5 249t233.5 100q117 0 203 -72t111 -189h-99q-22 76 -78.5 122t-136.5 46q-104 0 -166.5 -75.5t-62.5 -180.5q0 -103 62.5 -178.5t166.5 -75.5q78 0 135.5 47t79.5 123h99
q-25 -117 -110 -188.5t-204 -71.5q-144 0 -233.5 98.5t-89.5 245.5z" />
    <glyph glyph-name="ordfeminine" unicode="&#xaa;" horiz-adv-x="626" 
d="M100 1395h-69l245 579h58l262 -579h-72l-65 155h-293zM186 1606h250l-127 284z" />
    <glyph glyph-name="guillemotleft" unicode="&#xab;" horiz-adv-x="759" 
d="M29 733l450 258v-88l-307 -170l307 -168v-90z" />
    <glyph glyph-name="registered" unicode="&#xae;" horiz-adv-x="1546" 
d="M174 698q0 175 86.5 323.5t235 235t323.5 86.5t323.5 -86.5t235 -235t86.5 -323.5t-86.5 -323t-235 -234t-323.5 -86t-323.5 86t-235 234t-86.5 323zM262 694q0 -153 74 -282.5t202.5 -205t280.5 -75.5q151 0 279.5 75.5t203 205t74.5 282.5q0 115 -44 220t-119 180.5
t-178 120.5t-216 45q-114 0 -217 -45t-177.5 -120.5t-118.5 -180.5t-44 -220zM565 414v569h391q68 0 109 -44.5t41 -115.5q0 -64 -34.5 -106.5t-94.5 -48.5l-37 -4l21 -29q42 -67 129 -221h-80l-144 252h-229v-252h-72zM637 733h319q37 0 58.5 24.5t21.5 59.5v19
q0 34 -22 56.5t-58 22.5h-319v-182z" />
    <glyph glyph-name="macron" unicode="&#xaf;" horiz-adv-x="641" 
d="M94 1161v90h389v-90h-389z" />
    <glyph glyph-name="degree" unicode="&#xb0;" horiz-adv-x="284" 
d="M141 0q-52 0 -81 32t-29 85q0 51 29.5 82.5t80.5 31.5q52 0 81.5 -30.5t29.5 -83.5t-29.5 -85t-81.5 -32zM74 115q0 -13 4.5 -26.5t20.5 -26.5t42 -13q38 0 52 21.5t14 46.5t-14 45t-52 20q-67 0 -67 -67z" />
    <glyph glyph-name="acute" unicode="&#xb4;" horiz-adv-x="524" 
d="M178 1319h115l-160 -232h-61z" />
    <glyph glyph-name="periodcentered" unicode="&#xb7;" horiz-adv-x="522" 
d="M166 993q0 50 23 78.5t65 28.5q47 0 71.5 -28.5t24.5 -78.5t-25 -79t-71 -29q-43 0 -65.5 29.5t-22.5 78.5z" />
    <glyph glyph-name="cedilla" unicode="&#xb8;" horiz-adv-x="567" 
d="M98 -229h62l2 -2q24 -82 131 -82q52 0 87.5 24.5t35.5 73.5q0 28 -12 46t-35 26.5t-44.5 11t-50.5 2.5h-26l2 6q22 58 37 98v2h45l-8 -40q75 -8 113 -40.5t38 -107.5q0 -80 -49 -123t-129 -43q-77 0 -130.5 35.5t-66.5 108.5z" />
    <glyph glyph-name="ordmasculine" unicode="&#xba;" horiz-adv-x="641" 
d="M319 1378q-122 0 -195 87t-73 212q0 126 73 213.5t195 87.5t196.5 -87.5t74.5 -213.5t-74.5 -212.5t-196.5 -86.5zM121 1677q0 -93 53 -161t145 -68q91 0 145 68t54 161t-54 162.5t-145 69.5q-90 0 -144 -70t-54 -162z" />
    <glyph glyph-name="guillemotright" unicode="&#xbb;" horiz-adv-x="794" 
d="M293 903v88l450 -258l-450 -258v90l305 168z" />
    <glyph glyph-name="questiondown" unicode="&#xbf;" horiz-adv-x="1406" 
d="M225 352q0 -70 34 -124t84 -84.5t116 -50t121.5 -26t109.5 -6.5q63 0 129 9t140.5 31t134 67t84.5 108h104q-24 -85 -89.5 -147.5t-155.5 -96t-180 -48.5t-183 -15q-84 0 -160 12.5t-148 42t-124 74t-83.5 113.5t-31.5 156q0 61 16 110t41 83t66 60t82 41.5t97.5 26
t103.5 15.5t110 8l14 2l31 104h41q30 -84 33 -201q-54 0 -89.5 -1t-97 -6t-104 -15t-92.5 -29.5t-81 -46.5t-52 -69.5t-21 -96.5zM616 1280q0 52 24 80.5t71 28.5q45 0 67.5 -29t22.5 -80q0 -47 -24 -76.5t-66 -29.5q-46 0 -70.5 28.5t-24.5 77.5z" />
    <glyph glyph-name="Agrave" unicode="&#xc0;" horiz-adv-x="1458" 
d="M180 0h-104l586 1370h102l618 -1370h-106l-164 387h-770zM367 463h723l-373 815zM618 1806h115l107 -231h-60z" />
    <glyph glyph-name="Aacute" unicode="&#xc1;" horiz-adv-x="1458" 
d="M180 0h-104l586 1370h102l618 -1370h-106l-164 387h-770zM367 463h723l-373 815zM618 1577l107 231h115l-160 -231h-62z" />
    <glyph glyph-name="Acircumflex" unicode="&#xc2;" horiz-adv-x="1458" 
d="M76 0l586 1370h102l618 -1370h-106l-164 387h-770l-162 -387h-104zM367 463h723l-373 815zM565 1579l107 229h116l107 -229h-64l-102 180l-102 -180h-62z" />
    <glyph glyph-name="Atilde" unicode="&#xc3;" horiz-adv-x="1458" 
d="M76 0l586 1370h102l618 -1370h-106l-164 387h-770l-162 -387h-104zM367 463h723l-373 815zM528 1632v54q11 10 34.5 37t40 36.5t42.5 9.5q32 0 65 -26.5t60.5 -53t44.5 -26.5q16 0 33.5 13.5t47.5 47t38 41.5v-57q-9 -8 -27.5 -28t-28 -28t-27 -16t-36.5 -8q-23 0 -48 16
t-42.5 35.5t-40.5 35.5t-43 16q-16 0 -33.5 -16t-40.5 -42.5t-39 -40.5z" />
    <glyph glyph-name="Adieresis" unicode="&#xc4;" horiz-adv-x="1458" 
d="M662 1370h102l618 -1370h-106l-164 387h-770l-162 -387h-104zM367 463h723l-373 815zM530 1679q0 78 74 78q38 0 58 -20.5t20 -57.5q0 -71 -78 -71q-74 0 -74 71zM778 1679q0 74 74 74q37 0 57.5 -19.5t20.5 -54.5t-20.5 -55t-57.5 -20q-74 0 -74 75z" />
    <glyph glyph-name="Aring" unicode="&#xc5;" horiz-adv-x="1458" 
d="M662 1370h102l618 -1370h-106l-164 387h-770l-162 -387h-104zM367 463h723l-373 815zM618 1696q0 52 29.5 83t81.5 31q51 0 81 -31t30 -83q0 -53 -30 -85t-81 -32q-52 0 -81.5 32t-29.5 85zM662 1694q0 -24 15.5 -45t51.5 -21q66 0 66 68q0 13 -4 26t-20 26t-42 13
q-37 0 -52 -20.5t-15 -46.5z" />
    <glyph glyph-name="AE" unicode="&#xc6;" horiz-adv-x="1949" 
d="M76 0l586 1358l1249 2v-92h-1092v-543h813v-88h-813v-545h1092v-92h-1194v387h-375l-162 -387h-104zM367 463h350v815z" />
    <glyph glyph-name="Ccedilla" unicode="&#xc7;" horiz-adv-x="1501" 
d="M719 -29q-179 12 -315 112t-206.5 255.5t-70.5 341.5q0 143 45 272t126 226t202 154t264 57q224 0 386.5 -130t223.5 -348h-110q-57 168 -192 271.5t-310 103.5q-120 0 -222.5 -52t-169 -137.5t-104 -193t-37.5 -221.5q0 -115 37.5 -223t104 -193t169 -136.5t222.5 -51.5
q176 0 311 102t191 269h110q-61 -218 -223.5 -349t-386.5 -131l-6 -32q75 -8 112 -40.5t37 -107.5q0 -80 -48 -123t-128 -43q-77 0 -131.5 35.5t-67.5 108.5v4h62v-2q27 -82 131 -82q52 0 88.5 24.5t36.5 73.5q0 28 -12 46t-34.5 26.5t-44 11t-50.5 2.5h-27l2 6
q6 18 18.5 51t16.5 43z" />
    <glyph glyph-name="Egrave" unicode="&#xc8;" horiz-adv-x="1536" 
d="M190 1360h1194v-92h-1093v-543h815v-88h-815v-545h1093v-92h-1194v1360zM655 1806h117l107 -231h-62z" />
    <glyph glyph-name="Eacute" unicode="&#xc9;" horiz-adv-x="1536" 
d="M190 1360h1194v-92h-1093v-543h815v-88h-815v-545h1093v-92h-1194v1360zM655 1577l107 231h117l-162 -231h-62z" />
    <glyph glyph-name="Ecircumflex" unicode="&#xca;" horiz-adv-x="1536" 
d="M1384 1360v-92h-1093v-543h815v-88h-815v-545h1093v-92h-1194v1360h1194zM600 1579l107 229h116l107 -229h-62l-104 180l-100 -180h-64z" />
    <glyph glyph-name="Edieresis" unicode="&#xcb;" horiz-adv-x="1536" 
d="M1384 1360v-92h-1093v-543h815v-88h-815v-545h1093v-92h-1194v1360h1194zM567 1679q0 36 18 57t54 21q38 0 59 -20.5t21 -57.5q0 -34 -21 -52.5t-59 -18.5q-72 0 -72 71zM813 1679q0 35 19.5 54.5t54.5 19.5q78 0 78 -74q0 -36 -20 -55.5t-58 -19.5q-74 0 -74 75z" />
    <glyph glyph-name="Igrave" unicode="&#xcc;" horiz-adv-x="487" 
d="M295 1360v-1360h-100v1360h100zM133 1806h115l106 -231h-61z" />
    <glyph glyph-name="Iacute" unicode="&#xcd;" horiz-adv-x="487" 
d="M195 0v1360h100v-1360h-100zM133 1577l107 231h114l-159 -231h-62z" />
    <glyph glyph-name="Icircumflex" unicode="&#xce;" horiz-adv-x="495" 
d="M199 1360h100v-1360h-100v1360zM82 1579l106 229h119l107 -229h-62l-104 180l-103 -180h-63z" />
    <glyph glyph-name="Idieresis" unicode="&#xcf;" horiz-adv-x="495" 
d="M299 1360v-1360h-100v1360h100zM51 1679q0 78 70 78q39 0 60.5 -20.5t21.5 -57.5q0 -34 -21 -52.5t-61 -18.5q-70 0 -70 71zM295 1679q0 35 19.5 54.5t54.5 19.5q77 0 77 -74q0 -75 -77 -75q-36 0 -55 20t-19 55z" />
    <glyph glyph-name="Ntilde" unicode="&#xd1;" horiz-adv-x="1601" 
d="M190 1360h121l1004 -1227v1227h98v-1360h-123l-999 1229v-1229h-101v1360zM598 1632v54q12 11 29 29.5t27 28t26 17.5t35 8q32 0 65.5 -26.5t61.5 -53t45 -26.5q12 0 28.5 11t28 23.5t31.5 35.5t29 32v-57q-7 -7 -26 -27.5t-27.5 -28t-26.5 -16t-37 -8.5q-23 0 -48 16
t-42.5 35.5t-40.5 35.5t-43 16q-16 0 -34 -16t-41.5 -43t-39.5 -40z" />
    <glyph glyph-name="Ograve" unicode="&#xd2;" 
d="M764 -31q-190 0 -337 98t-223.5 258.5t-76.5 354.5q0 143 45 272t126 226t202 154t264 57q116 0 218 -36.5t179 -102.5t133 -154t84.5 -194.5t28.5 -221.5q0 -116 -28.5 -222.5t-84.5 -195t-133 -154.5t-179 -102.5t-218 -36.5zM242 682q0 -116 35.5 -224t100 -193
t165 -136t221.5 -51q122 0 224 50.5t168 135t102 192t36 224.5q0 92 -22.5 180t-67.5 165t-107 135.5t-148 92t-185 33.5q-97 0 -181.5 -33.5t-146 -92t-106 -135t-66.5 -164.5t-22 -179zM655 1806h117l105 -231h-60z" />
    <glyph glyph-name="Oacute" unicode="&#xd3;" 
d="M1407 680q0 -116 -28.5 -222.5t-84.5 -195t-133 -154.5t-179 -102.5t-218 -36.5q-190 0 -337 98t-223.5 258.5t-76.5 354.5q0 143 45 272t126 226t202 154t264 57q116 0 218 -36.5t179 -102.5t133 -154t84.5 -194.5t28.5 -221.5zM242 682q0 -116 35.5 -224t100 -193
t165 -136t221.5 -51q122 0 224 50.5t168 135t102 192t36 224.5q0 92 -22.5 180t-67.5 165t-107 135.5t-148 92t-185 33.5q-97 0 -181.5 -33.5t-146 -92t-106 -135t-66.5 -164.5t-22 -179zM655 1577l107 231h115l-160 -231h-62z" />
    <glyph glyph-name="Ocircumflex" unicode="&#xd4;" 
d="M764 -31q-190 0 -337 98t-223.5 258.5t-76.5 354.5q0 143 45 272t126 226t202 154t264 57q116 0 218 -36.5t179 -102.5t133 -154t84.5 -194.5t28.5 -221.5q0 -116 -28.5 -222.5t-84.5 -195t-133 -154.5t-179 -102.5t-218 -36.5zM242 682q0 -116 35.5 -224t100 -193
t165 -136t221.5 -51q122 0 224 50.5t168 135t102 192t36 224.5q0 92 -22.5 180t-67.5 165t-107 135.5t-148 92t-185 33.5q-97 0 -181.5 -33.5t-146 -92t-106 -135t-66.5 -164.5t-22 -179zM602 1579l107 229h116l107 -229h-62l-104 180l-100 -180h-64z" />
    <glyph glyph-name="Otilde" unicode="&#xd5;" 
d="M1407 680q0 -116 -28.5 -222.5t-84.5 -195t-133 -154.5t-179 -102.5t-218 -36.5q-190 0 -337 98t-223.5 258.5t-76.5 354.5q0 143 45 272t126 226t202 154t264 57q116 0 218 -36.5t179 -102.5t133 -154t84.5 -194.5t28.5 -221.5zM242 682q0 -116 35.5 -224t100 -193
t165 -136t221.5 -51q122 0 224 50.5t168 135t102 192t36 224.5q0 92 -22.5 180t-67.5 165t-107 135.5t-148 92t-185 33.5q-97 0 -181.5 -33.5t-146 -92t-106 -135t-66.5 -164.5t-22 -179zM563 1632v54q12 11 29 29.5t27 28t26 17.5t35 8q32 0 65.5 -26.5t61.5 -53t45 -26.5
q12 0 28.5 11t28 23.5t31.5 35.5t29 32v-57q-7 -7 -26 -27.5t-27.5 -28t-26.5 -16t-37 -8.5q-23 0 -48 16t-42.5 35.5t-40.5 35.5t-43 16q-16 0 -34 -16t-41.5 -43t-39.5 -40z" />
    <glyph glyph-name="Odieresis" unicode="&#xd6;" 
d="M1407 680q0 -116 -28.5 -222.5t-84.5 -195t-133 -154.5t-179 -102.5t-218 -36.5q-190 0 -337 98t-223.5 258.5t-76.5 354.5q0 143 45 272t126 226t202 154t264 57q116 0 218 -36.5t179 -102.5t133 -154t84.5 -194.5t28.5 -221.5zM242 682q0 -116 35.5 -224t100 -193
t165 -136t221.5 -51q122 0 224 50.5t168 135t102 192t36 224.5q0 92 -22.5 180t-67.5 165t-107 135.5t-148 92t-185 33.5q-97 0 -181.5 -33.5t-146 -92t-106 -135t-66.5 -164.5t-22 -179zM569 1679q0 36 18 57t54 21q38 0 59 -20.5t21 -57.5q0 -34 -21 -52.5t-59 -18.5
q-72 0 -72 71zM815 1679q0 74 74 74q78 0 78 -74q0 -36 -20 -55.5t-58 -19.5q-74 0 -74 75z" />
    <glyph glyph-name="multiply" unicode="&#xd7;" horiz-adv-x="1204" 
d="M229 1161l375 -409l371 409l65 -71l-374 -410l374 -412l-65 -71l-371 413l-373 -413l-65 75l371 408l-371 410z" />
    <glyph glyph-name="Oslash" unicode="&#xd8;" 
d="M440 57q-148 90 -230.5 256t-82.5 367q0 143 45 272t126 226t202 154t264 57q139 0 262 -54l92 207l66 -37l-94 -205q151 -90 234 -255t83 -365q0 -116 -28.5 -222.5t-84.5 -195t-133 -154.5t-179 -102.5t-218 -36.5q-130 0 -254 54l-92 -205l-68 37zM242 682
q0 -161 64 -301.5t183 -220.5l490 1077q-96 49 -215 49q-97 0 -181.5 -33.5t-146 -92t-106 -135t-66.5 -164.5t-22 -179zM557 121q94 -43 207 -43q122 0 224 50.5t168 135t102 192t36 224.5q0 158 -65.5 298.5t-184.5 221.5z" />
    <glyph glyph-name="Ugrave" unicode="&#xd9;" horiz-adv-x="1546" 
d="M190 1360h101v-711q0 -109 32 -211t91 -184t152.5 -132t207.5 -50q113 0 206.5 50t153 132.5t91.5 184.5t32 210v711h101v-711q0 -134 -40 -256t-113 -216.5t-185 -151t-246 -56.5t-245.5 56.5t-184.5 151t-113.5 217t-40.5 255.5v711zM664 1806h114l107 -231h-62z" />
    <glyph glyph-name="Uacute" unicode="&#xda;" horiz-adv-x="1546" 
d="M190 1360h101v-711q0 -109 32 -211t91 -184t152.5 -132t207.5 -50q113 0 206.5 50t153 132.5t91.5 184.5t32 210v711h101v-711q0 -134 -40 -256t-113 -216.5t-185 -151t-246 -56.5t-245.5 56.5t-184.5 151t-113.5 217t-40.5 255.5v711zM664 1577l106 231h115l-162 -231
h-59z" />
    <glyph glyph-name="Ucircumflex" unicode="&#xdb;" horiz-adv-x="1546" 
d="M190 1360h101v-711q0 -109 32 -211t91 -184t152.5 -132t207.5 -50q113 0 206.5 50t153 132.5t91.5 184.5t32 210v711h101v-711q0 -134 -40 -256t-113 -216.5t-185 -151t-246 -56.5t-245.5 56.5t-184.5 151t-113.5 217t-40.5 255.5v711zM606 1579l107 229h116l107 -229
h-59l-105 180l-102 -180h-64z" />
    <glyph glyph-name="Udieresis" unicode="&#xdc;" horiz-adv-x="1546" 
d="M291 649q0 -109 32 -211t91 -184t152.5 -132t207.5 -50q113 0 206.5 50t153 132.5t91.5 184.5t32 210v711h101v-711q0 -134 -40 -256t-113 -216.5t-185 -151t-246 -56.5t-245.5 56.5t-184.5 151t-113.5 217t-40.5 255.5v711h101v-711zM573 1679q0 36 18 57t54 21
q80 0 80 -78q0 -71 -80 -71q-72 0 -72 71zM819 1679q0 35 19.5 54.5t54.5 19.5q78 0 78 -74q0 -36 -20 -55.5t-58 -19.5q-36 0 -55 20t-19 55z" />
    <glyph glyph-name="Yacute" unicode="&#xdd;" horiz-adv-x="1241" 
d="M621 582l452 778h117l-518 -885v-475h-103v475l-518 885h111zM510 1577l106 231h115l-160 -231h-61z" />
    <glyph glyph-name="germandbls" unicode="&#xdf;" horiz-adv-x="1097" 
d="M535 78q69 0 132 13t123 43t96 88.5t36 139.5q0 256 -371 273q-47 2 -135 2v88h45q46 0 78 1t79 7t80 16t69.5 30t59 48t37.5 70t15 96q0 63 -21 113.5t-55 83.5t-81 55t-96.5 31.5t-103.5 9.5q-52 0 -101.5 -9t-98.5 -29.5t-86.5 -58.5t-55.5 -91l-2 -1350l-121 2v1348
q16 81 59.5 139.5t109 90.5t138.5 46.5t160 14.5h11q95 0 176.5 -22.5t145 -67t100 -118.5t36.5 -171q0 -216 -182 -322q223 -104 223 -340q0 -99 -42 -174.5t-114 -119t-158 -64.5t-183 -21h-2v109z" />
    <glyph glyph-name="agrave" unicode="&#xe0;" horiz-adv-x="1458" 
d="M180 0h-104l586 1370h102l618 -1370h-106l-164 387h-770zM367 463h723l-373 815zM618 1806h115l107 -231h-60z" />
    <glyph glyph-name="aacute" unicode="&#xe1;" horiz-adv-x="1458" 
d="M180 0h-104l586 1370h102l618 -1370h-106l-164 387h-770zM367 463h723l-373 815zM618 1577l107 231h115l-160 -231h-62z" />
    <glyph glyph-name="acircumflex" unicode="&#xe2;" horiz-adv-x="1458" 
d="M76 0l586 1370h102l618 -1370h-106l-164 387h-770l-162 -387h-104zM367 463h723l-373 815zM565 1579l107 229h116l107 -229h-64l-102 180l-102 -180h-62z" />
    <glyph glyph-name="atilde" unicode="&#xe3;" horiz-adv-x="1458" 
d="M76 0l586 1370h102l618 -1370h-106l-164 387h-770l-162 -387h-104zM367 463h723l-373 815zM528 1632v54q11 10 34.5 37t40 36.5t42.5 9.5q32 0 65 -26.5t60.5 -53t44.5 -26.5q16 0 33.5 13.5t47.5 47t38 41.5v-57q-9 -8 -27.5 -28t-28 -28t-27 -16t-36.5 -8q-23 0 -48 16
t-42.5 35.5t-40.5 35.5t-43 16q-16 0 -33.5 -16t-40.5 -42.5t-39 -40.5z" />
    <glyph glyph-name="adieresis" unicode="&#xe4;" horiz-adv-x="1458" 
d="M662 1370h102l618 -1370h-106l-164 387h-770l-162 -387h-104zM367 463h723l-373 815zM530 1679q0 78 74 78q38 0 58 -20.5t20 -57.5q0 -71 -78 -71q-74 0 -74 71zM778 1679q0 74 74 74q37 0 57.5 -19.5t20.5 -54.5t-20.5 -55t-57.5 -20q-74 0 -74 75z" />
    <glyph glyph-name="aring" unicode="&#xe5;" horiz-adv-x="1458" 
d="M662 1370h102l618 -1370h-106l-164 387h-770l-162 -387h-104zM367 463h723l-373 815zM618 1696q0 52 29.5 83t81.5 31q51 0 81 -31t30 -83q0 -53 -30 -85t-81 -32q-52 0 -81.5 32t-29.5 85zM662 1694q0 -24 15.5 -45t51.5 -21q66 0 66 68q0 13 -4 26t-20 26t-42 13
q-37 0 -52 -20.5t-15 -46.5z" />
    <glyph glyph-name="ae" unicode="&#xe6;" horiz-adv-x="1949" 
d="M76 0l586 1358l1249 2v-92h-1092v-543h813v-88h-813v-545h1092v-92h-1194v387h-375l-162 -387h-104zM367 463h350v815z" />
    <glyph glyph-name="ccedilla" unicode="&#xe7;" horiz-adv-x="1501" 
d="M719 -29q-179 12 -315 112t-206.5 255.5t-70.5 341.5q0 143 45 272t126 226t202 154t264 57q224 0 386.5 -130t223.5 -348h-110q-57 168 -192 271.5t-310 103.5q-120 0 -222.5 -52t-169 -137.5t-104 -193t-37.5 -221.5q0 -115 37.5 -223t104 -193t169 -136.5t222.5 -51.5
q176 0 311 102t191 269h110q-61 -218 -223.5 -349t-386.5 -131l-6 -32q75 -8 112 -40.5t37 -107.5q0 -80 -48 -123t-128 -43q-77 0 -131.5 35.5t-67.5 108.5v4h62v-2q27 -82 131 -82q52 0 88.5 24.5t36.5 73.5q0 28 -12 46t-34.5 26.5t-44 11t-50.5 2.5h-27l2 6
q6 18 18.5 51t16.5 43z" />
    <glyph glyph-name="egrave" unicode="&#xe8;" horiz-adv-x="1536" 
d="M1384 1360v-92h-1093v-543h815v-88h-815v-545h1093v-92h-1194v1360h1194zM653 1806h119l107 -231h-64z" />
    <glyph glyph-name="eacute" unicode="&#xe9;" horiz-adv-x="1536" 
d="M1384 1360v-92h-1093v-543h815v-88h-815v-545h1093v-92h-1194v1360h1194zM653 1577l107 231h119l-162 -231h-64z" />
    <glyph glyph-name="ecircumflex" unicode="&#xea;" horiz-adv-x="1536" 
d="M1384 1360v-92h-1093v-543h815v-88h-815v-545h1093v-92h-1194v1360h1194zM602 1579l107 229h114l107 -229h-62l-100 180l-104 -180h-62z" />
    <glyph glyph-name="edieresis" unicode="&#xeb;" horiz-adv-x="1536" 
d="M190 1360h1194v-92h-1093v-543h815v-88h-815v-545h1093v-92h-1194v1360zM567 1679q0 36 19 57t55 21q37 0 57.5 -20.5t20.5 -57.5q0 -34 -20.5 -52.5t-57.5 -18.5q-74 0 -74 71zM813 1679q0 35 19.5 54.5t54.5 19.5q78 0 78 -74q0 -36 -20 -55.5t-58 -19.5q-74 0 -74 75z
" />
    <glyph glyph-name="igrave" unicode="&#xec;" horiz-adv-x="487" 
d="M295 1360v-1360h-100v1360h100zM133 1806h115l106 -231h-61z" />
    <glyph glyph-name="iacute" unicode="&#xed;" horiz-adv-x="487" 
d="M295 1360v-1360h-100v1360h100zM133 1577l107 231h114l-159 -231h-62z" />
    <glyph glyph-name="icircumflex" unicode="&#xee;" horiz-adv-x="495" 
d="M199 0v1360h100v-1360h-100zM82 1579l106 229h119l107 -229h-64l-102 180l-103 -180h-63z" />
    <glyph glyph-name="idieresis" unicode="&#xef;" horiz-adv-x="497" 
d="M201 0v1360h100v-1360h-100zM49 1679q0 36 19 57t55 21q80 0 80 -78q0 -71 -80 -71q-35 0 -54.5 18.5t-19.5 52.5zM297 1679q0 74 74 74q78 0 78 -74q0 -36 -20 -55.5t-58 -19.5q-36 0 -55 20t-19 55z" />
    <glyph glyph-name="ntilde" unicode="&#xf1;" horiz-adv-x="1601" 
d="M311 1360l1004 -1227v1227h98v-1360h-123l-999 1229v-1229h-101v1360h121zM598 1632v54q12 11 29 29.5t26.5 28t26 17.5t35.5 8q32 0 65.5 -26.5t61.5 -53t45 -26.5q12 0 28.5 11t28 23.5t31.5 35.5t29 32v-57q-9 -9 -27 -28t-27 -27.5t-26.5 -16.5t-36.5 -8
q-23 0 -48 16t-43 35.5t-40.5 35.5t-42.5 16q-16 0 -34 -16t-41.5 -43t-39.5 -40z" />
    <glyph glyph-name="ograve" unicode="&#xf2;" 
d="M1407 680q0 -116 -28.5 -222.5t-84.5 -195t-133 -154.5t-179 -102.5t-218 -36.5q-190 0 -337 98t-223.5 258.5t-76.5 354.5q0 143 45 272t126 226t202 154t264 57q116 0 218 -36.5t179 -102.5t133 -154t84.5 -194.5t28.5 -221.5zM242 682q0 -116 35.5 -224t100 -193
t165 -136t221.5 -51q122 0 224 50.5t168 135t102 192t36 224.5q0 92 -22.5 180t-67.5 165t-107 135.5t-148 92t-185 33.5q-97 0 -181.5 -33.5t-146 -92t-106 -135t-66.5 -164.5t-22 -179zM655 1806h117l105 -231h-60z" />
    <glyph glyph-name="oacute" unicode="&#xf3;" 
d="M1407 680q0 -116 -28.5 -222.5t-84.5 -195t-133 -154.5t-179 -102.5t-218 -36.5q-190 0 -337 98t-223.5 258.5t-76.5 354.5q0 143 45 272t126 226t202 154t264 57q116 0 218 -36.5t179 -102.5t133 -154t84.5 -194.5t28.5 -221.5zM242 682q0 -116 35.5 -224t100 -193
t165 -136t221.5 -51q122 0 224 50.5t168 135t102 192t36 224.5q0 92 -22.5 180t-67.5 165t-107 135.5t-148 92t-185 33.5q-97 0 -181.5 -33.5t-146 -92t-106 -135t-66.5 -164.5t-22 -179zM655 1577l107 231h115l-160 -231h-62z" />
    <glyph glyph-name="ocircumflex" unicode="&#xf4;" 
d="M764 -31q-190 0 -337 98t-223.5 258.5t-76.5 354.5q0 143 45 272t126 226t202 154t264 57q116 0 218 -36.5t179 -102.5t133 -154t84.5 -194.5t28.5 -221.5q0 -116 -28.5 -222.5t-84.5 -195t-133 -154.5t-179 -102.5t-218 -36.5zM242 682q0 -116 35.5 -224t100 -193
t165 -136t221.5 -51q122 0 224 50.5t168 135t102 192t36 224.5q0 92 -22.5 180t-67.5 165t-107 135.5t-148 92t-185 33.5q-97 0 -181.5 -33.5t-146 -92t-106 -135t-66.5 -164.5t-22 -179zM602 1579l107 229h116l107 -229h-64l-102 180l-100 -180h-64z" />
    <glyph glyph-name="otilde" unicode="&#xf5;" 
d="M1407 680q0 -116 -28.5 -222.5t-84.5 -195t-133 -154.5t-179 -102.5t-218 -36.5q-190 0 -337 98t-223.5 258.5t-76.5 354.5q0 143 45 272t126 226t202 154t264 57q116 0 218 -36.5t179 -102.5t133 -154t84.5 -194.5t28.5 -221.5zM242 682q0 -116 35.5 -224t100 -193
t165 -136t221.5 -51q122 0 224 50.5t168 135t102 192t36 224.5q0 92 -22.5 180t-67.5 165t-107 135.5t-148 92t-185 33.5q-97 0 -181.5 -33.5t-146 -92t-106 -135t-66.5 -164.5t-22 -179zM565 1632v54q12 11 29 29.5t26.5 28t26 17.5t35.5 8q32 0 65.5 -26.5t61 -53
t43.5 -26.5t33.5 13.5t47.5 47t38 41.5v-57q-9 -8 -27.5 -28t-28 -28t-27 -16t-36.5 -8q-23 0 -48 16t-42.5 35.5t-40.5 35.5t-43 16q-16 0 -33.5 -16t-40.5 -42.5t-39 -40.5z" />
    <glyph glyph-name="odieresis" unicode="&#xf6;" 
d="M764 -31q-190 0 -337 98t-223.5 258.5t-76.5 354.5q0 143 45 272t126 226t202 154t264 57q116 0 218 -36.5t179 -102.5t133 -154t84.5 -194.5t28.5 -221.5q0 -116 -28.5 -222.5t-84.5 -195t-133 -154.5t-179 -102.5t-218 -36.5zM242 682q0 -116 35.5 -224t100 -193
t165 -136t221.5 -51q122 0 224 50.5t168 135t102 192t36 224.5q0 92 -22.5 180t-67.5 165t-107 135.5t-148 92t-185 33.5q-97 0 -181.5 -33.5t-146 -92t-106 -135t-66.5 -164.5t-22 -179zM567 1679q0 36 19 57t55 21q38 0 58 -20.5t20 -57.5q0 -71 -78 -71q-35 0 -54.5 18.5
t-19.5 52.5zM815 1679q0 74 74 74q37 0 57.5 -19.5t20.5 -54.5t-20.5 -55t-57.5 -20q-74 0 -74 75z" />
    <glyph glyph-name="divide" unicode="&#xf7;" horiz-adv-x="1323" 
d="M190 637v88h945v-88h-945zM582 215q0 39 21.5 66.5t55.5 27.5q35 0 57.5 -27.5t22.5 -66.5q0 -38 -22.5 -65t-57.5 -27q-34 0 -55.5 27t-21.5 65zM582 1145q0 38 21.5 64t55.5 26q35 0 57.5 -26.5t22.5 -63.5q0 -40 -22.5 -66t-57.5 -26t-56 26t-21 66z" />
    <glyph glyph-name="oslash" unicode="&#xf8;" 
d="M127 680q0 143 45 272t126 226t202 154t264 57q139 0 262 -54l92 207l66 -37l-94 -205q151 -90 234 -255t83 -365q0 -116 -28.5 -222.5t-84.5 -195t-133 -154.5t-179 -102.5t-218 -36.5q-130 0 -254 54l-92 -205l-68 37l90 202q-148 90 -230.5 256t-82.5 367zM242 682
q0 -161 64 -301.5t183 -220.5l490 1077q-96 49 -215 49q-97 0 -181.5 -33.5t-146 -92t-106 -135t-66.5 -164.5t-22 -179zM557 121q94 -43 207 -43q122 0 224 50.5t168 135t102 192t36 224.5q0 158 -65.5 298.5t-184.5 221.5z" />
    <glyph glyph-name="ugrave" unicode="&#xf9;" horiz-adv-x="1546" 
d="M190 1360h101v-711q0 -109 32 -211t91 -184t152.5 -132t207.5 -50q113 0 206.5 50t153 132.5t91.5 184.5t32 210v711h101v-711q0 -134 -40 -256t-113 -216.5t-185 -151t-246 -56.5t-245.5 56.5t-184.5 151t-113.5 217t-40.5 255.5v711zM662 1806h116l107 -231h-64z" />
    <glyph glyph-name="uacute" unicode="&#xfa;" horiz-adv-x="1546" 
d="M190 1360h101v-711q0 -109 32 -211t91 -184t152.5 -132t207.5 -50q113 0 206.5 50t153 132.5t91.5 184.5t32 210v711h101v-711q0 -134 -40 -256t-113 -216.5t-185 -151t-246 -56.5t-245.5 56.5t-184.5 151t-113.5 217t-40.5 255.5v711zM662 1577l106 231h117l-162 -231
h-61z" />
    <glyph glyph-name="ucircumflex" unicode="&#xfb;" horiz-adv-x="1546" 
d="M190 1360h101v-711q0 -109 32 -211t91 -184t152.5 -132t207.5 -50q113 0 206.5 50t153 132.5t91.5 184.5t32 210v711h101v-711q0 -134 -40 -256t-113 -216.5t-185 -151t-246 -56.5t-245.5 56.5t-184.5 151t-113.5 217t-40.5 255.5v711zM608 1579l107 229h114l107 -229
h-59l-103 180l-104 -180h-62z" />
    <glyph glyph-name="udieresis" unicode="&#xfc;" horiz-adv-x="1546" 
d="M291 649q0 -109 32 -211t91 -184t152.5 -132t207.5 -50q113 0 206.5 50t153 132.5t91.5 184.5t32 210v711h101v-711q0 -134 -40 -256t-113 -216.5t-185 -151t-246 -56.5t-245.5 56.5t-184.5 151t-113.5 217t-40.5 255.5v711h101v-711zM573 1679q0 36 19 57t55 21
q38 0 58 -20.5t20 -57.5q0 -71 -78 -71q-74 0 -74 71zM819 1679q0 35 19.5 54.5t54.5 19.5q78 0 78 -74q0 -36 -20 -55.5t-58 -19.5q-36 0 -55 20t-19 55z" />
    <glyph glyph-name="yacute" unicode="&#xfd;" horiz-adv-x="1241" 
d="M621 582l452 778h117l-518 -885v-475h-103v475l-518 885h111zM508 1577l106 231h117l-160 -231h-63z" />
    <glyph glyph-name="ydieresis" unicode="&#xff;" horiz-adv-x="1241" 
d="M621 582l452 778h117l-518 -885v-475h-103v475l-518 885h111zM422 1679q0 78 74 78q37 0 57 -20.5t20 -57.5q0 -34 -20 -52.5t-57 -18.5q-74 0 -74 71zM668 1679q0 74 73 74q78 0 78 -74q0 -36 -20 -55.5t-58 -19.5q-73 0 -73 75z" />
    <glyph glyph-name="Amacron" unicode="&#x100;" horiz-adv-x="1458" 
d="M180 0h-104l586 1370h102l618 -1370h-106l-164 387h-770zM367 463h723l-373 815zM535 1651v88h391v-88h-391z" />
    <glyph glyph-name="amacron" unicode="&#x101;" horiz-adv-x="1458" 
d="M180 0h-104l586 1370h102l618 -1370h-106l-164 387h-770zM367 463h723l-373 815zM535 1651v88h391v-88h-391z" />
    <glyph glyph-name="Cacute" unicode="&#x106;" horiz-adv-x="1501" 
d="M762 78q176 0 311 102t191 269h110q-61 -218 -223.5 -349t-386.5 -131q-190 0 -337 98t-223.5 258.5t-76.5 354.5q0 143 45 272t126 226t202 154t264 57q224 0 386.5 -130t223.5 -348h-110q-57 168 -192 271.5t-310 103.5q-120 0 -222.5 -52t-169 -137.5t-104 -193
t-37.5 -221.5q0 -115 37.5 -223t104 -193t169 -136.5t222.5 -51.5zM641 1577l107 231h114l-160 -231h-61z" />
    <glyph glyph-name="cacute" unicode="&#x107;" horiz-adv-x="1501" 
d="M762 78q176 0 311 102t191 269h110q-61 -218 -223.5 -349t-386.5 -131q-190 0 -337 98t-223.5 258.5t-76.5 354.5q0 143 45 272t126 226t202 154t264 57q224 0 386.5 -130t223.5 -348h-110q-57 168 -192 271.5t-310 103.5q-120 0 -222.5 -52t-169 -137.5t-104 -193
t-37.5 -221.5q0 -115 37.5 -223t104 -193t169 -136.5t222.5 -51.5zM639 1577l106 231h117l-160 -231h-63z" />
    <glyph glyph-name="Ccircumflex" unicode="&#x108;" horiz-adv-x="1501" 
d="M229 682q0 -115 37.5 -223t104 -193t169 -136.5t222.5 -51.5q176 0 311 102t191 269h110q-61 -218 -223.5 -349t-386.5 -131q-190 0 -337 98t-223.5 258.5t-76.5 354.5q0 143 45 272t126 226t202 154t264 57q224 0 386.5 -130t223.5 -348h-110q-57 168 -192 271.5
t-310 103.5q-120 0 -222.5 -52t-169 -137.5t-104 -193t-37.5 -221.5zM584 1579l106 229h119l106 -229h-61l-104 180l-103 -180h-63z" />
    <glyph glyph-name="ccircumflex" unicode="&#x109;" horiz-adv-x="1501" 
d="M229 682q0 -115 37.5 -223t104 -193t169 -136.5t222.5 -51.5q176 0 311 102t191 269h110q-61 -218 -223.5 -349t-386.5 -131q-190 0 -337 98t-223.5 258.5t-76.5 354.5q0 143 45 272t126 226t202 154t264 57q224 0 386.5 -130t223.5 -348h-110q-57 168 -192 271.5
t-310 103.5q-120 0 -222.5 -52t-169 -137.5t-104 -193t-37.5 -221.5zM586 1579l106 229h117l106 -229h-61l-102 180l-105 -180h-61z" />
    <glyph glyph-name="Cdotaccent" unicode="&#x10a;" horiz-adv-x="1501" 
d="M229 682q0 -115 37.5 -223t104 -193t169 -136.5t222.5 -51.5q176 0 311 102t191 269h110q-61 -218 -223.5 -349t-386.5 -131q-190 0 -337 98t-223.5 258.5t-76.5 354.5q0 143 45 272t126 226t202 154t264 57q224 0 386.5 -130t223.5 -348h-110q-57 168 -192 271.5
t-310 103.5q-120 0 -222.5 -52t-169 -137.5t-104 -193t-37.5 -221.5zM676 1694q0 34 19 53.5t55 19.5t56.5 -19.5t20.5 -53.5q0 -37 -20 -56.5t-57 -19.5q-36 0 -55 20.5t-19 55.5z" />
    <glyph glyph-name="cdotaccent" unicode="&#x10b;" horiz-adv-x="1501" 
d="M229 682q0 -115 37.5 -223t104 -193t169 -136.5t222.5 -51.5q176 0 311 102t191 269h110q-61 -218 -223.5 -349t-386.5 -131q-190 0 -337 98t-223.5 258.5t-76.5 354.5q0 143 45 272t126 226t202 154t264 57q224 0 386.5 -130t223.5 -348h-110q-57 168 -192 271.5
t-310 103.5q-120 0 -222.5 -52t-169 -137.5t-104 -193t-37.5 -221.5zM676 1694q0 34 18.5 53.5t53.5 19.5q38 0 57.5 -19.5t19.5 -53.5q0 -76 -77 -76q-36 0 -54 20.5t-18 55.5z" />
    <glyph glyph-name="Ccaron" unicode="&#x10c;" horiz-adv-x="1501" 
d="M229 682q0 -115 37.5 -223t104 -193t169 -136.5t222.5 -51.5q176 0 311 102t191 269h110q-61 -218 -223.5 -349t-386.5 -131q-190 0 -337 98t-223.5 258.5t-76.5 354.5q0 143 45 272t126 226t202 154t264 57q224 0 386.5 -130t223.5 -348h-110q-57 168 -192 271.5
t-310 103.5q-120 0 -222.5 -52t-169 -137.5t-104 -193t-37.5 -221.5zM584 1808h63l103 -180l104 180h61l-106 -229h-119z" />
    <glyph glyph-name="ccaron" unicode="&#x10d;" horiz-adv-x="1501" 
d="M229 682q0 -115 37.5 -223t104 -193t169 -136.5t222.5 -51.5q176 0 311 102t191 269h110q-61 -218 -223.5 -349t-386.5 -131q-190 0 -337 98t-223.5 258.5t-76.5 354.5q0 143 45 272t126 226t202 154t264 57q224 0 386.5 -130t223.5 -348h-110q-57 168 -192 271.5
t-310 103.5q-120 0 -222.5 -52t-169 -137.5t-104 -193t-37.5 -221.5zM586 1808h61l105 -180l102 180h61l-106 -229h-117z" />
    <glyph glyph-name="Emacron" unicode="&#x112;" horiz-adv-x="1536" 
d="M190 1360h1194v-92h-1093v-543h815v-88h-815v-545h1093v-92h-1194v1360zM571 1651v88h390v-88h-390z" />
    <glyph glyph-name="emacron" unicode="&#x113;" horiz-adv-x="1536" 
d="M1384 1360v-92h-1093v-543h815v-88h-815v-545h1093v-92h-1194v1360h1194zM571 1651v88h390v-88h-390z" />
    <glyph glyph-name="Edotaccent" unicode="&#x116;" horiz-adv-x="1536" 
d="M190 0v1360h1194v-92h-1093v-543h815v-88h-815v-545h1093v-92h-1194zM690 1694q0 34 19 53.5t55 19.5q38 0 59 -19.5t21 -53.5q0 -37 -21 -56.5t-59 -19.5q-36 0 -55 20.5t-19 55.5z" />
    <glyph glyph-name="edotaccent" unicode="&#x117;" horiz-adv-x="1536" 
d="M190 0v1360h1194v-92h-1093v-543h815v-88h-815v-545h1093v-92h-1194zM690 1694q0 34 18.5 53.5t53.5 19.5q39 0 59.5 -19.5t20.5 -53.5q0 -76 -80 -76q-36 0 -54 20.5t-18 55.5z" />
    <glyph glyph-name="Ecaron" unicode="&#x11a;" horiz-adv-x="1536" 
d="M1384 1360v-92h-1093v-543h815v-88h-815v-545h1093v-92h-1194v1360h1194zM600 1808h64l100 -180l104 180h62l-107 -229h-116z" />
    <glyph glyph-name="ecaron" unicode="&#x11b;" horiz-adv-x="1536" 
d="M1384 1360v-92h-1093v-543h815v-88h-815v-545h1093v-92h-1194v1360h1194zM602 1808h62l104 -180l100 180h62l-107 -229h-114z" />
    <glyph glyph-name="Gcircumflex" unicode="&#x11c;" 
d="M127 680q0 142 44.5 270.5t124.5 226t200.5 155t263.5 57.5q169 0 312 -79.5t231 -222.5l-138 -2q-74 95 -179.5 148t-225.5 53t-221.5 -52t-167 -137.5t-102 -193t-36.5 -221.5q0 -116 36.5 -224t103 -193t168.5 -136t223 -51q145 0 262 71t185 187t85 258l2 24h-442v93
h549q0 -6 1 -16t1 -15q0 -144 -45 -273.5t-126.5 -226.5t-203.5 -154t-266 -57t-265 56.5t-202.5 153.5t-126.5 226.5t-45 274.5zM602 1579l107 229h116l107 -229h-62l-104 180l-100 -180h-64z" />
    <glyph glyph-name="gcircumflex" unicode="&#x11d;" 
d="M127 680q0 142 44.5 270.5t124.5 226t200.5 155t263.5 57.5q169 0 312 -79.5t231 -222.5l-138 -2q-74 95 -179.5 148t-225.5 53t-221.5 -52t-167 -137.5t-102 -193t-36.5 -221.5q0 -116 36.5 -224t103 -193t168.5 -136t223 -51q145 0 262 71t185 187t85 258l2 24h-442v93
h549q0 -6 1 -16t1 -15q0 -144 -45 -273.5t-126.5 -226.5t-203.5 -154t-266 -57t-265 56.5t-202.5 153.5t-126.5 226.5t-45 274.5zM602 1579l107 229h116l107 -229h-64l-102 180l-100 -180h-64z" />
    <glyph glyph-name="Gdotaccent" unicode="&#x120;" 
d="M127 680q0 142 44.5 270.5t124.5 226t200.5 155t263.5 57.5q169 0 312 -79.5t231 -222.5l-138 -2q-74 95 -179.5 148t-225.5 53t-221.5 -52t-167 -137.5t-102 -193t-36.5 -221.5q0 -116 36.5 -224t103 -193t168.5 -136t223 -51q145 0 262 71t185 187t85 258l2 24h-442v93
h549q0 -6 1 -16t1 -15q0 -144 -45 -273.5t-126.5 -226.5t-203.5 -154t-266 -57t-265 56.5t-202.5 153.5t-126.5 226.5t-45 274.5zM690 1694q0 34 19 53.5t55 19.5q38 0 59 -19.5t21 -53.5q0 -37 -21 -56.5t-59 -19.5q-36 0 -55 20.5t-19 55.5z" />
    <glyph glyph-name="gdotaccent" unicode="&#x121;" 
d="M127 680q0 142 44.5 270.5t124.5 226t200.5 155t263.5 57.5q169 0 312 -79.5t231 -222.5l-138 -2q-74 95 -179.5 148t-225.5 53t-221.5 -52t-167 -137.5t-102 -193t-36.5 -221.5q0 -116 36.5 -224t103 -193t168.5 -136t223 -51q145 0 262 71t185 187t85 258l2 24h-442v93
h549q0 -6 1 -16t1 -15q0 -144 -45 -273.5t-126.5 -226.5t-203.5 -154t-266 -57t-265 56.5t-202.5 153.5t-126.5 226.5t-45 274.5zM690 1694q0 34 19.5 53.5t54.5 19.5q39 0 59.5 -19.5t20.5 -53.5q0 -76 -80 -76q-36 0 -55 20.5t-19 55.5z" />
    <glyph glyph-name="Hcircumflex" unicode="&#x124;" horiz-adv-x="1601" 
d="M291 1360v-635h1024v635h98v-1360h-98v637h-1024v-637h-101v1360h101zM635 1579l106 229h117l107 -229h-62l-104 180l-101 -180h-63z" />
    <glyph glyph-name="hcircumflex" unicode="&#x125;" horiz-adv-x="1601" 
d="M190 1360h101v-635h1024v635h98v-1360h-98v637h-1024v-637h-101v1360zM637 1579l106 229h115l107 -229h-62l-100 180l-105 -180h-61z" />
    <glyph glyph-name="Itilde" unicode="&#x128;" horiz-adv-x="499" 
d="M301 1360v-1360h-100v1360h100zM45 1632v54q13 11 36.5 37t40.5 36t42 10q32 0 65 -26.5t60.5 -53t44.5 -26.5q16 0 33.5 13.5t47.5 47t38 41.5v-57q-9 -9 -27 -28t-27.5 -27.5t-27 -16.5t-37.5 -8q-23 0 -48 16t-42.5 35.5t-39.5 35.5t-42 16q-17 0 -35 -16t-41.5 -42.5
t-40.5 -40.5z" />
    <glyph glyph-name="itilde" unicode="&#x129;" horiz-adv-x="499" 
d="M301 1360v-1360h-100v1360h100zM47 1632v54q13 11 36 37t40 36t43 10q32 0 65 -26.5t60 -53t43 -26.5t34.5 14.5t47 46t39.5 41.5v-57q-10 -9 -28 -28t-28 -27.5t-27.5 -16.5t-37.5 -8q-23 0 -48 16t-42.5 35.5t-39.5 35.5t-42 16q-17 0 -34.5 -16t-40.5 -42.5t-40 -40.5
z" />
    <glyph glyph-name="Imacron" unicode="&#x12a;" horiz-adv-x="495" 
d="M199 1360h100v-1360h-100v1360zM55 1651v88h387v-88h-387z" />
    <glyph glyph-name="imacron" unicode="&#x12b;" horiz-adv-x="495" 
d="M299 1360v-1360h-100v1360h100zM53 1651v88h389v-88h-389z" />
    <glyph glyph-name="dotlessi" unicode="&#x131;" horiz-adv-x="479" 
d="M291 1360v-1360h-101v1360h101z" />
    <glyph glyph-name="Lacute" unicode="&#x139;" horiz-adv-x="1236" 
d="M190 1360h101v-1268h844v-92h-945v1360zM504 1577l106 231h115l-160 -231h-61z" />
    <glyph glyph-name="lacute" unicode="&#x13a;" horiz-adv-x="1236" 
d="M291 1360v-1268h844v-92h-945v1360h101zM504 1577l106 231h115l-160 -231h-61z" />
    <glyph glyph-name="Nacute" unicode="&#x143;" horiz-adv-x="1601" 
d="M190 1360h121l1004 -1227v1227h98v-1360h-123l-999 1229v-1229h-101v1360zM690 1577l107 231h116l-161 -231h-62z" />
    <glyph glyph-name="nacute" unicode="&#x144;" horiz-adv-x="1601" 
d="M311 1360l1004 -1227v1227h98v-1360h-123l-999 1229v-1229h-101v1360h121zM688 1577l107 231h118l-161 -231h-64z" />
    <glyph glyph-name="Ncaron" unicode="&#x147;" horiz-adv-x="1601" 
d="M190 1360h121l1004 -1227v1227h98v-1360h-123l-999 1229v-1229h-101v1360zM635 1808h63l101 -180l104 180h62l-107 -229h-117z" />
    <glyph glyph-name="ncaron" unicode="&#x148;" horiz-adv-x="1601" 
d="M311 1360l1004 -1227v1227h98v-1360h-123l-999 1229v-1229h-101v1360h121zM637 1808h61l105 -180l100 180h62l-107 -229h-115z" />
    <glyph glyph-name="Omacron" unicode="&#x14c;" 
d="M764 -31q-190 0 -337 98t-223.5 258.5t-76.5 354.5q0 143 45 272t126 226t202 154t264 57q116 0 218 -36.5t179 -102.5t133 -154t84.5 -194.5t28.5 -221.5q0 -116 -28.5 -222.5t-84.5 -195t-133 -154.5t-179 -102.5t-218 -36.5zM242 682q0 -116 35.5 -224t100 -193
t165 -136t221.5 -51q122 0 224 50.5t168 135t102 192t36 224.5q0 92 -22.5 180t-67.5 165t-107 135.5t-148 92t-185 33.5q-97 0 -181.5 -33.5t-146 -92t-106 -135t-66.5 -164.5t-22 -179zM573 1651v88h390v-88h-390z" />
    <glyph glyph-name="omacron" unicode="&#x14d;" 
d="M1407 680q0 -116 -28.5 -222.5t-84.5 -195t-133 -154.5t-179 -102.5t-218 -36.5q-190 0 -337 98t-223.5 258.5t-76.5 354.5q0 143 45 272t126 226t202 154t264 57q116 0 218 -36.5t179 -102.5t133 -154t84.5 -194.5t28.5 -221.5zM242 682q0 -116 35.5 -224t100 -193
t165 -136t221.5 -51q122 0 224 50.5t168 135t102 192t36 224.5q0 92 -22.5 180t-67.5 165t-107 135.5t-148 92t-185 33.5q-97 0 -181.5 -33.5t-146 -92t-106 -135t-66.5 -164.5t-22 -179zM571 1651v88h392v-88h-392z" />
    <glyph glyph-name="OE" unicode="&#x152;" horiz-adv-x="2598" 
d="M127 680q0 143 45 272t126 226t202 154t264 57q173 0 308.5 -77t221.5 -214v262h1194v-92h-1091l-2 -543h815v-88h-817q-1 -99 1.5 -302.5t2.5 -242.5h1091v-92h-1194v260q-86 -137 -221.5 -214t-308.5 -77q-190 0 -337 98t-223.5 258.5t-76.5 354.5zM242 682
q0 -116 35.5 -224t100 -193t165 -136t221.5 -51q155 0 275.5 81t184 208.5t70.5 277.5v70q-5 111 -43.5 213t-104.5 182t-165 128t-217 48q-97 0 -181.5 -33.5t-146 -92t-106 -135t-66.5 -164.5t-22 -179z" />
    <glyph glyph-name="oe" unicode="&#x153;" horiz-adv-x="2598" 
d="M127 680q0 143 45 272t126 226t202 154t264 57q173 0 308.5 -77t221.5 -214v262h1194v-92h-1091l-2 -543h815v-88h-817q-1 -99 1.5 -302.5t2.5 -242.5h1091v-92h-1194v260q-86 -137 -221.5 -214t-308.5 -77q-190 0 -337 98t-223.5 258.5t-76.5 354.5zM242 682
q0 -116 35.5 -224t100 -193t165 -136t221.5 -51q155 0 275.5 81t184 208.5t70.5 277.5v70q-5 111 -43.5 213t-104.5 182t-165 128t-217 48q-97 0 -181.5 -33.5t-146 -92t-106 -135t-66.5 -164.5t-22 -179z" />
    <glyph glyph-name="Racute" unicode="&#x154;" horiz-adv-x="1576" 
d="M1112 1360q154 0 241 -102.5t87 -264.5q0 -149 -73.5 -248t-213.5 -106l-96 -8h-35l352 -631h-110l-351 637h-622v-637h-101v1360h922zM291 725h821q114 0 170.5 76t56.5 190q0 72 -22 132.5t-75 102.5t-130 42h-821v-543zM676 1577l106 231h115l-160 -231h-61z" />
    <glyph glyph-name="racute" unicode="&#x155;" horiz-adv-x="1576" 
d="M1112 1360q154 0 241 -102.5t87 -264.5q0 -149 -73.5 -248t-213.5 -106l-96 -8h-35l352 -631h-110l-351 637h-622v-637h-101v1360h922zM291 725h821q114 0 170.5 76t56.5 190q0 72 -22 132.5t-75 102.5t-130 42h-821v-543zM676 1577l106 231h115l-160 -231h-61z" />
    <glyph glyph-name="Rcaron" unicode="&#x158;" horiz-adv-x="1576" 
d="M1112 1360q154 0 241 -102.5t87 -264.5q0 -149 -73.5 -248t-213.5 -106l-96 -8h-35l352 -631h-110l-351 637h-622v-637h-101v1360h922zM291 725h821q114 0 170.5 76t56.5 190q0 72 -22 132.5t-75 102.5t-130 42h-821v-543zM623 1808h61l102 -180l105 180h61l-106 -229
h-119z" />
    <glyph glyph-name="rcaron" unicode="&#x159;" horiz-adv-x="1576" 
d="M1112 1360q154 0 241 -102.5t87 -264.5q0 -149 -73.5 -248t-213.5 -106l-96 -8h-35l352 -631h-110l-351 637h-622v-637h-101v1360h922zM291 725h821q114 0 170.5 76t56.5 190q0 72 -22 132.5t-75 102.5t-130 42h-821v-543zM623 1808h61l102 -180l103 180h63l-106 -229
h-119z" />
    <glyph glyph-name="Sacute" unicode="&#x15a;" horiz-adv-x="1404" 
d="M231 279q25 -63 82.5 -108.5t130 -68t138 -32t127.5 -9.5q47 0 95.5 5.5t104 18t102.5 36t86.5 56t62 82t22.5 110.5q0 70 -25 119t-54.5 75.5t-101 45t-114.5 24t-145 14.5q-28 3 -42 4q-201 19 -264 31q-186 38 -250 147q-39 67 -39 168q0 85 32.5 152t85.5 109.5
t126 70.5t149 39.5t160 11.5q72 0 138 -8.5t133.5 -29.5t119 -53.5t90 -85.5t50.5 -120h-92q-10 61 -61.5 106t-125.5 67t-141.5 32t-130.5 10q-53 0 -109 -8.5t-117 -30t-108.5 -54t-78.5 -86.5t-31 -122q0 -35 9 -64.5t22.5 -52t38 -41t45.5 -31t54.5 -22.5t56.5 -16
t61 -11t58 -7t56.5 -5t48.5 -4q22 -2 67 -7q74 -8 112 -12.5t103 -16.5t100 -26.5t80 -41t68 -60.5t39.5 -84.5t16.5 -113.5q0 -90 -32.5 -160.5t-86 -114.5t-128 -73.5t-152 -41t-164.5 -11.5q-73 0 -141.5 8t-142 29t-131 53.5t-103 86t-64.5 122.5h104zM594 1577l106 231
h115l-162 -231h-59z" />
    <glyph glyph-name="sacute" unicode="&#x15b;" horiz-adv-x="1404" 
d="M231 279q25 -63 82.5 -108.5t130 -68t138 -32t127.5 -9.5q47 0 95.5 5.5t104 18t102.5 36t86.5 56t62 82t22.5 110.5q0 70 -25 119t-54.5 75.5t-101 45t-114.5 24t-145 14.5q-28 3 -42 4q-201 19 -264 31q-186 38 -250 147q-39 67 -39 168q0 85 32.5 152t85.5 109.5
t126 70.5t149 39.5t160 11.5q72 0 138 -8.5t133.5 -29.5t119 -53.5t90 -85.5t50.5 -120h-92q-10 61 -61.5 106t-125.5 67t-141.5 32t-130.5 10q-53 0 -109 -8.5t-117 -30t-108.5 -54t-78.5 -86.5t-31 -122q0 -35 9 -64.5t22.5 -52t38 -41t45.5 -31t54.5 -22.5t56.5 -16
t61 -11t58 -7t56.5 -5t48.5 -4q22 -2 67 -7q74 -8 112 -12.5t103 -16.5t100 -26.5t80 -41t68 -60.5t39.5 -84.5t16.5 -113.5q0 -90 -32.5 -160.5t-86 -114.5t-128 -73.5t-152 -41t-164.5 -11.5q-73 0 -141.5 8t-142 29t-131 53.5t-103 86t-64.5 122.5h104zM592 1577l106 231
h117l-162 -231h-61z" />
    <glyph glyph-name="Scircumflex" unicode="&#x15c;" horiz-adv-x="1404" 
d="M231 279q25 -63 82.5 -108.5t130 -68t138 -32t127.5 -9.5q47 0 95.5 5.5t104 18t102.5 36t86.5 56t62 82t22.5 110.5q0 70 -25 119t-54.5 75.5t-101 45t-114.5 24t-145 14.5q-28 3 -42 4q-201 19 -264 31q-186 38 -250 147q-39 67 -39 168q0 85 32.5 152t85.5 109.5
t126 70.5t149 39.5t160 11.5q72 0 138 -8.5t133.5 -29.5t119 -53.5t90 -85.5t50.5 -120h-92q-10 61 -61.5 106t-125.5 67t-141.5 32t-130.5 10q-53 0 -109 -8.5t-117 -30t-108.5 -54t-78.5 -86.5t-31 -122q0 -35 9 -64.5t22.5 -52t38 -41t45.5 -31t54.5 -22.5t56.5 -16
t61 -11t58 -7t56.5 -5t48.5 -4q22 -2 67 -7q74 -8 112 -12.5t103 -16.5t100 -26.5t80 -41t68 -60.5t39.5 -84.5t16.5 -113.5q0 -90 -32.5 -160.5t-86 -114.5t-128 -73.5t-152 -41t-164.5 -11.5q-73 0 -141.5 8t-142 29t-131 53.5t-103 86t-64.5 122.5h104zM537 1579l106 229
h117l106 -229h-59l-105 180l-102 -180h-63z" />
    <glyph glyph-name="scircumflex" unicode="&#x15d;" horiz-adv-x="1404" 
d="M231 279q25 -63 82.5 -108.5t130 -68t138 -32t127.5 -9.5q47 0 95.5 5.5t104 18t102.5 36t86.5 56t62 82t22.5 110.5q0 70 -25 119t-54.5 75.5t-101 45t-114.5 24t-145 14.5q-28 3 -42 4q-201 19 -264 31q-186 38 -250 147q-39 67 -39 168q0 85 32.5 152t85.5 109.5
t126 70.5t149 39.5t160 11.5q72 0 138 -8.5t133.5 -29.5t119 -53.5t90 -85.5t50.5 -120h-92q-10 61 -61.5 106t-125.5 67t-141.5 32t-130.5 10q-53 0 -109 -8.5t-117 -30t-108.5 -54t-78.5 -86.5t-31 -122q0 -35 9 -64.5t22.5 -52t38 -41t45.5 -31t54.5 -22.5t56.5 -16
t61 -11t58 -7t56.5 -5t48.5 -4q22 -2 67 -7q74 -8 112 -12.5t103 -16.5t100 -26.5t80 -41t68 -60.5t39.5 -84.5t16.5 -113.5q0 -90 -32.5 -160.5t-86 -114.5t-128 -73.5t-152 -41t-164.5 -11.5q-73 0 -141.5 8t-142 29t-131 53.5t-103 86t-64.5 122.5h104zM539 1579l106 229
h115l106 -229h-59l-102 180l-105 -180h-61z" />
    <glyph glyph-name="Scedilla" unicode="&#x15e;" horiz-adv-x="1404" 
d="M231 279q25 -63 82.5 -108.5t130 -68t138 -32t127.5 -9.5q47 0 95.5 5.5t104 18t102.5 36t86.5 56t62 82t22.5 110.5q0 70 -25 119t-54.5 75.5t-101 45t-114.5 24t-145 14.5q-28 3 -42 4q-201 19 -264 31q-186 38 -250 147q-39 67 -39 168q0 85 32.5 152t85.5 109.5
t126 70.5t149 39.5t160 11.5q72 0 138 -8.5t133.5 -29.5t119 -53.5t90 -85.5t50.5 -120h-92q-10 61 -61.5 106t-125.5 67t-141.5 32t-130.5 10q-53 0 -109 -8.5t-117 -30t-108.5 -54t-78.5 -86.5t-31 -122q0 -35 9 -64.5t22.5 -52t38 -41t45.5 -31t54.5 -22.5t56.5 -16
t61 -11t58 -7t56.5 -5t48.5 -4q22 -2 67 -7q74 -8 112 -12.5t103 -16.5t100 -26.5t80 -41t68 -60.5t39.5 -84.5t16.5 -113.5q0 -86 -29.5 -154t-78.5 -112t-117.5 -74t-141 -44t-155.5 -17l-9 -43q74 -8 112 -40.5t38 -107.5q0 -80 -48 -123t-128 -43q-78 0 -132.5 35.5
t-68.5 108.5v4h61v-2q31 -82 134 -82q52 0 87 24.5t35 73.5q0 28 -12 46t-34.5 26.5t-44 11t-50.5 2.5h-24l2 6q5 13 15.5 49.5t18.5 53.5q-73 0 -141 8t-140 29.5t-129 54t-101.5 86t-63.5 121.5h104z" />
    <glyph glyph-name="scedilla" unicode="&#x15f;" horiz-adv-x="1404" 
d="M231 279q25 -63 82.5 -108.5t130 -68t138 -32t127.5 -9.5q47 0 95.5 5.5t104 18t102.5 36t86.5 56t62 82t22.5 110.5q0 70 -25 119t-54.5 75.5t-101 45t-114.5 24t-145 14.5q-28 3 -42 4q-201 19 -264 31q-186 38 -250 147q-39 67 -39 168q0 85 32.5 152t85.5 109.5
t126 70.5t149 39.5t160 11.5q72 0 138 -8.5t133.5 -29.5t119 -53.5t90 -85.5t50.5 -120h-92q-10 61 -61.5 106t-125.5 67t-141.5 32t-130.5 10q-53 0 -109 -8.5t-117 -30t-108.5 -54t-78.5 -86.5t-31 -122q0 -35 9 -64.5t22.5 -52t38 -41t45.5 -31t54.5 -22.5t56.5 -16
t61 -11t58 -7t56.5 -5t48.5 -4q22 -2 67 -7q74 -8 112 -12.5t103 -16.5t100 -26.5t80 -41t68 -60.5t39.5 -84.5t16.5 -113.5q0 -86 -29.5 -154t-79 -112t-118.5 -74t-141.5 -44t-155.5 -17l-7 -43q74 -8 112 -40.5t38 -107.5q0 -80 -48 -123t-128 -43q-78 0 -132.5 35.5
t-68.5 108.5v4h61v-2q31 -82 134 -82q52 0 87 24.5t35 73.5q0 28 -12 46t-34.5 26.5t-44 11t-50.5 2.5h-24l2 6q4 11 14.5 48.5t17.5 54.5q-74 1 -141 9.5t-139 29.5t-128.5 53.5t-101 85.5t-63.5 121h104z" />
    <glyph glyph-name="Scaron" unicode="&#x160;" horiz-adv-x="1404" 
d="M231 279q25 -63 82.5 -108.5t130 -68t138 -32t127.5 -9.5q47 0 95.5 5.5t104 18t102.5 36t86.5 56t62 82t22.5 110.5q0 70 -25 119t-54.5 75.5t-101 45t-114.5 24t-145 14.5q-28 3 -42 4q-201 19 -264 31q-186 38 -250 147q-39 67 -39 168q0 85 32.5 152t85.5 109.5
t126 70.5t149 39.5t160 11.5q72 0 138 -8.5t133.5 -29.5t119 -53.5t90 -85.5t50.5 -120h-92q-10 61 -61.5 106t-125.5 67t-141.5 32t-130.5 10q-53 0 -109 -8.5t-117 -30t-108.5 -54t-78.5 -86.5t-31 -122q0 -35 9 -64.5t22.5 -52t38 -41t45.5 -31t54.5 -22.5t56.5 -16
t61 -11t58 -7t56.5 -5t48.5 -4q22 -2 67 -7q74 -8 112 -12.5t103 -16.5t100 -26.5t80 -41t68 -60.5t39.5 -84.5t16.5 -113.5q0 -90 -32.5 -160.5t-86 -114.5t-128 -73.5t-152 -41t-164.5 -11.5q-73 0 -141.5 8t-142 29t-131 53.5t-103 86t-64.5 122.5h104zM537 1808h63
l102 -180l105 180h59l-106 -229h-117z" />
    <glyph glyph-name="scaron" unicode="&#x161;" horiz-adv-x="1404" 
d="M231 279q25 -63 82.5 -108.5t130 -68t138 -32t127.5 -9.5q47 0 95.5 5.5t104 18t102.5 36t86.5 56t62 82t22.5 110.5q0 70 -25 119t-54.5 75.5t-101 45t-114.5 24t-145 14.5q-28 3 -42 4q-201 19 -264 31q-186 38 -250 147q-39 67 -39 168q0 85 32.5 152t85.5 109.5
t126 70.5t149 39.5t160 11.5q72 0 138 -8.5t133.5 -29.5t119 -53.5t90 -85.5t50.5 -120h-92q-10 61 -61.5 106t-125.5 67t-141.5 32t-130.5 10q-53 0 -109 -8.5t-117 -30t-108.5 -54t-78.5 -86.5t-31 -122q0 -35 9 -64.5t22.5 -52t38 -41t45.5 -31t54.5 -22.5t56.5 -16
t61 -11t58 -7t56.5 -5t48.5 -4q22 -2 67 -7q74 -8 112 -12.5t103 -16.5t100 -26.5t80 -41t68 -60.5t39.5 -84.5t16.5 -113.5q0 -90 -32.5 -160.5t-86 -114.5t-128 -73.5t-152 -41t-164.5 -11.5q-73 0 -141.5 8t-142 29t-131 53.5t-103 86t-64.5 122.5h104zM539 1808h61
l105 -180l102 180h59l-106 -229h-115z" />
    <glyph glyph-name="Utilde" unicode="&#x168;" horiz-adv-x="1546" 
d="M190 1360h101v-711q0 -109 32 -211t91 -184t152.5 -132t207.5 -50q113 0 206.5 50t153 132.5t91.5 184.5t32 210v711h101v-711q0 -134 -40 -256t-113 -216.5t-185 -151t-246 -56.5t-245.5 56.5t-184.5 151t-113.5 217t-40.5 255.5v711zM569 1632v54q12 11 29 29.5t27 28
t26 17.5t35 8q32 0 65.5 -26.5t61.5 -53t45 -26.5q12 0 28.5 11t28 23.5t31.5 35.5t29 32v-57q-8 -8 -26 -28t-27 -28t-26.5 -16t-37.5 -8q-23 0 -48 16t-42.5 35.5t-40.5 35.5t-43 16q-16 0 -34 -16t-41.5 -43t-39.5 -40z" />
    <glyph glyph-name="utilde" unicode="&#x169;" horiz-adv-x="1546" 
d="M190 1360h101v-711q0 -109 32 -211t91 -184t152.5 -132t207.5 -50q113 0 206.5 50t153 132.5t91.5 184.5t32 210v711h101v-711q0 -134 -40 -256t-113 -216.5t-185 -151t-246 -56.5t-245.5 56.5t-184.5 151t-113.5 217t-40.5 255.5v711zM569 1632v54q12 11 29 29.5
t26.5 28t26 17.5t35.5 8q32 0 65.5 -26.5t61.5 -53t45 -26.5q12 0 28.5 11t28 23.5t31.5 35.5t29 32v-57q-10 -9 -27 -28t-26.5 -27.5t-26.5 -16.5t-37 -8q-23 0 -48 16t-43 35.5t-40.5 35.5t-42.5 16q-16 0 -34 -16t-41.5 -43t-39.5 -40z" />
    <glyph glyph-name="Umacron" unicode="&#x16a;" horiz-adv-x="1546" 
d="M190 1360h101v-711q0 -109 32 -211t91 -184t152.5 -132t207.5 -50q113 0 206.5 50t153 132.5t91.5 184.5t32 210v711h101v-711q0 -134 -40 -256t-113 -216.5t-185 -151t-246 -56.5t-245.5 56.5t-184.5 151t-113.5 217t-40.5 255.5v711zM578 1651v88h389v-88h-389z" />
    <glyph glyph-name="umacron" unicode="&#x16b;" horiz-adv-x="1546" 
d="M190 1360h101v-711q0 -109 32 -211t91 -184t152.5 -132t207.5 -50q113 0 206.5 50t153 132.5t91.5 184.5t32 210v711h101v-711q0 -134 -40 -256t-113 -216.5t-185 -151t-246 -56.5t-245.5 56.5t-184.5 151t-113.5 217t-40.5 255.5v711zM578 1651v88h389v-88h-389z" />
    <glyph glyph-name="Uring" unicode="&#x16e;" horiz-adv-x="1546" 
d="M190 1360h101v-711q0 -109 32 -211t91 -184t152.5 -132t207.5 -50q113 0 206.5 50t153 132.5t91.5 184.5t32 210v711h101v-711q0 -134 -40 -256t-113 -216.5t-185 -151t-246 -56.5t-245.5 56.5t-184.5 151t-113.5 217t-40.5 255.5v711zM664 1696q0 52 29 83t81 31
q51 0 81 -31t30 -83q0 -53 -30 -85t-81 -32q-52 0 -81 32t-29 85zM707 1694q0 -24 14.5 -45t52.5 -21q37 0 51.5 21t14.5 47q0 22 -15 43.5t-51 21.5q-67 0 -67 -67z" />
    <glyph glyph-name="uring" unicode="&#x16f;" horiz-adv-x="1546" 
d="M190 1360h101v-711q0 -109 32 -211t91 -184t152.5 -132t207.5 -50q113 0 206.5 50t153 132.5t91.5 184.5t32 210v711h101v-711q0 -134 -40 -256t-113 -216.5t-185 -151t-246 -56.5t-245.5 56.5t-184.5 151t-113.5 217t-40.5 255.5v711zM664 1696q0 52 29 83t81 31
q51 0 81 -31t30 -83q0 -53 -30.5 -85t-82.5 -32q-50 0 -79 32t-29 85zM707 1694q0 -66 65 -66q37 0 52.5 21.5t15.5 46.5q0 22 -15.5 43.5t-52.5 21.5q-65 0 -65 -67z" />
    <glyph glyph-name="Wcircumflex" unicode="&#x174;" horiz-adv-x="1654" 
d="M100 1360h95l151 -1266l408 1016h137l436 -1016l137 1266h90l-145 -1360h-154l-430 1012l-419 -1012h-154zM662 1579l106 229h119l106 -229h-61l-105 180l-102 -180h-63z" />
    <glyph glyph-name="wcircumflex" unicode="&#x175;" horiz-adv-x="1654" 
d="M195 1360l151 -1266l408 1016h137l436 -1016l137 1266h90l-145 -1360h-154l-430 1012l-419 -1012h-154l-152 1360h95zM662 1579l106 229h119l106 -229h-63l-103 180l-102 -180h-63z" />
    <glyph glyph-name="Ycircumflex" unicode="&#x176;" horiz-adv-x="1241" 
d="M621 582l452 778h117l-518 -885v-475h-103v475l-518 885h111zM455 1579l106 229h117l106 -229h-61l-105 180l-102 -180h-61z" />
    <glyph glyph-name="ycircumflex" unicode="&#x177;" horiz-adv-x="1241" 
d="M621 582l452 778h117l-518 -885v-475h-103v475l-518 885h111zM457 1579l106 229h115l106 -229h-61l-102 180l-105 -180h-59z" />
    <glyph glyph-name="Ydieresis" unicode="&#x178;" horiz-adv-x="1241" 
d="M621 582l452 778h117l-518 -885v-475h-103v475l-518 885h111zM422 1679q0 78 72 78q38 0 58.5 -20.5t20.5 -57.5q0 -34 -20.5 -52.5t-58.5 -18.5q-72 0 -72 71zM668 1679q0 74 73 74q78 0 78 -74q0 -36 -20 -55.5t-58 -19.5q-73 0 -73 75z" />
    <glyph glyph-name="Zacute" unicode="&#x179;" horiz-adv-x="1497" 
d="M152 115l1058 1153h-1032v92h1143v-117l-1061 -1151h1086v-92h-1194v115zM639 1577l106 231h115l-160 -231h-61z" />
    <glyph glyph-name="zacute" unicode="&#x17a;" horiz-adv-x="1497" 
d="M1210 1268h-1032v92h1143v-117l-1061 -1151h1086v-92h-1194v115zM639 1577l106 231h115l-160 -231h-61z" />
    <glyph glyph-name="Zdotaccent" unicode="&#x17b;" horiz-adv-x="1497" 
d="M152 0v115l1058 1153h-1032v92h1143v-117l-1061 -1151h1086v-92h-1194zM674 1694q0 34 19 53.5t55 19.5t56.5 -19.5t20.5 -53.5q0 -37 -20 -56.5t-57 -19.5q-36 0 -55 20.5t-19 55.5z" />
    <glyph glyph-name="zdotaccent" unicode="&#x17c;" horiz-adv-x="1497" 
d="M152 0v115l1058 1153h-1032v92h1143v-117l-1061 -1151h1086v-92h-1194zM674 1694q0 34 19.5 53.5t54.5 19.5q38 0 57.5 -19.5t19.5 -53.5q0 -76 -77 -76q-36 0 -55 20.5t-19 55.5z" />
    <glyph glyph-name="Zcaron" unicode="&#x17d;" horiz-adv-x="1497" 
d="M152 0v115l1058 1153h-1032v92h1143v-117l-1061 -1151h1086v-92h-1194zM584 1808h63l103 -180l104 180h61l-106 -229h-119z" />
    <glyph glyph-name="zcaron" unicode="&#x17e;" horiz-adv-x="1497" 
d="M152 115l1058 1153h-1032v92h1143v-117l-1061 -1151h1086v-92h-1194v115zM584 1808h63l103 -180l102 180h63l-106 -229h-119z" />
    <glyph glyph-name="circumflex" unicode="&#x2c6;" horiz-adv-x="532" 
d="M117 1090l106 229h119l107 -229h-62l-104 180l-103 -180h-63z" />
    <glyph glyph-name="caron" unicode="&#x2c7;" horiz-adv-x="532" 
d="M180 1319l103 -178l104 178h62l-107 -229h-119l-106 229h63z" />
    <glyph glyph-name="dotaccent" unicode="&#x2d9;" horiz-adv-x="219" 
d="M43 1204q0 74 74 74q78 0 78 -74q0 -36 -20 -56t-58 -20q-36 0 -55 20.5t-19 55.5z" />
    <glyph glyph-name="ring" unicode="&#x2da;" horiz-adv-x="524" 
d="M221 1090q-52 0 -81 31.5t-29 84.5q0 52 29.5 84.5t80.5 32.5t81 -32t30 -85t-30 -84.5t-81 -31.5zM154 1204q0 -22 15.5 -42.5t51.5 -20.5q38 0 52 20t14 45t-14 45.5t-52 20.5q-37 0 -52 -21t-15 -47z" />
    <glyph glyph-name="tilde" unicode="&#x2dc;" horiz-adv-x="509" 
d="M162 1280q32 0 65 -26.5t60.5 -53t44.5 -26.5q12 0 28.5 11t28 23.5t31.5 35.5t29 32v-55q-8 -8 -26 -28t-27 -28t-26.5 -16t-37.5 -8q-29 0 -60 25t-60 50t-54 25q-16 0 -33.5 -15t-41 -41t-40.5 -40v51q13 11 36.5 37.5t40.5 36.5t42 10z" />
    <glyph glyph-name="Wgrave" unicode="&#x1e80;" horiz-adv-x="1654" 
d="M346 94l408 1016h137l436 -1016l137 1266h90l-145 -1360h-154l-430 1012l-419 -1012h-154l-152 1360h95zM717 1806h114l107 -231h-61z" />
    <glyph glyph-name="wgrave" unicode="&#x1e81;" horiz-adv-x="1654" 
d="M346 94l408 1016h137l436 -1016l137 1266h90l-145 -1360h-154l-430 1012l-419 -1012h-154l-152 1360h95zM717 1806h114l107 -231h-61z" />
    <glyph glyph-name="Wacute" unicode="&#x1e82;" horiz-adv-x="1654" 
d="M346 94l408 1016h137l436 -1016l137 1266h90l-145 -1360h-154l-430 1012l-419 -1012h-154l-152 1360h95zM717 1577l106 231h115l-160 -231h-61z" />
    <glyph glyph-name="wacute" unicode="&#x1e83;" horiz-adv-x="1654" 
d="M346 94l408 1016h137l436 -1016l137 1266h90l-145 -1360h-154l-430 1012l-419 -1012h-154l-152 1360h95zM717 1577l106 231h115l-160 -231h-61z" />
    <glyph glyph-name="Wdieresis" unicode="&#x1e84;" horiz-adv-x="1654" 
d="M100 1360h95l151 -1266l408 1016h137l436 -1016l137 1266h90l-145 -1360h-154l-430 1012l-419 -1012h-154zM631 1679q0 78 71 78q38 0 59 -20.5t21 -57.5q0 -34 -21 -52.5t-59 -18.5q-71 0 -71 71zM874 1679q0 35 19.5 54.5t54.5 19.5q80 0 80 -74q0 -75 -80 -75
q-36 0 -55 20t-19 55z" />
    <glyph glyph-name="wdieresis" unicode="&#x1e85;" horiz-adv-x="1654" 
d="M100 1360h95l151 -1266l408 1016h137l436 -1016l137 1266h90l-145 -1360h-154l-430 1012l-419 -1012h-154zM629 1679q0 78 73 78q38 0 58 -20.5t20 -57.5q0 -71 -78 -71q-73 0 -73 71zM874 1679q0 74 74 74q38 0 59 -19.5t21 -54.5t-21 -55t-59 -20q-36 0 -55 20t-19 55z
" />
    <glyph glyph-name="uni1E9E" unicode="&#x1e9e;" horiz-adv-x="1097" 
d="M535 78q69 0 132 13t123 43t96 88.5t36 139.5q0 256 -371 273q-47 2 -135 2v88h45q46 0 78 1t79 7t80 16t69.5 30t59 48t37.5 70t15 96q0 63 -21 113.5t-55 83.5t-81 55t-96.5 31.5t-103.5 9.5l-342 -6l-2 -1532l-121 2v1639h478q95 0 176.5 -22.5t145 -67t100 -118.5
t36.5 -171q0 -216 -182 -322q223 -104 223 -340q0 -99 -42 -174.5t-114 -119t-158 -64.5t-183 -21h-2v109z" />
    <glyph glyph-name="Ygrave" unicode="&#x1ef2;" horiz-adv-x="1241" 
d="M621 582l452 778h117l-518 -885v-475h-103v475l-518 885h111zM479 1806h115l106 -231h-59z" />
    <glyph glyph-name="ygrave" unicode="&#x1ef3;" horiz-adv-x="1241" 
d="M621 582l452 778h117l-518 -885v-475h-103v475l-518 885h111zM479 1806h115l106 -231h-59z" />
    <glyph glyph-name="endash" unicode="&#x2013;" horiz-adv-x="2025" 
d="M190 637v88h1647v-88h-1647z" />
    <glyph glyph-name="emdash" unicode="&#x2014;" horiz-adv-x="2584" 
d="M190 637v88h2206v-88h-2206z" />
    <glyph glyph-name="quoteleft" unicode="&#x2018;" horiz-adv-x="438" 
d="M180 1098q53 -16 56 -17q28 -11 40 -20q35 -25 35 -82q0 -51 -22.5 -82t-65.5 -31q-50 0 -73 41.5t-23 106.5q0 144 90 278q-30 -82 -51 -168l-6 -22z" />
    <glyph glyph-name="quoteright" unicode="&#x2019;" horiz-adv-x="438" 
d="M160 1194q-33 23 -33 82q0 51 22 82t64 31q51 0 74.5 -41.5t23.5 -106.5q0 -141 -94 -276q19 45 55 165l7 23l-23 4q-7 2 -26.5 8t-28.5 9q-5 3 -20 10t-21 10z" />
    <glyph glyph-name="quotesinglbase" unicode="&#x201a;" horiz-adv-x="438" 
d="M160 283q-33 23 -33 84q0 51 22 81.5t64 30.5q50 0 74 -43t24 -108q0 -140 -96 -281q24 55 57 168l7 23l-21 6q-45 14 -57 18q-10 3 -41 21z" />
    <glyph glyph-name="quotedblleft" unicode="&#x201c;" horiz-adv-x="997" 
d="M127 1014q0 144 90 278q-30 -82 -51 -168l-6 -22l20 -4q53 -16 56 -17q28 -11 40 -20q35 -25 35 -82q0 -51 -22.5 -82t-65.5 -31q-50 0 -73 41.5t-23 106.5zM688 1014q0 146 92 278q-8 -19 -55 -168l-4 -22l20 -4q53 -16 56 -17q27 -9 41 -20q32 -22 32 -82
q0 -52 -22 -82.5t-66 -30.5q-48 0 -71 42.5t-23 105.5z" />
    <glyph glyph-name="quotedblright" unicode="&#x201d;" horiz-adv-x="997" 
d="M127 1276q0 51 22 82t64 31q49 0 73.5 -42.5t24.5 -105.5q0 -141 -94 -276q19 45 55 165l7 23l-23 4q-7 2 -26.5 8t-28.5 9q-5 3 -20 10t-21 10q-33 23 -33 82zM688 1276q0 51 22.5 82t65.5 31q49 0 71.5 -42t22.5 -106q0 -138 -90 -274q26 70 51 163l7 23l-21 4l-55 17
q-36 18 -41 22q-33 22 -33 80z" />
    <glyph glyph-name="quotedblbase" unicode="&#x201e;" horiz-adv-x="997" 
d="M160 283q-33 23 -33 84q0 51 22 81.5t62 30.5q51 0 75.5 -43.5t24.5 -109.5q0 -138 -96 -279q23 50 57 168l7 23l-21 6q-45 14 -57 18q-10 3 -41 21zM688 367q0 51 22 81.5t64 30.5q50 0 73 -43t23 -110q0 -138 -92 -279q34 94 53 168l7 23l-19 6q-64 20 -98 39
q-33 26 -33 84z" />
    <glyph glyph-name="dagger" unicode="&#x2020;" horiz-adv-x="677" 
d="M391 1669v-944h348v-88h-348v-946h-102v946h-350v88h350v944h102z" />
    <glyph glyph-name="bullet" unicode="&#x2022;" horiz-adv-x="634" 
d="M127 680q0 97 49 156t139 59q91 0 142 -59.5t51 -155.5q0 -98 -50.5 -156.5t-142.5 -58.5q-90 0 -139 58.5t-49 156.5z" />
    <glyph glyph-name="ellipsis" unicode="&#x2026;" horiz-adv-x="1581" 
d="M1233 78q0 50 23 78t67 28q46 0 70 -28t24 -78q0 -52 -24 -80.5t-70 -28.5q-45 0 -67.5 29t-22.5 80zM166 78q0 50 23 78t65 28q47 0 71.5 -28t24.5 -78q0 -52 -24.5 -80.5t-71.5 -28.5q-43 0 -65.5 29t-22.5 80zM700 78q0 50 22.5 78t65.5 28q47 0 72 -28t25 -78
q0 -52 -25 -80.5t-72 -28.5q-88 0 -88 109z" />
    <glyph glyph-name="guilsinglleft" unicode="&#x2039;" horiz-adv-x="776" 
d="M29 655l682 336v-114l-463 -222l463 -221v-115z" />
    <glyph glyph-name="guilsinglright" unicode="&#x203a;" horiz-adv-x="800" 
d="M59 877v114l682 -336l-682 -336v115l463 221z" />
    <glyph glyph-name="Euro" unicode="&#x20ac;" horiz-adv-x="1390" 
d="M63 637v88h136l4 20q18 138 66 253t125 203.5t189.5 138t250.5 49.5q280 0 456 -185l-86 -76q-72 76 -167 117t-199 41q-98 0 -183.5 -35t-147.5 -96t-105 -141t-66 -174l-25 -115h697v-88h-697l6 -29q16 -77 19 -88q47 -195 178.5 -318.5t325.5 -123.5q102 0 197 39.5
t167 111.5l86 -75q-89 -92 -207.5 -138.5t-251.5 -46.5q-137 0 -249.5 50t-189 139t-124.5 204.5t-65 253.5l-4 21h-136z" />
    <glyph glyph-name="uni2120" unicode="&#x2120;" horiz-adv-x="1601" 
d="M162 862q8 -40 53 -65t89 -32t89 -7q33 0 66.5 6t67.5 19.5t55.5 39t21.5 60.5q0 110 -186 110l-99 8q-57 3 -96 11.5t-75 28t-54 56.5t-18 91q0 113 80 166t206 53q56 0 109 -11t100.5 -33.5t78.5 -62t36 -90.5h-100q-6 31 -29.5 53t-57.5 32.5t-65.5 15t-62.5 4.5
q-32 0 -62.5 -5t-62 -16.5t-51 -36t-19.5 -59.5q0 -73 100 -96q27 -6 183 -15q56 -4 94.5 -13t75 -29.5t55 -58t18.5 -93.5q0 -117 -86.5 -172t-218.5 -55q-56 0 -110 10.5t-104 32.5t-82.5 61.5t-37.5 91.5h99zM786 666v735h78l269 -357l262 357h82v-735h-78v626l-236 -327
h-67l-232 327v-626h-78z" />
    <glyph glyph-name="trademark" unicode="&#x2122;" horiz-adv-x="1513" 
d="M676 1409h78l268 -356l262 356h82v-729h-78v620l-235 -327h-68l-231 327v-620h-78v729zM63 1313v92h545v-92h-217v-633h-106v633h-222z" />
    <glyph glyph-name="minus" unicode="&#x2212;" horiz-adv-x="1323" 
d="M190 637v88h945v-88h-945z" />
    <glyph glyph-name="_Designova" horiz-adv-x="1435" 
d="M717 39q-166 0 -308 83t-224.5 225t-82.5 308q1 125 50 238t131.5 195.5t196.5 131t239 48.5q166 0 307.5 -82t224 -223.5t82.5 -307.5q0 -167 -82.5 -309t-224.5 -224.5t-309 -82.5zM176 655q0 -148 72.5 -273t197.5 -197t273 -72q146 0 270.5 72t197.5 196.5t73 271.5
q0 148 -72.5 273t-197 197.5t-271.5 72.5t-272 -72.5t-198 -197t-73 -271.5zM369 762q8 0 12 -4q63 -22 111 -29q41 -3 77 2q34 8 49 14q5 0 11.5 3.5t7.5 3.5q-7 4 -22 11.5t-25.5 14.5t-18.5 17h21q37 0 82 18q83 51 151 70q27 8 62 8q7 0 24 1.5t25 0.5q65 -4 96 -37
q9 -6 33 -35v-2q-4 2 -6 2q-52 20 -92 5.5t-68 -56.5q-3 -4 -29 -65q-49 -113 -53 -121q-28 -63 -69 -113q-16 -23 -70 -63q-57 -40 -131 -60h-6l26 23q16 14 29 49q4 12 22.5 63t26.5 78q35 96 62 144q-7 -7 -11 -13q-9 -9 -10 -14q-19 -21 -35 -62q-4 -6 -10 -6
q-114 6 -195 76l-61 59q-3 3 -8 8.5t-8 8.5z" />
    <glyph glyph-name="_Origin" horiz-adv-x="1918" 
d="M102 41v1178h1715v-1176l-43 -2v2zM147 84h1627v641h-1627v-641zM297 229v131h31v-131h-31zM301 905h70q60 0 86 41q10 18 10 47q0 56 -45 78q-18 10 -49 10h-72v-176zM319 451v129h111v-23h-80v-29h72v-22h-72v-33h80v-22h-111zM342 938v111h27q37 0 51 -23q6 -24 6 -33
q0 -37 -27 -49q-12 -6 -30 -6h-27zM348 229v131h25l65 -77v77h31v-131h-25l-65 82v-82h-31zM451 451v129h26l66 -78v78h28v-129h-24l-66 79v-79h-30zM483 971q0 -46 35 -60q10 -6 39 -6q38 0 55 17q11 15 13 22l-39 2q-3 -8 -17 -14h-12q-23 0 -29 14q-6 9 -6 17h103v10
q0 33 -21 51q-19 16 -49 16q-42 0 -63 -32q-9 -22 -9 -37zM522 985q3 16 17 23q6 6 16 6q24 0 27 -17q4 -4 4 -12h-64zM537 229v131h65q53 0 53 -32q0 -22 -18 -29q2 0 2 -2q20 -7 20 -31q0 -37 -53 -37h-69zM567 254h37q25 0 25 16q0 15 -25 15h-37v-31zM567 311h33
q25 0 25 15q0 16 -25 16h-33v-31zM594 557v23h115v-23h-43v-106h-29v106h-43zM637 944q6 -39 68 -39q41 0 59 21q6 9 6 20q0 29 -41 37l-29 4q-18 3 -18 14q0 13 23 13q24 0 24 -15l39 2q-7 39 -63 39q-39 0 -56 -20q-8 -8 -8 -21q0 -30 41 -38l27 -5q20 -3 20 -12
q0 -14 -24 -14t-27 16zM674 229v131h108v-24h-80v-27h72v-24h-72v-29h78v-27h-106zM721 580h33l30 -91l31 91h27l30 -93l31 93h29l-41 -129h-35l-29 88l-28 -88h-33zM786 905h43v133h-43v-133zM786 1073q0 -7 7 -12.5t16 -5.5t15.5 5.5t6.5 12.5q0 8 -6.5 13.5t-15.5 5.5
t-16 -6t-7 -13zM803 229v131h61q21 0 29 -4q29 -14 29 -43q0 -12 -9 -24q-18 -18 -20 -19l27 -41h-33l-25 39h-26v-39h-33zM836 293h26q29 0 29 20q0 23 -29 23h-26v-43zM848 973q0 -46 31 -58q12 -6 30 -6q22 0 33 11q8 4 8 10h2v-25q0 -24 -30 -24q-19 0 -27 8l-4 8
l-39 -6q3 -16 21 -26.5t47 -10.5q43 0 63 23q10 10 10 28v133h-41v-22h-2q-3 14 -22 20q-8 4 -19 4q-38 0 -53 -30q-8 -13 -8 -37zM891 973q0 24 12 33q9 6 19 6q18 0 28 -21q0 -2 1 -8.5t1 -9.5q0 -37 -30 -37q-20 0 -29 18q-2 4 -2 19zM936 229v131h29v-104h77v-27h-106z
M938 516q0 27 20 47q18 21 52 21q33 0 51 -21q20 -20 20 -47q0 -26 -20 -49q-18 -18 -51 -18q-34 0 -52 18q-20 23 -20 49zM969 516q0 -19 11 -31t30 -12t30 12t11 31t-11 31t-30 12t-30 -12t-11 -31zM1018 905h41v78q0 17 14 23q4 4 14 4q25 0 25 -27v-78h43v84
q0 34 -25 43q-11 8 -26 8q-32 0 -45 -26v24h-41v-133zM1065 229v131h31v-131h-31zM1100 451v129h57q23 0 31 -2q26 -14 26 -43q0 -15 -6 -27q-7 -10 -22 -16l28 -41h-32l-25 36h-29v-36h-28zM1116 229v131h27l63 -77v77h33v-131h-27l-65 82v-82h-31zM1128 512h27q29 0 29 23
q0 22 -29 22h-27v-45zM1174 971q0 -42 34 -60q10 -6 39 -6q44 0 66 31q8 20 8 35q0 40 -35 61q-24 8 -39 8q-44 0 -65 -32q-8 -20 -8 -37zM1217 973q0 24 12 33q9 6 18 6q20 0 27 -21q4 -8 4 -18q0 -27 -14 -35q-6 -6 -17 -6q-18 0 -28 20q-2 6 -2 21zM1231 451v129h108v-23
h-77v-29h69v-22h-69v-55h-31zM1257 248q0 18 19 18q8 0 13 -5t5 -13q0 -7 -6 -19l-10 -28h-18l8 30q-11 4 -11 17zM1321 1038l53 -133h45l54 133h-43l-31 -94h-2l-31 94h-45zM1352 451v129h108v-23h-78v-29h70v-22h-70v-33h78v-22h-108zM1368 229v131h59q23 0 39 -8
q33 -13 33 -55q0 -24 -8 -37q-17 -31 -64 -31h-59zM1399 256h26q17 0 25 4q18 12 18 37q0 16 -4 20q-10 19 -39 19h-26v-80zM1475 944q0 -29 22 -35q8 -4 27 -4q22 0 35 8l8 13h2v-21h37v90q0 21 -17 35q-23 10 -45 10q-35 0 -53 -18q-9 -9 -12 -21l39 -4q4 17 26 17
q21 0 21 -17v-2q0 -7 -15 -10q-12 0 -20 -2q-22 0 -39 -10q-16 -8 -16 -29zM1483 451v129h22l68 -78v78h31v-129h-27l-66 79v-79h-28zM1513 944q0 8 13 14q3 3 12 3q3 1 14.5 3t14.5 3v-13q0 -15 -17 -22q-1 0 -6 -1t-10 -1q-21 0 -21 14zM1518 229v131h108v-24h-78v-27h70
v-24h-70v-29h78v-27h-108z" />
    <glyph glyph-name="_Typeface" horiz-adv-x="1718" 
d="M102 365v553h1514v-553h-1514zM268 510h35v211l174 -211h35v264h-35v-209l-174 209h-35v-264zM569 643q0 -56 35 -97.5t92 -41.5q59 0 94 41.5t35 97.5t-35 96.5t-94 40.5q-57 0 -92 -41.5t-35 -95.5zM608 643q0 40 24 71t64 31t65 -31t25 -71q0 -41 -24.5 -72.5
t-65.5 -31.5q-40 0 -64 31.5t-24 72.5zM887 510h35v117h104l64 -117h38l-65 117h12q30 1 46 22.5t16 50.5q0 31 -19 52.5t-53 21.5h-178v-264zM922 657v84h143q18 0 27.5 -12.5t9.5 -30.5q0 -41 -37 -41h-143zM1202 510h123q58 0 92.5 39t34.5 94t-34.5 93t-92.5 38h-123
v-264zM1239 543v198h86q41 0 64.5 -29.5t23.5 -68.5q0 -41 -23.5 -70.5t-64.5 -29.5h-86z" />
    <glyph glyph-name="_VendorID" horiz-adv-x="1132" 
d="M102 147v1131h928v-1131h-928zM106 61q0 11 8 19t17 8q8 0 10 -4l4 -4v24h13v-69h-13v10l-4 -8q-4 -4 -14 -4q-21 0 -21 28zM119 61q0 -16 12 -16q14 0 14 16q0 17 -12 17q-14 0 -14 -17zM168 61q0 11 7.5 19t17.5 8t17 -8t7 -19q0 -2 -2 -4h-35q2 -12 13 -12q10 0 12 8
h10q-3 -20 -22 -20q-25 0 -25 28zM180 63h25q-3 15 -12 15q-10 0 -13 -15zM221 49h15q4 -8 8 -8q8 0 8 8q0 1 -10 8q-19 3 -19 15q0 16 21 16q20 0 20 -16h-14q0 6 -6 6t-6 -4t10 -11q16 -3 16 -14q0 -16 -20 -16t-23 16zM262 434q0 -58 40 -98.5t99 -40.5q57 0 96.5 40.5
t39.5 98.5q0 59 -38 98t-98 39q-16 0 -22 -2l80 115h-62l-92 -131q-43 -61 -43 -119zM262 883q0 -57 40.5 -97.5t98.5 -40.5q57 0 96.5 40t39.5 98q0 59 -38 98t-98 39q-16 0 -22 -2l80 117h-62l-92 -136q-43 -64 -43 -116zM272 35v53h15v-53h-15zM272 98q0 6 9 6q6 0 6 -6
q0 -8 -6 -8q-9 0 -9 8zM309 33q0 -8 13 -8q10 0 14 12v8l-4 -8q-2 0 -6.5 -1t-6.5 -1q-22 0 -22 26q0 12 7 19.5t18 7.5q8 0 10 -4l4 -4v8h14v-39q0 -8 -2 -12q0 -23 -26 -23q-25 0 -25 19h12zM309 61q0 -16 13 -16q14 0 14 16q0 17 -14 17q-13 0 -13 -17zM313 434
q0 37 25 61.5t63 24.5q37 0 61.5 -24.5t24.5 -61.5q0 -39 -24.5 -64.5t-61.5 -25.5q-39 0 -63.5 24.5t-24.5 65.5zM313 883q0 39 24.5 63.5t63.5 24.5q37 0 61.5 -25t24.5 -63t-24.5 -63t-61.5 -25q-39 0 -63.5 24.5t-24.5 63.5zM360 35v53h13v-10l4 6q4 4 12 4q15 0 19 -14
q2 -4 2 -11v-28h-15v33q0 10 -10 10q-12 0 -12 -19v-24h-13zM416 61q0 11 7 19t19 8t19.5 -8t7.5 -19q0 -12 -7.5 -20t-19.5 -8t-19 8t-7 20zM430 61q0 -16 12 -16q15 0 15 16q0 17 -15 17q-12 0 -12 -17zM473 88h14l13 -43l12 43h14l-18 -53h-19zM530 49q0 17 29 17h2v6
q0 6 -8 6q-10 0 -10 -8h-13q0 18 23 18q17 0 20 -14v-39h-12v6l-2 -4q-8 -4 -14 -4q-5 0 -10 4.5t-5 11.5zM543 49q0 -4 8 -4q10 0 10 8v6q-18 0 -18 -10zM582 76v10h6v6q0 14 18 14h4v-10q-10 3 -10 -4v-6h10v-10h-10v-41h-12v41h-6zM594 434q0 -58 40 -98.5t99 -40.5
q57 0 96 40t39 99t-38.5 98t-96.5 39q-16 0 -24 -2l82 115h-62l-92 -131q-43 -61 -43 -119zM594 883q0 -58 40 -98t99 -40q57 0 96 40t39 98q0 59 -38.5 98t-96.5 39q-16 0 -24 -2l82 117h-62l-92 -136q-43 -62 -43 -116zM614 61q0 11 7 19t20 8q12 0 19.5 -8t7.5 -19
q0 -12 -7.5 -20t-19.5 -8q-27 0 -27 28zM629 61q0 -16 12 -16t12 16q0 17 -12 17t-12 -17zM645 434q0 37 24.5 61.5t63.5 24.5q36 0 59 -24.5t23 -61.5q0 -40 -22.5 -65t-59.5 -25q-39 0 -63.5 24.5t-24.5 65.5zM645 883q0 39 24.5 63.5t63.5 24.5q36 0 59 -24.5t23 -63.5
t-23 -63.5t-59 -24.5q-39 0 -63.5 24.5t-24.5 63.5zM676 35v53h12v-10l4 6q4 4 13 4q15 0 18 -14v-39h-12v33q-3 10 -9 10q-14 0 -14 -19v-24h-12zM731 76v10h6v12h15v-12h8v-10h-8v-27q0 -9 8 -4v-10h-8q-15 0 -15 10v31h-6zM764 49h14q4 -8 10 -8q9 0 9 8q0 2 -1 3t-5 2.5
t-7 2.5q-16 3 -16 15q0 16 18 16q19 0 25 -16h-16q0 6 -9 6q-4 0 -4 -4q0 -6 11 -11q18 -5 18 -14q0 -16 -23 -16q-18 0 -24 16zM813 41q0 8 10 8q8 0 8 -8t-8 -8q-10 0 -10 8zM838 61q0 12 7.5 19.5t16.5 7.5q23 0 23 -20h-13q-2 10 -10 10q-12 0 -12 -17q0 -16 12 -16
q8 0 10 8h13q0 -20 -23 -20q-24 0 -24 28zM891 61q0 11 7 19t20 8q24 0 24 -27q0 -28 -24 -28q-27 0 -27 28zM903 61q0 -16 15 -16q12 0 12 16q0 17 -12 17q-15 0 -15 -17zM952 35v53h13v-10l6 6q2 4 8 4q13 0 16 -10l6 6q2 4 11 4q6 0 11 -4t5 -8v-13v-28h-12v26v9
q0 8 -10 8q-9 0 -9 -17v-26h-12v35q-5 8 -10 8q-10 0 -10 -17v-26h-13z" />
    </font>
</defs>
</svg>
