<?xml version="1.0" standalone="no"?>
<!DOCTYPE svg PUBLIC "-//W3C//DTD SVG 1.1//EN" "http://www.w3.org/Graphics/SVG/1.1/DTD/svg11.dtd" >
<svg xmlns="http://www.w3.org/2000/svg" xmlns:xlink="http://www.w3.org/1999/xlink" version="1.1">
<metadata>
Created by FontForge 20201107 at Tue May 28 21:44:45 2024
 By 
Copyright (c) 2024 by Designova. All rights reserved.
</metadata>
<defs>
<font id="NORD-Black" horiz-adv-x="1652" >
  <font-face 
    font-family="NORD Black"
    font-weight="900"
    font-stretch="normal"
    units-per-em="2048"
    panose-1="0 0 0 0 0 0 0 0 0 0"
    ascent="1638"
    descent="-410"
    x-height="1360"
    cap-height="1360"
    bbox="6 -440 2480 1896"
    underline-thickness="102"
    underline-position="-255"
    unicode-range="U+0020-2212"
  />
<missing-glyph horiz-adv-x="1458" 
d="M102 0v1411h1254v-1411h-1254zM301 522l119 -116l305 305l311 -305l121 116l-307 309l303 308l-117 116l-311 -305l-303 305l-121 -116l307 -308zM311 170h31v84h2l64 -84h28v131h-30v-82h-3l-65 82h-27v-131zM451 219q0 -30 24 -45q30 -6 31 -6q31 0 49 25q6 12 6 26
q0 32 -26 45q-12 6 -29 6q-37 0 -49 -24q-6 -12 -6 -27zM481 219q0 16 11 27q8 4 14 4q13 0 20 -14q2 -6 2 -17q0 -16 -10 -26q-2 0 -5.5 -1.5t-6.5 -1.5q-18 0 -21 15q-4 4 -4 14zM612 236q0 -44 33 -60q24 -8 39 -8q38 0 55 27q9 12 9 28v19h-62v-23h33q0 -15 -17 -22
q-6 -4 -18 -4q-25 0 -35 20q-4 6 -4 23q0 28 19 38q14 7 18 7q12 0 22 -6.5t11 -16.5h30q0 18 -20 35q-17 10 -43 10q-40 0 -59 -31q-11 -14 -11 -36zM766 170h29v131h-29v-131zM805 270l41 -102l-2 -4q-2 -12 -23 -8l-8 -19q12 -4 21 -4q21 0 32 14q4 2 8 13l44 110h-33
l-23 -73h-2l-22 73h-33zM928 133h30v53q8 -12 19 -14q4 -4 14 -4q27 0 39 25q6 8 6 26q0 32 -20 45q-12 6 -25 6q-16 0 -26 -10q-6 -6 -7 -8v18h-30v-137zM958 219q0 18 11 25q6 6 12 6q17 0 20 -14q5 -15 5 -17q0 -11 -11 -26l-14 -3q-14 0 -20 15q-3 6 -3 14zM1053 170h28
v57q0 15 11 19q4 2 12 2q18 0 18 -19v-59h33v63q0 24 -20 33q-8 4 -19 4q-26 0 -35 -18h-2v49h-26v-131z" />
    <glyph glyph-name=".notdef" horiz-adv-x="1458" 
d="M102 0v1411h1254v-1411h-1254zM301 522l119 -116l305 305l311 -305l121 116l-307 309l303 308l-117 116l-311 -305l-303 305l-121 -116l307 -308zM311 170h31v84h2l64 -84h28v131h-30v-82h-3l-65 82h-27v-131zM451 219q0 -30 24 -45q30 -6 31 -6q31 0 49 25q6 12 6 26
q0 32 -26 45q-12 6 -29 6q-37 0 -49 -24q-6 -12 -6 -27zM481 219q0 16 11 27q8 4 14 4q13 0 20 -14q2 -6 2 -17q0 -16 -10 -26q-2 0 -5.5 -1.5t-6.5 -1.5q-18 0 -21 15q-4 4 -4 14zM612 236q0 -44 33 -60q24 -8 39 -8q38 0 55 27q9 12 9 28v19h-62v-23h33q0 -15 -17 -22
q-6 -4 -18 -4q-25 0 -35 20q-4 6 -4 23q0 28 19 38q14 7 18 7q12 0 22 -6.5t11 -16.5h30q0 18 -20 35q-17 10 -43 10q-40 0 -59 -31q-11 -14 -11 -36zM766 170h29v131h-29v-131zM805 270l41 -102l-2 -4q-2 -12 -23 -8l-8 -19q12 -4 21 -4q21 0 32 14q4 2 8 13l44 110h-33
l-23 -73h-2l-22 73h-33zM928 133h30v53q8 -12 19 -14q4 -4 14 -4q27 0 39 25q6 8 6 26q0 32 -20 45q-12 6 -25 6q-16 0 -26 -10q-6 -6 -7 -8v18h-30v-137zM958 219q0 18 11 25q6 6 12 6q17 0 20 -14q5 -15 5 -17q0 -11 -11 -26l-14 -3q-14 0 -20 15q-3 6 -3 14zM1053 170h28
v57q0 15 11 19q4 2 12 2q18 0 18 -19v-59h33v63q0 24 -20 33q-8 4 -19 4q-26 0 -35 -18h-2v49h-26v-131z" />
    <glyph glyph-name=".null" horiz-adv-x="0" 
 />
    <glyph glyph-name=".null" horiz-adv-x="0" 
 />
    <glyph glyph-name="nonmarkingreturn" horiz-adv-x="682" 
 />
    <glyph glyph-name="space" unicode=" " horiz-adv-x="632" 
 />
    <glyph glyph-name="space" unicode="&#xa0;" horiz-adv-x="632" 
 />
    <glyph glyph-name="exclam" unicode="!" horiz-adv-x="768" 
d="M201 1057q0 -318 55 -596l4 -21h250l4 21q53 270 53 596v303h-366v-303zM166 190q0 -39 12.5 -75.5t37.5 -68.5t68.5 -51.5t100.5 -19.5t100.5 20t68.5 52t37.5 68.5t12.5 74.5t-12.5 74t-38 68t-69 51.5t-99.5 19.5q-109 0 -164 -64.5t-55 -148.5z" />
    <glyph glyph-name="quotedbl" unicode="&#x22;" horiz-adv-x="1120" 
d="M166 1120q0 -205 57 -348l6 -18h238l6 18q57 143 57 348v240h-364v-240zM592 1120q0 -200 59 -348l6 -18h234l8 18q59 148 59 348v240h-366v-240z" />
    <glyph glyph-name="numbersign" unicode="#" horiz-adv-x="1728" 
d="M274 0h349l53 276h168l-56 -276h351l53 276h248v304h-189l39 200h250v303h-190l53 277h-348l-54 -277h-167l53 277h-348l-52 -277h-247v-303h186l-39 -200h-248v-304h189zM735 580l39 200h168l-39 -200h-168z" />
    <glyph glyph-name="dollar" unicode="$" horiz-adv-x="1222" 
d="M455 -147h250v200q222 21 345.5 124t123.5 286q0 186 -122 275t-347 102v155q48 -11 79 -35.5t31 -56.5v-51h338v51q0 163 -124.5 269.5t-323.5 132.5v192h-250v-192q-203 -25 -315.5 -126t-112.5 -270q0 -173 109.5 -260.5t318.5 -105.5v-178q-49 13 -80 36t-31 54v51
h-338v-51q0 -162 124.5 -266.5t324.5 -131.5v-204zM367 909q0 65 88 84v-143q-40 8 -54 14q-34 17 -34 45zM705 358v177q49 -7 81 -17q50 -18 50 -55q0 -81 -131 -105z" />
    <glyph glyph-name="percent" unicode="%" horiz-adv-x="2021" 
d="M555 1511q-106 0 -190.5 -39.5t-135 -103t-76.5 -137.5t-26 -150q0 -78 25.5 -151.5t75 -136.5t134.5 -101.5t193 -38.5q109 0 194.5 38.5t134.5 101.5t74 136.5t25 151.5q0 77 -25.5 151t-75.5 137.5t-135 102.5t-192 39zM365 254l231 -234l1061 1086l-232 233z
M469 1081q0 49 22 82t64 33q44 0 66 -32.5t22 -82.5q0 -49 -22 -79.5t-66 -30.5q-43 0 -64.5 30.5t-21.5 79.5zM1036 276q0 -78 25.5 -151.5t75 -136.5t134.5 -101.5t193 -38.5q88 0 161.5 25.5t122 67.5t82.5 98.5t49 115.5t15 121q0 61 -15.5 120.5t-50 116t-83.5 99.5
t-122 69t-159 26q-106 0 -190.5 -39.5t-135 -103.5t-76.5 -138t-26 -150zM1378 276q0 49 22 82t64 33q44 0 66 -32.5t22 -82.5q0 -49 -22 -79.5t-66 -30.5q-42 0 -64 30.5t-22 79.5z" />
    <glyph glyph-name="ampersand" unicode="&#x26;" horiz-adv-x="1480" 
d="M1204 -57l213 274l-26 12q-85 42 -179 123q37 61 58 125q7 23 20.5 70t20.5 71l6 23l-334 78l-6 -27q-6 -29 -16 -63l-74 102q98 67 150.5 142.5t52.5 173.5q0 144 -110.5 240.5t-291.5 96.5t-293 -89.5t-112 -235.5q0 -118 104 -262q-260 -152 -260 -404
q0 -181 135.5 -300.5t360.5 -119.5q214 0 362 113q80 -71 195 -129zM489 403q0 83 89 152l178 -227q-72 -52 -144 -52q-60 0 -91.5 35t-31.5 92zM633 1071q0 19 16.5 30t42.5 11q68 0 68 -63q0 -23 -29 -52q-8 -9 -35 -32l-34 43q-29 44 -29 63z" />
    <glyph glyph-name="quotesingle" unicode="'" horiz-adv-x="694" 
d="M166 1120q0 -205 57 -348l6 -18h238l6 18q57 143 57 348v240h-364v-240z" />
    <glyph glyph-name="parenleft" unicode="(" horiz-adv-x="802" 
d="M342 1495q-215 -356 -215 -815t215 -815q57 -93 109 -148l20 -20l268 184l-14 19q-113 145 -173 363t-60 417t60 417t173 363l14 19l-268 184l-20 -21q-59 -64 -109 -147z" />
    <glyph glyph-name="parenright" unicode=")" horiz-adv-x="802" 
d="M63 -119l269 -184l20 20q56 59 107 148q217 360 217 815t-217 815q-45 79 -107 147l-20 21l-269 -184l15 -19q111 -145 170 -362.5t59 -417.5t-59 -417.5t-170 -362.5z" />
    <glyph glyph-name="asterisk" unicode="*" horiz-adv-x="1132" 
d="M711 1184v176h-293v-174q-15 10 -35 20q-15 9 -44 25.5t-44 25.5l-29 17l-139 -246l20 -12q15 -9 45 -28t44 -27q9 -5 27 -15.5t24 -13.5q-10 -5 -27.5 -14.5t-23.5 -12.5q-14 -8 -44 -27t-45 -28l-20 -12l137 -246l31 18q15 8 44 23.5t44 23.5q21 14 35 21v-174h293v176
q15 -10 37 -21q18 -9 50 -27.5t38 -21.5l30 -16l142 246l-21 10q-17 9 -47.5 28.5t-42.5 26.5l-51 27q28 18 51 29q12 7 42.5 26.5t47.5 28.5l21 12l-142 248l-30 -19q-36 -22 -88 -51z" />
    <glyph glyph-name="plus" unicode="+" horiz-adv-x="1482" 
d="M559 516v-391h367v391h368v330h-368v387h-367v-387h-369v-330h369z" />
    <glyph glyph-name="comma" unicode="," horiz-adv-x="768" 
d="M168 -143l158 -152l22 14q122 78 189 198t67 249q0 41 -9.5 79t-32 75.5t-68 60t-109.5 22.5q-109 0 -164 -64.5t-55 -148.5q0 -55 24 -104.5t76 -79.5q-33 -82 -84 -135z" />
    <glyph glyph-name="hyphen" unicode="-" horiz-adv-x="1361" 
d="M190 846v-330h981v330h-981z" />
    <glyph glyph-name="period" unicode="." horiz-adv-x="768" 
d="M385 403q-109 0 -164 -64.5t-55 -148.5q0 -39 12.5 -75.5t37.5 -68.5t68.5 -51.5t100.5 -19.5t100.5 20t68.5 52t37.5 68.5t12.5 74.5t-12.5 74t-38 68t-69 51.5t-99.5 19.5z" />
    <glyph glyph-name="slash" unicode="/" horiz-adv-x="1290" 
d="M100 -45l303 -154l787 1604l-305 154z" />
    <glyph glyph-name="zero" unicode="0" horiz-adv-x="1605" 
d="M803 1384q-147 0 -261.5 -43.5t-183.5 -112t-114 -163.5t-61.5 -188.5t-16.5 -196.5q0 -73 8 -141t28.5 -139.5t52.5 -132.5t82.5 -115.5t115 -93t154 -61t196.5 -22.5q147 0 261.5 43.5t184 112.5t114.5 164t62 188.5t17 196.5q0 104 -16.5 197.5t-61.5 188.5
t-114.5 163.5t-184 111.5t-262.5 43zM543 680q0 54 6 100.5t23 97t44.5 85.5t75.5 58t111 23q258 0 258 -364q0 -363 -258 -363q-260 0 -260 363z" />
    <glyph glyph-name="one" unicode="1" horiz-adv-x="745" 
d="M190 1360v-1360h367v1360h-367z" />
    <glyph glyph-name="two" unicode="2" horiz-adv-x="1480" 
d="M152 0h1153v328h-730q15 25 74 69q50 35 180 92q60 25 100.5 43t92 45t85.5 52t69.5 59.5t56.5 71t34 83.5t13 101q0 201 -151.5 320.5t-401.5 119.5q-262 0 -406.5 -127t-144.5 -337v-52h381v52q0 59 46 91.5t124 32.5q174 0 174 -100q0 -40 -65 -82q-51 -27 -72 -35
q-48 -18 -80 -32q-108 -45 -197.5 -98.5t-168 -123.5t-122.5 -158.5t-44 -187.5v-227z" />
    <glyph glyph-name="three" unicode="3" horiz-adv-x="1480" 
d="M166 416q0 -215 153.5 -328t421.5 -113q267 0 421.5 113.5t154.5 327.5q0 176 -133 276q96 99 96 252q0 211 -145.5 325.5t-407.5 114.5q-261 0 -406 -114.5t-145 -325.5v-51h383l-2 27q-6 68 35 96t135 28q176 0 176 -100q0 -53 -41.5 -75.5t-120.5 -22.5h-198v-330h198
q197 0 197 -100q0 -99 -197 -99q-198 0 -198 99v51h-377v-51z" />
    <glyph glyph-name="four" unicode="4" horiz-adv-x="1480" 
d="M764 0h366v252h224v328h-224v780h-311l-743 -840v-268h688v-252zM569 580l195 221v-221h-195z" />
    <glyph glyph-name="five" unicode="5" horiz-adv-x="1480" 
d="M166 416q0 -215 153.5 -328t421.5 -113q274 0 425 120.5t151 340.5q0 216 -154 331.5t-422 115.5h-184v147h676v330h-1043v-807h551q95 0 146 -26.5t51 -90.5q0 -119 -197 -119q-198 0 -198 99v51h-377v-51z" />
    <glyph glyph-name="six" unicode="6" horiz-adv-x="1478" 
d="M754 1384q-104 0 -191.5 -23t-151 -62.5t-113.5 -94.5t-81.5 -116.5t-52 -133t-29 -138t-8.5 -136.5q0 -73 8 -141t28.5 -139.5t52.5 -132.5t82.5 -115.5t115 -93t154 -61t196.5 -22.5q268 0 429 126t161 341q0 203 -155 328t-408 125q-141 0 -271 -51q44 200 234 200
q72 0 123 -26.5t51 -73.5v-51h377v51q0 198 -152.5 319t-398.5 121zM526 496q114 71 219 71q102 0 166 -29.5t64 -95.5q0 -61 -59 -93t-150 -32q-105 0 -160 44.5t-80 134.5z" />
    <glyph glyph-name="seven" unicode="7" horiz-adv-x="1396" 
d="M811 1030l-477 -1030h397l510 1094q2 6 2 18v248h-1104v-330h672z" />
    <glyph glyph-name="eight" unicode="8" horiz-adv-x="1480" 
d="M313 692q-147 -110 -147 -276q0 -215 154 -328t421 -113t421.5 113.5t154.5 327.5q0 168 -150 276q113 104 113 252q0 208 -140 324t-399 116q-258 0 -399 -116t-141 -324q0 -149 112 -252zM543 416q0 100 198 100q197 0 197 -100q0 -99 -197 -99q-198 0 -198 99z
M582 944q0 100 159 100q162 0 162 -100q0 -53 -41.5 -75.5t-120.5 -22.5t-119 22.5t-40 75.5z" />
    <glyph glyph-name="nine" unicode="9" horiz-adv-x="1478" 
d="M127 416q0 -133 84 -235t219.5 -154t296.5 -52q143 0 255.5 44.5t181 114t112.5 165t61 188.5t17 193q0 104 -16.5 197.5t-60.5 188.5t-113 163.5t-184 111.5t-263 43q-267 0 -428.5 -124.5t-161.5 -339.5q0 -204 154.5 -328.5t408.5 -124.5q143 0 268 49
q-21 -93 -74.5 -146t-156.5 -53q-93 0 -161 33.5t-60 89.5l4 27h-383v-51zM506 920q0 61 60 92.5t151 31.5q104 0 159 -45t78 -135q-111 -69 -219 -69q-229 0 -229 125z" />
    <glyph glyph-name="colon" unicode=":" horiz-adv-x="768" 
d="M385 1147q-57 0 -100.5 -20t-68.5 -52t-37.5 -68.5t-12.5 -74.5q0 -39 12.5 -75.5t37.5 -68.5t68.5 -51.5t100.5 -19.5t100.5 19.5t68.5 51.5t37.5 68.5t12.5 75.5q0 38 -12.5 74.5t-37.5 68.5t-68.5 52t-100.5 20zM166 190q0 -39 12.5 -75.5t37.5 -68.5t68.5 -51.5
t100.5 -19.5t100.5 20t68.5 52t37.5 68.5t12.5 74.5t-12.5 74t-38 68t-69 51.5t-99.5 19.5q-109 0 -164 -64.5t-55 -148.5z" />
    <glyph glyph-name="semicolon" unicode=";" horiz-adv-x="768" 
d="M385 1147q-57 0 -100.5 -20t-68.5 -52t-37.5 -68.5t-12.5 -74.5q0 -39 12.5 -75.5t37.5 -68.5t68.5 -51.5t100.5 -19.5t100.5 19.5t68.5 51.5t37.5 68.5t12.5 75.5q0 38 -12.5 74.5t-37.5 68.5t-68.5 52t-100.5 20zM166 190q0 -55 24 -104.5t76 -79.5q-33 -82 -84 -135
l-14 -14l158 -152l22 14q122 78 189 198t67 249q0 41 -9.5 79t-32 75.5t-68 60t-109.5 22.5q-109 0 -164 -64.5t-55 -148.5z" />
    <glyph glyph-name="less" unicode="&#x3c;" horiz-adv-x="794" 
d="M754 811v283l-699 -381l699 -379v280l-187 99z" />
    <glyph glyph-name="equal" unicode="=" horiz-adv-x="1482" 
d="M190 1096v-328h1104v328h-1104zM190 264h1104v330h-1104v-330z" />
    <glyph glyph-name="greater" unicode="&#x3e;" horiz-adv-x="788" 
d="M55 1094v-283l187 -98l-187 -99v-280l699 379z" />
    <glyph glyph-name="question" unicode="?" horiz-adv-x="1552" 
d="M592 680q0 -82 61 -221l6 -19h234l6 17q25 62 29 75q242 18 370.5 114t128.5 294q0 96 -34 172t-93 126.5t-142.5 83.5t-177.5 47.5t-204 14.5q-128 0 -243.5 -28.5t-206.5 -83t-145 -142.5t-54 -198v-51h365v51q0 63 96 96q86 29 188 29q118 0 191 -23q94 -30 94 -94
q0 -50 -94 -72q-59 -12 -176 -12h-199v-176zM557 190q0 -38 12.5 -74.5t37.5 -68.5t68.5 -52t100.5 -20q109 0 165 65.5t56 149.5t-56 148.5t-165 64.5q-56 0 -99.5 -19.5t-69 -51.5t-38 -68t-12.5 -74z" />
    <glyph glyph-name="at" unicode="@" horiz-adv-x="2144" 
d="M1174 1077q-72 35 -160 35q-82 0 -152.5 -28t-118 -73t-82 -102.5t-50 -116t-15.5 -114.5q0 -58 15.5 -117.5t49 -117.5t81.5 -103.5t120 -73.5t156 -28q71 0 125 22q143 -35 250 -35q122 0 224 32t173 87.5t120.5 130t73 158t23.5 172.5q0 173 -62.5 323t-179.5 263.5
t-297.5 179t-402.5 65.5q-140 0 -262.5 -29t-216.5 -80.5t-171 -123.5t-130 -155.5t-89 -179t-52.5 -192.5t-16.5 -196q0 -154 42 -295t128.5 -262t210 -209.5t295.5 -139t375 -50.5q154 0 313 43t254 127l12 12l-160 270l-30 -24q-64 -52 -172 -76.5t-221 -24.5
q-162 0 -291.5 50.5t-210.5 137.5t-123.5 199.5t-42.5 241.5q0 92 18.5 179t62 169.5t106.5 144t159.5 99t214.5 37.5q161 0 282 -58.5t191 -160.5h-366v-13zM979 678q0 41 30 75.5t70 34.5q43 0 73 -35t30 -79q0 -43 -30.5 -78t-72.5 -35q-41 0 -70.5 36.5t-29.5 80.5z
M1546 594v487q78 -122 78 -276q0 -136 -78 -211z" />
    <glyph glyph-name="A" unicode="A" horiz-adv-x="1697" 
d="M76 0h389l125 322h512l127 -322h393l-545 1360h-454zM717 649l127 316l133 -316h-260z" />
    <glyph glyph-name="B" unicode="B" horiz-adv-x="1679" 
d="M1110 0q89 0 162.5 25.5t122.5 67.5t83 98t49 115.5t15 121.5q0 79 -33.5 150.5t-101.5 123.5q84 100 84 230q0 62 -15 121.5t-48.5 115.5t-82 98t-121.5 67.5t-161 25.5h-873v-1360h920zM557 328v188h553q30 0 47 -20t17 -54v-39q0 -34 -17 -54.5t-47 -20.5h-553z
M557 846v184h506q29 0 45 -20t16 -54v-36q0 -34 -16 -54t-45 -20h-506z" />
    <glyph glyph-name="C" unicode="C" 
d="M825 1384q-138 0 -255 -42.5t-197.5 -112.5t-137 -162t-82.5 -190t-26 -197t26 -197.5t82.5 -190.5t137 -162t197.5 -112.5t255 -42.5q127 0 236.5 35.5t187.5 95.5t136.5 140t91.5 167t45 179l4 26h-381l-4 -20q-22 -117 -105 -199t-211 -82q-63 0 -117 21.5t-90.5 57.5
t-62 83.5t-37.5 98t-12 102.5q0 65 19.5 128t57 116.5t100.5 86.5t142 33q128 0 211 -82t105 -198l4 -21h381l-4 27q-13 92 -46 178.5t-91.5 166.5t-136.5 139t-187 94.5t-236 35.5z" />
    <glyph glyph-name="D" unicode="D" horiz-adv-x="1691" 
d="M190 1360v-1360h676q135 0 250.5 39.5t197 106.5t139 154.5t85 184t27.5 195.5t-27 195t-84.5 184t-138.5 155t-197 106.5t-252 39.5h-676zM557 328v702h309q78 0 141 -31t101 -82t58 -112t20 -125q0 -65 -20 -126.5t-58 -112.5t-101 -82t-141 -31h-309z" />
    <glyph glyph-name="E" unicode="E" horiz-adv-x="1667" 
d="M190 1360v-1360h1326v328h-959v188h713v330h-713v184h959v330h-1326z" />
    <glyph glyph-name="F" unicode="F" horiz-adv-x="1617" 
d="M190 1360v-1360h367v516h688v330h-688v184h934v330h-1301z" />
    <glyph glyph-name="G" unicode="G" 
d="M825 1384q-138 0 -255 -42.5t-197.5 -112.5t-137 -162t-82.5 -190t-26 -197t26 -197.5t82.5 -190.5t137 -162t197.5 -112.5t255 -42.5q139 0 257 42.5t198.5 112.5t137 162t82.5 190t26 198q0 61 -13 131l-4 20h-743v-327h344q-39 -83 -113 -135t-172 -52
q-63 0 -117 21.5t-90.5 57.5t-62 83.5t-37.5 98t-12 102.5q0 65 19.5 128t57 116.5t100.5 86.5t142 33q85 0 156.5 -41t112.5 -108l8 -14l403 6l-12 31q-6 12 -14 36q-37 90 -96 166t-140 136t-188.5 94t-229.5 34z" />
    <glyph glyph-name="H" unicode="H" horiz-adv-x="1730" 
d="M190 1360v-1360h367v516h617v-516h368v1360h-368v-514h-617v514h-367z" />
    <glyph glyph-name="I" unicode="I" horiz-adv-x="745" 
d="M190 1360v-1360h367v1360h-367z" />
    <glyph glyph-name="J" unicode="J" horiz-adv-x="1433" 
d="M139 528q0 -77 21 -154t65.5 -149.5t108 -127.5t155.5 -88.5t201 -33.5t201.5 33.5t156.5 88.5t108.5 127.5t65.5 149.5t21 154v832h-364v-832q0 -82 -50.5 -146.5t-138.5 -64.5q-85 0 -134.5 64.5t-49.5 146.5v52h-367v-52z" />
    <glyph glyph-name="K" unicode="K" horiz-adv-x="1730" 
d="M190 1360v-1360h367v360l195 179l422 -539h446l-610 776l635 584h-515l-573 -531v531h-367z" />
    <glyph glyph-name="L" unicode="L" horiz-adv-x="1396" 
d="M190 1360v-1360h1104v328h-737v1032h-367z" />
    <glyph glyph-name="M" unicode="M" horiz-adv-x="1730" 
d="M870 860l-364 500h-316v-1360h367v715l152 -211h315l150 211v-715h368v1360h-317z" />
    <glyph glyph-name="N" unicode="N" horiz-adv-x="1730" 
d="M190 1360v-1360h367v766l670 -766h315v1360h-368v-764l-672 764h-312z" />
    <glyph glyph-name="O" unicode="O" 
d="M825 1384q-138 0 -255 -42.5t-197.5 -112.5t-137 -162t-82.5 -190t-26 -197t26 -197.5t82.5 -190.5t137 -162t197.5 -112.5t255 -42.5q139 0 256.5 42.5t198 112.5t137 162t83 190.5t26.5 197.5t-26.5 197t-83 190t-137 162t-198 112.5t-256.5 42.5zM506 680
q0 65 19.5 128t57 116.5t100.5 86.5t142 33t143 -33t102.5 -86.5t58.5 -116.5t20 -128t-20 -128t-58.5 -116.5t-102.5 -86t-143 -32.5q-63 0 -117 21.5t-90.5 57.5t-62 83.5t-37.5 98t-12 102.5z" />
    <glyph glyph-name="P" unicode="P" horiz-adv-x="1677" 
d="M190 0h367v516h580q107 0 191.5 36.5t134.5 96.5t76 132.5t26 150.5q0 62 -15 121.5t-48.5 115.5t-82 98t-121.5 67.5t-161 25.5h-947v-1360zM557 846v184h580q29 0 45 -20t16 -54v-36q0 -34 -16 -54t-45 -20h-580z" />
    <glyph glyph-name="Q" unicode="Q" horiz-adv-x="1671" 
d="M1182 66q-166 -91 -357 -91q-138 0 -255 42.5t-197.5 112.5t-137 162t-82.5 190.5t-26 197.5t26 197t82.5 190t137 162t197.5 112.5t255 42.5q139 0 256.5 -42.5t198 -112.5t137 -162t83 -190t26.5 -197q0 -206 -99 -371l148 -155l-242 -244zM506 680q0 -52 12 -102.5
t37.5 -98t62 -83.5t90.5 -57.5t117 -21.5q43 0 101 15l-193 200l248 242l162 -168q6 38 6 74q0 65 -20 128t-58.5 116.5t-102.5 86.5t-143 33t-142 -33t-100.5 -86.5t-57 -116.5t-19.5 -128z" />
    <glyph glyph-name="R" unicode="R" horiz-adv-x="1740" 
d="M190 0h367v516h322l311 -516h414l-324 532q0 1 -1 2.5t-1 2.5q98 28 164.5 93.5t94.5 141.5t28 160q0 62 -15 121.5t-48.5 115.5t-82 98t-121.5 67.5t-161 25.5h-947v-1360zM557 846v184h580q29 0 45 -20t16 -54v-36q0 -34 -16 -54t-45 -20h-580z" />
    <glyph glyph-name="S" unicode="S" horiz-adv-x="1552" 
d="M127 428q0 -110 54 -198t145 -142.5t206.5 -83.5t243.5 -29q142 0 257.5 26t205 80t139 144.5t49.5 210.5q0 99 -33.5 174t-89 121t-139 74.5t-173 39.5t-201.5 11q-53 0 -86 2q-65 4 -95 10q-92 19 -92 72q0 64 82 94q73 23 176 23q65 0 121.5 -12.5t97.5 -41.5t41 -71
v-51h367v51q0 142 -87.5 246.5t-227.5 155t-312 50.5q-136 0 -247.5 -25.5t-197 -77.5t-132.5 -138.5t-47 -202.5q0 -97 31.5 -170t85 -118.5t133.5 -74t167.5 -39t196.5 -10.5q65 0 98 -2q82 -4 135 -22q62 -22 62 -68q0 -72 -90 -106q-77 -27 -195 -27q-102 0 -188 29
q-96 33 -96 96v51h-365v-51z" />
    <glyph glyph-name="T" unicode="T" horiz-adv-x="1552" 
d="M592 1030v-1030h366v1030h494v330h-1352v-330h492z" />
    <glyph glyph-name="U" unicode="U" horiz-adv-x="1679" 
d="M190 655q0 -92 23.5 -185.5t75.5 -183t126.5 -158.5t185 -111t241.5 -42t241 42.5t184 111.5t125.5 158.5t75 182.5t23.5 185v705h-367v-705q0 -59 -17 -117t-49.5 -108.5t-88.5 -81.5t-127 -31t-128 31t-90 81t-50 108t-17 118v705h-367v-705z" />
    <glyph glyph-name="V" unicode="V" horiz-adv-x="1697" 
d="M856 393l-389 967h-391l547 -1360h454l545 1360h-389l-6 -17q-22 -57 -120 -301.5t-149 -375.5q-56 -144 -90 -236z" />
    <glyph glyph-name="W" unicode="W" horiz-adv-x="1785" 
d="M100 1360l162 -1360h354l277 653l278 -653h355l160 1360h-363l-72 -672l-192 420h-330l-182 -420l-84 672h-363z" />
    <glyph glyph-name="X" unicode="X" horiz-adv-x="1710" 
d="M623 702l-572 -702h447l346 430l348 -430h467l-578 707l543 653h-457l-309 -381l-311 381h-459z" />
    <glyph glyph-name="Y" unicode="Y" horiz-adv-x="1581" 
d="M973 0v481l557 879h-422l-317 -512l-320 512h-420l557 -879l2 -481h363z" />
    <glyph glyph-name="Z" unicode="Z" horiz-adv-x="1628" 
d="M152 270v-270h1325v328h-779l754 762v270h-1276v-330h727z" />
    <glyph glyph-name="bracketleft" unicode="[" horiz-adv-x="858" 
d="M190 1612v-1864h551v330h-184v1204h184v330h-551z" />
    <glyph glyph-name="backslash" unicode="\" horiz-adv-x="1290" 
d="M100 1405l785 -1604l305 154l-787 1604z" />
    <glyph glyph-name="bracketright" unicode="]" horiz-adv-x="858" 
d="M115 78l2 -330h549v1864h-551v-330h186l-2 -1204h-184z" />
    <glyph glyph-name="asciicircum" unicode="^" horiz-adv-x="702" 
d="M618 1010l-153 319h-195l-153 -319h198l54 108l51 -108h198z" />
    <glyph glyph-name="underscore" unicode="_" horiz-adv-x="1361" 
d="M190 88v-328h981v328h-981z" />
    <glyph glyph-name="grave" unicode="`" horiz-adv-x="628" 
d="M78 1343l229 -323h191l-150 323h-270z" />
    <glyph glyph-name="a" unicode="a" horiz-adv-x="1697" 
d="M76 0h389l125 322h512l127 -322h393l-545 1360h-454zM717 649l127 316l133 -316h-260z" />
    <glyph glyph-name="b" unicode="b" horiz-adv-x="1679" 
d="M1110 0q89 0 162.5 25.5t122.5 67.5t83 98t49 115.5t15 121.5q0 79 -33.5 150.5t-101.5 123.5q84 100 84 230q0 62 -15 121.5t-48.5 115.5t-82 98t-121.5 67.5t-161 25.5h-873v-1360h920zM557 328v188h553q30 0 47 -20t17 -54v-39q0 -34 -17 -54.5t-47 -20.5h-553z
M557 846v184h506q29 0 45 -20t16 -54v-36q0 -34 -16 -54t-45 -20h-506z" />
    <glyph glyph-name="c" unicode="c" 
d="M825 1384q-138 0 -255 -42.5t-197.5 -112.5t-137 -162t-82.5 -190t-26 -197t26 -197.5t82.5 -190.5t137 -162t197.5 -112.5t255 -42.5q127 0 236.5 35.5t187.5 95.5t136.5 140t91.5 167t45 179l4 26h-381l-4 -20q-22 -117 -105 -199t-211 -82q-63 0 -117 21.5t-90.5 57.5
t-62 83.5t-37.5 98t-12 102.5q0 65 19.5 128t57 116.5t100.5 86.5t142 33q128 0 211 -82t105 -198l4 -21h381l-4 27q-13 92 -46 178.5t-91.5 166.5t-136.5 139t-187 94.5t-236 35.5z" />
    <glyph glyph-name="d" unicode="d" horiz-adv-x="1691" 
d="M190 1360v-1360h676q135 0 250.5 39.5t197 106.5t139 154.5t85 184t27.5 195.5t-27 195t-84.5 184t-138.5 155t-197 106.5t-252 39.5h-676zM557 328v702h309q78 0 141 -31t101 -82t58 -112t20 -125q0 -65 -20 -126.5t-58 -112.5t-101 -82t-141 -31h-309z" />
    <glyph glyph-name="e" unicode="e" horiz-adv-x="1667" 
d="M190 1360v-1360h1326v328h-959v188h713v330h-713v184h959v330h-1326z" />
    <glyph glyph-name="f" unicode="f" horiz-adv-x="1617" 
d="M190 1360v-1360h367v516h688v330h-688v184h934v330h-1301z" />
    <glyph glyph-name="g" unicode="g" 
d="M825 1384q-138 0 -255 -42.5t-197.5 -112.5t-137 -162t-82.5 -190t-26 -197t26 -197.5t82.5 -190.5t137 -162t197.5 -112.5t255 -42.5q139 0 257 42.5t198.5 112.5t137 162t82.5 190t26 198q0 61 -13 131l-4 20h-743v-327h344q-39 -83 -113 -135t-172 -52
q-63 0 -117 21.5t-90.5 57.5t-62 83.5t-37.5 98t-12 102.5q0 65 19.5 128t57 116.5t100.5 86.5t142 33q85 0 156.5 -41t112.5 -108l8 -14l403 6l-12 31q-6 12 -14 36q-37 90 -96 166t-140 136t-188.5 94t-229.5 34z" />
    <glyph glyph-name="h" unicode="h" horiz-adv-x="1730" 
d="M190 1360v-1360h367v516h617v-516h368v1360h-368v-514h-617v514h-367z" />
    <glyph glyph-name="i" unicode="i" horiz-adv-x="745" 
d="M190 1360v-1360h367v1360h-367z" />
    <glyph glyph-name="j" unicode="j" horiz-adv-x="1458" 
d="M166 528q0 -77 20.5 -154t65 -149.5t108 -127.5t156 -88.5t201.5 -33.5t202 33.5t156 89t108 128t66 149t21 153.5v832h-367v-832q0 -82 -49.5 -146.5t-136.5 -64.5t-137 64.5t-50 146.5v52h-364v-52z" />
    <glyph glyph-name="k" unicode="k" horiz-adv-x="1730" 
d="M190 1360v-1360h367v360l195 179l422 -539h446l-610 776l635 584h-515l-573 -531v531h-367z" />
    <glyph glyph-name="l" unicode="l" horiz-adv-x="1396" 
d="M190 1360v-1360h1104v328h-737v1032h-367z" />
    <glyph glyph-name="m" unicode="m" horiz-adv-x="1730" 
d="M870 860l-364 500h-316v-1360h367v715l152 -211h315l150 211v-715h368v1360h-317z" />
    <glyph glyph-name="n" unicode="n" horiz-adv-x="1730" 
d="M190 1360v-1360h367v766l670 -766h315v1360h-368v-764l-672 764h-312z" />
    <glyph glyph-name="o" unicode="o" 
d="M825 1384q-138 0 -255 -42.5t-197.5 -112.5t-137 -162t-82.5 -190t-26 -197t26 -197.5t82.5 -190.5t137 -162t197.5 -112.5t255 -42.5q139 0 256.5 42.5t198 112.5t137 162t83 190.5t26.5 197.5t-26.5 197t-83 190t-137 162t-198 112.5t-256.5 42.5zM506 680
q0 65 19.5 128t57 116.5t100.5 86.5t142 33t143 -33t102.5 -86.5t58.5 -116.5t20 -128t-20 -128t-58.5 -116.5t-102.5 -86t-143 -32.5q-63 0 -117 21.5t-90.5 57.5t-62 83.5t-37.5 98t-12 102.5z" />
    <glyph glyph-name="p" unicode="p" horiz-adv-x="1691" 
d="M190 0h367v516h580q107 0 191.5 36.5t134.5 96.5t76 132.5t26 150.5q0 62 -15 121.5t-48.5 115.5t-82 98t-121.5 67.5t-161 25.5h-947v-1360zM557 846v184h580q29 0 45 -20t16 -54v-36q0 -34 -16 -54t-45 -20h-580z" />
    <glyph glyph-name="q" unicode="q" horiz-adv-x="1671" 
d="M1182 66q-166 -91 -357 -91q-138 0 -255 42.5t-197.5 112.5t-137 162t-82.5 190.5t-26 197.5t26 197t82.5 190t137 162t197.5 112.5t255 42.5q139 0 256.5 -42.5t198 -112.5t137 -162t83 -190t26.5 -197q0 -206 -99 -371l148 -155l-242 -244zM506 680q0 -52 12 -102.5
t37.5 -98t62 -83.5t90.5 -57.5t117 -21.5q43 0 101 15l-193 200l248 242l162 -168q6 38 6 74q0 65 -20 128t-58.5 116.5t-102.5 86.5t-143 33t-142 -33t-100.5 -86.5t-57 -116.5t-19.5 -128z" />
    <glyph glyph-name="r" unicode="r" horiz-adv-x="1740" 
d="M190 0h367v516h322l311 -516h414l-324 532q0 1 -1 2.5t-1 2.5q98 28 164.5 93.5t94.5 141.5t28 160q0 62 -15 121.5t-48.5 115.5t-82 98t-121.5 67.5t-161 25.5h-947v-1360zM557 846v184h580q29 0 45 -20t16 -54v-36q0 -34 -16 -54t-45 -20h-580z" />
    <glyph glyph-name="s" unicode="s" horiz-adv-x="1552" 
d="M127 428q0 -110 54 -198t145 -142.5t206.5 -83.5t243.5 -29q142 0 257.5 26t205 80t139 144.5t49.5 210.5q0 99 -33.5 174t-89 121t-139 74.5t-173 39.5t-201.5 11q-53 0 -86 2q-65 4 -95 10q-92 19 -92 72q0 64 82 94q73 23 176 23q65 0 121.5 -12.5t97.5 -41.5t41 -71
v-51h367v51q0 142 -87.5 246.5t-227.5 155t-312 50.5q-136 0 -247.5 -25.5t-197 -77.5t-132.5 -138.5t-47 -202.5q0 -97 31.5 -170t85 -118.5t133.5 -74t167.5 -39t196.5 -10.5q65 0 98 -2q82 -4 135 -22q62 -22 62 -68q0 -72 -90 -106q-77 -27 -195 -27q-102 0 -188 29
q-96 33 -96 96v51h-365v-51z" />
    <glyph glyph-name="t" unicode="t" horiz-adv-x="1552" 
d="M592 1030v-1030h366v1030h494v330h-1352v-330h492z" />
    <glyph glyph-name="u" unicode="u" horiz-adv-x="1679" 
d="M190 655q0 -92 23.5 -185.5t75.5 -183t126.5 -158.5t185 -111t241.5 -42t241 42.5t184 111.5t125.5 158.5t75 182.5t23.5 185v705h-367v-705q0 -59 -17 -117t-49.5 -108.5t-88.5 -81.5t-127 -31t-128 31t-90 81t-50 108t-17 118v705h-367v-705z" />
    <glyph glyph-name="v" unicode="v" horiz-adv-x="1697" 
d="M856 393l-389 967h-391l547 -1360h454l545 1360h-389l-6 -17q-22 -57 -120 -301.5t-149 -375.5q-56 -144 -90 -236z" />
    <glyph glyph-name="w" unicode="w" horiz-adv-x="1785" 
d="M100 1360l162 -1360h354l277 653l278 -653h355l160 1360h-363l-72 -672l-192 420h-330l-182 -418l-84 670h-363z" />
    <glyph glyph-name="x" unicode="x" horiz-adv-x="1789" 
d="M666 702l-590 -702h456l359 434l366 -434h457l-594 702l557 658h-458l-322 -391l-330 391h-454z" />
    <glyph glyph-name="y" unicode="y" horiz-adv-x="1630" 
d="M995 0v481l557 879h-422l-317 -512l-319 512h-420l557 -879l2 -481h362z" />
    <glyph glyph-name="z" unicode="z" horiz-adv-x="1628" 
d="M152 270v-270h1325v328h-779l754 762v270h-1276v-330h727z" />
    <glyph glyph-name="braceleft" unicode="{" horiz-adv-x="913" 
d="M63 846v-330h123q29 0 45.5 -20t16.5 -54v-266q0 -62 15 -121t49 -115.5t82.5 -98.5t122 -67.5t161.5 -25.5h121v330h-121q-64 0 -64 63v250q0 180 -114 289q114 111 114 291v248q0 63 64 63h121v330h-121q-88 0 -161.5 -25.5t-122 -67.5t-82.5 -98.5t-49 -115.5
t-15 -121v-264q0 -34 -16.5 -54t-45.5 -20h-123z" />
    <glyph glyph-name="bar" unicode="|" horiz-adv-x="745" 
d="M190 1610v-1862h367v1866z" />
    <glyph glyph-name="braceright" unicode="}" horiz-adv-x="911" 
d="M115 78v-330h121q88 0 161.5 25.5t122 67.5t82.5 98t49 115.5t15 121.5v266q0 74 61 74h123v330h-123q-61 0 -61 74v264q0 62 -15 121.5t-49 115.5t-82.5 98t-122 67.5t-161.5 25.5h-121v-330h121q42 0 55 -33q8 -20 8 -41q2 -14 2 -45q0 -25 -2 -74t-2 -73
q0 -103 24.5 -186.5t94.5 -149.5q-70 -66 -94.5 -149.5t-24.5 -186.5q0 -24 2 -73.5t2 -75.5q0 -29 -2 -45q0 -17 -8 -41q-14 -31 -55 -31h-121z" />
    <glyph glyph-name="asciitilde" unicode="~" horiz-adv-x="606" 
d="M555 1714v178l-102 -80q-45 -30 -74 -30q-14 0 -30 18t-30 39t-41.5 39t-60.5 18q-48 0 -102 -30q-29 -17 -72 -56l-4 -4l-2 -192l45 43q3 2 25.5 25t39.5 36q51 39 74 39q16 0 44 -31.5t57.5 -62.5t50.5 -31q85 0 178 78z" />
    <glyph glyph-name="exclamdown" unicode="&#xa1;" horiz-adv-x="768" 
d="M385 932q56 0 99.5 19.5t69 51.5t38 68t12.5 74t-12.5 74.5t-37.5 68.5t-68.5 52t-100.5 20t-100.5 -19.5t-68.5 -51.5t-37.5 -68.5t-12.5 -75.5q0 -84 55 -148.5t164 -64.5zM201 -25h366v304q0 325 -53 595l-4 21h-250l-4 -21q-55 -278 -55 -595v-304z" />
    <glyph glyph-name="cent" unicode="&#xa2;" horiz-adv-x="1269" 
d="M467 -244h264v379q82 15 150.5 51t116 82.5t83 106t55.5 118.5t29 123l4 27h-321l-4 -20q-21 -124 -113 -179v471q92 -54 113 -176l4 -22h321l-4 28q-12 81 -41.5 154.5t-79.5 141t-130.5 116.5t-182.5 68v368h-264v-376q-103 -25 -183 -83t-126.5 -133.5t-70.5 -157
t-24 -163.5t24 -163.5t70.5 -157t126.5 -133.5t183 -83v-387zM381 680q0 140 86 215v-430q-86 75 -86 215z" />
    <glyph glyph-name="sterling" unicode="&#xa3;" horiz-adv-x="1318" 
d="M573 367q34 54 49.5 103t18.5 110h244v311h-301q-33 105 -33 172q0 53 29.5 90t81.5 37q64 0 92 -55q19 -37 32 -117l5 -27l364 58l-2 20q-10 90 -39.5 164t-84.5 136.5t-146.5 98t-212.5 35.5q-16 0 -52 -4l-47 -6q-238 -37 -313 -172q-74 -137 -74 -256q0 -84 19 -174
h-129v-311h198q0 -87 -50.5 -160t-143.5 -141l-15 -11l144 -329l35 24q65 46 115 69t108 23q40 0 98 -10q15 -4 31.5 -8.5t37 -11t32.5 -9.5q144 -41 225 -41q141 0 309 84l21 11l-148 317l-31 -12q-127 -58 -186 -58q-41 0 -131 23q-39 12 -74 18q-52 9 -76 9z" />
    <glyph glyph-name="yen" unicode="&#xa5;" horiz-adv-x="1333" 
d="M1157 526h-348v52h348v288h-199l273 564h-400l-186 -392l-184 392h-398l271 -564h-197l2 -288h348v-52h-348l-2 -268h326v-242h364v242h330v268z" />
    <glyph glyph-name="section" unicode="&#xa7;" horiz-adv-x="1157" 
d="M356 332h-286v-17q7 -88 48 -152.5t110.5 -102.5t158.5 -56t201 -18q100 0 186 18.5t155 55.5t108.5 99t39.5 144q0 119 -88 193q84 81 84 194q0 51 -14.5 93t-42.5 71t-61.5 51t-78 36t-86 22.5t-90.5 13.5q-25 2 -115 8t-128 12q-52 7 -73.5 18t-21.5 29q0 45 68 68
q64 21 133 21q51 0 127 -15q44 -11 64 -18q20 -9 20 -17q0 -10 -2 -29.5t-2 -29.5l-2 -16h281v45q0 79 -39 139t-106.5 94.5t-150 51t-178.5 16.5t-180.5 -18t-152.5 -54.5t-108 -97.5t-40 -140q0 -123 92 -192q-86 -80 -86 -193q0 -63 22.5 -110.5t56 -76.5t85.5 -48.5
t99 -28.5t108 -14q31 -3 83 -6t91 -6.5t68 -8.5q94 -15 94 -63q0 -49 -74 -72q-60 -18 -145 -18q-80 0 -146 18q-86 22 -86 58v49zM367 659q0 44 69 66q59 20 131 20t146 -14q49 -11 67 -22q21 -12 21 -25q0 -37 -56 -62.5t-118 -25.5q-43 0 -124 10t-108 21q-28 11 -28 32z
" />
    <glyph glyph-name="dieresis" unicode="&#xa8;" horiz-adv-x="622" 
d="M287 1143q0 48 -35 85.5t-102 37.5q-66 0 -100 -38t-34 -85q0 -49 34 -86t100 -37q67 0 102 37t35 86zM336 1141q0 -48 33.5 -86.5t99.5 -38.5q67 0 102 37.5t35 87.5q0 48 -35 85.5t-102 37.5q-66 0 -99.5 -37.5t-33.5 -85.5z" />
    <glyph glyph-name="copyright" unicode="&#xa9;" horiz-adv-x="1742" 
d="M836 -16q111 0 212 29t178.5 79.5t140.5 118t103.5 144.5t62 159t21.5 162q0 98 -30 196t-91 187t-145 158t-201.5 110t-250.5 41t-250 -41t-201 -110t-145.5 -158t-92 -187.5t-30.5 -195.5t30.5 -194.5t92 -187t145.5 -159t201 -110.5t250 -41zM410 676q0 77 30 152
t83.5 135t135.5 97.5t177 37.5t177 -37.5t135.5 -97.5t83.5 -135t30 -152t-30 -151.5t-83.5 -134.5t-135.5 -97t-177 -37t-177 37t-135.5 97t-83.5 134.5t-30 151.5zM492 680q0 61 21 120.5t61.5 111t109 83t154.5 31.5q75 0 137.5 -25t103.5 -67t66.5 -91.5t34.5 -103.5
l6 -45h-228q-12 55 -41.5 91t-78.5 36q-54 0 -86.5 -42.5t-32.5 -98.5q0 -55 32.5 -98t86.5 -43q49 0 78.5 36t41.5 91h228l-6 -43q-9 -55 -34 -105t-66 -92t-103.5 -67t-138.5 -25q-86 0 -154.5 31.5t-109 83t-61.5 111t-21 120.5z" />
    <glyph glyph-name="ordfeminine" unicode="&#xaa;" horiz-adv-x="768" 
d="M233 1235l60 137h178l59 -137h207l-291 625h-141l-274 -625h202zM360 1536l21 43l18 -43h-39z" />
    <glyph glyph-name="guillemotleft" unicode="&#xab;" horiz-adv-x="1034" 
d="M604 831v177l-549 -306l549 -305v176l-237 129zM459 702l547 -305v176l-238 129l238 129v177z" />
    <glyph glyph-name="registered" unicode="&#xae;" horiz-adv-x="1540" 
d="M1513 670q0 131 -52 255t-142 219t-222 152.5t-282 57.5t-282 -57.5t-222 -152.5t-142 -219t-52 -255t52 -255.5t142 -219.5t222 -153t282 -58t282 58t222 153t142 219.5t52 255.5zM352 670q0 120 59 224t166.5 168t237.5 64t237 -64t165.5 -168t58.5 -224t-58.5 -225
t-165.5 -169.5t-237 -64.5t-237.5 64.5t-166.5 169.5t-59 225zM532 371h166v225h131l134 -225h186l-23 41q-101 171 -116 194q59 19 89.5 68t30.5 108q0 78 -49 135.5t-139 57.5h-410v-604zM698 750v71h244q23 0 23 -26v-17q0 -28 -23 -28h-244z" />
    <glyph glyph-name="macron" unicode="&#xaf;" horiz-adv-x="692" 
d="M92 1014h443v147h-443v-147z" />
    <glyph glyph-name="degree" unicode="&#xb0;" horiz-adv-x="387" 
d="M193 1315q-80 0 -121 -48t-41 -108q0 -58 41 -106.5t121 -48.5t120.5 48t40.5 107q0 60 -40.5 108t-120.5 48zM164 1159q0 20 5 24.5t26 4.5q15 0 19.5 -5t4.5 -24t-4.5 -24t-21.5 -5q-18 0 -23.5 5.5t-5.5 23.5z" />
    <glyph glyph-name="acute" unicode="&#xb4;" horiz-adv-x="559" 
d="M387 1010l231 331l-272 -8l-153 -323h194z" />
    <glyph glyph-name="periodcentered" unicode="&#xb7;" horiz-adv-x="655" 
d="M328 799q78 0 121 49t43 121q0 71 -44 119.5t-120 48.5t-119 -49t-43 -119q0 -72 42 -121t120 -49z" />
    <glyph glyph-name="cedilla" unicode="&#xb8;" horiz-adv-x="618" 
d="M176 -152q5 10 62 152l4 10h157l-10 -49q129 -38 129 -170q0 -83 -57.5 -144t-165.5 -61q-82 0 -140 43.5t-89 104.5q-3 5 -15.5 41t-11.5 37l166 -2q52 -58 84 -58q50 0 53 33q1 28 -22 41.5t-53 12.5t-58 -1.5t-37 0.5z" />
    <glyph glyph-name="ordmasculine" unicode="&#xba;" horiz-adv-x="724" 
d="M362 1864q-64 0 -117.5 -21t-88.5 -54.5t-59.5 -76.5t-35 -86t-10.5 -84q0 -53 18 -107t53 -103.5t98 -81t142 -31.5t142 31.5t98.5 81t53.5 103.5t18 107q0 52 -18 106t-53.5 103.5t-98.5 81t-142 31.5zM246 1542q0 55 30.5 101.5t85.5 46.5t86 -46.5t31 -101.5
q0 -56 -30.5 -101.5t-86.5 -45.5q-55 0 -85.5 46t-30.5 101z" />
    <glyph glyph-name="guillemotright" unicode="&#xbb;" horiz-adv-x="1062" 
d="M55 1008v-177l238 -129l-238 -129v-176l549 305zM459 397l547 305l-547 306v-177l237 -129l-237 -129v-176z" />
    <glyph glyph-name="questiondown" unicode="&#xbf;" horiz-adv-x="1552" 
d="M778 956q56 0 99.5 19.5t69 51.5t38 68t12.5 74t-12.5 74.5t-37.5 68.5t-68.5 52t-100.5 20q-109 0 -165 -65.5t-56 -149.5t56 -148.5t165 -64.5zM127 420q0 -119 51 -207t142.5 -139t205.5 -75t252 -24q128 0 243.5 29t206.5 83.5t145 142.5t54 198v51h-364v-51
q0 -63 -96 -96q-86 -29 -189 -29q-117 0 -190 23q-94 30 -94 94q0 50 94 72q59 12 176 12h199v176q0 80 -62 221l-6 19h-233l-7 -17q-18 -46 -28 -76q-242 -18 -371 -113.5t-129 -293.5z" />
    <glyph glyph-name="Agrave" unicode="&#xc0;" horiz-adv-x="1697" 
d="M639 1884l229 -323h191l-150 323h-270zM76 0h389l125 322h512l127 -322h393l-545 1360h-454zM717 649l127 316l133 -316h-260z" />
    <glyph glyph-name="Aacute" unicode="&#xc1;" horiz-adv-x="1697" 
d="M829 1550l232 332l-273 -8l-151 -324h192zM76 0h389l125 322h512l127 -322h393l-545 1360h-454zM717 649l127 316l133 -316h-260z" />
    <glyph glyph-name="Acircumflex" unicode="&#xc2;" horiz-adv-x="1697" 
d="M1100 1556l-154 320h-194l-154 -320h199l53 109l51 -109h199zM76 0h389l125 322h512l127 -322h393l-545 1360h-454zM717 649l127 316l133 -316h-260z" />
    <glyph glyph-name="Atilde" unicode="&#xc3;" horiz-adv-x="1697" 
d="M1108 1667v178l-102 -78q-40 -30 -74 -30q-14 0 -30 17.5t-30 38.5t-41.5 38.5t-60.5 17.5q-54 0 -102 -30q-29 -17 -72 -56l-4 -4l-2 -192l45 43q46 46 65 61q51 39 74 39q16 0 44 -31t57.5 -62.5t50.5 -31.5q85 0 178 78zM76 0h389l125 322h512l127 -322h393l-545 1360
h-454zM717 649l127 316l133 -316h-260z" />
    <glyph glyph-name="Adieresis" unicode="&#xc4;" horiz-adv-x="1697" 
d="M823 1683q0 48 -35 85.5t-102 37.5q-66 0 -99.5 -38t-33.5 -85q0 -49 33.5 -85.5t99.5 -36.5q67 0 102 36.5t35 85.5zM76 0h389l125 322h512l127 -322h393l-545 1360h-454zM717 649l127 316l133 -316h-260zM874 1681q0 -48 34 -86.5t100 -38.5q67 0 102 37.5t35 87.5
q0 48 -35 85.5t-102 37.5q-66 0 -100 -37.5t-34 -85.5z" />
    <glyph glyph-name="Aring" unicode="&#xc5;" horiz-adv-x="1697" 
d="M700 1710q0 -55 37 -101t113 -46q74 0 110.5 46t36.5 101t-36.5 99t-110.5 44q-40 0 -70 -14t-47 -36t-25 -45.5t-8 -47.5zM76 0h389l125 322h512l127 -322h393l-545 1360h-454zM717 649l127 316l133 -316h-260zM834 1710q0 19 16 19q12 0 12 -19q0 -12 -2.5 -15t-9.5 -3
q-10 0 -13 2.5t-3 15.5z" />
    <glyph glyph-name="AE" unicode="&#xc6;" horiz-adv-x="2334" 
d="M1937 846v-330h-712v-188h958v-328h-1325v322h-233l-125 -322h-389l546 1360h1526v-330h-958v-184h712zM752 649h106v269z" />
    <glyph glyph-name="Ccedilla" unicode="&#xc7;" 
d="M1145 618h381l-4 -26q-14 -105 -56 -202.5t-111.5 -183t-176 -145t-236.5 -77.5l-4 -23q129 -38 129 -170q0 -83 -57.5 -144t-165.5 -61q-82 0 -140.5 43.5t-89.5 104.5q-3 5 -15 41t-11 37l166 -2q52 -58 84 -58q50 0 53 33q1 28 -22 41.5t-53 12.5t-58 -1.5t-37 0.5
l4 10q26 59 53 129q-129 7 -238 52.5t-183.5 115.5t-127.5 159.5t-77.5 184.5t-24.5 191q0 99 26 197t82.5 190t137 162t197.5 112.5t255 42.5q127 0 236 -35.5t187 -94.5t136.5 -139t91.5 -166.5t46 -178.5l4 -27h-381l-4 21q-22 116 -105 198t-211 82q-79 0 -142 -33
t-100.5 -86.5t-57 -116.5t-19.5 -128q0 -52 12 -102.5t37.5 -98t62 -83.5t90.5 -57.5t117 -21.5q128 0 211 82t105 199z" />
    <glyph glyph-name="Egrave" unicode="&#xc8;" horiz-adv-x="1667" 
d="M623 1884l229 -323h192l-151 323h-270zM190 0h1326v328h-959v188h713v330h-713v184h959v330h-1326v-1360z" />
    <glyph glyph-name="Eacute" unicode="&#xc9;" horiz-adv-x="1667" 
d="M815 1550l232 332l-273 -8l-153 -324h194zM190 0h1326v328h-959v188h713v330h-713v184h959v330h-1326v-1360z" />
    <glyph glyph-name="Ecircumflex" unicode="&#xca;" horiz-adv-x="1667" 
d="M1083 1556l-151 320h-197l-151 -320h196l56 109l49 -109h198zM190 0h1326v328h-959v188h713v330h-713v184h959v330h-1326v-1360z" />
    <glyph glyph-name="Edieresis" unicode="&#xcb;" horiz-adv-x="1667" 
d="M809 1683q0 48 -35 85.5t-102 37.5q-66 0 -99.5 -38t-33.5 -85q0 -49 33.5 -85.5t99.5 -36.5q67 0 102 36.5t35 85.5zM190 0h1326v328h-959v188h713v330h-713v184h959v330h-1326v-1360zM858 1681q0 -48 33.5 -86.5t99.5 -38.5q67 0 102 37.5t35 87.5q0 48 -35 85.5
t-102 37.5q-66 0 -99.5 -37.5t-33.5 -85.5z" />
    <glyph glyph-name="Igrave" unicode="&#xcc;" horiz-adv-x="745" 
d="M162 1884l229 -323h193l-152 323h-270zM190 0h367v1360h-367v-1360z" />
    <glyph glyph-name="Iacute" unicode="&#xcd;" horiz-adv-x="745" 
d="M354 1550l232 332l-273 -8l-153 -324h194zM190 0h367v1360h-367v-1360z" />
    <glyph glyph-name="Icircumflex" unicode="&#xce;" horiz-adv-x="745" 
d="M623 1556l-152 320h-197l-151 -320h196l56 109l49 -109h199zM190 0h367v1360h-367v-1360z" />
    <glyph glyph-name="Idieresis" unicode="&#xcf;" horiz-adv-x="745" 
d="M348 1683q0 48 -35 85.5t-102 37.5q-66 0 -99.5 -38t-33.5 -85q0 -49 33.5 -85.5t99.5 -36.5q67 0 102 36.5t35 85.5zM190 0h367v1360h-367v-1360zM397 1681q0 -48 33.5 -86.5t99.5 -38.5q67 0 102.5 37.5t35.5 87.5q0 48 -35.5 85.5t-102.5 37.5q-66 0 -99.5 -37.5
t-33.5 -85.5z" />
    <glyph glyph-name="Ntilde" unicode="&#xd1;" horiz-adv-x="1730" 
d="M1124 1667v178l-102 -78q-41 -30 -74 -30q-14 0 -30 17.5t-30 38.5t-41.5 38.5t-60.5 17.5q-54 0 -102 -30q-29 -17 -72 -56l-4 -4l-2 -192l45 43q42 42 66 61q51 39 74 39q16 0 43.5 -31t57 -62.5t50.5 -31.5q85 0 178 78zM190 0h367v766l670 -766h315v1360h-368v-764
l-672 764h-312v-1360z" />
    <glyph glyph-name="Ograve" unicode="&#xd2;" 
d="M616 1884l230 -323h190l-149 323h-271zM127 680q0 -99 26 -197.5t82.5 -190.5t137 -162t197.5 -112.5t255 -42.5q139 0 256.5 42.5t198 112.5t137 162t83 190.5t26.5 197.5t-26.5 197t-83 190t-137 162t-198 112.5t-256.5 42.5q-138 0 -255 -42.5t-197.5 -112.5
t-137 -162t-82.5 -190t-26 -197zM506 680q0 65 19.5 128t57 116.5t100.5 86.5t142 33t143 -33t102.5 -86.5t58.5 -116.5t20 -128t-20 -128t-58.5 -116.5t-102.5 -86t-143 -32.5q-63 0 -117 21.5t-90.5 57.5t-62 83.5t-37.5 98t-12 102.5z" />
    <glyph glyph-name="Oacute" unicode="&#xd3;" 
d="M807 1550l231 332l-272 -8l-152 -324h193zM127 680q0 -99 26 -197.5t82.5 -190.5t137 -162t197.5 -112.5t255 -42.5q139 0 256.5 42.5t198 112.5t137 162t83 190.5t26.5 197.5t-26.5 197t-83 190t-137 162t-198 112.5t-256.5 42.5q-138 0 -255 -42.5t-197.5 -112.5
t-137 -162t-82.5 -190t-26 -197zM506 680q0 65 19.5 128t57 116.5t100.5 86.5t142 33t143 -33t102.5 -86.5t58.5 -116.5t20 -128t-20 -128t-58.5 -116.5t-102.5 -86t-143 -32.5q-63 0 -117 21.5t-90.5 57.5t-62 83.5t-37.5 98t-12 102.5z" />
    <glyph glyph-name="Ocircumflex" unicode="&#xd4;" 
d="M1077 1556l-153 320h-195l-154 -320h199l53 109l52 -109h198zM127 680q0 -99 26 -197.5t82.5 -190.5t137 -162t197.5 -112.5t255 -42.5q139 0 256.5 42.5t198 112.5t137 162t83 190.5t26.5 197.5t-26.5 197t-83 190t-137 162t-198 112.5t-256.5 42.5q-138 0 -255 -42.5
t-197.5 -112.5t-137 -162t-82.5 -190t-26 -197zM506 680q0 65 19.5 128t57 116.5t100.5 86.5t142 33t143 -33t102.5 -86.5t58.5 -116.5t20 -128t-20 -128t-58.5 -116.5t-102.5 -86t-143 -32.5q-63 0 -117 21.5t-90.5 57.5t-62 83.5t-37.5 98t-12 102.5z" />
    <glyph glyph-name="Otilde" unicode="&#xd5;" 
d="M1085 1667v178l-102 -78q-40 -30 -74 -30q-14 0 -30 17.5t-30 38.5t-41 38.5t-60 17.5q-55 0 -103 -30q-29 -17 -72 -56l-4 -4l-2 -192l45 43q42 42 66 61q51 39 74 39q16 0 43.5 -31t57 -62.5t50.5 -31.5q85 0 178 78zM127 680q0 -99 26 -197.5t82.5 -190.5t137 -162
t197.5 -112.5t255 -42.5q139 0 256.5 42.5t198 112.5t137 162t83 190.5t26.5 197.5t-26.5 197t-83 190t-137 162t-198 112.5t-256.5 42.5q-138 0 -255 -42.5t-197.5 -112.5t-137 -162t-82.5 -190t-26 -197zM506 680q0 65 19.5 128t57 116.5t100.5 86.5t142 33t143 -33
t102.5 -86.5t58.5 -116.5t20 -128t-20 -128t-58.5 -116.5t-102.5 -86t-143 -32.5q-63 0 -117 21.5t-90.5 57.5t-62 83.5t-37.5 98t-12 102.5z" />
    <glyph glyph-name="Odieresis" unicode="&#xd6;" 
d="M801 1683q0 48 -35 85.5t-102 37.5q-66 0 -100 -38t-34 -85q0 -49 33.5 -85.5t100.5 -36.5t102 36.5t35 85.5zM127 680q0 -99 26 -197.5t82.5 -190.5t137 -162t197.5 -112.5t255 -42.5q139 0 256.5 42.5t198 112.5t137 162t83 190.5t26.5 197.5t-26.5 197t-83 190
t-137 162t-198 112.5t-256.5 42.5q-138 0 -255 -42.5t-197.5 -112.5t-137 -162t-82.5 -190t-26 -197zM506 680q0 65 19.5 128t57 116.5t100.5 86.5t142 33t143 -33t102.5 -86.5t58.5 -116.5t20 -128t-20 -128t-58.5 -116.5t-102.5 -86t-143 -32.5q-63 0 -117 21.5
t-90.5 57.5t-62 83.5t-37.5 98t-12 102.5zM852 1681q0 -48 33.5 -86.5t99.5 -38.5q67 0 102 37.5t35 87.5q0 48 -35 85.5t-102 37.5q-66 0 -99.5 -37.5t-33.5 -85.5z" />
    <glyph glyph-name="multiply" unicode="&#xd7;" horiz-adv-x="1470" 
d="M166 348l242 -252l327 336l324 -336l248 248l-330 336l330 334l-248 248l-324 -334l-327 336l-242 -250l323 -334z" />
    <glyph glyph-name="Oslash" unicode="&#xd8;" 
d="M1303 1208q110 -102 166.5 -242.5t56.5 -285.5q0 -99 -26.5 -197.5t-83 -190.5t-137 -162t-198 -112.5t-256.5 -42.5q-35 0 -123 9l-90 -183l-303 154l80 162q-128 102 -195 253.5t-67 309.5q0 99 26 197t82.5 190t137 162t197.5 112.5t255 42.5q95 0 174 -18l95 193
l305 -154zM506 680q0 -117 55 -211l281 575h-17q-79 0 -142 -33t-100.5 -86.5t-57 -116.5t-19.5 -128zM866 319q92 11 158 68.5t95.5 133.5t29.5 159q0 77 -29 156z" />
    <glyph glyph-name="Ugrave" unicode="&#xd9;" horiz-adv-x="1679" 
d="M629 1884l229 -323h193l-152 323h-270zM190 655q0 -92 23.5 -185.5t75.5 -183t126.5 -158.5t185 -111t241.5 -42t241 42.5t184 111.5t125.5 158.5t75 182.5t23.5 185v705h-367v-705q0 -59 -17 -117t-49.5 -108.5t-88.5 -81.5t-127 -31t-128 31t-90 81t-50 108t-17 118
v705h-367v-705z" />
    <glyph glyph-name="Uacute" unicode="&#xda;" horiz-adv-x="1679" 
d="M821 1550l232 332l-273 -8l-153 -324h194zM190 655q0 -92 23.5 -185.5t75.5 -183t126.5 -158.5t185 -111t241.5 -42t241 42.5t184 111.5t125.5 158.5t75 182.5t23.5 185v705h-367v-705q0 -59 -17 -117t-49.5 -108.5t-88.5 -81.5t-127 -31t-128 31t-90 81t-50 108t-17 118
v705h-367v-705z" />
    <glyph glyph-name="Ucircumflex" unicode="&#xdb;" horiz-adv-x="1679" 
d="M1090 1556l-152 320h-197l-151 -320h196l56 109l49 -109h199zM190 655q0 -92 23.5 -185.5t75.5 -183t126.5 -158.5t185 -111t241.5 -42t241 42.5t184 111.5t125.5 158.5t75 182.5t23.5 185v705h-367v-705q0 -59 -17 -117t-49.5 -108.5t-88.5 -81.5t-127 -31t-128 31
t-90 81t-50 108t-17 118v705h-367v-705z" />
    <glyph glyph-name="Udieresis" unicode="&#xdc;" horiz-adv-x="1679" 
d="M815 1683q0 48 -35 85.5t-102 37.5q-66 0 -99.5 -38t-33.5 -85q0 -49 33.5 -85.5t99.5 -36.5q67 0 102 36.5t35 85.5zM190 655q0 -92 23.5 -185.5t75.5 -183t126.5 -158.5t185 -111t241.5 -42t241 42.5t184 111.5t125.5 158.5t75 182.5t23.5 185v705h-367v-705
q0 -59 -17 -117t-49.5 -108.5t-88.5 -81.5t-127 -31t-128 31t-90 81t-50 108t-17 118v705h-367v-705zM864 1681q0 -48 33.5 -86.5t99.5 -38.5q67 0 102.5 37.5t35.5 87.5q0 48 -35.5 85.5t-102.5 37.5q-66 0 -99.5 -37.5t-33.5 -85.5z" />
    <glyph glyph-name="Yacute" unicode="&#xdd;" horiz-adv-x="1581" 
d="M772 1550l232 332l-273 -8l-153 -324h194zM51 1360l557 -879l2 -481h363v481l557 879h-422l-317 -512l-320 512h-420z" />
    <glyph glyph-name="germandbls" unicode="&#xdf;" horiz-adv-x="1314" 
d="M1206 944q0 -153 -96 -252q133 -100 133 -276q0 -214 -154 -327.5t-421 -113.5v342q196 0 196 99q0 100 -196 100h-78v330h78q79 0 120 22.5t41 75.5q0 100 -176 100q-94 0 -134 -27.5t-36 -96.5l2 -27h-2v-1333h-381v1384q0 211 145 325.5t406 114.5q262 0 407.5 -114.5
t145.5 -325.5z" />
    <glyph glyph-name="agrave" unicode="&#xe0;" horiz-adv-x="1697" 
d="M639 1884l229 -323h191l-150 323h-270zM76 0h389l125 322h512l127 -322h393l-545 1360h-454zM717 649l127 316l133 -316h-260z" />
    <glyph glyph-name="aacute" unicode="&#xe1;" horiz-adv-x="1697" 
d="M829 1550l232 332l-273 -8l-151 -324h192zM76 0h389l125 322h512l127 -322h393l-545 1360h-454zM717 649l127 316l133 -316h-260z" />
    <glyph glyph-name="acircumflex" unicode="&#xe2;" horiz-adv-x="1697" 
d="M1100 1556l-154 320h-194l-154 -320h199l53 109l51 -109h199zM76 0h389l125 322h512l127 -322h393l-545 1360h-454zM717 649l127 316l133 -316h-260z" />
    <glyph glyph-name="atilde" unicode="&#xe3;" horiz-adv-x="1697" 
d="M76 0h389l125 322h512l127 -322h393l-545 1360h-454zM717 649l127 316l133 -316h-260z" />
    <glyph glyph-name="adieresis" unicode="&#xe4;" horiz-adv-x="1697" 
d="M823 1683q0 48 -35 85.5t-102 37.5q-66 0 -99.5 -38t-33.5 -85q0 -49 33.5 -85.5t99.5 -36.5q67 0 102 36.5t35 85.5zM76 0h389l125 322h512l127 -322h393l-545 1360h-454zM717 649l127 316l133 -316h-260zM874 1681q0 -48 34 -86.5t100 -38.5q67 0 102 37.5t35 87.5
q0 48 -35 85.5t-102 37.5q-66 0 -100 -37.5t-34 -85.5z" />
    <glyph glyph-name="aring" unicode="&#xe5;" horiz-adv-x="1697" 
d="M700 1710q0 -55 37 -101t113 -46q74 0 110.5 46t36.5 101t-36.5 99t-110.5 44q-40 0 -70 -14t-47 -36t-25 -45.5t-8 -47.5zM76 0h389l125 322h512l127 -322h393l-545 1360h-454zM717 649l127 316l133 -316h-260zM834 1710q0 19 16 19q12 0 12 -19q0 -12 -2.5 -15t-9.5 -3
q-10 0 -13 2.5t-3 15.5z" />
    <glyph glyph-name="ae" unicode="&#xe6;" horiz-adv-x="2334" 
d="M1937 846v-330h-712v-188h958v-328h-1325v322h-233l-125 -322h-389l546 1360h1526v-330h-958v-184h712zM752 649h106v269z" />
    <glyph glyph-name="ccedilla" unicode="&#xe7;" 
d="M1145 618h381l-4 -26q-14 -105 -56 -202.5t-111.5 -183t-176 -145t-236.5 -77.5l-4 -23q129 -38 129 -170q0 -83 -57.5 -144t-165.5 -61q-82 0 -140.5 43.5t-89.5 104.5q-3 5 -15 41t-11 37l166 -2q52 -58 84 -58q50 0 53 33q1 28 -22 41.5t-53 12.5t-58 -1.5t-37 0.5
l4 10q26 59 53 129q-129 7 -238 52.5t-183.5 115.5t-127.5 159.5t-77.5 184.5t-24.5 191q0 99 26 197t82.5 190t137 162t197.5 112.5t255 42.5q127 0 236 -35.5t187 -94.5t136.5 -139t91.5 -166.5t46 -178.5l4 -27h-381l-4 21q-22 116 -105 198t-211 82q-79 0 -142 -33
t-100.5 -86.5t-57 -116.5t-19.5 -128q0 -52 12 -102.5t37.5 -98t62 -83.5t90.5 -57.5t117 -21.5q128 0 211 82t105 199z" />
    <glyph glyph-name="egrave" unicode="&#xe8;" horiz-adv-x="1667" 
d="M623 1884l229 -323h192l-151 323h-270zM190 0h1326v328h-959v188h713v330h-713v184h959v330h-1326v-1360z" />
    <glyph glyph-name="eacute" unicode="&#xe9;" horiz-adv-x="1667" 
d="M815 1550l232 332l-273 -8l-153 -324h194zM190 0h1326v328h-959v188h713v330h-713v184h959v330h-1326v-1360z" />
    <glyph glyph-name="ecircumflex" unicode="&#xea;" horiz-adv-x="1667" 
d="M1083 1556l-151 320h-197l-151 -320h196l56 109l49 -109h198zM190 0h1326v328h-959v188h713v330h-713v184h959v330h-1326v-1360z" />
    <glyph glyph-name="edieresis" unicode="&#xeb;" horiz-adv-x="1667" 
d="M809 1683q0 48 -35 85.5t-102 37.5q-66 0 -99.5 -38t-33.5 -85q0 -49 33.5 -85.5t99.5 -36.5q67 0 102 36.5t35 85.5zM190 0h1326v328h-959v188h713v330h-713v184h959v330h-1326v-1360zM858 1681q0 -48 33.5 -86.5t99.5 -38.5q67 0 102 37.5t35 87.5q0 48 -35 85.5
t-102 37.5q-66 0 -99.5 -37.5t-33.5 -85.5z" />
    <glyph glyph-name="igrave" unicode="&#xec;" horiz-adv-x="745" 
d="M162 1884l229 -323h193l-152 323h-270zM190 0h367v1360h-367v-1360z" />
    <glyph glyph-name="iacute" unicode="&#xed;" horiz-adv-x="745" 
d="M354 1550l232 332l-273 -8l-153 -324h194zM190 0h367v1360h-367v-1360z" />
    <glyph glyph-name="icircumflex" unicode="&#xee;" horiz-adv-x="745" 
d="M623 1556l-152 320h-197l-151 -320h196l56 109l49 -109h199zM190 0h367v1360h-367v-1360z" />
    <glyph glyph-name="idieresis" unicode="&#xef;" horiz-adv-x="745" 
d="M348 1683q0 48 -35 85.5t-102 37.5q-66 0 -99.5 -38t-33.5 -85q0 -49 33.5 -85.5t99.5 -36.5q67 0 102 36.5t35 85.5zM190 0h367v1360h-367v-1360zM397 1681q0 -48 33.5 -86.5t99.5 -38.5q67 0 102.5 37.5t35.5 87.5q0 48 -35.5 85.5t-102.5 37.5q-66 0 -99.5 -37.5
t-33.5 -85.5z" />
    <glyph glyph-name="ntilde" unicode="&#xf1;" horiz-adv-x="1730" 
d="M1124 1667v178l-102 -78q-41 -30 -74 -30q-14 0 -30 17.5t-30 38.5t-41.5 38.5t-60.5 17.5q-54 0 -102 -30q-29 -17 -72 -56l-4 -4l-2 -192l45 43q42 42 66 61q51 39 74 39q16 0 43.5 -31t57 -62.5t50.5 -31.5q85 0 178 78zM190 0h367v766l670 -766h315v1360h-368v-764
l-672 764h-312v-1360z" />
    <glyph glyph-name="ograve" unicode="&#xf2;" 
d="M616 1884l230 -323h190l-149 323h-271zM127 680q0 -99 26 -197.5t82.5 -190.5t137 -162t197.5 -112.5t255 -42.5q139 0 256.5 42.5t198 112.5t137 162t83 190.5t26.5 197.5t-26.5 197t-83 190t-137 162t-198 112.5t-256.5 42.5q-138 0 -255 -42.5t-197.5 -112.5
t-137 -162t-82.5 -190t-26 -197zM506 680q0 65 19.5 128t57 116.5t100.5 86.5t142 33t143 -33t102.5 -86.5t58.5 -116.5t20 -128t-20 -128t-58.5 -116.5t-102.5 -86t-143 -32.5q-63 0 -117 21.5t-90.5 57.5t-62 83.5t-37.5 98t-12 102.5z" />
    <glyph glyph-name="oacute" unicode="&#xf3;" 
d="M807 1550l231 332l-272 -8l-152 -324h193zM127 680q0 -99 26 -197.5t82.5 -190.5t137 -162t197.5 -112.5t255 -42.5q139 0 256.5 42.5t198 112.5t137 162t83 190.5t26.5 197.5t-26.5 197t-83 190t-137 162t-198 112.5t-256.5 42.5q-138 0 -255 -42.5t-197.5 -112.5
t-137 -162t-82.5 -190t-26 -197zM506 680q0 65 19.5 128t57 116.5t100.5 86.5t142 33t143 -33t102.5 -86.5t58.5 -116.5t20 -128t-20 -128t-58.5 -116.5t-102.5 -86t-143 -32.5q-63 0 -117 21.5t-90.5 57.5t-62 83.5t-37.5 98t-12 102.5z" />
    <glyph glyph-name="ocircumflex" unicode="&#xf4;" 
d="M1077 1556l-153 320h-195l-154 -320h199l53 109l52 -109h198zM127 680q0 -99 26 -197.5t82.5 -190.5t137 -162t197.5 -112.5t255 -42.5q139 0 256.5 42.5t198 112.5t137 162t83 190.5t26.5 197.5t-26.5 197t-83 190t-137 162t-198 112.5t-256.5 42.5q-138 0 -255 -42.5
t-197.5 -112.5t-137 -162t-82.5 -190t-26 -197zM506 680q0 65 19.5 128t57 116.5t100.5 86.5t142 33t143 -33t102.5 -86.5t58.5 -116.5t20 -128t-20 -128t-58.5 -116.5t-102.5 -86t-143 -32.5q-63 0 -117 21.5t-90.5 57.5t-62 83.5t-37.5 98t-12 102.5z" />
    <glyph glyph-name="otilde" unicode="&#xf5;" 
d="M1085 1667v178l-102 -78q-40 -30 -74 -30q-14 0 -30 17.5t-30 38.5t-41 38.5t-60 17.5q-55 0 -103 -30q-29 -17 -72 -56l-4 -4l-2 -192l45 43q42 42 66 61q51 39 74 39q16 0 43.5 -31t57 -62.5t50.5 -31.5q85 0 178 78zM127 680q0 -99 26 -197.5t82.5 -190.5t137 -162
t197.5 -112.5t255 -42.5q139 0 256.5 42.5t198 112.5t137 162t83 190.5t26.5 197.5t-26.5 197t-83 190t-137 162t-198 112.5t-256.5 42.5q-138 0 -255 -42.5t-197.5 -112.5t-137 -162t-82.5 -190t-26 -197zM506 680q0 65 19.5 128t57 116.5t100.5 86.5t142 33t143 -33
t102.5 -86.5t58.5 -116.5t20 -128t-20 -128t-58.5 -116.5t-102.5 -86t-143 -32.5q-63 0 -117 21.5t-90.5 57.5t-62 83.5t-37.5 98t-12 102.5z" />
    <glyph glyph-name="odieresis" unicode="&#xf6;" 
d="M801 1683q0 48 -35 85.5t-102 37.5q-66 0 -100 -38t-34 -85q0 -49 33.5 -85.5t100.5 -36.5t102 36.5t35 85.5zM127 680q0 -99 26 -197.5t82.5 -190.5t137 -162t197.5 -112.5t255 -42.5q139 0 256.5 42.5t198 112.5t137 162t83 190.5t26.5 197.5t-26.5 197t-83 190
t-137 162t-198 112.5t-256.5 42.5q-138 0 -255 -42.5t-197.5 -112.5t-137 -162t-82.5 -190t-26 -197zM506 680q0 65 19.5 128t57 116.5t100.5 86.5t142 33t143 -33t102.5 -86.5t58.5 -116.5t20 -128t-20 -128t-58.5 -116.5t-102.5 -86t-143 -32.5q-63 0 -117 21.5
t-90.5 57.5t-62 83.5t-37.5 98t-12 102.5zM852 1681q0 -48 33.5 -86.5t99.5 -38.5q67 0 102 37.5t35 87.5q0 48 -35 85.5t-102 37.5q-66 0 -99.5 -37.5t-33.5 -85.5z" />
    <glyph glyph-name="divide" unicode="&#xf7;" horiz-adv-x="1482" 
d="M741 1284q-97 0 -151.5 -63.5t-54.5 -139.5q0 -75 54 -137.5t152 -62.5q99 0 154 62.5t55 137.5q0 47 -21.5 92t-71 78t-116.5 33zM190 516h1104v330h-1104v-330zM535 283q0 -76 54.5 -139.5t151.5 -63.5q67 0 116.5 33t71 78t21.5 92q0 74 -55 137t-154 63
q-98 0 -152 -62.5t-54 -137.5z" />
    <glyph glyph-name="oslash" unicode="&#xf8;" 
d="M1303 1208q110 -102 166.5 -242.5t56.5 -285.5q0 -99 -26.5 -197.5t-83 -190.5t-137 -162t-198 -112.5t-256.5 -42.5q-35 0 -123 9l-90 -183l-303 154l80 162q-128 102 -195 253.5t-67 309.5q0 99 26 197t82.5 190t137 162t197.5 112.5t255 42.5q95 0 174 -18l95 193
l305 -154zM506 680q0 -117 55 -211l281 575h-17q-79 0 -142 -33t-100.5 -86.5t-57 -116.5t-19.5 -128zM866 319q92 11 158 68.5t95.5 133.5t29.5 159q0 77 -29 156z" />
    <glyph glyph-name="ugrave" unicode="&#xf9;" horiz-adv-x="1679" 
d="M629 1884l229 -323h193l-152 323h-270zM190 655q0 -92 23.5 -185.5t75.5 -183t126.5 -158.5t185 -111t241.5 -42t241 42.5t184 111.5t125.5 158.5t75 182.5t23.5 185v705h-367v-705q0 -59 -17 -117t-49.5 -108.5t-88.5 -81.5t-127 -31t-128 31t-90 81t-50 108t-17 118
v705h-367v-705z" />
    <glyph glyph-name="uacute" unicode="&#xfa;" horiz-adv-x="1679" 
d="M821 1550l232 332l-273 -8l-153 -324h194zM190 655q0 -92 23.5 -185.5t75.5 -183t126.5 -158.5t185 -111t241.5 -42t241 42.5t184 111.5t125.5 158.5t75 182.5t23.5 185v705h-367v-705q0 -59 -17 -117t-49.5 -108.5t-88.5 -81.5t-127 -31t-128 31t-90 81t-50 108t-17 118
v705h-367v-705z" />
    <glyph glyph-name="ucircumflex" unicode="&#xfb;" horiz-adv-x="1679" 
d="M1090 1556l-152 320h-197l-151 -320h196l56 109l49 -109h199zM190 655q0 -92 23.5 -185.5t75.5 -183t126.5 -158.5t185 -111t241.5 -42t241 42.5t184 111.5t125.5 158.5t75 182.5t23.5 185v705h-367v-705q0 -59 -17 -117t-49.5 -108.5t-88.5 -81.5t-127 -31t-128 31
t-90 81t-50 108t-17 118v705h-367v-705z" />
    <glyph glyph-name="udieresis" unicode="&#xfc;" horiz-adv-x="1679" 
d="M815 1683q0 48 -35 85.5t-102 37.5q-66 0 -99.5 -38t-33.5 -85q0 -49 33.5 -85.5t99.5 -36.5q67 0 102 36.5t35 85.5zM190 655q0 -92 23.5 -185.5t75.5 -183t126.5 -158.5t185 -111t241.5 -42t241 42.5t184 111.5t125.5 158.5t75 182.5t23.5 185v705h-367v-705
q0 -59 -17 -117t-49.5 -108.5t-88.5 -81.5t-127 -31t-128 31t-90 81t-50 108t-17 118v705h-367v-705zM864 1681q0 -48 33.5 -86.5t99.5 -38.5q67 0 102.5 37.5t35.5 87.5q0 48 -35.5 85.5t-102.5 37.5q-66 0 -99.5 -37.5t-33.5 -85.5z" />
    <glyph glyph-name="yacute" unicode="&#xfd;" horiz-adv-x="1581" 
d="M772 1550l232 332l-273 -8l-153 -324h194zM51 1360l557 -879l2 -481h363v481l557 879h-422l-317 -512l-320 512h-420z" />
    <glyph glyph-name="ydieresis" unicode="&#xff;" horiz-adv-x="1581" 
d="M766 1683q0 48 -35 85.5t-102 37.5q-66 0 -99.5 -38t-33.5 -85q0 -49 33.5 -85.5t99.5 -36.5q67 0 102 36.5t35 85.5zM51 1360l557 -879l2 -481h363v481l557 879h-422l-317 -512l-320 512h-420zM815 1681q0 -48 33.5 -86.5t99.5 -38.5q67 0 102 37.5t35 87.5
q0 48 -35 85.5t-102 37.5q-66 0 -99.5 -37.5t-33.5 -85.5z" />
    <glyph glyph-name="Amacron" unicode="&#x100;" horiz-adv-x="1697" 
d="M627 1554h444v148h-444v-148zM76 0h389l125 322h512l127 -322h393l-545 1360h-454zM717 649l127 316l133 -316h-260z" />
    <glyph glyph-name="amacron" unicode="&#x101;" horiz-adv-x="1697" 
d="M627 1554h444v148h-444v-148zM76 0h389l125 322h512l127 -322h393l-545 1360h-454zM717 649l127 316l133 -316h-260z" />
    <glyph glyph-name="Cacute" unicode="&#x106;" 
d="M807 1550l231 332l-272 -8l-152 -324h193zM127 680q0 -99 26 -197.5t82.5 -190.5t137 -162t197.5 -112.5t255 -42.5q127 0 236.5 35.5t187.5 95.5t136.5 140t91.5 167t45 179l4 26h-381l-4 -20q-22 -117 -105 -199t-211 -82q-63 0 -117 21.5t-90.5 57.5t-62 83.5
t-37.5 98t-12 102.5q0 65 19.5 128t57 116.5t100.5 86.5t142 33q128 0 211 -82t105 -198l4 -21h381l-4 27q-13 92 -46 178.5t-91.5 166.5t-136.5 139t-187 94.5t-236 35.5q-138 0 -255 -42.5t-197.5 -112.5t-137 -162t-82.5 -190t-26 -197z" />
    <glyph glyph-name="cacute" unicode="&#x107;" 
d="M807 1550l231 332l-272 -8l-152 -324h193zM127 680q0 -99 26 -197.5t82.5 -190.5t137 -162t197.5 -112.5t255 -42.5q127 0 236.5 35.5t187.5 95.5t136.5 140t91.5 167t45 179l4 26h-381l-4 -20q-22 -117 -105 -199t-211 -82q-63 0 -117 21.5t-90.5 57.5t-62 83.5
t-37.5 98t-12 102.5q0 65 19.5 128t57 116.5t100.5 86.5t142 33q128 0 211 -82t105 -198l4 -21h381l-4 27q-13 92 -46 178.5t-91.5 166.5t-136.5 139t-187 94.5t-236 35.5q-138 0 -255 -42.5t-197.5 -112.5t-137 -162t-82.5 -190t-26 -197z" />
    <glyph glyph-name="Ccircumflex" unicode="&#x108;" 
d="M1077 1556l-153 320h-195l-154 -320h199l53 109l52 -109h198zM127 680q0 -99 26 -197.5t82.5 -190.5t137 -162t197.5 -112.5t255 -42.5q127 0 236.5 35.5t187.5 95.5t136.5 140t91.5 167t45 179l4 26h-381l-4 -20q-22 -117 -105 -199t-211 -82q-63 0 -117 21.5
t-90.5 57.5t-62 83.5t-37.5 98t-12 102.5q0 65 19.5 128t57 116.5t100.5 86.5t142 33q128 0 211 -82t105 -198l4 -21h381l-4 27q-13 92 -46 178.5t-91.5 166.5t-136.5 139t-187 94.5t-236 35.5q-138 0 -255 -42.5t-197.5 -112.5t-137 -162t-82.5 -190t-26 -197z" />
    <glyph glyph-name="ccircumflex" unicode="&#x109;" 
d="M1077 1556l-153 320h-195l-154 -320h199l53 109l52 -109h198zM127 680q0 -99 26 -197.5t82.5 -190.5t137 -162t197.5 -112.5t255 -42.5q127 0 236.5 35.5t187.5 95.5t136.5 140t91.5 167t45 179l4 26h-381l-4 -20q-22 -117 -105 -199t-211 -82q-63 0 -117 21.5
t-90.5 57.5t-62 83.5t-37.5 98t-12 102.5q0 65 19.5 128t57 116.5t100.5 86.5t142 33q128 0 211 -82t105 -198l4 -21h381l-4 27q-13 92 -46 178.5t-91.5 166.5t-136.5 139t-187 94.5t-236 35.5q-138 0 -255 -42.5t-197.5 -112.5t-137 -162t-82.5 -190t-26 -197z" />
    <glyph glyph-name="Cdotaccent" unicode="&#x10a;" 
d="M961 1694q0 49 -35 87t-101 38q-67 0 -100 -38t-33 -87t33 -87t100 -38q66 0 101 38t35 87zM127 680q0 -99 26 -197.5t82.5 -190.5t137 -162t197.5 -112.5t255 -42.5q127 0 236.5 35.5t187.5 95.5t136.5 140t91.5 167t45 179l4 26h-381l-4 -20q-22 -117 -105 -199
t-211 -82q-63 0 -117 21.5t-90.5 57.5t-62 83.5t-37.5 98t-12 102.5q0 65 19.5 128t57 116.5t100.5 86.5t142 33q128 0 211 -82t105 -198l4 -21h381l-4 27q-13 92 -46 178.5t-91.5 166.5t-136.5 139t-187 94.5t-236 35.5q-138 0 -255 -42.5t-197.5 -112.5t-137 -162
t-82.5 -190t-26 -197z" />
    <glyph glyph-name="cdotaccent" unicode="&#x10b;" 
d="M961 1694q0 49 -35 87t-101 38q-67 0 -100 -38t-33 -87t33 -87t100 -38q66 0 101 38t35 87zM127 680q0 -99 26 -197.5t82.5 -190.5t137 -162t197.5 -112.5t255 -42.5q127 0 236.5 35.5t187.5 95.5t136.5 140t91.5 167t45 179l4 26h-381l-4 -20q-22 -117 -105 -199
t-211 -82q-63 0 -117 21.5t-90.5 57.5t-62 83.5t-37.5 98t-12 102.5q0 65 19.5 128t57 116.5t100.5 86.5t142 33q128 0 211 -82t105 -198l4 -21h381l-4 27q-13 92 -46 178.5t-91.5 166.5t-136.5 139t-187 94.5t-236 35.5q-138 0 -255 -42.5t-197.5 -112.5t-137 -162
t-82.5 -190t-26 -197z" />
    <glyph glyph-name="Ccaron" unicode="&#x10c;" 
d="M924 1565l153 319h-198l-52 -108l-53 108h-199l154 -319h195zM127 680q0 -99 26 -197.5t82.5 -190.5t137 -162t197.5 -112.5t255 -42.5q127 0 236.5 35.5t187.5 95.5t136.5 140t91.5 167t45 179l4 26h-381l-4 -20q-22 -117 -105 -199t-211 -82q-63 0 -117 21.5
t-90.5 57.5t-62 83.5t-37.5 98t-12 102.5q0 65 19.5 128t57 116.5t100.5 86.5t142 33q128 0 211 -82t105 -198l4 -21h381l-4 27q-13 92 -46 178.5t-91.5 166.5t-136.5 139t-187 94.5t-236 35.5q-138 0 -255 -42.5t-197.5 -112.5t-137 -162t-82.5 -190t-26 -197z" />
    <glyph glyph-name="ccaron" unicode="&#x10d;" 
d="M924 1565l153 319h-198l-52 -108l-53 108h-199l154 -319h195zM127 680q0 -99 26 -197.5t82.5 -190.5t137 -162t197.5 -112.5t255 -42.5q127 0 236.5 35.5t187.5 95.5t136.5 140t91.5 167t45 179l4 26h-381l-4 -20q-22 -117 -105 -199t-211 -82q-63 0 -117 21.5
t-90.5 57.5t-62 83.5t-37.5 98t-12 102.5q0 65 19.5 128t57 116.5t100.5 86.5t142 33q128 0 211 -82t105 -198l4 -21h381l-4 27q-13 92 -46 178.5t-91.5 166.5t-136.5 139t-187 94.5t-236 35.5q-138 0 -255 -42.5t-197.5 -112.5t-137 -162t-82.5 -190t-26 -197z" />
    <glyph glyph-name="Emacron" unicode="&#x112;" horiz-adv-x="1667" 
d="M612 1554h443v148h-443v-148zM190 0h1326v328h-959v188h713v330h-713v184h959v330h-1326v-1360z" />
    <glyph glyph-name="emacron" unicode="&#x113;" horiz-adv-x="1667" 
d="M612 1554h443v148h-443v-148zM190 0h1326v328h-959v188h713v330h-713v184h959v330h-1326v-1360z" />
    <glyph glyph-name="Edotaccent" unicode="&#x116;" horiz-adv-x="1667" 
d="M969 1694q0 48 -35.5 86.5t-102.5 38.5q-66 0 -99.5 -38.5t-33.5 -86.5t33.5 -86.5t99.5 -38.5q67 0 102.5 38.5t35.5 86.5zM190 0h1326v328h-959v188h713v330h-713v184h959v330h-1326v-1360z" />
    <glyph glyph-name="edotaccent" unicode="&#x117;" horiz-adv-x="1667" 
d="M969 1694q0 48 -35.5 86.5t-102.5 38.5q-66 0 -99.5 -38.5t-33.5 -86.5t33.5 -86.5t99.5 -38.5q67 0 102.5 38.5t35.5 86.5zM190 0h1326v328h-959v188h713v330h-713v184h959v330h-1326v-1360z" />
    <glyph glyph-name="Ecaron" unicode="&#x11a;" horiz-adv-x="1667" 
d="M932 1565l151 319h-198l-49 -108l-56 108h-196l151 -319h197zM190 0h1326v328h-959v188h713v330h-713v184h959v330h-1326v-1360z" />
    <glyph glyph-name="ecaron" unicode="&#x11b;" horiz-adv-x="1667" 
d="M932 1565l151 319h-198l-49 -108l-56 108h-196l151 -319h197zM190 0h1326v328h-959v188h713v330h-713v184h959v330h-1326v-1360z" />
    <glyph glyph-name="Gcircumflex" unicode="&#x11c;" 
d="M1077 1556l-153 320h-195l-154 -320h199l53 109l52 -109h198zM127 680q0 -99 26 -197.5t82.5 -190.5t137 -162t197.5 -112.5t255 -42.5q139 0 257 42.5t198.5 112.5t137 162t82.5 190t26 198q0 61 -13 131l-4 20h-743v-327h344q-39 -83 -113 -135t-172 -52
q-63 0 -117 21.5t-90.5 57.5t-62 83.5t-37.5 98t-12 102.5q0 65 19.5 128t57 116.5t100.5 86.5t142 33q85 0 156.5 -41t112.5 -108l8 -14l403 6l-12 31q-6 12 -14 36q-37 90 -96 166t-140 136t-188.5 94t-229.5 34q-138 0 -255 -42.5t-197.5 -112.5t-137 -162t-82.5 -190
t-26 -197z" />
    <glyph glyph-name="gcircumflex" unicode="&#x11d;" 
d="M1077 1556l-153 320h-195l-154 -320h199l53 109l52 -109h198zM127 680q0 -99 26 -197.5t82.5 -190.5t137 -162t197.5 -112.5t255 -42.5q139 0 257 42.5t198.5 112.5t137 162t82.5 190t26 198q0 61 -13 131l-4 20h-743v-327h344q-39 -83 -113 -135t-172 -52
q-63 0 -117 21.5t-90.5 57.5t-62 83.5t-37.5 98t-12 102.5q0 65 19.5 128t57 116.5t100.5 86.5t142 33q85 0 156.5 -41t112.5 -108l8 -14l403 6l-12 31q-6 12 -14 36q-37 90 -96 166t-140 136t-188.5 94t-229.5 34q-138 0 -255 -42.5t-197.5 -112.5t-137 -162t-82.5 -190
t-26 -197z" />
    <glyph glyph-name="Gdotaccent" unicode="&#x120;" 
d="M961 1694q0 49 -35 87t-101 38q-67 0 -100 -38t-33 -87t33 -87t100 -38q66 0 101 38t35 87zM127 680q0 -99 26 -197.5t82.5 -190.5t137 -162t197.5 -112.5t255 -42.5q139 0 257 42.5t198.5 112.5t137 162t82.5 190t26 198q0 61 -13 131l-4 20h-743v-327h344
q-39 -83 -113 -135t-172 -52q-63 0 -117 21.5t-90.5 57.5t-62 83.5t-37.5 98t-12 102.5q0 65 19.5 128t57 116.5t100.5 86.5t142 33q85 0 156.5 -41t112.5 -108l8 -14l403 6l-12 31q-6 12 -14 36q-37 90 -96 166t-140 136t-188.5 94t-229.5 34q-138 0 -255 -42.5
t-197.5 -112.5t-137 -162t-82.5 -190t-26 -197z" />
    <glyph glyph-name="gdotaccent" unicode="&#x121;" 
d="M961 1694q0 49 -35 87t-101 38q-67 0 -100 -38t-33 -87t33 -87t100 -38q66 0 101 38t35 87zM127 680q0 -99 26 -197.5t82.5 -190.5t137 -162t197.5 -112.5t255 -42.5q139 0 257 42.5t198.5 112.5t137 162t82.5 190t26 198q0 61 -13 131l-4 20h-743v-327h344
q-39 -83 -113 -135t-172 -52q-63 0 -117 21.5t-90.5 57.5t-62 83.5t-37.5 98t-12 102.5q0 65 19.5 128t57 116.5t100.5 86.5t142 33q85 0 156.5 -41t112.5 -108l8 -14l403 6l-12 31q-6 12 -14 36q-37 90 -96 166t-140 136t-188.5 94t-229.5 34q-138 0 -255 -42.5
t-197.5 -112.5t-137 -162t-82.5 -190t-26 -197z" />
    <glyph glyph-name="Hcircumflex" unicode="&#x124;" horiz-adv-x="1730" 
d="M1116 1556l-153 320h-195l-154 -320h199l53 109l52 -109h198zM190 0h367v516h617v-516h368v1360h-368v-514h-617v514h-367v-1360z" />
    <glyph glyph-name="hcircumflex" unicode="&#x125;" horiz-adv-x="1730" 
d="M1116 1556l-153 320h-195l-154 -320h199l53 109l52 -109h198zM190 0h367v516h617v-516h368v1360h-368v-514h-617v514h-367v-1360z" />
    <glyph glyph-name="Itilde" unicode="&#x128;" horiz-adv-x="745" 
d="M631 1667v178l-101 -78q-40 -30 -75 -30q-13 0 -28.5 17.5t-30 38.5t-42 38.5t-61.5 17.5q-55 0 -100 -30q-25 -14 -72 -56l-4 -4l-2 -192l43 43q44 44 67 61q48 39 74 39q15 0 42.5 -31t57.5 -62.5t52 -31.5q88 0 176 78zM190 0h367v1360h-367v-1360z" />
    <glyph glyph-name="itilde" unicode="&#x129;" horiz-adv-x="745" 
d="M631 1667v178l-101 -78q-40 -30 -75 -30q-13 0 -28.5 17.5t-30 38.5t-42 38.5t-61.5 17.5q-55 0 -100 -30q-25 -14 -72 -56l-4 -4l-2 -192l43 43q44 44 67 61q48 39 74 39q15 0 42.5 -31t57.5 -62.5t52 -31.5q88 0 176 78zM190 0h367v1360h-367v-1360z" />
    <glyph glyph-name="Imacron" unicode="&#x12a;" horiz-adv-x="745" 
d="M152 1554h442v148h-442v-148zM190 0h367v1360h-367v-1360z" />
    <glyph glyph-name="imacron" unicode="&#x12b;" horiz-adv-x="745" 
d="M152 1554h442v148h-442v-148zM190 0h367v1360h-367v-1360z" />
    <glyph glyph-name="dotlessi" unicode="&#x131;" horiz-adv-x="745" 
d="M190 1360v-1360h367v1360h-367z" />
    <glyph glyph-name="Lacute" unicode="&#x139;" horiz-adv-x="1396" 
d="M680 1550l231 332l-272 -8l-154 -324h195zM190 0h1104v328h-737v1032h-367v-1360z" />
    <glyph glyph-name="lacute" unicode="&#x13a;" horiz-adv-x="1396" 
d="M680 1550l231 332l-272 -8l-154 -324h195zM190 0h1104v328h-737v1032h-367v-1360z" />
    <glyph glyph-name="Nacute" unicode="&#x143;" horiz-adv-x="1730" 
d="M846 1550l231 332l-272 -8l-152 -324h193zM190 0h367v766l670 -766h315v1360h-368v-764l-672 764h-312v-1360z" />
    <glyph glyph-name="nacute" unicode="&#x144;" horiz-adv-x="1730" 
d="M846 1550l231 332l-272 -8l-152 -324h193zM190 0h367v766l670 -766h315v1360h-368v-764l-672 764h-312v-1360z" />
    <glyph glyph-name="Ncaron" unicode="&#x147;" horiz-adv-x="1730" 
d="M963 1565l153 319h-198l-52 -108l-53 108h-199l154 -319h195zM190 0h367v766l670 -766h315v1360h-368v-764l-672 764h-312v-1360z" />
    <glyph glyph-name="ncaron" unicode="&#x148;" horiz-adv-x="1730" 
d="M963 1565l153 319h-198l-52 -108l-53 108h-199l154 -319h195zM190 0h367v766l670 -766h315v1360h-368v-764l-672 764h-312v-1360z" />
    <glyph glyph-name="Omacron" unicode="&#x14c;" 
d="M604 1554h445v148h-445v-148zM127 680q0 -99 26 -197.5t82.5 -190.5t137 -162t197.5 -112.5t255 -42.5q139 0 256.5 42.5t198 112.5t137 162t83 190.5t26.5 197.5t-26.5 197t-83 190t-137 162t-198 112.5t-256.5 42.5q-138 0 -255 -42.5t-197.5 -112.5t-137 -162
t-82.5 -190t-26 -197zM506 680q0 65 19.5 128t57 116.5t100.5 86.5t142 33t143 -33t102.5 -86.5t58.5 -116.5t20 -128t-20 -128t-58.5 -116.5t-102.5 -86t-143 -32.5q-63 0 -117 21.5t-90.5 57.5t-62 83.5t-37.5 98t-12 102.5z" />
    <glyph glyph-name="omacron" unicode="&#x14d;" 
d="M604 1554h445v148h-445v-148zM127 680q0 -99 26 -197.5t82.5 -190.5t137 -162t197.5 -112.5t255 -42.5q139 0 256.5 42.5t198 112.5t137 162t83 190.5t26.5 197.5t-26.5 197t-83 190t-137 162t-198 112.5t-256.5 42.5q-138 0 -255 -42.5t-197.5 -112.5t-137 -162
t-82.5 -190t-26 -197zM506 680q0 65 19.5 128t57 116.5t100.5 86.5t142 33t143 -33t102.5 -86.5t58.5 -116.5t20 -128t-20 -128t-58.5 -116.5t-102.5 -86t-143 -32.5q-63 0 -117 21.5t-90.5 57.5t-62 83.5t-37.5 98t-12 102.5z" />
    <glyph glyph-name="OE" unicode="&#x152;" horiz-adv-x="2629" 
d="M2234 846v-330h-712v-188h958v-328h-1325v49q-145 -74 -330 -74q-138 0 -255 42.5t-197.5 112.5t-137 162t-82.5 190.5t-26 197.5t26 197t82.5 190t137 162t197.5 112.5t255 42.5q187 0 330 -73v49h1325v-330h-958v-184h712zM506 680q0 -52 12 -102.5t37.5 -98t62 -83.5
t90.5 -57.5t117 -21.5q79 0 143 32.5t102.5 86t58.5 116.5t20 128t-20 128t-58.5 116.5t-102.5 86.5t-143 33t-142 -33t-100.5 -86.5t-57 -116.5t-19.5 -128z" />
    <glyph glyph-name="oe" unicode="&#x153;" horiz-adv-x="2629" 
d="M2234 846v-330h-712v-188h958v-328h-1325v49q-145 -74 -330 -74q-138 0 -255 42.5t-197.5 112.5t-137 162t-82.5 190.5t-26 197.5t26 197t82.5 190t137 162t197.5 112.5t255 42.5q187 0 330 -73v49h1325v-330h-958v-184h712zM506 680q0 -52 12 -102.5t37.5 -98t62 -83.5
t90.5 -57.5t117 -21.5q79 0 143 32.5t102.5 86t58.5 116.5t20 128t-20 128t-58.5 116.5t-102.5 86.5t-143 33t-142 -33t-100.5 -86.5t-57 -116.5t-19.5 -128z" />
    <glyph glyph-name="Racute" unicode="&#x154;" horiz-adv-x="1740" 
d="M852 1550l231 332l-272 -8l-154 -324h195zM190 0h367v516h322l311 -516h414l-324 532q0 1 -1 2.5t-1 2.5q98 28 164.5 93.5t94.5 141.5t28 160q0 62 -15 121.5t-48.5 115.5t-82 98t-121.5 67.5t-161 25.5h-947v-1360zM557 846v184h580q29 0 45 -20t16 -54v-36
q0 -34 -16 -54t-45 -20h-580z" />
    <glyph glyph-name="racute" unicode="&#x155;" horiz-adv-x="1740" 
d="M852 1550l231 332l-272 -8l-154 -324h195zM190 0h367v516h322l311 -516h414l-324 532q0 1 -1 2.5t-1 2.5q98 28 164.5 93.5t94.5 141.5t28 160q0 62 -15 121.5t-48.5 115.5t-82 98t-121.5 67.5t-161 25.5h-947v-1360zM557 846v184h580q29 0 45 -20t16 -54v-36
q0 -34 -16 -54t-45 -20h-580z" />
    <glyph glyph-name="Rcaron" unicode="&#x158;" horiz-adv-x="1740" 
d="M969 1565l151 319h-198l-50 -108l-55 108h-196l151 -319h197zM190 0h367v516h322l311 -516h414l-324 532q0 1 -1 2.5t-1 2.5q98 28 164.5 93.5t94.5 141.5t28 160q0 62 -15 121.5t-48.5 115.5t-82 98t-121.5 67.5t-161 25.5h-947v-1360zM557 846v184h580q29 0 45 -20
t16 -54v-36q0 -34 -16 -54t-45 -20h-580z" />
    <glyph glyph-name="rcaron" unicode="&#x159;" horiz-adv-x="1740" 
d="M969 1565l151 319h-198l-50 -108l-55 108h-196l151 -319h197zM190 0h367v516h322l311 -516h414l-324 532q0 1 -1 2.5t-1 2.5q98 28 164.5 93.5t94.5 141.5t28 160q0 62 -15 121.5t-48.5 115.5t-82 98t-121.5 67.5t-161 25.5h-947v-1360zM557 846v184h580q29 0 45 -20
t16 -54v-36q0 -34 -16 -54t-45 -20h-580z" />
    <glyph glyph-name="Sacute" unicode="&#x15a;" horiz-adv-x="1552" 
d="M758 1550l231 332l-272 -8l-154 -324h195zM127 428q0 -110 54 -198t145 -142.5t206.5 -83.5t243.5 -29q142 0 257.5 26t205 80t139 144.5t49.5 210.5q0 99 -33.5 174t-89 121t-139 74.5t-173 39.5t-201.5 11q-53 0 -86 2q-65 4 -95 10q-92 19 -92 72q0 64 82 94
q73 23 176 23q65 0 121.5 -12.5t97.5 -41.5t41 -71v-51h367v51q0 142 -87.5 246.5t-227.5 155t-312 50.5q-136 0 -247.5 -25.5t-197 -77.5t-132.5 -138.5t-47 -202.5q0 -97 31.5 -170t85 -118.5t133.5 -74t167.5 -39t196.5 -10.5q65 0 98 -2q82 -4 135 -22q62 -22 62 -68
q0 -72 -90 -106q-77 -27 -195 -27q-102 0 -188 29q-96 33 -96 96v51h-365v-51z" />
    <glyph glyph-name="sacute" unicode="&#x15b;" horiz-adv-x="1552" 
d="M758 1550l231 332l-272 -8l-154 -324h195zM127 428q0 -110 54 -198t145 -142.5t206.5 -83.5t243.5 -29q142 0 257.5 26t205 80t139 144.5t49.5 210.5q0 99 -33.5 174t-89 121t-139 74.5t-173 39.5t-201.5 11q-53 0 -86 2q-65 4 -95 10q-92 19 -92 72q0 64 82 94
q73 23 176 23q65 0 121.5 -12.5t97.5 -41.5t41 -71v-51h367v51q0 142 -87.5 246.5t-227.5 155t-312 50.5q-136 0 -247.5 -25.5t-197 -77.5t-132.5 -138.5t-47 -202.5q0 -97 31.5 -170t85 -118.5t133.5 -74t167.5 -39t196.5 -10.5q65 0 98 -2q82 -4 135 -22q62 -22 62 -68
q0 -72 -90 -106q-77 -27 -195 -27q-102 0 -188 29q-96 33 -96 96v51h-365v-51z" />
    <glyph glyph-name="Scircumflex" unicode="&#x15c;" horiz-adv-x="1552" 
d="M1026 1556l-152 320h-196l-152 -320h197l55 109l49 -109h199zM127 428q0 -110 54 -198t145 -142.5t206.5 -83.5t243.5 -29q142 0 257.5 26t205 80t139 144.5t49.5 210.5q0 99 -33.5 174t-89 121t-139 74.5t-173 39.5t-201.5 11q-53 0 -86 2q-65 4 -95 10q-92 19 -92 72
q0 64 82 94q73 23 176 23q65 0 121.5 -12.5t97.5 -41.5t41 -71v-51h367v51q0 142 -87.5 246.5t-227.5 155t-312 50.5q-136 0 -247.5 -25.5t-197 -77.5t-132.5 -138.5t-47 -202.5q0 -97 31.5 -170t85 -118.5t133.5 -74t167.5 -39t196.5 -10.5q65 0 98 -2q82 -4 135 -22
q62 -22 62 -68q0 -72 -90 -106q-77 -27 -195 -27q-102 0 -188 29q-96 33 -96 96v51h-365v-51z" />
    <glyph glyph-name="scircumflex" unicode="&#x15d;" horiz-adv-x="1552" 
d="M1026 1556l-152 320h-196l-152 -320h197l55 109l49 -109h199zM127 428q0 -110 54 -198t145 -142.5t206.5 -83.5t243.5 -29q142 0 257.5 26t205 80t139 144.5t49.5 210.5q0 99 -33.5 174t-89 121t-139 74.5t-173 39.5t-201.5 11q-53 0 -86 2q-65 4 -95 10q-92 19 -92 72
q0 64 82 94q73 23 176 23q65 0 121.5 -12.5t97.5 -41.5t41 -71v-51h367v51q0 142 -87.5 246.5t-227.5 155t-312 50.5q-136 0 -247.5 -25.5t-197 -77.5t-132.5 -138.5t-47 -202.5q0 -97 31.5 -170t85 -118.5t133.5 -74t167.5 -39t196.5 -10.5q65 0 98 -2q82 -4 135 -22
q62 -22 62 -68q0 -72 -90 -106q-77 -27 -195 -27q-102 0 -188 29q-96 33 -96 96v51h-365v-51z" />
    <glyph glyph-name="Scedilla" unicode="&#x15e;" horiz-adv-x="1552" 
d="M1427 436q0 -114 -44.5 -201t-125 -141t-186 -83t-235.5 -34l-5 -16q130 -38 130 -170q0 -83 -57.5 -144t-166.5 -61q-81 0 -138.5 43t-90.5 105q-3 5 -15.5 41t-11.5 37l166 -2q52 -58 84 -58q53 0 53 33q1 28 -22 41.5t-53 12.5t-58 -1.5t-37 0.5l4 10q16 32 54 132
q-112 11 -209 44.5t-173 88t-119.5 135.5t-43.5 180v51h365v-51q0 -63 96 -96q86 -29 188 -29q118 0 195 27q90 34 90 106q0 46 -62 68q-53 18 -135 22q-33 2 -98 2q-109 0 -196.5 10.5t-167.5 39t-133.5 74t-85 118.5t-31.5 170q0 116 47 202.5t132.5 138.5t197 77.5
t247.5 25.5q172 0 312 -50.5t227.5 -155t87.5 -246.5v-51h-367v51q0 42 -41 71t-97.5 41.5t-121.5 12.5q-103 0 -176 -23q-82 -30 -82 -94q0 -53 92 -72q30 -6 95 -10q33 -2 86 -2q112 0 201.5 -11t173 -39.5t139 -74.5t89 -121t33.5 -174z" />
    <glyph glyph-name="scedilla" unicode="&#x15f;" horiz-adv-x="1552" 
d="M1427 436q0 -114 -44.5 -201t-125 -141t-186 -83t-235.5 -34l-5 -16q130 -38 130 -170q0 -83 -57.5 -144t-166.5 -61q-81 0 -138.5 43t-90.5 105q-3 5 -15.5 41t-11.5 37l166 -2q52 -58 84 -58q53 0 53 33q1 28 -22 41.5t-53 12.5t-58 -1.5t-37 0.5l4 10q16 32 54 132
q-112 11 -209 44.5t-173 88t-119.5 135.5t-43.5 180v51h365v-51q0 -63 96 -96q86 -29 188 -29q118 0 195 27q90 34 90 106q0 46 -62 68q-53 18 -135 22q-33 2 -98 2q-109 0 -196.5 10.5t-167.5 39t-133.5 74t-85 118.5t-31.5 170q0 116 47 202.5t132.5 138.5t197 77.5
t247.5 25.5q172 0 312 -50.5t227.5 -155t87.5 -246.5v-51h-367v51q0 42 -41 71t-97.5 41.5t-121.5 12.5q-103 0 -176 -23q-82 -30 -82 -94q0 -53 92 -72q30 -6 95 -10q33 -2 86 -2q112 0 201.5 -11t173 -39.5t139 -74.5t89 -121t33.5 -174z" />
    <glyph glyph-name="Scaron" unicode="&#x160;" horiz-adv-x="1552" 
d="M874 1565l152 319h-199l-49 -108l-55 108h-197l152 -319h196zM127 428q0 -110 54 -198t145 -142.5t206.5 -83.5t243.5 -29q142 0 257.5 26t205 80t139 144.5t49.5 210.5q0 99 -33.5 174t-89 121t-139 74.5t-173 39.5t-201.5 11q-53 0 -86 2q-65 4 -95 10q-92 19 -92 72
q0 64 82 94q73 23 176 23q65 0 121.5 -12.5t97.5 -41.5t41 -71v-51h367v51q0 142 -87.5 246.5t-227.5 155t-312 50.5q-136 0 -247.5 -25.5t-197 -77.5t-132.5 -138.5t-47 -202.5q0 -97 31.5 -170t85 -118.5t133.5 -74t167.5 -39t196.5 -10.5q65 0 98 -2q82 -4 135 -22
q62 -22 62 -68q0 -72 -90 -106q-77 -27 -195 -27q-102 0 -188 29q-96 33 -96 96v51h-365v-51z" />
    <glyph glyph-name="scaron" unicode="&#x161;" horiz-adv-x="1552" 
d="M874 1565l152 319h-199l-49 -108l-55 108h-197l152 -319h196zM127 428q0 -110 54 -198t145 -142.5t206.5 -83.5t243.5 -29q142 0 257.5 26t205 80t139 144.5t49.5 210.5q0 99 -33.5 174t-89 121t-139 74.5t-173 39.5t-201.5 11q-53 0 -86 2q-65 4 -95 10q-92 19 -92 72
q0 64 82 94q73 23 176 23q65 0 121.5 -12.5t97.5 -41.5t41 -71v-51h367v51q0 142 -87.5 246.5t-227.5 155t-312 50.5q-136 0 -247.5 -25.5t-197 -77.5t-132.5 -138.5t-47 -202.5q0 -97 31.5 -170t85 -118.5t133.5 -74t167.5 -39t196.5 -10.5q65 0 98 -2q82 -4 135 -22
q62 -22 62 -68q0 -72 -90 -106q-77 -27 -195 -27q-102 0 -188 29q-96 33 -96 96v51h-365v-51z" />
    <glyph glyph-name="Utilde" unicode="&#x168;" horiz-adv-x="1679" 
d="M1098 1667v178l-101 -78q-41 -30 -75 -30q-13 0 -28.5 17.5t-30 38.5t-42 38.5t-61.5 17.5q-56 0 -101 -30q-23 -13 -71 -56l-4 -4l-2 -192l43 43q44 44 67 61q48 39 74 39q15 0 42.5 -31t57.5 -62.5t52 -31.5q88 0 176 78zM190 655q0 -92 23.5 -185.5t75.5 -183
t126.5 -158.5t185 -111t241.5 -42t241 42.5t184 111.5t125.5 158.5t75 182.5t23.5 185v705h-367v-705q0 -59 -17 -117t-49.5 -108.5t-88.5 -81.5t-127 -31t-128 31t-90 81t-50 108t-17 118v705h-367v-705z" />
    <glyph glyph-name="utilde" unicode="&#x169;" horiz-adv-x="1679" 
d="M1098 1667v178l-101 -78q-41 -30 -75 -30q-13 0 -28.5 17.5t-30 38.5t-42 38.5t-61.5 17.5q-56 0 -101 -30q-23 -13 -71 -56l-4 -4l-2 -192l43 43q44 44 67 61q48 39 74 39q15 0 42.5 -31t57.5 -62.5t52 -31.5q88 0 176 78zM190 655q0 -92 23.5 -185.5t75.5 -183
t126.5 -158.5t185 -111t241.5 -42t241 42.5t184 111.5t125.5 158.5t75 182.5t23.5 185v705h-367v-705q0 -59 -17 -117t-49.5 -108.5t-88.5 -81.5t-127 -31t-128 31t-90 81t-50 108t-17 118v705h-367v-705z" />
    <glyph glyph-name="Umacron" unicode="&#x16a;" horiz-adv-x="1679" 
d="M618 1554h443v148h-443v-148zM190 655q0 -92 23.5 -185.5t75.5 -183t126.5 -158.5t185 -111t241.5 -42t241 42.5t184 111.5t125.5 158.5t75 182.5t23.5 185v705h-367v-705q0 -59 -17 -117t-49.5 -108.5t-88.5 -81.5t-127 -31t-128 31t-90 81t-50 108t-17 118v705h-367
v-705z" />
    <glyph glyph-name="umacron" unicode="&#x16b;" horiz-adv-x="1679" 
d="M618 1554h443v148h-443v-148zM190 655q0 -92 23.5 -185.5t75.5 -183t126.5 -158.5t185 -111t241.5 -42t241 42.5t184 111.5t125.5 158.5t75 182.5t23.5 185v705h-367v-705q0 -59 -17 -117t-49.5 -108.5t-88.5 -81.5t-127 -31t-128 31t-90 81t-50 108t-17 118v705h-367
v-705z" />
    <glyph glyph-name="Uring" unicode="&#x16e;" horiz-adv-x="1679" 
d="M692 1710q0 -56 36.5 -101.5t111.5 -45.5t111 45.5t36 101.5q0 55 -35.5 99t-111.5 44q-74 0 -111 -45t-37 -98zM190 655q0 -92 23.5 -185.5t75.5 -183t126.5 -158.5t185 -111t241.5 -42t241 42.5t184 111.5t125.5 158.5t75 182.5t23.5 185v705h-367v-705q0 -59 -17 -117
t-49.5 -108.5t-88.5 -81.5t-127 -31t-128 31t-90 81t-50 108t-17 118v705h-367v-705zM823 1710q0 19 17 19q14 0 14 -19q0 -12 -3 -15t-11 -3q-7 0 -10 0.5t-5 4.5t-2 13z" />
    <glyph glyph-name="uring" unicode="&#x16f;" horiz-adv-x="1679" 
d="M692 1710q0 -56 36.5 -101.5t111.5 -45.5t111 45.5t36 101.5q0 55 -35.5 99t-111.5 44q-74 0 -111 -45t-37 -98zM190 655q0 -92 23.5 -185.5t75.5 -183t126.5 -158.5t185 -111t241.5 -42t241 42.5t184 111.5t125.5 158.5t75 182.5t23.5 185v705h-367v-705q0 -59 -17 -117
t-49.5 -108.5t-88.5 -81.5t-127 -31t-128 31t-90 81t-50 108t-17 118v705h-367v-705zM823 1710q0 19 17 19q14 0 14 -19q0 -12 -3 -15t-11 -3q-7 0 -10 0.5t-5 4.5t-2 13z" />
    <glyph glyph-name="Wcircumflex" unicode="&#x174;" horiz-adv-x="1785" 
d="M1143 1556l-152 320h-196l-152 -320h197l55 109l49 -109h199zM100 1360l162 -1360h354l277 653l278 -653h355l160 1360h-363l-72 -672l-192 420h-330l-182 -420l-84 672h-363z" />
    <glyph glyph-name="wcircumflex" unicode="&#x175;" horiz-adv-x="1785" 
d="M1143 1556l-152 320h-196l-152 -320h197l55 109l49 -109h199zM100 1360l162 -1360h354l277 653l278 -653h355l160 1360h-363l-72 -672l-192 420h-330l-182 -420l-84 672h-363z" />
    <glyph glyph-name="Ycircumflex" unicode="&#x176;" horiz-adv-x="1581" 
d="M1040 1556l-151 320h-197l-151 -320h196l56 109l49 -109h198zM51 1360l557 -879l2 -481h363v481l557 879h-422l-317 -512l-320 512h-420z" />
    <glyph glyph-name="ycircumflex" unicode="&#x177;" horiz-adv-x="1581" 
d="M1040 1556l-151 320h-197l-151 -320h196l56 109l49 -109h198zM51 1360l557 -879l2 -481h363v481l557 879h-422l-317 -512l-320 512h-420z" />
    <glyph glyph-name="Ydieresis" unicode="&#x178;" horiz-adv-x="1581" 
d="M766 1683q0 48 -35 85.5t-102 37.5q-66 0 -99.5 -38t-33.5 -85q0 -49 33.5 -85.5t99.5 -36.5q67 0 102 36.5t35 85.5zM51 1360l557 -879l2 -481h363v481l557 879h-422l-317 -512l-320 512h-420zM815 1681q0 -48 33.5 -86.5t99.5 -38.5q67 0 102 37.5t35 87.5
q0 48 -35 85.5t-102 37.5q-66 0 -99.5 -37.5t-33.5 -85.5z" />
    <glyph glyph-name="Zacute" unicode="&#x179;" horiz-adv-x="1628" 
d="M795 1550l231 332l-272 -8l-152 -324h193zM152 0h1325v328h-779l754 762v270h-1276v-330h727l-751 -760v-270z" />
    <glyph glyph-name="zacute" unicode="&#x17a;" horiz-adv-x="1628" 
d="M795 1550l231 332l-272 -8l-152 -324h193zM152 0h1325v328h-779l754 762v270h-1276v-330h727l-751 -760v-270z" />
    <glyph glyph-name="Zdotaccent" unicode="&#x17b;" horiz-adv-x="1628" 
d="M948 1694q0 49 -34.5 87t-100.5 38q-67 0 -100 -38t-33 -87t33 -87t100 -38q66 0 100.5 38t34.5 87zM152 0h1325v328h-779l754 762v270h-1276v-330h727l-751 -760v-270z" />
    <glyph glyph-name="zdotaccent" unicode="&#x17c;" horiz-adv-x="1628" 
d="M948 1694q0 49 -34.5 87t-100.5 38q-67 0 -100 -38t-33 -87t33 -87t100 -38q66 0 100.5 38t34.5 87zM152 0h1325v328h-779l754 762v270h-1276v-330h727l-751 -760v-270z" />
    <glyph glyph-name="Zcaron" unicode="&#x17d;" horiz-adv-x="1628" 
d="M911 1565l154 319h-199l-51 -108l-53 108h-199l154 -319h194zM152 0h1325v328h-779l754 762v270h-1276v-330h727l-751 -760v-270z" />
    <glyph glyph-name="zcaron" unicode="&#x17e;" horiz-adv-x="1628" 
d="M911 1565l154 319h-199l-51 -108l-53 108h-199l154 -319h194zM152 0h1325v328h-779l754 762v270h-1276v-330h727l-751 -760v-270z" />
    <glyph glyph-name="circumflex" unicode="&#x2c6;" horiz-adv-x="702" 
d="M618 1016l-153 319h-195l-153 -319h198l54 108l51 -108h198z" />
    <glyph glyph-name="caron" unicode="&#x2c7;" horiz-adv-x="700" 
d="M465 1024l153 319h-198l-51 -108l-54 108h-198l153 -319h195z" />
    <glyph glyph-name="dotaccent" unicode="&#x2d9;" horiz-adv-x="337" 
d="M313 1153q0 49 -35 87t-102 38q-66 0 -99.5 -38.5t-33.5 -86.5t33.5 -86.5t99.5 -38.5q67 0 102 38t35 87z" />
    <glyph glyph-name="ring" unicode="&#x2da;" horiz-adv-x="600" 
d="M111 1169q0 -55 36.5 -101t110.5 -46q76 0 113 46t37 101t-37 99.5t-113 44.5q-74 0 -110.5 -45t-36.5 -99zM242 1169q0 19 16 19q14 0 14 -19q0 -13 -3 -15.5t-11 -2.5q-6 0 -9 0.5t-5 4.5t-2 13z" />
    <glyph glyph-name="tilde" unicode="&#x2dc;" horiz-adv-x="606" 
d="M555 1126v179l-102 -78q-42 -31 -74 -31q-12 0 -24 11.5t-24 28t-26.5 33.5t-37.5 28.5t-50 11.5q-52 0 -102 -31q-32 -19 -72 -55l-4 -4l-2 -193l45 43q46 46 65 61q51 39 74 39q16 0 44 -31.5t57.5 -62.5t50.5 -31q85 0 178 78z" />
    <glyph glyph-name="Wgrave" unicode="&#x1e80;" horiz-adv-x="1785" 
d="M682 1884l229 -323h193l-152 323h-270zM100 1360l162 -1360h354l277 653l278 -653h355l160 1360h-363l-72 -672l-192 420h-330l-182 -420l-84 672h-363z" />
    <glyph glyph-name="wgrave" unicode="&#x1e81;" horiz-adv-x="1785" 
d="M682 1884l229 -323h193l-152 323h-270zM100 1360l162 -1360h354l277 653l278 -653h355l160 1360h-363l-72 -672l-192 420h-330l-182 -420l-84 672h-363z" />
    <glyph glyph-name="Wacute" unicode="&#x1e82;" horiz-adv-x="1785" 
d="M874 1550l232 332l-272 -8l-154 -324h194zM100 1360l162 -1360h354l277 653l278 -653h355l160 1360h-363l-72 -672l-192 420h-330l-182 -420l-84 672h-363z" />
    <glyph glyph-name="wacute" unicode="&#x1e83;" horiz-adv-x="1785" 
d="M874 1550l232 332l-272 -8l-154 -324h194zM100 1360l162 -1360h354l277 653l278 -653h355l160 1360h-363l-72 -672l-192 420h-330l-182 -420l-84 672h-363z" />
    <glyph glyph-name="Wdieresis" unicode="&#x1e84;" horiz-adv-x="1785" 
d="M868 1683q0 48 -35 85.5t-102 37.5q-66 0 -99.5 -38t-33.5 -85q0 -49 33.5 -85.5t99.5 -36.5q67 0 102 36.5t35 85.5zM100 1360l162 -1360h354l277 653l278 -653h355l160 1360h-363l-72 -672l-192 420h-330l-182 -420l-84 672h-363zM918 1681q0 -48 33.5 -86.5
t99.5 -38.5q67 0 102 37.5t35 87.5q0 48 -35 85.5t-102 37.5q-66 0 -99.5 -37.5t-33.5 -85.5z" />
    <glyph glyph-name="wdieresis" unicode="&#x1e85;" horiz-adv-x="1785" 
d="M868 1683q0 48 -35 85.5t-102 37.5q-66 0 -99.5 -38t-33.5 -85q0 -49 33.5 -85.5t99.5 -36.5q67 0 102 36.5t35 85.5zM100 1360l162 -1360h354l277 653l278 -653h355l160 1360h-363l-72 -672l-192 420h-330l-182 -420l-84 672h-363zM918 1681q0 -48 33.5 -86.5
t99.5 -38.5q67 0 102 37.5t35 87.5q0 48 -35 85.5t-102 37.5q-66 0 -99.5 -37.5t-33.5 -85.5z" />
    <glyph glyph-name="uni1E9E" unicode="&#x1e9e;" horiz-adv-x="1314" 
d="M1206 944q0 -153 -96 -252q133 -100 133 -276q0 -214 -154 -327.5t-421 -113.5v342q196 0 196 99q0 100 -196 100h-78v330h78q79 0 120 22.5t41 75.5q0 100 -176 100h-168l-2 -1484h-381v1824h551q262 0 407.5 -114.5t145.5 -325.5z" />
    <glyph glyph-name="Ygrave" unicode="&#x1ef2;" horiz-adv-x="1581" 
d="M973 0v481l557 879h-422l-317 -512l-320 512h-420l557 -879l2 -481h363zM489 1884l230 -323h190l-149 323h-271z" />
    <glyph glyph-name="ygrave" unicode="&#x1ef3;" horiz-adv-x="1581" 
d="M973 0v481l557 879h-422l-317 -512l-320 512h-420l557 -879l2 -481h363zM489 1884l230 -323h190l-149 323h-271z" />
    <glyph glyph-name="endash" unicode="&#x2013;" horiz-adv-x="2097" 
d="M190 846v-330h1719v330h-1719z" />
    <glyph glyph-name="emdash" unicode="&#x2014;" horiz-adv-x="2588" 
d="M190 846v-330h2210v330h-2210z" />
    <glyph glyph-name="quoteleft" unicode="&#x2018;" horiz-adv-x="692" 
d="M383 1389q-122 -78 -189 -197t-67 -248q0 -39 11 -77.5t34.5 -76.5t69 -61.5t106.5 -23.5q56 0 100 20t68.5 52.5t36.5 69t12 73.5q0 55 -24 104.5t-76 79.5q26 71 82 133l16 14l-155 152z" />
    <glyph glyph-name="quoteright" unicode="&#x2019;" horiz-adv-x="692" 
d="M131 838l156 -152l22 14q122 78 189 198t67 249q0 37 -11 75.5t-34 76t-68 61.5t-104 24q-108 0 -164.5 -64.5t-56.5 -148.5q0 -126 102 -186q-32 -78 -84 -133z" />
    <glyph glyph-name="quotesinglbase" unicode="&#x201a;" horiz-adv-x="692" 
d="M131 94l156 -151l22 14q122 78 189 197.5t67 248.5q0 29 -6 59.5t-21.5 63.5t-39 58.5t-62.5 42t-88 16.5q-109 0 -165 -65.5t-56 -149.5q0 -126 102 -184q-33 -82 -84 -135z" />
    <glyph glyph-name="quotedblleft" unicode="&#x201c;" horiz-adv-x="1183" 
d="M383 1389q-122 -78 -189 -197t-67 -248q0 -39 11 -77.5t34.5 -76.5t69 -61.5t106.5 -23.5q56 0 100 20t68.5 52.5t36.5 69t12 73.5q0 55 -24 104.5t-76 79.5q26 71 82 133l16 14l-155 152zM618 944q0 -39 11 -77.5t35 -76.5t69.5 -61.5t106.5 -23.5q56 0 100 20
t68.5 52.5t36.5 69t12 73.5q0 55 -24.5 104.5t-76.5 79.5q26 71 82 133l17 14l-156 152l-25 -14q-122 -78 -189 -197t-67 -248z" />
    <glyph glyph-name="quotedblright" unicode="&#x201d;" horiz-adv-x="1183" 
d="M131 838l156 -152l22 14q122 78 189 198t67 249q0 37 -11 75.5t-34 76t-68 61.5t-104 24q-108 0 -164.5 -64.5t-56.5 -148.5q0 -126 102 -186q-32 -78 -84 -133zM618 1171q0 -55 25 -104.5t78 -81.5q-32 -78 -84 -133l-14 -14l155 -152l23 14q122 78 189 198t67 249
q0 37 -11 75.5t-34 76t-68 61.5t-104 24q-108 0 -165 -65t-57 -148z" />
    <glyph glyph-name="quotedblbase" unicode="&#x201e;" horiz-adv-x="1183" 
d="M131 94l156 -151l22 14q122 78 189 197.5t67 248.5q0 29 -6 59.5t-22 63.5t-39.5 58.5t-62.5 42t-87 16.5q-109 0 -165 -65.5t-56 -149.5q0 -126 102 -184q-33 -82 -84 -135zM618 428q0 -55 25 -104.5t78 -79.5q-33 -82 -84 -135l-14 -15l155 -151l23 14
q122 78 189 197.5t67 248.5q0 29 -6 59.5t-22 63.5t-39.5 58.5t-62.5 42t-87 16.5q-109 0 -165.5 -65.5t-56.5 -149.5z" />
    <glyph glyph-name="dagger" unicode="&#x2020;" horiz-adv-x="1093" 
d="M709 188v-440h-367v440h-307v330h307v1092l367 4v-1096h307v-330h-307z" />
    <glyph glyph-name="bullet" unicode="&#x2022;" horiz-adv-x="866" 
d="M432 983q-78 0 -139 -27.5t-96 -72.5t-52.5 -96.5t-17.5 -106.5t17.5 -106.5t52.5 -96.5t96 -72.5t139 -27.5t139 27.5t96.5 72.5t53.5 97t18 106t-18 106t-53.5 97t-96.5 72.5t-139 27.5z" />
    <glyph glyph-name="ellipsis" unicode="&#x2026;" horiz-adv-x="2304" 
d="M385 403q-109 0 -164 -64.5t-55 -148.5q0 -39 12.5 -75.5t37.5 -68.5t68.5 -51.5t100.5 -19.5t100.5 20t68.5 52t37.5 68.5t12.5 74.5t-12.5 74t-38 68t-69 51.5t-99.5 19.5zM934 190q0 -39 12.5 -75.5t37.5 -68.5t68.5 -51.5t100.5 -19.5t100.5 20t68.5 52t37.5 68.5
t12.5 74.5t-12.5 74t-38 68t-69 51.5t-99.5 19.5q-109 0 -164 -64.5t-55 -148.5zM1702 190q0 -39 12.5 -75.5t37.5 -68.5t68.5 -51.5t100.5 -19.5t100.5 20t68.5 52t37.5 68.5t12.5 74.5t-12.5 74t-38 68t-69 51.5t-99.5 19.5q-109 0 -164 -64.5t-55 -148.5z" />
    <glyph glyph-name="guilsinglleft" unicode="&#x2039;" horiz-adv-x="794" 
d="M754 811v283l-699 -381l699 -379v280l-187 99z" />
    <glyph glyph-name="guilsinglright" unicode="&#x203a;" horiz-adv-x="788" 
d="M55 1094v-283l187 -98l-187 -99v-280l699 379z" />
    <glyph glyph-name="Euro" unicode="&#x20ac;" horiz-adv-x="1564" 
d="M201 516q19 -85 56.5 -162.5t98 -147t136.5 -120.5t178 -81t217 -30q181 0 325 73.5t242 203.5l10 14l-284 240l-21 -31q-105 -158 -272 -158q-104 0 -179.5 55.5t-111.5 143.5h571v330h-571q36 87 111.5 142.5t179.5 55.5q167 0 272 -159l21 -31l284 238l-10 16
q-98 130 -242 203t-325 73q-142 0 -263.5 -45t-205 -121.5t-138.5 -171t-79 -200.5h-138v-330h138z" />
    <glyph glyph-name="uni2120" unicode="&#x2120;" horiz-adv-x="1681" 
d="M254 866h-191v-28q0 -64 32.5 -113t85 -76t109.5 -40t116 -13q68 0 125.5 11.5t109.5 38t81.5 77t29.5 121.5q0 52 -17 92t-42 62.5t-63.5 38t-71.5 21t-75 9.5q-12 1 -75 3t-89 7q-29 6 -40 14.5t-11 22.5q0 35 41 51q38 13 97 13q54 0 98 -15q43 -18 43 -51v-27h192v27
q0 63 -30 111.5t-80 76t-106.5 41t-116.5 13.5q-66 0 -121 -11.5t-104 -37t-77 -74.5t-28 -117q0 -52 17 -91t42.5 -61.5t63.5 -37t71.5 -20t75.5 -7.5q62 -4 90 -4q54 -4 74 -8q30 -6 40.5 -14.5t10.5 -26.5q0 -40 -47 -58q-43 -14 -108 -14q-59 0 -103 16q-49 17 -49 50
v28zM858 608h186v338l89 -338h170l90 340v-340h188v744h-268l-94 -381l-97 381h-264v-744z" />
    <glyph glyph-name="trademark" unicode="&#x2122;" horiz-adv-x="1507" 
d="M63 1352v-176h203v-568h199v568h201v176h-603zM682 608h190v338l86 -338h170l91 344v-344h188v744h-266l-97 -381l-98 381h-264v-744z" />
    <glyph glyph-name="minus" unicode="&#x2212;" horiz-adv-x="1482" 
d="M190 846v-330h1104v330h-1104z" />
    <glyph glyph-name="_Designova" horiz-adv-x="1435" 
d="M717 39q-166 0 -308 83t-224.5 225t-82.5 308q1 125 50 238t131.5 195.5t196.5 131t239 48.5q166 0 307.5 -82t224 -223.5t82.5 -307.5q0 -167 -82.5 -309t-224.5 -224.5t-309 -82.5zM176 655q0 -148 72.5 -273t197.5 -197t273 -72q146 0 270.5 72t197.5 196.5t73 271.5
q0 148 -72.5 273t-197 197.5t-271.5 72.5t-272 -72.5t-198 -197t-73 -271.5zM369 762q8 0 12 -4q63 -22 111 -29q41 -3 77 2q34 8 49 14q5 0 11.5 3.5t7.5 3.5q-7 4 -22 11.5t-25.5 14.5t-18.5 17h21q37 0 82 18q83 51 151 70q27 8 62 8q7 0 24 1.5t25 0.5q65 -4 96 -37
q9 -6 33 -35v-2q-4 2 -6 2q-52 20 -92 5.5t-68 -56.5q-3 -4 -29 -65q-49 -113 -53 -121q-28 -63 -69 -113q-16 -23 -70 -63q-57 -40 -131 -60h-6l26 23q16 14 29 49q4 12 22.5 63t26.5 78q35 96 62 144q-7 -7 -11 -13q-9 -9 -10 -14q-19 -21 -35 -62q-4 -6 -10 -6
q-114 6 -195 76l-61 59q-3 3 -8 8.5t-8 8.5z" />
    <glyph glyph-name="_Origin" horiz-adv-x="1918" 
d="M102 41v1178h1715v-1176l-43 -2v2zM147 84h1627v641h-1627v-641zM297 229v131h31v-131h-31zM301 905h70q60 0 86 41q10 18 10 47q0 56 -45 78q-18 10 -49 10h-72v-176zM319 451v129h111v-23h-80v-29h72v-22h-72v-33h80v-22h-111zM342 938v111h27q37 0 51 -23q6 -24 6 -33
q0 -37 -27 -49q-12 -6 -30 -6h-27zM348 229v131h25l65 -77v77h31v-131h-25l-65 82v-82h-31zM451 451v129h26l66 -78v78h28v-129h-24l-66 79v-79h-30zM483 971q0 -46 35 -60q10 -6 39 -6q38 0 55 17q11 15 13 22l-39 2q-3 -8 -17 -14h-12q-23 0 -29 14q-6 9 -6 17h103v10
q0 33 -21 51q-19 16 -49 16q-42 0 -63 -32q-9 -22 -9 -37zM522 985q3 16 17 23q6 6 16 6q24 0 27 -17q4 -4 4 -12h-64zM537 229v131h65q53 0 53 -32q0 -22 -18 -29q2 0 2 -2q20 -7 20 -31q0 -37 -53 -37h-69zM567 254h37q25 0 25 16q0 15 -25 15h-37v-31zM567 311h33
q25 0 25 15q0 16 -25 16h-33v-31zM594 557v23h115v-23h-43v-106h-29v106h-43zM637 944q6 -39 68 -39q41 0 59 21q6 9 6 20q0 29 -41 37l-29 4q-18 3 -18 14q0 13 23 13q24 0 24 -15l39 2q-7 39 -63 39q-39 0 -56 -20q-8 -8 -8 -21q0 -30 41 -38l27 -5q20 -3 20 -12
q0 -14 -24 -14t-27 16zM674 229v131h108v-24h-80v-27h72v-24h-72v-29h78v-27h-106zM721 580h33l30 -91l31 91h27l30 -93l31 93h29l-41 -129h-35l-29 88l-28 -88h-33zM786 905h43v133h-43v-133zM786 1073q0 -7 7 -12.5t16 -5.5t15.5 5.5t6.5 12.5q0 8 -6.5 13.5t-15.5 5.5
t-16 -6t-7 -13zM803 229v131h61q21 0 29 -4q29 -14 29 -43q0 -12 -9 -24q-18 -18 -20 -19l27 -41h-33l-25 39h-26v-39h-33zM836 293h26q29 0 29 20q0 23 -29 23h-26v-43zM848 973q0 -46 31 -58q12 -6 30 -6q22 0 33 11q8 4 8 10h2v-25q0 -24 -30 -24q-19 0 -27 8l-4 8
l-39 -6q3 -16 21 -26.5t47 -10.5q43 0 63 23q10 10 10 28v133h-41v-22h-2q-3 14 -22 20q-8 4 -19 4q-38 0 -53 -30q-8 -13 -8 -37zM891 973q0 24 12 33q9 6 19 6q18 0 28 -21q0 -2 1 -8.5t1 -9.5q0 -37 -30 -37q-20 0 -29 18q-2 4 -2 19zM936 229v131h29v-104h77v-27h-106z
M938 516q0 27 20 47q18 21 52 21q33 0 51 -21q20 -20 20 -47q0 -26 -20 -49q-18 -18 -51 -18q-34 0 -52 18q-20 23 -20 49zM969 516q0 -19 11 -31t30 -12t30 12t11 31t-11 31t-30 12t-30 -12t-11 -31zM1018 905h41v78q0 17 14 23q4 4 14 4q25 0 25 -27v-78h43v84
q0 34 -25 43q-11 8 -26 8q-32 0 -45 -26v24h-41v-133zM1065 229v131h31v-131h-31zM1100 451v129h57q23 0 31 -2q26 -14 26 -43q0 -15 -6 -27q-7 -10 -22 -16l28 -41h-32l-25 36h-29v-36h-28zM1116 229v131h27l63 -77v77h33v-131h-27l-65 82v-82h-31zM1128 512h27q29 0 29 23
q0 22 -29 22h-27v-45zM1174 971q0 -42 34 -60q10 -6 39 -6q44 0 66 31q8 20 8 35q0 40 -35 61q-24 8 -39 8q-44 0 -65 -32q-8 -20 -8 -37zM1217 973q0 24 12 33q9 6 18 6q20 0 27 -21q4 -8 4 -18q0 -27 -14 -35q-6 -6 -17 -6q-18 0 -28 20q-2 6 -2 21zM1231 451v129h108v-23
h-77v-29h69v-22h-69v-55h-31zM1257 248q0 18 19 18q8 0 13 -5t5 -13q0 -7 -6 -19l-10 -28h-18l8 30q-11 4 -11 17zM1321 1038l53 -133h45l54 133h-43l-31 -94h-2l-31 94h-45zM1352 451v129h108v-23h-78v-29h70v-22h-70v-33h78v-22h-108zM1368 229v131h59q23 0 39 -8
q33 -13 33 -55q0 -24 -8 -37q-17 -31 -64 -31h-59zM1399 256h26q17 0 25 4q18 12 18 37q0 16 -4 20q-10 19 -39 19h-26v-80zM1475 944q0 -29 22 -35q8 -4 27 -4q22 0 35 8l8 13h2v-21h37v90q0 21 -17 35q-23 10 -45 10q-35 0 -53 -18q-9 -9 -12 -21l39 -4q4 17 26 17
q21 0 21 -17v-2q0 -7 -15 -10q-12 0 -20 -2q-22 0 -39 -10q-16 -8 -16 -29zM1483 451v129h22l68 -78v78h31v-129h-27l-66 79v-79h-28zM1513 944q0 8 13 14q3 3 12 3q3 1 14.5 3t14.5 3v-13q0 -15 -17 -22q-1 0 -6 -1t-10 -1q-21 0 -21 14zM1518 229v131h108v-24h-78v-27h70
v-24h-70v-29h78v-27h-108z" />
    <glyph glyph-name="_Typeface" horiz-adv-x="1718" 
d="M102 365v553h1514v-553h-1514zM268 510h35v211l174 -211h35v264h-35v-209l-174 209h-35v-264zM569 643q0 -56 35 -97.5t92 -41.5q59 0 94 41.5t35 97.5t-35 96.5t-94 40.5q-57 0 -92 -41.5t-35 -95.5zM608 643q0 40 24 71t64 31t65 -31t25 -71q0 -41 -24.5 -72.5
t-65.5 -31.5q-40 0 -64 31.5t-24 72.5zM887 510h35v117h104l64 -117h38l-65 117h12q30 1 46 22.5t16 50.5q0 31 -19 52.5t-53 21.5h-178v-264zM922 657v84h143q18 0 27.5 -12.5t9.5 -30.5q0 -41 -37 -41h-143zM1202 510h123q58 0 92.5 39t34.5 94t-34.5 93t-92.5 38h-123
v-264zM1239 543v198h86q41 0 64.5 -29.5t23.5 -68.5q0 -41 -23.5 -70.5t-64.5 -29.5h-86z" />
    <glyph glyph-name="_VendorID" horiz-adv-x="1132" 
d="M102 147v1131h928v-1131h-928zM106 61q0 11 8 19t17 8q8 0 10 -4l4 -4v24h13v-69h-13v10l-4 -8q-4 -4 -14 -4q-21 0 -21 28zM119 61q0 -16 12 -16q14 0 14 16q0 17 -12 17q-14 0 -14 -17zM168 61q0 11 7.5 19t17.5 8t17 -8t7 -19q0 -2 -2 -4h-35q2 -12 13 -12q10 0 12 8
h10q-3 -20 -22 -20q-25 0 -25 28zM180 63h25q-3 15 -12 15q-10 0 -13 -15zM221 49h15q4 -8 8 -8q8 0 8 8q0 1 -10 8q-19 3 -19 15q0 16 21 16q20 0 20 -16h-14q0 6 -6 6t-6 -4t10 -11q16 -3 16 -14q0 -16 -20 -16t-23 16zM262 434q0 -58 40 -98.5t99 -40.5q57 0 96.5 40.5
t39.5 98.5q0 59 -38 98t-98 39q-16 0 -22 -2l80 115h-62l-92 -131q-43 -61 -43 -119zM262 883q0 -57 40.5 -97.5t98.5 -40.5q57 0 96.5 40t39.5 98q0 59 -38 98t-98 39q-16 0 -22 -2l80 117h-62l-92 -136q-43 -64 -43 -116zM272 35v53h15v-53h-15zM272 98q0 6 9 6q6 0 6 -6
q0 -8 -6 -8q-9 0 -9 8zM309 33q0 -8 13 -8q10 0 14 12v8l-4 -8q-2 0 -6.5 -1t-6.5 -1q-22 0 -22 26q0 12 7 19.5t18 7.5q8 0 10 -4l4 -4v8h14v-39q0 -8 -2 -12q0 -23 -26 -23q-25 0 -25 19h12zM309 61q0 -16 13 -16q14 0 14 16q0 17 -14 17q-13 0 -13 -17zM313 434
q0 37 25 61.5t63 24.5q37 0 61.5 -24.5t24.5 -61.5q0 -39 -24.5 -64.5t-61.5 -25.5q-39 0 -63.5 24.5t-24.5 65.5zM313 883q0 39 24.5 63.5t63.5 24.5q37 0 61.5 -25t24.5 -63t-24.5 -63t-61.5 -25q-39 0 -63.5 24.5t-24.5 63.5zM360 35v53h13v-10l4 6q4 4 12 4q15 0 19 -14
q2 -4 2 -11v-28h-15v33q0 10 -10 10q-12 0 -12 -19v-24h-13zM416 61q0 11 7 19t19 8t19.5 -8t7.5 -19q0 -12 -7.5 -20t-19.5 -8t-19 8t-7 20zM430 61q0 -16 12 -16q15 0 15 16q0 17 -15 17q-12 0 -12 -17zM473 88h14l13 -43l12 43h14l-18 -53h-19zM530 49q0 17 29 17h2v6
q0 6 -8 6q-10 0 -10 -8h-13q0 18 23 18q17 0 20 -14v-39h-12v6l-2 -4q-8 -4 -14 -4q-5 0 -10 4.5t-5 11.5zM543 49q0 -4 8 -4q10 0 10 8v6q-18 0 -18 -10zM582 76v10h6v6q0 14 18 14h4v-10q-10 3 -10 -4v-6h10v-10h-10v-41h-12v41h-6zM594 434q0 -58 40 -98.5t99 -40.5
q57 0 96 40t39 99t-38.5 98t-96.5 39q-16 0 -24 -2l82 115h-62l-92 -131q-43 -61 -43 -119zM594 883q0 -58 40 -98t99 -40q57 0 96 40t39 98q0 59 -38.5 98t-96.5 39q-16 0 -24 -2l82 117h-62l-92 -136q-43 -62 -43 -116zM614 61q0 11 7 19t20 8q12 0 19.5 -8t7.5 -19
q0 -12 -7.5 -20t-19.5 -8q-27 0 -27 28zM629 61q0 -16 12 -16t12 16q0 17 -12 17t-12 -17zM645 434q0 37 24.5 61.5t63.5 24.5q36 0 59 -24.5t23 -61.5q0 -40 -22.5 -65t-59.5 -25q-39 0 -63.5 24.5t-24.5 65.5zM645 883q0 39 24.5 63.5t63.5 24.5q36 0 59 -24.5t23 -63.5
t-23 -63.5t-59 -24.5q-39 0 -63.5 24.5t-24.5 63.5zM676 35v53h12v-10l4 6q4 4 13 4q15 0 18 -14v-39h-12v33q-3 10 -9 10q-14 0 -14 -19v-24h-12zM731 76v10h6v12h15v-12h8v-10h-8v-27q0 -9 8 -4v-10h-8q-15 0 -15 10v31h-6zM764 49h14q4 -8 10 -8q9 0 9 8q0 2 -1 3t-5 2.5
t-7 2.5q-16 3 -16 15q0 16 18 16q19 0 25 -16h-16q0 6 -9 6q-4 0 -4 -4q0 -6 11 -11q18 -5 18 -14q0 -16 -23 -16q-18 0 -24 16zM813 41q0 8 10 8q8 0 8 -8t-8 -8q-10 0 -10 8zM838 61q0 12 7.5 19.5t16.5 7.5q23 0 23 -20h-13q-2 10 -10 10q-12 0 -12 -17q0 -16 12 -16
q8 0 10 8h13q0 -20 -23 -20q-24 0 -24 28zM891 61q0 11 7 19t20 8q24 0 24 -27q0 -28 -24 -28q-27 0 -27 28zM903 61q0 -16 15 -16q12 0 12 16q0 17 -12 17q-15 0 -15 -17zM952 35v53h13v-10l6 6q2 4 8 4q13 0 16 -10l6 6q2 4 11 4q6 0 11 -4t5 -8v-13v-28h-12v26v9
q0 8 -10 8q-9 0 -9 -17v-26h-12v35q-5 8 -10 8q-10 0 -10 -17v-26h-13z" />
    </font>
</defs>
</svg>
