<?xml version="1.0" standalone="no"?>
<!DOCTYPE svg PUBLIC "-//W3C//DTD SVG 1.1//EN" "http://www.w3.org/Graphics/SVG/1.1/DTD/svg11.dtd" >
<svg xmlns="http://www.w3.org/2000/svg" xmlns:xlink="http://www.w3.org/1999/xlink" version="1.1">
<metadata>
Created by FontForge 20201107 at Tue May 28 21:44:45 2024
 By 
Copyright (c) 2024 by Designova. All rights reserved.
</metadata>
<defs>
<font id="NORD-BlackItalic" horiz-adv-x="1652" >
  <font-face 
    font-family="NORD Black Italic"
    font-weight="900"
    font-style="italic"
    font-stretch="normal"
    units-per-em="2048"
    panose-1="0 0 0 0 0 0 0 0 0 0"
    ascent="1638"
    descent="-410"
    x-height="1360"
    cap-height="1360"
    bbox="7.875 -440 2695 1896"
    underline-thickness="102"
    underline-position="-255"
    slope="-9"
    unicode-range="U+0020-2212"
  />
<missing-glyph horiz-adv-x="1458" 
d="M102 0v1411h1254v-1411h-1254zM301 522l119 -116l305 305l311 -305l121 116l-307 309l303 308l-117 116l-311 -305l-303 305l-121 -116l307 -308zM311 170h31v84h2l64 -84h28v131h-30v-82h-3l-65 82h-27v-131zM451 219q0 -30 24 -45q30 -6 31 -6q31 0 49 25q6 12 6 26
q0 32 -26 45q-12 6 -29 6q-37 0 -49 -24q-6 -12 -6 -27zM481 219q0 16 11 27q8 4 14 4q13 0 20 -14q2 -6 2 -17q0 -16 -10 -26q-2 0 -5.5 -1.5t-6.5 -1.5q-18 0 -21 15q-4 4 -4 14zM612 236q0 -44 33 -60q24 -8 39 -8q38 0 55 27q9 12 9 28v19h-62v-23h33q0 -15 -17 -22
q-6 -4 -18 -4q-25 0 -35 20q-4 6 -4 23q0 28 19 38q14 7 18 7q12 0 22 -6.5t11 -16.5h30q0 18 -20 35q-17 10 -43 10q-40 0 -59 -31q-11 -14 -11 -36zM766 170h29v131h-29v-131zM805 270l41 -102l-2 -4q-2 -12 -23 -8l-8 -19q12 -4 21 -4q21 0 32 14q4 2 8 13l44 110h-33
l-23 -73h-2l-22 73h-33zM928 133h30v53q8 -12 19 -14q4 -4 14 -4q27 0 39 25q6 8 6 26q0 32 -20 45q-12 6 -25 6q-16 0 -26 -10q-6 -6 -7 -8v18h-30v-137zM958 219q0 18 11 25q6 6 12 6q17 0 20 -14q5 -15 5 -17q0 -11 -11 -26l-14 -3q-14 0 -20 15q-3 6 -3 14zM1053 170h28
v57q0 15 11 19q4 2 12 2q18 0 18 -19v-59h33v63q0 24 -20 33q-8 4 -19 4q-26 0 -35 -18h-2v49h-26v-131z" />
    <glyph glyph-name=".notdef" horiz-adv-x="1458" 
d="M102 0v1411h1254v-1411h-1254zM301 522l119 -116l305 305l311 -305l121 116l-307 309l303 308l-117 116l-311 -305l-303 305l-121 -116l307 -308zM311 170h31v84h2l64 -84h28v131h-30v-82h-3l-65 82h-27v-131zM451 219q0 -30 24 -45q30 -6 31 -6q31 0 49 25q6 12 6 26
q0 32 -26 45q-12 6 -29 6q-37 0 -49 -24q-6 -12 -6 -27zM481 219q0 16 11 27q8 4 14 4q13 0 20 -14q2 -6 2 -17q0 -16 -10 -26q-2 0 -5.5 -1.5t-6.5 -1.5q-18 0 -21 15q-4 4 -4 14zM612 236q0 -44 33 -60q24 -8 39 -8q38 0 55 27q9 12 9 28v19h-62v-23h33q0 -15 -17 -22
q-6 -4 -18 -4q-25 0 -35 20q-4 6 -4 23q0 28 19 38q14 7 18 7q12 0 22 -6.5t11 -16.5h30q0 18 -20 35q-17 10 -43 10q-40 0 -59 -31q-11 -14 -11 -36zM766 170h29v131h-29v-131zM805 270l41 -102l-2 -4q-2 -12 -23 -8l-8 -19q12 -4 21 -4q21 0 32 14q4 2 8 13l44 110h-33
l-23 -73h-2l-22 73h-33zM928 133h30v53q8 -12 19 -14q4 -4 14 -4q27 0 39 25q6 8 6 26q0 32 -20 45q-12 6 -25 6q-16 0 -26 -10q-6 -6 -7 -8v18h-30v-137zM958 219q0 18 11 25q6 6 12 6q17 0 20 -14q5 -15 5 -17q0 -11 -11 -26l-14 -3q-14 0 -20 15q-3 6 -3 14zM1053 170h28
v57q0 15 11 19q4 2 12 2q18 0 18 -19v-59h33v63q0 24 -20 33q-8 4 -19 4q-26 0 -35 -18h-2v49h-26v-131z" />
    <glyph glyph-name=".null" horiz-adv-x="0" 
 />
    <glyph glyph-name=".null" horiz-adv-x="0" 
 />
    <glyph glyph-name="nonmarkingreturn" horiz-adv-x="682" 
 />
    <glyph glyph-name="space" unicode=" " horiz-adv-x="632" 
 />
    <glyph glyph-name="space" unicode="&#xa0;" horiz-adv-x="632" 
 />
    <glyph glyph-name="exclam" unicode="!" horiz-adv-x="768" 
d="M369 1057q-51 -306 -39 -596v-21h250l8 21q91 259 147 596l47 303h-366zM197 190q-9 -37 -0.5 -75t27 -69t59.5 -51t98 -20t104 20t77 52t48.5 68.5t24.5 74.5t-1.5 74t-27.5 68t-60.5 51.5t-96.5 19.5q-109 0 -174.5 -64.5t-77.5 -148.5z" />
    <glyph glyph-name="quotedbl" unicode="&#x22;" horiz-adv-x="1120" 
d="M344 1120q-33 -213 2 -348l2 -18h238l10 18q83 154 113 348l36 240h-364zM770 1120q-32 -206 4 -348l2 -18h234l12 18q85 158 115 348l37 240h-367z" />
    <glyph glyph-name="numbersign" unicode="#" horiz-adv-x="1728" 
d="M274 0h349l96 276h168l-99 -276h351l96 276h248l49 304h-189l70 200h250l49 303h-190l96 277h-348l-96 -277h-168l96 277h-348l-95 -277h-247l-50 -303h187l-70 -200h-248l-49 -304h189zM827 580l70 200h168l-70 -200h-168z" />
    <glyph glyph-name="dollar" unicode="$" horiz-adv-x="1222" 
d="M432 -147h250l31 200q224 21 364 124t170 286q15 95 -6.5 165.5t-77.5 114.5t-136 67.5t-189 29.5l24 155q46 -11 73 -35.5t23 -56.5l-8 -51h338l8 51q26 163 -82 269.5t-303 132.5l31 192h-250l-30 -192q-208 -25 -336.5 -126t-155.5 -270q-27 -173 69 -260.5
t302 -105.5l-29 -178q-47 13 -73.5 36t-22.5 54l8 51h-338l-8 -51q-25 -162 82.5 -266.5t302.5 -131.5zM510 909q12 65 102 84l-22 -143q-38 8 -51 14q-31 17 -29 45zM762 358l26 177q52 -7 80 -17q46 -18 41 -55q-14 -81 -147 -105z" />
    <glyph glyph-name="percent" unicode="%" horiz-adv-x="2021" 
d="M795 1511q-106 0 -197 -39.5t-151 -103t-98 -137.5t-50 -150q-13 -78 0.5 -151.5t53.5 -136.5t119 -101.5t187 -38.5q109 0 200.5 38.5t150.5 101.5t95.5 136.5t49.5 151.5q10 49 5 100t-18 99t-43.5 90t-70.5 73.5t-100.5 49.5t-132.5 18zM406 254l194 -234l1233 1086
l-195 233zM641 1081q6 49 33 82t69 33q44 0 62 -32.5t10 -82.5q-8 -49 -35 -79.5t-71 -30.5q-43 0 -59.5 30.5t-8.5 79.5zM1079 276q-12 -78 2 -151.5t53.5 -136.5t118.5 -101.5t187 -38.5q109 0 201 38.5t151.5 101.5t96 136.5t48.5 151.5q11 49 6 100t-18 99t-43.5 90.5
t-71 74t-101 49.5t-132.5 18q-106 0 -197 -39.5t-151.5 -103.5t-99 -138t-50.5 -150zM1421 276q8 49 35.5 82t69.5 33q43 0 60 -32t9 -83q-6 -48 -33 -79t-71 -31q-42 0 -59 30.5t-11 79.5z" />
    <glyph glyph-name="ampersand" unicode="&#x26;" horiz-adv-x="1480" 
d="M1196 -57l256 274l-25 12q-71 38 -159 123q52 68 78 125q11 23 31.5 70t31.5 71l10 23l-321 78l-11 -27l-26 -63l-57 102q107 67 171 142.5t80 173.5q24 144 -71.5 240.5t-276.5 96.5q-180 0 -306.5 -89.5t-149.5 -235.5q-19 -124 63 -262q-283 -151 -326 -404
q-28 -181 88.5 -300.5t341.5 -119.5q214 0 381 113q68 -71 175 -129zM553 403q15 84 113 152l141 -227q-79 -52 -152 -52q-60 0 -85.5 34.5t-16.5 92.5zM803 1071q3 19 21 30t44 11q67 0 58 -63q-4 -26 -37 -52q-7 -7 -22.5 -19t-16.5 -13l-29 43q-21 41 -18 63z" />
    <glyph glyph-name="quotesingle" unicode="'" horiz-adv-x="694" 
d="M344 1120q-33 -213 2 -348l2 -18h238l10 18q83 154 113 348l36 240h-364z" />
    <glyph glyph-name="parenleft" unicode="(" horiz-adv-x="802" 
d="M580 1495q-273 -357 -344 -815q-74 -458 86 -815q43 -95 84 -148l18 -20l297 184l-12 19q-61 98 -93.5 239t-33 276t17.5 265q30 199 124.5 417t231.5 363l17 19l-238 184l-24 -21q-63 -58 -131 -147z" />
    <glyph glyph-name="parenright" unicode=")" horiz-adv-x="802" 
d="M45 -119l240 -184l22 20q66 58 131 148q273 362 346 815q70 456 -88 815q-28 72 -84 147l-16 21l-299 -184l12 -19q60 -98 91.5 -239t32 -275.5t-16.5 -265.5q-32 -199 -126.5 -417t-228.5 -363z" />
    <glyph glyph-name="asterisk" unicode="*" horiz-adv-x="1132" 
d="M899 1184l27 176h-293l-27 -174q-21 14 -33 20q-14 10 -41.5 27t-37.5 24l-25 17l-178 -246l18 -12q13 -8 39.5 -27.5t38.5 -27.5q3 -1 47 -29q-11 -4 -29.5 -14t-25.5 -13q-14 -8 -46.5 -27t-49.5 -28l-23 -12l98 -246l33 18q16 8 48.5 23.5t47.5 23.5q15 10 37 21
l-26 -174h293l28 176q15 -12 33 -21q16 -9 43 -26t37 -23l29 -16l180 246l-19 10q-16 9 -43 28.5t-39 26.5l-47 27l56 29q14 7 47.5 26.5t52.5 28.5l22 12l-102 248l-35 -19q-46 -27 -96 -51z" />
    <glyph glyph-name="plus" unicode="+" horiz-adv-x="1482" 
d="M641 516l-61 -391h366l62 391h368l51 330h-368l61 387h-366l-62 -387h-368l-52 -330h369z" />
    <glyph glyph-name="comma" unicode="," horiz-adv-x="768" 
d="M145 -143l134 -152l24 14q135 78 221 198t107 249q2 30 3.5 62t-9.5 63.5t-30 56.5t-56.5 40t-89.5 15q-109 0 -174.5 -64.5t-77.5 -148.5q-19 -127 69 -184q-45 -81 -104 -135z" />
    <glyph glyph-name="hyphen" unicode="-" horiz-adv-x="1361" 
d="M324 846l-52 -330h981l52 330h-981z" />
    <glyph glyph-name="period" unicode="." horiz-adv-x="768" 
d="M449 403q-109 0 -174.5 -64.5t-77.5 -148.5q-9 -37 -0.5 -75t27 -69t59.5 -51t98 -20t104 20t77 52t48.5 68.5t24.5 74.5t-1.5 74t-27.5 68t-60.5 51.5t-96.5 19.5z" />
    <glyph glyph-name="slash" unicode="/" horiz-adv-x="1290" 
d="M94 -45l279 -154l1040 1604l-280 154z" />
    <glyph glyph-name="zero" unicode="0" horiz-adv-x="1605" 
d="M1022 1384q-147 0 -268.5 -43.5t-201.5 -112t-140 -163.5t-91 -188.5t-47 -196.5q-12 -73 -14.5 -141t7 -139.5t31.5 -132.5t63.5 -115.5t100 -93t144.5 -61t193 -22.5q147 0 268.5 43.5t202 112t140.5 164t92 189t48 196.5q11 73 13.5 141t-7 139.5t-32 132t-64.5 115.5
t-100.5 93t-144.5 60.5t-193 22.5zM651 680q11 68 30.5 126.5t55 115t95 89.5t137.5 33q256 0 200 -364q-61 -363 -315 -363q-53 0 -93 15t-63 43t-37.5 62t-18 76.5t-1 82.5t9.5 84z" />
    <glyph glyph-name="one" unicode="1" horiz-adv-x="745" 
d="M406 1360l-216 -1360h367l215 1360h-366z" />
    <glyph glyph-name="two" unicode="2" horiz-adv-x="1480" 
d="M152 0h1153l51 328h-729q18 24 86 69q55 34 194 92q64 25 107 43t99 45t93.5 51.5t79 59.5t68 71.5t47 83.5t29.5 101q32 201 -101 320.5t-383 119.5q-262 0 -426.5 -127t-197.5 -337l-9 -52h381l8 52q9 59 61 91.5t130 32.5q83 0 125 -23t33 -77q-5 -40 -78 -82
q-56 -27 -78 -35q-52 -18 -86 -32q-91 -35 -170.5 -75t-158.5 -94t-137.5 -112.5t-100.5 -132.5t-54 -154z" />
    <glyph glyph-name="three" unicode="3" horiz-adv-x="1480" 
d="M231 416q-33 -215 102.5 -328t403.5 -113q267 0 439.5 113.5t205.5 327.5q28 177 -88 276q112 101 136 252q34 211 -93.5 325.5t-390.5 114.5q-261 0 -423.5 -114.5t-196.5 -325.5l-9 -51h383l2 27q4 68 50.5 96t140.5 28q83 0 126 -23t34 -77q-16 -98 -179 -98h-198
l-51 -330h198q89 0 139 -23t42 -77q-15 -99 -211 -99q-92 0 -142.5 22.5t-42.5 76.5l8 51h-376z" />
    <glyph glyph-name="four" unicode="4" horiz-adv-x="1480" 
d="M764 0h366l39 252h224l53 328h-223l123 780h-312l-876 -840l-43 -268h688zM662 580l229 221l-35 -221h-194z" />
    <glyph glyph-name="five" unicode="5" horiz-adv-x="1480" 
d="M231 416q-33 -215 102.5 -328t403.5 -113q274 0 444 120.5t205 340.5q33 216 -102.5 331.5t-402.5 115.5h-185l25 147h676l51 330h-1042l-127 -807h550q95 0 142 -26.5t37 -90.5q-19 -119 -215 -119q-90 0 -141.5 22.5t-43.5 76.5l8 51h-376z" />
    <glyph glyph-name="six" unicode="6" horiz-adv-x="1478" 
d="M973 1384q-143 0 -262.5 -44t-199 -114t-138.5 -165.5t-90.5 -188t-46.5 -192.5q-12 -73 -14.5 -141t6.5 -139.5t31 -132.5t64 -115.5t100 -93t144 -61t193 -22.5q268 0 448.5 126t214.5 341q32 203 -103 328t-388 125q-140 0 -279 -51q76 200 267 200q72 0 118 -26.5
t39 -73.5l-8 -51h377l8 51q31 198 -102 319t-379 121zM604 496q125 71 232 71q102 0 160 -29.5t48 -95.5q-9 -61 -72.5 -93t-154.5 -32q-105 0 -153.5 44.5t-59.5 134.5z" />
    <glyph glyph-name="seven" unicode="7" horiz-adv-x="1396" 
d="M975 1030l-641 -1030h397l684 1094q2 6 4 18l4 25l13 75l22 148h-1104l-51 -330h672z" />
    <glyph glyph-name="eight" unicode="8" horiz-adv-x="1480" 
d="M424 692q-165 -109 -193 -276q-33 -215 103 -328t403 -113t439.5 113.5t205.5 327.5q28 168 -104 276q130 106 152 252q33 209 -88.5 324.5t-380.5 115.5q-258 0 -418.5 -116t-192.5 -324q-23 -149 74 -252zM608 416q15 100 215 100q89 0 139 -23t42 -77
q-15 -99 -211 -99q-92 0 -142.5 22.5t-42.5 76.5zM731 944q16 100 176 100q78 0 116.5 -23.5t29.5 -76.5q-16 -98 -179 -98q-79 0 -115.5 22.5t-27.5 75.5z" />
    <glyph glyph-name="nine" unicode="9" horiz-adv-x="1478" 
d="M193 416q-21 -133 47 -235t195 -154t288 -52q143 0 262.5 44.5t199 114t139 165t91 188.5t47.5 193q11 73 13.5 140.5t-6.5 139.5t-31 132.5t-64 115.5t-100.5 93t-144.5 60.5t-193 22.5q-267 0 -449 -125t-215 -339q-32 -204 103 -328.5t389 -124.5q142 0 276 49
q-36 -93 -97.5 -146t-164.5 -53q-93 0 -157 33.5t-46 89.5l9 27h-383zM651 920q10 61 75.5 92.5t156.5 31.5q104 0 152.5 -45.5t56.5 -134.5q-121 -69 -232 -69q-105 0 -162 29t-47 96z" />
    <glyph glyph-name="colon" unicode=":" horiz-adv-x="768" 
d="M567 1147q-57 0 -104 -20t-77 -52t-48.5 -68.5t-24.5 -74.5q-9 -37 0 -75t27.5 -69t59.5 -51t98 -20q109 0 174.5 65t79.5 150q9 36 0 74t-27.5 69.5t-59.5 51.5t-98 20zM197 190q-9 -37 -0.5 -75t27 -69t59.5 -51t98 -20t104 20t77 52t48.5 68.5t24.5 74.5t-1.5 74
t-27.5 68t-60.5 51.5t-96.5 19.5q-109 0 -174.5 -64.5t-77.5 -148.5z" />
    <glyph glyph-name="semicolon" unicode=";" horiz-adv-x="768" 
d="M567 1147q-57 0 -104 -20t-77 -52t-48.5 -68.5t-24.5 -74.5q-9 -37 0 -75t27.5 -69t59.5 -51t98 -20q109 0 174.5 65t79.5 150q9 36 0 74t-27.5 69.5t-59.5 51.5t-98 20zM145 -143l134 -152l24 14q135 78 221 198t107 249q2 30 3.5 62t-9.5 63.5t-30 56.5t-56.5 40
t-89.5 15q-109 0 -174.5 -64.5t-77.5 -148.5q-19 -127 69 -184q-45 -81 -104 -135z" />
    <glyph glyph-name="less" unicode="&#x3c;" horiz-adv-x="794" 
d="M883 811l45 283l-760 -381l639 -379l45 280l-172 99z" />
    <glyph glyph-name="equal" unicode="=" horiz-adv-x="1482" 
d="M365 1096l-54 -328h1104l53 328h-1103zM231 264h1104l54 330h-1104z" />
    <glyph glyph-name="greater" unicode="&#x3e;" horiz-adv-x="788" 
d="M229 1094l-45 -283l170 -98l-200 -99l-45 -280l757 379z" />
    <glyph glyph-name="question" unicode="?" horiz-adv-x="1552" 
d="M700 680q-11 -74 25 -221l4 -19h234l8 17q35 63 41 75q120 9 213 35t167.5 73.5t121 123t63.5 176.5q15 96 -7.5 172t-73.5 126.5t-129 83.5t-170 47.5t-202 14.5q-102 0 -199 -17.5t-185.5 -54.5t-158 -89.5t-117 -127.5t-61.5 -163l-8 -51h365l8 51q11 64 113 96
q88 29 192 29q116 0 186 -23q88 -29 80 -94q-8 -50 -106 -72q-61 -12 -178 -12h-199zM588 190q-9 -36 -0.5 -74t27 -69.5t59.5 -51.5t98 -20q109 0 175.5 65.5t80.5 149.5q12 84 -33.5 148.5t-154.5 64.5q-108 0 -174 -65t-78 -148z" />
    <glyph glyph-name="at" unicode="@" horiz-adv-x="2144" 
d="M1343 1077q-65 35 -153 35q-102 0 -191.5 -42t-149.5 -108t-98 -140t-49 -144q-10 -46 -4.5 -97t18 -100t42.5 -93t69 -77.5t98 -53t130 -19.5q73 0 129 22q140 -35 243 -35q151 0 279.5 49t215 131.5t141 185t71.5 214.5q14 98 10.5 190t-32 175t-74 154t-116.5 128.5
t-158 98.5t-199 63t-240 22q-163 0 -308 -39t-256.5 -108t-203.5 -160t-156 -199t-105.5 -220.5t-59.5 -229.5q-15 -110 -12.5 -213.5t33.5 -199t80 -178t127 -150t175 -115.5t223.5 -74t272.5 -26q154 0 320 43t274 127l14 12l-117 270l-35 -24q-73 -52 -184.5 -76.5
t-224.5 -24.5q-162 0 -283.5 50.5t-189 137.5t-92 199.5t-3.5 241.5q14 92 46.5 179t88.5 169.5t129 144t175.5 99t220.5 37.5q161 0 272 -58.5t166 -160.5h-366zM1085 678q8 41 43.5 75.5t75.5 34.5q43 0 67.5 -35t16.5 -79q-6 -42 -42.5 -77.5t-78.5 -35.5q-41 0 -64.5 36
t-17.5 81zM1640 594l78 487q57 -123 33 -276q-22 -136 -111 -211z" />
    <glyph glyph-name="A" unicode="A" horiz-adv-x="1697" 
d="M76 0h389l176 322h512l76 -322h393l-330 1360h-454zM819 649l178 316l82 -316h-260z" />
    <glyph glyph-name="B" unicode="B" horiz-adv-x="1679" 
d="M1110 0q89 0 166.5 25.5t133.5 67.5t98.5 98t67 115.5t34.5 121.5q27 172 -92 274q100 97 120 230q10 50 5.5 101.5t-16.5 99t-42 89t-70.5 72.5t-101.5 48.5t-135 17.5h-872l-216 -1360h920zM608 328l31 188h553q30 0 43.5 -20t7.5 -54l-6 -39q-5 -34 -25 -54.5
t-51 -20.5h-553zM690 846l31 184h506q29 0 41.5 -19.5t7.5 -54.5l-6 -36q-4 -34 -24.5 -54t-49.5 -20h-506z" />
    <glyph glyph-name="C" unicode="C" 
d="M1044 1384q-138 0 -262 -42.5t-215 -112.5t-162 -162t-112.5 -190t-56.5 -197q-12 -61 -9.5 -123.5t12 -123.5t34.5 -118.5t57.5 -108.5t82 -93.5t108.5 -73t136 -47.5t164 -17q127 0 242 35.5t202.5 95.5t159 140t118 167t73.5 179l8 26h-381l-8 -20q-40 -117 -135 -199
t-223 -82q-63 0 -114 21.5t-81 58t-50 83.5t-22 98t4 102q10 65 40 128t76 116.5t114 86.5t147 33q128 0 198 -82t73 -198v-21h380l3 27q2 92 -17.5 178.5t-65.5 166.5t-115 139t-172.5 94.5t-230.5 35.5z" />
    <glyph glyph-name="D" unicode="D" horiz-adv-x="1691" 
d="M406 1360l-216 -1360h676q135 0 257 39.5t214 106.5t163.5 154.5t114 184t58.5 195.5q9 70 8 139.5t-21 137t-51 127.5t-82 110.5t-114.5 87.5t-148.5 57.5t-183 20.5h-675zM608 328l113 702h309q63 0 113 -20.5t80.5 -55t50.5 -79.5t23 -94.5t-3 -100.5
q-10 -65 -40 -126.5t-76 -112.5t-114 -82t-146 -31h-310z" />
    <glyph glyph-name="E" unicode="E" horiz-adv-x="1667" 
d="M406 1360l-216 -1360h1326l51 328h-959l31 188h713l51 330h-713l31 184h958l52 330h-1325z" />
    <glyph glyph-name="F" unicode="F" horiz-adv-x="1617" 
d="M406 1360l-216 -1360h367l82 516h688l51 330h-688l31 184h934l51 330h-1300z" />
    <glyph glyph-name="G" unicode="G" 
d="M1044 1384q-138 0 -262 -42.5t-215 -112.5t-162 -162t-112.5 -190t-56.5 -197q-12 -61 -9.5 -123.5t12 -123.5t34.5 -118.5t57.5 -108.5t82 -93.5t108.5 -73t136 -47.5t164 -17q139 0 263.5 42.5t216 112.5t163 162t113 190t57.5 198q8 57 8 131l-2 20h-743l-51 -327h344
q-53 -83 -134 -135t-179 -52q-63 0 -114 21.5t-81 58t-50 83.5t-22 98t4 102q10 65 40 128t76 116.5t114 86.5t147 33q85 0 149.5 -41t94.5 -108l6 -14l406 6l-9 31q-4 12 -8 36q-23 90 -70 166t-118.5 136t-173.5 94t-224 34z" />
    <glyph glyph-name="H" unicode="H" horiz-adv-x="1730" 
d="M406 1360l-216 -1360h367l82 516h616l-81 -516h368l215 1360h-368l-82 -514h-617l82 514h-366z" />
    <glyph glyph-name="I" unicode="I" horiz-adv-x="745" 
d="M406 1360l-216 -1360h367l215 1360h-366z" />
    <glyph glyph-name="J" unicode="J" horiz-adv-x="1433" 
d="M223 528q-13 -63 -6 -128.5t24.5 -127t57 -115.5t91.5 -94.5t128.5 -64t167.5 -23.5q135 0 252 50.5t195.5 132t128 177t65.5 193.5l131 832h-364l-131 -832q-13 -83 -73.5 -147t-148.5 -64q-85 0 -124.5 64.5t-26.5 146.5l8 52h-367z" />
    <glyph glyph-name="K" unicode="K" horiz-adv-x="1730" 
d="M406 1360l-216 -1360h367l57 360l224 179l336 -539h446l-487 776l727 584h-514l-658 -531l84 531h-366z" />
    <glyph glyph-name="L" unicode="L" horiz-adv-x="1396" 
d="M406 1360l-216 -1360h1104l52 328h-738l164 1032h-366z" />
    <glyph glyph-name="M" unicode="M" horiz-adv-x="1730" 
d="M1008 860l-287 500h-315l-216 -1360h367l113 715l118 -211h316l182 211l-112 -715h368l215 1360h-317z" />
    <glyph glyph-name="N" unicode="N" horiz-adv-x="1730" 
d="M406 1360l-216 -1360h367l121 766l549 -766h315l215 1360h-368l-121 -764l-551 764h-311z" />
    <glyph glyph-name="O" unicode="O" 
d="M1044 1384q-138 0 -262 -42.5t-215 -112.5t-162 -162t-112.5 -190t-56.5 -197q-12 -61 -9.5 -123.5t12 -123.5t34.5 -118.5t57.5 -108.5t82 -93.5t108.5 -73t136 -47.5t164 -17q139 0 263 42.5t216 112.5t163.5 162t113 190.5t57.5 197.5q11 60 8 122.5t-12.5 123.5
t-34.5 118.5t-58 108.5t-83 93.5t-109 73t-136 47.5t-165 17zM614 680q10 65 40 128t76 116.5t114 86.5t147 33q64 0 115 -21.5t82 -58t51 -84t22 -98.5t-4 -102q-10 -65 -40 -128t-76.5 -116.5t-115.5 -86t-148 -32.5q-63 0 -114 21.5t-81 58t-50 83.5t-22 98t4 102z" />
    <glyph glyph-name="P" unicode="P" horiz-adv-x="1677" 
d="M190 0h367l82 516h580q107 0 197 36.5t150 96.5t97 132.5t49 150.5q10 50 5.5 101.5t-16.5 99t-42 89t-70.5 72.5t-101.5 48.5t-135 17.5h-946zM690 846l31 184h579q29 0 42 -20t8 -54l-7 -36q-5 -34 -24.5 -54t-48.5 -20h-580z" />
    <glyph glyph-name="Q" unicode="Q" horiz-adv-x="1671" 
d="M1192 66q-180 -91 -371 -91q-87 0 -164 17t-136 47.5t-108.5 73t-82 93.5t-57.5 108.5t-34.5 118.5t-12 123.5t9.5 123.5q15 99 56.5 197t112.5 190t162 162t215 112.5t262 42.5q88 0 165 -17t136 -47.5t109 -73t83 -93.5t58 -108.5t34.5 -118.5t12.5 -123.5t-8 -122.5
q-32 -205 -157 -371l122 -155l-280 -244zM614 680q-6 -51 -4 -102t22 -98t50 -83.5t81 -58t114 -21.5q40 0 102 15l-162 200l287 242l135 -168q12 39 18 74q6 51 4 102t-22 98.5t-51 84t-82 58t-115 21.5q-79 0 -147 -33t-114 -86.5t-76 -116.5t-40 -128z" />
    <glyph glyph-name="R" unicode="R" horiz-adv-x="1740" 
d="M190 0h367l82 516h322l229 -516h414l-240 532q0 1 -1 2.5t-1 2.5q102 28 179.5 93.5t117.5 141.5t53 160q10 50 5.5 101.5t-16.5 99t-42 89t-70.5 72.5t-101.5 48.5t-135 17.5h-946zM690 846l31 184h579q29 0 42 -20t8 -54l-7 -36q-5 -34 -24.5 -54t-48.5 -20h-580z" />
    <glyph glyph-name="S" unicode="S" horiz-adv-x="1552" 
d="M195 428q-17 -110 23 -198t122.5 -142.5t193 -83.5t238.5 -29q142 0 261.5 26t218 80t162.5 144.5t83 210.5q15 99 -6.5 174t-70 121t-127.5 74.5t-167 39.5t-200 11q-53 0 -86 2q-63 4 -92 10q-44 9 -64 26.5t-16 45.5q8 63 96 94q76 23 180 23q65 0 119.5 -12.5
t91 -41.5t29.5 -71l-8 -51h366l8 51q23 142 -48 246.5t-203 155t-304 50.5q-136 0 -251.5 -25.5t-209.5 -77.5t-154.5 -138.5t-78.5 -202.5q-15 -97 4.5 -170t66 -118.5t122 -74t161.5 -39t195 -10.5q65 0 98 -2q80 -4 131 -22q57 -21 51 -68q-13 -73 -108 -106
q-80 -27 -199 -27q-102 0 -182 29q-91 32 -82 96l8 51h-364z" />
    <glyph glyph-name="T" unicode="T" horiz-adv-x="1552" 
d="M756 1030l-164 -1030h366l164 1030h494l51 330h-1352l-51 -330h492z" />
    <glyph glyph-name="U" unicode="U" horiz-adv-x="1679" 
d="M295 655q-11 -56 -9 -115t10 -117.5t30.5 -114t52 -105.5t75.5 -92t100.5 -72t127.5 -47t156 -17q131 0 247.5 42.5t201.5 111.5t151 158.5t104 182.5t53 185l111 705h-367l-110 -705q-10 -60 -36 -117.5t-67 -108t-101.5 -81.5t-131.5 -31q-58 0 -103 20.5t-71.5 54.5
t-43.5 77.5t-18 91t5 94.5l110 705h-366z" />
    <glyph glyph-name="V" unicode="V" horiz-adv-x="1697" 
d="M918 393l-236 967h-391l332 -1360h454l760 1360h-389l-8 -17l-377 -677q-6 -11 -54.5 -100.5t-72.5 -135.5z" />
    <glyph glyph-name="W" unicode="W" horiz-adv-x="1785" 
d="M315 1360l-53 -1360h354l381 653l174 -653h355l375 1360h-363l-178 -672l-125 420h-330l-250 -420l23 672h-363z" />
    <glyph glyph-name="X" unicode="X" horiz-adv-x="1710" 
d="M733 702l-682 -702h447l413 430l281 -430h467l-465 707l645 653h-457l-368 -381l-252 381h-459z" />
    <glyph glyph-name="Y" unicode="Y" horiz-adv-x="1581" 
d="M973 0l76 481l696 879h-422l-397 -512l-240 512h-420l418 -879l-74 -481h363z" />
    <glyph glyph-name="Z" unicode="Z" horiz-adv-x="1628" 
d="M195 270l-43 -270h1325l51 328h-778l874 762l43 270h-1276l-51 -330h727z" />
    <glyph glyph-name="bracketleft" unicode="[" horiz-adv-x="858" 
d="M446 1612l-294 -1864h550l52 330h-185l191 1204h184l53 330h-551z" />
    <glyph glyph-name="backslash" unicode="\" horiz-adv-x="1290" 
d="M324 1405l530 -1604l330 154l-533 1604z" />
    <glyph glyph-name="bracketright" unicode="]" horiz-adv-x="858" 
d="M127 78l-49 -330h549l295 1864h-551l-54 -330h187l-193 -1204h-184z" />
    <glyph glyph-name="asciicircum" unicode="^" horiz-adv-x="702" 
d="M778 1010l-102 319h-195l-205 -319h199l70 108l35 -108h198z" />
    <glyph glyph-name="underscore" unicode="_" horiz-adv-x="1361" 
d="M205 88l-53 -328h981l53 328h-981z" />
    <glyph glyph-name="grave" unicode="`" horiz-adv-x="628" 
d="M291 1343l178 -323h190l-98 323h-270z" />
    <glyph glyph-name="a" unicode="a" horiz-adv-x="1697" 
d="M76 0h389l176 322h512l76 -322h393l-330 1360h-454zM819 649l178 316l82 -316h-260z" />
    <glyph glyph-name="b" unicode="b" horiz-adv-x="1679" 
d="M1110 0q89 0 166.5 25.5t133.5 67.5t98.5 98t67 115.5t34.5 121.5q27 172 -92 274q100 97 120 230q10 50 5.5 101.5t-16.5 99t-42 89t-70.5 72.5t-101.5 48.5t-135 17.5h-872l-216 -1360h920zM608 328l31 188h553q30 0 43.5 -20t7.5 -54l-6 -39q-5 -34 -25 -54.5
t-51 -20.5h-553zM690 846l31 184h506q29 0 41.5 -19.5t7.5 -54.5l-6 -36q-4 -34 -24.5 -54t-49.5 -20h-506z" />
    <glyph glyph-name="c" unicode="c" 
d="M1044 1384q-138 0 -262 -42.5t-215 -112.5t-162 -162t-112.5 -190t-56.5 -197q-12 -61 -9.5 -123.5t12 -123.5t34.5 -118.5t57.5 -108.5t82 -93.5t108.5 -73t136 -47.5t164 -17q127 0 242 35.5t202.5 95.5t159 140t118 167t73.5 179l8 26h-381l-8 -20q-40 -117 -135 -199
t-223 -82q-63 0 -114 21.5t-81 58t-50 83.5t-22 98t4 102q10 65 40 128t76 116.5t114 86.5t147 33q128 0 198 -82t73 -198v-21h380l3 27q2 92 -17.5 178.5t-65.5 166.5t-115 139t-172.5 94.5t-230.5 35.5z" />
    <glyph glyph-name="d" unicode="d" horiz-adv-x="1691" 
d="M406 1360l-216 -1360h676q135 0 257 39.5t214 106.5t163.5 154.5t114 184t58.5 195.5q9 70 8 139.5t-21 137t-51 127.5t-82 110.5t-114.5 87.5t-148.5 57.5t-183 20.5h-675zM608 328l113 702h309q63 0 113 -20.5t80.5 -55t50.5 -79.5t23 -94.5t-3 -100.5
q-10 -65 -40 -126.5t-76 -112.5t-114 -82t-146 -31h-310z" />
    <glyph glyph-name="e" unicode="e" horiz-adv-x="1667" 
d="M406 1360l-216 -1360h1326l51 328h-959l31 188h713l51 330h-713l31 184h958l52 330h-1325z" />
    <glyph glyph-name="f" unicode="f" horiz-adv-x="1617" 
d="M406 1360l-216 -1360h367l82 516h688l51 330h-688l31 184h934l51 330h-1300z" />
    <glyph glyph-name="g" unicode="g" 
d="M1044 1384q-138 0 -262 -42.5t-215 -112.5t-162 -162t-112.5 -190t-56.5 -197q-12 -61 -9.5 -123.5t12 -123.5t34.5 -118.5t57.5 -108.5t82 -93.5t108.5 -73t136 -47.5t164 -17q139 0 263.5 42.5t216 112.5t163 162t113 190t57.5 198q8 57 8 131l-2 20h-743l-51 -327h344
q-53 -83 -134 -135t-179 -52q-63 0 -114 21.5t-81 58t-50 83.5t-22 98t4 102q10 65 40 128t76 116.5t114 86.5t147 33q85 0 149.5 -41t94.5 -108l6 -14l406 6l-9 31q-4 12 -8 36q-23 90 -70 166t-118.5 136t-173.5 94t-224 34z" />
    <glyph glyph-name="h" unicode="h" horiz-adv-x="1730" 
d="M406 1360l-216 -1360h367l82 516h616l-81 -516h368l215 1360h-368l-82 -514h-617l82 514h-366z" />
    <glyph glyph-name="i" unicode="i" horiz-adv-x="745" 
d="M406 1360l-216 -1360h367l215 1360h-366z" />
    <glyph glyph-name="j" unicode="j" horiz-adv-x="1458" 
d="M250 528q-7 -55 -7 -110t15 -109.5t38.5 -104t63.5 -91.5t89.5 -72.5t117 -48t146.5 -17.5q109 0 207 33.5t170.5 89t129 128t89.5 149t45 153.5l131 832h-367l-131 -832q-13 -83 -73 -147t-146 -64q-87 0 -127 64.5t-27 146.5l9 52h-365z" />
    <glyph glyph-name="k" unicode="k" horiz-adv-x="1730" 
d="M406 1360l-216 -1360h367l57 360l224 179l336 -539h446l-487 776l727 584h-514l-658 -531l84 531h-366z" />
    <glyph glyph-name="l" unicode="l" horiz-adv-x="1396" 
d="M406 1360l-216 -1360h1104l52 328h-738l164 1032h-366z" />
    <glyph glyph-name="m" unicode="m" horiz-adv-x="1730" 
d="M1008 860l-287 500h-315l-216 -1360h367l113 715l118 -211h316l182 211l-112 -715h368l215 1360h-317z" />
    <glyph glyph-name="n" unicode="n" horiz-adv-x="1730" 
d="M406 1360l-216 -1360h367l121 766l549 -766h315l215 1360h-368l-121 -764l-551 764h-311z" />
    <glyph glyph-name="o" unicode="o" 
d="M1044 1384q-138 0 -262 -42.5t-215 -112.5t-162 -162t-112.5 -190t-56.5 -197q-12 -61 -9.5 -123.5t12 -123.5t34.5 -118.5t57.5 -108.5t82 -93.5t108.5 -73t136 -47.5t164 -17q139 0 263 42.5t216 112.5t163.5 162t113 190.5t57.5 197.5q11 60 8 122.5t-12.5 123.5
t-34.5 118.5t-58 108.5t-83 93.5t-109 73t-136 47.5t-165 17zM614 680q10 65 40 128t76 116.5t114 86.5t147 33q64 0 115 -21.5t82 -58t51 -84t22 -98.5t-4 -102q-10 -65 -40 -128t-76.5 -116.5t-115.5 -86t-148 -32.5q-63 0 -114 21.5t-81 58t-50 83.5t-22 98t4 102z" />
    <glyph glyph-name="p" unicode="p" horiz-adv-x="1691" 
d="M190 0h367l82 516h580q107 0 197 36.5t150 96.5t97 132.5t49 150.5q10 50 5.5 101.5t-16.5 99t-42 89t-70.5 72.5t-101.5 48.5t-135 17.5h-946zM690 846l31 184h579q29 0 42 -20t8 -54l-7 -36q-5 -34 -24.5 -54t-48.5 -20h-580z" />
    <glyph glyph-name="q" unicode="q" horiz-adv-x="1671" 
d="M1192 66q-180 -91 -371 -91q-87 0 -164 17t-136 47.5t-108.5 73t-82 93.5t-57.5 108.5t-34.5 118.5t-12 123.5t9.5 123.5q15 99 56.5 197t112.5 190t162 162t215 112.5t262 42.5q88 0 165 -17t136 -47.5t109 -73t83 -93.5t58 -108.5t34.5 -118.5t12.5 -123.5t-8 -122.5
q-32 -205 -157 -371l122 -155l-280 -244zM614 680q-6 -51 -4 -102t22 -98t50 -83.5t81 -58t114 -21.5q40 0 102 15l-162 200l287 242l135 -168q12 39 18 74q6 51 4 102t-22 98.5t-51 84t-82 58t-115 21.5q-79 0 -147 -33t-114 -86.5t-76 -116.5t-40 -128z" />
    <glyph glyph-name="r" unicode="r" horiz-adv-x="1740" 
d="M190 0h367l82 516h322l229 -516h414l-240 532q0 1 -1 2.5t-1 2.5q102 28 179.5 93.5t117.5 141.5t53 160q10 50 5.5 101.5t-16.5 99t-42 89t-70.5 72.5t-101.5 48.5t-135 17.5h-946zM690 846l31 184h579q29 0 42 -20t8 -54l-7 -36q-5 -34 -24.5 -54t-48.5 -20h-580z" />
    <glyph glyph-name="s" unicode="s" horiz-adv-x="1552" 
d="M195 428q-17 -110 23 -198t122.5 -142.5t193 -83.5t238.5 -29q142 0 261.5 26t218 80t162.5 144.5t83 210.5q15 99 -6.5 174t-70 121t-127.5 74.5t-167 39.5t-200 11q-53 0 -86 2q-63 4 -92 10q-44 9 -64 26.5t-16 45.5q8 63 96 94q76 23 180 23q65 0 119.5 -12.5
t91 -41.5t29.5 -71l-8 -51h366l8 51q23 142 -48 246.5t-203 155t-304 50.5q-136 0 -251.5 -25.5t-209.5 -77.5t-154.5 -138.5t-78.5 -202.5q-15 -97 4.5 -170t66 -118.5t122 -74t161.5 -39t195 -10.5q65 0 98 -2q80 -4 131 -22q57 -21 51 -68q-13 -73 -108 -106
q-80 -27 -199 -27q-102 0 -182 29q-91 32 -82 96l8 51h-364z" />
    <glyph glyph-name="t" unicode="t" horiz-adv-x="1552" 
d="M756 1030l-164 -1030h366l164 1030h494l51 330h-1352l-51 -330h492z" />
    <glyph glyph-name="u" unicode="u" horiz-adv-x="1679" 
d="M295 655q-11 -56 -9 -115t10 -117.5t30.5 -114t52 -105.5t75.5 -92t100.5 -72t127.5 -47t156 -17q131 0 247.5 42.5t201.5 111.5t151 158.5t104 182.5t53 185l111 705h-367l-110 -705q-10 -60 -36 -117.5t-67 -108t-101.5 -81.5t-131.5 -31q-58 0 -103 20.5t-71.5 54.5
t-43.5 77.5t-18 91t5 94.5l110 705h-366z" />
    <glyph glyph-name="v" unicode="v" horiz-adv-x="1697" 
d="M918 393l-236 967h-391l332 -1360h454l760 1360h-389l-8 -17l-377 -677q-6 -11 -54.5 -100.5t-72.5 -135.5z" />
    <glyph glyph-name="w" unicode="w" horiz-adv-x="1785" 
d="M315 1360l-53 -1360h354l381 653l174 -653h355l375 1360h-363l-178 -672l-125 420h-330l-250 -418l23 670h-363z" />
    <glyph glyph-name="x" unicode="x" horiz-adv-x="1789" 
d="M776 702l-700 -702h456l429 434l296 -434h457l-483 702l661 658h-458l-383 -391l-269 391h-454z" />
    <glyph glyph-name="y" unicode="y" horiz-adv-x="1630" 
d="M995 0l76 481l696 879h-421l-398 -512l-239 512h-420l418 -879l-74 -481h362z" />
    <glyph glyph-name="z" unicode="z" horiz-adv-x="1628" 
d="M195 270l-43 -270h1325l51 328h-778l874 762l43 270h-1276l-51 -330h727z" />
    <glyph glyph-name="braceleft" unicode="{" horiz-adv-x="913" 
d="M197 846l-52 -330h123q29 0 42 -20t7 -54l-41 -266q-11 -50 -6 -101t17.5 -98.5t43 -89t71.5 -72.5t102 -49t135 -18h121l51 330h-121q-62 0 -53 63l39 250q29 179 -68 289q131 112 160 291l39 248q9 63 74 63h120l54 330h-121q-109 0 -201 -38.5t-151.5 -101.5
t-96.5 -136.5t-49 -151.5l-43 -264q-5 -34 -25 -54t-49 -20h-122z" />
    <glyph glyph-name="bar" unicode="|" horiz-adv-x="745" 
d="M444 1610l-292 -1862h366l295 1866z" />
    <glyph glyph-name="braceright" unicode="}" horiz-adv-x="911" 
d="M127 78l-51 -330h121q109 0 200.5 38t151 101t96 136.5t49.5 152.5l41 266q13 74 74 74h123l51 330h-123q-59 0 -49 74l43 264q10 50 5 101.5t-17.5 99t-42.5 89t-70.5 72.5t-101.5 48.5t-135 17.5h-121l-54 -330h121q41 0 51 -33q5 -23 0 -41q0 -17 -4 -45
q-3 -16 -13 -67.5t-13 -79.5q-11 -67 -11.5 -118.5t17.5 -112t59 -105.5q-81 -66 -119.5 -150t-52.5 -186q-4 -25 -10 -74.5t-10 -74.5q-4 -30 -8 -45q-5 -16 -17 -41q-17 -31 -59 -31h-121z" />
    <glyph glyph-name="asciitilde" unicode="~" horiz-adv-x="606" 
d="M827 1714l27 178l-115 -80q-48 -30 -77 -30q-14 0 -27 18t-24 39t-35.5 39t-57.5 18q-46 0 -108 -30q-29 -16 -80 -56l-4 -4l-33 -192l51 43q4 3 30.5 25.5t45.5 35.5q58 39 80 39q13 0 30 -19.5t31.5 -43t34 -43t35.5 -19.5q87 0 190 78z" />
    <glyph glyph-name="exclamdown" unicode="&#xa1;" horiz-adv-x="768" 
d="M532 932q108 0 174 65t80 148q6 38 -1 74.5t-27 68.5t-60.5 52t-97.5 20q-109 0 -174.5 -65.5t-77.5 -149.5q-14 -84 30.5 -148.5t153.5 -64.5zM197 -25h366l49 304q49 317 41 595l-2 21h-250l-6 -21q-98 -269 -149 -595z" />
    <glyph glyph-name="cent" unicode="&#xa2;" horiz-adv-x="1269" 
d="M428 -244h264l60 379q105 19 194 68t150 117t102.5 141.5t65.5 154.5l8 27h-322l-8 -20q-40 -124 -141 -179l76 471q84 -56 84 -176v-22h321l2 28q1 81 -17 154t-57.5 141t-112 117t-171.5 68l57 368h-264l-60 -376q-106 -25 -195 -83t-147.5 -133.5t-95 -157
t-49.5 -163.5q-8 -65 -6.5 -130t24.5 -130t59 -118.5t98.5 -96t141.5 -62.5zM489 680q22 141 119 215l-67 -430q-74 74 -52 215z" />
    <glyph glyph-name="sterling" unicode="&#xa3;" horiz-adv-x="1318" 
d="M631 367q42 53 65 102t37 111h244l49 311h-301q-17 97 -6 172q8 52 43.5 89.5t87.5 37.5q62 0 84 -55q14 -41 14 -117v-27l373 58l2 20q3 71 -7 132t-39 117.5t-75.5 96.5t-121.5 64t-173 24q-15 0 -51 -4l-49 -6q-241 -37 -340 -172q-96 -137 -115 -256q-13 -96 -8 -174
h-129l-49 -311h199q-14 -87 -76 -159.5t-166 -141.5l-17 -11l91 -329l39 24q73 46 126 69t111 23q41 0 96 -10q6 -2 97 -29q139 -41 219 -41q140 0 323 84l21 11l-96 317l-33 -12q-135 -58 -195 -58q-43 0 -129 23q-34 12 -69 18q-52 9 -76 9z" />
    <glyph glyph-name="yen" unicode="&#xa5;" horiz-adv-x="1333" 
d="M1241 526h-348l8 52h348l45 288h-198l362 564h-399l-250 -392l-121 392h-397l180 -564h-197l-43 -288h349l-9 -52h-348l-45 -268h326l-39 -242h364l39 242h330z" />
    <glyph glyph-name="section" unicode="&#xa7;" horiz-adv-x="1157" 
d="M410 332h-287l-4 -17q-11 -172 113 -250.5t354 -78.5q100 0 188.5 18.5t163.5 55.5t124 99t62 144q20 118 -57 193q99 80 115 194q10 61 -4.5 109t-44 77.5t-77.5 51t-94.5 32t-105.5 17.5q-24 2 -114.5 8t-127.5 12q-50 7 -69.5 18t-16.5 29q6 44 78 68q67 21 137 21
q49 0 123 -15q45 -11 62 -18q18 -9 18 -17q-2 -10 -7 -29.5t-7 -29.5l-4 -16h280l6 45q10 64 -7 115.5t-55.5 85.5t-95.5 57t-123 33t-142 10q-96 0 -183 -18t-161.5 -54.5t-124 -97.5t-62.5 -140q-21 -121 62 -192q-101 -81 -117 -193q-10 -63 4.5 -110.5t44 -76.5
t78 -48.5t94 -28.5t104.5 -14q31 -3 83 -6t90.5 -6.5t66.5 -8.5q47 -8 67.5 -22.5t16.5 -40.5q-9 -50 -86 -72q-63 -18 -147 -18q-81 0 -144 18q-82 23 -76 58zM471 659q6 43 80 66q61 20 135 20q69 0 143 -14q50 -12 64 -22q19 -13 16 -25q-6 -37 -66 -62.5t-122 -25.5
q-43 0 -122 10t-105 21t-23 32z" />
    <glyph glyph-name="dieresis" unicode="&#xa8;" horiz-adv-x="622" 
d="M467 1143q8 48 -21 85.5t-96 37.5q-66 0 -106 -38t-47 -85q-7 -49 20.5 -86t93.5 -37q67 0 108 37t48 86zM516 1141q-7 -48 21 -86.5t94 -38.5q67 0 107.5 37.5t47.5 87.5q8 48 -20.5 85.5t-95.5 37.5q-66 0 -106.5 -38t-47.5 -85z" />
    <glyph glyph-name="copyright" unicode="&#xa9;" horiz-adv-x="1742" 
d="M834 -16q165 0 314.5 63t254 164t172 222t86.5 243q11 60 7 122t-16 122t-40 116.5t-64 106.5t-87.5 91t-111.5 71t-136 46.5t-160 16.5q-133 0 -256.5 -41t-219 -110t-171.5 -158t-122 -187.5t-61 -195.5q-11 -60 -6.5 -121.5t17 -121.5t40.5 -116.5t64.5 -106.5
t88.5 -91.5t112 -71.5t135.5 -46.5t159.5 -16.5zM516 676q12 77 54.5 152t105.5 135t151 97.5t183 37.5t171 -37.5t120 -97.5t61.5 -135t5.5 -152t-53.5 -151.5t-104 -134.5t-150.5 -97t-183 -37t-171.5 37t-120.5 97t-62.5 134.5t-6.5 151.5zM600 680q8 48 28 96t54.5 93.5
t79 80t106.5 55.5t131 21q75 0 134 -25t93.5 -66.5t52 -91.5t17.5 -104v-45h-227q-3 56 -27 91.5t-73 35.5q-54 0 -94 -42.5t-48 -98.5q-10 -55 16.5 -98t80.5 -43q91 0 139 127h227l-12 -43q-18 -55 -50.5 -105t-80 -92t-114 -67t-142.5 -25q-58 0 -106.5 15t-81 40
t-57.5 59.5t-35 72.5t-14.5 79t3.5 80z" />
    <glyph glyph-name="ordfeminine" unicode="&#xaa;" horiz-adv-x="768" 
d="M430 1235l80 137h178l39 -137h207l-193 625h-141l-373 -625h203zM604 1536l27 43l12 -43h-39z" />
    <glyph glyph-name="guillemotleft" unicode="&#xab;" horiz-adv-x="1034" 
d="M735 831l29 177l-598 -306l502 -305l26 176l-217 129zM569 702l500 -305l27 176l-217 129l258 129l28 177z" />
    <glyph glyph-name="registered" unicode="&#xae;" horiz-adv-x="1540" 
d="M1620 670q21 131 -11.5 255t-107.5 219t-198 152.5t-273 57.5t-291.5 -57.5t-246.5 -152.5t-176.5 -219t-92.5 -255t11.5 -255.5t107.5 -219.5t198 -153t273 -58t291.5 58t246.5 153t176.5 219.5t92.5 255.5zM459 670q14 89 62 172.5t118 146t163 100t191 37.5
q130 0 226.5 -64t138.5 -168t24 -224q-15 -89 -63 -172.5t-118 -147t-162.5 -101.5t-190.5 -38q-130 0 -227 64.5t-139 169.5t-23 225zM592 371h166l35 225h131l98 -225h186l-16 41q-79 180 -86 194q62 19 100.5 68t48.5 108q11 79 -29 136t-130 57h-410zM817 750l12 71h244
q23 0 17 -26l-3 -17q-3 -28 -26 -28h-244z" />
    <glyph glyph-name="macron" unicode="&#xaf;" horiz-adv-x="692" 
d="M252 1014h442l25 147h-443z" />
    <glyph glyph-name="degree" unicode="&#xb0;" horiz-adv-x="387" 
d="M401 1315q-80 0 -128.5 -48t-57.5 -108q-9 -59 24 -107t113 -48t129 48.5t58 106.5q9 60 -24.5 108t-113.5 48zM348 1159q3 20 8.5 24.5t26.5 4.5q15 0 19 -5.5t1 -23.5q-3 -19 -9 -24t-23 -5t-21.5 5t-1.5 24z" />
    <glyph glyph-name="acute" unicode="&#xb4;" horiz-adv-x="559" 
d="M547 1010l284 331l-274 -8l-205 -323h195z" />
    <glyph glyph-name="periodcentered" unicode="&#xb7;" horiz-adv-x="655" 
d="M455 799q78 0 128.5 49t61.5 121q11 71 -25 119.5t-112 48.5t-127 -49t-62 -119q-11 -72 23.5 -121t112.5 -49z" />
    <glyph glyph-name="cedilla" unicode="&#xb8;" horiz-adv-x="618" 
d="M152 -152q26 42 86 152l6 10h157l-18 -49q120 -37 102 -170q-13 -83 -80.5 -144t-175.5 -61q-82 0 -133 43t-73 105q-2 6 -9 41.5t-6 36.5l166 -2q46 -58 76 -58q51 0 57 33q6 28 -15 41.5t-51 12.5t-58 -1.5t-38 0.5z" />
    <glyph glyph-name="ordmasculine" unicode="&#xba;" horiz-adv-x="724" 
d="M657 1864q-79 0 -147 -31.5t-111 -81t-69.5 -103.5t-34.5 -106q-4 -41 -2 -84.5t21 -86.5t47.5 -76.5t79 -54.5t114.5 -21q79 0 147 31.5t111.5 81t70 103.5t34.5 107q4 40 2 83.5t-21 86.5t-48 76.5t-79.5 54.5t-114.5 21zM489 1542q9 54 48 101t94 47t78 -46.5
t14 -101.5q-9 -56 -46 -101.5t-93 -45.5q-55 0 -79.5 46.5t-15.5 100.5z" />
    <glyph glyph-name="guillemotright" unicode="&#xbb;" horiz-adv-x="1062" 
d="M215 1008l-29 -177l217 -129l-258 -129l-26 -176l596 305zM522 397l594 305l-498 306l-28 -177l217 -129l-258 -129z" />
    <glyph glyph-name="questiondown" unicode="&#xbf;" horiz-adv-x="1552" 
d="M930 956q108 0 174 65t78 148q9 36 0 74t-27.5 69.5t-59.5 51.5t-98 20q-109 0 -175.5 -65.5t-80.5 -149.5q-12 -84 34 -148.5t155 -64.5zM193 420q-19 -119 18.5 -207t121 -139t193.5 -75t248 -24q128 0 248 29t220.5 83.5t168 142.5t84.5 198l8 51h-364l-9 -51
q-8 -63 -110 -96q-91 -29 -195 -29q-116 0 -186 23q-88 30 -80 94q8 50 107 72q61 12 178 12h198l29 176q10 69 -27 221l-4 19h-233l-8 -17q-32 -56 -41 -76q-120 -9 -213 -35t-167.5 -73.5t-121 -122.5t-63.5 -176z" />
    <glyph glyph-name="Agrave" unicode="&#xc0;" horiz-adv-x="1697" 
d="M938 1884l178 -323h191l-99 323h-270zM76 0h389l176 322h512l76 -322h393l-330 1360h-454zM819 649l178 316l82 -316h-260z" />
    <glyph glyph-name="Aacute" unicode="&#xc1;" horiz-adv-x="1697" 
d="M1075 1550l285 332l-275 -8l-202 -324h192zM76 0h389l176 322h512l76 -322h393l-330 1360h-454zM819 649l178 316l82 -316h-260z" />
    <glyph glyph-name="Acircumflex" unicode="&#xc2;" horiz-adv-x="1697" 
d="M1346 1556l-103 320h-194l-205 -320h198l72 109l33 -109h199zM76 0h389l176 322h512l76 -322h393l-330 1360h-454zM819 649l178 316l82 -316h-260z" />
    <glyph glyph-name="Atilde" unicode="&#xc3;" horiz-adv-x="1697" 
d="M1372 1667l29 178l-115 -78q-46 -30 -80 -30q-14 0 -27 17.5t-23.5 38.5t-35 38.5t-57.5 17.5q-55 0 -107 -30q-15 -8 -82 -56l-4 -4l-32 -192l51 43q50 43 76 61q58 39 79 39q16 0 39.5 -31t48.5 -62.5t46 -31.5q82 0 190 78zM76 0h389l176 322h512l76 -322h393
l-330 1360h-454zM819 649l178 316l82 -316h-260z" />
    <glyph glyph-name="Adieresis" unicode="&#xc4;" horiz-adv-x="1697" 
d="M1090 1683q8 48 -21 85.5t-96 37.5q-66 0 -106.5 -38.5t-47.5 -84.5q-7 -49 21 -85.5t94 -36.5q67 0 108 36.5t48 85.5zM76 0h389l176 322h512l76 -322h393l-330 1360h-454zM819 649l178 316l82 -316h-260zM1141 1681q-7 -49 19.5 -87t92.5 -38q67 0 108.5 37.5
t49.5 87.5q7 49 -21.5 86t-95.5 37q-66 0 -106 -37.5t-47 -85.5z" />
    <glyph glyph-name="Aring" unicode="&#xc5;" horiz-adv-x="1697" 
d="M971 1710q-4 -24 0.5 -48.5t17.5 -47.5t41 -37t68 -14q74 0 117.5 46t52.5 101q9 54 -21 98.5t-104 44.5q-75 0 -119 -44.5t-53 -98.5zM76 0h389l176 322h512l76 -322h393l-330 1360h-454zM819 649l178 316l82 -316h-260zM1104 1710q3 19 20 19q12 0 9 -19
q-1 -12 -4.5 -15t-10.5 -3q-10 0 -12.5 2.5t-1.5 15.5z" />
    <glyph glyph-name="AE" unicode="&#xc6;" horiz-adv-x="2334" 
d="M2071 846l-52 -330h-712l-31 -188h958l-51 -328h-1325l51 322h-233l-176 -322h-389l761 1360h1526l-51 -330h-958l-31 -184h713zM854 649h107l43 269z" />
    <glyph glyph-name="Ccedilla" unicode="&#xc7;" 
d="M1243 618h381l-8 -26q-30 -105 -87.5 -202.5t-140.5 -183t-199 -145t-249 -77.5l-8 -23q120 -37 102 -170q-13 -83 -80.5 -144t-175.5 -61q-82 0 -133.5 43t-73.5 105q-2 6 -8.5 41.5t-5.5 36.5l166 -2q46 -58 76 -58q51 0 57 33q6 28 -15 41.5t-51 12.5t-58 -1.5
t-38 0.5l6 10q31 48 74 129q-92 5 -171 30.5t-137 65.5t-104.5 93t-73.5 114t-44.5 128t-17 135.5t9.5 136.5q15 99 56.5 197t112.5 190t162 162t215 112.5t262 42.5q127 0 230.5 -35.5t172.5 -94.5t115 -139t65.5 -166.5t17.5 -178.5l-3 -27h-380v21q-3 116 -73 198
t-198 82q-79 0 -147 -33t-114 -86.5t-76 -116.5t-40 -128q-6 -51 -4 -102t22 -98t50 -83.5t81 -58t114 -21.5q128 0 223 82t135 199z" />
    <glyph glyph-name="Egrave" unicode="&#xc8;" horiz-adv-x="1667" 
d="M922 1884l178 -323h192l-100 323h-270zM190 0h1326l51 328h-959l31 188h713l51 330h-713l31 184h958l52 330h-1325z" />
    <glyph glyph-name="Eacute" unicode="&#xc9;" horiz-adv-x="1667" 
d="M1061 1550l285 332l-275 -8l-205 -324h195zM190 0h1326l51 328h-959l31 188h713l51 330h-713l31 184h958l52 330h-1325z" />
    <glyph glyph-name="Ecircumflex" unicode="&#xca;" horiz-adv-x="1667" 
d="M1329 1556l-100 320h-197l-203 -320h197l74 109l30 -109h199zM190 0h1326l51 328h-959l31 188h713l51 330h-713l31 184h958l52 330h-1325z" />
    <glyph glyph-name="Edieresis" unicode="&#xcb;" horiz-adv-x="1667" 
d="M1075 1683q8 48 -21 85.5t-96 37.5q-66 0 -106 -38t-47 -85q-7 -49 21 -85.5t94 -36.5q67 0 107.5 36.5t47.5 85.5zM190 0h1326l51 328h-959l31 188h713l51 330h-713l31 184h958l52 330h-1325zM1124 1681q-7 -48 20 -86.5t93 -38.5q67 0 108.5 37.5t49.5 87.5
q7 49 -21.5 86t-95.5 37q-66 0 -106.5 -38t-47.5 -85z" />
    <glyph glyph-name="Igrave" unicode="&#xcc;" horiz-adv-x="745" 
d="M461 1884l178 -323h192l-100 323h-270zM190 0h367l215 1360h-366z" />
    <glyph glyph-name="Iacute" unicode="&#xcd;" horiz-adv-x="745" 
d="M600 1550l285 332l-275 -8l-204 -324h194zM190 0h367l215 1360h-366z" />
    <glyph glyph-name="Icircumflex" unicode="&#xce;" horiz-adv-x="745" 
d="M868 1556l-100 320h-197l-202 -320h196l74 109l31 -109h198zM190 0h367l215 1360h-366z" />
    <glyph glyph-name="Idieresis" unicode="&#xcf;" horiz-adv-x="745" 
d="M614 1683q8 48 -20.5 85.5t-95.5 37.5q-66 0 -106.5 -38.5t-47.5 -84.5q-7 -49 21 -85.5t94 -36.5q67 0 107.5 36.5t47.5 85.5zM190 0h367l215 1360h-366zM664 1681q-7 -49 19.5 -87t92.5 -38q67 0 108.5 37.5t49.5 87.5q7 49 -21.5 86t-95.5 37q-66 0 -106 -37.5
t-47 -85.5z" />
    <glyph glyph-name="Ntilde" unicode="&#xd1;" horiz-adv-x="1730" 
d="M1389 1667l28 178l-114 -78q-47 -30 -80 -30q-14 0 -27 17.5t-24 38.5t-35.5 38.5t-57.5 17.5q-54 0 -106 -30q-15 -8 -82 -56l-4 -4l-33 -192l51 43q50 43 76 61q58 39 80 39q16 0 39 -31t48 -62.5t46 -31.5q82 0 190 78zM190 0h367l121 766l549 -766h315l215 1360h-368
l-121 -764l-551 764h-311z" />
    <glyph glyph-name="Ograve" unicode="&#xd2;" 
d="M915 1884l179 -323h190l-98 323h-271zM236 680q-12 -61 -9.5 -123.5t12 -123.5t34.5 -118.5t57.5 -108.5t82 -93.5t108.5 -73t136 -47.5t164 -17q139 0 263 42.5t216 112.5t163.5 162t113 190.5t57.5 197.5q11 60 8 122.5t-12.5 123.5t-34.5 118.5t-58 108.5t-83 93.5
t-109 73t-136 47.5t-165 17q-138 0 -262 -42.5t-215 -112.5t-162 -162t-112.5 -190t-56.5 -197zM614 680q10 65 40 128t76 116.5t114 86.5t147 33q64 0 115 -21.5t82 -58t51 -84t22 -98.5t-4 -102q-10 -65 -40 -128t-76.5 -116.5t-115.5 -86t-148 -32.5q-63 0 -114 21.5
t-81 58t-50 83.5t-22 98t4 102z" />
    <glyph glyph-name="Oacute" unicode="&#xd3;" 
d="M1053 1550l284 332l-274 -8l-203 -324h193zM236 680q-12 -61 -9.5 -123.5t12 -123.5t34.5 -118.5t57.5 -108.5t82 -93.5t108.5 -73t136 -47.5t164 -17q139 0 263 42.5t216 112.5t163.5 162t113 190.5t57.5 197.5q11 60 8 122.5t-12.5 123.5t-34.5 118.5t-58 108.5
t-83 93.5t-109 73t-136 47.5t-165 17q-138 0 -262 -42.5t-215 -112.5t-162 -162t-112.5 -190t-56.5 -197zM614 680q10 65 40 128t76 116.5t114 86.5t147 33q64 0 115 -21.5t82 -58t51 -84t22 -98.5t-4 -102q-10 -65 -40 -128t-76.5 -116.5t-115.5 -86t-148 -32.5
q-63 0 -114 21.5t-81 58t-50 83.5t-22 98t4 102z" />
    <glyph glyph-name="Ocircumflex" unicode="&#xd4;" 
d="M1323 1556l-102 320h-195l-205 -320h199l72 109l32 -109h199zM236 680q-12 -61 -9.5 -123.5t12 -123.5t34.5 -118.5t57.5 -108.5t82 -93.5t108.5 -73t136 -47.5t164 -17q139 0 263 42.5t216 112.5t163.5 162t113 190.5t57.5 197.5q11 60 8 122.5t-12.5 123.5t-34.5 118.5
t-58 108.5t-83 93.5t-109 73t-136 47.5t-165 17q-138 0 -262 -42.5t-215 -112.5t-162 -162t-112.5 -190t-56.5 -197zM614 680q10 65 40 128t76 116.5t114 86.5t147 33q64 0 115 -21.5t82 -58t51 -84t22 -98.5t-4 -102q-10 -65 -40 -128t-76.5 -116.5t-115.5 -86t-148 -32.5
q-63 0 -114 21.5t-81 58t-50 83.5t-22 98t4 102z" />
    <glyph glyph-name="Otilde" unicode="&#xd5;" 
d="M1350 1667l28 178l-114 -78q-46 -30 -80 -30q-14 0 -27 17.5t-24 38.5t-35.5 38.5t-57.5 17.5q-54 0 -106 -30q-15 -8 -82 -56l-4 -4l-33 -192l51 43q50 43 76 61q58 39 80 39q16 0 39 -31t48 -62.5t46 -31.5q83 0 191 78zM236 680q-12 -61 -9.5 -123.5t12 -123.5
t34.5 -118.5t57.5 -108.5t82 -93.5t108.5 -73t136 -47.5t164 -17q139 0 263 42.5t216 112.5t163.5 162t113 190.5t57.5 197.5q11 60 8 122.5t-12.5 123.5t-34.5 118.5t-58 108.5t-83 93.5t-109 73t-136 47.5t-165 17q-138 0 -262 -42.5t-215 -112.5t-162 -162t-112.5 -190
t-56.5 -197zM614 680q10 65 40 128t76 116.5t114 86.5t147 33q64 0 115 -21.5t82 -58t51 -84t22 -98.5t-4 -102q-10 -65 -40 -128t-76.5 -116.5t-115.5 -86t-148 -32.5q-63 0 -114 21.5t-81 58t-50 83.5t-22 98t4 102z" />
    <glyph glyph-name="Odieresis" unicode="&#xd6;" 
d="M1067 1683q8 48 -21 85.5t-96 37.5q-66 0 -106 -38t-47 -85q-7 -49 20.5 -85.5t93.5 -36.5q67 0 108 36.5t48 85.5zM236 680q-12 -61 -9.5 -123.5t12 -123.5t34.5 -118.5t57.5 -108.5t82 -93.5t108.5 -73t136 -47.5t164 -17q139 0 263 42.5t216 112.5t163.5 162
t113 190.5t57.5 197.5q11 60 8 122.5t-12.5 123.5t-34.5 118.5t-58 108.5t-83 93.5t-109 73t-136 47.5t-165 17q-138 0 -262 -42.5t-215 -112.5t-162 -162t-112.5 -190t-56.5 -197zM614 680q10 65 40 128t76 116.5t114 86.5t147 33q64 0 115 -21.5t82 -58t51 -84t22 -98.5
t-4 -102q-10 -65 -40 -128t-76.5 -116.5t-115.5 -86t-148 -32.5q-63 0 -114 21.5t-81 58t-50 83.5t-22 98t4 102zM1118 1681q-7 -48 20 -86.5t93 -38.5q67 0 108.5 37.5t49.5 87.5q7 49 -21.5 86t-95.5 37q-66 0 -106.5 -38t-47.5 -85z" />
    <glyph glyph-name="multiply" unicode="&#xd7;" horiz-adv-x="1470" 
d="M221 348l201 -252l381 336l270 -336l289 248l-277 336l381 334l-206 248l-377 -334l-275 336l-282 -250l272 -334z" />
    <glyph glyph-name="Oslash" unicode="&#xd8;" 
d="M1493 1208q95 -102 129.5 -242.5t11.5 -285.5q-16 -99 -57.5 -197.5t-113 -190.5t-163.5 -162t-216 -112.5t-263 -42.5q-38 0 -121 9l-118 -183l-279 154l105 162q-113 102 -155.5 253.5t-16.5 309.5q15 99 56.5 197t112.5 190t162 162t215 112.5t262 42.5q96 0 173 -18
l124 193l281 -154zM614 680q-19 -117 21 -211l373 575h-17q-79 0 -147 -33t-114 -86.5t-76 -116.5t-40 -128zM918 319q70 8 131 43.5t102.5 87t68.5 110.5t37 120q12 77 -4 156z" />
    <glyph glyph-name="Ugrave" unicode="&#xd9;" horiz-adv-x="1679" 
d="M928 1884l178 -323h192l-100 323h-270zM295 655q-11 -56 -9 -115t10 -117.5t30.5 -114t52 -105.5t75.5 -92t100.5 -72t127.5 -47t156 -17q131 0 247.5 42.5t201.5 111.5t151 158.5t104 182.5t53 185l111 705h-367l-110 -705q-10 -60 -36 -117.5t-67 -108t-101.5 -81.5
t-131.5 -31q-58 0 -103 20.5t-71.5 54.5t-43.5 77.5t-18 91t5 94.5l110 705h-366z" />
    <glyph glyph-name="Uacute" unicode="&#xda;" horiz-adv-x="1679" 
d="M1067 1550l285 332l-275 -8l-205 -324h195zM295 655q-11 -56 -9 -115t10 -117.5t30.5 -114t52 -105.5t75.5 -92t100.5 -72t127.5 -47t156 -17q131 0 247.5 42.5t201.5 111.5t151 158.5t104 182.5t53 185l111 705h-367l-110 -705q-10 -60 -36 -117.5t-67 -108
t-101.5 -81.5t-131.5 -31q-58 0 -103 20.5t-71.5 54.5t-43.5 77.5t-18 91t5 94.5l110 705h-366z" />
    <glyph glyph-name="Ucircumflex" unicode="&#xdb;" horiz-adv-x="1679" 
d="M1335 1556l-100 320h-197l-202 -320h196l74 109l31 -109h198zM295 655q-11 -56 -9 -115t10 -117.5t30.5 -114t52 -105.5t75.5 -92t100.5 -72t127.5 -47t156 -17q131 0 247.5 42.5t201.5 111.5t151 158.5t104 182.5t53 185l111 705h-367l-110 -705q-10 -60 -36 -117.5
t-67 -108t-101.5 -81.5t-131.5 -31q-58 0 -103 20.5t-71.5 54.5t-43.5 77.5t-18 91t5 94.5l110 705h-366z" />
    <glyph glyph-name="Udieresis" unicode="&#xdc;" horiz-adv-x="1679" 
d="M1081 1683q8 48 -20.5 85.5t-95.5 37.5q-66 0 -106.5 -38.5t-47.5 -84.5q-7 -49 21 -85.5t94 -36.5q67 0 107.5 36.5t47.5 85.5zM295 655q-11 -56 -9 -115t10 -117.5t30.5 -114t52 -105.5t75.5 -92t100.5 -72t127.5 -47t156 -17q131 0 247.5 42.5t201.5 111.5t151 158.5
t104 182.5t53 185l111 705h-367l-110 -705q-10 -60 -36 -117.5t-67 -108t-101.5 -81.5t-131.5 -31q-58 0 -103 20.5t-71.5 54.5t-43.5 77.5t-18 91t5 94.5l110 705h-366zM1130 1681q-7 -48 20 -86.5t93 -38.5q67 0 108.5 37.5t49.5 87.5q7 49 -21.5 86t-95.5 37
q-66 0 -106.5 -38t-47.5 -85z" />
    <glyph glyph-name="Yacute" unicode="&#xdd;" horiz-adv-x="1581" 
d="M1018 1550l285 332l-275 -8l-205 -324h195zM266 1360l418 -879l-74 -481h363l76 481l696 879h-422l-397 -512l-240 512h-420z" />
    <glyph glyph-name="germandbls" unicode="&#xdf;" horiz-adv-x="1314" 
d="M1356 944q-24 -152 -135 -252q116 -99 88 -276q-33 -214 -205.5 -327.5t-439.5 -113.5l55 342q196 0 211 99q8 54 -41.5 77t-138.5 23h-78l51 330h78q79 0 124 22.5t54 75.5q9 54 -34 77t-126 23q-94 0 -139 -27.5t-51 -96.5l-2 -27h-2l-211 -1333h-381l219 1384
q34 211 196.5 325.5t423.5 114.5q263 0 390.5 -114.5t93.5 -325.5z" />
    <glyph glyph-name="agrave" unicode="&#xe0;" horiz-adv-x="1697" 
d="M938 1884l178 -323h191l-99 323h-270zM76 0h389l176 322h512l76 -322h393l-330 1360h-454zM819 649l178 316l82 -316h-260z" />
    <glyph glyph-name="aacute" unicode="&#xe1;" horiz-adv-x="1697" 
d="M1075 1550l285 332l-275 -8l-202 -324h192zM76 0h389l176 322h512l76 -322h393l-330 1360h-454zM819 649l178 316l82 -316h-260z" />
    <glyph glyph-name="acircumflex" unicode="&#xe2;" horiz-adv-x="1697" 
d="M1346 1556l-103 320h-194l-205 -320h198l72 109l33 -109h199zM76 0h389l176 322h512l76 -322h393l-330 1360h-454zM819 649l178 316l82 -316h-260z" />
    <glyph glyph-name="atilde" unicode="&#xe3;" horiz-adv-x="1697" 
d="M76 0h389l176 322h512l76 -322h393l-330 1360h-454zM819 649l178 316l82 -316h-260z" />
    <glyph glyph-name="adieresis" unicode="&#xe4;" horiz-adv-x="1697" 
d="M1090 1683q8 48 -21 85.5t-96 37.5q-66 0 -106.5 -38.5t-47.5 -84.5q-7 -49 21 -85.5t94 -36.5q67 0 108 36.5t48 85.5zM76 0h389l176 322h512l76 -322h393l-330 1360h-454zM819 649l178 316l82 -316h-260zM1141 1681q-7 -49 19.5 -87t92.5 -38q67 0 108.5 37.5
t49.5 87.5q7 49 -21.5 86t-95.5 37q-66 0 -106 -37.5t-47 -85.5z" />
    <glyph glyph-name="aring" unicode="&#xe5;" horiz-adv-x="1697" 
d="M971 1710q-4 -24 0.5 -48.5t17.5 -47.5t41 -37t68 -14q74 0 117.5 46t52.5 101q9 54 -21 98.5t-104 44.5q-75 0 -119 -44.5t-53 -98.5zM76 0h389l176 322h512l76 -322h393l-330 1360h-454zM819 649l178 316l82 -316h-260zM1104 1710q3 19 20 19q12 0 9 -19
q-1 -12 -4.5 -15t-10.5 -3q-10 0 -12.5 2.5t-1.5 15.5z" />
    <glyph glyph-name="ae" unicode="&#xe6;" horiz-adv-x="2334" 
d="M2071 846l-52 -330h-712l-31 -188h958l-51 -328h-1325l51 322h-233l-176 -322h-389l761 1360h1526l-51 -330h-958l-31 -184h713zM854 649h107l43 269z" />
    <glyph glyph-name="ccedilla" unicode="&#xe7;" 
d="M1243 618h381l-8 -26q-30 -105 -87.5 -202.5t-140.5 -183t-199 -145t-249 -77.5l-8 -23q120 -37 102 -170q-13 -83 -80.5 -144t-175.5 -61q-82 0 -133.5 43t-73.5 105q-2 6 -8.5 41.5t-5.5 36.5l166 -2q46 -58 76 -58q51 0 57 33q6 28 -15 41.5t-51 12.5t-58 -1.5
t-38 0.5l6 10q31 48 74 129q-92 5 -171 30.5t-137 65.5t-104.5 93t-73.5 114t-44.5 128t-17 135.5t9.5 136.5q15 99 56.5 197t112.5 190t162 162t215 112.5t262 42.5q127 0 230.5 -35.5t172.5 -94.5t115 -139t65.5 -166.5t17.5 -178.5l-3 -27h-380v21q-3 116 -73 198
t-198 82q-79 0 -147 -33t-114 -86.5t-76 -116.5t-40 -128q-6 -51 -4 -102t22 -98t50 -83.5t81 -58t114 -21.5q128 0 223 82t135 199z" />
    <glyph glyph-name="egrave" unicode="&#xe8;" horiz-adv-x="1667" 
d="M922 1884l178 -323h192l-100 323h-270zM190 0h1326l51 328h-959l31 188h713l51 330h-713l31 184h958l52 330h-1325z" />
    <glyph glyph-name="eacute" unicode="&#xe9;" horiz-adv-x="1667" 
d="M1061 1550l285 332l-275 -8l-205 -324h195zM190 0h1326l51 328h-959l31 188h713l51 330h-713l31 184h958l52 330h-1325z" />
    <glyph glyph-name="ecircumflex" unicode="&#xea;" horiz-adv-x="1667" 
d="M1329 1556l-100 320h-197l-203 -320h197l74 109l30 -109h199zM190 0h1326l51 328h-959l31 188h713l51 330h-713l31 184h958l52 330h-1325z" />
    <glyph glyph-name="edieresis" unicode="&#xeb;" horiz-adv-x="1667" 
d="M1075 1683q8 48 -21 85.5t-96 37.5q-66 0 -106 -38t-47 -85q-7 -49 21 -85.5t94 -36.5q67 0 107.5 36.5t47.5 85.5zM190 0h1326l51 328h-959l31 188h713l51 330h-713l31 184h958l52 330h-1325zM1124 1681q-7 -48 20 -86.5t93 -38.5q67 0 108.5 37.5t49.5 87.5
q7 49 -21.5 86t-95.5 37q-66 0 -106.5 -38t-47.5 -85z" />
    <glyph glyph-name="igrave" unicode="&#xec;" horiz-adv-x="745" 
d="M461 1884l178 -323h192l-100 323h-270zM190 0h367l215 1360h-366z" />
    <glyph glyph-name="iacute" unicode="&#xed;" horiz-adv-x="745" 
d="M600 1550l285 332l-275 -8l-204 -324h194zM190 0h367l215 1360h-366z" />
    <glyph glyph-name="icircumflex" unicode="&#xee;" horiz-adv-x="745" 
d="M868 1556l-100 320h-197l-202 -320h196l74 109l31 -109h198zM190 0h367l215 1360h-366z" />
    <glyph glyph-name="idieresis" unicode="&#xef;" horiz-adv-x="745" 
d="M614 1683q8 48 -20.5 85.5t-95.5 37.5q-66 0 -106.5 -38.5t-47.5 -84.5q-7 -49 21 -85.5t94 -36.5q67 0 107.5 36.5t47.5 85.5zM190 0h367l215 1360h-366zM664 1681q-7 -49 19.5 -87t92.5 -38q67 0 108.5 37.5t49.5 87.5q7 49 -21.5 86t-95.5 37q-66 0 -106 -37.5
t-47 -85.5z" />
    <glyph glyph-name="ntilde" unicode="&#xf1;" horiz-adv-x="1730" 
d="M1389 1667l28 178l-114 -78q-47 -30 -80 -30q-14 0 -27 17.5t-24 38.5t-35.5 38.5t-57.5 17.5q-54 0 -106 -30q-15 -8 -82 -56l-4 -4l-33 -192l51 43q50 43 76 61q58 39 80 39q16 0 39 -31t48 -62.5t46 -31.5q82 0 190 78zM190 0h367l121 766l549 -766h315l215 1360h-368
l-121 -764l-551 764h-311z" />
    <glyph glyph-name="ograve" unicode="&#xf2;" 
d="M915 1884l179 -323h190l-98 323h-271zM236 680q-12 -61 -9.5 -123.5t12 -123.5t34.5 -118.5t57.5 -108.5t82 -93.5t108.5 -73t136 -47.5t164 -17q139 0 263 42.5t216 112.5t163.5 162t113 190.5t57.5 197.5q11 60 8 122.5t-12.5 123.5t-34.5 118.5t-58 108.5t-83 93.5
t-109 73t-136 47.5t-165 17q-138 0 -262 -42.5t-215 -112.5t-162 -162t-112.5 -190t-56.5 -197zM614 680q10 65 40 128t76 116.5t114 86.5t147 33q64 0 115 -21.5t82 -58t51 -84t22 -98.5t-4 -102q-10 -65 -40 -128t-76.5 -116.5t-115.5 -86t-148 -32.5q-63 0 -114 21.5
t-81 58t-50 83.5t-22 98t4 102z" />
    <glyph glyph-name="oacute" unicode="&#xf3;" 
d="M1053 1550l284 332l-274 -8l-203 -324h193zM236 680q-12 -61 -9.5 -123.5t12 -123.5t34.5 -118.5t57.5 -108.5t82 -93.5t108.5 -73t136 -47.5t164 -17q139 0 263 42.5t216 112.5t163.5 162t113 190.5t57.5 197.5q11 60 8 122.5t-12.5 123.5t-34.5 118.5t-58 108.5
t-83 93.5t-109 73t-136 47.5t-165 17q-138 0 -262 -42.5t-215 -112.5t-162 -162t-112.5 -190t-56.5 -197zM614 680q10 65 40 128t76 116.5t114 86.5t147 33q64 0 115 -21.5t82 -58t51 -84t22 -98.5t-4 -102q-10 -65 -40 -128t-76.5 -116.5t-115.5 -86t-148 -32.5
q-63 0 -114 21.5t-81 58t-50 83.5t-22 98t4 102z" />
    <glyph glyph-name="ocircumflex" unicode="&#xf4;" 
d="M1323 1556l-102 320h-195l-205 -320h199l72 109l32 -109h199zM236 680q-12 -61 -9.5 -123.5t12 -123.5t34.5 -118.5t57.5 -108.5t82 -93.5t108.5 -73t136 -47.5t164 -17q139 0 263 42.5t216 112.5t163.5 162t113 190.5t57.5 197.5q11 60 8 122.5t-12.5 123.5t-34.5 118.5
t-58 108.5t-83 93.5t-109 73t-136 47.5t-165 17q-138 0 -262 -42.5t-215 -112.5t-162 -162t-112.5 -190t-56.5 -197zM614 680q10 65 40 128t76 116.5t114 86.5t147 33q64 0 115 -21.5t82 -58t51 -84t22 -98.5t-4 -102q-10 -65 -40 -128t-76.5 -116.5t-115.5 -86t-148 -32.5
q-63 0 -114 21.5t-81 58t-50 83.5t-22 98t4 102z" />
    <glyph glyph-name="otilde" unicode="&#xf5;" 
d="M1350 1667l28 178l-114 -78q-46 -30 -80 -30q-14 0 -27 17.5t-24 38.5t-35.5 38.5t-57.5 17.5q-54 0 -106 -30q-15 -8 -82 -56l-4 -4l-33 -192l51 43q50 43 76 61q58 39 80 39q16 0 39 -31t48 -62.5t46 -31.5q83 0 191 78zM236 680q-12 -61 -9.5 -123.5t12 -123.5
t34.5 -118.5t57.5 -108.5t82 -93.5t108.5 -73t136 -47.5t164 -17q139 0 263 42.5t216 112.5t163.5 162t113 190.5t57.5 197.5q11 60 8 122.5t-12.5 123.5t-34.5 118.5t-58 108.5t-83 93.5t-109 73t-136 47.5t-165 17q-138 0 -262 -42.5t-215 -112.5t-162 -162t-112.5 -190
t-56.5 -197zM614 680q10 65 40 128t76 116.5t114 86.5t147 33q64 0 115 -21.5t82 -58t51 -84t22 -98.5t-4 -102q-10 -65 -40 -128t-76.5 -116.5t-115.5 -86t-148 -32.5q-63 0 -114 21.5t-81 58t-50 83.5t-22 98t4 102z" />
    <glyph glyph-name="odieresis" unicode="&#xf6;" 
d="M1067 1683q8 48 -21 85.5t-96 37.5q-66 0 -106 -38t-47 -85q-7 -49 20.5 -85.5t93.5 -36.5q67 0 108 36.5t48 85.5zM236 680q-12 -61 -9.5 -123.5t12 -123.5t34.5 -118.5t57.5 -108.5t82 -93.5t108.5 -73t136 -47.5t164 -17q139 0 263 42.5t216 112.5t163.5 162
t113 190.5t57.5 197.5q11 60 8 122.5t-12.5 123.5t-34.5 118.5t-58 108.5t-83 93.5t-109 73t-136 47.5t-165 17q-138 0 -262 -42.5t-215 -112.5t-162 -162t-112.5 -190t-56.5 -197zM614 680q10 65 40 128t76 116.5t114 86.5t147 33q64 0 115 -21.5t82 -58t51 -84t22 -98.5
t-4 -102q-10 -65 -40 -128t-76.5 -116.5t-115.5 -86t-148 -32.5q-63 0 -114 21.5t-81 58t-50 83.5t-22 98t4 102zM1118 1681q-7 -48 20 -86.5t93 -38.5q67 0 108.5 37.5t49.5 87.5q7 49 -21.5 86t-95.5 37q-66 0 -106.5 -38t-47.5 -85z" />
    <glyph glyph-name="divide" unicode="&#xf7;" horiz-adv-x="1482" 
d="M944 1284q-98 0 -162.5 -64t-74.5 -139q-5 -34 2 -68.5t26.5 -64.5t57.5 -48.5t88 -18.5q99 0 164 62.5t77 137.5q6 47 -8.5 92t-58.5 78t-111 33zM272 516h1104l51 330h-1103zM580 283q-7 -47 7 -92t57.5 -78t109.5 -33q99 0 164 63.5t77 139.5q5 34 -2.5 68t-27.5 64
t-58.5 49t-89.5 19q-98 0 -161.5 -62.5t-75.5 -137.5z" />
    <glyph glyph-name="oslash" unicode="&#xf8;" 
d="M1493 1208q95 -102 129.5 -242.5t11.5 -285.5q-16 -99 -57.5 -197.5t-113 -190.5t-163.5 -162t-216 -112.5t-263 -42.5q-38 0 -121 9l-118 -183l-279 154l105 162q-113 102 -155.5 253.5t-16.5 309.5q15 99 56.5 197t112.5 190t162 162t215 112.5t262 42.5q96 0 173 -18
l124 193l281 -154zM614 680q-19 -117 21 -211l373 575h-17q-79 0 -147 -33t-114 -86.5t-76 -116.5t-40 -128zM918 319q70 8 131 43.5t102.5 87t68.5 110.5t37 120q12 77 -4 156z" />
    <glyph glyph-name="ugrave" unicode="&#xf9;" horiz-adv-x="1679" 
d="M928 1884l178 -323h192l-100 323h-270zM295 655q-11 -56 -9 -115t10 -117.5t30.5 -114t52 -105.5t75.5 -92t100.5 -72t127.5 -47t156 -17q131 0 247.5 42.5t201.5 111.5t151 158.5t104 182.5t53 185l111 705h-367l-110 -705q-10 -60 -36 -117.5t-67 -108t-101.5 -81.5
t-131.5 -31q-58 0 -103 20.5t-71.5 54.5t-43.5 77.5t-18 91t5 94.5l110 705h-366z" />
    <glyph glyph-name="uacute" unicode="&#xfa;" horiz-adv-x="1679" 
d="M1067 1550l285 332l-275 -8l-205 -324h195zM295 655q-11 -56 -9 -115t10 -117.5t30.5 -114t52 -105.5t75.5 -92t100.5 -72t127.5 -47t156 -17q131 0 247.5 42.5t201.5 111.5t151 158.5t104 182.5t53 185l111 705h-367l-110 -705q-10 -60 -36 -117.5t-67 -108
t-101.5 -81.5t-131.5 -31q-58 0 -103 20.5t-71.5 54.5t-43.5 77.5t-18 91t5 94.5l110 705h-366z" />
    <glyph glyph-name="ucircumflex" unicode="&#xfb;" horiz-adv-x="1679" 
d="M1335 1556l-100 320h-197l-202 -320h196l74 109l31 -109h198zM295 655q-11 -56 -9 -115t10 -117.5t30.5 -114t52 -105.5t75.5 -92t100.5 -72t127.5 -47t156 -17q131 0 247.5 42.5t201.5 111.5t151 158.5t104 182.5t53 185l111 705h-367l-110 -705q-10 -60 -36 -117.5
t-67 -108t-101.5 -81.5t-131.5 -31q-58 0 -103 20.5t-71.5 54.5t-43.5 77.5t-18 91t5 94.5l110 705h-366z" />
    <glyph glyph-name="udieresis" unicode="&#xfc;" horiz-adv-x="1679" 
d="M1081 1683q8 48 -20.5 85.5t-95.5 37.5q-66 0 -106.5 -38.5t-47.5 -84.5q-7 -49 21 -85.5t94 -36.5q67 0 107.5 36.5t47.5 85.5zM295 655q-11 -56 -9 -115t10 -117.5t30.5 -114t52 -105.5t75.5 -92t100.5 -72t127.5 -47t156 -17q131 0 247.5 42.5t201.5 111.5t151 158.5
t104 182.5t53 185l111 705h-367l-110 -705q-10 -60 -36 -117.5t-67 -108t-101.5 -81.5t-131.5 -31q-58 0 -103 20.5t-71.5 54.5t-43.5 77.5t-18 91t5 94.5l110 705h-366zM1130 1681q-7 -48 20 -86.5t93 -38.5q67 0 108.5 37.5t49.5 87.5q7 49 -21.5 86t-95.5 37
q-66 0 -106.5 -38t-47.5 -85z" />
    <glyph glyph-name="yacute" unicode="&#xfd;" horiz-adv-x="1581" 
d="M1018 1550l285 332l-275 -8l-205 -324h195zM266 1360l418 -879l-74 -481h363l76 481l696 879h-422l-397 -512l-240 512h-420z" />
    <glyph glyph-name="ydieresis" unicode="&#xff;" horiz-adv-x="1581" 
d="M1032 1683q8 48 -21 85.5t-96 37.5q-66 0 -106 -38t-47 -85q-7 -49 21 -85.5t94 -36.5q67 0 107.5 36.5t47.5 85.5zM266 1360l418 -879l-74 -481h363l76 481l696 879h-422l-397 -512l-240 512h-420zM1081 1681q-7 -48 20 -86.5t93 -38.5q67 0 108.5 37.5t49.5 87.5
q7 49 -21.5 86t-95.5 37q-66 0 -106.5 -38t-47.5 -85z" />
    <glyph glyph-name="Amacron" unicode="&#x100;" horiz-adv-x="1697" 
d="M872 1554h445l24 148h-444zM76 0h389l176 322h512l76 -322h393l-330 1360h-454zM819 649l178 316l82 -316h-260z" />
    <glyph glyph-name="amacron" unicode="&#x101;" horiz-adv-x="1697" 
d="M872 1554h445l24 148h-444zM76 0h389l176 322h512l76 -322h393l-330 1360h-454zM819 649l178 316l82 -316h-260z" />
    <glyph glyph-name="Cacute" unicode="&#x106;" 
d="M1053 1550l284 332l-274 -8l-203 -324h193zM236 680q-12 -61 -9.5 -123.5t12 -123.5t34.5 -118.5t57.5 -108.5t82 -93.5t108.5 -73t136 -47.5t164 -17q127 0 242 35.5t202.5 95.5t159 140t118 167t73.5 179l8 26h-381l-8 -20q-40 -117 -135 -199t-223 -82
q-63 0 -114 21.5t-81 58t-50 83.5t-22 98t4 102q10 65 40 128t76 116.5t114 86.5t147 33q128 0 198 -82t73 -198v-21h380l3 27q2 92 -17.5 178.5t-65.5 166.5t-115 139t-172.5 94.5t-230.5 35.5q-138 0 -262 -42.5t-215 -112.5t-162 -162t-112.5 -190t-56.5 -197z" />
    <glyph glyph-name="cacute" unicode="&#x107;" 
d="M1053 1550l284 332l-274 -8l-203 -324h193zM236 680q-12 -61 -9.5 -123.5t12 -123.5t34.5 -118.5t57.5 -108.5t82 -93.5t108.5 -73t136 -47.5t164 -17q127 0 242 35.5t202.5 95.5t159 140t118 167t73.5 179l8 26h-381l-8 -20q-40 -117 -135 -199t-223 -82
q-63 0 -114 21.5t-81 58t-50 83.5t-22 98t4 102q10 65 40 128t76 116.5t114 86.5t147 33q128 0 198 -82t73 -198v-21h380l3 27q2 92 -17.5 178.5t-65.5 166.5t-115 139t-172.5 94.5t-230.5 35.5q-138 0 -262 -42.5t-215 -112.5t-162 -162t-112.5 -190t-56.5 -197z" />
    <glyph glyph-name="Ccircumflex" unicode="&#x108;" 
d="M1323 1556l-102 320h-195l-205 -320h199l72 109l32 -109h199zM236 680q-12 -61 -9.5 -123.5t12 -123.5t34.5 -118.5t57.5 -108.5t82 -93.5t108.5 -73t136 -47.5t164 -17q127 0 242 35.5t202.5 95.5t159 140t118 167t73.5 179l8 26h-381l-8 -20q-40 -117 -135 -199
t-223 -82q-63 0 -114 21.5t-81 58t-50 83.5t-22 98t4 102q10 65 40 128t76 116.5t114 86.5t147 33q128 0 198 -82t73 -198v-21h380l3 27q2 92 -17.5 178.5t-65.5 166.5t-115 139t-172.5 94.5t-230.5 35.5q-138 0 -262 -42.5t-215 -112.5t-162 -162t-112.5 -190t-56.5 -197z
" />
    <glyph glyph-name="ccircumflex" unicode="&#x109;" 
d="M1323 1556l-102 320h-195l-205 -320h199l72 109l32 -109h199zM236 680q-12 -61 -9.5 -123.5t12 -123.5t34.5 -118.5t57.5 -108.5t82 -93.5t108.5 -73t136 -47.5t164 -17q127 0 242 35.5t202.5 95.5t159 140t118 167t73.5 179l8 26h-381l-8 -20q-40 -117 -135 -199
t-223 -82q-63 0 -114 21.5t-81 58t-50 83.5t-22 98t4 102q10 65 40 128t76 116.5t114 86.5t147 33q128 0 198 -82t73 -198v-21h380l3 27q2 92 -17.5 178.5t-65.5 166.5t-115 139t-172.5 94.5t-230.5 35.5q-138 0 -262 -42.5t-215 -112.5t-162 -162t-112.5 -190t-56.5 -197z
" />
    <glyph glyph-name="Cdotaccent" unicode="&#x10a;" 
d="M1229 1694q7 49 -21 87t-94 38q-67 0 -106.5 -38.5t-46.5 -86.5q-7 -49 19 -87t93 -38t108 38.5t48 86.5zM236 680q-12 -61 -9.5 -123.5t12 -123.5t34.5 -118.5t57.5 -108.5t82 -93.5t108.5 -73t136 -47.5t164 -17q127 0 242 35.5t202.5 95.5t159 140t118 167t73.5 179
l8 26h-381l-8 -20q-40 -117 -135 -199t-223 -82q-63 0 -114 21.5t-81 58t-50 83.5t-22 98t4 102q10 65 40 128t76 116.5t114 86.5t147 33q128 0 198 -82t73 -198v-21h380l3 27q2 92 -17.5 178.5t-65.5 166.5t-115 139t-172.5 94.5t-230.5 35.5q-138 0 -262 -42.5
t-215 -112.5t-162 -162t-112.5 -190t-56.5 -197z" />
    <glyph glyph-name="cdotaccent" unicode="&#x10b;" 
d="M1229 1694q7 49 -21 87t-94 38q-67 0 -106.5 -38.5t-46.5 -86.5q-7 -49 19 -87t93 -38t108 38.5t48 86.5zM236 680q-12 -61 -9.5 -123.5t12 -123.5t34.5 -118.5t57.5 -108.5t82 -93.5t108.5 -73t136 -47.5t164 -17q127 0 242 35.5t202.5 95.5t159 140t118 167t73.5 179
l8 26h-381l-8 -20q-40 -117 -135 -199t-223 -82q-63 0 -114 21.5t-81 58t-50 83.5t-22 98t4 102q10 65 40 128t76 116.5t114 86.5t147 33q128 0 198 -82t73 -198v-21h380l3 27q2 92 -17.5 178.5t-65.5 166.5t-115 139t-172.5 94.5t-230.5 35.5q-138 0 -262 -42.5
t-215 -112.5t-162 -162t-112.5 -190t-56.5 -197z" />
    <glyph glyph-name="Ccaron" unicode="&#x10c;" 
d="M1171 1565l205 319h-198l-70 -108l-35 108h-199l103 -319h194zM236 680q-12 -61 -9.5 -123.5t12 -123.5t34.5 -118.5t57.5 -108.5t82 -93.5t108.5 -73t136 -47.5t164 -17q127 0 242 35.5t202.5 95.5t159 140t118 167t73.5 179l8 26h-381l-8 -20q-40 -117 -135 -199
t-223 -82q-63 0 -114 21.5t-81 58t-50 83.5t-22 98t4 102q10 65 40 128t76 116.5t114 86.5t147 33q128 0 198 -82t73 -198v-21h380l3 27q2 92 -17.5 178.5t-65.5 166.5t-115 139t-172.5 94.5t-230.5 35.5q-138 0 -262 -42.5t-215 -112.5t-162 -162t-112.5 -190t-56.5 -197z
" />
    <glyph glyph-name="ccaron" unicode="&#x10d;" 
d="M1171 1565l205 319h-198l-70 -108l-35 108h-199l103 -319h194zM236 680q-12 -61 -9.5 -123.5t12 -123.5t34.5 -118.5t57.5 -108.5t82 -93.5t108.5 -73t136 -47.5t164 -17q127 0 242 35.5t202.5 95.5t159 140t118 167t73.5 179l8 26h-381l-8 -20q-40 -117 -135 -199
t-223 -82q-63 0 -114 21.5t-81 58t-50 83.5t-22 98t4 102q10 65 40 128t76 116.5t114 86.5t147 33q128 0 198 -82t73 -198v-21h380l3 27q2 92 -17.5 178.5t-65.5 166.5t-115 139t-172.5 94.5t-230.5 35.5q-138 0 -262 -42.5t-215 -112.5t-162 -162t-112.5 -190t-56.5 -197z
" />
    <glyph glyph-name="Emacron" unicode="&#x112;" horiz-adv-x="1667" 
d="M858 1554h442l25 148h-442zM190 0h1326l51 328h-959l31 188h713l51 330h-713l31 184h958l52 330h-1325z" />
    <glyph glyph-name="emacron" unicode="&#x113;" horiz-adv-x="1667" 
d="M858 1554h442l25 148h-442zM190 0h1326l51 328h-959l31 188h713l51 330h-713l31 184h958l52 330h-1325z" />
    <glyph glyph-name="Edotaccent" unicode="&#x116;" horiz-adv-x="1667" 
d="M1237 1694q7 49 -22 87t-95 38t-106 -38.5t-47 -86.5q-7 -49 19.5 -87t92.5 -38q67 0 109 38.5t49 86.5zM190 0h1326l51 328h-959l31 188h713l51 330h-713l31 184h958l52 330h-1325z" />
    <glyph glyph-name="edotaccent" unicode="&#x117;" horiz-adv-x="1667" 
d="M1237 1694q7 49 -22 87t-95 38t-106 -38.5t-47 -86.5q-7 -49 19.5 -87t92.5 -38q67 0 109 38.5t49 86.5zM190 0h1326l51 328h-959l31 188h713l51 330h-713l31 184h958l52 330h-1325z" />
    <glyph glyph-name="Ecaron" unicode="&#x11a;" horiz-adv-x="1667" 
d="M1180 1565l202 319h-198l-68 -108l-37 108h-196l100 -319h197zM190 0h1326l51 328h-959l31 188h713l51 330h-713l31 184h958l52 330h-1325z" />
    <glyph glyph-name="ecaron" unicode="&#x11b;" horiz-adv-x="1667" 
d="M1180 1565l202 319h-198l-68 -108l-37 108h-196l100 -319h197zM190 0h1326l51 328h-959l31 188h713l51 330h-713l31 184h958l52 330h-1325z" />
    <glyph glyph-name="Gcircumflex" unicode="&#x11c;" 
d="M1323 1556l-102 320h-195l-205 -320h199l72 109l32 -109h199zM236 680q-12 -61 -9.5 -123.5t12 -123.5t34.5 -118.5t57.5 -108.5t82 -93.5t108.5 -73t136 -47.5t164 -17q139 0 263.5 42.5t216 112.5t163 162t113 190t57.5 198q8 57 8 131l-2 20h-743l-51 -327h344
q-53 -83 -134 -135t-179 -52q-63 0 -114 21.5t-81 58t-50 83.5t-22 98t4 102q10 65 40 128t76 116.5t114 86.5t147 33q85 0 149.5 -41t94.5 -108l6 -14l406 6l-9 31q-4 12 -8 36q-23 90 -70 166t-118.5 136t-173.5 94t-224 34q-138 0 -262 -42.5t-215 -112.5t-162 -162
t-112.5 -190t-56.5 -197z" />
    <glyph glyph-name="gcircumflex" unicode="&#x11d;" 
d="M1323 1556l-102 320h-195l-205 -320h199l72 109l32 -109h199zM236 680q-12 -61 -9.5 -123.5t12 -123.5t34.5 -118.5t57.5 -108.5t82 -93.5t108.5 -73t136 -47.5t164 -17q139 0 263.5 42.5t216 112.5t163 162t113 190t57.5 198q8 57 8 131l-2 20h-743l-51 -327h344
q-53 -83 -134 -135t-179 -52q-63 0 -114 21.5t-81 58t-50 83.5t-22 98t4 102q10 65 40 128t76 116.5t114 86.5t147 33q85 0 149.5 -41t94.5 -108l6 -14l406 6l-9 31q-4 12 -8 36q-23 90 -70 166t-118.5 136t-173.5 94t-224 34q-138 0 -262 -42.5t-215 -112.5t-162 -162
t-112.5 -190t-56.5 -197z" />
    <glyph glyph-name="Gdotaccent" unicode="&#x120;" 
d="M1229 1694q7 49 -21 87t-94 38q-67 0 -106.5 -38.5t-46.5 -86.5q-7 -49 19 -87t93 -38t108 38.5t48 86.5zM236 680q-12 -61 -9.5 -123.5t12 -123.5t34.5 -118.5t57.5 -108.5t82 -93.5t108.5 -73t136 -47.5t164 -17q139 0 263.5 42.5t216 112.5t163 162t113 190t57.5 198
q8 57 8 131l-2 20h-743l-51 -327h344q-53 -83 -134 -135t-179 -52q-63 0 -114 21.5t-81 58t-50 83.5t-22 98t4 102q10 65 40 128t76 116.5t114 86.5t147 33q85 0 149.5 -41t94.5 -108l6 -14l406 6l-9 31q-4 12 -8 36q-23 90 -70 166t-118.5 136t-173.5 94t-224 34
q-138 0 -262 -42.5t-215 -112.5t-162 -162t-112.5 -190t-56.5 -197z" />
    <glyph glyph-name="gdotaccent" unicode="&#x121;" 
d="M1229 1694q7 49 -21 87t-94 38q-67 0 -106.5 -38.5t-46.5 -86.5q-7 -49 19 -87t93 -38t108 38.5t48 86.5zM236 680q-12 -61 -9.5 -123.5t12 -123.5t34.5 -118.5t57.5 -108.5t82 -93.5t108.5 -73t136 -47.5t164 -17q139 0 263.5 42.5t216 112.5t163 162t113 190t57.5 198
q8 57 8 131l-2 20h-743l-51 -327h344q-53 -83 -134 -135t-179 -52q-63 0 -114 21.5t-81 58t-50 83.5t-22 98t4 102q10 65 40 128t76 116.5t114 86.5t147 33q85 0 149.5 -41t94.5 -108l6 -14l406 6l-9 31q-4 12 -8 36q-23 90 -70 166t-118.5 136t-173.5 94t-224 34
q-138 0 -262 -42.5t-215 -112.5t-162 -162t-112.5 -190t-56.5 -197z" />
    <glyph glyph-name="Hcircumflex" unicode="&#x124;" horiz-adv-x="1730" 
d="M1362 1556l-102 320h-195l-205 -320h199l71 109l33 -109h199zM190 0h367l82 516h616l-81 -516h368l215 1360h-368l-82 -514h-617l82 514h-366z" />
    <glyph glyph-name="hcircumflex" unicode="&#x125;" horiz-adv-x="1730" 
d="M1362 1556l-102 320h-195l-205 -320h199l71 109l33 -109h199zM190 0h367l82 516h616l-81 -516h368l215 1360h-368l-82 -514h-617l82 514h-366z" />
    <glyph glyph-name="Itilde" unicode="&#x128;" horiz-adv-x="745" 
d="M895 1667l29 178l-113 -78q-47 -30 -82 -30q-13 0 -26 17.5t-23.5 38.5t-35 38.5t-58.5 17.5q-57 0 -105 -30q-15 -7 -28.5 -16t-30.5 -22.5t-23 -17.5l-4 -4l-33 -192l50 43q52 45 77 61q55 39 80 39q15 0 37.5 -31t48 -62.5t47.5 -31.5q86 0 189 78zM190 0h367
l215 1360h-366z" />
    <glyph glyph-name="itilde" unicode="&#x129;" horiz-adv-x="745" 
d="M895 1667l29 178l-113 -78q-47 -30 -82 -30q-13 0 -26 17.5t-23.5 38.5t-35 38.5t-58.5 17.5q-57 0 -105 -30q-15 -7 -28.5 -16t-30.5 -22.5t-23 -17.5l-4 -4l-33 -192l50 43q52 45 77 61q55 39 80 39q15 0 37.5 -31t48 -62.5t47.5 -31.5q86 0 189 78zM190 0h367
l215 1360h-366z" />
    <glyph glyph-name="Imacron" unicode="&#x12a;" horiz-adv-x="745" 
d="M397 1554h443l24 148h-442zM190 0h367l215 1360h-366z" />
    <glyph glyph-name="imacron" unicode="&#x12b;" horiz-adv-x="745" 
d="M397 1554h443l24 148h-442zM190 0h367l215 1360h-366z" />
    <glyph glyph-name="dotlessi" unicode="&#x131;" horiz-adv-x="745" 
d="M406 1360l-216 -1360h367l215 1360h-366z" />
    <glyph glyph-name="Lacute" unicode="&#x139;" horiz-adv-x="1396" 
d="M926 1550l284 332l-274 -8l-205 -324h195zM190 0h1104l52 328h-738l164 1032h-366z" />
    <glyph glyph-name="lacute" unicode="&#x13a;" horiz-adv-x="1396" 
d="M926 1550l284 332l-274 -8l-205 -324h195zM190 0h1104l52 328h-738l164 1032h-366z" />
    <glyph glyph-name="Nacute" unicode="&#x143;" horiz-adv-x="1730" 
d="M1092 1550l284 332l-274 -8l-203 -324h193zM190 0h367l121 766l549 -766h315l215 1360h-368l-121 -764l-551 764h-311z" />
    <glyph glyph-name="nacute" unicode="&#x144;" horiz-adv-x="1730" 
d="M1092 1550l284 332l-274 -8l-203 -324h193zM190 0h367l121 766l549 -766h315l215 1360h-368l-121 -764l-551 764h-311z" />
    <glyph glyph-name="Ncaron" unicode="&#x147;" horiz-adv-x="1730" 
d="M1210 1565l205 319h-198l-70 -108l-35 108h-199l103 -319h194zM190 0h367l121 766l549 -766h315l215 1360h-368l-121 -764l-551 764h-311z" />
    <glyph glyph-name="ncaron" unicode="&#x148;" horiz-adv-x="1730" 
d="M1210 1565l205 319h-198l-70 -108l-35 108h-199l103 -319h194zM190 0h367l121 766l549 -766h315l215 1360h-368l-121 -764l-551 764h-311z" />
    <glyph glyph-name="Omacron" unicode="&#x14c;" 
d="M850 1554h444l25 148h-445zM236 680q-12 -61 -9.5 -123.5t12 -123.5t34.5 -118.5t57.5 -108.5t82 -93.5t108.5 -73t136 -47.5t164 -17q139 0 263 42.5t216 112.5t163.5 162t113 190.5t57.5 197.5q11 60 8 122.5t-12.5 123.5t-34.5 118.5t-58 108.5t-83 93.5t-109 73
t-136 47.5t-165 17q-138 0 -262 -42.5t-215 -112.5t-162 -162t-112.5 -190t-56.5 -197zM614 680q10 65 40 128t76 116.5t114 86.5t147 33q64 0 115 -21.5t82 -58t51 -84t22 -98.5t-4 -102q-10 -65 -40 -128t-76.5 -116.5t-115.5 -86t-148 -32.5q-63 0 -114 21.5t-81 58
t-50 83.5t-22 98t4 102z" />
    <glyph glyph-name="omacron" unicode="&#x14d;" 
d="M850 1554h444l25 148h-445zM236 680q-12 -61 -9.5 -123.5t12 -123.5t34.5 -118.5t57.5 -108.5t82 -93.5t108.5 -73t136 -47.5t164 -17q139 0 263 42.5t216 112.5t163.5 162t113 190.5t57.5 197.5q11 60 8 122.5t-12.5 123.5t-34.5 118.5t-58 108.5t-83 93.5t-109 73
t-136 47.5t-165 17q-138 0 -262 -42.5t-215 -112.5t-162 -162t-112.5 -190t-56.5 -197zM614 680q10 65 40 128t76 116.5t114 86.5t147 33q64 0 115 -21.5t82 -58t51 -84t22 -98.5t-4 -102q-10 -65 -40 -128t-76.5 -116.5t-115.5 -86t-148 -32.5q-63 0 -114 21.5t-81 58
t-50 83.5t-22 98t4 102z" />
    <glyph glyph-name="OE" unicode="&#x152;" horiz-adv-x="2629" 
d="M2367 846l-51 -330h-712l-31 -188h958l-51 -328h-1325l8 49q-157 -74 -342 -74q-87 0 -164 17t-136 47.5t-108.5 73t-82 93.5t-57.5 108.5t-34.5 118.5t-12 123.5t9.5 123.5q15 99 56.5 197t112.5 190t162 162t215 112.5t262 42.5q188 0 318 -73l8 49h1325l-51 -330h-958
l-31 -184h712zM614 680q-6 -51 -4 -102t22 -98t50 -83.5t81 -58t114 -21.5q79 0 148 32.5t115.5 86t76.5 116.5t40 128q6 51 4 102t-22 98.5t-51 84t-82 58t-115 21.5q-79 0 -147 -33t-114 -86.5t-76 -116.5t-40 -128z" />
    <glyph glyph-name="oe" unicode="&#x153;" horiz-adv-x="2629" 
d="M2367 846l-51 -330h-712l-31 -188h958l-51 -328h-1325l8 49q-157 -74 -342 -74q-87 0 -164 17t-136 47.5t-108.5 73t-82 93.5t-57.5 108.5t-34.5 118.5t-12 123.5t9.5 123.5q15 99 56.5 197t112.5 190t162 162t215 112.5t262 42.5q188 0 318 -73l8 49h1325l-51 -330h-958
l-31 -184h712zM614 680q-6 -51 -4 -102t22 -98t50 -83.5t81 -58t114 -21.5q79 0 148 32.5t115.5 86t76.5 116.5t40 128q6 51 4 102t-22 98.5t-51 84t-82 58t-115 21.5q-79 0 -147 -33t-114 -86.5t-76 -116.5t-40 -128z" />
    <glyph glyph-name="Racute" unicode="&#x154;" horiz-adv-x="1740" 
d="M1098 1550l284 332l-274 -8l-205 -324h195zM190 0h367l82 516h322l229 -516h414l-240 532q0 1 -1 2.5t-1 2.5q102 28 179.5 93.5t117.5 141.5t53 160q10 50 5.5 101.5t-16.5 99t-42 89t-70.5 72.5t-101.5 48.5t-135 17.5h-946zM690 846l31 184h579q29 0 42 -20t8 -54
l-7 -36q-5 -34 -24.5 -54t-48.5 -20h-580z" />
    <glyph glyph-name="racute" unicode="&#x155;" horiz-adv-x="1740" 
d="M1098 1550l284 332l-274 -8l-205 -324h195zM190 0h367l82 516h322l229 -516h414l-240 532q0 1 -1 2.5t-1 2.5q102 28 179.5 93.5t117.5 141.5t53 160q10 50 5.5 101.5t-16.5 99t-42 89t-70.5 72.5t-101.5 48.5t-135 17.5h-946zM690 846l31 184h579q29 0 42 -20t8 -54
l-7 -36q-5 -34 -24.5 -54t-48.5 -20h-580z" />
    <glyph glyph-name="Rcaron" unicode="&#x158;" horiz-adv-x="1740" 
d="M1217 1565l202 319h-198l-68 -108l-37 108h-196l100 -319h197zM190 0h367l82 516h322l229 -516h414l-240 532q0 1 -1 2.5t-1 2.5q102 28 179.5 93.5t117.5 141.5t53 160q10 50 5.5 101.5t-16.5 99t-42 89t-70.5 72.5t-101.5 48.5t-135 17.5h-946zM690 846l31 184h579
q29 0 42 -20t8 -54l-7 -36q-5 -34 -24.5 -54t-48.5 -20h-580z" />
    <glyph glyph-name="rcaron" unicode="&#x159;" horiz-adv-x="1740" 
d="M1217 1565l202 319h-198l-68 -108l-37 108h-196l100 -319h197zM190 0h367l82 516h322l229 -516h414l-240 532q0 1 -1 2.5t-1 2.5q102 28 179.5 93.5t117.5 141.5t53 160q10 50 5.5 101.5t-16.5 99t-42 89t-70.5 72.5t-101.5 48.5t-135 17.5h-946zM690 846l31 184h579
q29 0 42 -20t8 -54l-7 -36q-5 -34 -24.5 -54t-48.5 -20h-580z" />
    <glyph glyph-name="Sacute" unicode="&#x15a;" horiz-adv-x="1552" 
d="M1004 1550l284 332l-274 -8l-205 -324h195zM195 428q-17 -110 23 -198t122.5 -142.5t193 -83.5t238.5 -29q142 0 261.5 26t218 80t162.5 144.5t83 210.5q15 99 -6.5 174t-70 121t-127.5 74.5t-167 39.5t-200 11q-53 0 -86 2q-63 4 -92 10q-44 9 -64 26.5t-16 45.5
q8 63 96 94q76 23 180 23q65 0 119.5 -12.5t91 -41.5t29.5 -71l-8 -51h366l8 51q23 142 -48 246.5t-203 155t-304 50.5q-136 0 -251.5 -25.5t-209.5 -77.5t-154.5 -138.5t-78.5 -202.5q-15 -97 4.5 -170t66 -118.5t122 -74t161.5 -39t195 -10.5q65 0 98 -2q80 -4 131 -22
q57 -21 51 -68q-13 -73 -108 -106q-80 -27 -199 -27q-102 0 -182 29q-91 32 -82 96l8 51h-364z" />
    <glyph glyph-name="sacute" unicode="&#x15b;" horiz-adv-x="1552" 
d="M1004 1550l284 332l-274 -8l-205 -324h195zM195 428q-17 -110 23 -198t122.5 -142.5t193 -83.5t238.5 -29q142 0 261.5 26t218 80t162.5 144.5t83 210.5q15 99 -6.5 174t-70 121t-127.5 74.5t-167 39.5t-200 11q-53 0 -86 2q-63 4 -92 10q-44 9 -64 26.5t-16 45.5
q8 63 96 94q76 23 180 23q65 0 119.5 -12.5t91 -41.5t29.5 -71l-8 -51h366l8 51q23 142 -48 246.5t-203 155t-304 50.5q-136 0 -251.5 -25.5t-209.5 -77.5t-154.5 -138.5t-78.5 -202.5q-15 -97 4.5 -170t66 -118.5t122 -74t161.5 -39t195 -10.5q65 0 98 -2q80 -4 131 -22
q57 -21 51 -68q-13 -73 -108 -106q-80 -27 -199 -27q-102 0 -182 29q-91 32 -82 96l8 51h-364z" />
    <glyph glyph-name="Scircumflex" unicode="&#x15c;" horiz-adv-x="1552" 
d="M1272 1556l-101 320h-196l-203 -320h197l73 109l31 -109h199zM195 428q-17 -110 23 -198t122.5 -142.5t193 -83.5t238.5 -29q142 0 261.5 26t218 80t162.5 144.5t83 210.5q15 99 -6.5 174t-70 121t-127.5 74.5t-167 39.5t-200 11q-53 0 -86 2q-63 4 -92 10
q-44 9 -64 26.5t-16 45.5q8 63 96 94q76 23 180 23q65 0 119.5 -12.5t91 -41.5t29.5 -71l-8 -51h366l8 51q23 142 -48 246.5t-203 155t-304 50.5q-136 0 -251.5 -25.5t-209.5 -77.5t-154.5 -138.5t-78.5 -202.5q-15 -97 4.5 -170t66 -118.5t122 -74t161.5 -39t195 -10.5
q65 0 98 -2q80 -4 131 -22q57 -21 51 -68q-13 -73 -108 -106q-80 -27 -199 -27q-102 0 -182 29q-91 32 -82 96l8 51h-364z" />
    <glyph glyph-name="scircumflex" unicode="&#x15d;" horiz-adv-x="1552" 
d="M1272 1556l-101 320h-196l-203 -320h197l73 109l31 -109h199zM195 428q-17 -110 23 -198t122.5 -142.5t193 -83.5t238.5 -29q142 0 261.5 26t218 80t162.5 144.5t83 210.5q15 99 -6.5 174t-70 121t-127.5 74.5t-167 39.5t-200 11q-53 0 -86 2q-63 4 -92 10
q-44 9 -64 26.5t-16 45.5q8 63 96 94q76 23 180 23q65 0 119.5 -12.5t91 -41.5t29.5 -71l-8 -51h366l8 51q23 142 -48 246.5t-203 155t-304 50.5q-136 0 -251.5 -25.5t-209.5 -77.5t-154.5 -138.5t-78.5 -202.5q-15 -97 4.5 -170t66 -118.5t122 -74t161.5 -39t195 -10.5
q65 0 98 -2q80 -4 131 -22q57 -21 51 -68q-13 -73 -108 -106q-80 -27 -199 -27q-102 0 -182 29q-91 32 -82 96l8 51h-364z" />
    <glyph glyph-name="Scedilla" unicode="&#x15e;" horiz-adv-x="1552" 
d="M1497 436q-18 -114 -76.5 -201t-148 -141t-200 -83t-241.5 -34l-6 -16q121 -37 103 -170q-13 -83 -80 -144t-176 -61q-81 0 -132 43t-75 105q-2 6 -8.5 41.5t-5.5 36.5l165 -2q46 -58 76 -58q55 0 58 33q6 28 -15 41.5t-51 12.5t-58 -1.5t-38 0.5l6 10q20 30 74 132
q-110 11 -201.5 44.5t-158.5 88t-98 135.5t-15 180l8 51h364l-8 -51q-9 -64 82 -96q80 -29 182 -29q119 0 199 27q95 33 108 106q6 47 -51 68q-51 18 -131 22q-33 2 -98 2q-109 0 -195 10.5t-161.5 39t-122 74t-66 118.5t-4.5 170q18 116 78.5 202.5t154.5 138.5t209.5 77.5
t251.5 25.5q172 0 304 -50.5t203 -155t48 -246.5l-8 -51h-366l8 51q7 42 -29.5 71t-91 41.5t-119.5 12.5q-104 0 -180 -23q-88 -31 -96 -94q-4 -28 16 -45.5t64 -26.5q29 -6 92 -10q33 -2 86 -2q112 0 200 -11t167 -39.5t127.5 -74.5t70 -121t6.5 -174z" />
    <glyph glyph-name="scedilla" unicode="&#x15f;" horiz-adv-x="1552" 
d="M1497 436q-18 -114 -76.5 -201t-148 -141t-200 -83t-241.5 -34l-6 -16q121 -37 103 -170q-13 -83 -80 -144t-176 -61q-81 0 -132 43t-75 105q-2 6 -8.5 41.5t-5.5 36.5l165 -2q46 -58 76 -58q55 0 58 33q6 28 -15 41.5t-51 12.5t-58 -1.5t-38 0.5l6 10q20 30 74 132
q-110 11 -201.5 44.5t-158.5 88t-98 135.5t-15 180l8 51h364l-8 -51q-9 -64 82 -96q80 -29 182 -29q119 0 199 27q95 33 108 106q6 47 -51 68q-51 18 -131 22q-33 2 -98 2q-109 0 -195 10.5t-161.5 39t-122 74t-66 118.5t-4.5 170q18 116 78.5 202.5t154.5 138.5t209.5 77.5
t251.5 25.5q172 0 304 -50.5t203 -155t48 -246.5l-8 -51h-366l8 51q7 42 -29.5 71t-91 41.5t-119.5 12.5q-104 0 -180 -23q-88 -31 -96 -94q-4 -28 16 -45.5t64 -26.5q29 -6 92 -10q33 -2 86 -2q112 0 200 -11t167 -39.5t127.5 -74.5t70 -121t6.5 -174z" />
    <glyph glyph-name="Scaron" unicode="&#x160;" horiz-adv-x="1552" 
d="M1122 1565l203 319h-199l-67 -108l-37 108h-197l101 -319h196zM195 428q-17 -110 23 -198t122.5 -142.5t193 -83.5t238.5 -29q142 0 261.5 26t218 80t162.5 144.5t83 210.5q15 99 -6.5 174t-70 121t-127.5 74.5t-167 39.5t-200 11q-53 0 -86 2q-63 4 -92 10
q-44 9 -64 26.5t-16 45.5q8 63 96 94q76 23 180 23q65 0 119.5 -12.5t91 -41.5t29.5 -71l-8 -51h366l8 51q23 142 -48 246.5t-203 155t-304 50.5q-136 0 -251.5 -25.5t-209.5 -77.5t-154.5 -138.5t-78.5 -202.5q-15 -97 4.5 -170t66 -118.5t122 -74t161.5 -39t195 -10.5
q65 0 98 -2q80 -4 131 -22q57 -21 51 -68q-13 -73 -108 -106q-80 -27 -199 -27q-102 0 -182 29q-91 32 -82 96l8 51h-364z" />
    <glyph glyph-name="scaron" unicode="&#x161;" horiz-adv-x="1552" 
d="M1122 1565l203 319h-199l-67 -108l-37 108h-197l101 -319h196zM195 428q-17 -110 23 -198t122.5 -142.5t193 -83.5t238.5 -29q142 0 261.5 26t218 80t162.5 144.5t83 210.5q15 99 -6.5 174t-70 121t-127.5 74.5t-167 39.5t-200 11q-53 0 -86 2q-63 4 -92 10
q-44 9 -64 26.5t-16 45.5q8 63 96 94q76 23 180 23q65 0 119.5 -12.5t91 -41.5t29.5 -71l-8 -51h366l8 51q23 142 -48 246.5t-203 155t-304 50.5q-136 0 -251.5 -25.5t-209.5 -77.5t-154.5 -138.5t-78.5 -202.5q-15 -97 4.5 -170t66 -118.5t122 -74t161.5 -39t195 -10.5
q65 0 98 -2q80 -4 131 -22q57 -21 51 -68q-13 -73 -108 -106q-80 -27 -199 -27q-102 0 -182 29q-91 32 -82 96l8 51h-364z" />
    <glyph glyph-name="Utilde" unicode="&#x168;" horiz-adv-x="1679" 
d="M1362 1667l29 178l-113 -78q-46 -30 -82 -30q-13 0 -26 17.5t-23.5 38.5t-35 38.5t-58.5 17.5q-57 0 -105 -30q-15 -7 -28.5 -16t-30.5 -22.5t-23 -17.5l-4 -4l-33 -192l50 43q52 45 77 61q55 39 80 39q15 0 37.5 -31t48 -62.5t47.5 -31.5q86 0 189 78zM295 655
q-11 -56 -9 -115t10 -117.5t30.5 -114t52 -105.5t75.5 -92t100.5 -72t127.5 -47t156 -17q131 0 247.5 42.5t201.5 111.5t151 158.5t104 182.5t53 185l111 705h-367l-110 -705q-10 -60 -36 -117.5t-67 -108t-101.5 -81.5t-131.5 -31q-58 0 -103 20.5t-71.5 54.5t-43.5 77.5
t-18 91t5 94.5l110 705h-366z" />
    <glyph glyph-name="utilde" unicode="&#x169;" horiz-adv-x="1679" 
d="M1362 1667l29 178l-113 -78q-46 -30 -82 -30q-13 0 -26 17.5t-23.5 38.5t-35 38.5t-58.5 17.5q-57 0 -105 -30q-15 -7 -28.5 -16t-30.5 -22.5t-23 -17.5l-4 -4l-33 -192l50 43q52 45 77 61q55 39 80 39q15 0 37.5 -31t48 -62.5t47.5 -31.5q86 0 189 78zM295 655
q-11 -56 -9 -115t10 -117.5t30.5 -114t52 -105.5t75.5 -92t100.5 -72t127.5 -47t156 -17q131 0 247.5 42.5t201.5 111.5t151 158.5t104 182.5t53 185l111 705h-367l-110 -705q-10 -60 -36 -117.5t-67 -108t-101.5 -81.5t-131.5 -31q-58 0 -103 20.5t-71.5 54.5t-43.5 77.5
t-18 91t5 94.5l110 705h-366z" />
    <glyph glyph-name="Umacron" unicode="&#x16a;" horiz-adv-x="1679" 
d="M864 1554h443l24 148h-442zM295 655q-11 -56 -9 -115t10 -117.5t30.5 -114t52 -105.5t75.5 -92t100.5 -72t127.5 -47t156 -17q131 0 247.5 42.5t201.5 111.5t151 158.5t104 182.5t53 185l111 705h-367l-110 -705q-10 -60 -36 -117.5t-67 -108t-101.5 -81.5t-131.5 -31
q-58 0 -103 20.5t-71.5 54.5t-43.5 77.5t-18 91t5 94.5l110 705h-366z" />
    <glyph glyph-name="umacron" unicode="&#x16b;" horiz-adv-x="1679" 
d="M864 1554h443l24 148h-442zM295 655q-11 -56 -9 -115t10 -117.5t30.5 -114t52 -105.5t75.5 -92t100.5 -72t127.5 -47t156 -17q131 0 247.5 42.5t201.5 111.5t151 158.5t104 182.5t53 185l111 705h-367l-110 -705q-10 -60 -36 -117.5t-67 -108t-101.5 -81.5t-131.5 -31
q-58 0 -103 20.5t-71.5 54.5t-43.5 77.5t-18 91t5 94.5l110 705h-366z" />
    <glyph glyph-name="Uring" unicode="&#x16e;" horiz-adv-x="1679" 
d="M963 1710q-9 -56 20 -101.5t104 -45.5t118 45.5t52 101.5q6 34 -2 64.5t-39 54.5t-83 24q-74 0 -117.5 -44.5t-52.5 -98.5zM295 655q-11 -56 -9 -115t10 -117.5t30.5 -114t52 -105.5t75.5 -92t100.5 -72t127.5 -47t156 -17q131 0 247.5 42.5t201.5 111.5t151 158.5
t104 182.5t53 185l111 705h-367l-110 -705q-10 -60 -36 -117.5t-67 -108t-101.5 -81.5t-131.5 -31q-58 0 -103 20.5t-71.5 54.5t-43.5 77.5t-18 91t5 94.5l110 705h-366zM1094 1710q3 19 20 19q13 0 10 -19q-1 -12 -4.5 -15t-11.5 -3q-10 0 -12.5 2.5t-1.5 15.5z" />
    <glyph glyph-name="uring" unicode="&#x16f;" horiz-adv-x="1679" 
d="M963 1710q-9 -56 20 -101.5t104 -45.5t118 45.5t52 101.5q6 34 -2 64.5t-39 54.5t-83 24q-74 0 -117.5 -44.5t-52.5 -98.5zM295 655q-11 -56 -9 -115t10 -117.5t30.5 -114t52 -105.5t75.5 -92t100.5 -72t127.5 -47t156 -17q131 0 247.5 42.5t201.5 111.5t151 158.5
t104 182.5t53 185l111 705h-367l-110 -705q-10 -60 -36 -117.5t-67 -108t-101.5 -81.5t-131.5 -31q-58 0 -103 20.5t-71.5 54.5t-43.5 77.5t-18 91t5 94.5l110 705h-366zM1094 1710q3 19 20 19q13 0 10 -19q-1 -12 -4.5 -15t-11.5 -3q-10 0 -12.5 2.5t-1.5 15.5z" />
    <glyph glyph-name="Wcircumflex" unicode="&#x174;" horiz-adv-x="1785" 
d="M1389 1556l-101 320h-196l-203 -320h196l74 109l31 -109h199zM262 0h354l381 653l174 -653h355l375 1360h-363l-178 -672l-125 420h-330l-250 -420l23 672h-363z" />
    <glyph glyph-name="wcircumflex" unicode="&#x175;" horiz-adv-x="1785" 
d="M1389 1556l-101 320h-196l-203 -320h196l74 109l31 -109h199zM262 0h354l381 653l174 -653h355l375 1360h-363l-178 -672l-125 420h-330l-250 -420l23 672h-363z" />
    <glyph glyph-name="Ycircumflex" unicode="&#x176;" horiz-adv-x="1581" 
d="M1286 1556l-100 320h-197l-203 -320h197l74 109l30 -109h199zM266 1360l418 -879l-74 -481h363l76 481l696 879h-422l-397 -512l-240 512h-420z" />
    <glyph glyph-name="ycircumflex" unicode="&#x177;" horiz-adv-x="1581" 
d="M1286 1556l-100 320h-197l-203 -320h197l74 109l30 -109h199zM266 1360l418 -879l-74 -481h363l76 481l696 879h-422l-397 -512l-240 512h-420z" />
    <glyph glyph-name="Ydieresis" unicode="&#x178;" horiz-adv-x="1581" 
d="M1032 1683q8 48 -21 85.5t-96 37.5q-66 0 -106 -38t-47 -85q-7 -49 21 -85.5t94 -36.5q67 0 107.5 36.5t47.5 85.5zM266 1360l418 -879l-74 -481h363l76 481l696 879h-422l-397 -512l-240 512h-420zM1081 1681q-7 -48 20 -86.5t93 -38.5q67 0 108.5 37.5t49.5 87.5
q7 49 -21.5 86t-95.5 37q-66 0 -106.5 -38t-47.5 -85z" />
    <glyph glyph-name="Zacute" unicode="&#x179;" horiz-adv-x="1628" 
d="M1040 1550l285 332l-274 -8l-203 -324h192zM152 0h1325l51 328h-778l874 762l43 270h-1276l-51 -330h727l-872 -760z" />
    <glyph glyph-name="zacute" unicode="&#x17a;" horiz-adv-x="1628" 
d="M1040 1550l285 332l-274 -8l-203 -324h192zM152 0h1325l51 328h-778l874 762l43 270h-1276l-51 -330h727l-872 -760z" />
    <glyph glyph-name="Zdotaccent" unicode="&#x17b;" horiz-adv-x="1628" 
d="M1217 1694q7 49 -21 87t-94 38q-67 0 -107 -38.5t-47 -86.5q-7 -49 19.5 -87t93.5 -38t108 38.5t48 86.5zM152 0h1325l51 328h-778l874 762l43 270h-1276l-51 -330h727l-872 -760z" />
    <glyph glyph-name="zdotaccent" unicode="&#x17c;" horiz-adv-x="1628" 
d="M1217 1694q7 49 -21 87t-94 38q-67 0 -107 -38.5t-47 -86.5q-7 -49 19.5 -87t93.5 -38t108 38.5t48 86.5zM152 0h1325l51 328h-778l874 762l43 270h-1276l-51 -330h727l-872 -760z" />
    <glyph glyph-name="Zcaron" unicode="&#x17d;" horiz-adv-x="1628" 
d="M1159 1565l205 319h-199l-69 -108l-35 108h-199l103 -319h194zM152 0h1325l51 328h-778l874 762l43 270h-1276l-51 -330h727l-872 -760z" />
    <glyph glyph-name="zcaron" unicode="&#x17e;" horiz-adv-x="1628" 
d="M1159 1565l205 319h-199l-69 -108l-35 108h-199l103 -319h194zM152 0h1325l51 328h-778l874 762l43 270h-1276l-51 -330h727l-872 -760z" />
    <glyph glyph-name="circumflex" unicode="&#x2c6;" horiz-adv-x="702" 
d="M780 1016l-104 319h-195l-202 -319h198l70 108l35 -108h198z" />
    <glyph glyph-name="caron" unicode="&#x2c7;" horiz-adv-x="700" 
d="M627 1024l204 319h-198l-68 -108l-37 108h-198l102 -319h195z" />
    <glyph glyph-name="dotaccent" unicode="&#x2d9;" horiz-adv-x="337" 
d="M496 1153q8 48 -21 86.5t-96 38.5q-66 0 -106.5 -38.5t-47.5 -86.5t21 -86.5t94 -38.5q67 0 108 38.5t48 86.5z" />
    <glyph glyph-name="ring" unicode="&#x2da;" horiz-adv-x="600" 
d="M295 1169q-7 -56 22 -101.5t103 -45.5q76 0 120.5 46t51.5 101q6 34 -2.5 65t-39.5 55t-83 24q-74 0 -118.5 -45t-53.5 -99zM426 1169q5 19 20 19q16 0 11 -19q-1 -12 -4.5 -15t-12.5 -3q-6 0 -8.5 0.5t-4.5 4.5t-1 13z" />
    <glyph glyph-name="tilde" unicode="&#x2dc;" horiz-adv-x="606" 
d="M733 1126l29 179l-115 -78q-48 -31 -80 -31q-14 0 -27 17.5t-23.5 39t-35 39t-57.5 17.5q-54 0 -107 -31q-30 -16 -79 -55l-7 -4l-32 -193l53 43q53 45 74 61q58 39 80 39q13 0 30.5 -19.5t32.5 -43t34.5 -43t35.5 -19.5q82 0 190 78z" />
    <glyph glyph-name="Wgrave" unicode="&#x1e80;" horiz-adv-x="1785" 
d="M981 1884l178 -323h193l-101 323h-270zM262 0h354l381 653l174 -653h355l375 1360h-363l-178 -672l-125 420h-330l-250 -420l23 672h-363z" />
    <glyph glyph-name="wgrave" unicode="&#x1e81;" horiz-adv-x="1785" 
d="M981 1884l178 -323h193l-101 323h-270zM262 0h354l381 653l174 -653h355l375 1360h-363l-178 -672l-125 420h-330l-250 -420l23 672h-363z" />
    <glyph glyph-name="Wacute" unicode="&#x1e82;" horiz-adv-x="1785" 
d="M1120 1550l285 332l-275 -8l-204 -324h194zM262 0h354l381 653l174 -653h355l375 1360h-363l-178 -672l-125 420h-330l-250 -420l23 672h-363z" />
    <glyph glyph-name="wacute" unicode="&#x1e83;" horiz-adv-x="1785" 
d="M1120 1550l285 332l-275 -8l-204 -324h194zM262 0h354l381 653l174 -653h355l375 1360h-363l-178 -672l-125 420h-330l-250 -420l23 672h-363z" />
    <glyph glyph-name="Wdieresis" unicode="&#x1e84;" horiz-adv-x="1785" 
d="M1135 1683q8 48 -21 85.5t-96 37.5q-66 0 -106.5 -38.5t-47.5 -84.5q-7 -49 21 -85.5t94 -36.5q67 0 108 36.5t48 85.5zM262 0h354l381 653l174 -653h355l375 1360h-363l-178 -672l-125 420h-330l-250 -420l23 672h-363zM1184 1681q-7 -49 19.5 -87t92.5 -38
q67 0 108.5 37.5t49.5 87.5q7 49 -21.5 86t-95.5 37q-66 0 -106 -37.5t-47 -85.5z" />
    <glyph glyph-name="wdieresis" unicode="&#x1e85;" horiz-adv-x="1785" 
d="M1135 1683q8 48 -21 85.5t-96 37.5q-66 0 -106.5 -38.5t-47.5 -84.5q-7 -49 21 -85.5t94 -36.5q67 0 108 36.5t48 85.5zM262 0h354l381 653l174 -653h355l375 1360h-363l-178 -672l-125 420h-330l-250 -420l23 672h-363zM1184 1681q-7 -49 19.5 -87t92.5 -38
q67 0 108.5 37.5t49.5 87.5q7 49 -21.5 86t-95.5 37q-66 0 -106 -37.5t-47 -85.5z" />
    <glyph glyph-name="uni1E9E" unicode="&#x1e9e;" horiz-adv-x="1314" 
d="M1356 944q-24 -152 -135 -252q116 -99 88 -276q-33 -214 -205.5 -327.5t-439.5 -113.5l55 342q196 0 211 99q8 54 -41.5 77t-138.5 23h-78l51 330h78q79 0 124 22.5t54 75.5q9 54 -34 77t-126 23h-168l-237 -1484h-381l289 1824h550q263 0 390.5 -114.5t93.5 -325.5z" />
    <glyph glyph-name="Ygrave" unicode="&#x1ef2;" horiz-adv-x="1581" 
d="M973 0l76 481l696 879h-422l-397 -512l-240 512h-420l418 -879l-74 -481h363zM788 1884l179 -323h190l-98 323h-271z" />
    <glyph glyph-name="ygrave" unicode="&#x1ef3;" horiz-adv-x="1581" 
d="M973 0l76 481l696 879h-422l-397 -512l-240 512h-420l418 -879l-74 -481h363zM788 1884l179 -323h190l-98 323h-271z" />
    <glyph glyph-name="endash" unicode="&#x2013;" horiz-adv-x="2097" 
d="M324 846l-52 -330h1719l51 330h-1718z" />
    <glyph glyph-name="emdash" unicode="&#x2014;" horiz-adv-x="2588" 
d="M324 846l-52 -330h2210l51 330h-2209z" />
    <glyph glyph-name="quoteleft" unicode="&#x2018;" horiz-adv-x="692" 
d="M602 1389q-134 -78 -219.5 -197t-106.5 -248q-2 -29 -2.5 -61t11.5 -64t31 -57t56.5 -41t86.5 -16q56 0 103.5 20t77 52.5t47.5 69t24 73.5q19 126 -72 184q42 77 104 133l19 14l-133 152z" />
    <glyph glyph-name="quoteright" unicode="&#x2019;" horiz-adv-x="692" 
d="M264 838l131 -152l25 14q134 78 220.5 198t107.5 249q2 28 2.5 59.5t-12 63t-31.5 57t-55.5 41.5t-84.5 16q-108 0 -175 -65t-79 -148q-19 -126 72 -186q-49 -83 -104 -133z" />
    <glyph glyph-name="quotesinglbase" unicode="&#x201a;" horiz-adv-x="692" 
d="M145 94l134 -151l24 14q134 78 219.5 197.5t106.5 248.5q2 28 3 59.5t-10.5 64t-30 58t-55 42t-85.5 16.5q-109 0 -175.5 -65.5t-80.5 -149.5q-19 -127 73 -184q-52 -88 -106 -135z" />
    <glyph glyph-name="quotedblleft" unicode="&#x201c;" horiz-adv-x="1183" 
d="M602 1389q-134 -78 -219.5 -197t-106.5 -248q-2 -29 -2.5 -61t11.5 -64t31 -57t56.5 -41t86.5 -16q56 0 103.5 20t77 52.5t47.5 69t24 73.5q19 126 -72 184q42 77 104 133l19 14l-133 152zM768 944q-2 -29 -3 -61t11.5 -64t31.5 -57t56 -41t86 -16q56 0 103.5 20t77 52.5
t47.5 69t24 73.5q19 126 -72 184q41 75 105 133l18 14l-133 152l-26 -14q-134 -78 -219.5 -197t-106.5 -248z" />
    <glyph glyph-name="quotedblright" unicode="&#x201d;" horiz-adv-x="1183" 
d="M264 838l131 -152l25 14q134 78 220.5 198t107.5 249q2 28 2.5 59.5t-12 63t-31.5 57t-55.5 41.5t-84.5 16q-108 0 -175 -65t-79 -148q-19 -126 72 -186q-49 -83 -104 -133zM756 838l131 -152l24 14q134 78 220.5 198t107.5 249q2 28 2.5 59.5t-11.5 63t-31 57
t-55.5 41.5t-84.5 16q-108 0 -175 -65t-79 -148q-19 -126 72 -186q-48 -81 -105 -133z" />
    <glyph glyph-name="quotedblbase" unicode="&#x201e;" horiz-adv-x="1183" 
d="M145 94l134 -151l24 14q134 78 219.5 197.5t106.5 248.5q2 28 3 59.5t-11 64t-30.5 58t-55 42t-84.5 16.5q-109 0 -175.5 -65.5t-80.5 -149.5q-19 -127 73 -184q-52 -88 -106 -135zM637 94l133 -151l25 14q134 78 219 197.5t106 248.5q2 28 3 59.5t-11 64t-30.5 58
t-55 42t-84.5 16.5q-109 0 -175.5 -65.5t-80.5 -149.5q-19 -127 74 -184q-51 -86 -107 -135z" />
    <glyph glyph-name="dagger" unicode="&#x2020;" horiz-adv-x="1093" 
d="M739 188l-69 -440h-367l70 440h-307l51 330h307l172 1092l369 4l-174 -1096h307l-51 -330h-308z" />
    <glyph glyph-name="bullet" unicode="&#x2022;" horiz-adv-x="866" 
d="M588 983q-79 0 -144 -27.5t-107 -72.5t-67.5 -96.5t-33.5 -106.5q-5 -42 -3.5 -84.5t20.5 -82t47.5 -70t78.5 -48.5t113 -18q78 0 143.5 27.5t108 72.5t69 96.5t35.5 106.5q8 55 -2 106.5t-38.5 96.5t-85 72.5t-134.5 27.5z" />
    <glyph glyph-name="ellipsis" unicode="&#x2026;" horiz-adv-x="2304" 
d="M449 403q-109 0 -174.5 -64.5t-77.5 -148.5q-9 -37 -0.5 -75t27 -69t59.5 -51t98 -20t104 20t77 52t48.5 68.5t24.5 74.5t-1.5 74t-27.5 68t-60.5 51.5t-96.5 19.5zM965 190q-9 -37 -0.5 -75t27 -69t59.5 -51t98 -20t104 20t77 52t48.5 68.5t24.5 74.5t-1.5 74t-27.5 68
t-60.5 51.5t-96.5 19.5q-109 0 -174.5 -64.5t-77.5 -148.5zM1733 190q-9 -37 -0.5 -75t27 -69t59.5 -51t98 -20t104 20t77 52t48.5 68.5t24.5 74.5t-1.5 74t-27.5 68t-60.5 51.5t-96.5 19.5q-109 0 -174.5 -64.5t-77.5 -148.5z" />
    <glyph glyph-name="guilsinglleft" unicode="&#x2039;" horiz-adv-x="794" 
d="M883 811l45 283l-760 -381l639 -379l45 280l-172 99z" />
    <glyph glyph-name="guilsinglright" unicode="&#x203a;" horiz-adv-x="788" 
d="M229 1094l-45 -283l170 -98l-200 -99l-45 -280l757 379z" />
    <glyph glyph-name="Euro" unicode="&#x20ac;" horiz-adv-x="1564" 
d="M283 516q6 -85 31 -162.5t74.5 -147t117.5 -120.5t165 -81t212 -30q181 0 337 73.5t273 203.5l14 14l-247 240l-25 -31q-131 -158 -297 -158q-104 0 -171.5 55.5t-88.5 143.5h571l51 330h-571q50 87 135 142.5t189 55.5q167 0 245 -159l17 -31l321 238l-6 16
q-76 129 -209 202.5t-315 73.5q-142 0 -270.5 -45t-224.5 -122t-166 -171t-111 -200h-137l-52 -330h138z" />
    <glyph glyph-name="uni2120" unicode="&#x2120;" horiz-adv-x="1681" 
d="M391 866h-190l-4 -28q-10 -64 14 -113t72 -76t103 -40t114 -13q68 0 127.5 11.5t115.5 38t93.5 77t48.5 121.5q8 52 -2.5 92t-31.5 62.5t-57 38t-67.5 21t-73.5 9.5q-12 1 -75 3t-89 7q-28 6 -37.5 14.5t-7.5 22.5q5 34 50 51q40 13 98 13q56 0 96 -15q41 -18 35 -51
l-4 -27h192l4 27q10 63 -12 111.5t-67.5 76t-100 41t-114.5 13.5q-66 0 -122.5 -11.5t-110 -37t-89.5 -74.5t-47 -117q-8 -52 2.5 -91t32.5 -61.5t58 -37t68.5 -20t73.5 -7.5q62 -4 91 -4q53 -4 71 -8q30 -6 39 -14.5t6 -26.5q-6 -40 -55 -58q-46 -14 -111 -14
q-59 0 -100 16q-48 17 -41 50zM954 608h187l53 338l35 -338h170l143 340l-53 -340h188l119 744h-268l-156 -381l-35 381h-264z" />
    <glyph glyph-name="trademark" unicode="&#x2122;" horiz-adv-x="1507" 
d="M279 1352l-29 -176h203l-91 -568h199l90 568h201l29 176h-602zM778 608h191l53 338l33 -338h170l145 344l-55 -344h188l119 744h-266l-158 -381l-37 381h-264z" />
    <glyph glyph-name="minus" unicode="&#x2212;" horiz-adv-x="1482" 
d="M324 846l-52 -330h1104l51 330h-1103z" />
    <glyph glyph-name="_Designova" horiz-adv-x="1435" 
d="M717 39q-166 0 -308 83t-224.5 225t-82.5 308q1 125 50 238t131.5 195.5t196.5 131t239 48.5q166 0 307.5 -82t224 -223.5t82.5 -307.5q0 -167 -82.5 -309t-224.5 -224.5t-309 -82.5zM176 655q0 -148 72.5 -273t197.5 -197t273 -72q146 0 270.5 72t197.5 196.5t73 271.5
q0 148 -72.5 273t-197 197.5t-271.5 72.5t-272 -72.5t-198 -197t-73 -271.5zM369 762q8 0 12 -4q63 -22 111 -29q41 -3 77 2q34 8 49 14q5 0 11.5 3.5t7.5 3.5q-7 4 -22 11.5t-25.5 14.5t-18.5 17h21q37 0 82 18q83 51 151 70q27 8 62 8q7 0 24 1.5t25 0.5q65 -4 96 -37
q9 -6 33 -35v-2q-4 2 -6 2q-52 20 -92 5.5t-68 -56.5q-3 -4 -29 -65q-49 -113 -53 -121q-28 -63 -69 -113q-16 -23 -70 -63q-57 -40 -131 -60h-6l26 23q16 14 29 49q4 12 22.5 63t26.5 78q35 96 62 144q-7 -7 -11 -13q-9 -9 -10 -14q-19 -21 -35 -62q-4 -6 -10 -6
q-114 6 -195 76l-61 59q-3 3 -8 8.5t-8 8.5z" />
    <glyph glyph-name="_Origin" horiz-adv-x="1918" 
d="M102 41v1178h1715v-1176l-43 -2v2zM147 84h1627v641h-1627v-641zM297 229v131h31v-131h-31zM301 905h70q60 0 86 41q10 18 10 47q0 56 -45 78q-18 10 -49 10h-72v-176zM319 451v129h111v-23h-80v-29h72v-22h-72v-33h80v-22h-111zM342 938v111h27q37 0 51 -23q6 -24 6 -33
q0 -37 -27 -49q-12 -6 -30 -6h-27zM348 229v131h25l65 -77v77h31v-131h-25l-65 82v-82h-31zM451 451v129h26l66 -78v78h28v-129h-24l-66 79v-79h-30zM483 971q0 -46 35 -60q10 -6 39 -6q38 0 55 17q11 15 13 22l-39 2q-3 -8 -17 -14h-12q-23 0 -29 14q-6 9 -6 17h103v10
q0 33 -21 51q-19 16 -49 16q-42 0 -63 -32q-9 -22 -9 -37zM522 985q3 16 17 23q6 6 16 6q24 0 27 -17q4 -4 4 -12h-64zM537 229v131h65q53 0 53 -32q0 -22 -18 -29q2 0 2 -2q20 -7 20 -31q0 -37 -53 -37h-69zM567 254h37q25 0 25 16q0 15 -25 15h-37v-31zM567 311h33
q25 0 25 15q0 16 -25 16h-33v-31zM594 557v23h115v-23h-43v-106h-29v106h-43zM637 944q6 -39 68 -39q41 0 59 21q6 9 6 20q0 29 -41 37l-29 4q-18 3 -18 14q0 13 23 13q24 0 24 -15l39 2q-7 39 -63 39q-39 0 -56 -20q-8 -8 -8 -21q0 -30 41 -38l27 -5q20 -3 20 -12
q0 -14 -24 -14t-27 16zM674 229v131h108v-24h-80v-27h72v-24h-72v-29h78v-27h-106zM721 580h33l30 -91l31 91h27l30 -93l31 93h29l-41 -129h-35l-29 88l-28 -88h-33zM786 905h43v133h-43v-133zM786 1073q0 -7 7 -12.5t16 -5.5t15.5 5.5t6.5 12.5q0 8 -6.5 13.5t-15.5 5.5
t-16 -6t-7 -13zM803 229v131h61q21 0 29 -4q29 -14 29 -43q0 -12 -9 -24q-18 -18 -20 -19l27 -41h-33l-25 39h-26v-39h-33zM836 293h26q29 0 29 20q0 23 -29 23h-26v-43zM848 973q0 -46 31 -58q12 -6 30 -6q22 0 33 11q8 4 8 10h2v-25q0 -24 -30 -24q-19 0 -27 8l-4 8
l-39 -6q3 -16 21 -26.5t47 -10.5q43 0 63 23q10 10 10 28v133h-41v-22h-2q-3 14 -22 20q-8 4 -19 4q-38 0 -53 -30q-8 -13 -8 -37zM891 973q0 24 12 33q9 6 19 6q18 0 28 -21q0 -2 1 -8.5t1 -9.5q0 -37 -30 -37q-20 0 -29 18q-2 4 -2 19zM936 229v131h29v-104h77v-27h-106z
M938 516q0 27 20 47q18 21 52 21q33 0 51 -21q20 -20 20 -47q0 -26 -20 -49q-18 -18 -51 -18q-34 0 -52 18q-20 23 -20 49zM969 516q0 -19 11 -31t30 -12t30 12t11 31t-11 31t-30 12t-30 -12t-11 -31zM1018 905h41v78q0 17 14 23q4 4 14 4q25 0 25 -27v-78h43v84
q0 34 -25 43q-11 8 -26 8q-32 0 -45 -26v24h-41v-133zM1065 229v131h31v-131h-31zM1100 451v129h57q23 0 31 -2q26 -14 26 -43q0 -15 -6 -27q-7 -10 -22 -16l28 -41h-32l-25 36h-29v-36h-28zM1116 229v131h27l63 -77v77h33v-131h-27l-65 82v-82h-31zM1128 512h27q29 0 29 23
q0 22 -29 22h-27v-45zM1174 971q0 -42 34 -60q10 -6 39 -6q44 0 66 31q8 20 8 35q0 40 -35 61q-24 8 -39 8q-44 0 -65 -32q-8 -20 -8 -37zM1217 973q0 24 12 33q9 6 18 6q20 0 27 -21q4 -8 4 -18q0 -27 -14 -35q-6 -6 -17 -6q-18 0 -28 20q-2 6 -2 21zM1231 451v129h108v-23
h-77v-29h69v-22h-69v-55h-31zM1257 248q0 18 19 18q8 0 13 -5t5 -13q0 -7 -6 -19l-10 -28h-18l8 30q-11 4 -11 17zM1321 1038l53 -133h45l54 133h-43l-31 -94h-2l-31 94h-45zM1352 451v129h108v-23h-78v-29h70v-22h-70v-33h78v-22h-108zM1368 229v131h59q23 0 39 -8
q33 -13 33 -55q0 -24 -8 -37q-17 -31 -64 -31h-59zM1399 256h26q17 0 25 4q18 12 18 37q0 16 -4 20q-10 19 -39 19h-26v-80zM1475 944q0 -29 22 -35q8 -4 27 -4q22 0 35 8l8 13h2v-21h37v90q0 21 -17 35q-23 10 -45 10q-35 0 -53 -18q-9 -9 -12 -21l39 -4q4 17 26 17
q21 0 21 -17v-2q0 -7 -15 -10q-12 0 -20 -2q-22 0 -39 -10q-16 -8 -16 -29zM1483 451v129h22l68 -78v78h31v-129h-27l-66 79v-79h-28zM1513 944q0 8 13 14q3 3 12 3q3 1 14.5 3t14.5 3v-13q0 -15 -17 -22q-1 0 -6 -1t-10 -1q-21 0 -21 14zM1518 229v131h108v-24h-78v-27h70
v-24h-70v-29h78v-27h-108z" />
    <glyph glyph-name="_Typeface" horiz-adv-x="1718" 
d="M102 365v553h1514v-553h-1514zM268 510h35v211l174 -211h35v264h-35v-209l-174 209h-35v-264zM569 643q0 -56 35 -97.5t92 -41.5q59 0 94 41.5t35 97.5t-35 96.5t-94 40.5q-57 0 -92 -41.5t-35 -95.5zM608 643q0 40 24 71t64 31t65 -31t25 -71q0 -41 -24.5 -72.5
t-65.5 -31.5q-40 0 -64 31.5t-24 72.5zM887 510h35v117h104l64 -117h38l-65 117h12q30 1 46 22.5t16 50.5q0 31 -19 52.5t-53 21.5h-178v-264zM922 657v84h143q18 0 27.5 -12.5t9.5 -30.5q0 -41 -37 -41h-143zM1202 510h123q58 0 92.5 39t34.5 94t-34.5 93t-92.5 38h-123
v-264zM1239 543v198h86q41 0 64.5 -29.5t23.5 -68.5q0 -41 -23.5 -70.5t-64.5 -29.5h-86z" />
    <glyph glyph-name="_VendorID" horiz-adv-x="1132" 
d="M102 147v1131h928v-1131h-928zM106 61q0 11 8 19t17 8q8 0 10 -4l4 -4v24h13v-69h-13v10l-4 -8q-4 -4 -14 -4q-21 0 -21 28zM119 61q0 -16 12 -16q14 0 14 16q0 17 -12 17q-14 0 -14 -17zM168 61q0 11 7.5 19t17.5 8t17 -8t7 -19q0 -2 -2 -4h-35q2 -12 13 -12q10 0 12 8
h10q-3 -20 -22 -20q-25 0 -25 28zM180 63h25q-3 15 -12 15q-10 0 -13 -15zM221 49h15q4 -8 8 -8q8 0 8 8q0 1 -10 8q-19 3 -19 15q0 16 21 16q20 0 20 -16h-14q0 6 -6 6t-6 -4t10 -11q16 -3 16 -14q0 -16 -20 -16t-23 16zM262 434q0 -58 40 -98.5t99 -40.5q57 0 96.5 40.5
t39.5 98.5q0 59 -38 98t-98 39q-16 0 -22 -2l80 115h-62l-92 -131q-43 -61 -43 -119zM262 883q0 -57 40.5 -97.5t98.5 -40.5q57 0 96.5 40t39.5 98q0 59 -38 98t-98 39q-16 0 -22 -2l80 117h-62l-92 -136q-43 -64 -43 -116zM272 35v53h15v-53h-15zM272 98q0 6 9 6q6 0 6 -6
q0 -8 -6 -8q-9 0 -9 8zM309 33q0 -8 13 -8q10 0 14 12v8l-4 -8q-2 0 -6.5 -1t-6.5 -1q-22 0 -22 26q0 12 7 19.5t18 7.5q8 0 10 -4l4 -4v8h14v-39q0 -8 -2 -12q0 -23 -26 -23q-25 0 -25 19h12zM309 61q0 -16 13 -16q14 0 14 16q0 17 -14 17q-13 0 -13 -17zM313 434
q0 37 25 61.5t63 24.5q37 0 61.5 -24.5t24.5 -61.5q0 -39 -24.5 -64.5t-61.5 -25.5q-39 0 -63.5 24.5t-24.5 65.5zM313 883q0 39 24.5 63.5t63.5 24.5q37 0 61.5 -25t24.5 -63t-24.5 -63t-61.5 -25q-39 0 -63.5 24.5t-24.5 63.5zM360 35v53h13v-10l4 6q4 4 12 4q15 0 19 -14
q2 -4 2 -11v-28h-15v33q0 10 -10 10q-12 0 -12 -19v-24h-13zM416 61q0 11 7 19t19 8t19.5 -8t7.5 -19q0 -12 -7.5 -20t-19.5 -8t-19 8t-7 20zM430 61q0 -16 12 -16q15 0 15 16q0 17 -15 17q-12 0 -12 -17zM473 88h14l13 -43l12 43h14l-18 -53h-19zM530 49q0 17 29 17h2v6
q0 6 -8 6q-10 0 -10 -8h-13q0 18 23 18q17 0 20 -14v-39h-12v6l-2 -4q-8 -4 -14 -4q-5 0 -10 4.5t-5 11.5zM543 49q0 -4 8 -4q10 0 10 8v6q-18 0 -18 -10zM582 76v10h6v6q0 14 18 14h4v-10q-10 3 -10 -4v-6h10v-10h-10v-41h-12v41h-6zM594 434q0 -58 40 -98.5t99 -40.5
q57 0 96 40t39 99t-38.5 98t-96.5 39q-16 0 -24 -2l82 115h-62l-92 -131q-43 -61 -43 -119zM594 883q0 -58 40 -98t99 -40q57 0 96 40t39 98q0 59 -38.5 98t-96.5 39q-16 0 -24 -2l82 117h-62l-92 -136q-43 -62 -43 -116zM614 61q0 11 7 19t20 8q12 0 19.5 -8t7.5 -19
q0 -12 -7.5 -20t-19.5 -8q-27 0 -27 28zM629 61q0 -16 12 -16t12 16q0 17 -12 17t-12 -17zM645 434q0 37 24.5 61.5t63.5 24.5q36 0 59 -24.5t23 -61.5q0 -40 -22.5 -65t-59.5 -25q-39 0 -63.5 24.5t-24.5 65.5zM645 883q0 39 24.5 63.5t63.5 24.5q36 0 59 -24.5t23 -63.5
t-23 -63.5t-59 -24.5q-39 0 -63.5 24.5t-24.5 63.5zM676 35v53h12v-10l4 6q4 4 13 4q15 0 18 -14v-39h-12v33q-3 10 -9 10q-14 0 -14 -19v-24h-12zM731 76v10h6v12h15v-12h8v-10h-8v-27q0 -9 8 -4v-10h-8q-15 0 -15 10v31h-6zM764 49h14q4 -8 10 -8q9 0 9 8q0 2 -1 3t-5 2.5
t-7 2.5q-16 3 -16 15q0 16 18 16q19 0 25 -16h-16q0 6 -9 6q-4 0 -4 -4q0 -6 11 -11q18 -5 18 -14q0 -16 -23 -16q-18 0 -24 16zM813 41q0 8 10 8q8 0 8 -8t-8 -8q-10 0 -10 8zM838 61q0 12 7.5 19.5t16.5 7.5q23 0 23 -20h-13q-2 10 -10 10q-12 0 -12 -17q0 -16 12 -16
q8 0 10 8h13q0 -20 -23 -20q-24 0 -24 28zM891 61q0 11 7 19t20 8q24 0 24 -27q0 -28 -24 -28q-27 0 -27 28zM903 61q0 -16 15 -16q12 0 12 16q0 17 -12 17q-15 0 -15 -17zM952 35v53h13v-10l6 6q2 4 8 4q13 0 16 -10l6 6q2 4 11 4q6 0 11 -4t5 -8v-13v-28h-12v26v9
q0 8 -10 8q-9 0 -9 -17v-26h-12v35q-5 8 -10 8q-10 0 -10 -17v-26h-13z" />
    </font>
</defs>
</svg>
