<?xml version="1.0" standalone="no"?>
<!DOCTYPE svg PUBLIC "-//W3C//DTD SVG 1.1//EN" "http://www.w3.org/Graphics/SVG/1.1/DTD/svg11.dtd" >
<svg xmlns="http://www.w3.org/2000/svg" xmlns:xlink="http://www.w3.org/1999/xlink" version="1.1">
<metadata>
Created by FontForge 20201107 at Tue May 28 21:44:43 2024
 By 
Copyright (c) 2024 by Designova. All rights reserved.
</metadata>
<defs>
<font id="NORD-Bold" horiz-adv-x="1622" >
  <font-face 
    font-family="NORD"
    font-weight="700"
    font-stretch="normal"
    units-per-em="2048"
    panose-1="0 0 0 0 0 0 0 0 0 0"
    ascent="1638"
    descent="-410"
    x-height="1360"
    cap-height="1360"
    bbox="6 -418 2476 1915"
    underline-thickness="102"
    underline-position="-255"
    unicode-range="U+0020-2212"
  />
<missing-glyph horiz-adv-x="1458" 
d="M102 0v1411h1254v-1411h-1254zM301 522l119 -116l305 305l311 -305l121 116l-307 309l303 308l-117 116l-311 -305l-303 305l-121 -116l307 -308zM311 170h31v84h2l64 -84h28v131h-30v-82h-3l-65 82h-27v-131zM451 219q0 -30 24 -45q30 -6 31 -6q31 0 49 25q6 12 6 26
q0 32 -26 45q-12 6 -29 6q-37 0 -49 -24q-6 -12 -6 -27zM481 219q0 16 11 27q8 4 14 4q13 0 20 -14q2 -6 2 -17q0 -16 -10 -26q-2 0 -5.5 -1.5t-6.5 -1.5q-18 0 -21 15q-4 4 -4 14zM612 236q0 -44 33 -60q24 -8 39 -8q38 0 55 27q9 12 9 28v19h-62v-23h33q0 -15 -17 -22
q-6 -4 -18 -4q-25 0 -35 20q-4 6 -4 23q0 28 19 38q14 7 18 7q12 0 22 -6.5t11 -16.5h30q0 18 -20 35q-17 10 -43 10q-40 0 -59 -31q-11 -14 -11 -36zM766 170h29v131h-29v-131zM805 270l41 -102l-2 -4q-2 -12 -23 -8l-8 -19q12 -4 21 -4q21 0 32 14q4 2 8 13l44 110h-33
l-23 -73h-2l-22 73h-33zM928 133h30v53q8 -12 19 -14q4 -4 14 -4q27 0 39 25q6 8 6 26q0 32 -20 45q-12 6 -25 6q-16 0 -26 -10q-6 -6 -7 -8v18h-30v-137zM958 219q0 18 11 25q6 6 12 6q17 0 20 -14q5 -15 5 -17q0 -11 -11 -26l-14 -3q-14 0 -20 15q-3 6 -3 14zM1053 170h28
v57q0 15 11 19q4 2 12 2q18 0 18 -19v-59h33v63q0 24 -20 33q-8 4 -19 4q-26 0 -35 -18h-2v49h-26v-131z" />
    <glyph glyph-name=".notdef" horiz-adv-x="1458" 
d="M102 0v1411h1254v-1411h-1254zM301 522l119 -116l305 305l311 -305l121 116l-307 309l303 308l-117 116l-311 -305l-303 305l-121 -116l307 -308zM311 170h31v84h2l64 -84h28v131h-30v-82h-3l-65 82h-27v-131zM451 219q0 -30 24 -45q30 -6 31 -6q31 0 49 25q6 12 6 26
q0 32 -26 45q-12 6 -29 6q-37 0 -49 -24q-6 -12 -6 -27zM481 219q0 16 11 27q8 4 14 4q13 0 20 -14q2 -6 2 -17q0 -16 -10 -26q-2 0 -5.5 -1.5t-6.5 -1.5q-18 0 -21 15q-4 4 -4 14zM612 236q0 -44 33 -60q24 -8 39 -8q38 0 55 27q9 12 9 28v19h-62v-23h33q0 -15 -17 -22
q-6 -4 -18 -4q-25 0 -35 20q-4 6 -4 23q0 28 19 38q14 7 18 7q12 0 22 -6.5t11 -16.5h30q0 18 -20 35q-17 10 -43 10q-40 0 -59 -31q-11 -14 -11 -36zM766 170h29v131h-29v-131zM805 270l41 -102l-2 -4q-2 -12 -23 -8l-8 -19q12 -4 21 -4q21 0 32 14q4 2 8 13l44 110h-33
l-23 -73h-2l-22 73h-33zM928 133h30v53q8 -12 19 -14q4 -4 14 -4q27 0 39 25q6 8 6 26q0 32 -20 45q-12 6 -25 6q-16 0 -26 -10q-6 -6 -7 -8v18h-30v-137zM958 219q0 18 11 25q6 6 12 6q17 0 20 -14q5 -15 5 -17q0 -11 -11 -26l-14 -3q-14 0 -20 15q-3 6 -3 14zM1053 170h28
v57q0 15 11 19q4 2 12 2q18 0 18 -19v-59h33v63q0 24 -20 33q-8 4 -19 4q-26 0 -35 -18h-2v49h-26v-131z" />
    <glyph glyph-name=".null" horiz-adv-x="0" 
 />
    <glyph glyph-name=".null" horiz-adv-x="0" 
 />
    <glyph glyph-name="nonmarkingreturn" horiz-adv-x="682" 
 />
    <glyph glyph-name="space" unicode=" " horiz-adv-x="638" 
 />
    <glyph glyph-name="space" unicode="&#xa0;" horiz-adv-x="638" 
 />
    <glyph glyph-name="exclam" unicode="!" horiz-adv-x="716" 
d="M512 1360h-309v-289q0 -337 51 -592l4 -22h203l4 22q47 262 47 592v289zM166 172q0 -82 49.5 -140.5t144.5 -58.5q91 0 142 59t51 140t-51.5 139t-141.5 58q-94 0 -144 -57.5t-50 -139.5z" />
    <glyph glyph-name="quotedbl" unicode="&#x22;" horiz-adv-x="1017" 
d="M477 1360h-311v-221q0 -203 49 -338l8 -19h197l6 19q51 133 51 338v221zM543 1139q0 -202 53 -338l6 -19h195l6 19q53 136 53 338v221h-313v-221z" />
    <glyph glyph-name="numbersign" unicode="#" horiz-adv-x="1697" 
d="M139 287h199l-57 -287h294l54 287h237l-57 -287h295l55 287h250v264h-199l47 258h252v264h-200l57 287h-297l-51 -287h-236l56 287h-295l-54 -287h-249v-264h198l-49 -258h-250v-264zM680 551l51 258h236l-52 -258h-235z" />
    <glyph glyph-name="dollar" unicode="$" horiz-adv-x="1189" 
d="M465 -154h192v205q102 7 186 32t152.5 71.5t107 123t38.5 177.5q0 84 -27 148t-70.5 103t-108 64.5t-130.5 36.5t-148 14v219q76 -12 126.5 -45t50.5 -86v-26h284v26q0 91 -39 164.5t-105 121t-146.5 75t-170.5 35.5v196h-192v-196q-94 -9 -170.5 -34.5t-138 -70.5
t-95.5 -116.5t-34 -165.5q0 -78 23 -138t61.5 -98.5t96 -64.5t119 -38.5t138.5 -17.5v-239q-75 14 -125.5 45t-50.5 79v29h-283v-29q0 -89 39 -161.5t105.5 -118.5t145.5 -73.5t169 -37.5v-209zM315 918q0 99 150 120v-211q-64 8 -94 21q-56 22 -56 70zM657 317v240
q75 -4 125 -20q74 -22 74 -82q0 -115 -199 -138z" />
    <glyph glyph-name="percent" unicode="%" horiz-adv-x="1998" 
d="M127 1098q0 -83 26.5 -158t76 -134t128.5 -93.5t177 -34.5t177 34.5t128.5 93.5t75.5 134t26 158q0 109 -45.5 202.5t-140 154.5t-221.5 61t-222 -61.5t-140.5 -155t-45.5 -201.5zM377 238l198 -203l1047 1085l-199 203zM414 1098q0 63 31.5 103t89.5 40t88 -39.5
t30 -103.5t-30 -103t-88 -39q-59 0 -90 39.5t-31 102.5zM1057 262q0 -83 26.5 -157.5t76 -133.5t128.5 -94t176 -35q99 0 178 34.5t128.5 93.5t75.5 133.5t26 158.5q0 81 -27 155.5t-77.5 134t-129 95t-174.5 35.5q-126 0 -220.5 -61.5t-140.5 -156t-46 -202.5zM1346 262
q0 64 30.5 104t87.5 40q58 0 89.5 -40t31.5 -104q0 -62 -31.5 -100.5t-89.5 -38.5t-88 38t-30 101z" />
    <glyph glyph-name="ampersand" unicode="&#x26;" horiz-adv-x="1437" 
d="M1190 -49l184 242l-31 14q-67 33 -174 131q27 38 58 117q14 38 41 141l8 27l-281 65l-6 -29q-10 -43 -31 -96l-127 176q49 33 84.5 63t67.5 69.5t49 87t17 102.5q0 148 -108.5 236.5t-270.5 88.5t-273.5 -82t-111.5 -231q0 -119 116 -278q-274 -154 -274 -412
q0 -144 96 -260q132 -152 381 -152q219 0 371 129q88 -84 190 -137zM436 393q0 57 35 108.5t94 86.5l213 -277q-92 -75 -184 -75q-75 0 -116.5 42.5t-41.5 114.5zM584 1085q0 29 26 49.5t64 20.5q46 0 73 -25.5t27 -66.5q0 -35 -41 -76q-30 -26 -43 -35q-6 -6 -18 -14
q-4 5 -22 26.5t-27 34.5q-39 55 -39 86z" />
    <glyph glyph-name="quotesingle" unicode="'" horiz-adv-x="641" 
d="M477 1360h-311v-221q0 -203 49 -338l8 -19h197l6 19q51 133 51 338v221z" />
    <glyph glyph-name="parenleft" unicode="(" horiz-adv-x="743" 
d="M344 -156q55 -90 88 -127l19 -20l229 160l-16 20q-37 55 -64 113q-162 314 -162 690q0 378 162 692q33 69 64 109l16 22l-229 160l-19 -21q-42 -47 -88 -126q-217 -365 -217 -836q0 -473 217 -836z" />
    <glyph glyph-name="parenright" unicode=")" horiz-adv-x="745" 
d="M63 -143l230 -160l20 20q33 37 88 127q217 363 217 836q0 471 -217 836q-46 79 -88 126l-20 21l-230 -160l17 -22q30 -36 65 -109q160 -316 160 -692q0 -374 -160 -690q-30 -65 -65 -113z" />
    <glyph glyph-name="asterisk" unicode="*" horiz-adv-x="1075" 
d="M655 522v197l-2 16l19 -14q15 -10 33.5 -21t48 -27t49.5 -28l28 -16l119 207l-24 14q-124 73 -127 74q-15 10 -39 18l39 19q17 9 36 20.5t45 27t46 27.5l24 13l-119 208l-28 -16q-24 -15 -67.5 -40t-61.5 -38l-21 -14q0 3 1 9t1 9v193h-239v-193q0 -3 1 -8t1 -8l-17 12
q-3 2 -131 78l-28 16l-115 -208l23 -13q108 -67 124 -75l41 -19q-22 -6 -41 -18q-21 -10 -63.5 -37t-60.5 -37l-23 -14l115 -207l28 16q58 32 76 41l57 35q6 9 15 12q-2 -4 -2 -14v-197h239z" />
    <glyph glyph-name="plus" unicode="+" horiz-adv-x="1445" 
d="M190 825v-288h377v-406h314v406h376v288h-376v404h-314v-404h-377z" />
    <glyph glyph-name="comma" unicode="," horiz-adv-x="716" 
d="M176 -174l125 -121l25 14q103 67 165 187.5t62 240.5q0 41 -9 77.5t-30 70.5t-60.5 54t-93.5 20q-94 0 -144 -57.5t-50 -139.5q0 -58 26 -106.5t80 -73.5q-36 -103 -79 -148z" />
    <glyph glyph-name="hyphen" unicode="-" horiz-adv-x="1320" 
d="M1130 537v288h-940v-288h940z" />
    <glyph glyph-name="period" unicode="." horiz-adv-x="716" 
d="M166 172q0 -82 49.5 -140.5t144.5 -58.5q91 0 142 59t51 140t-51.5 139t-141.5 58q-94 0 -144 -57.5t-50 -139.5z" />
    <glyph glyph-name="slash" unicode="/" horiz-adv-x="1241" 
d="M1141 1423l-260 131l-781 -1615l258 -134z" />
    <glyph glyph-name="zero" unicode="0" horiz-adv-x="1572" 
d="M166 680q0 -113 18.5 -212t64 -191.5t114.5 -158.5t177.5 -105.5t245.5 -39.5t245.5 39.5t178 106t115.5 158.5t65 191.5t19 211.5q0 113 -18.5 212t-64 191.5t-115.5 158t-178.5 105t-246.5 39.5q-137 0 -245 -39.5t-177 -105t-114.5 -158t-64.5 -191.5t-19 -212z
M489 680q0 64 8 119.5t29 109t53.5 91t85.5 60.5t121 23q295 0 295 -403q0 -401 -295 -401q-69 0 -121.5 22.5t-85 59.5t-53.5 90.5t-29 108.5t-8 120z" />
    <glyph glyph-name="one" unicode="1" horiz-adv-x="692" 
d="M504 0v1360h-314v-1360h314z" />
    <glyph glyph-name="two" unicode="2" horiz-adv-x="1445" 
d="M152 0h1118v289h-764q18 56 102 117q53 37 193 98q50 21 72 30.5t68 31.5t69 36.5t61 39.5t58 46t45.5 52t38 62.5t21.5 71t9 82.5q0 105 -42 188.5t-116 135.5t-169.5 79t-206.5 27q-157 0 -276 -51t-188 -155.5t-69 -251.5v-27h326v27q0 74 58.5 114.5t148.5 40.5
q209 0 209 -127q0 -57 -80 -106q-28 -18 -80 -41q-40 -18 -78 -31q-80 -34 -149 -71t-141 -90t-122.5 -111.5t-83 -135t-32.5 -159.5v-211z" />
    <glyph glyph-name="three" unicode="3" horiz-adv-x="1445" 
d="M489 434h-323v-26q0 -93 29 -167t79.5 -123.5t122 -82.5t153 -47.5t175.5 -14.5q117 0 214.5 24.5t176 74.5t122.5 136t44 200q0 186 -152 282q113 97 113 266q0 111 -40 195t-113 134.5t-168.5 75.5t-212.5 25q-116 0 -211 -25t-168 -76t-113.5 -134.5t-40.5 -194.5v-30
h328v30q-1 66 55.5 96.5t149.5 30.5q209 0 209 -127q0 -131 -193 -131h-221v-288h221q102 0 166.5 -30t64.5 -99q0 -129 -231 -129q-105 0 -171 29.5t-65 99.5v26z" />
    <glyph glyph-name="four" unicode="4" horiz-adv-x="1447" 
d="M76 260h706v-260h312v260h227v291h-227v809h-273l-745 -854v-246zM489 551l293 334v-334h-293z" />
    <glyph glyph-name="five" unicode="5" horiz-adv-x="1445" 
d="M489 434h-323v-26q0 -93 29 -167t79.5 -123.5t122 -82.5t153 -47.5t175.5 -14.5q121 0 221 26.5t176 80.5t118 142t42 204q0 115 -44 201.5t-122 137t-175.5 75t-215.5 24.5h-221v205h690v291h-1004v-787h535q231 0 231 -147t-231 -147q-101 0 -164 24q-75 35 -72 105v26
z" />
    <glyph glyph-name="six" unicode="6" horiz-adv-x="1443" 
d="M127 680q0 -113 18.5 -212t63.5 -191.5t114.5 -158.5t178 -105.5t246.5 -39.5q93 0 177 18t156.5 55t125 90.5t82.5 129.5t30 166q0 108 -43.5 194.5t-118.5 141t-173 83t-210 28.5q-161 0 -315 -74q35 278 280 278q84 0 145.5 -33t61.5 -94v-30h324v30
q0 137 -74.5 236.5t-193 146.5t-263.5 47q-135 0 -242 -40.5t-175 -107.5t-113 -159.5t-63.5 -191t-18.5 -207.5zM469 500q130 88 260 88q54 0 99 -7.5t84 -24.5t61 -48.5t22 -75.5q0 -75 -71.5 -114t-173.5 -39q-123 0 -189.5 54.5t-91.5 166.5z" />
    <glyph glyph-name="seven" unicode="7" horiz-adv-x="1359" 
d="M139 1360v-291h701l-488 -1069h340l514 1116v244h-1067z" />
    <glyph glyph-name="eight" unicode="8" horiz-adv-x="1445" 
d="M166 408q0 -93 29 -167t79.5 -123.5t122 -82.5t153 -47.5t175.5 -14.5q117 0 214.5 24.5t176 74.5t122.5 136t44 200q0 175 -168 282q129 108 129 266q0 109 -38 192t-107.5 134.5t-163 77.5t-209.5 26t-210.5 -26t-164.5 -77.5t-108.5 -134.5t-38.5 -192
q0 -162 129 -266q-166 -107 -166 -282zM489 408q0 68 67 98.5t169 30.5t166.5 -30t64.5 -99q0 -129 -231 -129q-236 0 -236 129zM528 956q0 127 197 127q89 0 141 -30.5t52 -96.5q0 -131 -193 -131q-197 0 -197 131z" />
    <glyph glyph-name="nine" unicode="9" horiz-adv-x="1443" 
d="M451 434h-324v-26q0 -85 34.5 -158t92 -123t133 -85.5t157.5 -52t165 -16.5q134 0 240.5 40.5t174.5 108t113 160.5t63.5 191t18.5 207q0 114 -18.5 213t-63.5 191.5t-114 158t-177.5 104.5t-247.5 39q-118 0 -219.5 -28t-181 -83t-125 -144t-45.5 -203q0 -107 43.5 -193
t118.5 -140.5t173 -83t210 -28.5q168 0 313 74q-35 -278 -276 -278q-98 0 -166 32q-90 39 -90 97zM453 928q0 78 71.5 116.5t173.5 38.5q121 0 188 -55.5t91 -165.5q-135 -88 -260 -88q-264 0 -264 154z" />
    <glyph glyph-name="colon" unicode=":" horiz-adv-x="716" 
d="M166 942q0 -83 50 -140t144 -57q92 0 142.5 57.5t50.5 139.5q0 80 -51 139.5t-142 59.5q-95 0 -144.5 -58.5t-49.5 -140.5zM166 172q0 -82 49.5 -140.5t144.5 -58.5q91 0 142 59t51 140t-51.5 139t-141.5 58q-94 0 -144 -57.5t-50 -139.5z" />
    <glyph glyph-name="semicolon" unicode=";" horiz-adv-x="716" 
d="M166 942q0 -83 50 -140t144 -57q92 0 142.5 57.5t50.5 139.5q0 80 -51 139.5t-142 59.5q-95 0 -144.5 -58.5t-49.5 -140.5zM166 172q0 -58 26 -106.5t80 -73.5q-36 -103 -79 -148l-17 -18l125 -121l25 14q103 67 165 187.5t62 240.5q0 41 -9 77.5t-30 70.5t-60.5 54
t-93.5 20q-94 0 -144 -57.5t-50 -139.5z" />
    <glyph glyph-name="less" unicode="&#x3c;" horiz-adv-x="763" 
d="M705 594l-224 119l224 121v215l-603 -336l603 -334v215z" />
    <glyph glyph-name="equal" unicode="=" horiz-adv-x="1445" 
d="M1257 797v290h-1067v-290h1067zM190 274h1067v291h-1067v-291z" />
    <glyph glyph-name="greater" unicode="&#x3e;" horiz-adv-x="727" 
d="M63 379l605 334l-605 336v-215l224 -121l-224 -119v-215z" />
    <glyph glyph-name="question" unicode="?" horiz-adv-x="1521" 
d="M604 680q0 -60 51 -205l7 -18h194l8 18q13 33 27 76q87 6 157 19t137 42t112 71.5t72.5 110.5t27.5 156q0 84 -25.5 152t-72.5 115t-106.5 80.5t-133 52.5t-146.5 27.5t-153 8.5q-90 0 -176.5 -14.5t-170 -48.5t-146.5 -84t-101.5 -126.5t-38.5 -170.5v-31h311v31
q0 79 113 119q86 35 209 35q121 0 213 -27q108 -38 108 -119q0 -71 -112 -96q-45 -10 -111 -14q-37 -2 -98 -2h-156v-158zM567 172q0 -82 50 -140.5t143 -58.5t144.5 58.5t51.5 140.5q0 81 -52 139t-144 58t-142.5 -58t-50.5 -139z" />
    <glyph glyph-name="at" unicode="@" horiz-adv-x="2125" 
d="M127 680q0 -212 74 -391t208 -306t329.5 -198.5t430.5 -71.5q139 0 293.5 39t245.5 115l18 14l-135 234l-28 -23q-63 -43 -178.5 -65.5t-219.5 -22.5q-163 0 -297 50t-225 139t-140.5 214t-49.5 273q0 107 22.5 205t71 184.5t118.5 150.5t170.5 101t221.5 37
q268 0 435 -152t167 -395q0 -91 -35.5 -164t-107.5 -110v542h-318v-35q-79 58 -194 58q-91 0 -168.5 -38.5t-126.5 -100t-76 -136t-27 -149.5q0 -78 26.5 -153.5t75.5 -138.5t127.5 -101.5t172.5 -38.5q64 0 125 24q135 -37 260 -37q274 0 435 163.5t161 414.5
q0 250 -117.5 440t-329.5 293t-487 103q-182 0 -334.5 -51.5t-261 -141.5t-184 -212.5t-112 -264.5t-36.5 -297zM936 678q0 55 39.5 98t93.5 43q59 0 98 -43t39 -102q0 -55 -40.5 -98.5t-96.5 -43.5t-94.5 44.5t-38.5 101.5z" />
    <glyph glyph-name="A" unicode="A" horiz-adv-x="1650" 
d="M1036 1360h-420l-540 -1360h334l129 334h567l131 -334h338zM647 623l172 432l180 -432h-352z" />
    <glyph glyph-name="B" unicode="B" horiz-adv-x="1646" 
d="M190 1360v-1360h910q100 0 179 34.5t128.5 93t75.5 133.5t26 159q0 179 -145 280q96 104 96 242q0 83 -26 157.5t-75.5 133t-128.5 93t-177 34.5h-863zM504 289v248h596q45 0 71.5 -29t26.5 -76v-39q0 -45 -26.5 -74.5t-71.5 -29.5h-596zM504 825v244h549q44 0 69 -28
t25 -74v-39q0 -45 -25.5 -74t-68.5 -29h-549z" />
    <glyph glyph-name="C" unicode="C" horiz-adv-x="1617" 
d="M127 680q0 -108 29 -211t87 -192.5t138.5 -157.5t191.5 -107t238 -39q139 0 259 46.5t204.5 127t139 186.5t73.5 228l4 31h-328l-4 -23q-30 -128 -122.5 -209t-225.5 -81q-84 0 -153 33.5t-113 90t-68 128t-24 149.5q0 77 23.5 148.5t67.5 129t113.5 91.5t153.5 34
q133 0 225.5 -81t122.5 -209l4 -21h328l-4 31q-19 120 -73.5 225t-139 185t-204.5 126.5t-259 46.5q-127 0 -238 -39t-191.5 -106t-138.5 -156.5t-87 -193t-29 -211.5z" />
    <glyph glyph-name="D" unicode="D" horiz-adv-x="1660" 
d="M190 1360v-1360h660q155 0 285 56t216.5 150t134.5 216.5t48 257.5t-47.5 258t-134 217t-217 149.5t-285.5 55.5h-660zM504 289v780h346q110 0 194 -56t125 -143.5t41 -189.5q0 -103 -41 -191t-125 -144t-194 -56h-346z" />
    <glyph glyph-name="E" unicode="E" horiz-adv-x="1636" 
d="M1485 1069v291h-1295v-1360h1295v289h-981v248h729v288h-729v244h981z" />
    <glyph glyph-name="F" unicode="F" horiz-adv-x="1587" 
d="M1460 1069v291h-1270v-1360h314v537h704v288h-704v244h956z" />
    <glyph glyph-name="G" unicode="G" 
d="M127 680q0 -108 29 -211t87 -192.5t138.5 -157.5t191.5 -107t238 -39q128 0 239 39t191.5 106.5t138.5 157t86.5 192.5t28.5 212q0 61 -8 108l-4 25h-703v-291h367q-42 -109 -129.5 -176t-206.5 -67q-84 0 -153 33.5t-113 90t-68 128t-24 149.5q0 77 23.5 148.5t67.5 129
t113.5 91.5t153.5 34q91 0 167 -41t124 -114l10 -15l350 7l-14 36q-74 193 -244 311.5t-393 118.5q-127 0 -238 -39t-191.5 -106t-138.5 -156.5t-87 -193t-29 -211.5z" />
    <glyph glyph-name="H" unicode="H" horiz-adv-x="1697" 
d="M504 825v535h-314v-1360h314v537h694v-537h311v1360h-311v-535h-694z" />
    <glyph glyph-name="I" unicode="I" horiz-adv-x="692" 
d="M504 0v1360h-314v-1360h314z" />
    <glyph glyph-name="J" unicode="J" horiz-adv-x="1396" 
d="M453 551h-314v-27q0 -106 36.5 -204t102.5 -176t168.5 -124.5t225.5 -46.5q124 0 227 46.5t169 124.5t102 176t36 204v836h-313v-836q0 -100 -60.5 -172.5t-160.5 -72.5q-99 0 -159 72.5t-60 172.5v27z" />
    <glyph glyph-name="K" unicode="K" horiz-adv-x="1665" 
d="M504 770v590h-314v-1360h314v358l235 220l445 -578h383l-606 784l618 576h-442z" />
    <glyph glyph-name="L" unicode="L" horiz-adv-x="1359" 
d="M504 289v1071h-314v-1360h1067v289h-753z" />
    <glyph glyph-name="M" unicode="M" horiz-adv-x="1697" 
d="M1509 1360h-274l-377 -547l-395 547h-273v-1360h314v811l203 -289h286l205 289v-811h311v1360z" />
    <glyph glyph-name="N" unicode="N" horiz-adv-x="1697" 
d="M1198 512l-737 848h-271v-1360h314v848l733 -848h272v1360h-311v-848z" />
    <glyph glyph-name="O" unicode="O" 
d="M127 680q0 -108 29 -211t87 -192.5t138.5 -157.5t191.5 -107t238 -39t238 39t191.5 107t138.5 157.5t87 192.5t29 211t-29 211.5t-87 193t-138.5 156.5t-191.5 106t-238 39t-238 -39t-191.5 -106t-138.5 -156.5t-87 -193t-29 -211.5zM453 680q0 77 23.5 148.5t67.5 129
t113.5 91.5t153.5 34t154 -34t114 -91.5t68 -129t24 -148.5q0 -62 -15 -120.5t-45.5 -109.5t-73 -89t-101 -60t-125.5 -22q-84 0 -153 33.5t-113 90t-68 128t-24 149.5z" />
    <glyph glyph-name="P" unicode="P" horiz-adv-x="1646" 
d="M190 1360v-1360h314v537h622q191 0 299.5 116t108.5 289q0 84 -26 158t-75 132.5t-128.5 93t-178.5 34.5h-936zM504 825v244h622q45 0 70 -27.5t25 -74.5v-39q0 -46 -25 -74.5t-70 -28.5h-622z" />
    <glyph glyph-name="Q" unicode="Q" horiz-adv-x="1632" 
d="M1536 133l-207 -205l-141 154q-168 -109 -377 -109q-127 0 -238 39t-191.5 107t-138.5 157.5t-87 192.5t-29 211t29 211.5t87 193t138.5 156.5t191.5 106t238 39t238 -39t191.5 -106t138.5 -156.5t87 -193t29 -211.5q0 -221 -104 -391zM453 680q0 -78 24 -149.5t68 -128
t113 -90t153 -33.5q89 0 156 34l-209 215l207 205l186 -194q20 67 20 141q0 77 -24 148.5t-68 129t-114 91.5t-154 34t-153.5 -34t-113.5 -91.5t-67.5 -129t-23.5 -148.5z" />
    <glyph glyph-name="R" unicode="R" horiz-adv-x="1693" 
d="M190 1360v-1360h314v537h379l319 -537h354l-311 518q-2 6 -9.5 16.5t-8.5 12.5q148 30 227.5 140t79.5 255q0 84 -26 158t-75 132.5t-128.5 93t-178.5 34.5h-936zM504 825v244h622q45 0 70 -27.5t25 -74.5v-39q0 -46 -25 -74.5t-70 -28.5h-622z" />
    <glyph glyph-name="S" unicode="S" horiz-adv-x="1521" 
d="M438 446h-311v-26q0 -94 38.5 -171t101.5 -127.5t146.5 -84.5t170 -49t176.5 -15q100 0 188.5 13t172.5 45.5t143.5 82.5t96 130t36.5 182q0 75 -19 135.5t-51 103t-80 74t-100 50t-117.5 30t-125 15.5t-130.5 4q-61 0 -96 2q-62 4 -105 14q-108 22 -108 96q0 84 96 117
q74 29 199 29q110 0 198 -35q99 -42 99 -119v-31h313v31q0 91 -36 166.5t-95.5 126t-139 85.5t-165 50.5t-174.5 15.5q-97 0 -181.5 -12.5t-164.5 -44t-137 -80t-91 -125t-34 -174.5q0 -73 18 -132t48 -100t76 -72t95.5 -49t112.5 -29t121 -15t127 -4q63 0 102 -2
q65 -4 115 -17q114 -28 114 -104q0 -86 -104 -131q-84 -31 -217 -31q-122 0 -209 33q-113 44 -113 123v26z" />
    <glyph glyph-name="T" unicode="T" horiz-adv-x="1521" 
d="M100 1360v-291h504v-1069h314v1069h503v291h-1321z" />
    <glyph glyph-name="U" unicode="U" horiz-adv-x="1648" 
d="M504 1360h-314v-707q0 -101 25.5 -198.5t78.5 -184.5t127 -153t178.5 -105t225.5 -39t225.5 39t178.5 105.5t127 153.5t78.5 184.5t25.5 197.5v707h-313v-707q0 -95 -35.5 -178.5t-110.5 -139.5t-176 -56q-77 0 -139.5 32t-101.5 85.5t-59.5 119.5t-20.5 137v707z" />
    <glyph glyph-name="V" unicode="V" horiz-adv-x="1650" 
d="M412 1360h-336l540 -1360h420l539 1360h-334q-399 -1006 -405 -1067z" />
    <glyph glyph-name="W" unicode="W" horiz-adv-x="1755" 
d="M506 573l-96 787h-310l160 -1360h315l302 731l309 -731h311l158 1360h-307l-82 -787l-240 525h-293z" />
    <glyph glyph-name="X" unicode="X" horiz-adv-x="1634" 
d="M485 1360h-395l526 -658l-565 -702h383l371 467l375 -467h403l-571 707l532 653h-389l-334 -416z" />
    <glyph glyph-name="Y" unicode="Y" horiz-adv-x="1515" 
d="M913 479l551 881h-364l-340 -576l-348 576h-361l551 -881v-479h311v479z" />
    <glyph glyph-name="Z" unicode="Z" horiz-adv-x="1597" 
d="M176 1069h778l-802 -823v-246h1294v289h-830l805 823v248h-1245v-291z" />
    <glyph glyph-name="bracketleft" unicode="[" horiz-adv-x="806" 
d="M690 1329v293h-500v-1882h500v289h-186v1300h186z" />
    <glyph glyph-name="backslash" unicode="\" horiz-adv-x="1241" 
d="M1141 -61l-783 1615l-258 -131l781 -1618z" />
    <glyph glyph-name="bracketright" unicode="]" horiz-adv-x="806" 
d="M303 1329l-2 -1300h-186l2 -289h497v1882h-499v-293h188z" />
    <glyph glyph-name="asciicircum" unicode="^" horiz-adv-x="706" 
d="M371 1128l51 -108h201l-156 321h-197l-153 -321h200z" />
    <glyph glyph-name="underscore" unicode="_" horiz-adv-x="1320" 
d="M1130 -248v289h-940v-289h940z" />
    <glyph glyph-name="grave" unicode="`" horiz-adv-x="632" 
d="M502 1030l-150 328h-274l233 -328h191z" />
    <glyph glyph-name="a" unicode="a" horiz-adv-x="1650" 
d="M1036 1360h-420l-540 -1360h334l129 334h567l131 -334h338zM645 623l174 434l180 -434h-354z" />
    <glyph glyph-name="b" unicode="b" horiz-adv-x="1646" 
d="M190 1360v-1360h910q100 0 179 34.5t128.5 93t75.5 133.5t26 159q0 179 -145 280q96 104 96 242q0 83 -26 157.5t-75.5 133t-128.5 93t-177 34.5h-863zM504 289v248h596q45 0 71.5 -29t26.5 -76v-39q0 -45 -26.5 -74.5t-71.5 -29.5h-596zM504 825v244h549q44 0 69 -28
t25 -74v-39q0 -45 -25.5 -74t-68.5 -29h-549z" />
    <glyph glyph-name="c" unicode="c" horiz-adv-x="1617" 
d="M127 680q0 -108 29 -211t87 -192.5t138.5 -157.5t191.5 -107t238 -39q139 0 259 46.5t204.5 127t139 186.5t73.5 228l4 31h-328l-4 -23q-30 -128 -122.5 -209t-225.5 -81q-84 0 -153 33.5t-113 90t-68 128t-24 149.5q0 77 23.5 148.5t67.5 129t113.5 91.5t153.5 34
q133 0 225.5 -81t122.5 -209l4 -21h328l-4 31q-19 120 -73.5 225t-139 185t-204.5 126.5t-259 46.5q-127 0 -238 -39t-191.5 -106t-138.5 -156.5t-87 -193t-29 -211.5z" />
    <glyph glyph-name="d" unicode="d" horiz-adv-x="1660" 
d="M190 1360v-1360h660q155 0 285 56t216.5 150t134.5 216.5t48 257.5t-47.5 258t-134 217t-217 149.5t-285.5 55.5h-660zM504 289v780h346q110 0 194 -56t125 -143.5t41 -189.5q0 -103 -41 -191t-125 -144t-194 -56h-346z" />
    <glyph glyph-name="e" unicode="e" horiz-adv-x="1636" 
d="M1485 1069v291h-1295v-1360h1295v289h-981v248h729v288h-729v244h981z" />
    <glyph glyph-name="f" unicode="f" horiz-adv-x="1587" 
d="M1460 1069v291h-1270v-1360h314v537h704v288h-704v244h956z" />
    <glyph glyph-name="g" unicode="g" 
d="M127 680q0 -108 29 -211t87 -192.5t138.5 -157.5t191.5 -107t238 -39q128 0 239 39t191.5 106.5t138.5 157t86.5 192.5t28.5 212q0 61 -8 108l-4 25h-703v-291h367q-42 -109 -129.5 -176t-206.5 -67q-84 0 -153 33.5t-113 90t-68 128t-24 149.5q0 77 23.5 148.5t67.5 129
t113.5 91.5t153.5 34q91 0 167 -41t124 -114l10 -15l350 7l-14 36q-74 193 -244 311.5t-393 118.5q-127 0 -238 -39t-191.5 -106t-138.5 -156.5t-87 -193t-29 -211.5z" />
    <glyph glyph-name="h" unicode="h" horiz-adv-x="1697" 
d="M504 825v535h-314v-1360h314v537h694v-537h311v1360h-311v-535h-694z" />
    <glyph glyph-name="i" unicode="i" horiz-adv-x="692" 
d="M504 0v1360h-314v-1360h314z" />
    <glyph glyph-name="j" unicode="j" horiz-adv-x="1421" 
d="M477 551h-311v-27q0 -106 36 -204.5t102 -176t168.5 -124t225.5 -46.5t226 46.5t169.5 124.5t103 176t36.5 204v836h-315v-836q0 -100 -60 -172.5t-160 -72.5q-99 0 -160 72.5t-61 172.5v27z" />
    <glyph glyph-name="k" unicode="k" horiz-adv-x="1665" 
d="M504 770v590h-314v-1360h314v358l235 220l445 -578h383l-606 784l618 576h-442z" />
    <glyph glyph-name="l" unicode="l" horiz-adv-x="1359" 
d="M504 289v1071h-314v-1360h1067v289h-753z" />
    <glyph glyph-name="m" unicode="m" horiz-adv-x="1697" 
d="M1509 1360h-274l-377 -547l-395 547h-273v-1360h314v811l203 -289h286l205 289v-811h311v1360z" />
    <glyph glyph-name="n" unicode="n" horiz-adv-x="1697" 
d="M1198 512l-737 848h-271v-1360h314v848l733 -848h272v1360h-311v-848z" />
    <glyph glyph-name="o" unicode="o" 
d="M127 680q0 -108 29 -211t87 -192.5t138.5 -157.5t191.5 -107t238 -39t238 39t191.5 107t138.5 157.5t87 192.5t29 211t-29 211.5t-87 193t-138.5 156.5t-191.5 106t-238 39t-238 -39t-191.5 -106t-138.5 -156.5t-87 -193t-29 -211.5zM453 680q0 77 23.5 148.5t67.5 129
t113.5 91.5t153.5 34t154 -34t114 -91.5t68 -129t24 -148.5q0 -62 -15 -120.5t-45.5 -109.5t-73 -89t-101 -60t-125.5 -22q-84 0 -153 33.5t-113 90t-68 128t-24 149.5z" />
    <glyph glyph-name="p" unicode="p" horiz-adv-x="1660" 
d="M190 1360v-1360h314v537h622q191 0 299.5 116t108.5 289q0 84 -26 158t-75 132.5t-128.5 93t-178.5 34.5h-936zM504 825v244h622q45 0 70 -27.5t25 -74.5v-39q0 -46 -25 -74.5t-70 -28.5h-622z" />
    <glyph glyph-name="q" unicode="q" horiz-adv-x="1632" 
d="M1536 133l-207 -205l-141 154q-168 -109 -377 -109q-127 0 -238 39t-191.5 107t-138.5 157.5t-87 192.5t-29 211t29 211.5t87 193t138.5 156.5t191.5 106t238 39t238 -39t191.5 -106t138.5 -156.5t87 -193t29 -211.5q0 -221 -104 -391zM453 680q0 -78 24 -149.5t68 -128
t113 -90t153 -33.5q89 0 156 34l-209 215l207 205l186 -194q20 67 20 141q0 77 -24 148.5t-68 129t-114 91.5t-154 34t-153.5 -34t-113.5 -91.5t-67.5 -129t-23.5 -148.5z" />
    <glyph glyph-name="r" unicode="r" horiz-adv-x="1693" 
d="M190 1360v-1360h314v537h379l319 -537h354l-311 518q-2 6 -9.5 16.5t-8.5 12.5q148 30 227.5 140t79.5 255q0 84 -26 158t-75 132.5t-128.5 93t-178.5 34.5h-936zM504 825v244h622q45 0 70 -27.5t25 -74.5v-39q0 -46 -25 -74.5t-70 -28.5h-622z" />
    <glyph glyph-name="s" unicode="s" horiz-adv-x="1521" 
d="M438 446h-311v-26q0 -94 38.5 -171t101.5 -127.5t146.5 -84.5t170 -49t176.5 -15q100 0 188.5 13t172.5 45.5t143.5 82.5t96 130t36.5 182q0 75 -19 135.5t-51 103t-80 74t-100 50t-117.5 30t-125 15.5t-130.5 4q-61 0 -96 2q-62 4 -105 14q-108 22 -108 96q0 84 96 117
q74 29 199 29q110 0 198 -35q99 -42 99 -119v-31h313v31q0 91 -36 166.5t-95.5 126t-139 85.5t-165 50.5t-174.5 15.5q-97 0 -181.5 -12.5t-164.5 -44t-137 -80t-91 -125t-34 -174.5q0 -73 18 -132t48 -100t76 -72t95.5 -49t112.5 -29t121 -15t127 -4q63 0 102 -2
q65 -4 115 -17q114 -28 114 -104q0 -86 -104 -131q-84 -31 -217 -31q-122 0 -209 33q-113 44 -113 123v26z" />
    <glyph glyph-name="t" unicode="t" horiz-adv-x="1521" 
d="M100 1360v-291h504v-1069h314v1069h503v291h-1321z" />
    <glyph glyph-name="u" unicode="u" horiz-adv-x="1648" 
d="M504 1360h-314v-707q0 -101 25.5 -198.5t78.5 -184.5t127 -153t178.5 -105t225.5 -39t225.5 39t178.5 105.5t127 153.5t78.5 184.5t25.5 197.5v707h-313v-707q0 -95 -35.5 -178.5t-110.5 -139.5t-176 -56q-77 0 -139.5 32t-101.5 85.5t-59.5 119.5t-20.5 137v707z" />
    <glyph glyph-name="v" unicode="v" horiz-adv-x="1650" 
d="M412 1360h-336l540 -1360h420l539 1360h-334q-399 -1006 -405 -1067z" />
    <glyph glyph-name="w" unicode="w" horiz-adv-x="1755" 
d="M506 573l-96 787h-310l160 -1360h315l302 731l309 -731h311l158 1360h-307l-82 -787l-240 525h-293z" />
    <glyph glyph-name="x" unicode="x" horiz-adv-x="1712" 
d="M504 1360h-387l542 -658l-583 -702h393l383 471l391 -471h393l-585 702l548 658h-395l-346 -424z" />
    <glyph glyph-name="y" unicode="y" horiz-adv-x="1564" 
d="M942 479l551 881h-365l-340 -576l-348 576h-360l551 -881v-479h311v479z" />
    <glyph glyph-name="z" unicode="z" horiz-adv-x="1597" 
d="M176 1069h778l-802 -823v-246h1294v289h-830l805 823v248h-1245v-291z" />
    <glyph glyph-name="braceleft" unicode="{" horiz-adv-x="870" 
d="M254 158q0 -84 26 -158t75.5 -132.5t128.5 -93t178 -34.5h94v289h-94q-45 0 -71 25t-26 69v258q0 191 -127 299q127 108 127 301v256q0 43 26.5 67.5t70.5 24.5h94v293h-94q-99 0 -178 -34.5t-128.5 -93.5t-75.5 -133.5t-26 -158.5v-274q0 -45 -26 -74t-70 -29h-95v-288
h95q44 0 70 -29.5t26 -75.5v-274z" />
    <glyph glyph-name="bar" unicode="|" horiz-adv-x="692" 
d="M504 -260v1884l-314 -4v-1880h314z" />
    <glyph glyph-name="braceright" unicode="}" horiz-adv-x="866" 
d="M115 29v-289h90q131 0 225.5 59.5t139 152.5t44.5 206v274q0 47 25.5 76t69.5 29h96v288h-96q-43 0 -69 29t-26 74v274q0 84 -26 159t-76 133.5t-129 93t-178 34.5h-90v-293h90q72 0 88 -55q6 -22 10 -76q0 -14 -1 -48t-1 -52q-4 -47 -0.5 -104.5t12.5 -110.5
t39.5 -107.5t79.5 -95.5q-49 -41 -80 -95.5t-40 -107.5t-12.5 -111t1.5 -106q0 -18 1 -50.5t1 -47.5q-3 -53 -10 -78q-16 -55 -88 -55h-90z" />
    <glyph glyph-name="asciitilde" unicode="~" horiz-adv-x="612" 
d="M561 1731v180l-104 -80q-47 -31 -74 -31q-14 0 -30 18t-30.5 39.5t-42 39.5t-61.5 18q-46 0 -102 -31q-33 -18 -74 -55l-4 -4l-2 -195l45 43q3 2 27 25.5t41 36.5q50 41 73 41q16 0 44.5 -32t58.5 -63.5t51 -31.5q88 0 180 77z" />
    <glyph glyph-name="exclamdown" unicode="&#xa1;" horiz-adv-x="716" 
d="M166 1161q0 -83 50 -139.5t144 -56.5q91 0 142 57t51 139q0 80 -51 139.5t-142 59.5q-95 0 -144.5 -59t-49.5 -140zM203 -27h309v287q0 330 -47 592l-4 22h-203l-4 -22q-51 -255 -51 -592v-287z" />
    <glyph glyph-name="cent" unicode="&#xa2;" horiz-adv-x="1228" 
d="M477 -252h207v389q183 27 298.5 152.5t141.5 296.5l4 30h-266l-6 -20q-14 -72 -58.5 -126.5t-113.5 -78.5v580q68 -24 113 -79t59 -124l6 -23h266l-4 31q-26 171 -141.5 296t-298.5 153v379h-207v-387q-100 -20 -180.5 -73.5t-130.5 -127.5t-76.5 -160t-26.5 -176
q0 -91 26.5 -177t76.5 -159.5t130.5 -127t180.5 -73.5v-395zM328 680q0 91 37.5 165t111.5 111v-553q-73 37 -111 112t-38 165z" />
    <glyph glyph-name="sterling" unicode="&#xa3;" horiz-adv-x="1273" 
d="M63 246l125 -291l33 22q107 80 217 80q48 0 101 -12q12 -3 104 -29q151 -43 229 -43q129 0 277 72l25 12l-130 285l-30 -14q-100 -49 -178 -49q-52 0 -136 24q-46 15 -73 19q-45 10 -80 10q-19 0 -51 -4q49 67 70 126t24 148h248v272h-301q-41 112 -41 203
q0 67 39.5 112.5t105.5 45.5q129 0 154 -174l4 -29l313 49l-4 27q-21 185 -138 292t-321 107q-33 0 -49 -4q-3 0 -45 -6q-228 -34 -299 -164q-74 -140 -74 -254q0 -90 27 -205h-139v-272h200v-27q0 -179 -190 -317z" />
    <glyph glyph-name="yen" unicode="&#xa5;" horiz-adv-x="1271" 
d="M125 532v-266h334v-250h313v250h334v266h-334v52h334v264h-217l280 584h-344l-192 -410l-19 -43l-18 43l-193 410h-340l279 -584h-217v-264h334v-52h-334z" />
    <glyph glyph-name="section" unicode="&#xa7;" horiz-adv-x="1167" 
d="M360 336h-290v-17q27 -333 524 -333q101 0 187.5 18.5t156 55.5t109.5 100t40 145q0 121 -88 195q84 84 84 196q0 62 -22 110t-57 78.5t-86.5 52.5t-101 32.5t-109.5 17.5q-19 2 -112.5 8.5t-133.5 12.5q-94 13 -94 47q0 44 67 67q62 23 135 23q55 0 127 -17
q50 -12 66 -18q20 -9 20 -16q0 -10 -2 -30t-2 -30l-2 -16h283v45q0 80 -39 140.5t-107 95.5t-151 52t-180 17t-182.5 -18.5t-155 -55t-110 -98t-40.5 -141.5q0 -125 94 -195q-88 -82 -88 -194q0 -63 22.5 -111.5t57 -77.5t86.5 -49t100 -29t109 -14q21 -2 113 -7.5
t131 -12.5q50 -8 73 -23.5t23 -42.5q0 -49 -74 -72q-63 -18 -147 -18q-82 0 -148 18q-86 22 -86 58v51zM371 666q0 41 69 67q62 21 133 21q66 0 146 -15q51 -11 69 -24q21 -12 21 -25q0 -37 -57 -62.5t-119 -25.5q-43 0 -125 10t-109 21q-28 11 -28 33z" />
    <glyph glyph-name="dieresis" unicode="&#xa8;" horiz-adv-x="628" 
d="M289 1155q0 48 -35 85.5t-102 37.5t-101.5 -38t-34.5 -85q0 -50 34 -87.5t102 -37.5q67 0 102 37t35 88zM340 1153q0 -50 33.5 -88.5t99.5 -38.5q68 0 103.5 38t35.5 89q0 48 -35.5 85.5t-103.5 37.5q-66 0 -99.5 -37.5t-33.5 -85.5z" />
    <glyph glyph-name="copyright" unicode="&#xa9;" horiz-adv-x="1714" 
d="M1526 676q0 133 -52.5 258.5t-143.5 221.5t-224 154t-285 58q-122 0 -232.5 -37.5t-195.5 -104t-147.5 -153t-95.5 -189t-33 -208.5q0 -132 52.5 -257.5t143 -221.5t224 -154.5t284.5 -58.5t284.5 58.5t224.5 154.5t143.5 221.5t52.5 257.5zM354 676q0 121 59.5 226.5
t168 171t239.5 65.5t239 -65.5t167 -171t59 -226.5t-59 -226.5t-167 -171t-239 -65.5t-239.5 65.5t-168 171t-59.5 226.5zM471 680q0 -93 39.5 -174t121.5 -134t191 -53q142 0 235 86.5t111 215.5l5 30h-189l-6 -22q-14 -59 -56 -96t-100 -37q-72 0 -116.5 54.5t-44.5 129.5
t44.5 128.5t116.5 53.5q59 0 100.5 -35.5t55.5 -93.5l6 -24h189l-5 34q-20 127 -112 212t-234 85q-109 0 -191 -53t-121.5 -134t-39.5 -173z" />
    <glyph glyph-name="ordfeminine" unicode="&#xaa;" horiz-adv-x="776" 
d="M307 1878l-276 -631h205l59 139h180l62 -139h208l-294 631h-144zM365 1552l20 43l18 -43h-38z" />
    <glyph glyph-name="guillemotleft" unicode="&#xab;" horiz-adv-x="1044" 
d="M610 580l-239 129l239 131v178l-555 -309l555 -308v179zM463 709l553 -308v179l-240 129l240 131v178z" />
    <glyph glyph-name="registered" unicode="&#xae;" horiz-adv-x="1552" 
d="M1526 676q0 133 -52.5 258.5t-143.5 221.5t-224 154t-285 58q-122 0 -232.5 -37.5t-195.5 -104t-147.5 -153t-95.5 -189t-33 -208.5q0 -132 52.5 -257.5t143 -221.5t224 -154.5t284.5 -58.5t284.5 58.5t224.5 154.5t143.5 221.5t52.5 257.5zM354 676q0 121 59.5 226.5
t168 171t239.5 65.5t239 -65.5t167 -171t59 -226.5t-59 -226.5t-167 -171t-239 -65.5t-239.5 65.5t-168 171t-59.5 226.5zM537 375h165v227h134l135 -227h188l-22 41q-16 25 -56 93t-63 103q59 19 91 69t32 110q0 78 -50.5 136t-140.5 58h-413v-610zM702 758v71h248
q23 0 23 -26v-17q0 -28 -23 -28h-248z" />
    <glyph glyph-name="macron" unicode="&#xaf;" horiz-adv-x="698" 
d="M541 1174h-449v-150h449v150z" />
    <glyph glyph-name="degree" unicode="&#xb0;" horiz-adv-x="391" 
d="M195 1327q-82 0 -123 -48t-41 -108t41 -108.5t123 -48.5t122.5 48.5t40.5 108.5t-40.5 108t-122.5 48zM166 1171q0 20 5 24.5t26 4.5q15 0 19.5 -5t4.5 -24t-4.5 -23.5t-21.5 -4.5q-18 0 -23.5 5t-5.5 23z" />
    <glyph glyph-name="acute" unicode="&#xb4;" horiz-adv-x="563" 
d="M348 1348l-155 -328h196l234 336z" />
    <glyph glyph-name="periodcentered" unicode="&#xb7;" horiz-adv-x="657" 
d="M330 807q78 0 121 49.5t43 122.5q0 71 -44 120.5t-120 49.5q-78 0 -121 -49.5t-43 -120.5q0 -74 42.5 -123t121.5 -49z" />
    <glyph glyph-name="cedilla" unicode="&#xb8;" horiz-adv-x="624" 
d="M178 -154q11 24 21 48.5t21.5 55t19.5 50.5l4 10h159l-10 -49q131 -39 131 -172q0 -84 -58.5 -145.5t-168.5 -61.5q-82 0 -141.5 44t-89.5 106q-3 5 -15.5 41t-11.5 37l168 -3q51 -57 84 -57q52 0 55 33q1 28 -22.5 41.5t-53.5 12.5t-58.5 -1.5t-37.5 0.5z" />
    <glyph glyph-name="ordmasculine" unicode="&#xba;" horiz-adv-x="731" 
d="M367 1882q-80 0 -143.5 -31.5t-99.5 -81.5t-54.5 -104t-18.5 -106q0 -54 18.5 -109t54.5 -105t99.5 -82t143.5 -32q65 0 119 21t89 55t59.5 78t35 88t10.5 86q0 52 -18 106t-53.5 104t-98.5 81.5t-143 31.5zM248 1559q0 55 31 101t88 46q55 0 85.5 -46t30.5 -101
q0 -58 -30 -104t-86 -46q-57 0 -88 46.5t-31 103.5z" />
    <glyph glyph-name="guillemotright" unicode="&#xbb;" horiz-adv-x="1073" 
d="M55 401l555 308l-555 309v-178l240 -131l-240 -129v-179zM463 401l553 308l-553 309v-178l239 -131l-239 -129v-179z" />
    <glyph glyph-name="questiondown" unicode="&#xbf;" horiz-adv-x="1521" 
d="M956 1188q0 80 -50.5 139t-141.5 59q-94 0 -145.5 -58.5t-51.5 -139.5q0 -82 52 -139.5t145 -57.5q91 0 141.5 57.5t50.5 139.5zM127 410q0 -101 37.5 -179t98 -125.5t146 -78.5t171.5 -42.5t184 -11.5q89 0 175.5 14.5t170 48.5t147 84t102 127t38.5 171v28h-314v-28
q0 -77 -110 -121q-88 -35 -209 -35q-124 0 -213 27q-111 41 -111 121q0 69 115 94q57 13 109 16q37 2 100 2h154v156q0 63 -52 205l-6 18h-194l-9 -18q-12 -29 -26 -74q-86 -6 -156 -19.5t-137 -42.5t-111.5 -71.5t-72 -110t-27.5 -155.5z" />
    <glyph glyph-name="Agrave" unicode="&#xc0;" horiz-adv-x="1650" 
d="M1036 1559l-151 325h-273l232 -325h192zM76 0h334l129 334h567l131 -334h338l-539 1360h-420zM647 623l172 432l180 -432h-352z" />
    <glyph glyph-name="Aacute" unicode="&#xc1;" horiz-adv-x="1650" 
d="M846 1874l-156 -328h197l233 336zM76 0h334l129 334h567l131 -334h338l-539 1360h-420zM647 623l172 432l180 -432h-352z" />
    <glyph glyph-name="Acircumflex" unicode="&#xc2;" horiz-adv-x="1650" 
d="M827 1663l52 -109h200l-155 322h-195l-156 -322h201zM76 0h334l129 334h567l131 -334h338l-539 1360h-420zM647 623l172 432l180 -432h-352z" />
    <glyph glyph-name="Atilde" unicode="&#xc3;" horiz-adv-x="1650" 
d="M1087 1665v180l-102 -78q-38 -32 -76 -32q-14 0 -30 18t-30 39t-41 39t-60 18q-57 0 -105 -30q-29 -17 -72 -56l-4 -4l-2 -194l45 43q42 42 66 61q51 39 76 39q16 0 43.5 -31t57 -62.5t50.5 -31.5q87 0 180 78zM76 0h334l129 334h567l131 -334h338l-539 1360h-420z
M647 623l172 432l180 -432h-352z" />
    <glyph glyph-name="Adieresis" unicode="&#xc4;" horiz-adv-x="1650" 
d="M801 1681q0 49 -35.5 87t-103.5 38q-66 0 -100 -39t-34 -86q0 -49 33.5 -85.5t100.5 -36.5q68 0 103.5 36.5t35.5 85.5zM76 0h334l129 334h567l131 -334h338l-539 1360h-420zM647 623l172 432l180 -432h-352zM850 1679q0 -48 34 -86.5t101 -38.5t102 37.5t35 87.5
q0 49 -35 87t-102 38t-101 -38.5t-34 -86.5z" />
    <glyph glyph-name="Aring" unicode="&#xc5;" horiz-adv-x="1650" 
d="M676 1708q0 -55 37 -101t112 -46q77 0 114.5 46t37.5 101q0 56 -37.5 100.5t-114.5 44.5q-76 0 -112.5 -45t-36.5 -100zM76 0h334l129 334h567l131 -334h338l-539 1360h-420zM647 623l172 432l180 -432h-352zM809 1708q0 18 16 18q15 0 15 -18q0 -12 -3 -15t-12 -3
q-6 0 -9 0.5t-5 4.5t-2 13z" />
    <glyph glyph-name="AE" unicode="&#xc6;" horiz-adv-x="2242" 
d="M2091 289v-289h-1294v334h-260l-129 -334h-334l540 1360h1477v-291h-981v-244h729v-288h-729v-248h981zM645 623h152v383z" />
    <glyph glyph-name="Ccedilla" unicode="&#xc7;" horiz-adv-x="1617" 
d="M127 680q0 -104 26.5 -203t80 -186t127.5 -155t176 -110.5t219 -50.5q2 4 5 12.5t5 12.5l4 10h160l-8 -28q231 34 380.5 194.5t184.5 384.5l4 31h-328l-4 -23q-30 -128 -122.5 -209t-225.5 -81q-84 0 -153 33.5t-113 90t-68 128t-24 149.5q0 77 23.5 148.5t67.5 129
t113.5 91.5t153.5 34q133 0 225.5 -81t122.5 -209l4 -21h328l-4 31q-19 120 -73.5 225t-139 185t-204.5 126.5t-259 46.5q-127 0 -238 -39t-191.5 -106t-138.5 -156.5t-87 -193t-29 -211.5zM565 -190l168 -3q51 -57 84 -57q50 0 53 33q1 28 -22 41.5t-53 12.5t-58.5 -1.5
t-38.5 0.5l4 10q30 61 54 129q18 -2 55 -2q59 0 111 9l-4 -21q131 -38 131 -172q0 -84 -58 -145.5t-168 -61.5q-83 0 -142 43.5t-89 106.5q-3 5 -15.5 41t-11.5 37z" />
    <glyph glyph-name="Egrave" unicode="&#xc8;" horiz-adv-x="1636" 
d="M1030 1559l-151 325h-273l232 -325h192zM190 0h1295v289h-981v248h729v288h-729v244h981v291h-1295v-1360z" />
    <glyph glyph-name="Eacute" unicode="&#xc9;" horiz-adv-x="1636" 
d="M758 1874l-156 -328h197l233 336zM190 0h1295v289h-981v248h729v288h-729v244h981v291h-1295v-1360z" />
    <glyph glyph-name="Ecircumflex" unicode="&#xca;" horiz-adv-x="1636" 
d="M819 1663l51 -109h201l-156 322h-196l-154 -322h201zM190 0h1295v289h-981v248h729v288h-729v244h981v291h-1295v-1360z" />
    <glyph glyph-name="Edieresis" unicode="&#xcb;" horiz-adv-x="1636" 
d="M793 1681q0 49 -36 87t-104 38q-66 0 -99.5 -39t-33.5 -86q0 -49 33.5 -85.5t99.5 -36.5q69 0 104.5 36.5t35.5 85.5zM190 0h1295v289h-981v248h729v288h-729v244h981v291h-1295v-1360zM842 1679q0 -48 34 -86.5t101 -38.5t102 37.5t35 87.5q0 49 -35 87t-102 38
t-101 -38.5t-34 -86.5z" />
    <glyph glyph-name="Igrave" unicode="&#xcc;" horiz-adv-x="694" 
d="M559 1559l-151 325h-273l232 -325h192zM190 0h314v1360h-314v-1360z" />
    <glyph glyph-name="Iacute" unicode="&#xcd;" horiz-adv-x="694" 
d="M285 1874l-154 -328h197l233 336zM190 0h314v1360h-314v-1360z" />
    <glyph glyph-name="Icircumflex" unicode="&#xce;" horiz-adv-x="696" 
d="M350 1663l51 -109h201l-156 322h-196l-156 -322h201zM193 0h313v1360h-313v-1360z" />
    <glyph glyph-name="Idieresis" unicode="&#xcf;" horiz-adv-x="696" 
d="M324 1681q0 48 -36.5 86.5t-103.5 38.5t-101 -39t-34 -86q0 -49 33.5 -85.5t101.5 -36.5q67 0 103.5 36.5t36.5 85.5zM193 0h313v1360h-313v-1360zM373 1679q0 -48 33.5 -86.5t99.5 -38.5q68 0 103.5 37.5t35.5 87.5q0 49 -35.5 87t-103.5 38q-66 0 -99.5 -38.5
t-33.5 -86.5z" />
    <glyph glyph-name="Ntilde" unicode="&#xd1;" horiz-adv-x="1697" 
d="M1110 1665v180l-102 -78q-38 -32 -74 -32q-14 0 -31 18t-31 39t-41.5 39t-60.5 18q-56 0 -104 -30q-29 -17 -72 -56l-4 -4l-2 -194l45 43q46 46 65 61q55 39 76 39q16 0 44 -31t57.5 -62.5t50.5 -31.5q87 0 180 78zM190 0h314v848l733 -848h272v1360h-311v-848l-737 848
h-271v-1360z" />
    <glyph glyph-name="Ograve" unicode="&#xd2;" 
d="M1022 1559l-152 325h-272l231 -325h193zM127 680q0 -108 29 -211t87 -192.5t138.5 -157.5t191.5 -107t238 -39t238 39t191.5 107t138.5 157.5t87 192.5t29 211t-29 211.5t-87 193t-138.5 156.5t-191.5 106t-238 39t-238 -39t-191.5 -106t-138.5 -156.5t-87 -193
t-29 -211.5zM453 680q0 77 23.5 148.5t67.5 129t113.5 91.5t153.5 34t154 -34t114 -91.5t68 -129t24 -148.5q0 -62 -15 -120.5t-45.5 -109.5t-73 -89t-101 -60t-125.5 -22q-84 0 -153 33.5t-113 90t-68 128t-24 149.5z" />
    <glyph glyph-name="Oacute" unicode="&#xd3;" 
d="M752 1874l-156 -328h197l233 336zM127 680q0 -108 29 -211t87 -192.5t138.5 -157.5t191.5 -107t238 -39t238 39t191.5 107t138.5 157.5t87 192.5t29 211t-29 211.5t-87 193t-138.5 156.5t-191.5 106t-238 39t-238 -39t-191.5 -106t-138.5 -156.5t-87 -193t-29 -211.5z
M453 680q0 77 23.5 148.5t67.5 129t113.5 91.5t153.5 34t154 -34t114 -91.5t68 -129t24 -148.5q0 -62 -15 -120.5t-45.5 -109.5t-73 -89t-101 -60t-125.5 -22q-84 0 -153 33.5t-113 90t-68 128t-24 149.5z" />
    <glyph glyph-name="Ocircumflex" unicode="&#xd4;" 
d="M813 1663l51 -109h201l-156 322h-196l-154 -322h201zM127 680q0 -108 29 -211t87 -192.5t138.5 -157.5t191.5 -107t238 -39t238 39t191.5 107t138.5 157.5t87 192.5t29 211t-29 211.5t-87 193t-138.5 156.5t-191.5 106t-238 39t-238 -39t-191.5 -106t-138.5 -156.5
t-87 -193t-29 -211.5zM453 680q0 77 23.5 148.5t67.5 129t113.5 91.5t153.5 34t154 -34t114 -91.5t68 -129t24 -148.5q0 -62 -15 -120.5t-45.5 -109.5t-73 -89t-101 -60t-125.5 -22q-84 0 -153 33.5t-113 90t-68 128t-24 149.5z" />
    <glyph glyph-name="Otilde" unicode="&#xd5;" 
d="M1073 1665v180l-102 -78q-38 -32 -76 -32q-14 0 -30 18t-30 39t-41.5 39t-60.5 18q-56 0 -104 -30q-29 -17 -72 -56l-4 -4l-2 -194l45 43q42 42 66 61q51 39 75 39q16 0 44 -31t57.5 -62.5t50.5 -31.5q87 0 180 78zM127 680q0 -108 29 -211t87 -192.5t138.5 -157.5
t191.5 -107t238 -39t238 39t191.5 107t138.5 157.5t87 192.5t29 211t-29 211.5t-87 193t-138.5 156.5t-191.5 106t-238 39t-238 -39t-191.5 -106t-138.5 -156.5t-87 -193t-29 -211.5zM453 680q0 77 23.5 148.5t67.5 129t113.5 91.5t153.5 34t154 -34t114 -91.5t68 -129
t24 -148.5q0 -62 -15 -120.5t-45.5 -109.5t-73 -89t-101 -60t-125.5 -22q-84 0 -153 33.5t-113 90t-68 128t-24 149.5z" />
    <glyph glyph-name="Odieresis" unicode="&#xd6;" 
d="M786 1681q0 49 -35.5 87t-103.5 38q-66 0 -100.5 -39t-34.5 -86q0 -49 34 -85.5t101 -36.5q68 0 103.5 36.5t35.5 85.5zM127 680q0 -108 29 -211t87 -192.5t138.5 -157.5t191.5 -107t238 -39t238 39t191.5 107t138.5 157.5t87 192.5t29 211t-29 211.5t-87 193
t-138.5 156.5t-191.5 106t-238 39t-238 -39t-191.5 -106t-138.5 -156.5t-87 -193t-29 -211.5zM453 680q0 77 23.5 148.5t67.5 129t113.5 91.5t153.5 34t154 -34t114 -91.5t68 -129t24 -148.5q0 -62 -15 -120.5t-45.5 -109.5t-73 -89t-101 -60t-125.5 -22q-84 0 -153 33.5
t-113 90t-68 128t-24 149.5zM836 1679q0 -48 34 -86.5t101 -38.5t102 37.5t35 87.5q0 49 -35 87t-102 38t-101 -38.5t-34 -86.5z" />
    <glyph glyph-name="multiply" unicode="&#xd7;" horiz-adv-x="1417" 
d="M166 1028l332 -348l-332 -344l207 -219l336 346l331 -346l213 217l-338 346l338 348l-213 215l-331 -346l-336 346z" />
    <glyph glyph-name="Oslash" unicode="&#xd8;" 
d="M127 680q0 108 29 211.5t87 193t138.5 156.5t191.5 106t238 39q90 0 182 -20l90 188l256 -131l-90 -188q118 -100 182 -246.5t64 -308.5q0 -108 -29 -211t-87 -192.5t-138.5 -157.5t-191.5 -107t-238 -39q-79 0 -162 17l-88 -185l-260 134l86 176q-125 98 -192.5 248
t-67.5 317zM451 680q0 -151 84 -264l321 665q-14 2 -45 2q-84 0 -154 -34t-114 -91.5t-68 -129t-24 -148.5zM791 279h20q84 0 153 33.5t113 90t68 128t24 149.5q0 140 -69 246z" />
    <glyph glyph-name="Ugrave" unicode="&#xd9;" horiz-adv-x="1648" 
d="M1036 1559l-151 325h-273l232 -325h192zM190 653q0 -101 25.5 -198.5t78.5 -184.5t127 -153t178.5 -105t225.5 -39t225.5 39t178.5 105.5t127 153.5t78.5 184.5t25.5 197.5v707h-313v-707q0 -95 -35.5 -178.5t-110.5 -139.5t-176 -56q-77 0 -139.5 32t-101.5 85.5
t-59.5 119.5t-20.5 137v707h-314v-707z" />
    <glyph glyph-name="Uacute" unicode="&#xda;" horiz-adv-x="1648" 
d="M764 1874l-156 -328h197l233 336zM190 653q0 -101 25.5 -198.5t78.5 -184.5t127 -153t178.5 -105t225.5 -39t225.5 39t178.5 105.5t127 153.5t78.5 184.5t25.5 197.5v707h-313v-707q0 -95 -35.5 -178.5t-110.5 -139.5t-176 -56q-77 0 -139.5 32t-101.5 85.5t-59.5 119.5
t-20.5 137v707h-314v-707z" />
    <glyph glyph-name="Ucircumflex" unicode="&#xdb;" horiz-adv-x="1648" 
d="M825 1663l52 -109h200l-155 322h-195l-156 -322h201zM190 653q0 -101 25.5 -198.5t78.5 -184.5t127 -153t178.5 -105t225.5 -39t225.5 39t178.5 105.5t127 153.5t78.5 184.5t25.5 197.5v707h-313v-707q0 -95 -35.5 -178.5t-110.5 -139.5t-176 -56q-77 0 -139.5 32
t-101.5 85.5t-59.5 119.5t-20.5 137v707h-314v-707z" />
    <glyph glyph-name="Udieresis" unicode="&#xdc;" horiz-adv-x="1648" 
d="M799 1681q0 49 -36 87t-104 38q-66 0 -99.5 -39t-33.5 -86q0 -49 33.5 -85.5t99.5 -36.5q69 0 104.5 36.5t35.5 85.5zM190 653q0 -101 25.5 -198.5t78.5 -184.5t127 -153t178.5 -105t225.5 -39t225.5 39t178.5 105.5t127 153.5t78.5 184.5t25.5 197.5v707h-313v-707
q0 -95 -35.5 -178.5t-110.5 -139.5t-176 -56q-77 0 -139.5 32t-101.5 85.5t-59.5 119.5t-20.5 137v707h-314v-707zM848 1679q0 -48 34 -86.5t101 -38.5t102 37.5t35 87.5q0 49 -35 87t-102 38t-101 -38.5t-34 -86.5z" />
    <glyph glyph-name="Yacute" unicode="&#xdd;" horiz-adv-x="1515" 
d="M696 1874l-153 -328h196l234 336zM51 1360l551 -881v-479h311v479l551 881h-364l-340 -576l-348 576h-361z" />
    <glyph glyph-name="germandbls" unicode="&#xdf;" horiz-adv-x="1300" 
d="M440 -406h-329l2 1332v30q0 111 40.5 194.5t113 134.5t167.5 76t211 25q117 0 212.5 -25t169 -75.5t113.5 -134.5t40 -195q0 -169 -113 -266q152 -96 152 -282q0 -92 -29.5 -166t-80.5 -123.5t-122.5 -83t-153 -48t-174.5 -14.5v306q232 0 232 129t-232 129h-106v288h106
q195 0 195 131q0 127 -209 127q-93 0 -149.5 -30.5t-55.5 -96.5v-1362z" />
    <glyph glyph-name="agrave" unicode="&#xe0;" horiz-adv-x="1650" 
d="M1036 1559l-151 325h-273l232 -325h192zM76 0h334l129 334h567l131 -334h338l-539 1360h-420zM647 623l172 432l180 -432h-352z" />
    <glyph glyph-name="aacute" unicode="&#xe1;" horiz-adv-x="1650" 
d="M846 1874l-156 -328h197l233 336zM76 0h334l129 334h567l131 -334h338l-539 1360h-420zM647 623l172 432l180 -432h-352z" />
    <glyph glyph-name="acircumflex" unicode="&#xe2;" horiz-adv-x="1650" 
d="M827 1663l52 -109h200l-155 322h-195l-156 -322h201zM76 0h334l129 334h567l131 -334h338l-539 1360h-420zM647 623l172 432l180 -432h-352z" />
    <glyph glyph-name="atilde" unicode="&#xe3;" horiz-adv-x="1650" 
d="M1087 1665v180l-102 -78q-38 -32 -76 -32q-14 0 -30 18t-30 39t-41 39t-60 18q-57 0 -105 -30q-29 -17 -72 -56l-4 -4l-2 -194l45 43q42 42 66 61q51 39 76 39q16 0 43.5 -31t57 -62.5t50.5 -31.5q87 0 180 78zM76 0h334l129 334h567l131 -334h338l-539 1360h-420z
M647 623l172 432l180 -432h-352z" />
    <glyph glyph-name="adieresis" unicode="&#xe4;" horiz-adv-x="1650" 
d="M801 1681q0 49 -35.5 87t-103.5 38q-66 0 -100 -39t-34 -86q0 -49 33.5 -85.5t100.5 -36.5q68 0 103.5 36.5t35.5 85.5zM76 0h334l129 334h567l131 -334h338l-539 1360h-420zM647 623l172 432l180 -432h-352zM850 1679q0 -48 34 -86.5t101 -38.5t102 37.5t35 87.5
q0 49 -35 87t-102 38t-101 -38.5t-34 -86.5z" />
    <glyph glyph-name="aring" unicode="&#xe5;" horiz-adv-x="1650" 
d="M676 1708q0 -55 37 -101t112 -46q77 0 114.5 46t37.5 101q0 56 -37.5 100.5t-114.5 44.5q-76 0 -112.5 -45t-36.5 -100zM76 0h334l129 334h567l131 -334h338l-539 1360h-420zM647 623l172 432l180 -432h-352zM809 1708q0 18 16 18q15 0 15 -18q0 -12 -3 -15t-12 -3
q-6 0 -9 0.5t-5 4.5t-2 13z" />
    <glyph glyph-name="ae" unicode="&#xe6;" horiz-adv-x="2242" 
d="M2091 289v-289h-1294v334h-260l-129 -334h-334l540 1360h1477v-291h-981v-244h729v-288h-729v-248h981zM645 623h152v383z" />
    <glyph glyph-name="ccedilla" unicode="&#xe7;" horiz-adv-x="1617" 
d="M127 680q0 -104 26.5 -203t80 -186t127.5 -155t176 -110.5t219 -50.5q2 4 5 12.5t5 12.5l4 10h160l-8 -28q231 34 380.5 194.5t184.5 384.5l4 31h-328l-4 -23q-30 -128 -122.5 -209t-225.5 -81q-84 0 -153 33.5t-113 90t-68 128t-24 149.5q0 77 23.5 148.5t67.5 129
t113.5 91.5t153.5 34q133 0 225.5 -81t122.5 -209l4 -21h328l-4 31q-19 120 -73.5 225t-139 185t-204.5 126.5t-259 46.5q-127 0 -238 -39t-191.5 -106t-138.5 -156.5t-87 -193t-29 -211.5zM565 -190l168 -3q51 -57 84 -57q50 0 53 33q1 28 -22 41.5t-53 12.5t-58.5 -1.5
t-38.5 0.5l4 10q30 61 54 129q18 -2 55 -2q59 0 111 9l-4 -21q131 -38 131 -172q0 -84 -58 -145.5t-168 -61.5q-83 0 -142 43.5t-89 106.5q-3 5 -15.5 41t-11.5 37z" />
    <glyph glyph-name="egrave" unicode="&#xe8;" horiz-adv-x="1636" 
d="M1030 1559l-151 325h-273l232 -325h192zM190 0h1295v289h-981v248h729v288h-729v244h981v291h-1295v-1360z" />
    <glyph glyph-name="eacute" unicode="&#xe9;" horiz-adv-x="1636" 
d="M758 1874l-156 -328h197l233 336zM190 0h1295v289h-981v248h729v288h-729v244h981v291h-1295v-1360z" />
    <glyph glyph-name="ecircumflex" unicode="&#xea;" horiz-adv-x="1636" 
d="M819 1663l51 -109h201l-156 322h-196l-154 -322h201zM190 0h1295v289h-981v248h729v288h-729v244h981v291h-1295v-1360z" />
    <glyph glyph-name="edieresis" unicode="&#xeb;" horiz-adv-x="1636" 
d="M793 1681q0 49 -36 87t-104 38q-66 0 -99.5 -39t-33.5 -86q0 -49 33.5 -85.5t99.5 -36.5q69 0 104.5 36.5t35.5 85.5zM190 0h1295v289h-981v248h729v288h-729v244h981v291h-1295v-1360zM842 1679q0 -48 34 -86.5t101 -38.5t102 37.5t35 87.5q0 49 -35 87t-102 38
t-101 -38.5t-34 -86.5z" />
    <glyph glyph-name="igrave" unicode="&#xec;" horiz-adv-x="694" 
d="M559 1559l-151 325h-273l232 -325h192zM190 0h314v1360h-314v-1360z" />
    <glyph glyph-name="iacute" unicode="&#xed;" horiz-adv-x="694" 
d="M285 1874l-154 -328h197l233 336zM190 0h314v1360h-314v-1360z" />
    <glyph glyph-name="icircumflex" unicode="&#xee;" horiz-adv-x="696" 
d="M350 1663l51 -109h201l-156 322h-196l-156 -322h201zM193 0h313v1360h-313v-1360z" />
    <glyph glyph-name="idieresis" unicode="&#xef;" horiz-adv-x="696" 
d="M324 1681q0 48 -36.5 86.5t-103.5 38.5t-101 -39t-34 -86q0 -49 33.5 -85.5t101.5 -36.5q67 0 103.5 36.5t36.5 85.5zM193 0h313v1360h-313v-1360zM373 1679q0 -48 33.5 -86.5t99.5 -38.5q68 0 103.5 37.5t35.5 87.5q0 49 -35.5 87t-103.5 38q-66 0 -99.5 -38.5
t-33.5 -86.5z" />
    <glyph glyph-name="ntilde" unicode="&#xf1;" horiz-adv-x="1697" 
d="M1110 1665v180l-102 -78q-38 -32 -74 -32q-14 0 -31 18t-31 39t-41.5 39t-60.5 18q-56 0 -104 -30q-29 -17 -72 -56l-4 -4l-2 -194l45 43q46 46 65 61q55 39 76 39q16 0 44 -31t57.5 -62.5t50.5 -31.5q87 0 180 78zM190 0h314v848l733 -848h272v1360h-311v-848l-737 848
h-271v-1360z" />
    <glyph glyph-name="ograve" unicode="&#xf2;" 
d="M1022 1559l-152 325h-272l231 -325h193zM127 680q0 -108 29 -211t87 -192.5t138.5 -157.5t191.5 -107t238 -39t238 39t191.5 107t138.5 157.5t87 192.5t29 211t-29 211.5t-87 193t-138.5 156.5t-191.5 106t-238 39t-238 -39t-191.5 -106t-138.5 -156.5t-87 -193
t-29 -211.5zM453 680q0 77 23.5 148.5t67.5 129t113.5 91.5t153.5 34t154 -34t114 -91.5t68 -129t24 -148.5q0 -62 -15 -120.5t-45.5 -109.5t-73 -89t-101 -60t-125.5 -22q-84 0 -153 33.5t-113 90t-68 128t-24 149.5z" />
    <glyph glyph-name="oacute" unicode="&#xf3;" 
d="M752 1874l-156 -328h197l233 336zM127 680q0 -108 29 -211t87 -192.5t138.5 -157.5t191.5 -107t238 -39t238 39t191.5 107t138.5 157.5t87 192.5t29 211t-29 211.5t-87 193t-138.5 156.5t-191.5 106t-238 39t-238 -39t-191.5 -106t-138.5 -156.5t-87 -193t-29 -211.5z
M453 680q0 77 23.5 148.5t67.5 129t113.5 91.5t153.5 34t154 -34t114 -91.5t68 -129t24 -148.5q0 -62 -15 -120.5t-45.5 -109.5t-73 -89t-101 -60t-125.5 -22q-84 0 -153 33.5t-113 90t-68 128t-24 149.5z" />
    <glyph glyph-name="ocircumflex" unicode="&#xf4;" 
d="M813 1663l51 -109h201l-156 322h-196l-154 -322h201zM127 680q0 -108 29 -211t87 -192.5t138.5 -157.5t191.5 -107t238 -39t238 39t191.5 107t138.5 157.5t87 192.5t29 211t-29 211.5t-87 193t-138.5 156.5t-191.5 106t-238 39t-238 -39t-191.5 -106t-138.5 -156.5
t-87 -193t-29 -211.5zM453 680q0 77 23.5 148.5t67.5 129t113.5 91.5t153.5 34t154 -34t114 -91.5t68 -129t24 -148.5q0 -62 -15 -120.5t-45.5 -109.5t-73 -89t-101 -60t-125.5 -22q-84 0 -153 33.5t-113 90t-68 128t-24 149.5z" />
    <glyph glyph-name="otilde" unicode="&#xf5;" 
d="M1073 1665v180l-102 -78q-38 -32 -76 -32q-14 0 -30 18t-30 39t-41.5 39t-60.5 18q-56 0 -104 -30q-29 -17 -72 -56l-4 -4l-2 -194l45 43q42 42 66 61q51 39 75 39q16 0 44 -31t57.5 -62.5t50.5 -31.5q87 0 180 78zM127 680q0 -108 29 -211t87 -192.5t138.5 -157.5
t191.5 -107t238 -39t238 39t191.5 107t138.5 157.5t87 192.5t29 211t-29 211.5t-87 193t-138.5 156.5t-191.5 106t-238 39t-238 -39t-191.5 -106t-138.5 -156.5t-87 -193t-29 -211.5zM453 680q0 77 23.5 148.5t67.5 129t113.5 91.5t153.5 34t154 -34t114 -91.5t68 -129
t24 -148.5q0 -62 -15 -120.5t-45.5 -109.5t-73 -89t-101 -60t-125.5 -22q-84 0 -153 33.5t-113 90t-68 128t-24 149.5z" />
    <glyph glyph-name="odieresis" unicode="&#xf6;" 
d="M786 1681q0 49 -35.5 87t-103.5 38q-66 0 -100.5 -39t-34.5 -86q0 -49 34 -85.5t101 -36.5q68 0 103.5 36.5t35.5 85.5zM127 680q0 -108 29 -211t87 -192.5t138.5 -157.5t191.5 -107t238 -39t238 39t191.5 107t138.5 157.5t87 192.5t29 211t-29 211.5t-87 193
t-138.5 156.5t-191.5 106t-238 39t-238 -39t-191.5 -106t-138.5 -156.5t-87 -193t-29 -211.5zM453 680q0 77 23.5 148.5t67.5 129t113.5 91.5t153.5 34t154 -34t114 -91.5t68 -129t24 -148.5q0 -62 -15 -120.5t-45.5 -109.5t-73 -89t-101 -60t-125.5 -22q-84 0 -153 33.5
t-113 90t-68 128t-24 149.5zM836 1679q0 -48 34 -86.5t101 -38.5t102 37.5t35 87.5q0 49 -35 87t-102 38t-101 -38.5t-34 -86.5z" />
    <glyph glyph-name="divide" unicode="&#xf7;" horiz-adv-x="1445" 
d="M543 1071q0 -72 49 -128t133 -56q81 0 130.5 56.5t49.5 127.5q0 73 -49 128.5t-131 55.5q-84 0 -133 -55.5t-49 -128.5zM190 537h1067v288h-1067v-288zM543 289q0 -73 49 -129t133 -56q81 0 130.5 56.5t49.5 128.5q0 71 -49.5 127.5t-130.5 56.5q-84 0 -133 -55.5
t-49 -128.5z" />
    <glyph glyph-name="oslash" unicode="&#xf8;" 
d="M1495 680q0 -167 -67.5 -317t-192.5 -248l84 -176l-258 -134l-88 185q-87 -17 -162 -17q-127 0 -238 39t-191.5 107t-138.5 157.5t-87 192.5t-29 211q0 162 64 308.5t182 246.5l-92 188l258 131l90 -188q92 20 182 20q127 0 238 -39t191.5 -106t138.5 -156.5t87 -193
t29 -211.5zM453 680q0 -78 24 -149.5t68 -128t113 -90t153 -33.5h20l-309 647q-69 -106 -69 -246zM766 1081l321 -665q84 113 84 264q0 77 -24 148.5t-68 129t-114 91.5t-154 34q-31 0 -45 -2z" />
    <glyph glyph-name="ugrave" unicode="&#xf9;" horiz-adv-x="1648" 
d="M1036 1559l-151 325h-273l232 -325h192zM190 653q0 -101 25.5 -198.5t78.5 -184.5t127 -153t178.5 -105t225.5 -39t225.5 39t178.5 105.5t127 153.5t78.5 184.5t25.5 197.5v707h-313v-707q0 -95 -35.5 -178.5t-110.5 -139.5t-176 -56q-77 0 -139.5 32t-101.5 85.5
t-59.5 119.5t-20.5 137v707h-314v-707z" />
    <glyph glyph-name="uacute" unicode="&#xfa;" horiz-adv-x="1648" 
d="M764 1874l-156 -328h197l233 336zM190 653q0 -101 25.5 -198.5t78.5 -184.5t127 -153t178.5 -105t225.5 -39t225.5 39t178.5 105.5t127 153.5t78.5 184.5t25.5 197.5v707h-313v-707q0 -95 -35.5 -178.5t-110.5 -139.5t-176 -56q-77 0 -139.5 32t-101.5 85.5t-59.5 119.5
t-20.5 137v707h-314v-707z" />
    <glyph glyph-name="ucircumflex" unicode="&#xfb;" horiz-adv-x="1648" 
d="M825 1663l52 -109h200l-155 322h-195l-156 -322h201zM190 653q0 -101 25.5 -198.5t78.5 -184.5t127 -153t178.5 -105t225.5 -39t225.5 39t178.5 105.5t127 153.5t78.5 184.5t25.5 197.5v707h-313v-707q0 -95 -35.5 -178.5t-110.5 -139.5t-176 -56q-77 0 -139.5 32
t-101.5 85.5t-59.5 119.5t-20.5 137v707h-314v-707z" />
    <glyph glyph-name="udieresis" unicode="&#xfc;" horiz-adv-x="1648" 
d="M799 1681q0 49 -36 87t-104 38q-66 0 -99.5 -39t-33.5 -86q0 -49 33.5 -85.5t99.5 -36.5q69 0 104.5 36.5t35.5 85.5zM190 653q0 -101 25.5 -198.5t78.5 -184.5t127 -153t178.5 -105t225.5 -39t225.5 39t178.5 105.5t127 153.5t78.5 184.5t25.5 197.5v707h-313v-707
q0 -95 -35.5 -178.5t-110.5 -139.5t-176 -56q-77 0 -139.5 32t-101.5 85.5t-59.5 119.5t-20.5 137v707h-314v-707zM848 1679q0 -48 34 -86.5t101 -38.5t102 37.5t35 87.5q0 49 -35 87t-102 38t-101 -38.5t-34 -86.5z" />
    <glyph glyph-name="yacute" unicode="&#xfd;" horiz-adv-x="1515" 
d="M696 1874l-153 -328h196l234 336zM55 1360l551 -881v-479h312v479l550 881h-364l-340 -576l-348 576h-361z" />
    <glyph glyph-name="ydieresis" unicode="&#xff;" horiz-adv-x="1515" 
d="M733 1681q0 48 -36 86.5t-103 38.5t-101 -39t-34 -86q0 -49 33.5 -85.5t101.5 -36.5q67 0 103 36.5t36 85.5zM55 1360l551 -881v-479h312v479l550 881h-364l-340 -576l-348 576h-361zM782 1679q0 -48 33.5 -86.5t99.5 -38.5q68 0 104 37.5t36 87.5q0 49 -36 87t-104 38
q-66 0 -99.5 -38.5t-33.5 -86.5z" />
    <glyph glyph-name="Amacron" unicode="&#x100;" horiz-adv-x="1650" 
d="M1042 1700h-446v-148h446v148zM76 0h334l129 334h567l131 -334h338l-539 1360h-420zM647 623l172 432l180 -432h-352z" />
    <glyph glyph-name="amacron" unicode="&#x101;" horiz-adv-x="1650" 
d="M1042 1700h-446v-148h446v148zM76 0h334l129 334h567l131 -334h338l-539 1360h-420zM647 623l172 432l180 -432h-352z" />
    <glyph glyph-name="Cacute" unicode="&#x106;" horiz-adv-x="1617" 
d="M750 1874l-156 -328h197l233 336zM127 680q0 -108 29 -211t87 -192.5t138.5 -157.5t191.5 -107t238 -39q139 0 259 46.5t204.5 127t139 186.5t73.5 228l4 31h-328l-4 -23q-30 -128 -122.5 -209t-225.5 -81q-84 0 -153 33.5t-113 90t-68 128t-24 149.5q0 77 23.5 148.5
t67.5 129t113.5 91.5t153.5 34q133 0 225.5 -81t122.5 -209l4 -21h328l-4 31q-19 120 -73.5 225t-139 185t-204.5 126.5t-259 46.5q-127 0 -238 -39t-191.5 -106t-138.5 -156.5t-87 -193t-29 -211.5z" />
    <glyph glyph-name="cacute" unicode="&#x107;" horiz-adv-x="1617" 
d="M750 1874l-156 -328h197l233 336zM127 680q0 -108 29 -211t87 -192.5t138.5 -157.5t191.5 -107t238 -39q139 0 259 46.5t204.5 127t139 186.5t73.5 228l4 31h-328l-4 -23q-30 -128 -122.5 -209t-225.5 -81q-84 0 -153 33.5t-113 90t-68 128t-24 149.5q0 77 23.5 148.5
t67.5 129t113.5 91.5t153.5 34q133 0 225.5 -81t122.5 -209l4 -21h328l-4 31q-19 120 -73.5 225t-139 185t-204.5 126.5t-259 46.5q-127 0 -238 -39t-191.5 -106t-138.5 -156.5t-87 -193t-29 -211.5z" />
    <glyph glyph-name="Ccircumflex" unicode="&#x108;" horiz-adv-x="1617" 
d="M811 1663l51 -109h201l-156 322h-196l-154 -322h201zM127 680q0 -108 29 -211t87 -192.5t138.5 -157.5t191.5 -107t238 -39q139 0 259 46.5t204.5 127t139 186.5t73.5 228l4 31h-328l-4 -23q-30 -128 -122.5 -209t-225.5 -81q-84 0 -153 33.5t-113 90t-68 128t-24 149.5
q0 77 23.5 148.5t67.5 129t113.5 91.5t153.5 34q133 0 225.5 -81t122.5 -209l4 -21h328l-4 31q-19 120 -73.5 225t-139 185t-204.5 126.5t-259 46.5q-127 0 -238 -39t-191.5 -106t-138.5 -156.5t-87 -193t-29 -211.5z" />
    <glyph glyph-name="ccircumflex" unicode="&#x109;" horiz-adv-x="1617" 
d="M811 1663l51 -109h201l-156 322h-196l-154 -322h201zM127 680q0 -108 29 -211t87 -192.5t138.5 -157.5t191.5 -107t238 -39q139 0 259 46.5t204.5 127t139 186.5t73.5 228l4 31h-328l-4 -23q-30 -128 -122.5 -209t-225.5 -81q-84 0 -153 33.5t-113 90t-68 128t-24 149.5
q0 77 23.5 148.5t67.5 129t113.5 91.5t153.5 34q133 0 225.5 -81t122.5 -209l4 -21h328l-4 31q-19 120 -73.5 225t-139 185t-204.5 126.5t-259 46.5q-127 0 -238 -39t-191.5 -106t-138.5 -156.5t-87 -193t-29 -211.5z" />
    <glyph glyph-name="Cdotaccent" unicode="&#x10a;" horiz-adv-x="1617" 
d="M946 1692q0 49 -36 88t-103 39t-101 -39t-34 -88q0 -48 34 -86.5t101 -38.5t103 38.5t36 86.5zM127 680q0 -108 29 -211t87 -192.5t138.5 -157.5t191.5 -107t238 -39q139 0 259 46.5t204.5 127t139 186.5t73.5 228l4 31h-328l-4 -23q-30 -128 -122.5 -209t-225.5 -81
q-84 0 -153 33.5t-113 90t-68 128t-24 149.5q0 77 23.5 148.5t67.5 129t113.5 91.5t153.5 34q133 0 225.5 -81t122.5 -209l4 -21h328l-4 31q-19 120 -73.5 225t-139 185t-204.5 126.5t-259 46.5q-127 0 -238 -39t-191.5 -106t-138.5 -156.5t-87 -193t-29 -211.5z" />
    <glyph glyph-name="cdotaccent" unicode="&#x10b;" horiz-adv-x="1617" 
d="M946 1692q0 49 -36 88t-103 39t-101 -39t-34 -88q0 -48 34 -86.5t101 -38.5t103 38.5t36 86.5zM127 680q0 -108 29 -211t87 -192.5t138.5 -157.5t191.5 -107t238 -39q139 0 259 46.5t204.5 127t139 186.5t73.5 228l4 31h-328l-4 -23q-30 -128 -122.5 -209t-225.5 -81
q-84 0 -153 33.5t-113 90t-68 128t-24 149.5q0 77 23.5 148.5t67.5 129t113.5 91.5t153.5 34q133 0 225.5 -81t122.5 -209l4 -21h328l-4 31q-19 120 -73.5 225t-139 185t-204.5 126.5t-259 46.5q-127 0 -238 -39t-191.5 -106t-138.5 -156.5t-87 -193t-29 -211.5z" />
    <glyph glyph-name="Ccaron" unicode="&#x10c;" horiz-adv-x="1617" 
d="M557 1884l154 -321h196l156 321h-201l-51 -108l-53 108h-201zM127 680q0 -108 29 -211t87 -192.5t138.5 -157.5t191.5 -107t238 -39q139 0 259 46.5t204.5 127t139 186.5t73.5 228l4 31h-328l-4 -23q-30 -128 -122.5 -209t-225.5 -81q-84 0 -153 33.5t-113 90t-68 128
t-24 149.5q0 77 23.5 148.5t67.5 129t113.5 91.5t153.5 34q133 0 225.5 -81t122.5 -209l4 -21h328l-4 31q-19 120 -73.5 225t-139 185t-204.5 126.5t-259 46.5q-127 0 -238 -39t-191.5 -106t-138.5 -156.5t-87 -193t-29 -211.5z" />
    <glyph glyph-name="ccaron" unicode="&#x10d;" horiz-adv-x="1617" 
d="M557 1884l154 -321h196l156 321h-201l-51 -108l-53 108h-201zM127 680q0 -108 29 -211t87 -192.5t138.5 -157.5t191.5 -107t238 -39q139 0 259 46.5t204.5 127t139 186.5t73.5 228l4 31h-328l-4 -23q-30 -128 -122.5 -209t-225.5 -81q-84 0 -153 33.5t-113 90t-68 128
t-24 149.5q0 77 23.5 148.5t67.5 129t113.5 91.5t153.5 34q133 0 225.5 -81t122.5 -209l4 -21h328l-4 31q-19 120 -73.5 225t-139 185t-204.5 126.5t-259 46.5q-127 0 -238 -39t-191.5 -106t-138.5 -156.5t-87 -193t-29 -211.5z" />
    <glyph glyph-name="Emacron" unicode="&#x112;" horiz-adv-x="1636" 
d="M1040 1700h-446v-148h446v148zM190 0h1295v289h-981v248h729v288h-729v244h981v291h-1295v-1360z" />
    <glyph glyph-name="emacron" unicode="&#x113;" horiz-adv-x="1636" 
d="M1040 1700h-446v-148h446v148zM190 0h1295v289h-981v248h729v288h-729v244h981v291h-1295v-1360z" />
    <glyph glyph-name="Edotaccent" unicode="&#x116;" horiz-adv-x="1636" 
d="M956 1692q0 49 -36 88t-103 39t-101 -39t-34 -88q0 -48 34 -86.5t101 -38.5t103 38.5t36 86.5zM190 0h1295v289h-981v248h729v288h-729v244h981v291h-1295v-1360z" />
    <glyph glyph-name="edotaccent" unicode="&#x117;" horiz-adv-x="1636" 
d="M956 1692q0 49 -36 88t-103 39t-101 -39t-34 -88q0 -48 34 -86.5t101 -38.5t103 38.5t36 86.5zM190 0h1295v289h-981v248h729v288h-729v244h981v291h-1295v-1360z" />
    <glyph glyph-name="Ecaron" unicode="&#x11a;" horiz-adv-x="1636" 
d="M565 1884l154 -321h196l156 321h-201l-51 -108l-53 108h-201zM190 0h1295v289h-981v248h729v288h-729v244h981v291h-1295v-1360z" />
    <glyph glyph-name="ecaron" unicode="&#x11b;" horiz-adv-x="1636" 
d="M565 1884l154 -321h196l156 321h-201l-51 -108l-53 108h-201zM190 0h1295v289h-981v248h729v288h-729v244h981v291h-1295v-1360z" />
    <glyph glyph-name="Gcircumflex" unicode="&#x11c;" 
d="M813 1663l51 -109h201l-156 322h-196l-154 -322h201zM127 680q0 -108 29 -211t87 -192.5t138.5 -157.5t191.5 -107t238 -39q128 0 239 39t191.5 106.5t138.5 157t86.5 192.5t28.5 212q0 61 -8 108l-4 25h-703v-291h367q-42 -109 -129.5 -176t-206.5 -67q-84 0 -153 33.5
t-113 90t-68 128t-24 149.5q0 77 23.5 148.5t67.5 129t113.5 91.5t153.5 34q91 0 167 -41t124 -114l10 -15l350 7l-14 36q-74 193 -244 311.5t-393 118.5q-127 0 -238 -39t-191.5 -106t-138.5 -156.5t-87 -193t-29 -211.5z" />
    <glyph glyph-name="gcircumflex" unicode="&#x11d;" 
d="M813 1663l51 -109h201l-156 322h-196l-154 -322h201zM127 680q0 -108 29 -211t87 -192.5t138.5 -157.5t191.5 -107t238 -39q128 0 239 39t191.5 106.5t138.5 157t86.5 192.5t28.5 212q0 61 -8 108l-4 25h-703v-291h367q-42 -109 -129.5 -176t-206.5 -67q-84 0 -153 33.5
t-113 90t-68 128t-24 149.5q0 77 23.5 148.5t67.5 129t113.5 91.5t153.5 34q91 0 167 -41t124 -114l10 -15l350 7l-14 36q-74 193 -244 311.5t-393 118.5q-127 0 -238 -39t-191.5 -106t-138.5 -156.5t-87 -193t-29 -211.5z" />
    <glyph glyph-name="Gdotaccent" unicode="&#x120;" 
d="M948 1692q0 49 -36 88t-103 39t-101 -39t-34 -88q0 -48 34 -86.5t101 -38.5t103 38.5t36 86.5zM127 680q0 -108 29 -211t87 -192.5t138.5 -157.5t191.5 -107t238 -39q128 0 239 39t191.5 106.5t138.5 157t86.5 192.5t28.5 212q0 61 -8 108l-4 25h-703v-291h367
q-42 -109 -129.5 -176t-206.5 -67q-84 0 -153 33.5t-113 90t-68 128t-24 149.5q0 77 23.5 148.5t67.5 129t113.5 91.5t153.5 34q91 0 167 -41t124 -114l10 -15l350 7l-14 36q-74 193 -244 311.5t-393 118.5q-127 0 -238 -39t-191.5 -106t-138.5 -156.5t-87 -193t-29 -211.5z
" />
    <glyph glyph-name="gdotaccent" unicode="&#x121;" 
d="M948 1692q0 49 -36 88t-103 39t-101 -39t-34 -88q0 -48 34 -86.5t101 -38.5t103 38.5t36 86.5zM127 680q0 -108 29 -211t87 -192.5t138.5 -157.5t191.5 -107t238 -39q128 0 239 39t191.5 106.5t138.5 157t86.5 192.5t28.5 212q0 61 -8 108l-4 25h-703v-291h367
q-42 -109 -129.5 -176t-206.5 -67q-84 0 -153 33.5t-113 90t-68 128t-24 149.5q0 77 23.5 148.5t67.5 129t113.5 91.5t153.5 34q91 0 167 -41t124 -114l10 -15l350 7l-14 36q-74 193 -244 311.5t-393 118.5q-127 0 -238 -39t-191.5 -106t-138.5 -156.5t-87 -193t-29 -211.5z
" />
    <glyph glyph-name="Hcircumflex" unicode="&#x124;" horiz-adv-x="1697" 
d="M850 1663l51 -109h201l-154 322h-196l-156 -322h201zM190 0h314v537h694v-537h311v1360h-311v-535h-694v535h-314v-1360z" />
    <glyph glyph-name="hcircumflex" unicode="&#x125;" horiz-adv-x="1697" 
d="M850 1663l51 -109h201l-154 322h-196l-156 -322h201zM190 0h314v537h694v-537h311v1360h-311v-535h-694v535h-314v-1360z" />
    <glyph glyph-name="Itilde" unicode="&#x128;" horiz-adv-x="696" 
d="M610 1665v180l-104 -78q-38 -32 -74 -32q-14 0 -30 18t-30.5 39t-42 39t-61.5 18q-54 0 -102 -30q-10 -6 -74 -56l-4 -4l-2 -194l47 43q42 42 66 61q51 39 73 39q20 0 74 -62.5t80 -62.5q87 0 180 78zM193 0h313v1360h-313v-1360z" />
    <glyph glyph-name="itilde" unicode="&#x129;" horiz-adv-x="696" 
d="M610 1665v180l-104 -78q-38 -32 -74 -32q-14 0 -30 18t-30.5 39t-42 39t-61.5 18q-54 0 -102 -30q-10 -6 -74 -56l-4 -4l-2 -194l47 43q42 42 66 61q51 39 73 39q20 0 74 -62.5t80 -62.5q87 0 180 78zM193 0h313v1360h-313v-1360z" />
    <glyph glyph-name="Imacron" unicode="&#x12a;" horiz-adv-x="694" 
d="M569 1700h-446v-148h446v148zM190 0h314v1360h-314v-1360z" />
    <glyph glyph-name="imacron" unicode="&#x12b;" horiz-adv-x="694" 
d="M569 1700h-446v-148h446v148zM190 0h314v1360h-314v-1360z" />
    <glyph glyph-name="dotlessi" unicode="&#x131;" horiz-adv-x="692" 
d="M504 0v1360h-314v-1360h314z" />
    <glyph glyph-name="Lacute" unicode="&#x139;" horiz-adv-x="1359" 
d="M618 1874l-155 -328h196l234 336zM190 0h1067v289h-753v1071h-314v-1360z" />
    <glyph glyph-name="lacute" unicode="&#x13a;" horiz-adv-x="1359" 
d="M618 1874l-155 -328h196l234 336zM190 0h1067v289h-753v1071h-314v-1360z" />
    <glyph glyph-name="Nacute" unicode="&#x143;" horiz-adv-x="1697" 
d="M788 1874l-155 -328h196l234 336zM190 0h314v848l733 -848h272v1360h-311v-848l-737 848h-271v-1360z" />
    <glyph glyph-name="nacute" unicode="&#x144;" horiz-adv-x="1697" 
d="M788 1874l-155 -328h196l234 336zM190 0h314v848l733 -848h272v1360h-311v-848l-737 848h-271v-1360z" />
    <glyph glyph-name="Ncaron" unicode="&#x147;" horiz-adv-x="1697" 
d="M596 1884l156 -321h196l154 321h-201l-51 -108l-53 108h-201zM190 0h314v848l733 -848h272v1360h-311v-848l-737 848h-271v-1360z" />
    <glyph glyph-name="ncaron" unicode="&#x148;" horiz-adv-x="1697" 
d="M596 1884l156 -321h196l154 321h-201l-51 -108l-53 108h-201zM190 0h314v848l733 -848h272v1360h-311v-848l-737 848h-271v-1360z" />
    <glyph glyph-name="Omacron" unicode="&#x14c;" 
d="M1034 1700h-446v-148h446v148zM127 680q0 -108 29 -211t87 -192.5t138.5 -157.5t191.5 -107t238 -39t238 39t191.5 107t138.5 157.5t87 192.5t29 211t-29 211.5t-87 193t-138.5 156.5t-191.5 106t-238 39t-238 -39t-191.5 -106t-138.5 -156.5t-87 -193t-29 -211.5z
M453 680q0 77 23.5 148.5t67.5 129t113.5 91.5t153.5 34t154 -34t114 -91.5t68 -129t24 -148.5q0 -62 -15 -120.5t-45.5 -109.5t-73 -89t-101 -60t-125.5 -22q-84 0 -153 33.5t-113 90t-68 128t-24 149.5z" />
    <glyph glyph-name="omacron" unicode="&#x14d;" 
d="M1034 1700h-446v-148h446v148zM127 680q0 -108 29 -211t87 -192.5t138.5 -157.5t191.5 -107t238 -39t238 39t191.5 107t138.5 157.5t87 192.5t29 211t-29 211.5t-87 193t-138.5 156.5t-191.5 106t-238 39t-238 -39t-191.5 -106t-138.5 -156.5t-87 -193t-29 -211.5z
M453 680q0 77 23.5 148.5t67.5 129t113.5 91.5t153.5 34t154 -34t114 -91.5t68 -129t24 -148.5q0 -62 -15 -120.5t-45.5 -109.5t-73 -89t-101 -60t-125.5 -22q-84 0 -153 33.5t-113 90t-68 128t-24 149.5z" />
    <glyph glyph-name="OE" unicode="&#x152;" horiz-adv-x="2578" 
d="M1495 1069v-244h729v-288h-729v-248h981v-289h-1294v76q-167 -103 -371 -103q-127 0 -238 39t-191.5 107t-138.5 157.5t-87 192.5t-29 211t29 211.5t87 193t138.5 156.5t191.5 106t238 39q213 0 371 -102v76h1294v-291h-981zM453 680q0 -78 24 -149.5t68 -128t113 -90
t153 -33.5q67 0 125.5 22t101 60t73 89t45.5 109.5t15 120.5q0 77 -24 148.5t-68 129t-114 91.5t-154 34t-153.5 -34t-113.5 -91.5t-67.5 -129t-23.5 -148.5z" />
    <glyph glyph-name="oe" unicode="&#x153;" horiz-adv-x="2578" 
d="M1495 1069v-244h729v-288h-729v-248h981v-289h-1294v76q-167 -103 -371 -103q-127 0 -238 39t-191.5 107t-138.5 157.5t-87 192.5t-29 211t29 211.5t87 193t138.5 156.5t191.5 106t238 39q213 0 371 -102v76h1294v-291h-981zM453 680q0 -78 24 -149.5t68 -128t113 -90
t153 -33.5q67 0 125.5 22t101 60t73 89t45.5 109.5t15 120.5q0 77 -24 148.5t-68 129t-114 91.5t-154 34t-153.5 -34t-113.5 -91.5t-67.5 -129t-23.5 -148.5z" />
    <glyph glyph-name="Racute" unicode="&#x154;" horiz-adv-x="1693" 
d="M786 1874l-155 -328h196l234 336zM190 0h314v537h379l319 -537h354l-311 518q-2 6 -9.5 16.5t-8.5 12.5q148 30 227.5 140t79.5 255q0 84 -26 158t-75 132.5t-128.5 93t-178.5 34.5h-936v-1360zM504 825v244h622q45 0 70 -27.5t25 -74.5v-39q0 -46 -25 -74.5t-70 -28.5
h-622z" />
    <glyph glyph-name="racute" unicode="&#x155;" horiz-adv-x="1693" 
d="M786 1874l-155 -328h196l234 336zM190 0h314v537h379l319 -537h354l-311 518q-2 6 -9.5 16.5t-8.5 12.5q148 30 227.5 140t79.5 255q0 84 -26 158t-75 132.5t-128.5 93t-178.5 34.5h-936v-1360zM504 825v244h622q45 0 70 -27.5t25 -74.5v-39q0 -46 -25 -74.5t-70 -28.5
h-622z" />
    <glyph glyph-name="Rcaron" unicode="&#x158;" horiz-adv-x="1693" 
d="M594 1884l156 -321h196l154 321h-201l-51 -108l-53 108h-201zM190 0h314v537h379l319 -537h354l-311 518q-2 6 -9.5 16.5t-8.5 12.5q148 30 227.5 140t79.5 255q0 84 -26 158t-75 132.5t-128.5 93t-178.5 34.5h-936v-1360zM504 825v244h622q45 0 70 -27.5t25 -74.5v-39
q0 -46 -25 -74.5t-70 -28.5h-622z" />
    <glyph glyph-name="rcaron" unicode="&#x159;" horiz-adv-x="1693" 
d="M594 1884l156 -321h196l154 321h-201l-51 -108l-53 108h-201zM190 0h314v537h379l319 -537h354l-311 518q-2 6 -9.5 16.5t-8.5 12.5q148 30 227.5 140t79.5 255q0 84 -26 158t-75 132.5t-128.5 93t-178.5 34.5h-936v-1360zM504 825v244h622q45 0 70 -27.5t25 -74.5v-39
q0 -46 -25 -74.5t-70 -28.5h-622z" />
    <glyph glyph-name="Sacute" unicode="&#x15a;" horiz-adv-x="1521" 
d="M698 1874l-153 -328h196l234 336zM127 420q0 -94 38.5 -171t101.5 -127.5t146.5 -84.5t170 -49t176.5 -15q100 0 188.5 13t172.5 45.5t143.5 82.5t96 130t36.5 182q0 75 -19 135.5t-51 103t-80 74t-100 50t-117.5 30t-125 15.5t-130.5 4q-61 0 -96 2q-62 4 -105 14
q-108 22 -108 96q0 84 96 117q74 29 199 29q110 0 198 -35q99 -42 99 -119v-31h313v31q0 91 -36 166.5t-95.5 126t-139 85.5t-165 50.5t-174.5 15.5q-97 0 -181.5 -12.5t-164.5 -44t-137 -80t-91 -125t-34 -174.5q0 -73 18 -132t48 -100t76 -72t95.5 -49t112.5 -29t121 -15
t127 -4q63 0 102 -2q65 -4 115 -17q114 -28 114 -104q0 -86 -104 -131q-84 -31 -217 -31q-122 0 -209 33q-113 44 -113 123v26h-311v-26z" />
    <glyph glyph-name="sacute" unicode="&#x15b;" horiz-adv-x="1521" 
d="M698 1874l-153 -328h196l234 336zM127 420q0 -94 38.5 -171t101.5 -127.5t146.5 -84.5t170 -49t176.5 -15q100 0 188.5 13t172.5 45.5t143.5 82.5t96 130t36.5 182q0 75 -19 135.5t-51 103t-80 74t-100 50t-117.5 30t-125 15.5t-130.5 4q-61 0 -96 2q-62 4 -105 14
q-108 22 -108 96q0 84 96 117q74 29 199 29q110 0 198 -35q99 -42 99 -119v-31h313v31q0 91 -36 166.5t-95.5 126t-139 85.5t-165 50.5t-174.5 15.5q-97 0 -181.5 -12.5t-164.5 -44t-137 -80t-91 -125t-34 -174.5q0 -73 18 -132t48 -100t76 -72t95.5 -49t112.5 -29t121 -15
t127 -4q63 0 102 -2q65 -4 115 -17q114 -28 114 -104q0 -86 -104 -131q-84 -31 -217 -31q-122 0 -209 33q-113 44 -113 123v26h-311v-26z" />
    <glyph glyph-name="Scircumflex" unicode="&#x15c;" horiz-adv-x="1521" 
d="M762 1663l51 -109h201l-156 322h-196l-156 -322h201zM127 420q0 -94 38.5 -171t101.5 -127.5t146.5 -84.5t170 -49t176.5 -15q100 0 188.5 13t172.5 45.5t143.5 82.5t96 130t36.5 182q0 75 -19 135.5t-51 103t-80 74t-100 50t-117.5 30t-125 15.5t-130.5 4q-61 0 -96 2
q-62 4 -105 14q-108 22 -108 96q0 84 96 117q74 29 199 29q110 0 198 -35q99 -42 99 -119v-31h313v31q0 91 -36 166.5t-95.5 126t-139 85.5t-165 50.5t-174.5 15.5q-97 0 -181.5 -12.5t-164.5 -44t-137 -80t-91 -125t-34 -174.5q0 -73 18 -132t48 -100t76 -72t95.5 -49
t112.5 -29t121 -15t127 -4q63 0 102 -2q65 -4 115 -17q114 -28 114 -104q0 -86 -104 -131q-84 -31 -217 -31q-122 0 -209 33q-113 44 -113 123v26h-311v-26z" />
    <glyph glyph-name="scircumflex" unicode="&#x15d;" horiz-adv-x="1521" 
d="M762 1663l51 -109h201l-156 322h-196l-156 -322h201zM127 420q0 -94 38.5 -171t101.5 -127.5t146.5 -84.5t170 -49t176.5 -15q100 0 188.5 13t172.5 45.5t143.5 82.5t96 130t36.5 182q0 75 -19 135.5t-51 103t-80 74t-100 50t-117.5 30t-125 15.5t-130.5 4q-61 0 -96 2
q-62 4 -105 14q-108 22 -108 96q0 84 96 117q74 29 199 29q110 0 198 -35q99 -42 99 -119v-31h313v31q0 91 -36 166.5t-95.5 126t-139 85.5t-165 50.5t-174.5 15.5q-97 0 -181.5 -12.5t-164.5 -44t-137 -80t-91 -125t-34 -174.5q0 -73 18 -132t48 -100t76 -72t95.5 -49
t112.5 -29t121 -15t127 -4q63 0 102 -2q65 -4 115 -17q114 -28 114 -104q0 -86 -104 -131q-84 -31 -217 -31q-122 0 -209 33q-113 44 -113 123v26h-311v-26z" />
    <glyph glyph-name="Scedilla" unicode="&#x15e;" horiz-adv-x="1521" 
d="M1397 426q0 -89 -28 -161.5t-75.5 -122t-115 -85t-141.5 -54t-160 -26.5l-5 -16q132 -38 132 -172q0 -84 -58 -145.5t-168 -61.5q-83 0 -142 43.5t-89 106.5q-3 5 -15.5 41t-11.5 37l166 -3q18 -20 43 -38.5t43 -18.5q50 0 53 33q1 28 -22.5 41.5t-53.5 12.5t-58.5 -1.5
t-37.5 0.5l4 10q31 69 52 129q-85 4 -166 21.5t-157 53t-133 85.5t-91.5 123.5t-34.5 161.5v26h311v-26q0 -79 113 -123q87 -33 209 -33q133 0 217 31q104 45 104 131q0 76 -114 104q-50 13 -115 17q-39 2 -102 2q-69 0 -127 4t-121 15t-112.5 29t-95.5 49t-76 72t-48 100
t-18 132q0 98 34 174.5t91 125t137 80t164.5 44t181.5 12.5q89 0 174.5 -15.5t165 -50.5t139 -85.5t95.5 -126t36 -166.5v-31h-313v31q0 77 -99 119q-88 35 -198 35q-125 0 -199 -29q-96 -33 -96 -117q0 -74 108 -96q43 -10 105 -14q35 -2 96 -2q71 0 130.5 -4t125 -15.5
t117.5 -30t100 -50t80 -74t51 -103t19 -135.5z" />
    <glyph glyph-name="scedilla" unicode="&#x15f;" horiz-adv-x="1521" 
d="M1397 426q0 -89 -28 -161.5t-75.5 -122t-115 -85t-141.5 -54t-160 -26.5l-5 -16q132 -38 132 -172q0 -84 -58 -145.5t-168 -61.5q-83 0 -142 43.5t-89 106.5q-3 5 -15.5 41t-11.5 37l166 -3q18 -20 43 -38.5t43 -18.5q50 0 53 33q1 28 -22.5 41.5t-53.5 12.5t-58.5 -1.5
t-37.5 0.5l4 10q31 69 52 129q-85 4 -166 21.5t-157 53t-133 85.5t-91.5 123.5t-34.5 161.5v26h311v-26q0 -79 113 -123q87 -33 209 -33q133 0 217 31q104 45 104 131q0 76 -114 104q-50 13 -115 17q-39 2 -102 2q-69 0 -127 4t-121 15t-112.5 29t-95.5 49t-76 72t-48 100
t-18 132q0 98 34 174.5t91 125t137 80t164.5 44t181.5 12.5q89 0 174.5 -15.5t165 -50.5t139 -85.5t95.5 -126t36 -166.5v-31h-313v31q0 77 -99 119q-88 35 -198 35q-125 0 -199 -29q-96 -33 -96 -117q0 -74 108 -96q43 -10 105 -14q35 -2 96 -2q71 0 130.5 -4t125 -15.5
t117.5 -30t100 -50t80 -74t51 -103t19 -135.5z" />
    <glyph glyph-name="Scaron" unicode="&#x160;" horiz-adv-x="1521" 
d="M506 1884l156 -321h196l156 321h-201l-51 -108l-55 108h-201zM127 420q0 -94 38.5 -171t101.5 -127.5t146.5 -84.5t170 -49t176.5 -15q100 0 188.5 13t172.5 45.5t143.5 82.5t96 130t36.5 182q0 75 -19 135.5t-51 103t-80 74t-100 50t-117.5 30t-125 15.5t-130.5 4
q-61 0 -96 2q-62 4 -105 14q-108 22 -108 96q0 84 96 117q74 29 199 29q110 0 198 -35q99 -42 99 -119v-31h313v31q0 91 -36 166.5t-95.5 126t-139 85.5t-165 50.5t-174.5 15.5q-97 0 -181.5 -12.5t-164.5 -44t-137 -80t-91 -125t-34 -174.5q0 -73 18 -132t48 -100t76 -72
t95.5 -49t112.5 -29t121 -15t127 -4q63 0 102 -2q65 -4 115 -17q114 -28 114 -104q0 -86 -104 -131q-84 -31 -217 -31q-122 0 -209 33q-113 44 -113 123v26h-311v-26z" />
    <glyph glyph-name="scaron" unicode="&#x161;" horiz-adv-x="1521" 
d="M506 1884l156 -321h196l156 321h-201l-51 -108l-55 108h-201zM127 420q0 -94 38.5 -171t101.5 -127.5t146.5 -84.5t170 -49t176.5 -15q100 0 188.5 13t172.5 45.5t143.5 82.5t96 130t36.5 182q0 75 -19 135.5t-51 103t-80 74t-100 50t-117.5 30t-125 15.5t-130.5 4
q-61 0 -96 2q-62 4 -105 14q-108 22 -108 96q0 84 96 117q74 29 199 29q110 0 198 -35q99 -42 99 -119v-31h313v31q0 91 -36 166.5t-95.5 126t-139 85.5t-165 50.5t-174.5 15.5q-97 0 -181.5 -12.5t-164.5 -44t-137 -80t-91 -125t-34 -174.5q0 -73 18 -132t48 -100t76 -72
t95.5 -49t112.5 -29t121 -15t127 -4q63 0 102 -2q65 -4 115 -17q114 -28 114 -104q0 -86 -104 -131q-84 -31 -217 -31q-122 0 -209 33q-113 44 -113 123v26h-311v-26z" />
    <glyph glyph-name="Utilde" unicode="&#x168;" horiz-adv-x="1648" 
d="M1085 1665v180l-102 -78q-38 -32 -76 -32q-14 0 -30 18t-30 39t-41.5 39t-60.5 18q-56 0 -104 -30q-29 -17 -72 -56l-4 -4l-2 -194l45 43q42 42 66 61q51 39 76 39q16 0 43.5 -31t57 -62.5t50.5 -31.5q87 0 180 78zM190 653q0 -101 25.5 -198.5t78.5 -184.5t127 -153
t178.5 -105t225.5 -39t225.5 39t178.5 105.5t127 153.5t78.5 184.5t25.5 197.5v707h-313v-707q0 -95 -35.5 -178.5t-110.5 -139.5t-176 -56q-77 0 -139.5 32t-101.5 85.5t-59.5 119.5t-20.5 137v707h-314v-707z" />
    <glyph glyph-name="utilde" unicode="&#x169;" horiz-adv-x="1648" 
d="M1085 1665v180l-102 -78q-38 -32 -76 -32q-14 0 -30 18t-30 39t-41.5 39t-60.5 18q-56 0 -104 -30q-29 -17 -72 -56l-4 -4l-2 -194l45 43q42 42 66 61q51 39 76 39q16 0 43.5 -31t57 -62.5t50.5 -31.5q87 0 180 78zM190 653q0 -101 25.5 -198.5t78.5 -184.5t127 -153
t178.5 -105t225.5 -39t225.5 39t178.5 105.5t127 153.5t78.5 184.5t25.5 197.5v707h-313v-707q0 -95 -35.5 -178.5t-110.5 -139.5t-176 -56q-77 0 -139.5 32t-101.5 85.5t-59.5 119.5t-20.5 137v707h-314v-707z" />
    <glyph glyph-name="Umacron" unicode="&#x16a;" horiz-adv-x="1648" 
d="M1047 1700h-447v-148h447v148zM190 653q0 -101 25.5 -198.5t78.5 -184.5t127 -153t178.5 -105t225.5 -39t225.5 39t178.5 105.5t127 153.5t78.5 184.5t25.5 197.5v707h-313v-707q0 -95 -35.5 -178.5t-110.5 -139.5t-176 -56q-77 0 -139.5 32t-101.5 85.5t-59.5 119.5
t-20.5 137v707h-314v-707z" />
    <glyph glyph-name="umacron" unicode="&#x16b;" horiz-adv-x="1648" 
d="M1047 1700h-447v-148h447v148zM190 653q0 -101 25.5 -198.5t78.5 -184.5t127 -153t178.5 -105t225.5 -39t225.5 39t178.5 105.5t127 153.5t78.5 184.5t25.5 197.5v707h-313v-707q0 -95 -35.5 -178.5t-110.5 -139.5t-176 -56q-77 0 -139.5 32t-101.5 85.5t-59.5 119.5
t-20.5 137v707h-314v-707z" />
    <glyph glyph-name="Uring" unicode="&#x16e;" horiz-adv-x="1648" 
d="M674 1708q0 -55 37 -101t112 -46q77 0 114.5 46t37.5 101q0 56 -37.5 100.5t-114.5 44.5q-76 0 -112.5 -45t-36.5 -100zM190 653q0 -101 25.5 -198.5t78.5 -184.5t127 -153t178.5 -105t225.5 -39t225.5 39t178.5 105.5t127 153.5t78.5 184.5t25.5 197.5v707h-313v-707
q0 -95 -35.5 -178.5t-110.5 -139.5t-176 -56q-77 0 -139.5 32t-101.5 85.5t-59.5 119.5t-20.5 137v707h-314v-707zM807 1708q0 18 16 18q15 0 15 -18q0 -12 -3 -15t-12 -3q-6 0 -9 0.5t-5 4.5t-2 13z" />
    <glyph glyph-name="uring" unicode="&#x16f;" horiz-adv-x="1648" 
d="M674 1708q0 -55 37 -101t112 -46q77 0 114.5 46t37.5 101q0 56 -37.5 100.5t-114.5 44.5q-76 0 -112.5 -45t-36.5 -100zM190 653q0 -101 25.5 -198.5t78.5 -184.5t127 -153t178.5 -105t225.5 -39t225.5 39t178.5 105.5t127 153.5t78.5 184.5t25.5 197.5v707h-313v-707
q0 -95 -35.5 -178.5t-110.5 -139.5t-176 -56q-77 0 -139.5 32t-101.5 85.5t-59.5 119.5t-20.5 137v707h-314v-707zM807 1708q0 18 16 18q15 0 15 -18q0 -12 -3 -15t-12 -3q-6 0 -9 0.5t-5 4.5t-2 13z" />
    <glyph glyph-name="Wcircumflex" unicode="&#x174;" horiz-adv-x="1755" 
d="M879 1663l53 -109h198l-153 322h-197l-155 -322h200zM100 1360l160 -1360h315l302 731l309 -731h311l158 1360h-307l-82 -787l-240 525h-293l-227 -525l-96 787h-310z" />
    <glyph glyph-name="wcircumflex" unicode="&#x175;" horiz-adv-x="1755" 
d="M879 1663l53 -109h198l-153 322h-197l-155 -322h200zM100 1360l160 -1360h315l302 731l309 -731h311l158 1360h-307l-82 -787l-240 525h-293l-227 -525l-96 787h-310z" />
    <glyph glyph-name="Ycircumflex" unicode="&#x176;" horiz-adv-x="1515" 
d="M760 1663l51 -109h201l-156 322h-197l-155 -322h201zM51 1360l551 -881v-479h311v479l551 881h-364l-340 -576l-348 576h-361z" />
    <glyph glyph-name="ycircumflex" unicode="&#x177;" horiz-adv-x="1515" 
d="M760 1663l51 -109h201l-156 322h-197l-155 -322h201zM55 1360l551 -881v-479h312v479l550 881h-364l-340 -576l-348 576h-361z" />
    <glyph glyph-name="Ydieresis" unicode="&#x178;" horiz-adv-x="1515" 
d="M733 1681q0 48 -36 86.5t-103 38.5t-101 -39t-34 -86q0 -49 33.5 -85.5t101.5 -36.5q67 0 103 36.5t36 85.5zM51 1360l551 -881v-479h311v479l551 881h-364l-340 -576l-348 576h-361zM782 1679q0 -48 33.5 -86.5t99.5 -38.5q68 0 104 37.5t36 87.5q0 49 -36 87t-104 38
q-66 0 -99.5 -38.5t-33.5 -86.5z" />
    <glyph glyph-name="Zacute" unicode="&#x179;" horiz-adv-x="1597" 
d="M739 1874l-155 -328h196l234 336zM152 0h1294v289h-830l805 823v248h-1245v-291h778l-802 -823v-246z" />
    <glyph glyph-name="zacute" unicode="&#x17a;" horiz-adv-x="1597" 
d="M739 1874l-155 -328h196l234 336zM152 0h1294v289h-830l805 823v248h-1245v-291h778l-802 -823v-246z" />
    <glyph glyph-name="Zdotaccent" unicode="&#x17b;" horiz-adv-x="1597" 
d="M936 1692q0 49 -36 88t-103 39t-101 -39t-34 -88q0 -48 34 -86.5t101 -38.5t103 38.5t36 86.5zM152 0h1294v289h-830l805 823v248h-1245v-291h778l-802 -823v-246z" />
    <glyph glyph-name="zdotaccent" unicode="&#x17c;" horiz-adv-x="1597" 
d="M936 1692q0 49 -36 88t-103 39t-101 -39t-34 -88q0 -48 34 -86.5t101 -38.5t103 38.5t36 86.5zM152 0h1294v289h-830l805 823v248h-1245v-291h778l-802 -823v-246z" />
    <glyph glyph-name="Zcaron" unicode="&#x17d;" horiz-adv-x="1597" 
d="M547 1884l153 -321h197l156 321h-201l-51 -108l-53 108h-201zM152 0h1294v289h-830l805 823v248h-1245v-291h778l-802 -823v-246z" />
    <glyph glyph-name="zcaron" unicode="&#x17e;" horiz-adv-x="1597" 
d="M547 1884l153 -321h197l156 321h-201l-51 -108l-53 108h-201zM152 0h1294v289h-830l805 823v248h-1245v-291h778l-802 -823v-246z" />
    <glyph glyph-name="circumflex" unicode="&#x2c6;" horiz-adv-x="706" 
d="M371 1135l51 -109h201l-156 324h-197l-153 -324h200z" />
    <glyph glyph-name="caron" unicode="&#x2c7;" horiz-adv-x="704" 
d="M117 1358l153 -324h197l156 324h-201l-51 -111l-54 111h-200z" />
    <glyph glyph-name="dotaccent" unicode="&#x2d9;" horiz-adv-x="342" 
d="M317 1165q0 48 -36 86.5t-103 38.5t-101 -38.5t-34 -86.5q0 -50 34 -88.5t101 -38.5t103 38.5t36 88.5z" />
    <glyph glyph-name="ring" unicode="&#x2da;" horiz-adv-x="602" 
d="M111 1182q0 -57 36.5 -103.5t110.5 -46.5q77 0 114.5 46.5t37.5 103.5q0 55 -37.5 99t-114.5 44q-74 0 -110.5 -44.5t-36.5 -98.5zM242 1182q0 18 16 18q14 0 14 -18q0 -13 -3 -16t-11 -3q-6 0 -9 1t-5 5t-2 13z" />
    <glyph glyph-name="tilde" unicode="&#x2dc;" horiz-adv-x="612" 
d="M561 1139v178l-104 -78q-42 -31 -74 -31q-14 0 -30 17.5t-30.5 39t-42 39t-61.5 17.5q-52 0 -102 -31q-33 -18 -74 -55l-4 -4l-2 -195l45 43q39 39 68 64q51 39 73 39q16 0 44.5 -32t58.5 -63.5t51 -31.5q87 0 180 78z" />
    <glyph glyph-name="Wgrave" unicode="&#x1e80;" horiz-adv-x="1755" 
d="M1090 1559l-150 325h-274l231 -325h193zM100 1360l160 -1360h315l302 731l309 -731h311l158 1360h-307l-82 -787l-240 525h-293l-227 -525l-96 787h-310z" />
    <glyph glyph-name="wgrave" unicode="&#x1e81;" horiz-adv-x="1755" 
d="M1090 1559l-150 325h-274l231 -325h193zM100 1360l160 -1360h315l302 731l309 -731h311l158 1360h-307l-82 -787l-240 525h-293l-227 -525l-96 787h-310z" />
    <glyph glyph-name="Wacute" unicode="&#x1e82;" horiz-adv-x="1755" 
d="M817 1874l-155 -328h196l234 336zM100 1360l160 -1360h315l302 731l309 -731h311l158 1360h-307l-82 -787l-240 525h-293l-227 -525l-96 787h-310z" />
    <glyph glyph-name="wacute" unicode="&#x1e83;" horiz-adv-x="1755" 
d="M817 1874l-155 -328h196l234 336zM100 1360l160 -1360h315l302 731l309 -731h311l158 1360h-307l-82 -787l-240 525h-293l-227 -525l-96 787h-310z" />
    <glyph glyph-name="Wdieresis" unicode="&#x1e84;" horiz-adv-x="1755" 
d="M852 1681q0 49 -35.5 87t-103.5 38q-66 0 -99.5 -39t-33.5 -86q0 -49 33.5 -85.5t99.5 -36.5q68 0 103.5 36.5t35.5 85.5zM100 1360l160 -1360h315l302 731l309 -731h311l158 1360h-307l-82 -787l-240 525h-293l-227 -525l-96 787h-310zM901 1679q0 -48 34.5 -86.5
t100.5 -38.5q67 0 103.5 38t36.5 87q0 48 -36.5 86.5t-103.5 38.5q-66 0 -100.5 -38.5t-34.5 -86.5z" />
    <glyph glyph-name="wdieresis" unicode="&#x1e85;" horiz-adv-x="1755" 
d="M852 1681q0 49 -35.5 87t-103.5 38q-66 0 -99.5 -39t-33.5 -86q0 -49 33.5 -85.5t99.5 -36.5q68 0 103.5 36.5t35.5 85.5zM100 1360l160 -1360h315l302 731l309 -731h311l158 1360h-307l-82 -787l-240 525h-293l-227 -525l-96 787h-310zM901 1679q0 -48 34.5 -86.5
t100.5 -38.5q67 0 103.5 38t36.5 87q0 48 -36.5 86.5t-103.5 38.5q-66 0 -100.5 -38.5t-34.5 -86.5z" />
    <glyph glyph-name="uni1E9E" unicode="&#x1e9e;" horiz-adv-x="1300" 
d="M440 -406h-329l2 1792h532q117 0 212.5 -25t169 -75.5t113.5 -134.5t40 -195q0 -169 -113 -266q152 -96 152 -282q0 -92 -29.5 -166t-80.5 -123.5t-122.5 -83t-153 -48t-174.5 -14.5v306q232 0 232 129t-232 129h-106v288h106q195 0 195 131q0 127 -209 127h-205v-1489z
" />
    <glyph glyph-name="Ygrave" unicode="&#x1ef2;" horiz-adv-x="1515" 
d="M913 479l551 881h-364l-340 -576l-348 576h-361l551 -881v-479h311v479zM506 1884l231 -325h193l-152 325h-272z" />
    <glyph glyph-name="ygrave" unicode="&#x1ef3;" horiz-adv-x="1515" 
d="M913 479l551 881h-364l-340 -576l-348 576h-361l551 -881v-479h311v479zM506 1884l231 -325h193l-152 325h-272z" />
    <glyph glyph-name="endash" unicode="&#x2013;" horiz-adv-x="2076" 
d="M1888 537v288h-1698v-288h1698z" />
    <glyph glyph-name="emdash" unicode="&#x2014;" horiz-adv-x="2580" 
d="M2392 537v288h-2202v-288h2202z" />
    <glyph glyph-name="quoteleft" unicode="&#x2018;" horiz-adv-x="638" 
d="M127 956q0 -39 10.5 -77t32.5 -72t62 -55t92 -21q91 0 139.5 59t48.5 138q0 59 -27 107t-82 73q34 96 80 145l17 19l-123 125l-21 -15q-105 -70 -167 -189.5t-62 -236.5z" />
    <glyph glyph-name="quoteright" unicode="&#x2019;" horiz-adv-x="638" 
d="M139 844l123 -123l23 16q103 67 165 187.5t62 240.5q0 36 -10 72.5t-30.5 71t-59 56t-88.5 21.5q-93 0 -145 -57.5t-52 -138.5q0 -59 27 -108t82 -72q-36 -101 -80 -148z" />
    <glyph glyph-name="quotesinglbase" unicode="&#x201a;" horiz-adv-x="638" 
d="M139 72l123 -121l23 14q103 69 165 188.5t62 239.5q0 29 -5.5 58t-19.5 59t-35 53.5t-54 38t-74 14.5q-95 0 -146 -57t-51 -139q0 -59 27.5 -108t81.5 -74q-32 -92 -80 -148z" />
    <glyph glyph-name="quotedblleft" unicode="&#x201c;" horiz-adv-x="1142" 
d="M127 956q0 -39 10.5 -77t32.5 -72t62 -55t92 -21q91 0 139.5 59t48.5 138q0 59 -27 107t-82 73q34 96 80 145l17 19l-123 125l-21 -15q-105 -70 -167 -189.5t-62 -236.5zM629 956q0 -39 10.5 -76.5t32 -72t61.5 -55.5t92 -21q92 0 141.5 59t49.5 138q0 131 -109 180
q28 90 80 145l19 19l-127 125l-21 -15q-105 -70 -167 -189.5t-62 -236.5z" />
    <glyph glyph-name="quotedblright" unicode="&#x201d;" horiz-adv-x="1142" 
d="M139 844l123 -123l23 16q103 67 165 187.5t62 240.5q0 36 -10 72.5t-30.5 71t-59 56t-88.5 21.5q-93 0 -145 -57.5t-52 -138.5q0 -59 27 -108t82 -72q-36 -101 -80 -148zM629 1190q0 -58 27.5 -107.5t82.5 -72.5q-30 -95 -80 -148l-18 -18l125 -123l22 16
q103 67 165.5 187.5t62.5 240.5q0 36 -10 72.5t-31 71t-60 56t-90 21.5q-93 0 -144.5 -57.5t-51.5 -138.5z" />
    <glyph glyph-name="quotedblbase" unicode="&#x201e;" horiz-adv-x="1142" 
d="M139 72l123 -121l23 14q103 69 165 188.5t62 239.5q0 29 -6 58t-20 59t-35 53.5t-53.5 38t-73.5 14.5q-95 0 -146 -57t-51 -139q0 -59 27.5 -108t81.5 -74q-32 -92 -80 -148zM629 420q0 -59 27 -108t83 -74q-39 -101 -82 -148l-16 -18l125 -121l22 14q104 69 166 188.5
t62 239.5q0 29 -6 58t-20.5 59t-35.5 53.5t-54.5 38t-74.5 14.5q-95 0 -145.5 -57t-50.5 -139z" />
    <glyph glyph-name="dagger" unicode="&#x2020;" horiz-adv-x="1067" 
d="M1012 395v-289h-316v-366h-313v366h-313v289h313v1225l313 4v-1229h316z" />
    <glyph glyph-name="bullet" unicode="&#x2022;" horiz-adv-x="817" 
d="M127 680q0 -119 74 -204t207 -85q134 0 208 84.5t74 204.5t-74 204.5t-208 84.5t-207.5 -84t-73.5 -205z" />
    <glyph glyph-name="ellipsis" unicode="&#x2026;" horiz-adv-x="2156" 
d="M166 172q0 -82 49.5 -140.5t144.5 -58.5q91 0 142 59t51 140t-51.5 139t-141.5 58q-94 0 -144 -57.5t-50 -139.5zM885 172q0 -82 50 -140.5t144 -58.5q93 0 143 58.5t50 140.5q0 81 -50.5 139t-142.5 58q-93 0 -143.5 -58t-50.5 -139zM1606 172q0 -82 49.5 -140.5
t144.5 -58.5q91 0 142 59t51 140t-51.5 139t-141.5 58q-94 0 -144 -57.5t-50 -139.5z" />
    <glyph glyph-name="guilsinglleft" unicode="&#x2039;" horiz-adv-x="763" 
d="M705 594l-224 119l224 121v215l-603 -336l603 -334v215z" />
    <glyph glyph-name="guilsinglright" unicode="&#x203a;" horiz-adv-x="727" 
d="M63 379l605 334l-605 336v-215l224 -121l-224 -119v-215z" />
    <glyph glyph-name="Euro" unicode="&#x20ac;" horiz-adv-x="1529" 
d="M63 825v-288h138q22 -118 78 -219.5t140 -179t201.5 -121.5t253.5 -44q163 0 304 66.5t235 187.5l17 21l-246 209l-21 -29q-50 -70 -125 -109.5t-164 -39.5q-124 0 -212 71.5t-123 186.5h591v288h-591q35 115 123 186.5t212 71.5q89 0 164 -39.5t125 -109.5l21 -31
l246 207l-17 20q-94 123 -234.5 189.5t-304.5 66.5q-136 0 -253.5 -44t-201.5 -120.5t-140 -178t-78 -218.5h-138z" />
    <glyph glyph-name="uni2120" unicode="&#x2120;" horiz-adv-x="1601" 
d="M256 874h-193v-28q0 -65 32.5 -114.5t85.5 -76.5t111 -40t118 -13q69 0 127 11.5t110.5 38t82.5 78t30 122.5q0 53 -17.5 93t-42.5 63t-64.5 38.5t-72.5 21t-76 9.5q-12 1 -74.5 3t-88.5 7q-31 6 -42.5 14.5t-11.5 22.5q0 38 43 54q35 12 97 12q57 0 98 -14
q45 -17 45 -54v-26h195v26q0 64 -30.5 113t-81 77t-108 42t-118.5 14q-66 0 -122 -11.5t-105.5 -37.5t-78 -76t-28.5 -119q0 -52 17 -91t43.5 -62t64.5 -38t72.5 -20.5t76.5 -7.5q62 -4 90 -4q54 -4 74 -8q31 -6 42 -14.5t11 -26.5q0 -39 -47 -57q-49 -15 -110 -15
q-55 0 -105 17q-49 17 -49 49v28zM772 614h189v342l88 -342h172l90 344v-344h190v752h-270l-96 -385l-97 385h-266v-752z" />
    <glyph glyph-name="trademark" unicode="&#x2122;" horiz-adv-x="1521" 
d="M63 1366v-178h205v-574h201v574h203v178h-609zM688 614h193v342l88 -342h172l90 349v-349h190v752h-268l-98 -385l-99 385h-268v-752z" />
    <glyph glyph-name="minus" unicode="&#x2212;" horiz-adv-x="1445" 
d="M1257 537v288h-1067v-288h1067z" />
    <glyph glyph-name="_Designova" horiz-adv-x="1435" 
d="M717 39q-166 0 -308 83t-224.5 225t-82.5 308q1 125 50 238t131.5 195.5t196.5 131t239 48.5q166 0 307.5 -82t224 -223.5t82.5 -307.5q0 -167 -82.5 -309t-224.5 -224.5t-309 -82.5zM176 655q0 -148 72.5 -273t197.5 -197t273 -72q146 0 270.5 72t197.5 196.5t73 271.5
q0 148 -72.5 273t-197 197.5t-271.5 72.5t-272 -72.5t-198 -197t-73 -271.5zM369 762q8 0 12 -4q63 -22 111 -29q41 -3 77 2q34 8 49 14q5 0 11.5 3.5t7.5 3.5q-7 4 -22 11.5t-25.5 14.5t-18.5 17h21q37 0 82 18q83 51 151 70q27 8 62 8q7 0 24 1.5t25 0.5q65 -4 96 -37
q9 -6 33 -35v-2q-4 2 -6 2q-52 20 -92 5.5t-68 -56.5q-3 -4 -29 -65q-49 -113 -53 -121q-28 -63 -69 -113q-16 -23 -70 -63q-57 -40 -131 -60h-6l26 23q16 14 29 49q4 12 22.5 63t26.5 78q35 96 62 144q-7 -7 -11 -13q-9 -9 -10 -14q-19 -21 -35 -62q-4 -6 -10 -6
q-114 6 -195 76l-61 59q-3 3 -8 8.5t-8 8.5z" />
    <glyph glyph-name="_Origin" horiz-adv-x="1918" 
d="M102 41v1178h1715v-1176l-43 -2v2zM147 84h1627v641h-1627v-641zM297 229v131h31v-131h-31zM301 905h70q60 0 86 41q10 18 10 47q0 56 -45 78q-18 10 -49 10h-72v-176zM319 451v129h111v-23h-80v-29h72v-22h-72v-33h80v-22h-111zM342 938v111h27q37 0 51 -23q6 -24 6 -33
q0 -37 -27 -49q-12 -6 -30 -6h-27zM348 229v131h25l65 -77v77h31v-131h-25l-65 82v-82h-31zM451 451v129h26l66 -78v78h28v-129h-24l-66 79v-79h-30zM483 971q0 -46 35 -60q10 -6 39 -6q38 0 55 17q11 15 13 22l-39 2q-3 -8 -17 -14h-12q-23 0 -29 14q-6 9 -6 17h103v10
q0 33 -21 51q-19 16 -49 16q-42 0 -63 -32q-9 -22 -9 -37zM522 985q3 16 17 23q6 6 16 6q24 0 27 -17q4 -4 4 -12h-64zM537 229v131h65q53 0 53 -32q0 -22 -18 -29q2 0 2 -2q20 -7 20 -31q0 -37 -53 -37h-69zM567 254h37q25 0 25 16q0 15 -25 15h-37v-31zM567 311h33
q25 0 25 15q0 16 -25 16h-33v-31zM594 557v23h115v-23h-43v-106h-29v106h-43zM637 944q6 -39 68 -39q41 0 59 21q6 9 6 20q0 29 -41 37l-29 4q-18 3 -18 14q0 13 23 13q24 0 24 -15l39 2q-7 39 -63 39q-39 0 -56 -20q-8 -8 -8 -21q0 -30 41 -38l27 -5q20 -3 20 -12
q0 -14 -24 -14t-27 16zM674 229v131h108v-24h-80v-27h72v-24h-72v-29h78v-27h-106zM721 580h33l30 -91l31 91h27l30 -93l31 93h29l-41 -129h-35l-29 88l-28 -88h-33zM786 905h43v133h-43v-133zM786 1073q0 -7 7 -12.5t16 -5.5t15.5 5.5t6.5 12.5q0 8 -6.5 13.5t-15.5 5.5
t-16 -6t-7 -13zM803 229v131h61q21 0 29 -4q29 -14 29 -43q0 -12 -9 -24q-18 -18 -20 -19l27 -41h-33l-25 39h-26v-39h-33zM836 293h26q29 0 29 20q0 23 -29 23h-26v-43zM848 973q0 -46 31 -58q12 -6 30 -6q22 0 33 11q8 4 8 10h2v-25q0 -24 -30 -24q-19 0 -27 8l-4 8
l-39 -6q3 -16 21 -26.5t47 -10.5q43 0 63 23q10 10 10 28v133h-41v-22h-2q-3 14 -22 20q-8 4 -19 4q-38 0 -53 -30q-8 -13 -8 -37zM891 973q0 24 12 33q9 6 19 6q18 0 28 -21q0 -2 1 -8.5t1 -9.5q0 -37 -30 -37q-20 0 -29 18q-2 4 -2 19zM936 229v131h29v-104h77v-27h-106z
M938 516q0 27 20 47q18 21 52 21q33 0 51 -21q20 -20 20 -47q0 -26 -20 -49q-18 -18 -51 -18q-34 0 -52 18q-20 23 -20 49zM969 516q0 -19 11 -31t30 -12t30 12t11 31t-11 31t-30 12t-30 -12t-11 -31zM1018 905h41v78q0 17 14 23q4 4 14 4q25 0 25 -27v-78h43v84
q0 34 -25 43q-11 8 -26 8q-32 0 -45 -26v24h-41v-133zM1065 229v131h31v-131h-31zM1100 451v129h57q23 0 31 -2q26 -14 26 -43q0 -15 -6 -27q-7 -10 -22 -16l28 -41h-32l-25 36h-29v-36h-28zM1116 229v131h27l63 -77v77h33v-131h-27l-65 82v-82h-31zM1128 512h27q29 0 29 23
q0 22 -29 22h-27v-45zM1174 971q0 -42 34 -60q10 -6 39 -6q44 0 66 31q8 20 8 35q0 40 -35 61q-24 8 -39 8q-44 0 -65 -32q-8 -20 -8 -37zM1217 973q0 24 12 33q9 6 18 6q20 0 27 -21q4 -8 4 -18q0 -27 -14 -35q-6 -6 -17 -6q-18 0 -28 20q-2 6 -2 21zM1231 451v129h108v-23
h-77v-29h69v-22h-69v-55h-31zM1257 248q0 18 19 18q8 0 13 -5t5 -13q0 -7 -6 -19l-10 -28h-18l8 30q-11 4 -11 17zM1321 1038l53 -133h45l54 133h-43l-31 -94h-2l-31 94h-45zM1352 451v129h108v-23h-78v-29h70v-22h-70v-33h78v-22h-108zM1368 229v131h59q23 0 39 -8
q33 -13 33 -55q0 -24 -8 -37q-17 -31 -64 -31h-59zM1399 256h26q17 0 25 4q18 12 18 37q0 16 -4 20q-10 19 -39 19h-26v-80zM1475 944q0 -29 22 -35q8 -4 27 -4q22 0 35 8l8 13h2v-21h37v90q0 21 -17 35q-23 10 -45 10q-35 0 -53 -18q-9 -9 -12 -21l39 -4q4 17 26 17
q21 0 21 -17v-2q0 -7 -15 -10q-12 0 -20 -2q-22 0 -39 -10q-16 -8 -16 -29zM1483 451v129h22l68 -78v78h31v-129h-27l-66 79v-79h-28zM1513 944q0 8 13 14q3 3 12 3q3 1 14.5 3t14.5 3v-13q0 -15 -17 -22q-1 0 -6 -1t-10 -1q-21 0 -21 14zM1518 229v131h108v-24h-78v-27h70
v-24h-70v-29h78v-27h-108z" />
    <glyph glyph-name="_Typeface" horiz-adv-x="1718" 
d="M102 365v553h1514v-553h-1514zM268 510h35v211l174 -211h35v264h-35v-209l-174 209h-35v-264zM569 643q0 -56 35 -97.5t92 -41.5q59 0 94 41.5t35 97.5t-35 96.5t-94 40.5q-57 0 -92 -41.5t-35 -95.5zM608 643q0 40 24 71t64 31t65 -31t25 -71q0 -41 -24.5 -72.5
t-65.5 -31.5q-40 0 -64 31.5t-24 72.5zM887 510h35v117h104l64 -117h38l-65 117h12q30 1 46 22.5t16 50.5q0 31 -19 52.5t-53 21.5h-178v-264zM922 657v84h143q18 0 27.5 -12.5t9.5 -30.5q0 -41 -37 -41h-143zM1202 510h123q58 0 92.5 39t34.5 94t-34.5 93t-92.5 38h-123
v-264zM1239 543v198h86q41 0 64.5 -29.5t23.5 -68.5q0 -41 -23.5 -70.5t-64.5 -29.5h-86z" />
    <glyph glyph-name="_VendorID" horiz-adv-x="1132" 
d="M102 147v1131h928v-1131h-928zM106 61q0 11 8 19t17 8q8 0 10 -4l4 -4v24h13v-69h-13v10l-4 -8q-4 -4 -14 -4q-21 0 -21 28zM119 61q0 -16 12 -16q14 0 14 16q0 17 -12 17q-14 0 -14 -17zM168 61q0 11 7.5 19t17.5 8t17 -8t7 -19q0 -2 -2 -4h-35q2 -12 13 -12q10 0 12 8
h10q-3 -20 -22 -20q-25 0 -25 28zM180 63h25q-3 15 -12 15q-10 0 -13 -15zM221 49h15q4 -8 8 -8q8 0 8 8q0 1 -10 8q-19 3 -19 15q0 16 21 16q20 0 20 -16h-14q0 6 -6 6t-6 -4t10 -11q16 -3 16 -14q0 -16 -20 -16t-23 16zM262 434q0 -58 40 -98.5t99 -40.5q57 0 96.5 40.5
t39.5 98.5q0 59 -38 98t-98 39q-16 0 -22 -2l80 115h-62l-92 -131q-43 -61 -43 -119zM262 883q0 -57 40.5 -97.5t98.5 -40.5q57 0 96.5 40t39.5 98q0 59 -38 98t-98 39q-16 0 -22 -2l80 117h-62l-92 -136q-43 -64 -43 -116zM272 35v53h15v-53h-15zM272 98q0 6 9 6q6 0 6 -6
q0 -8 -6 -8q-9 0 -9 8zM309 33q0 -8 13 -8q10 0 14 12v8l-4 -8q-2 0 -6.5 -1t-6.5 -1q-22 0 -22 26q0 12 7 19.5t18 7.5q8 0 10 -4l4 -4v8h14v-39q0 -8 -2 -12q0 -23 -26 -23q-25 0 -25 19h12zM309 61q0 -16 13 -16q14 0 14 16q0 17 -14 17q-13 0 -13 -17zM313 434
q0 37 25 61.5t63 24.5q37 0 61.5 -24.5t24.5 -61.5q0 -39 -24.5 -64.5t-61.5 -25.5q-39 0 -63.5 24.5t-24.5 65.5zM313 883q0 39 24.5 63.5t63.5 24.5q37 0 61.5 -25t24.5 -63t-24.5 -63t-61.5 -25q-39 0 -63.5 24.5t-24.5 63.5zM360 35v53h13v-10l4 6q4 4 12 4q15 0 19 -14
q2 -4 2 -11v-28h-15v33q0 10 -10 10q-12 0 -12 -19v-24h-13zM416 61q0 11 7 19t19 8t19.5 -8t7.5 -19q0 -12 -7.5 -20t-19.5 -8t-19 8t-7 20zM430 61q0 -16 12 -16q15 0 15 16q0 17 -15 17q-12 0 -12 -17zM473 88h14l13 -43l12 43h14l-18 -53h-19zM530 49q0 17 29 17h2v6
q0 6 -8 6q-10 0 -10 -8h-13q0 18 23 18q17 0 20 -14v-39h-12v6l-2 -4q-8 -4 -14 -4q-5 0 -10 4.5t-5 11.5zM543 49q0 -4 8 -4q10 0 10 8v6q-18 0 -18 -10zM582 76v10h6v6q0 14 18 14h4v-10q-10 3 -10 -4v-6h10v-10h-10v-41h-12v41h-6zM594 434q0 -58 40 -98.5t99 -40.5
q57 0 96 40t39 99t-38.5 98t-96.5 39q-16 0 -24 -2l82 115h-62l-92 -131q-43 -61 -43 -119zM594 883q0 -58 40 -98t99 -40q57 0 96 40t39 98q0 59 -38.5 98t-96.5 39q-16 0 -24 -2l82 117h-62l-92 -136q-43 -62 -43 -116zM614 61q0 11 7 19t20 8q12 0 19.5 -8t7.5 -19
q0 -12 -7.5 -20t-19.5 -8q-27 0 -27 28zM629 61q0 -16 12 -16t12 16q0 17 -12 17t-12 -17zM645 434q0 37 24.5 61.5t63.5 24.5q36 0 59 -24.5t23 -61.5q0 -40 -22.5 -65t-59.5 -25q-39 0 -63.5 24.5t-24.5 65.5zM645 883q0 39 24.5 63.5t63.5 24.5q36 0 59 -24.5t23 -63.5
t-23 -63.5t-59 -24.5q-39 0 -63.5 24.5t-24.5 63.5zM676 35v53h12v-10l4 6q4 4 13 4q15 0 18 -14v-39h-12v33q-3 10 -9 10q-14 0 -14 -19v-24h-12zM731 76v10h6v12h15v-12h8v-10h-8v-27q0 -9 8 -4v-10h-8q-15 0 -15 10v31h-6zM764 49h14q4 -8 10 -8q9 0 9 8q0 2 -1 3t-5 2.5
t-7 2.5q-16 3 -16 15q0 16 18 16q19 0 25 -16h-16q0 6 -9 6q-4 0 -4 -4q0 -6 11 -11q18 -5 18 -14q0 -16 -23 -16q-18 0 -24 16zM813 41q0 8 10 8q8 0 8 -8t-8 -8q-10 0 -10 8zM838 61q0 12 7.5 19.5t16.5 7.5q23 0 23 -20h-13q-2 10 -10 10q-12 0 -12 -17q0 -16 12 -16
q8 0 10 8h13q0 -20 -23 -20q-24 0 -24 28zM891 61q0 11 7 19t20 8q24 0 24 -27q0 -28 -24 -28q-27 0 -27 28zM903 61q0 -16 15 -16q12 0 12 16q0 17 -12 17q-15 0 -15 -17zM952 35v53h13v-10l6 6q2 4 8 4q13 0 16 -10l6 6q2 4 11 4q6 0 11 -4t5 -8v-13v-28h-12v26v9
q0 8 -10 8q-9 0 -9 -17v-26h-12v35q-5 8 -10 8q-10 0 -10 -17v-26h-13z" />
    </font>
</defs>
</svg>
