<?xml version="1.0" standalone="no"?>
<!DOCTYPE svg PUBLIC "-//W3C//DTD SVG 1.1//EN" "http://www.w3.org/Graphics/SVG/1.1/DTD/svg11.dtd" >
<svg xmlns="http://www.w3.org/2000/svg" xmlns:xlink="http://www.w3.org/1999/xlink" version="1.1">
<metadata>
Created by FontForge 20201107 at Tue May 28 21:44:45 2024
 By 
Copyright (c) 2024 by Designova. All rights reserved.
</metadata>
<defs>
<font id="NORD-BookItalic" horiz-adv-x="1533" >
  <font-face 
    font-family="NORD Book Italic"
    font-weight="400"
    font-style="italic"
    font-stretch="normal"
    units-per-em="2048"
    panose-1="0 0 0 0 0 0 0 0 0 0"
    ascent="1638"
    descent="-410"
    x-height="1360"
    cap-height="1360"
    bbox="20 -414 2707 1978"
    underline-thickness="102"
    underline-position="-255"
    slope="-9"
    unicode-range="U+0020-2212"
  />
<missing-glyph horiz-adv-x="1458" 
d="M102 0v1411h1254v-1411h-1254zM301 522l119 -116l305 305l311 -305l121 116l-307 309l303 308l-117 116l-311 -305l-303 305l-121 -116l307 -308zM311 170h31v84h2l64 -84h28v131h-30v-82h-3l-65 82h-27v-131zM451 219q0 -30 24 -45q30 -6 31 -6q31 0 49 25q6 12 6 26
q0 32 -26 45q-12 6 -29 6q-37 0 -49 -24q-6 -12 -6 -27zM481 219q0 16 11 27q8 4 14 4q13 0 20 -14q2 -6 2 -17q0 -16 -10 -26q-2 0 -5.5 -1.5t-6.5 -1.5q-18 0 -21 15q-4 4 -4 14zM612 236q0 -44 33 -60q24 -8 39 -8q38 0 55 27q9 12 9 28v19h-62v-23h33q0 -15 -17 -22
q-6 -4 -18 -4q-25 0 -35 20q-4 6 -4 23q0 28 19 38q14 7 18 7q12 0 22 -6.5t11 -16.5h30q0 18 -20 35q-17 10 -43 10q-40 0 -59 -31q-11 -14 -11 -36zM766 170h29v131h-29v-131zM805 270l41 -102l-2 -4q-2 -12 -23 -8l-8 -19q12 -4 21 -4q21 0 32 14q4 2 8 13l44 110h-33
l-23 -73h-2l-22 73h-33zM928 133h30v53q8 -12 19 -14q4 -4 14 -4q27 0 39 25q6 8 6 26q0 32 -20 45q-12 6 -25 6q-16 0 -26 -10q-6 -6 -7 -8v18h-30v-137zM958 219q0 18 11 25q6 6 12 6q17 0 20 -14q5 -15 5 -17q0 -11 -11 -26l-14 -3q-14 0 -20 15q-3 6 -3 14zM1053 170h28
v57q0 15 11 19q4 2 12 2q18 0 18 -19v-59h33v63q0 24 -20 33q-8 4 -19 4q-26 0 -35 -18h-2v49h-26v-131z" />
    <glyph glyph-name=".notdef" horiz-adv-x="1458" 
d="M102 0v1411h1254v-1411h-1254zM301 522l119 -116l305 305l311 -305l121 116l-307 309l303 308l-117 116l-311 -305l-303 305l-121 -116l307 -308zM311 170h31v84h2l64 -84h28v131h-30v-82h-3l-65 82h-27v-131zM451 219q0 -30 24 -45q30 -6 31 -6q31 0 49 25q6 12 6 26
q0 32 -26 45q-12 6 -29 6q-37 0 -49 -24q-6 -12 -6 -27zM481 219q0 16 11 27q8 4 14 4q13 0 20 -14q2 -6 2 -17q0 -16 -10 -26q-2 0 -5.5 -1.5t-6.5 -1.5q-18 0 -21 15q-4 4 -4 14zM612 236q0 -44 33 -60q24 -8 39 -8q38 0 55 27q9 12 9 28v19h-62v-23h33q0 -15 -17 -22
q-6 -4 -18 -4q-25 0 -35 20q-4 6 -4 23q0 28 19 38q14 7 18 7q12 0 22 -6.5t11 -16.5h30q0 18 -20 35q-17 10 -43 10q-40 0 -59 -31q-11 -14 -11 -36zM766 170h29v131h-29v-131zM805 270l41 -102l-2 -4q-2 -12 -23 -8l-8 -19q12 -4 21 -4q21 0 32 14q4 2 8 13l44 110h-33
l-23 -73h-2l-22 73h-33zM928 133h30v53q8 -12 19 -14q4 -4 14 -4q27 0 39 25q6 8 6 26q0 32 -20 45q-12 6 -25 6q-16 0 -26 -10q-6 -6 -7 -8v18h-30v-137zM958 219q0 18 11 25q6 6 12 6q17 0 20 -14q5 -15 5 -17q0 -11 -11 -26l-14 -3q-14 0 -20 15q-3 6 -3 14zM1053 170h28
v57q0 15 11 19q4 2 12 2q18 0 18 -19v-59h33v63q0 24 -20 33q-8 4 -19 4q-26 0 -35 -18h-2v49h-26v-131z" />
    <glyph glyph-name=".null" horiz-adv-x="0" 
 />
    <glyph glyph-name=".null" horiz-adv-x="0" 
 />
    <glyph glyph-name="nonmarkingreturn" horiz-adv-x="682" 
 />
    <glyph glyph-name="space" unicode=" " horiz-adv-x="657" 
 />
    <glyph glyph-name="space" unicode="&#xa0;" horiz-adv-x="657" 
 />
    <glyph glyph-name="exclam" unicode="!" horiz-adv-x="591" 
d="M383 1114q-63 -397 -74 -737v-19h90l4 19q101 375 158 737l39 246h-178zM184 113q-10 -58 16 -101t91 -43q66 0 105.5 42t49.5 102q10 61 -17.5 102t-92.5 41q-64 0 -104 -42.5t-48 -100.5z" />
    <glyph glyph-name="quotedbl" unicode="&#x22;" horiz-adv-x="913" 
d="M354 1188q-27 -172 -12 -301v-17h102l9 17q55 135 82 301l26 172h-180zM750 870h98l10 17q56 137 82 301l27 172h-181l-26 -172q-28 -176 -10 -301v-17z" />
    <glyph glyph-name="numbersign" unicode="#" horiz-adv-x="1642" 
d="M307 0h160l108 319h412l-113 -319h156l113 319h252l20 138h-227l153 444h256l21 139h-229l108 320h-158l-108 -320h-410l113 320h-160l-106 -320h-256l-21 -139h227l-155 -444h-252l-21 -138h228zM621 457l155 444h410l-156 -444h-409z" />
    <glyph glyph-name="dollar" unicode="$" horiz-adv-x="1112" 
d="M438 -272h127l51 329q77 6 141.5 19.5t129.5 41t112.5 66.5t83 100.5t47.5 139.5q13 82 -3.5 142.5t-51.5 95.5t-94 57t-117 29.5t-135 9.5l64 401q223 -35 245 -162l4 -16h156l-4 27q-3 57 -27 103.5t-60 77.5t-86 53.5t-100 35t-108 18.5l51 322h-127l-49 -318
q-95 -8 -172.5 -26.5t-152.5 -57t-124.5 -107.5t-64.5 -165q-13 -82 5.5 -141.5t54 -92.5t98.5 -52.5t116.5 -25.5t131.5 -9l-68 -430q-264 33 -291 167l-2 13h-153v-23q5 -75 45.5 -131.5t105.5 -89t130.5 -49.5t141.5 -25zM330 954q27 162 336 205l-64 -401q-52 4 -89 9.5
t-78 19t-64 33.5t-35.5 54t-5.5 80zM639 197l68 424q51 -4 90 -10.5t79.5 -21t64.5 -35.5t36 -55.5t4 -80.5q-28 -185 -342 -221z" />
    <glyph glyph-name="percent" unicode="%" horiz-adv-x="1972" 
d="M307 1137q-16 -102 10 -187t101 -139.5t188 -54.5q172 0 282.5 109.5t137.5 271.5q7 60 4.5 117.5t-25 108.5t-57 89t-91 60t-126.5 22q-86 0 -161.5 -34t-128.5 -90.5t-87.5 -126.5t-46.5 -146zM455 190l88 -116l1190 1097l-91 111zM461 1141q16 100 82.5 169.5
t163.5 69.5q98 0 139.5 -67.5t25.5 -169.5q-14 -99 -78.5 -166.5t-162.5 -67.5q-97 0 -140.5 66.5t-29.5 165.5zM1157 207q-17 -104 10 -189t102.5 -138.5t190.5 -53.5q172 0 281.5 109.5t136.5 271.5q7 60 4.5 117.5t-25 107.5t-57 88t-91 60t-126.5 22q-86 0 -161.5 -33
t-128.5 -89t-88 -126t-48 -147zM1311 213q16 99 82 168.5t163 69.5q98 0 141 -69t27 -169q-14 -99 -79 -166t-164 -67q-98 0 -141 66.5t-29 166.5z" />
    <glyph glyph-name="ampersand" unicode="&#x26;" horiz-adv-x="1335" 
d="M182 354q-29 -187 84 -287t312 -100q121 0 209.5 42.5t197.5 133.5q85 -111 166 -161l14 -13l125 142l-16 10q-61 49 -162 166q88 100 156 252l6 18l-139 37l-11 -19q-22 -51 -59 -104l-49 -74l-197 367l90 55q47 31 81 59t67 63.5t54 78t28 90.5q14 87 -25 151.5
t-108.5 94.5t-157.5 30q-62 0 -122 -15.5t-112.5 -45.5t-89.5 -81t-47 -116q-13 -86 19 -169.5t92 -178.5q-83 -40 -142 -76.5t-118.5 -88t-96 -117t-49.5 -144.5zM362 360q16 102 90.5 177.5t194.5 140.5l248 -422q-94 -74 -166.5 -112t-153.5 -38q-116 0 -173.5 71.5
t-39.5 182.5zM643 1139q10 59 65 86.5t130 27.5q79 0 119 -39t28 -110q-10 -75 -92 -139l-80 -54q-24 -13 -65 -41q-6 10 -19 29t-21 31.5t-18 30t-16 32.5q-42 74 -31 146z" />
    <glyph glyph-name="quotesingle" unicode="'" horiz-adv-x="509" 
d="M354 1188q-27 -172 -12 -301v-17h102l9 17q55 135 82 301l26 172h-180z" />
    <glyph glyph-name="parenleft" unicode="(" horiz-adv-x="602" 
d="M236 680q-25 -171 -25 -336t35.5 -332t105.5 -307l10 -16l142 92l-6 14q-80 195 -100 428.5t18 456.5q37 234 128 462t234 419l10 16l-112 92l-14 -18q-169 -205 -277.5 -459t-148.5 -512z" />
    <glyph glyph-name="parenright" unicode=")" horiz-adv-x="602" 
d="M29 -219l114 -92l15 16q168 208 276.5 463t149.5 512q24 171 23.5 335.5t-36 331t-104.5 304.5l-10 18l-144 -92l6 -14q80 -195 100.5 -429t-16.5 -454q-38 -233 -130.5 -461.5t-233.5 -423.5z" />
    <glyph glyph-name="asterisk" unicode="*" horiz-adv-x="929" 
d="M623 1112q-22 72 -17 107l23 141h102l-22 -141q-5 -39 -47 -107l-25 -47zM258 827l18 9q58 33 103 55q59 21 113 29l43 4l-27 -33q-46 -56 -83 -83.5t-110 -66.5l-22 -10zM303 1118l66 96l20 -10q58 -38 87.5 -68.5t60.5 -86.5l14 -27l2 8l90 29l59 -35v-8l25 33
q43 54 85 85t114 70l20 10l33 -96l-14 -8q-47 -29 -72.5 -42.5t-66.5 -28.5t-83 -21l-43 -6l-10 -72l-80 -74l6 -35q8 -26 13 -51q4 -41 2 -55l-23 -143h-102l22 143q1 10 25 57q5 11 15 29.5t10 19.5l26 39l-69 54l14 88l-37 6q-63 8 -106 35q-22 8 -44 24q-14 8 -43 33z
M684 924l45 -4q56 -8 107 -29q33 -22 43 -27l43 -28l14 -13l-68 -92l-18 10q-59 37 -88 66t-57 84z" />
    <glyph glyph-name="plus" unicode="+" horiz-adv-x="1368" 
d="M688 596l-72 -449h183l71 449h404l26 166h-403l72 452h-183l-71 -452h-404l-26 -166h403z" />
    <glyph glyph-name="comma" unicode="," horiz-adv-x="591" 
d="M160 -266l35 -41l18 16q89 69 150 173t79 210q24 164 -102 164q-68 0 -108 -43.5t-50 -106.5q-7 -54 11.5 -83.5t64.5 -47.5l37 -14q-24 -49 -51 -102q-36 -70 -74 -113z" />
    <glyph glyph-name="hyphen" unicode="-" horiz-adv-x="1234" 
d="M311 762l-26 -166h854l26 166h-854z" />
    <glyph glyph-name="period" unicode="." horiz-adv-x="591" 
d="M184 113q-10 -58 16 -101t91 -43q66 0 105.5 42t49.5 102q10 61 -17.5 102t-92.5 41q-64 0 -104 -42.5t-48 -100.5z" />
    <glyph glyph-name="slash" unicode="/" horiz-adv-x="1110" 
d="M82 -113l127 -75l1034 1661l-127 73z" />
    <glyph glyph-name="zero" unicode="0" horiz-adv-x="1507" 
d="M272 676q-12 -80 -15 -152.5t5.5 -144.5t29.5 -132t59.5 -112t92 -88.5t130 -57t171.5 -20.5q133 0 244 40t187.5 107t134 160.5t90.5 193.5t51 214q13 80 16 152.5t-6 144t-30.5 131t-60 111t-92.5 87.5t-131.5 56t-172.5 20q-133 0 -243 -40t-186 -106t-133 -159
t-90 -192t-51 -213zM467 680q12 81 35 153.5t62.5 142.5t91.5 120.5t126 81t162 30.5q74 0 131.5 -21t94 -59.5t60 -87.5t32 -109.5t7 -122t-11.5 -128.5q-13 -81 -36 -153.5t-62.5 -142t-91.5 -119.5t-126.5 -80.5t-162.5 -30.5t-152.5 30t-99.5 81t-54.5 118.5t-17 142.5
t12.5 154z" />
    <glyph glyph-name="one" unicode="1" horiz-adv-x="559" 
d="M406 1360l-216 -1360h181l215 1360h-180z" />
    <glyph glyph-name="two" unicode="2" horiz-adv-x="1372" 
d="M360 166q11 74 77.5 146t146.5 122q59 38 209 105q19 8 71 30t88.5 38t69.5 34q59 31 105.5 64t89.5 77.5t71.5 101.5t38.5 124q12 78 -6 142.5t-59 107.5t-101 72.5t-128.5 42.5t-143.5 13q-192 0 -336 -90.5t-209 -271.5l-6 -20h199l6 14q36 93 129 141.5t205 48.5
q118 0 194 -53t62 -151q-8 -48 -29.5 -85.5t-58 -66.5t-67 -47t-81.5 -43q-116 -47 -119 -49q-79 -32 -150.5 -69t-151 -90.5t-139.5 -111t-104.5 -132.5t-56.5 -154l-24 -156h1044l27 166h-863z" />
    <glyph glyph-name="three" unicode="3" horiz-adv-x="1370" 
d="M217 305q-1 -75 25 -134t69.5 -96t105 -61.5t126 -34.5t137.5 -10q84 0 159.5 12.5t148 42t128.5 74.5t96 114t54 157q5 33 5.5 61.5t-4 52.5t-11.5 44t-20.5 38t-27 32.5t-34 30.5t-39 28t-45.5 28q36 20 67 45q73 46 111.5 108t52.5 150q17 106 -8 184.5t-85.5 124.5
t-144 68t-190.5 22q-93 0 -174.5 -16.5t-157.5 -53t-132 -103t-83 -158.5l-6 -23h201l6 17q36 82 122 120.5t193 38.5q134 0 207.5 -58t54.5 -175q-7 -47 -25.5 -82.5t-48.5 -58.5t-62.5 -38t-77.5 -22t-84 -9.5t-91 -2.5h-86l-26 -166h94q42 0 71.5 -1t72 -5.5t72 -13
t61.5 -24.5t49.5 -38t26 -56t1.5 -77q-10 -61 -44 -106.5t-85 -71t-109 -37.5t-124 -12q-53 0 -100 8t-89.5 25.5t-70 50t-33.5 75.5l-2 15h-197v-23z" />
    <glyph glyph-name="four" unicode="4" horiz-adv-x="1384" 
d="M831 0h181l45 289h246l26 168h-246l144 903h-178l-902 -901l-26 -170h756zM348 457l662 663l-107 -663h-555z" />
    <glyph glyph-name="five" unicode="5" horiz-adv-x="1370" 
d="M217 305q-1 -75 24.5 -134t69 -96t104.5 -61.5t125.5 -34.5t137.5 -10q89 0 168 14.5t151 46.5t126.5 80.5t92.5 120.5t52 162q17 106 -7 184t-73.5 122t-130.5 70t-159 34t-179 8q-36 0 -109.5 -2t-109.5 -2l61 383h742l26 170h-923l-115 -721h495q144 0 226 -59
t63 -183q-14 -85 -70 -141.5t-131 -79t-169 -22.5q-52 0 -98.5 8.5t-88.5 26t-69 49.5t-33 75l-2 15h-197v-23z" />
    <glyph glyph-name="six" unicode="6" horiz-adv-x="1378" 
d="M233 670q-15 -94 -15.5 -177.5t14 -164t50.5 -144.5t92 -113t142.5 -75.5t196.5 -26.5q108 0 206.5 26t182 76.5t141 135.5t74.5 194q16 102 -11 183t-89 132t-147.5 78t-188.5 27q-100 0 -231 -32t-220 -87q13 50 22 82.5t24.5 80t29 78.5t35 70.5t44.5 65t54 52.5
t66 42t80 25t96 10q68 0 125.5 -15t102.5 -52.5t54 -93.5l2 -15h195v23q1 69 -23.5 125t-66.5 93.5t-99 63.5t-120 37.5t-131 11.5q-129 0 -237 -42t-182.5 -111t-131 -164t-88 -193t-48.5 -206zM414 514q91 63 198 101t203 38q69 0 126.5 -14t102.5 -42t66.5 -76.5
t11.5 -112.5q-14 -85 -74.5 -144t-141.5 -84.5t-175 -25.5q-88 0 -150 25.5t-97 75.5t-51 112t-19 147z" />
    <glyph glyph-name="seven" unicode="7" horiz-adv-x="1282" 
d="M1122 1190l-712 -1190h194l709 1180q4 6 4 14l4 16l6 50l16 100h-989l-26 -170h794z" />
    <glyph glyph-name="eight" unicode="8" horiz-adv-x="1372" 
d="M680 -31q-79 0 -148.5 11t-134 39t-107.5 70t-63 108.5t-6 150.5q20 114 84 200.5t164 139.5q-138 119 -102 322q16 101 66.5 176t125 117.5t160.5 62.5t186 20q101 0 181 -20.5t142 -64t88.5 -120t10.5 -180.5q-30 -196 -205 -313q176 -111 142 -340q-14 -85 -55 -151.5
t-98 -108.5t-130.5 -69.5t-147 -38.5t-153.5 -11zM418 375q-8 -48 4.5 -86t39.5 -63t67.5 -41.5t85.5 -23.5t96 -7q88 0 161.5 20t130.5 71.5t70 129.5q9 58 -11.5 102.5t-63.5 69.5t-97.5 37t-118.5 12q-87 0 -161 -20t-132 -71.5t-71 -129.5zM557 983q-18 -110 53 -165.5
t197 -55.5q127 0 215 55.5t106 165.5q18 112 -52 168.5t-199 56.5q-127 0 -214.5 -56.5t-105.5 -168.5z" />
    <glyph glyph-name="nine" unicode="9" horiz-adv-x="1378" 
d="M184 305q4 -86 50.5 -153t120.5 -105.5t157 -58t168 -19.5q128 0 235.5 43t181 113t129.5 166t87.5 194t48.5 205q13 80 15.5 152.5t-6.5 143.5t-31 130t-61 110t-93 86t-131 54.5t-172 19.5q-108 0 -206 -25t-182 -74.5t-141.5 -133.5t-74.5 -192q-16 -104 12 -186
t91 -132.5t149.5 -77t191.5 -26.5q123 0 227 26.5t213 87.5q-29 -128 -65 -211q-58 -150 -144.5 -219t-240.5 -69q-111 0 -209 41t-121 120l-2 13h-199zM473 950q14 85 74.5 145t141.5 86.5t175 26.5q88 0 150 -26t97.5 -75.5t52.5 -112.5t20 -146q-107 -71 -205 -107
t-205 -36q-67 0 -124.5 14.5t-101 43t-64.5 77t-11 110.5z" />
    <glyph glyph-name="colon" unicode=":" horiz-adv-x="591" 
d="M319 969q-8 -58 17.5 -98t89.5 -40q66 0 106 39t50 99q10 61 -17.5 102t-93.5 41t-105 -41.5t-47 -101.5zM184 113q-10 -58 16 -101t91 -43q66 0 105.5 42t49.5 102q10 61 -17.5 102t-92.5 41q-64 0 -104 -42.5t-48 -100.5z" />
    <glyph glyph-name="semicolon" unicode=";" horiz-adv-x="591" 
d="M319 969q-8 -58 17.5 -98t89.5 -40q66 0 106 39t50 99q10 61 -17.5 102t-93.5 41t-105 -41.5t-47 -101.5zM160 -266l35 -41l18 16q89 69 150 173t79 210q24 164 -102 164q-68 0 -108 -43.5t-50 -106.5q-7 -54 11.5 -83.5t64.5 -47.5l37 -14q-24 -49 -51 -102
q-36 -70 -74 -113z" />
    <glyph glyph-name="less" unicode="&#x3c;" horiz-adv-x="835" 
d="M131 651l686 -362l27 168l-387 194l450 197l25 164z" />
    <glyph glyph-name="equal" unicode="=" horiz-adv-x="1368" 
d="M358 1055l-26 -168h989l27 168h-990zM240 307h989l26 166h-989z" />
    <glyph glyph-name="greater" unicode="&#x3e;" horiz-adv-x="862" 
d="M104 289l799 362l-684 361l-24 -164l383 -197l-447 -194z" />
    <glyph glyph-name="question" unicode="?" horiz-adv-x="1456" 
d="M756 758q-21 -127 0 -236l2 -12h102l45 98q61 4 109 9.5t106.5 17t103.5 28.5t91 44.5t78.5 63.5t57 87.5t34.5 114.5q14 91 -8 163t-70 118t-118.5 76.5t-146.5 43t-161 12.5q-75 0 -151 -9.5t-161.5 -34t-156 -61.5t-128.5 -99t-85 -140l-10 -24h182l8 12
q25 52 78.5 91t120 60t131.5 30.5t129 9.5q69 0 134 -12t124 -37t90 -72.5t21 -110.5q-8 -49 -37.5 -87t-67.5 -59.5t-89 -35.5t-93 -19t-88 -6q-57 -4 -154 -4h-20zM616 113q-10 -59 16.5 -101.5t92.5 -42.5t104 42t48 102q8 61 -17 102t-90 41t-105.5 -42t-48.5 -101z" />
    <glyph glyph-name="at" unicode="@" horiz-adv-x="2105" 
d="M238 692q-25 -145 -13 -276t51.5 -243t114 -203t174.5 -155.5t233 -99t289 -34.5q139 0 280.5 28.5t250.5 89.5l18 8l-53 132l-18 -9q-186 -82 -428 -82q-155 0 -282.5 41t-214.5 116t-144 180t-70.5 232t6.5 273q26 163 96 309t177 260.5t259.5 182t329.5 67.5
q153 0 278 -49.5t205.5 -136t114.5 -210t11 -267.5q-27 -174 -116.5 -281.5t-260.5 -158.5l102 641h-184l-12 -48q-31 40 -92 58t-123 18q-179 0 -310.5 -116.5t-158.5 -284.5t68.5 -285t273.5 -117q114 0 231 60q15 -38 44.5 -55t80.5 -17q140 0 257 48t197.5 131.5
t132.5 191t72 233.5q29 184 -16 337.5t-151 256.5t-263.5 160t-349.5 57q-224 0 -416 -78t-327.5 -213.5t-223.5 -312t-120 -379.5zM948 676q14 92 89.5 163.5t168.5 71.5t146 -71.5t39 -163.5q-14 -93 -91 -166.5t-170 -73.5q-94 0 -145 72t-37 168z" />
    <glyph glyph-name="A" unicode="A" 
d="M76 0h192l211 362h684l101 -362h194l-387 1368h-192zM567 528l381 656l187 -656h-568z" />
    <glyph glyph-name="B" unicode="B" horiz-adv-x="1587" 
d="M1090 0q171 0 282 107.5t137 271.5q15 93 -22.5 185t-120.5 128q83 47 125.5 118.5t58.5 170.5q17 104 -9 188.5t-100 137.5t-188 53h-847l-216 -1360h900zM397 166l68 430h719q87 0 123.5 -63t21.5 -156q-14 -94 -68.5 -152.5t-144.5 -58.5h-719zM492 762l67 428h668
q86 0 121 -62.5t20 -154.5q-14 -94 -67 -152.5t-142 -58.5h-667z" />
    <glyph glyph-name="C" unicode="C" horiz-adv-x="1550" 
d="M236 680q-17 -90 -9 -177.5t31 -166.5t70.5 -146.5t110 -116.5t150.5 -76.5t191 -27.5q240 0 430 142.5t283 367.5l10 23h-200l-7 -15q-70 -147 -201 -240t-288 -93q-86 0 -157 30t-116 80.5t-74.5 118.5t-33.5 143.5t6 155.5q16 99 61 192t113 168t164 120.5t203 45.5
q157 0 259 -93.5t124 -244.5l2 -14h201l-3 27q-23 223 -168 363t-384 140q-153 0 -289.5 -59.5t-233 -159t-160.5 -225.5t-85 -262z" />
    <glyph glyph-name="D" unicode="D" horiz-adv-x="1603" 
d="M406 1360l-216 -1360h631q149 0 283 56t231.5 150t163 217.5t86.5 258.5t-5.5 257.5t-94 216t-184 149t-265.5 55.5h-630zM397 166l162 1024h451q106 0 188 -42.5t128 -114t63.5 -163t1.5 -190.5q-16 -100 -62.5 -192t-115 -164t-164 -115t-201.5 -43h-451z" />
    <glyph glyph-name="E" unicode="E" horiz-adv-x="1572" 
d="M406 1360l-216 -1360h1231l27 166h-1051l68 430h782l27 166h-782l67 428h1051l26 170h-1230z" />
    <glyph glyph-name="F" unicode="F" horiz-adv-x="1521" 
d="M406 1360l-216 -1360h181l94 596h754l26 166h-753l67 428h1024l27 170h-1204z" />
    <glyph glyph-name="G" unicode="G" horiz-adv-x="1568" 
d="M236 680q-17 -90 -9 -178t31 -167t70.5 -146t110.5 -116t151.5 -76.5t191.5 -27.5q153 0 289 60t232.5 160.5t160.5 227t86 263.5q0 2 2 21t4 30v19h-608l-26 -168h419q-37 -117 -111.5 -212.5t-185 -155.5t-235.5 -60q-73 0 -135 21t-105.5 57.5t-76.5 86.5t-48 108.5
t-20 123.5t8 131q16 99 60.5 192t112 168t163.5 120.5t203 45.5q106 0 194.5 -48t141.5 -132l4 -8l221 2l-10 29q-62 157 -200 246t-323 89q-122 0 -234.5 -39.5t-200 -107.5t-156.5 -157.5t-112 -192t-60 -209.5z" />
    <glyph glyph-name="H" unicode="H" horiz-adv-x="1638" 
d="M406 1360l-216 -1360h181l94 596h899l-94 -596h180l215 1360h-180l-94 -598h-899l94 598h-180z" />
    <glyph glyph-name="I" unicode="I" horiz-adv-x="559" 
d="M406 1360l-216 -1360h181l215 1360h-180z" />
    <glyph glyph-name="J" unicode="J" horiz-adv-x="1316" 
d="M211 434q-7 -125 38 -229.5t144.5 -170t237.5 -65.5q115 0 217 46t174 122t120 171t64 196l135 856h-178l-135 -856q-15 -91 -64 -169.5t-130 -129.5t-177 -51q-124 0 -193 81t-71 205v17h-182v-23z" />
    <glyph glyph-name="K" unicode="K" horiz-adv-x="1517" 
d="M406 1360l-216 -1360h181l55 354l391 328l397 -682h218l-469 803l661 557h-252l-907 -766l121 766h-180z" />
    <glyph glyph-name="L" unicode="L" horiz-adv-x="1282" 
d="M406 1360l-216 -1360h990l26 166h-809l189 1194h-180z" />
    <glyph glyph-name="M" unicode="M" horiz-adv-x="1638" 
d="M406 1360l-216 -1360h181l170 1079l299 -518h133l469 520l-172 -1081h180l215 1360h-178l-545 -612l-362 612h-174z" />
    <glyph glyph-name="N" unicode="N" horiz-adv-x="1638" 
d="M406 1360l-216 -1360h181l170 1079l729 -1079h180l215 1360h-180l-170 -1081l-731 1081h-178z" />
    <glyph glyph-name="O" unicode="O" horiz-adv-x="1568" 
d="M236 680q-17 -90 -9 -177.5t31 -166.5t70.5 -146.5t110 -116.5t150.5 -76.5t191 -27.5q153 0 289.5 60t233.5 160t161 227t86 264q17 90 9 177.5t-31 166t-71 145t-111 115t-151 75.5t-191 27q-153 0 -289.5 -59.5t-233 -159t-160.5 -225.5t-85 -262zM432 682
q16 100 61 193t113 168t164.5 120t204.5 45q87 0 158 -29.5t117 -80.5t76.5 -118.5t36 -143.5t-4.5 -156q-16 -100 -62.5 -193.5t-116 -168t-166 -119.5t-204.5 -45q-73 0 -135 21t-105.5 57.5t-76.5 86.5t-48 108.5t-20 123.5t8 131z" />
    <glyph glyph-name="P" unicode="P" horiz-adv-x="1589" 
d="M190 0h181l94 596h745q174 0 284.5 108t135.5 271q17 105 -8 190.5t-100 140t-191 54.5h-925zM492 762l67 428h746q87 0 122.5 -62.5t20.5 -154.5q-14 -94 -68 -152.5t-143 -58.5h-745z" />
    <glyph glyph-name="Q" unicode="Q" horiz-adv-x="1560" 
d="M1059 629l-154 -121l195 -258q-126 -93 -287 -96q-73 0 -135.5 21t-106.5 57.5t-77.5 86t-49 108t-20.5 123.5t8 132q16 100 61 193t113 168t164.5 120t204.5 45q87 0 158 -29.5t117 -80.5t76.5 -118.5t36 -143.5t-4.5 -156q-25 -156 -121 -291zM236 680q-22 -138 2 -265
t90 -226.5t183.5 -159t270.5 -60.5q233 0 424 137l99 -131l157 117l-112 150q158 187 198 434q10 77 9.5 152t-19 145.5t-48 132.5t-77 113.5t-106.5 88.5t-136.5 57.5t-166.5 20.5q-153 0 -289.5 -59.5t-233 -159t-160.5 -225.5t-85 -262z" />
    <glyph glyph-name="R" unicode="R" horiz-adv-x="1613" 
d="M190 0h181l94 596h530l244 -596h203l-248 596q10 0 30.5 1t30.5 1q80 4 148 38t113 88t74 117.5t40 133.5q17 105 -8 190.5t-100 140t-191 54.5h-925zM492 762l67 428h746q87 0 122.5 -62.5t20.5 -154.5q-14 -94 -68 -152.5t-143 -58.5h-745z" />
    <glyph glyph-name="S" unicode="S" horiz-adv-x="1456" 
d="M184 319q2 -66 29 -120.5t72 -91.5t101 -64.5t121 -43t126.5 -23t122.5 -7.5q89 0 171.5 13.5t162 45.5t141 80t105.5 122t59 167q15 100 -13 172.5t-79 111.5t-135 62t-157 29t-169 6q-56 0 -104.5 5t-99.5 19t-85.5 36.5t-53 61t-10.5 89.5q10 62 52 109t103 72.5
t126 38t133 12.5q61 0 120.5 -10t115.5 -30.5t94 -59t45 -89.5l4 -14h182l-2 24q-1 77 -37 138.5t-91.5 99t-129.5 62.5t-145.5 34.5t-145.5 9.5q-85 0 -163 -13t-153.5 -43.5t-133.5 -76.5t-99 -116.5t-55 -159.5q-15 -96 10 -165.5t72 -107.5t125.5 -60t148.5 -28t162 -6
q58 0 110.5 -5t108.5 -19.5t94.5 -38.5t59.5 -65t12 -95q-11 -67 -57 -117.5t-113 -77.5t-137 -40t-143 -13q-63 0 -124.5 9.5t-121 30t-100 59t-49.5 90.5l-5 14h-182z" />
    <glyph glyph-name="T" unicode="T" horiz-adv-x="1462" 
d="M827 1190l-188 -1190h180l189 1190h542l27 170h-1262l-26 -170h538z" />
    <glyph glyph-name="U" unicode="U" horiz-adv-x="1583" 
d="M293 649q-15 -83 -8.5 -165t26 -158t62 -141t99 -113t138 -75.5t178.5 -27.5q116 0 221.5 39t186 105.5t144 153.5t102.5 184.5t55 197.5l113 711h-180l-113 -711q-14 -92 -55.5 -179.5t-104 -158.5t-151.5 -114t-189 -43q-80 0 -145 28t-106 76.5t-67.5 112t-30.5 134
t5 144.5l113 711h-180z" />
    <glyph glyph-name="V" unicode="V" 
d="M293 1368l369 -1368h192l821 1368h-194l-686 -1145l-310 1145h-192z" />
    <glyph glyph-name="W" unicode="W" horiz-adv-x="1691" 
d="M315 1360l-61 -1360h215l516 881l244 -881h213l364 1360h-172l-291 -1073l-219 780h-213l-460 -780l38 1073h-174z" />
    <glyph glyph-name="X" unicode="X" horiz-adv-x="1425" 
d="M709 707l-658 -707h215l522 571l349 -571h237l-440 709l614 651h-221l-479 -514l-313 514h-226z" />
    <glyph glyph-name="Y" unicode="Y" horiz-adv-x="1341" 
d="M582 0h180l74 475l669 885h-209l-516 -690l-309 690h-205l391 -885z" />
    <glyph glyph-name="Z" unicode="Z" 
d="M178 164l-26 -164h1230l27 166h-991l1128 1026l27 168h-1182l-26 -170h938z" />
    <glyph glyph-name="bracketleft" unicode="[" horiz-adv-x="690" 
d="M451 1649l-306 -1938h383l25 166h-203l256 1604h203l25 168h-383z" />
    <glyph glyph-name="backslash" unicode="\" horiz-adv-x="1110" 
d="M334 1473l506 -1661l151 75l-506 1659z" />
    <glyph glyph-name="bracketright" unicode="]" horiz-adv-x="690" 
d="M94 -123l-22 -166h381l305 1938h-383l-25 -168h203l-258 -1604h-201z" />
    <glyph glyph-name="asciicircum" unicode="^" horiz-adv-x="624" 
d="M705 1032l-87 289h-157l-180 -289h133l102 139l57 -139h132z" />
    <glyph glyph-name="underscore" unicode="_" horiz-adv-x="1234" 
d="M172 -111l-25 -165h854l25 165h-854z" />
    <glyph glyph-name="grave" unicode="`" horiz-adv-x="634" 
d="M305 1470l154 -288h131l-86 288h-199z" />
    <glyph glyph-name="a" unicode="a" 
d="M76 0h192l211 362h684l101 -362h194l-387 1368h-192zM565 528l381 660l189 -660h-570z" />
    <glyph glyph-name="b" unicode="b" horiz-adv-x="1587" 
d="M1090 0q171 0 282 107.5t137 271.5q15 93 -22.5 185t-120.5 128q83 47 125.5 118.5t58.5 170.5q17 104 -9 188.5t-100 137.5t-188 53h-847l-216 -1360h900zM397 166l68 430h719q87 0 123.5 -63t21.5 -156q-14 -94 -68.5 -152.5t-144.5 -58.5h-719zM492 762l67 428h668
q86 0 121 -62.5t20 -154.5q-14 -94 -67 -152.5t-142 -58.5h-667z" />
    <glyph glyph-name="c" unicode="c" horiz-adv-x="1550" 
d="M236 680q-17 -90 -9 -177.5t31 -166.5t70.5 -146.5t110 -116.5t150.5 -76.5t191 -27.5q240 0 430 142.5t283 367.5l10 23h-200l-7 -15q-70 -147 -201 -240t-288 -93q-86 0 -157 30t-116 80.5t-74.5 118.5t-33.5 143.5t6 155.5q16 99 61 192t113 168t164 120.5t203 45.5
q157 0 259 -93.5t124 -244.5l2 -14h201l-3 27q-23 223 -168 363t-384 140q-153 0 -289.5 -59.5t-233 -159t-160.5 -225.5t-85 -262z" />
    <glyph glyph-name="d" unicode="d" horiz-adv-x="1603" 
d="M406 1360l-216 -1360h631q149 0 283 56t231.5 150t163 217.5t86.5 258.5t-5.5 257.5t-94 216t-184 149t-265.5 55.5h-630zM397 166l162 1024h451q106 0 188 -42.5t128 -114t63.5 -163t1.5 -190.5q-16 -100 -62.5 -192t-115 -164t-164 -115t-201.5 -43h-451z" />
    <glyph glyph-name="e" unicode="e" horiz-adv-x="1572" 
d="M406 1360l-216 -1360h1231l27 166h-1051l68 430h782l27 166h-782l67 428h1051l26 170h-1230z" />
    <glyph glyph-name="f" unicode="f" horiz-adv-x="1521" 
d="M406 1360l-216 -1360h181l94 596h754l26 166h-753l67 428h1024l27 170h-1204z" />
    <glyph glyph-name="g" unicode="g" horiz-adv-x="1568" 
d="M236 680q-17 -90 -9 -178t31 -167t70.5 -146t110.5 -116t151.5 -76.5t191.5 -27.5q153 0 289 60t232.5 160.5t160.5 227t86 263.5q0 2 2 21t4 30v19h-608l-26 -168h419q-37 -117 -111.5 -212.5t-185 -155.5t-235.5 -60q-73 0 -135 21t-105.5 57.5t-76.5 86.5t-48 108.5
t-20 123.5t8 131q16 99 60.5 192t112 168t163.5 120.5t203 45.5q106 0 194.5 -48t141.5 -132l4 -8l221 2l-10 29q-62 157 -200 246t-323 89q-122 0 -234.5 -39.5t-200 -107.5t-156.5 -157.5t-112 -192t-60 -209.5z" />
    <glyph glyph-name="h" unicode="h" horiz-adv-x="1638" 
d="M406 1360l-216 -1360h181l94 596h899l-94 -596h180l215 1360h-180l-94 -598h-899l94 598h-180z" />
    <glyph glyph-name="i" unicode="i" horiz-adv-x="559" 
d="M406 1360l-216 -1360h181l215 1360h-180z" />
    <glyph glyph-name="j" unicode="j" horiz-adv-x="1343" 
d="M238 434q-6 -126 38 -230t143 -169.5t238 -65.5q92 0 176.5 30t151 81.5t119 119.5t85.5 145.5t46 158.5l135 856h-182l-135 -856q-15 -90 -63.5 -168.5t-129 -130t-174.5 -51.5q-124 0 -195 82t-71 204v17h-182v-23z" />
    <glyph glyph-name="k" unicode="k" horiz-adv-x="1517" 
d="M406 1360l-216 -1360h181l55 354l391 328l397 -682h218l-469 803l661 557h-252l-907 -766l121 766h-180z" />
    <glyph glyph-name="l" unicode="l" horiz-adv-x="1282" 
d="M406 1360l-216 -1360h990l26 166h-809l189 1194h-180z" />
    <glyph glyph-name="m" unicode="m" horiz-adv-x="1638" 
d="M406 1360l-216 -1360h181l170 1079l299 -518h133l469 520l-172 -1081h180l215 1360h-178l-545 -612l-362 612h-174z" />
    <glyph glyph-name="n" unicode="n" horiz-adv-x="1638" 
d="M406 1360l-216 -1360h181l170 1079l729 -1079h180l215 1360h-180l-170 -1081l-731 1081h-178z" />
    <glyph glyph-name="o" unicode="o" horiz-adv-x="1568" 
d="M236 680q-17 -90 -9 -177.5t31 -166.5t70.5 -146.5t110 -116.5t150.5 -76.5t191 -27.5q153 0 289.5 60t233.5 160t161 227t86 264q17 90 9 177.5t-31 166t-71 145t-111 115t-151 75.5t-191 27q-153 0 -289.5 -59.5t-233 -159t-160.5 -225.5t-85 -262zM432 682
q16 100 61 193t113 168t164.5 120t204.5 45q87 0 158 -29.5t117 -80.5t76.5 -118.5t36 -143.5t-4.5 -156q-16 -100 -62.5 -193.5t-116 -168t-166 -119.5t-204.5 -45q-73 0 -135 21t-105.5 57.5t-76.5 86.5t-48 108.5t-20 123.5t8 131z" />
    <glyph glyph-name="p" unicode="p" horiz-adv-x="1603" 
d="M190 0h181l94 596h745q174 0 284.5 108t135.5 271q17 105 -8 190.5t-100 140t-191 54.5h-925zM492 762l67 428h746q87 0 122.5 -62.5t20.5 -154.5q-14 -94 -68 -152.5t-143 -58.5h-745z" />
    <glyph glyph-name="q" unicode="q" horiz-adv-x="1560" 
d="M1059 629l-154 -121l195 -258q-126 -93 -287 -96q-73 0 -135.5 21t-106.5 57.5t-77.5 86t-49 108t-20.5 123.5t8 132q16 100 61 193t113 168t164.5 120t204.5 45q87 0 158 -29.5t117 -80.5t76.5 -118.5t36 -143.5t-4.5 -156q-25 -156 -121 -291zM236 680q-22 -138 2 -265
t90 -226.5t183.5 -159t270.5 -60.5q233 0 424 137l99 -131l157 117l-112 150q158 187 198 434q10 77 9.5 152t-19 145.5t-48 132.5t-77 113.5t-106.5 88.5t-136.5 57.5t-166.5 20.5q-153 0 -289.5 -59.5t-233 -159t-160.5 -225.5t-85 -262z" />
    <glyph glyph-name="r" unicode="r" horiz-adv-x="1613" 
d="M190 0h181l94 596h530l244 -596h203l-248 596q10 0 30.5 1t30.5 1q80 4 148 38t113 88t74 117.5t40 133.5q17 105 -8 190.5t-100 140t-191 54.5h-925zM492 762l67 428h746q87 0 122.5 -62.5t20.5 -154.5q-14 -94 -68 -152.5t-143 -58.5h-745z" />
    <glyph glyph-name="s" unicode="s" horiz-adv-x="1456" 
d="M184 319q2 -66 29 -120.5t72 -91.5t101 -64.5t121 -43t126.5 -23t122.5 -7.5q89 0 171.5 13.5t162 45.5t141 80t105.5 122t59 167q15 100 -13 172.5t-79 111.5t-135 62t-157 29t-169 6q-56 0 -104.5 5t-99.5 19t-85.5 36.5t-53 61t-10.5 89.5q10 62 52 109t103 72.5
t126 38t133 12.5q61 0 120.5 -10t115.5 -30.5t94 -59t45 -89.5l4 -14h182l-2 24q-1 77 -37 138.5t-91.5 99t-129.5 62.5t-145.5 34.5t-145.5 9.5q-85 0 -163 -13t-153.5 -43.5t-133.5 -76.5t-99 -116.5t-55 -159.5q-15 -96 10 -165.5t72 -107.5t125.5 -60t148.5 -28t162 -6
q58 0 110.5 -5t108.5 -19.5t94.5 -38.5t59.5 -65t12 -95q-11 -67 -57 -117.5t-113 -77.5t-137 -40t-143 -13q-63 0 -124.5 9.5t-121 30t-100 59t-49.5 90.5l-5 14h-182z" />
    <glyph glyph-name="t" unicode="t" horiz-adv-x="1462" 
d="M827 1190l-188 -1190h180l189 1190h542l27 170h-1262l-26 -170h538z" />
    <glyph glyph-name="u" unicode="u" horiz-adv-x="1583" 
d="M293 649q-15 -83 -8.5 -165t26 -158t62 -141t99 -113t138 -75.5t178.5 -27.5q116 0 221.5 39t186 105.5t144 153.5t102.5 184.5t55 197.5l113 711h-180l-113 -711q-14 -92 -55.5 -179.5t-104 -158.5t-151.5 -114t-189 -43q-80 0 -145 28t-106 76.5t-67.5 112t-30.5 134
t5 144.5l113 711h-180z" />
    <glyph glyph-name="v" unicode="v" 
d="M293 1368l369 -1368h192l821 1368h-194l-686 -1145l-310 1145h-192z" />
    <glyph glyph-name="w" unicode="w" horiz-adv-x="1691" 
d="M315 1360l-61 -1360h215l516 881l244 -881h213l364 1360h-172l-291 -1073l-219 780h-213l-460 -780l38 1073h-174z" />
    <glyph glyph-name="x" unicode="x" horiz-adv-x="1499" 
d="M752 707l-676 -707h223l537 571l366 -571h221l-452 705l628 655h-223l-489 -522l-334 522h-219z" />
    <glyph glyph-name="y" unicode="y" horiz-adv-x="1390" 
d="M582 0h180l74 475l669 885h-209l-516 -690l-309 690h-205l391 -885z" />
    <glyph glyph-name="z" unicode="z" 
d="M178 164l-26 -164h1230l27 166h-991l1128 1026l27 168h-1182l-26 -170h938z" />
    <glyph glyph-name="braceleft" unicode="{" horiz-adv-x="761" 
d="M283 100q-15 -77 -1.5 -147.5t47 -124t99 -85.5t154.5 -32h20l25 166h-21q-80 0 -122 51t-31 129l47 287q30 205 -86 297l-49 39l61 41q149 99 178 293l47 286q11 77 70.5 129t140.5 52h21l24 168h-20q-174 0 -284.5 -111.5t-135.5 -275.5l-49 -306q-12 -81 -70.5 -137.5
t-140.5 -56.5h-23l-24 -166h22q81 0 120.5 -55t27.5 -135z" />
    <glyph glyph-name="bar" unicode="|" horiz-adv-x="559" 
d="M453 1651l-308 -1940h181l307 1940h-180z" />
    <glyph glyph-name="braceright" unicode="}" horiz-adv-x="759" 
d="M94 -123l-24 -166h22q89 0 164 31.5t127 85.5t85 123.5t46 148.5l47 306q12 79 71 134.5t140 55.5h21l24 166h-20q-81 0 -120.5 56.5t-27.5 137.5l49 306q17 106 -8.5 192t-100.5 140.5t-192 54.5h-22l-25 -168h23q81 0 120.5 -51t28.5 -130l-47 -286q-18 -116 18 -191.5
t128 -142.5l-64 -39q-78 -48 -125.5 -129t-60.5 -168l-47 -287q-12 -79 -68.5 -129.5t-138.5 -50.5h-23z" />
    <glyph glyph-name="asciitilde" unicode="~" horiz-adv-x="565" 
d="M653 1389q-54 -57 -86 -70h-4q-21 14 -33 29l-30 32q-45 39 -84 39q-54 0 -129 -67l-35 -31l-21 -137q44 35 76 63q67 54 90 68l4 2q15 -3 27 -21q19 -15 33 -32q36 -45 88 -45q36 0 63.5 15.5t61.5 47.5q27 23 41 33l22 147q-9 -7 -84 -73z" />
    <glyph glyph-name="exclamdown" unicode="&#xa1;" horiz-adv-x="591" 
d="M358 1217q-8 -59 17.5 -101.5t89.5 -42.5q65 0 105.5 41.5t50.5 102.5q10 59 -17.5 101t-93.5 42q-65 0 -104.5 -42.5t-47.5 -100.5zM203 -31h178l39 246q58 365 76 737v19h-90l-5 -19q-95 -335 -159 -737z" />
    <glyph glyph-name="cent" unicode="&#xa2;" horiz-adv-x="1138" 
d="M432 -272h127l66 419q343 46 485 361l12 24h-137l-6 -14q-51 -107 -131 -165t-203 -85l131 828q114 -31 175.5 -88.5t78.5 -163.5l4 -13h135l-4 25q-43 305 -370 358l63 404h-127l-65 -412q-204 -37 -333.5 -183.5t-160.5 -342.5q-32 -198 52 -343.5t276 -182.5zM299 680
q21 137 103.5 246t215.5 153q19 3 29 8l-129 -817q-15 4 -20 9q-123 42 -172.5 151.5t-26.5 249.5z" />
    <glyph glyph-name="sterling" unicode="&#xa3;" horiz-adv-x="1167" 
d="M721 -14q79 -17 119 -17q96 0 211 47l20 7l-49 176l-21 -9q-103 -36 -170 -36q-47 0 -145 28q-55 18 -76 21q-67 16 -225 16h-25q106 108 144 183t61 225l8 43h267l22 147h-301q-36 185 -18 291q16 110 91 188t185 78q89 0 136.5 -52.5t58.5 -143.5l2 -17l188 31v20
q-9 144 -106.5 238t-251.5 94q-102 0 -189 -35.5t-147.5 -97t-100 -140.5t-53.5 -169q-16 -111 15 -285h-178l-23 -147h201q6 -62 -2 -117q-17 -103 -85 -200t-169 -175l-15 -10l47 -178l23 12q109 61 223 61q89 0 215 -45q27 -9 113 -32z" />
    <glyph glyph-name="yen" unicode="&#xa5;" horiz-adv-x="1107" 
d="M489 299l-45 -281h181l45 281h362l23 137h-363l33 215h362l23 137h-281l404 652h-197l-374 -613l-177 613h-194l196 -652h-276l-23 -137h357l-33 -215h-356l-23 -137h356z" />
    <glyph glyph-name="section" unicode="&#xa7;" horiz-adv-x="1107" 
d="M111 260q-1 -69 26 -122t70.5 -84t105 -50.5t120.5 -26t126 -6.5q64 0 125.5 8t128.5 29.5t119 54.5t90 88t49 125q22 140 -82 205l-4 4l6 4q58 39 95.5 94.5t46.5 118.5q10 61 -4.5 107t-43.5 74t-77.5 47.5t-96.5 28.5t-112 14q-26 3 -121 11t-137 15q-57 12 -84.5 34
t-20.5 63q6 42 41 72t84.5 43.5t91 19.5t78.5 6q29 0 69.5 -4.5t90 -14.5t81 -31t27.5 -50q-1 -6 -4 -17.5t-4 -17.5h183q11 67 -10 119t-61.5 83t-99.5 51t-116 27t-119 7q-61 0 -121 -8t-125.5 -28.5t-117 -52.5t-89.5 -84.5t-49 -119.5q-22 -145 90 -207l4 -4l-6 -4
q-128 -78 -149 -211q-10 -61 4.5 -107t43 -72.5t78.5 -44.5t96.5 -25.5t111.5 -12.5q21 -2 67.5 -5.5t69.5 -5.5q85 -8 119 -16q117 -24 104 -113q-7 -44 -44.5 -75.5t-90.5 -45.5t-97.5 -20t-84.5 -6q-35 0 -80 6t-96.5 19t-83 41.5t-25.5 66.5v6h-186zM375 670q6 41 41 71
t84 44t91.5 20t78.5 6q34 0 77 -4.5t97.5 -15t88.5 -35.5t28 -60q-7 -49 -59.5 -84.5t-109 -49t-102.5 -13.5q-54 0 -145 13t-125 30q-53 25 -45 78z" />
    <glyph glyph-name="dieresis" unicode="&#xa8;" horiz-adv-x="583" 
d="M383 1434q-46 0 -79.5 -29.5t-41.5 -75.5q-7 -47 17.5 -74.5t70.5 -27.5q49 0 83.5 27t41.5 75q7 47 -18.5 76t-73.5 29zM551 1327q-7 -47 17.5 -75.5t70.5 -28.5q50 0 85 28.5t42 75.5t-18.5 76t-75.5 29q-46 0 -80.5 -29.5t-40.5 -75.5z" />
    <glyph glyph-name="copyright" unicode="&#xa9;" horiz-adv-x="1742" 
d="M227 694q-18 -112 0 -218.5t69 -194.5t128 -155t182.5 -104.5t227.5 -37.5q152 0 296.5 58t253.5 155.5t184 227t97 269.5q22 139 -12 268.5t-113 226.5t-205 155.5t-278 58.5q-151 0 -295 -58.5t-253.5 -155.5t-184.5 -226.5t-97 -268.5zM455 694q20 129 100.5 241
t204.5 179.5t262 67.5t242 -67.5t150 -179.5t26 -241q-16 -97 -68 -186.5t-127.5 -156.5t-174 -106.5t-202.5 -39.5q-138 0 -241 67.5t-148 179.5t-24 242zM596 698q-16 -96 12.5 -178.5t102 -135t180.5 -52.5q141 0 248 86.5t147 218.5l6 20h-174l-6 -14
q-24 -62 -78.5 -103.5t-118.5 -41.5q-79 0 -118.5 59t-26.5 141t71 140.5t138 58.5q67 0 106.5 -39t42.5 -104l2 -15h175l2 21q2 131 -80 217t-221 86q-160 0 -273 -107t-137 -258z" />
    <glyph glyph-name="ordfeminine" unicode="&#xaa;" horiz-adv-x="704" 
d="M377 1329l86 150h242l40 -150h142l-185 619h-96l-364 -619h135zM528 1595l99 164l49 -164h-148z" />
    <glyph glyph-name="guillemotleft" unicode="&#xab;" horiz-adv-x="1017" 
d="M727 868l25 158l-582 -301l487 -301l25 156l-244 145z" />
    <glyph glyph-name="registered" unicode="&#xae;" horiz-adv-x="1581" 
d="M227 694q-18 -112 0 -218.5t69 -194.5t128 -155t182.5 -104.5t227.5 -37.5q152 0 296.5 58t253.5 155.5t184 227t97 269.5q22 139 -12 268.5t-113 226.5t-205 155.5t-278 58.5q-151 0 -295 -58.5t-253.5 -155.5t-184.5 -226.5t-97 -268.5zM455 694q20 129 100.5 241
t204.5 179.5t262 67.5t242 -67.5t150 -179.5t26 -241q-16 -97 -68 -186.5t-127.5 -156.5t-174 -106.5t-202.5 -39.5q-138 0 -241 67.5t-148 179.5t-24 242zM612 389h152l37 238h153l105 -238h172l-12 31q-71 166 -95 213q65 17 108 67t52 113q13 81 -27.5 137t-128.5 56
h-417zM823 768l17 92h266q35 0 29 -37l-5 -16q-2 -18 -12.5 -28.5t-27.5 -10.5h-267z" />
    <glyph glyph-name="macron" unicode="&#xaf;" horiz-adv-x="645" 
d="M270 1128h396l16 101h-395z" />
    <glyph glyph-name="degree" unicode="&#xb0;" horiz-adv-x="333" 
d="M223 1217q-9 -61 22.5 -100.5t90.5 -39.5q61 0 105 40t53 102q9 59 -21.5 97t-91.5 38q-60 0 -104.5 -38.5t-53.5 -98.5zM319 1217q6 36 46 36q36 0 30 -36q-6 -37 -43 -37q-38 0 -33 37z" />
    <glyph glyph-name="acute" unicode="&#xb4;" horiz-adv-x="466" 
d="M401 1182l250 288h-200l-179 -288h129z" />
    <glyph glyph-name="periodcentered" unicode="&#xb7;" horiz-adv-x="643" 
d="M455 842q73 0 122.5 46.5t61.5 121.5q12 73 -23 118.5t-108 45.5q-71 0 -121 -46t-61 -118q-11 -74 23 -121t106 -47z" />
    <glyph glyph-name="cedilla" unicode="&#xb8;" horiz-adv-x="571" 
d="M274 -8q-16 -28 -44 -82t-40 -76q28 4 64 4q19 0 35 -2t34 -7.5t27 -18t6 -31.5q-5 -36 -35.5 -52t-64.5 -16q-47 0 -70 18t-26 62h-113q-2 -99 45.5 -148t149.5 -49q88 0 152 51t77 138q20 137 -111 164h-4l15 45h-97z" />
    <glyph glyph-name="ordmasculine" unicode="&#xba;" horiz-adv-x="690" 
d="M309 1632q-21 -134 46.5 -226.5t199.5 -92.5q129 0 225 92.5t117 226.5q22 132 -45.5 225t-196.5 93q-131 0 -228 -93t-118 -225zM444 1632q11 74 64.5 132.5t126.5 58.5q71 0 106.5 -59t24.5 -132q-11 -75 -65 -132.5t-126 -57.5q-74 0 -108 57.5t-23 132.5z" />
    <glyph glyph-name="guillemotright" unicode="&#xbb;" horiz-adv-x="997" 
d="M567 1026l-24 -158l243 -143l-288 -145l-25 -156l582 301z" />
    <glyph glyph-name="questiondown" unicode="&#xbf;" horiz-adv-x="1456" 
d="M1057 1243q10 60 -15.5 101.5t-91.5 41.5q-67 0 -105 -41t-48 -102q-8 -60 17 -100.5t91 -40.5q65 0 104.5 41t47.5 100zM188 383q-15 -91 7 -163t70 -118t118.5 -77t147 -43.5t161.5 -12.5q96 0 193.5 16.5t198.5 53.5t180 108t112 168l8 23h-180l-8 -12
q-33 -69 -117 -113.5t-169.5 -60t-174.5 -15.5q-69 0 -133.5 12t-123 37t-89 72.5t-20.5 110.5q8 49 37 86.5t67 58.5t89 35.5t93 19.5t88 6q69 5 152 5h23l2 18q19 120 0 238l-2 12h-103l-47 -100q-60 -3 -108 -8.5t-106.5 -17t-103.5 -28t-91.5 -44.5t-79 -64t-57 -87.5
t-34.5 -115.5z" />
    <glyph glyph-name="Agrave" unicode="&#xc0;" 
d="M915 1978l156 -286h131l-88 286h-199zM76 0h192l211 362h684l101 -362h194l-387 1368h-192zM567 528l381 656l187 -656h-568z" />
    <glyph glyph-name="Aacute" unicode="&#xc1;" 
d="M1001 1692l248 286h-200l-179 -286h131zM76 0h192l211 362h684l101 -362h194l-387 1368h-192zM567 528l381 656l187 -656h-568z" />
    <glyph glyph-name="Acircumflex" unicode="&#xc2;" 
d="M1249 1692l-88 284h-157l-181 -284h135l99 137l59 -137h133zM76 0h192l211 362h684l101 -362h194l-387 1368h-192zM567 528l381 656l187 -656h-568z" />
    <glyph glyph-name="Atilde" unicode="&#xc3;" 
d="M1229 1898q-60 -60 -88 -71h-4q-17 14 -31 31l-31 30q-39 39 -86 39q-54 0 -127 -65l-37 -33l-20 -135q16 11 45.5 36t32.5 27q11 8 28 22t31.5 25t28.5 19l4 2q11 -2 31 -19q13 -13 28 -34q46 -46 90 -46q36 0 64 16.5t61 49.5q11 11 39 31l25 149q-15 -11 -46 -39.5
t-38 -34.5zM76 0h192l211 362h684l101 -362h194l-387 1368h-192zM567 528l381 656l187 -656h-568z" />
    <glyph glyph-name="Adieresis" unicode="&#xc4;" 
d="M928 1942q-46 0 -80 -28.5t-41 -74.5q-7 -48 17 -75t71 -27q49 0 83.5 26.5t41.5 75.5q7 47 -18.5 75t-73.5 28zM76 0h192l211 362h684l101 -362h194l-387 1368h-192zM567 528l381 656l187 -656h-568zM1096 1835q-7 -47 17.5 -74.5t70.5 -27.5q48 0 84 28t43 74
q7 48 -19.5 76t-74.5 28q-46 0 -80 -28.5t-41 -75.5z" />
    <glyph glyph-name="Aring" unicode="&#xc5;" 
d="M1079 1978q-62 0 -107 -40t-54 -103q-9 -62 23 -102.5t93 -40.5q64 0 109.5 40.5t54.5 102.5q11 65 -22 104t-97 39zM76 0h192l211 362h684l101 -362h194l-387 1368h-192zM567 528l381 656l187 -656h-568zM1026 1835q5 31 35 31q29 0 26 -31q-3 -16 -10 -22.5t-24 -6.5
q-32 0 -27 29z" />
    <glyph glyph-name="AE" unicode="&#xc6;" horiz-adv-x="2150" 
d="M1069 762h782l-26 -166h-783l-67 -430h1050l-26 -166h-1233l57 362h-315l-211 -362h-193l801 1360h1309l-27 -170h-1050zM596 528h254l94 602z" />
    <glyph glyph-name="Ccedilla" unicode="&#xc7;" horiz-adv-x="1550" 
d="M1303 502h200l-10 -23q-88 -209 -258 -346.5t-387 -157.5l-8 -28h4q130 -27 110 -164q-13 -87 -77 -138t-152 -51q-102 0 -149.5 49t-45.5 148h113q3 -44 26 -62t70 -18q36 0 67 16t36 52q4 24 -15.5 38.5t-41 17.5t-48.5 3q-31 0 -63 -4l74 135q-84 4 -157 26.5
t-129 60.5t-101 89.5t-73 112.5t-45.5 130t-17.5 142.5t11 149.5q21 136 85 262t160.5 225.5t233 159t289.5 59.5q239 0 384 -140t168 -363l3 -27h-201l-2 14q-22 151 -124 244.5t-259 93.5q-107 0 -203 -45.5t-164 -120.5t-113 -168t-61 -192q-10 -80 -6 -155.5
t33.5 -143.5t74.5 -118.5t116 -80.5t157 -30q157 0 288 93t201 240z" />
    <glyph glyph-name="Egrave" unicode="&#xc8;" horiz-adv-x="1572" 
d="M934 1978l156 -286h129l-86 286h-199zM190 0h1231l27 166h-1051l68 430h782l27 166h-782l67 428h1051l26 170h-1230z" />
    <glyph glyph-name="Eacute" unicode="&#xc9;" horiz-adv-x="1572" 
d="M1018 1692l248 286h-201l-176 -286h129zM190 0h1231l27 166h-1051l68 430h782l27 166h-782l67 428h1051l26 170h-1230z" />
    <glyph glyph-name="Ecircumflex" unicode="&#xca;" horiz-adv-x="1572" 
d="M1268 1692l-90 284h-158l-178 -284h133l100 137l58 -137h135zM190 0h1231l27 166h-1051l68 430h782l27 166h-782l67 428h1051l26 170h-1230z" />
    <glyph glyph-name="Edieresis" unicode="&#xcb;" horiz-adv-x="1572" 
d="M944 1942q-46 0 -80 -28.5t-41 -74.5q-7 -48 17 -75t71 -27q49 0 83.5 26.5t41.5 75.5q7 47 -18.5 75t-73.5 28zM190 0h1231l27 166h-1051l68 430h782l27 166h-782l67 428h1051l26 170h-1230zM1114 1835q-7 -47 17 -74.5t71 -27.5q48 0 84 28t43 74q7 48 -19.5 76
t-74.5 28q-47 0 -80.5 -28.5t-40.5 -75.5z" />
    <glyph glyph-name="Igrave" unicode="&#xcc;" horiz-adv-x="567" 
d="M432 1978l156 -286h131l-88 286h-199zM195 0h180l215 1360h-180z" />
    <glyph glyph-name="Iacute" unicode="&#xcd;" horiz-adv-x="567" 
d="M516 1692l248 286h-201l-178 -286h131zM195 0h180l215 1360h-180z" />
    <glyph glyph-name="Icircumflex" unicode="&#xce;" horiz-adv-x="569" 
d="M766 1692l-88 284h-158l-180 -284h135l98 137l60 -137h133zM197 0h180l215 1360h-180z" />
    <glyph glyph-name="Idieresis" unicode="&#xcf;" horiz-adv-x="571" 
d="M446 1942q-47 0 -79.5 -28.5t-40.5 -74.5q-7 -49 16.5 -75.5t71.5 -26.5q49 0 83.5 26.5t41.5 75.5q7 47 -19 75t-74 28zM197 0h180l215 1360h-180zM614 1835q-7 -47 17.5 -74.5t70.5 -27.5q48 0 84 28t43 74q7 48 -19.5 76t-74.5 28q-46 0 -80 -28.5t-41 -75.5z" />
    <glyph glyph-name="Ntilde" unicode="&#xd1;" horiz-adv-x="1638" 
d="M1282 1898q-64 -61 -90 -71h-4l-31 31l-31 30q-39 39 -86 39q-54 0 -127 -65l-36 -33l-21 -135q16 11 46 36t32 27q11 8 28 22t31.5 25t28.5 19l4 2q11 -2 31 -19q13 -13 28 -34q46 -46 91 -46q36 0 63.5 16.5t60.5 49.5q11 11 39 31l25 149q-16 -12 -82 -74zM190 0h181
l170 1079l729 -1079h180l215 1360h-180l-170 -1081l-731 1081h-178z" />
    <glyph glyph-name="Ograve" unicode="&#xd2;" horiz-adv-x="1568" 
d="M934 1978l153 -286h132l-89 286h-196zM236 680q-17 -90 -9 -177.5t31 -166.5t70.5 -146.5t110 -116.5t150.5 -76.5t191 -27.5q153 0 289.5 60t233.5 160t161 227t86 264q17 90 9 177.5t-31 166t-71 145t-111 115t-151 75.5t-191 27q-153 0 -289.5 -59.5t-233 -159
t-160.5 -225.5t-85 -262zM432 682q16 100 61 193t113 168t164.5 120t204.5 45q87 0 158 -29.5t117 -80.5t76.5 -118.5t36 -143.5t-4.5 -156q-16 -100 -62.5 -193.5t-116 -168t-166 -119.5t-204.5 -45q-73 0 -135 21t-105.5 57.5t-76.5 86.5t-48 108.5t-20 123.5t8 131z" />
    <glyph glyph-name="Oacute" unicode="&#xd3;" horiz-adv-x="1568" 
d="M1018 1692l248 286h-201l-176 -286h129zM236 680q-17 -90 -9 -177.5t31 -166.5t70.5 -146.5t110 -116.5t150.5 -76.5t191 -27.5q153 0 289.5 60t233.5 160t161 227t86 264q17 90 9 177.5t-31 166t-71 145t-111 115t-151 75.5t-191 27q-153 0 -289.5 -59.5t-233 -159
t-160.5 -225.5t-85 -262zM432 682q16 100 61 193t113 168t164.5 120t204.5 45q87 0 158 -29.5t117 -80.5t76.5 -118.5t36 -143.5t-4.5 -156q-16 -100 -62.5 -193.5t-116 -168t-166 -119.5t-204.5 -45q-73 0 -135 21t-105.5 57.5t-76.5 86.5t-48 108.5t-20 123.5t8 131z" />
    <glyph glyph-name="Ocircumflex" unicode="&#xd4;" horiz-adv-x="1568" 
d="M1268 1692l-90 284h-158l-178 -284h133l100 137l58 -137h135zM236 680q-17 -90 -9 -177.5t31 -166.5t70.5 -146.5t110 -116.5t150.5 -76.5t191 -27.5q153 0 289.5 60t233.5 160t161 227t86 264q17 90 9 177.5t-31 166t-71 145t-111 115t-151 75.5t-191 27
q-153 0 -289.5 -59.5t-233 -159t-160.5 -225.5t-85 -262zM432 682q16 100 61 193t113 168t164.5 120t204.5 45q87 0 158 -29.5t117 -80.5t76.5 -118.5t36 -143.5t-4.5 -156q-16 -100 -62.5 -193.5t-116 -168t-166 -119.5t-204.5 -45q-73 0 -135 21t-105.5 57.5t-76.5 86.5
t-48 108.5t-20 123.5t8 131z" />
    <glyph glyph-name="Otilde" unicode="&#xd5;" horiz-adv-x="1568" 
d="M1247 1898q-67 -63 -90 -71h-4q-12 9 -29 31l-32 30q-39 39 -86 39q-50 0 -127 -65l-37 -33l-21 -135q15 10 42 32.5t38 30.5q73 58 86 66l4 2q15 -3 31 -19q13 -13 31 -34q40 -46 88 -46q36 0 64 16.5t63 49.5q16 16 37 31l24 149q-16 -12 -82 -74zM236 680
q-17 -90 -9 -177.5t31 -166.5t70.5 -146.5t110 -116.5t150.5 -76.5t191 -27.5q153 0 289.5 60t233.5 160t161 227t86 264q17 90 9 177.5t-31 166t-71 145t-111 115t-151 75.5t-191 27q-153 0 -289.5 -59.5t-233 -159t-160.5 -225.5t-85 -262zM432 682q16 100 61 193t113 168
t164.5 120t204.5 45q87 0 158 -29.5t117 -80.5t76.5 -118.5t36 -143.5t-4.5 -156q-16 -100 -62.5 -193.5t-116 -168t-166 -119.5t-204.5 -45q-73 0 -135 21t-105.5 57.5t-76.5 86.5t-48 108.5t-20 123.5t8 131z" />
    <glyph glyph-name="Odieresis" unicode="&#xd6;" horiz-adv-x="1568" 
d="M944 1942q-46 0 -80 -28.5t-41 -74.5q-7 -48 17 -75t71 -27q49 0 83.5 26.5t41.5 75.5q7 47 -18.5 75t-73.5 28zM236 680q-17 -90 -9 -177.5t31 -166.5t70.5 -146.5t110 -116.5t150.5 -76.5t191 -27.5q153 0 289.5 60t233.5 160t161 227t86 264q17 90 9 177.5t-31 166
t-71 145t-111 115t-151 75.5t-191 27q-153 0 -289.5 -59.5t-233 -159t-160.5 -225.5t-85 -262zM432 682q16 100 61 193t113 168t164.5 120t204.5 45q87 0 158 -29.5t117 -80.5t76.5 -118.5t36 -143.5t-4.5 -156q-16 -100 -62.5 -193.5t-116 -168t-166 -119.5t-204.5 -45
q-73 0 -135 21t-105.5 57.5t-76.5 86.5t-48 108.5t-20 123.5t8 131zM1114 1835q-7 -47 16.5 -74.5t69.5 -27.5q50 0 86 27.5t43 74.5q7 49 -19.5 76.5t-76.5 27.5q-46 0 -79 -28.5t-40 -75.5z" />
    <glyph glyph-name="multiply" unicode="&#xd7;" horiz-adv-x="1284" 
d="M731 553l295 -389l141 131l-299 385l420 385l-100 127l-418 -385l-299 385l-137 -127l297 -385l-418 -383l98 -133z" />
    <glyph glyph-name="Oslash" unicode="&#xd8;" horiz-adv-x="1568" 
d="M1348 1546l125 -73l-119 -195q123 -95 173.5 -255t22.5 -343q-22 -137 -86 -264t-161 -227t-233.5 -160t-289.5 -60q-122 0 -217 39l-125 -196l-127 75l121 191q-125 98 -175.5 259t-20.5 343q21 136 85 262t160.5 225.5t233 159t289.5 59.5q128 0 219 -36zM432 682
q-20 -123 8 -236.5t101 -189.5l581 928q-64 24 -147 24q-108 0 -204.5 -45t-164.5 -120t-113 -168t-61 -193zM668 176q64 -22 141 -22q108 0 204.5 45t166 119.5t116 168t62.5 193.5q19 124 -10.5 237t-104.5 187z" />
    <glyph glyph-name="Ugrave" unicode="&#xd9;" horiz-adv-x="1583" 
d="M940 1978l156 -286h129l-86 286h-199zM293 649q-15 -83 -8.5 -165t26 -158t62 -141t99 -113t138 -75.5t178.5 -27.5q116 0 221.5 39t186 105.5t144 153.5t102.5 184.5t55 197.5l113 711h-180l-113 -711q-14 -92 -55.5 -179.5t-104 -158.5t-151.5 -114t-189 -43
q-80 0 -145 28t-106 76.5t-67.5 112t-30.5 134t5 144.5l113 711h-180z" />
    <glyph glyph-name="Uacute" unicode="&#xda;" horiz-adv-x="1583" 
d="M1024 1692l248 286h-201l-176 -286h129zM293 649q-15 -83 -8.5 -165t26 -158t62 -141t99 -113t138 -75.5t178.5 -27.5q116 0 221.5 39t186 105.5t144 153.5t102.5 184.5t55 197.5l113 711h-180l-113 -711q-14 -92 -55.5 -179.5t-104 -158.5t-151.5 -114t-189 -43
q-80 0 -145 28t-106 76.5t-67.5 112t-30.5 134t5 144.5l113 711h-180z" />
    <glyph glyph-name="Ucircumflex" unicode="&#xdb;" horiz-adv-x="1583" 
d="M1274 1692l-88 284h-158l-180 -284h135l98 137l60 -137h133zM293 649q-15 -83 -8.5 -165t26 -158t62 -141t99 -113t138 -75.5t178.5 -27.5q116 0 221.5 39t186 105.5t144 153.5t102.5 184.5t55 197.5l113 711h-180l-113 -711q-14 -92 -55.5 -179.5t-104 -158.5
t-151.5 -114t-189 -43q-80 0 -145 28t-106 76.5t-67.5 112t-30.5 134t5 144.5l113 711h-180z" />
    <glyph glyph-name="Udieresis" unicode="&#xdc;" horiz-adv-x="1583" 
d="M950 1942q-46 0 -80 -28.5t-41 -74.5q-7 -48 17.5 -75t71.5 -27q49 0 83 26.5t41 75.5q7 47 -18.5 75t-73.5 28zM293 649q-15 -83 -8.5 -165t26 -158t62 -141t99 -113t138 -75.5t178.5 -27.5q116 0 221.5 39t186 105.5t144 153.5t102.5 184.5t55 197.5l113 711h-180
l-113 -711q-14 -92 -55.5 -179.5t-104 -158.5t-151.5 -114t-189 -43q-80 0 -145 28t-106 76.5t-67.5 112t-30.5 134t5 144.5l113 711h-180zM1120 1835q-7 -47 17.5 -74.5t70.5 -27.5q48 0 84 28t43 74q7 48 -19.5 76t-74.5 28q-46 0 -80 -28.5t-41 -75.5z" />
    <glyph glyph-name="Yacute" unicode="&#xdd;" horiz-adv-x="1341" 
d="M903 1692l248 286h-201l-176 -286h129zM266 1360l391 -885l-75 -475h180l74 475l669 885h-209l-516 -690l-309 690h-205z" />
    <glyph glyph-name="germandbls" unicode="&#xdf;" horiz-adv-x="1118" 
d="M541 -29q237 1 384 100t175 273v2q37 230 -156 338q187 109 217 317l2 5q28 176 -78.5 274t-330.5 98q-83 0 -157.5 -14t-150.5 -46.5t-134 -97t-87 -155.5l-205 -1301l166 -6l211 1315q65 88 147 122t183 34q139 0 220 -63t61 -191q-8 -48 -28 -85.5t-44 -61.5
t-63.5 -41t-70.5 -25.5t-82 -13t-80.5 -5t-82.5 -0.5h-35l-20 -137l6 2h61q45 0 77.5 -1t78.5 -6.5t78.5 -14.5t66.5 -26.5t53.5 -42t28.5 -62t2 -84.5q-11 -68 -49.5 -118.5t-94.5 -77.5t-117 -39.5t-128 -12.5h-24l-25 -154z" />
    <glyph glyph-name="agrave" unicode="&#xe0;" 
d="M915 1978l156 -286h131l-88 286h-199zM76 0h192l211 362h684l101 -362h194l-387 1368h-192zM567 528l381 656l187 -656h-568z" />
    <glyph glyph-name="aacute" unicode="&#xe1;" 
d="M1001 1692l248 286h-200l-181 -286h133zM76 0h192l211 362h684l101 -362h194l-387 1368h-192zM567 528l381 656l187 -656h-568z" />
    <glyph glyph-name="acircumflex" unicode="&#xe2;" 
d="M1247 1692l-86 284h-157l-181 -284h133l101 137l59 -137h131zM76 0h192l211 362h684l101 -362h194l-387 1368h-192zM567 528l381 656l187 -656h-568z" />
    <glyph glyph-name="atilde" unicode="&#xe3;" 
d="M1233 1898q-70 -62 -92 -71h-4q-5 4 -15 15t-16 16q-57 69 -117 69t-125 -65l-39 -33l-20 -135q17 11 46.5 36.5t31.5 26.5q5 4 38 29.5t50 36.5l4 2q11 -2 31 -19q9 -7 28 -34q46 -46 92 -46q35 0 62.5 16.5t60.5 49.5q11 11 39 31l25 149q-11 -8 -24 -19.5t-29.5 -28.5
t-26.5 -26zM76 0h192l211 362h684l101 -362h194l-387 1368h-192zM567 528l381 656l187 -656h-568z" />
    <glyph glyph-name="adieresis" unicode="&#xe4;" 
d="M928 1942q-46 0 -80 -28.5t-41 -74.5q-7 -48 17 -75t71 -27q49 0 84.5 26.5t42.5 75.5q7 47 -19.5 75t-74.5 28zM76 0h192l211 362h684l101 -362h194l-387 1368h-192zM567 528l381 656l187 -656h-568zM1098 1835q-7 -47 17 -74.5t71 -27.5t82.5 28t42.5 74q7 48 -19 76
t-73 28t-80.5 -28.5t-40.5 -75.5z" />
    <glyph glyph-name="aring" unicode="&#xe5;" 
d="M1081 1978q-63 0 -108.5 -40t-54.5 -103q-9 -62 23.5 -102.5t94.5 -40.5q63 0 109 40.5t55 102.5q10 64 -23 103.5t-96 39.5zM76 0h192l211 362h684l101 -362h194l-387 1368h-192zM567 528l381 656l187 -656h-568zM1028 1835q5 31 35 31t27 -31q-6 -29 -35 -29
q-32 0 -27 29z" />
    <glyph glyph-name="ae" unicode="&#xe6;" horiz-adv-x="2150" 
d="M1069 762h782l-26 -166h-783l-67 -430h1050l-26 -166h-1233l57 362h-315l-211 -362h-193l801 1360h1309l-27 -170h-1050zM596 528h254l94 602z" />
    <glyph glyph-name="ccedilla" unicode="&#xe7;" horiz-adv-x="1550" 
d="M848 -25q217 20 387 157.5t258 346.5l10 23h-200l-7 -15q-70 -147 -201 -240t-288 -93q-86 0 -157 30t-116 80.5t-74.5 118.5t-33.5 143.5t6 155.5q16 99 61 192t113 168t164 120.5t203 45.5q157 0 259 -93.5t124 -244.5l2 -14h201l-3 27q-23 223 -168 363t-384 140
q-153 0 -289.5 -59.5t-233 -159t-160.5 -225.5t-85 -262q-17 -88 -10 -173.5t28.5 -163t66.5 -143.5t104.5 -116t142.5 -80t180 -35q-15 -24 -39 -70t-35 -65q32 4 63 4q27 0 48.5 -3t41 -17.5t15.5 -38.5q-5 -36 -36 -52t-67 -16q-47 0 -70 18t-26 62h-113
q-2 -99 45.5 -148t149.5 -49q89 0 152.5 50.5t76.5 138.5q20 137 -110 164h-4z" />
    <glyph glyph-name="egrave" unicode="&#xe8;" horiz-adv-x="1572" 
d="M934 1978l156 -286h129l-86 286h-199zM190 0h1231l27 166h-1051l68 430h782l27 166h-782l67 428h1051l26 170h-1230z" />
    <glyph glyph-name="eacute" unicode="&#xe9;" horiz-adv-x="1572" 
d="M1018 1692l248 286h-201l-178 -286h131zM190 0h1231l27 166h-1051l68 430h782l27 166h-782l67 428h1051l26 170h-1230z" />
    <glyph glyph-name="ecircumflex" unicode="&#xea;" horiz-adv-x="1572" 
d="M1266 1692l-88 284h-158l-178 -284h131l102 137l58 -137h133zM190 0h1231l27 166h-1051l68 430h782l27 166h-782l67 428h1051l26 170h-1230z" />
    <glyph glyph-name="edieresis" unicode="&#xeb;" horiz-adv-x="1572" 
d="M944 1942q-46 0 -80 -28.5t-41 -74.5q-7 -48 17 -75t71 -27q49 0 84.5 26.5t42.5 75.5q7 47 -19.5 75t-74.5 28zM190 0h1231l27 166h-1051l68 430h782l27 166h-782l67 428h1051l26 170h-1230zM1116 1835q-8 -48 15.5 -75t72.5 -27q47 0 82.5 28t42.5 74q7 48 -19 76
t-73 28q-49 0 -81 -28t-40 -76z" />
    <glyph glyph-name="igrave" unicode="&#xec;" horiz-adv-x="565" 
d="M432 1978l156 -286h127l-84 286h-199zM195 0h180l215 1360h-180z" />
    <glyph glyph-name="iacute" unicode="&#xed;" horiz-adv-x="567" 
d="M516 1692l248 286h-199l-180 -286h131zM195 0h180l215 1360h-180z" />
    <glyph glyph-name="icircumflex" unicode="&#xee;" horiz-adv-x="569" 
d="M766 1692l-88 284h-158l-180 -284h135l98 137l60 -137h133zM197 0h180l215 1360h-180z" />
    <glyph glyph-name="idieresis" unicode="&#xef;" horiz-adv-x="571" 
d="M446 1942q-49 0 -80.5 -28t-39.5 -75q-7 -49 15.5 -75.5t72.5 -26.5q49 0 83.5 26.5t41.5 75.5q7 47 -19 75t-74 28zM197 0h180l215 1360h-180zM614 1835q-7 -47 17.5 -74.5t70.5 -27.5q48 0 83 27.5t42 74.5q7 49 -18.5 76.5t-73.5 27.5q-46 0 -80 -28.5t-41 -75.5z" />
    <glyph glyph-name="ntilde" unicode="&#xf1;" horiz-adv-x="1638" 
d="M1284 1898q-70 -62 -92 -71h-4q-5 4 -15 15t-16 16q-57 69 -117 69t-125 -65l-38 -33l-21 -135q17 11 46.5 36.5t31.5 26.5q5 4 38 29.5t50 36.5l4 2q11 -2 31 -19q9 -7 28 -34q46 -46 93 -46q35 0 62 16.5t60 49.5q11 11 39 31l25 149q-10 -8 -23 -19.5t-30.5 -28.5
t-26.5 -26zM190 0h181l170 1079l729 -1079h180l215 1360h-180l-170 -1081l-731 1081h-178z" />
    <glyph glyph-name="ograve" unicode="&#xf2;" horiz-adv-x="1568" 
d="M934 1978l153 -286h132l-89 286h-196zM236 680q-17 -90 -9 -177.5t31 -166.5t70.5 -146.5t110 -116.5t150.5 -76.5t191 -27.5q153 0 289.5 60t233.5 160t161 227t86 264q17 90 9 177.5t-31 166t-71 145t-111 115t-151 75.5t-191 27q-153 0 -289.5 -59.5t-233 -159
t-160.5 -225.5t-85 -262zM432 682q16 100 61 193t113 168t164.5 120t204.5 45q87 0 158 -29.5t117 -80.5t76.5 -118.5t36 -143.5t-4.5 -156q-16 -100 -62.5 -193.5t-116 -168t-166 -119.5t-204.5 -45q-73 0 -135 21t-105.5 57.5t-76.5 86.5t-48 108.5t-20 123.5t8 131z" />
    <glyph glyph-name="oacute" unicode="&#xf3;" horiz-adv-x="1568" 
d="M1018 1692l248 286h-201l-178 -286h131zM236 680q-17 -90 -9 -177.5t31 -166.5t70.5 -146.5t110 -116.5t150.5 -76.5t191 -27.5q153 0 289.5 60t233.5 160t161 227t86 264q17 90 9 177.5t-31 166t-71 145t-111 115t-151 75.5t-191 27q-153 0 -289.5 -59.5t-233 -159
t-160.5 -225.5t-85 -262zM432 682q16 100 61 193t113 168t164.5 120t204.5 45q87 0 158 -29.5t117 -80.5t76.5 -118.5t36 -143.5t-4.5 -156q-16 -100 -62.5 -193.5t-116 -168t-166 -119.5t-204.5 -45q-73 0 -135 21t-105.5 57.5t-76.5 86.5t-48 108.5t-20 123.5t8 131z" />
    <glyph glyph-name="ocircumflex" unicode="&#xf4;" horiz-adv-x="1568" 
d="M1266 1692l-88 284h-158l-178 -284h131l102 137l58 -137h133zM236 680q-17 -90 -9 -177.5t31 -166.5t70.5 -146.5t110 -116.5t150.5 -76.5t191 -27.5q153 0 289.5 60t233.5 160t161 227t86 264q17 90 9 177.5t-31 166t-71 145t-111 115t-151 75.5t-191 27
q-153 0 -289.5 -59.5t-233 -159t-160.5 -225.5t-85 -262zM432 682q16 100 61 193t113 168t164.5 120t204.5 45q87 0 158 -29.5t117 -80.5t76.5 -118.5t36 -143.5t-4.5 -156q-16 -100 -62.5 -193.5t-116 -168t-166 -119.5t-204.5 -45q-73 0 -135 21t-105.5 57.5t-76.5 86.5
t-48 108.5t-20 123.5t8 131z" />
    <glyph glyph-name="otilde" unicode="&#xf5;" horiz-adv-x="1568" 
d="M1249 1898q-72 -64 -92 -71h-4q-6 5 -16 16.5t-13 14.5q-61 69 -118 69q-56 0 -125 -65l-39 -33l-21 -135q17 10 44 33t36 30q69 54 86 66l4 2q15 -3 31 -19q6 -5 31 -34q40 -46 90 -46q35 0 62.5 16.5t62.5 49.5q16 16 37 31l24 149q-10 -8 -23 -19.5t-30.5 -28.5
t-26.5 -26zM236 680q-17 -90 -9 -177.5t31 -166.5t70.5 -146.5t110 -116.5t150.5 -76.5t191 -27.5q153 0 289.5 60t233.5 160t161 227t86 264q17 90 9 177.5t-31 166t-71 145t-111 115t-151 75.5t-191 27q-153 0 -289.5 -59.5t-233 -159t-160.5 -225.5t-85 -262zM432 682
q16 100 61 193t113 168t164.5 120t204.5 45q87 0 158 -29.5t117 -80.5t76.5 -118.5t36 -143.5t-4.5 -156q-16 -100 -62.5 -193.5t-116 -168t-166 -119.5t-204.5 -45q-73 0 -135 21t-105.5 57.5t-76.5 86.5t-48 108.5t-20 123.5t8 131z" />
    <glyph glyph-name="odieresis" unicode="&#xf6;" horiz-adv-x="1568" 
d="M944 1942q-46 0 -80 -28.5t-41 -74.5q-7 -48 17 -75t71 -27q49 0 84.5 26.5t42.5 75.5q7 47 -19.5 75t-74.5 28zM236 680q-17 -90 -9 -177.5t31 -166.5t70.5 -146.5t110 -116.5t150.5 -76.5t191 -27.5q153 0 289.5 60t233.5 160t161 227t86 264q17 90 9 177.5t-31 166
t-71 145t-111 115t-151 75.5t-191 27q-153 0 -289.5 -59.5t-233 -159t-160.5 -225.5t-85 -262zM432 682q16 100 61 193t113 168t164.5 120t204.5 45q87 0 158 -29.5t117 -80.5t76.5 -118.5t36 -143.5t-4.5 -156q-16 -100 -62.5 -193.5t-116 -168t-166 -119.5t-204.5 -45
q-73 0 -135 21t-105.5 57.5t-76.5 86.5t-48 108.5t-20 123.5t8 131zM1116 1835q-8 -48 15.5 -75t72.5 -27q47 0 82.5 28t42.5 74q7 48 -19 76t-73 28q-49 0 -81 -28t-40 -76z" />
    <glyph glyph-name="divide" unicode="&#xf7;" horiz-adv-x="1368" 
d="M743 1114q-7 -49 16.5 -87t80.5 -38q54 0 92.5 38.5t44.5 86.5q8 50 -17 88.5t-79 38.5q-57 0 -93.5 -38.5t-44.5 -88.5zM285 596h989l26 166h-989zM606 244q-8 -49 16.5 -88t79.5 -39q54 0 92 38.5t46 88.5q7 50 -18 88.5t-79 38.5q-57 0 -93.5 -39t-43.5 -88z" />
    <glyph glyph-name="oslash" unicode="&#xf8;" horiz-adv-x="1568" 
d="M1348 1546l125 -73l-119 -195q123 -95 173.5 -255t22.5 -343q-22 -137 -86 -264t-161 -227t-233.5 -160t-289.5 -60q-122 0 -217 39l-125 -196l-127 75l121 191q-125 98 -175.5 259t-20.5 343q21 136 85 262t160.5 225.5t233 159t289.5 59.5q128 0 219 -36zM432 682
q-20 -123 8 -236.5t101 -189.5l581 928q-64 24 -147 24q-108 0 -204.5 -45t-164.5 -120t-113 -168t-61 -193zM668 176q64 -22 141 -22q108 0 204.5 45t166 119.5t116 168t62.5 193.5q19 124 -10.5 237t-104.5 187z" />
    <glyph glyph-name="ugrave" unicode="&#xf9;" horiz-adv-x="1583" 
d="M940 1978l156 -286h129l-86 286h-199zM293 649q-15 -83 -8.5 -165t26 -158t62 -141t99 -113t138 -75.5t178.5 -27.5q116 0 221.5 39t186 105.5t144 153.5t102.5 184.5t55 197.5l113 711h-180l-113 -711q-14 -92 -55.5 -179.5t-104 -158.5t-151.5 -114t-189 -43
q-80 0 -145 28t-106 76.5t-67.5 112t-30.5 134t5 144.5l113 711h-180z" />
    <glyph glyph-name="uacute" unicode="&#xfa;" horiz-adv-x="1583" 
d="M1024 1692l248 286h-201l-178 -286h131zM293 649q-15 -83 -8.5 -165t26 -158t62 -141t99 -113t138 -75.5t178.5 -27.5q116 0 221.5 39t186 105.5t144 153.5t102.5 184.5t55 197.5l113 711h-180l-113 -711q-14 -92 -55.5 -179.5t-104 -158.5t-151.5 -114t-189 -43
q-80 0 -145 28t-106 76.5t-67.5 112t-30.5 134t5 144.5l113 711h-180z" />
    <glyph glyph-name="ucircumflex" unicode="&#xfb;" horiz-adv-x="1583" 
d="M1272 1692l-86 284h-158l-180 -284h133l100 137l60 -137h131zM293 649q-15 -83 -8.5 -165t26 -158t62 -141t99 -113t138 -75.5t178.5 -27.5q116 0 221.5 39t186 105.5t144 153.5t102.5 184.5t55 197.5l113 711h-180l-113 -711q-14 -92 -55.5 -179.5t-104 -158.5
t-151.5 -114t-189 -43q-80 0 -145 28t-106 76.5t-67.5 112t-30.5 134t5 144.5l113 711h-180z" />
    <glyph glyph-name="udieresis" unicode="&#xfc;" horiz-adv-x="1583" 
d="M950 1942q-46 0 -80 -28.5t-41 -74.5q-7 -48 17.5 -75t71.5 -27q49 0 84 26.5t42 75.5q7 47 -19.5 75t-74.5 28zM293 649q-15 -83 -8.5 -165t26 -158t62 -141t99 -113t138 -75.5t178.5 -27.5q116 0 221.5 39t186 105.5t144 153.5t102.5 184.5t55 197.5l113 711h-180
l-113 -711q-14 -92 -55.5 -179.5t-104 -158.5t-151.5 -114t-189 -43q-80 0 -145 28t-106 76.5t-67.5 112t-30.5 134t5 144.5l113 711h-180zM1122 1835q-7 -47 17 -74.5t71 -27.5t82.5 28t42.5 74q7 48 -19 76t-73 28t-80.5 -28.5t-40.5 -75.5z" />
    <glyph glyph-name="yacute" unicode="&#xfd;" horiz-adv-x="1341" 
d="M903 1692l248 286h-199l-178 -286h129zM266 1360l391 -885l-75 -475h180l74 475l669 885h-209l-516 -690l-309 690h-205z" />
    <glyph glyph-name="ydieresis" unicode="&#xff;" horiz-adv-x="1341" 
d="M831 1942q-47 0 -79.5 -28.5t-40.5 -74.5q-7 -49 16.5 -75.5t71.5 -26.5q49 0 83.5 26.5t41.5 75.5q7 47 -19 75t-74 28zM266 1360l391 -885l-75 -475h180l74 475l669 885h-209l-516 -690l-309 690h-205zM999 1835q-7 -47 17.5 -74.5t70.5 -27.5q50 0 84 27.5t41 74.5
q7 49 -17.5 76.5t-74.5 27.5q-46 0 -80 -28.5t-41 -75.5z" />
    <glyph glyph-name="Amacron" unicode="&#x100;" 
d="M829 1638h396l14 101h-395zM76 0h192l211 362h684l101 -362h194l-387 1368h-192zM567 528l381 656l187 -656h-568z" />
    <glyph glyph-name="amacron" unicode="&#x101;" 
d="M829 1638h398l14 101h-397zM76 0h192l211 362h684l101 -362h194l-387 1368h-192zM567 528l381 656l187 -656h-568z" />
    <glyph glyph-name="Cacute" unicode="&#x106;" horiz-adv-x="1550" 
d="M1008 1692l247 286h-200l-176 -286h129zM236 680q-17 -90 -9 -177.5t31 -166.5t70.5 -146.5t110 -116.5t150.5 -76.5t191 -27.5q240 0 430 142.5t283 367.5l10 23h-200l-7 -15q-70 -147 -201 -240t-288 -93q-86 0 -157 30t-116 80.5t-74.5 118.5t-33.5 143.5t6 155.5
q16 99 61 192t113 168t164 120.5t203 45.5q157 0 259 -93.5t124 -244.5l2 -14h201l-3 27q-23 223 -168 363t-384 140q-153 0 -289.5 -59.5t-233 -159t-160.5 -225.5t-85 -262z" />
    <glyph glyph-name="cacute" unicode="&#x107;" horiz-adv-x="1550" 
d="M1008 1692l247 286h-198l-178 -286h129zM236 680q-17 -90 -9 -177.5t31 -166.5t70.5 -146.5t110 -116.5t150.5 -76.5t191 -27.5q240 0 430 142.5t283 367.5l10 23h-200l-7 -15q-70 -147 -201 -240t-288 -93q-86 0 -157 30t-116 80.5t-74.5 118.5t-33.5 143.5t6 155.5
q16 99 61 192t113 168t164 120.5t203 45.5q157 0 259 -93.5t124 -244.5l2 -14h201l-3 27q-23 223 -168 363t-384 140q-153 0 -289.5 -59.5t-233 -159t-160.5 -225.5t-85 -262z" />
    <glyph glyph-name="Ccircumflex" unicode="&#x108;" horiz-adv-x="1550" 
d="M1257 1692l-90 284h-157l-179 -284h134l100 137l57 -137h135zM236 680q-17 -90 -9 -177.5t31 -166.5t70.5 -146.5t110 -116.5t150.5 -76.5t191 -27.5q240 0 430 142.5t283 367.5l10 23h-200l-7 -15q-70 -147 -201 -240t-288 -93q-86 0 -157 30t-116 80.5t-74.5 118.5
t-33.5 143.5t6 155.5q16 99 61 192t113 168t164 120.5t203 45.5q157 0 259 -93.5t124 -244.5l2 -14h201l-3 27q-23 223 -168 363t-384 140q-153 0 -289.5 -59.5t-233 -159t-160.5 -225.5t-85 -262z" />
    <glyph glyph-name="ccircumflex" unicode="&#x109;" horiz-adv-x="1550" 
d="M1257 1692l-90 284h-157l-179 -284h134l100 137l57 -137h135zM236 680q-17 -90 -9 -177.5t31 -166.5t70.5 -146.5t110 -116.5t150.5 -76.5t191 -27.5q240 0 430 142.5t283 367.5l10 23h-200l-7 -15q-70 -147 -201 -240t-288 -93q-86 0 -157 30t-116 80.5t-74.5 118.5
t-33.5 143.5t6 155.5q16 99 61 192t113 168t164 120.5t203 45.5q157 0 259 -93.5t124 -244.5l2 -14h201l-3 27q-23 223 -168 363t-384 140q-153 0 -289.5 -59.5t-233 -159t-160.5 -225.5t-85 -262z" />
    <glyph glyph-name="Cdotaccent" unicode="&#x10a;" horiz-adv-x="1550" 
d="M1081 1939q-48 0 -80.5 -27.5t-39.5 -76.5q-8 -46 16.5 -74t71.5 -28q48 0 83 27.5t42 74.5q7 48 -19 76t-74 28zM236 680q-17 -90 -9 -177.5t31 -166.5t70.5 -146.5t110 -116.5t150.5 -76.5t191 -27.5q240 0 430 142.5t283 367.5l10 23h-200l-7 -15q-70 -147 -201 -240
t-288 -93q-86 0 -157 30t-116 80.5t-74.5 118.5t-33.5 143.5t6 155.5q16 99 61 192t113 168t164 120.5t203 45.5q157 0 259 -93.5t124 -244.5l2 -14h201l-3 27q-23 223 -168 363t-384 140q-153 0 -289.5 -59.5t-233 -159t-160.5 -225.5t-85 -262z" />
    <glyph glyph-name="cdotaccent" unicode="&#x10b;" horiz-adv-x="1550" 
d="M1081 1939q-48 0 -80.5 -27.5t-39.5 -76.5q-8 -46 16.5 -74t71.5 -28q48 0 83 27.5t42 74.5q7 48 -19 76t-74 28zM236 680q-17 -90 -9 -177.5t31 -166.5t70.5 -146.5t110 -116.5t150.5 -76.5t191 -27.5q240 0 430 142.5t283 367.5l10 23h-200l-7 -15q-70 -147 -201 -240
t-288 -93q-86 0 -157 30t-116 80.5t-74.5 118.5t-33.5 143.5t6 155.5q16 99 61 192t113 168t164 120.5t203 45.5q157 0 259 -93.5t124 -244.5l2 -14h201l-3 27q-23 223 -168 363t-384 140q-153 0 -289.5 -59.5t-233 -159t-160.5 -225.5t-85 -262z" />
    <glyph glyph-name="Ccaron" unicode="&#x10c;" horiz-adv-x="1550" 
d="M877 1978l88 -286h157l181 286h-136l-100 -137l-57 137h-133zM236 680q-17 -90 -9 -177.5t31 -166.5t70.5 -146.5t110 -116.5t150.5 -76.5t191 -27.5q240 0 430 142.5t283 367.5l10 23h-200l-7 -15q-70 -147 -201 -240t-288 -93q-86 0 -157 30t-116 80.5t-74.5 118.5
t-33.5 143.5t6 155.5q16 99 61 192t113 168t164 120.5t203 45.5q157 0 259 -93.5t124 -244.5l2 -14h201l-3 27q-23 223 -168 363t-384 140q-153 0 -289.5 -59.5t-233 -159t-160.5 -225.5t-85 -262z" />
    <glyph glyph-name="ccaron" unicode="&#x10d;" horiz-adv-x="1550" 
d="M877 1978l88 -286h157l181 286h-136l-100 -137l-57 137h-133zM236 680q-17 -90 -9 -177.5t31 -166.5t70.5 -146.5t110 -116.5t150.5 -76.5t191 -27.5q240 0 430 142.5t283 367.5l10 23h-200l-7 -15q-70 -147 -201 -240t-288 -93q-86 0 -157 30t-116 80.5t-74.5 118.5
t-33.5 143.5t6 155.5q16 99 61 192t113 168t164 120.5t203 45.5q157 0 259 -93.5t124 -244.5l2 -14h201l-3 27q-23 223 -168 363t-384 140q-153 0 -289.5 -59.5t-233 -159t-160.5 -225.5t-85 -262z" />
    <glyph glyph-name="Emacron" unicode="&#x112;" horiz-adv-x="1572" 
d="M846 1638h397l14 101h-397zM190 0h1231l27 166h-1051l68 430h782l27 166h-782l67 428h1051l26 170h-1230z" />
    <glyph glyph-name="emacron" unicode="&#x113;" horiz-adv-x="1572" 
d="M846 1638h399l15 101h-400zM190 0h1231l27 166h-1051l68 430h782l27 166h-782l67 428h1051l26 170h-1230z" />
    <glyph glyph-name="Edotaccent" unicode="&#x116;" horiz-adv-x="1572" 
d="M1090 1939q-47 0 -80.5 -28t-40.5 -76q-7 -45 17.5 -73.5t70.5 -28.5q48 0 83 27.5t42 74.5q7 49 -18.5 76.5t-73.5 27.5zM190 0h1231l27 166h-1051l68 430h782l27 166h-782l67 428h1051l26 170h-1230z" />
    <glyph glyph-name="edotaccent" unicode="&#x117;" horiz-adv-x="1572" 
d="M1092 1939q-48 0 -82 -27.5t-41 -76.5q-7 -46 18 -74t72 -28t82.5 28t42.5 74q7 48 -19 76t-73 28zM190 0h1231l27 166h-1051l68 430h782l27 166h-782l67 428h1051l26 170h-1230z" />
    <glyph glyph-name="Ecaron" unicode="&#x11a;" horiz-adv-x="1572" 
d="M887 1978l88 -286h158l180 286h-135l-101 -137l-57 137h-133zM190 0h1231l27 166h-1051l68 430h782l27 166h-782l67 428h1051l26 170h-1230z" />
    <glyph glyph-name="ecaron" unicode="&#x11b;" horiz-adv-x="1572" 
d="M887 1978l88 -286h158l178 286h-133l-101 -137l-59 137h-131zM190 0h1231l27 166h-1051l68 430h782l27 166h-782l67 428h1051l26 170h-1230z" />
    <glyph glyph-name="Gcircumflex" unicode="&#x11c;" horiz-adv-x="1568" 
d="M1268 1692l-90 284h-158l-178 -284h133l100 137l58 -137h135zM236 680q-17 -90 -9 -178t31 -167t70.5 -146t110.5 -116t151.5 -76.5t191.5 -27.5q153 0 289 60t232.5 160.5t160.5 227t86 263.5q0 2 2 21t4 30v19h-608l-26 -168h419q-37 -117 -111.5 -212.5t-185 -155.5
t-235.5 -60q-73 0 -135 21t-105.5 57.5t-76.5 86.5t-48 108.5t-20 123.5t8 131q16 99 60.5 192t112 168t163.5 120.5t203 45.5q106 0 194.5 -48t141.5 -132l4 -8l221 2l-10 29q-62 157 -200 246t-323 89q-122 0 -234.5 -39.5t-200 -107.5t-156.5 -157.5t-112 -192
t-60 -209.5z" />
    <glyph glyph-name="gcircumflex" unicode="&#x11d;" horiz-adv-x="1568" 
d="M1266 1692l-88 284h-158l-178 -284h131l102 137l58 -137h133zM236 680q-17 -90 -9 -178t31 -167t70.5 -146t110.5 -116t151.5 -76.5t191.5 -27.5q153 0 289 60t232.5 160.5t160.5 227t86 263.5q0 2 2 21t4 30v19h-608l-26 -168h419q-37 -117 -111.5 -212.5t-185 -155.5
t-235.5 -60q-73 0 -135 21t-105.5 57.5t-76.5 86.5t-48 108.5t-20 123.5t8 131q16 99 60.5 192t112 168t163.5 120.5t203 45.5q106 0 194.5 -48t141.5 -132l4 -8l221 2l-10 29q-62 157 -200 246t-323 89q-122 0 -234.5 -39.5t-200 -107.5t-156.5 -157.5t-112 -192
t-60 -209.5z" />
    <glyph glyph-name="Gdotaccent" unicode="&#x120;" horiz-adv-x="1568" 
d="M1090 1939q-47 0 -80.5 -28t-40.5 -76q-7 -45 17.5 -73.5t70.5 -28.5q48 0 83 27.5t42 74.5q7 49 -18.5 76.5t-73.5 27.5zM236 680q-17 -90 -9 -178t31 -167t70.5 -146t110.5 -116t151.5 -76.5t191.5 -27.5q153 0 289 60t232.5 160.5t160.5 227t86 263.5q0 2 2 21t4 30
v19h-608l-26 -168h419q-37 -117 -111.5 -212.5t-185 -155.5t-235.5 -60q-73 0 -135 21t-105.5 57.5t-76.5 86.5t-48 108.5t-20 123.5t8 131q16 99 60.5 192t112 168t163.5 120.5t203 45.5q106 0 194.5 -48t141.5 -132l4 -8l221 2l-10 29q-62 157 -200 246t-323 89
q-122 0 -234.5 -39.5t-200 -107.5t-156.5 -157.5t-112 -192t-60 -209.5z" />
    <glyph glyph-name="gdotaccent" unicode="&#x121;" horiz-adv-x="1568" 
d="M1092 1939q-48 0 -82 -27.5t-41 -76.5q-7 -46 18 -74t72 -28t82.5 28t42.5 74q7 48 -19 76t-73 28zM236 680q-17 -90 -9 -178t31 -167t70.5 -146t110.5 -116t151.5 -76.5t191.5 -27.5q153 0 289 60t232.5 160.5t160.5 227t86 263.5q0 2 2 21t4 30v19h-608l-26 -168h419
q-37 -117 -111.5 -212.5t-185 -155.5t-235.5 -60q-73 0 -135 21t-105.5 57.5t-76.5 86.5t-48 108.5t-20 123.5t8 131q16 99 60.5 192t112 168t163.5 120.5t203 45.5q106 0 194.5 -48t141.5 -132l4 -8l221 2l-10 29q-62 157 -200 246t-323 89q-122 0 -234.5 -39.5
t-200 -107.5t-156.5 -157.5t-112 -192t-60 -209.5z" />
    <glyph glyph-name="Hcircumflex" unicode="&#x124;" horiz-adv-x="1638" 
d="M1303 1692l-91 284h-157l-178 -284h133l100 137l57 -137h136zM190 0h181l94 596h899l-94 -596h180l215 1360h-180l-94 -598h-899l94 598h-180z" />
    <glyph glyph-name="hcircumflex" unicode="&#x125;" horiz-adv-x="1638" 
d="M1300 1692l-88 284h-157l-178 -284h131l102 137l57 -137h133zM190 0h181l94 596h899l-94 -596h180l215 1360h-180l-94 -598h-899l94 598h-180z" />
    <glyph glyph-name="Itilde" unicode="&#x128;" horiz-adv-x="571" 
d="M748 1898q-59 -59 -89 -71h-4q-14 12 -30 31l-31 30q-39 39 -86 39q-54 0 -127 -65l-37 -33l-20 -135q16 11 44 35t33 28q11 8 28 22t31.5 25t28.5 19l5 2q11 -2 28 -19q16 -13 31 -34q46 -46 90 -46q36 0 64 16.5t61 49.5q11 11 39 31l24 149q-14 -10 -44 -38t-39 -36z
M197 0h180l215 1360h-180z" />
    <glyph glyph-name="itilde" unicode="&#x129;" horiz-adv-x="571" 
d="M748 1898q-63 -59 -89 -71h-4q-14 12 -30 31l-31 30q-39 39 -86 39q-66 0 -164 -98l-20 -135q15 10 40 32t37 31q70 56 88 66l3 2q13 -2 30 -19q6 -5 31 -34q46 -46 90 -46q59 0 125 66l37 31l24 149zM197 0h180l215 1360h-180z" />
    <glyph glyph-name="Imacron" unicode="&#x12a;" horiz-adv-x="567" 
d="M346 1638h395l15 101h-396zM195 0h180l215 1360h-180z" />
    <glyph glyph-name="imacron" unicode="&#x12b;" horiz-adv-x="567" 
d="M346 1638h395l15 101h-396zM195 0h180l215 1360h-180z" />
    <glyph glyph-name="dotlessi" unicode="&#x131;" horiz-adv-x="559" 
d="M406 1360l-216 -1360h181l215 1360h-180z" />
    <glyph glyph-name="Lacute" unicode="&#x139;" horiz-adv-x="1282" 
d="M870 1692l248 286h-198l-179 -286h129zM190 0h990l26 166h-809l189 1194h-180z" />
    <glyph glyph-name="lacute" unicode="&#x13a;" horiz-adv-x="1282" 
d="M870 1692l248 286h-196l-181 -286h129zM190 0h990l26 166h-809l189 1194h-180z" />
    <glyph glyph-name="Nacute" unicode="&#x143;" horiz-adv-x="1638" 
d="M1053 1692l247 286h-200l-178 -286h131zM190 0h181l170 1079l729 -1079h180l215 1360h-180l-170 -1081l-731 1081h-178z" />
    <glyph glyph-name="nacute" unicode="&#x144;" horiz-adv-x="1638" 
d="M1053 1692l247 286h-200l-180 -286h133zM190 0h181l170 1079l729 -1079h180l215 1360h-180l-170 -1081l-731 1081h-178z" />
    <glyph glyph-name="Ncaron" unicode="&#x147;" horiz-adv-x="1638" 
d="M922 1978l88 -286h157l181 286h-136l-100 -137l-57 137h-133zM190 0h181l170 1079l729 -1079h180l215 1360h-180l-170 -1081l-731 1081h-178z" />
    <glyph glyph-name="ncaron" unicode="&#x148;" horiz-adv-x="1638" 
d="M922 1978l88 -286h157l179 286h-134l-100 -137l-59 137h-131zM190 0h181l170 1079l729 -1079h180l215 1360h-180l-170 -1081l-731 1081h-178z" />
    <glyph glyph-name="Omacron" unicode="&#x14c;" horiz-adv-x="1568" 
d="M846 1638h397l14 101h-397zM236 680q-17 -90 -9 -177.5t31 -166.5t70.5 -146.5t110 -116.5t150.5 -76.5t191 -27.5q153 0 289.5 60t233.5 160t161 227t86 264q17 90 9 177.5t-31 166t-71 145t-111 115t-151 75.5t-191 27q-153 0 -289.5 -59.5t-233 -159t-160.5 -225.5
t-85 -262zM432 682q16 100 61 193t113 168t164.5 120t204.5 45q87 0 158 -29.5t117 -80.5t76.5 -118.5t36 -143.5t-4.5 -156q-16 -100 -62.5 -193.5t-116 -168t-166 -119.5t-204.5 -45q-73 0 -135 21t-105.5 57.5t-76.5 86.5t-48 108.5t-20 123.5t8 131z" />
    <glyph glyph-name="omacron" unicode="&#x14d;" horiz-adv-x="1568" 
d="M846 1638h399l15 101h-400zM236 680q-17 -90 -9 -177.5t31 -166.5t70.5 -146.5t110 -116.5t150.5 -76.5t191 -27.5q153 0 289.5 60t233.5 160t161 227t86 264q17 90 9 177.5t-31 166t-71 145t-111 115t-151 75.5t-191 27q-153 0 -289.5 -59.5t-233 -159t-160.5 -225.5
t-85 -262zM432 682q16 100 61 193t113 168t164.5 120t204.5 45q87 0 158 -29.5t117 -80.5t76.5 -118.5t36 -143.5t-4.5 -156q-16 -100 -62.5 -193.5t-116 -168t-166 -119.5t-204.5 -45q-73 0 -135 21t-105.5 57.5t-76.5 86.5t-48 108.5t-20 123.5t8 131z" />
    <glyph glyph-name="OE" unicode="&#x152;" horiz-adv-x="2619" 
d="M780 -31q-103 0 -191 27.5t-150.5 76.5t-110 116.5t-70.5 146.5t-31 166.5t9 177.5q21 136 85 262t160.5 225.5t233 159t289.5 59.5q298 0 444 -206l29 180h1230l-26 -170h-1051l-67 -428h782l-27 -166h-782l-68 -430h1051l-27 -168h-1230l28 178q-217 -207 -510 -207z
M432 682q-13 -66 -8 -131t20 -123.5t48 -108.5t76.5 -86.5t105.5 -57.5t135 -21q108 0 204.5 45t166 119.5t116 168t62.5 193.5q10 80 4.5 156t-36 143.5t-76.5 118.5t-117 80.5t-158 29.5q-108 0 -204.5 -45t-164.5 -120t-113 -168t-61 -193z" />
    <glyph glyph-name="oe" unicode="&#x153;" horiz-adv-x="2619" 
d="M780 -31q-103 0 -191 27.5t-150.5 76.5t-110 116.5t-70.5 146.5t-31 166.5t9 177.5q21 136 85 262t160.5 225.5t233 159t289.5 59.5q298 0 444 -206l29 180h1230l-26 -170h-1051l-67 -428h782l-27 -166h-782l-68 -430h1051l-27 -168h-1230l28 178q-217 -207 -510 -207z
M432 682q-13 -66 -8 -131t20 -123.5t48 -108.5t76.5 -86.5t105.5 -57.5t135 -21q108 0 204.5 45t166 119.5t116 168t62.5 193.5q10 80 4.5 156t-36 143.5t-76.5 118.5t-117 80.5t-158 29.5q-108 0 -204.5 -45t-164.5 -120t-113 -168t-61 -193z" />
    <glyph glyph-name="Racute" unicode="&#x154;" horiz-adv-x="1613" 
d="M1038 1692l246 286h-199l-178 -286h131zM190 0h181l94 596h530l244 -596h203l-248 596q10 0 30.5 1t30.5 1q80 4 148 38t113 88t74 117.5t40 133.5q17 105 -8 190.5t-100 140t-191 54.5h-925zM492 762l67 428h746q87 0 122.5 -62.5t20.5 -154.5q-14 -94 -68 -152.5
t-143 -58.5h-745z" />
    <glyph glyph-name="racute" unicode="&#x155;" horiz-adv-x="1613" 
d="M1038 1692l246 286h-197l-180 -286h131zM190 0h181l94 596h530l244 -596h203l-248 596q10 0 30.5 1t30.5 1q80 4 148 38t113 88t74 117.5t40 133.5q17 105 -8 190.5t-100 140t-191 54.5h-925zM492 762l67 428h746q87 0 122.5 -62.5t20.5 -154.5q-14 -94 -68 -152.5
t-143 -58.5h-745z" />
    <glyph glyph-name="Rcaron" unicode="&#x158;" horiz-adv-x="1613" 
d="M905 1978l90 -286h158l178 286h-133l-102 -137l-56 137h-135zM190 0h181l94 596h530l244 -596h203l-248 596q10 0 30.5 1t30.5 1q80 4 148 38t113 88t74 117.5t40 133.5q17 105 -8 190.5t-100 140t-191 54.5h-925zM492 762l67 428h746q87 0 122.5 -62.5t20.5 -154.5
q-14 -94 -68 -152.5t-143 -58.5h-745z" />
    <glyph glyph-name="rcaron" unicode="&#x159;" horiz-adv-x="1613" 
d="M905 1978l90 -286h158l178 286h-133l-102 -137l-56 137h-135zM190 0h181l94 596h530l244 -596h203l-248 596q10 0 30.5 1t30.5 1q80 4 148 38t113 88t74 117.5t40 133.5q17 105 -8 190.5t-100 140t-191 54.5h-925zM492 762l67 428h746q87 0 122.5 -62.5t20.5 -154.5
q-14 -94 -68 -152.5t-143 -58.5h-745z" />
    <glyph glyph-name="Sacute" unicode="&#x15a;" horiz-adv-x="1456" 
d="M961 1692l247 286h-200l-177 -286h130zM180 342l4 -23q2 -66 29 -120.5t72 -91.5t101 -64.5t121 -43t126.5 -23t122.5 -7.5q89 0 171.5 13.5t162 45.5t141 80t105.5 122t59 167q15 100 -13 172.5t-79 111.5t-135 62t-157 29t-169 6q-56 0 -104.5 5t-99.5 19t-85.5 36.5
t-53 61t-10.5 89.5q10 62 52 109t103 72.5t126 38t133 12.5q61 0 120.5 -10t115.5 -30.5t94 -59t45 -89.5l4 -14h182l-2 24q-1 77 -37 138.5t-91.5 99t-129.5 62.5t-145.5 34.5t-145.5 9.5q-85 0 -163 -13t-153.5 -43.5t-133.5 -76.5t-99 -116.5t-55 -159.5
q-15 -96 10 -165.5t72 -107.5t125.5 -60t148.5 -28t162 -6q58 0 110.5 -5t108.5 -19.5t94.5 -38.5t59.5 -65t12 -95q-11 -67 -57 -117.5t-113 -77.5t-137 -40t-143 -13q-63 0 -124.5 9.5t-121 30t-100 59t-49.5 90.5l-5 14h-182z" />
    <glyph glyph-name="sacute" unicode="&#x15b;" horiz-adv-x="1456" 
d="M961 1692l247 286h-198l-179 -286h130zM180 342l4 -23q2 -66 29 -120.5t72 -91.5t101 -64.5t121 -43t126.5 -23t122.5 -7.5q89 0 171.5 13.5t162 45.5t141 80t105.5 122t59 167q15 100 -13 172.5t-79 111.5t-135 62t-157 29t-169 6q-56 0 -104.5 5t-99.5 19t-85.5 36.5
t-53 61t-10.5 89.5q10 62 52 109t103 72.5t126 38t133 12.5q61 0 120.5 -10t115.5 -30.5t94 -59t45 -89.5l4 -14h182l-2 24q-1 77 -37 138.5t-91.5 99t-129.5 62.5t-145.5 34.5t-145.5 9.5q-85 0 -163 -13t-153.5 -43.5t-133.5 -76.5t-99 -116.5t-55 -159.5
q-15 -96 10 -165.5t72 -107.5t125.5 -60t148.5 -28t162 -6q58 0 110.5 -5t108.5 -19.5t94.5 -38.5t59.5 -65t12 -95q-11 -67 -57 -117.5t-113 -77.5t-137 -40t-143 -13q-63 0 -124.5 9.5t-121 30t-100 59t-49.5 90.5l-5 14h-182z" />
    <glyph glyph-name="Scircumflex" unicode="&#x15c;" horiz-adv-x="1456" 
d="M1210 1692l-90 284h-157l-179 -284h134l100 137l57 -137h135zM180 342l4 -23q2 -66 29 -120.5t72 -91.5t101 -64.5t121 -43t126.5 -23t122.5 -7.5q89 0 171.5 13.5t162 45.5t141 80t105.5 122t59 167q15 100 -13 172.5t-79 111.5t-135 62t-157 29t-169 6q-56 0 -104.5 5
t-99.5 19t-85.5 36.5t-53 61t-10.5 89.5q10 62 52 109t103 72.5t126 38t133 12.5q61 0 120.5 -10t115.5 -30.5t94 -59t45 -89.5l4 -14h182l-2 24q-1 77 -37 138.5t-91.5 99t-129.5 62.5t-145.5 34.5t-145.5 9.5q-85 0 -163 -13t-153.5 -43.5t-133.5 -76.5t-99 -116.5
t-55 -159.5q-15 -96 10 -165.5t72 -107.5t125.5 -60t148.5 -28t162 -6q58 0 110.5 -5t108.5 -19.5t94.5 -38.5t59.5 -65t12 -95q-11 -67 -57 -117.5t-113 -77.5t-137 -40t-143 -13q-63 0 -124.5 9.5t-121 30t-100 59t-49.5 90.5l-5 14h-182z" />
    <glyph glyph-name="scircumflex" unicode="&#x15d;" horiz-adv-x="1456" 
d="M1210 1692l-90 284h-157l-179 -284h134l100 137l57 -137h135zM180 342l4 -23q2 -66 29 -120.5t72 -91.5t101 -64.5t121 -43t126.5 -23t122.5 -7.5q89 0 171.5 13.5t162 45.5t141 80t105.5 122t59 167q15 100 -13 172.5t-79 111.5t-135 62t-157 29t-169 6q-56 0 -104.5 5
t-99.5 19t-85.5 36.5t-53 61t-10.5 89.5q10 62 52 109t103 72.5t126 38t133 12.5q61 0 120.5 -10t115.5 -30.5t94 -59t45 -89.5l4 -14h182l-2 24q-1 77 -37 138.5t-91.5 99t-129.5 62.5t-145.5 34.5t-145.5 9.5q-85 0 -163 -13t-153.5 -43.5t-133.5 -76.5t-99 -116.5
t-55 -159.5q-15 -96 10 -165.5t72 -107.5t125.5 -60t148.5 -28t162 -6q58 0 110.5 -5t108.5 -19.5t94.5 -38.5t59.5 -65t12 -95q-11 -67 -57 -117.5t-113 -77.5t-137 -40t-143 -13q-63 0 -124.5 9.5t-121 30t-100 59t-49.5 90.5l-5 14h-182z" />
    <glyph glyph-name="Scedilla" unicode="&#x15e;" horiz-adv-x="1456" 
d="M793 -229q4 24 -15 38.5t-39.5 17.5t-46.5 3q-33 0 -65 -4q15 27 40 76.5t35 68.5q-73 4 -140.5 16t-137.5 38.5t-121.5 64.5t-84.5 97t-34 132l-4 23h182l5 -14q9 -52 49.5 -90.5t100 -59t121 -30t124.5 -9.5q73 0 143 13t137 40t113 77.5t57 117.5q9 54 -12 95
t-59.5 65t-94.5 38.5t-108.5 19.5t-110.5 5q-92 0 -162 6t-148.5 28t-125.5 60t-72 107.5t-10 165.5q14 89 55 159.5t99 116.5t133.5 76.5t153.5 43.5t163 13q74 0 145.5 -9.5t145.5 -34.5t129.5 -62.5t91.5 -99t37 -138.5l2 -24h-182l-4 14q-7 51 -45 89.5t-94 59
t-115.5 30.5t-120.5 10q-68 0 -133 -12.5t-126 -38t-103 -72.5t-52 -109q-8 -51 10.5 -89.5t53 -61t85.5 -36.5t99.5 -19t104.5 -5q96 0 169 -6t157 -29t135 -62t79 -111.5t13 -172.5q-14 -87 -55 -158t-97.5 -118.5t-130 -81t-149.5 -50t-160 -20.5l-12 -30h4
q67 -15 94.5 -54.5t17.5 -109.5q-15 -88 -78.5 -138.5t-152.5 -50.5q-102 0 -149.5 48.5t-45.5 148.5h113q3 -45 26 -63.5t70 -18.5q35 0 66.5 17t36.5 53z" />
    <glyph glyph-name="scedilla" unicode="&#x15f;" horiz-adv-x="1456" 
d="M793 -229q4 24 -15 38.5t-39.5 17.5t-46.5 3q-33 0 -65 -4q15 27 40 76.5t35 68.5q-73 4 -140.5 16t-137.5 38.5t-121.5 64.5t-84.5 97t-34 132l-4 23h182l5 -14q9 -52 49.5 -90.5t100 -59t121 -30t124.5 -9.5q73 0 143 13t137 40t113 77.5t57 117.5q9 54 -12 95
t-59.5 65t-94.5 38.5t-108.5 19.5t-110.5 5q-92 0 -162 6t-148.5 28t-125.5 60t-72 107.5t-10 165.5q14 89 55 159.5t99 116.5t133.5 76.5t153.5 43.5t163 13q74 0 145.5 -9.5t145.5 -34.5t129.5 -62.5t91.5 -99t37 -138.5l2 -24h-182l-4 14q-7 51 -45 89.5t-94 59
t-115.5 30.5t-120.5 10q-68 0 -133 -12.5t-126 -38t-103 -72.5t-52 -109q-8 -51 10.5 -89.5t53 -61t85.5 -36.5t99.5 -19t104.5 -5q96 0 169 -6t157 -29t135 -62t79 -111.5t13 -172.5q-14 -87 -55 -158t-97.5 -118.5t-130 -81t-149.5 -50t-160 -20.5l-12 -30h4
q67 -15 94.5 -54.5t17.5 -109.5q-15 -88 -78.5 -138.5t-152.5 -50.5q-102 0 -149.5 48.5t-45.5 148.5h113q3 -45 26 -63.5t70 -18.5q35 0 66.5 17t36.5 53z" />
    <glyph glyph-name="Scaron" unicode="&#x160;" horiz-adv-x="1456" 
d="M829 1978l89 -286h157l180 286h-135l-100 -137l-57 137h-134zM180 342l4 -23q2 -66 29 -120.5t72 -91.5t101 -64.5t121 -43t126.5 -23t122.5 -7.5q89 0 171.5 13.5t162 45.5t141 80t105.5 122t59 167q15 100 -13 172.5t-79 111.5t-135 62t-157 29t-169 6q-56 0 -104.5 5
t-99.5 19t-85.5 36.5t-53 61t-10.5 89.5q10 62 52 109t103 72.5t126 38t133 12.5q61 0 120.5 -10t115.5 -30.5t94 -59t45 -89.5l4 -14h182l-2 24q-1 77 -37 138.5t-91.5 99t-129.5 62.5t-145.5 34.5t-145.5 9.5q-85 0 -163 -13t-153.5 -43.5t-133.5 -76.5t-99 -116.5
t-55 -159.5q-15 -96 10 -165.5t72 -107.5t125.5 -60t148.5 -28t162 -6q58 0 110.5 -5t108.5 -19.5t94.5 -38.5t59.5 -65t12 -95q-11 -67 -57 -117.5t-113 -77.5t-137 -40t-143 -13q-63 0 -124.5 9.5t-121 30t-100 59t-49.5 90.5l-5 14h-182z" />
    <glyph glyph-name="scaron" unicode="&#x161;" horiz-adv-x="1456" 
d="M829 1978l89 -286h157l180 286h-135l-100 -137l-57 137h-134zM180 342l4 -23q2 -66 29 -120.5t72 -91.5t101 -64.5t121 -43t126.5 -23t122.5 -7.5q89 0 171.5 13.5t162 45.5t141 80t105.5 122t59 167q15 100 -13 172.5t-79 111.5t-135 62t-157 29t-169 6q-56 0 -104.5 5
t-99.5 19t-85.5 36.5t-53 61t-10.5 89.5q10 62 52 109t103 72.5t126 38t133 12.5q61 0 120.5 -10t115.5 -30.5t94 -59t45 -89.5l4 -14h182l-2 24q-1 77 -37 138.5t-91.5 99t-129.5 62.5t-145.5 34.5t-145.5 9.5q-85 0 -163 -13t-153.5 -43.5t-133.5 -76.5t-99 -116.5
t-55 -159.5q-15 -96 10 -165.5t72 -107.5t125.5 -60t148.5 -28t162 -6q58 0 110.5 -5t108.5 -19.5t94.5 -38.5t59.5 -65t12 -95q-11 -67 -57 -117.5t-113 -77.5t-137 -40t-143 -13q-63 0 -124.5 9.5t-121 30t-100 59t-49.5 90.5l-5 14h-182z" />
    <glyph glyph-name="Utilde" unicode="&#x168;" horiz-adv-x="1583" 
d="M1253 1898q-60 -60 -88 -71h-4q-13 9 -31 31l-32 30q-34 39 -86 39q-50 0 -127 -65l-35 -33l-21 -135q15 11 44.5 35.5t33.5 27.5q73 58 86 66l4 2q14 -2 31 -19q24 -24 31 -34q40 -46 90 -46q36 0 62.5 16t62.5 50q16 16 37 31l24 149q-13 -10 -41 -36.5t-41 -37.5z
M293 649q-15 -83 -8.5 -165t26 -158t62 -141t99 -113t138 -75.5t178.5 -27.5q116 0 221.5 39t186 105.5t144 153.5t102.5 184.5t55 197.5l113 711h-180l-113 -711q-14 -92 -55.5 -179.5t-104 -158.5t-151.5 -114t-189 -43q-80 0 -145 28t-106 76.5t-67.5 112t-30.5 134
t5 144.5l113 711h-180z" />
    <glyph glyph-name="utilde" unicode="&#x169;" horiz-adv-x="1583" 
d="M1255 1898q-64 -61 -90 -71h-4q-5 4 -10.5 9t-11.5 12t-9 10q-61 69 -118 69q-56 0 -125 -65l-37 -33l-21 -135q16 11 46 36t32 27q69 54 86 66l4 2q14 -2 31 -19q16 -13 31 -34q40 -46 92 -46q35 0 61 16t62 50q16 16 37 31l24 149q-12 -10 -39 -36t-41 -38zM293 649
q-15 -83 -8.5 -165t26 -158t62 -141t99 -113t138 -75.5t178.5 -27.5q116 0 221.5 39t186 105.5t144 153.5t102.5 184.5t55 197.5l113 711h-180l-113 -711q-14 -92 -55.5 -179.5t-104 -158.5t-151.5 -114t-189 -43q-80 0 -145 28t-106 76.5t-67.5 112t-30.5 134t5 144.5
l113 711h-180z" />
    <glyph glyph-name="Umacron" unicode="&#x16a;" horiz-adv-x="1583" 
d="M852 1638h397l15 101h-398zM293 649q-15 -83 -8.5 -165t26 -158t62 -141t99 -113t138 -75.5t178.5 -27.5q116 0 221.5 39t186 105.5t144 153.5t102.5 184.5t55 197.5l113 711h-180l-113 -711q-14 -92 -55.5 -179.5t-104 -158.5t-151.5 -114t-189 -43q-80 0 -145 28
t-106 76.5t-67.5 112t-30.5 134t5 144.5l113 711h-180z" />
    <glyph glyph-name="umacron" unicode="&#x16b;" horiz-adv-x="1583" 
d="M852 1638h399l15 101h-400zM293 649q-15 -83 -8.5 -165t26 -158t62 -141t99 -113t138 -75.5t178.5 -27.5q116 0 221.5 39t186 105.5t144 153.5t102.5 184.5t55 197.5l113 711h-180l-113 -711q-14 -92 -55.5 -179.5t-104 -158.5t-151.5 -114t-189 -43q-80 0 -145 28
t-106 76.5t-67.5 112t-30.5 134t5 144.5l113 711h-180z" />
    <glyph glyph-name="Uring" unicode="&#x16e;" horiz-adv-x="1583" 
d="M1104 1978q-63 0 -109 -40t-55 -103q-9 -62 24 -102.5t95 -40.5q64 0 109.5 40.5t54.5 102.5q11 65 -22 104t-97 39zM293 649q-15 -83 -8.5 -165t26 -158t62 -141t99 -113t138 -75.5t178.5 -27.5q116 0 221.5 39t186 105.5t144 153.5t102.5 184.5t55 197.5l113 711h-180
l-113 -711q-14 -92 -55.5 -179.5t-104 -158.5t-151.5 -114t-189 -43q-80 0 -145 28t-106 76.5t-67.5 112t-30.5 134t5 144.5l113 711h-180zM1049 1835q5 31 36 31q30 0 27 -31q-6 -29 -35 -29q-33 0 -28 29z" />
    <glyph glyph-name="uring" unicode="&#x16f;" horiz-adv-x="1583" 
d="M1106 1978q-64 0 -110.5 -40t-55.5 -103q-9 -62 24 -102.5t97 -40.5q63 0 109 40.5t55 102.5q10 64 -23 103.5t-96 39.5zM293 649q-15 -83 -8.5 -165t26 -158t62 -141t99 -113t138 -75.5t178.5 -27.5q116 0 221.5 39t186 105.5t144 153.5t102.5 184.5t55 197.5l113 711
h-180l-113 -711q-14 -92 -55.5 -179.5t-104 -158.5t-151.5 -114t-189 -43q-80 0 -145 28t-106 76.5t-67.5 112t-30.5 134t5 144.5l113 711h-180zM1051 1835q5 31 36 31q30 0 27 -31q-6 -29 -35 -29q-33 0 -28 29z" />
    <glyph glyph-name="Wcircumflex" unicode="&#x174;" horiz-adv-x="1691" 
d="M1327 1692l-90 284h-158l-178 -284h133l101 137l57 -137h135zM254 0h215l516 881l244 -881h213l364 1360h-172l-291 -1073l-219 780h-213l-460 -780l38 1073h-174z" />
    <glyph glyph-name="wcircumflex" unicode="&#x175;" horiz-adv-x="1691" 
d="M1327 1692l-90 284h-158l-178 -284h133l101 137l57 -137h135zM254 0h215l516 881l244 -881h213l364 1360h-172l-291 -1073l-219 780h-213l-460 -780l38 1073h-174z" />
    <glyph glyph-name="Ycircumflex" unicode="&#x176;" horiz-adv-x="1341" 
d="M1153 1692l-90 284h-158l-178 -284h133l101 137l57 -137h135zM266 1360l391 -885l-75 -475h180l74 475l669 885h-209l-516 -690l-309 690h-205z" />
    <glyph glyph-name="ycircumflex" unicode="&#x177;" horiz-adv-x="1341" 
d="M1153 1692l-90 284h-158l-178 -284h133l101 137l57 -137h135zM266 1360l391 -885l-75 -475h180l74 475l669 885h-209l-516 -690l-309 690h-205z" />
    <glyph glyph-name="Ydieresis" unicode="&#x178;" horiz-adv-x="1341" 
d="M831 1942q-46 0 -79.5 -28.5t-40.5 -74.5q-7 -48 17 -75t71 -27q49 0 83.5 26.5t41.5 75.5q7 47 -19 75t-74 28zM266 1360l391 -885l-75 -475h180l74 475l669 885h-209l-516 -690l-309 690h-205zM999 1835q-7 -47 17.5 -74.5t70.5 -27.5q50 0 85 27.5t42 74.5
q7 49 -18.5 76.5t-75.5 27.5q-46 0 -80 -28.5t-41 -75.5z" />
    <glyph glyph-name="Zacute" unicode="&#x179;" 
d="M999 1692l248 286h-200l-179 -286h131zM152 0h1230l27 166h-991l1128 1026l27 168h-1182l-26 -170h938l-1125 -1026z" />
    <glyph glyph-name="zacute" unicode="&#x17a;" 
d="M999 1692l248 286h-198l-181 -286h131zM152 0h1230l27 166h-991l1128 1026l27 168h-1182l-26 -170h938l-1125 -1026z" />
    <glyph glyph-name="Zdotaccent" unicode="&#x17b;" 
d="M1071 1939q-47 0 -79.5 -27.5t-39.5 -76.5q-7 -46 16.5 -74t69.5 -28q50 0 85 27.5t42 74.5q7 49 -18.5 76.5t-75.5 27.5zM152 0h1230l27 166h-991l1128 1026l27 168h-1182l-26 -170h938l-1125 -1026z" />
    <glyph glyph-name="zdotaccent" unicode="&#x17c;" 
d="M1071 1939q-47 0 -79.5 -27.5t-39.5 -76.5q-7 -46 16.5 -74t69.5 -28q50 0 85 27.5t42 74.5q7 49 -18.5 76.5t-75.5 27.5zM152 0h1230l27 166h-991l1128 1026l27 168h-1182l-26 -170h938l-1125 -1026z" />
    <glyph glyph-name="Zcaron" unicode="&#x17d;" 
d="M868 1978l88 -286h158l180 286h-135l-100 -137l-58 137h-133zM152 0h1230l27 166h-991l1128 1026l27 168h-1182l-26 -170h938l-1125 -1026z" />
    <glyph glyph-name="zcaron" unicode="&#x17e;" 
d="M868 1978l88 -286h158l180 286h-135l-100 -137l-58 137h-133zM152 0h1230l27 166h-991l1128 1026l27 168h-1182l-26 -170h938l-1125 -1026z" />
    <glyph glyph-name="circumflex" unicode="&#x2c6;" horiz-adv-x="624" 
d="M729 1182l-86 286h-158l-182 -286h135l101 139l57 -139h133z" />
    <glyph glyph-name="caron" unicode="&#x2c7;" horiz-adv-x="624" 
d="M350 1470l88 -288h158l180 288h-133l-102 -139l-56 139h-135z" />
    <glyph glyph-name="dotaccent" unicode="&#x2d9;" horiz-adv-x="282" 
d="M375 1432q-46 0 -80 -29t-41 -76q-7 -46 17.5 -75t70.5 -29q48 0 83 28.5t42 75.5t-18.5 76t-73.5 29z" />
    <glyph glyph-name="ring" unicode="&#x2da;" horiz-adv-x="585" 
d="M485 1470q-63 0 -108.5 -40.5t-54.5 -102.5q-11 -64 21 -104.5t95 -40.5q62 0 107.5 40.5t56.5 104.5q9 65 -22.5 104t-94.5 39zM430 1327q3 29 37 29q28 0 25 -29q-6 -31 -35 -31q-18 0 -24 6.5t-3 24.5z" />
    <glyph glyph-name="tilde" unicode="&#x2dc;" horiz-adv-x="565" 
d="M653 1389q-54 -57 -86 -70h-4q-21 14 -33 29l-30 32q-45 39 -84 39q-54 0 -129 -67l-35 -31l-21 -137q44 35 76 63q67 54 90 68l4 2q15 -3 27 -21q19 -15 33 -32q36 -45 88 -45q36 0 63.5 15.5t61.5 47.5q27 23 41 33l22 147q-9 -7 -84 -73z" />
    <glyph glyph-name="Wgrave" unicode="&#x1e80;" horiz-adv-x="1691" 
d="M995 1978l156 -286h129l-86 286h-199zM254 0h215l516 881l244 -881h213l364 1360h-172l-291 -1073l-219 780h-213l-460 -780l38 1073h-174z" />
    <glyph glyph-name="wgrave" unicode="&#x1e81;" horiz-adv-x="1691" 
d="M995 1978l156 -286h127l-84 286h-199zM254 0h215l516 881l244 -881h213l364 1360h-172l-291 -1073l-219 780h-213l-460 -780l38 1073h-174z" />
    <glyph glyph-name="Wacute" unicode="&#x1e82;" horiz-adv-x="1691" 
d="M1077 1692l248 286h-201l-176 -286h129zM254 0h215l516 881l244 -881h213l364 1360h-172l-291 -1073l-219 780h-213l-460 -780l38 1073h-174z" />
    <glyph glyph-name="wacute" unicode="&#x1e83;" horiz-adv-x="1691" 
d="M1077 1692l248 286h-199l-178 -286h129zM254 0h215l516 881l244 -881h213l364 1360h-172l-291 -1073l-219 780h-213l-460 -780l38 1073h-174z" />
    <glyph glyph-name="Wdieresis" unicode="&#x1e84;" horiz-adv-x="1691" 
d="M1006 1942q-46 0 -80 -28.5t-41 -74.5q-7 -48 17 -75t71 -27q49 0 83.5 26.5t41.5 75.5q7 47 -18.5 75t-73.5 28zM254 0h215l516 881l244 -881h213l364 1360h-172l-291 -1073l-219 780h-213l-460 -780l38 1073h-174zM1176 1835q-7 -47 17 -74.5t71 -27.5q48 0 84 28
t43 74q7 48 -19.5 76t-75.5 28q-47 0 -79.5 -28.5t-40.5 -75.5z" />
    <glyph glyph-name="wdieresis" unicode="&#x1e85;" horiz-adv-x="1691" 
d="M1006 1942q-47 0 -80 -28.5t-41 -74.5q-7 -49 16.5 -75.5t71.5 -26.5q49 0 83.5 26.5t41.5 75.5q7 47 -18.5 75t-73.5 28zM254 0h215l516 881l244 -881h213l364 1360h-172l-291 -1073l-219 780h-213l-460 -780l38 1073h-174zM1176 1835q-7 -47 17 -74.5t71 -27.5
q48 0 83 27.5t42 74.5q7 48 -19 76t-74 28q-47 0 -79.5 -28.5t-40.5 -75.5z" />
    <glyph glyph-name="uni1E9E" unicode="&#x1e9e;" horiz-adv-x="1118" 
d="M541 -29q506 43 559 373v2q37 230 -156 338q187 109 217 317l2 5q28 176 -78.5 274t-330.5 98h-478l-256 -1614l166 -6l236 1471h305q139 0 220 -63t61 -191q-8 -48 -28 -85.5t-44 -61.5t-63.5 -41t-70.5 -25.5t-82 -13t-80.5 -5t-82.5 -0.5h-35l-20 -137l6 2h61
q45 0 77.5 -1t78.5 -6.5t78.5 -14.5t66.5 -26.5t53.5 -42t28.5 -62t2 -84.5q-11 -68 -49.5 -118.5t-94.5 -77.5t-117 -39.5t-128 -12.5h-24l-25 -154z" />
    <glyph glyph-name="Ygrave" unicode="&#x1ef2;" horiz-adv-x="1341" 
d="M582 0h180l74 475l669 885h-209l-516 -690l-309 690h-205l391 -885zM750 1978l155 -286h131l-88 286h-198z" />
    <glyph glyph-name="ygrave" unicode="&#x1ef3;" horiz-adv-x="1341" 
d="M582 0h180l74 475l669 885h-209l-516 -690l-309 690h-205l391 -885zM750 1978l155 -286h131l-88 286h-198z" />
    <glyph glyph-name="endash" unicode="&#x2013;" horiz-adv-x="2043" 
d="M311 762l-26 -166h1665l26 166h-1665z" />
    <glyph glyph-name="emdash" unicode="&#x2014;" horiz-adv-x="2580" 
d="M311 762l-26 -166h2201l27 166h-2202z" />
    <glyph glyph-name="quoteleft" unicode="&#x2018;" horiz-adv-x="516" 
d="M285 995q-6 -26 -3.5 -58t10.5 -59.5t33.5 -46t65.5 -18.5q66 0 103.5 44.5t46.5 103.5q9 55 -9 84t-65 49l-37 12q52 128 119 217l10 12l-33 37l-16 -12q-87 -69 -148.5 -169t-76.5 -196z" />
    <glyph glyph-name="quoteright" unicode="&#x2019;" horiz-adv-x="516" 
d="M303 866l33 -37l16 13q87 67 150 167t78 199q7 25 4.5 56t-11 58t-34.5 45.5t-66 18.5q-66 0 -103 -43.5t-46 -103.5q-9 -56 9.5 -83.5t67.5 -47.5l37 -12q-61 -132 -125 -215z" />
    <glyph glyph-name="quotesinglbase" unicode="&#x201a;" horiz-adv-x="516" 
d="M170 10l29 -43l20 17q85 66 147.5 167t77.5 199q6 25 3.5 56.5t-10.5 59.5t-33.5 47t-65.5 19q-66 0 -103.5 -44.5t-46.5 -102.5q-17 -104 76 -135q31 -10 37 -14q-61 -136 -123 -216z" />
    <glyph glyph-name="quotedblleft" unicode="&#x201c;" horiz-adv-x="1052" 
d="M285 995q-6 -26 -3.5 -58t10.5 -59.5t33.5 -46t65.5 -18.5q66 0 103.5 44.5t46.5 103.5q9 55 -9 84t-65 49l-37 12q52 128 119 217l10 12l-33 37l-16 -12q-87 -69 -148.5 -169t-76.5 -196zM825 995q-6 -25 -3.5 -57t10 -59.5t33 -46.5t65.5 -19q65 0 101.5 44.5
t45.5 103.5q9 55 -7.5 83.5t-63.5 49.5l-37 12q50 122 121 217l10 12l-33 37l-16 -12q-87 -70 -149 -169.5t-77 -195.5z" />
    <glyph glyph-name="quotedblright" unicode="&#x201d;" horiz-adv-x="1052" 
d="M303 866l33 -37l16 13q87 67 150 167t78 199q6 24 3.5 54.5t-10.5 58t-34 46.5t-66 19q-66 0 -103 -43.5t-46 -103.5q-9 -56 9.5 -83.5t67.5 -47.5l37 -12q-61 -132 -125 -215zM844 866l33 -37l16 13q85 66 146.5 167t76.5 199q6 24 4 54.5t-9.5 58t-32.5 46.5t-64 19
q-66 0 -103.5 -44t-46.5 -103q-11 -72 29 -106q18 -15 47 -25q12 -5 37 -12q-64 -139 -125 -215z" />
    <glyph glyph-name="quotedblbase" unicode="&#x201e;" horiz-adv-x="1052" 
d="M170 10l29 -43l20 17q85 67 147.5 167t77.5 197q6 25 3.5 56.5t-10.5 60t-34 48t-67 19.5q-64 0 -101.5 -45t-46.5 -102q-17 -104 76 -135q31 -10 37 -14q-61 -136 -123 -216zM709 10l28 -43l21 17q85 66 146.5 166t76.5 198q6 25 3.5 56.5t-9.5 60t-32.5 48t-65.5 19.5
q-65 0 -102 -45t-46 -102q-9 -54 8.5 -86t63.5 -49l39 -14q-60 -133 -119 -216z" />
    <glyph glyph-name="dagger" unicode="&#x2020;" horiz-adv-x="937" 
d="M930 98h-336l-62 -387h-182l62 387h-336l24 166h336l221 1387h183l-222 -1387h336z" />
    <glyph glyph-name="bullet" unicode="&#x2022;" horiz-adv-x="706" 
d="M236 680q-16 -103 30 -173.5t156 -70.5q111 0 180.5 70t85.5 174q9 66 -6 119.5t-62 88t-122 34.5q-110 0 -178.5 -70t-83.5 -172z" />
    <glyph glyph-name="ellipsis" unicode="&#x2026;" horiz-adv-x="1802" 
d="M184 113q-10 -58 16 -101t91 -43q66 0 105.5 42t49.5 102q10 61 -17.5 102t-92.5 41q-64 0 -104 -42.5t-48 -100.5zM791 113q-10 -58 14.5 -101t89.5 -43q67 0 107.5 42t50.5 102q10 61 -18 102t-95 41q-64 0 -102.5 -42t-46.5 -101zM1395 113q-10 -58 15 -101t89 -43
q67 0 107.5 42t50.5 102q10 61 -18 102t-95 41q-63 0 -102 -42.5t-47 -100.5z" />
    <glyph glyph-name="guilsinglleft" unicode="&#x2039;" horiz-adv-x="835" 
d="M131 651l686 -362l27 168l-387 194l450 197l25 164z" />
    <glyph glyph-name="guilsinglright" unicode="&#x203a;" horiz-adv-x="862" 
d="M104 289l799 362l-684 361l-24 -164l383 -197l-447 -194z" />
    <glyph glyph-name="Euro" unicode="&#x20ac;" horiz-adv-x="1443" 
d="M295 596q-1 -101 17.5 -191t60 -170.5t104 -139t155.5 -92.5t208 -34q142 0 276 52.5t240 152.5l18 14l-125 127l-18 -14q-72 -70 -164.5 -108.5t-189.5 -38.5q-116 0 -200.5 52.5t-128 137.5t-52.5 195l-7 57h660l27 166h-660l23 57q71 172 200 280.5t301 108.5
q97 0 178.5 -38.5t133.5 -108.5l14 -17l162 125l-10 15q-73 100 -192 151t-261 51q-144 0 -268 -50t-215 -138t-155.5 -197.5t-104.5 -238.5h-138l-26 -166h137z" />
    <glyph glyph-name="uni2120" unicode="&#x2120;" horiz-adv-x="1632" 
d="M201 870q-8 -54 9 -97t50 -70t80 -44.5t93 -24.5t93 -7q66 0 125 13t112.5 41t90 79.5t47.5 120.5q8 52 -2 91t-31 62.5t-57 38.5t-69.5 21.5t-77.5 9.5q-19 1 -56 2.5t-64 3.5t-48 6q-32 6 -44.5 17.5t-9.5 33.5q6 38 58 54q41 16 100 16q21 0 45.5 -3t52.5 -11
t44.5 -24.5t13.5 -39.5l-6 -20h180l4 20q8 54 -8 97t-48.5 69.5t-78 44.5t-91.5 25.5t-94 7.5q-86 0 -157.5 -22.5t-127.5 -79.5t-71 -144q-8 -52 3 -91t33 -61t59 -36.5t70 -20t77 -8.5q15 -1 45.5 -2t44.5 -2q29 -2 80 -10q60 -11 51 -56q-6 -40 -62 -61q-49 -16 -110 -16
q-23 0 -49 3t-57 10.5t-49 24t-15 39.5l4 21h-178zM895 639h176l70 428l39 -428h161l183 430l-70 -430h178l121 762h-262l-174 -434l-43 434h-258z" />
    <glyph glyph-name="trademark" unicode="&#x2122;" horiz-adv-x="1546" 
d="M473 1235l-96 -596h186l96 596h209l25 166h-608l-25 -166h213zM811 639h178l70 428l41 -428h157l185 432l-70 -432h174l121 762h-258l-176 -434l-45 434h-256z" />
    <glyph glyph-name="minus" unicode="&#x2212;" horiz-adv-x="1368" 
d="M311 762l-26 -166h989l26 166h-989z" />
    <glyph glyph-name="_Designova" horiz-adv-x="1435" 
d="M717 39q-166 0 -308 83t-224.5 225t-82.5 308q1 125 50 238t131.5 195.5t196.5 131t239 48.5q166 0 307.5 -82t224 -223.5t82.5 -307.5q0 -167 -82.5 -309t-224.5 -224.5t-309 -82.5zM176 655q0 -148 72.5 -273t197.5 -197t273 -72q146 0 270.5 72t197.5 196.5t73 271.5
q0 148 -72.5 273t-197 197.5t-271.5 72.5t-272 -72.5t-198 -197t-73 -271.5zM369 762q8 0 12 -4q63 -22 111 -29q41 -3 77 2q34 8 49 14q5 0 11.5 3.5t7.5 3.5q-7 4 -22 11.5t-25.5 14.5t-18.5 17h21q37 0 82 18q83 51 151 70q27 8 62 8q7 0 24 1.5t25 0.5q65 -4 96 -37
q9 -6 33 -35v-2q-4 2 -6 2q-52 20 -92 5.5t-68 -56.5q-3 -4 -29 -65q-49 -113 -53 -121q-28 -63 -69 -113q-16 -23 -70 -63q-57 -40 -131 -60h-6l26 23q16 14 29 49q4 12 22.5 63t26.5 78q35 96 62 144q-7 -7 -11 -13q-9 -9 -10 -14q-19 -21 -35 -62q-4 -6 -10 -6
q-114 6 -195 76l-61 59q-3 3 -8 8.5t-8 8.5z" />
    <glyph glyph-name="_Origin" horiz-adv-x="1918" 
d="M102 41v1178h1715v-1176l-43 -2v2zM147 84h1627v641h-1627v-641zM297 229v131h31v-131h-31zM301 905h70q60 0 86 41q10 18 10 47q0 56 -45 78q-18 10 -49 10h-72v-176zM319 451v129h111v-23h-80v-29h72v-22h-72v-33h80v-22h-111zM342 938v111h27q37 0 51 -23q6 -24 6 -33
q0 -37 -27 -49q-12 -6 -30 -6h-27zM348 229v131h25l65 -77v77h31v-131h-25l-65 82v-82h-31zM451 451v129h26l66 -78v78h28v-129h-24l-66 79v-79h-30zM483 971q0 -46 35 -60q10 -6 39 -6q38 0 55 17q11 15 13 22l-39 2q-3 -8 -17 -14h-12q-23 0 -29 14q-6 9 -6 17h103v10
q0 33 -21 51q-19 16 -49 16q-42 0 -63 -32q-9 -22 -9 -37zM522 985q3 16 17 23q6 6 16 6q24 0 27 -17q4 -4 4 -12h-64zM537 229v131h65q53 0 53 -32q0 -22 -18 -29q2 0 2 -2q20 -7 20 -31q0 -37 -53 -37h-69zM567 254h37q25 0 25 16q0 15 -25 15h-37v-31zM567 311h33
q25 0 25 15q0 16 -25 16h-33v-31zM594 557v23h115v-23h-43v-106h-29v106h-43zM637 944q6 -39 68 -39q41 0 59 21q6 9 6 20q0 29 -41 37l-29 4q-18 3 -18 14q0 13 23 13q24 0 24 -15l39 2q-7 39 -63 39q-39 0 -56 -20q-8 -8 -8 -21q0 -30 41 -38l27 -5q20 -3 20 -12
q0 -14 -24 -14t-27 16zM674 229v131h108v-24h-80v-27h72v-24h-72v-29h78v-27h-106zM721 580h33l30 -91l31 91h27l30 -93l31 93h29l-41 -129h-35l-29 88l-28 -88h-33zM786 905h43v133h-43v-133zM786 1073q0 -7 7 -12.5t16 -5.5t15.5 5.5t6.5 12.5q0 8 -6.5 13.5t-15.5 5.5
t-16 -6t-7 -13zM803 229v131h61q21 0 29 -4q29 -14 29 -43q0 -12 -9 -24q-18 -18 -20 -19l27 -41h-33l-25 39h-26v-39h-33zM836 293h26q29 0 29 20q0 23 -29 23h-26v-43zM848 973q0 -46 31 -58q12 -6 30 -6q22 0 33 11q8 4 8 10h2v-25q0 -24 -30 -24q-19 0 -27 8l-4 8
l-39 -6q3 -16 21 -26.5t47 -10.5q43 0 63 23q10 10 10 28v133h-41v-22h-2q-3 14 -22 20q-8 4 -19 4q-38 0 -53 -30q-8 -13 -8 -37zM891 973q0 24 12 33q9 6 19 6q18 0 28 -21q0 -2 1 -8.5t1 -9.5q0 -37 -30 -37q-20 0 -29 18q-2 4 -2 19zM936 229v131h29v-104h77v-27h-106z
M938 516q0 27 20 47q18 21 52 21q33 0 51 -21q20 -20 20 -47q0 -26 -20 -49q-18 -18 -51 -18q-34 0 -52 18q-20 23 -20 49zM969 516q0 -19 11 -31t30 -12t30 12t11 31t-11 31t-30 12t-30 -12t-11 -31zM1018 905h41v78q0 17 14 23q4 4 14 4q25 0 25 -27v-78h43v84
q0 34 -25 43q-11 8 -26 8q-32 0 -45 -26v24h-41v-133zM1065 229v131h31v-131h-31zM1100 451v129h57q23 0 31 -2q26 -14 26 -43q0 -15 -6 -27q-7 -10 -22 -16l28 -41h-32l-25 36h-29v-36h-28zM1116 229v131h27l63 -77v77h33v-131h-27l-65 82v-82h-31zM1128 512h27q29 0 29 23
q0 22 -29 22h-27v-45zM1174 971q0 -42 34 -60q10 -6 39 -6q44 0 66 31q8 20 8 35q0 40 -35 61q-24 8 -39 8q-44 0 -65 -32q-8 -20 -8 -37zM1217 973q0 24 12 33q9 6 18 6q20 0 27 -21q4 -8 4 -18q0 -27 -14 -35q-6 -6 -17 -6q-18 0 -28 20q-2 6 -2 21zM1231 451v129h108v-23
h-77v-29h69v-22h-69v-55h-31zM1257 248q0 18 19 18q8 0 13 -5t5 -13q0 -7 -6 -19l-10 -28h-18l8 30q-11 4 -11 17zM1321 1038l53 -133h45l54 133h-43l-31 -94h-2l-31 94h-45zM1352 451v129h108v-23h-78v-29h70v-22h-70v-33h78v-22h-108zM1368 229v131h59q23 0 39 -8
q33 -13 33 -55q0 -24 -8 -37q-17 -31 -64 -31h-59zM1399 256h26q17 0 25 4q18 12 18 37q0 16 -4 20q-10 19 -39 19h-26v-80zM1475 944q0 -29 22 -35q8 -4 27 -4q22 0 35 8l8 13h2v-21h37v90q0 21 -17 35q-23 10 -45 10q-35 0 -53 -18q-9 -9 -12 -21l39 -4q4 17 26 17
q21 0 21 -17v-2q0 -7 -15 -10q-12 0 -20 -2q-22 0 -39 -10q-16 -8 -16 -29zM1483 451v129h22l68 -78v78h31v-129h-27l-66 79v-79h-28zM1513 944q0 8 13 14q3 3 12 3q3 1 14.5 3t14.5 3v-13q0 -15 -17 -22q-1 0 -6 -1t-10 -1q-21 0 -21 14zM1518 229v131h108v-24h-78v-27h70
v-24h-70v-29h78v-27h-108z" />
    <glyph glyph-name="_Typeface" horiz-adv-x="1718" 
d="M102 365v553h1514v-553h-1514zM268 510h35v211l174 -211h35v264h-35v-209l-174 209h-35v-264zM569 643q0 -56 35 -97.5t92 -41.5q59 0 94 41.5t35 97.5t-35 96.5t-94 40.5q-57 0 -92 -41.5t-35 -95.5zM608 643q0 40 24 71t64 31t65 -31t25 -71q0 -41 -24.5 -72.5
t-65.5 -31.5q-40 0 -64 31.5t-24 72.5zM887 510h35v117h104l64 -117h38l-65 117h12q30 1 46 22.5t16 50.5q0 31 -19 52.5t-53 21.5h-178v-264zM922 657v84h143q18 0 27.5 -12.5t9.5 -30.5q0 -41 -37 -41h-143zM1202 510h123q58 0 92.5 39t34.5 94t-34.5 93t-92.5 38h-123
v-264zM1239 543v198h86q41 0 64.5 -29.5t23.5 -68.5q0 -41 -23.5 -70.5t-64.5 -29.5h-86z" />
    <glyph glyph-name="_VendorID" horiz-adv-x="1132" 
d="M102 147v1131h928v-1131h-928zM106 61q0 11 8 19t17 8q8 0 10 -4l4 -4v24h13v-69h-13v10l-4 -8q-4 -4 -14 -4q-21 0 -21 28zM119 61q0 -16 12 -16q14 0 14 16q0 17 -12 17q-14 0 -14 -17zM168 61q0 11 7.5 19t17.5 8t17 -8t7 -19q0 -2 -2 -4h-35q2 -12 13 -12q10 0 12 8
h10q-3 -20 -22 -20q-25 0 -25 28zM180 63h25q-3 15 -12 15q-10 0 -13 -15zM221 49h15q4 -8 8 -8q8 0 8 8q0 1 -10 8q-19 3 -19 15q0 16 21 16q20 0 20 -16h-14q0 6 -6 6t-6 -4t10 -11q16 -3 16 -14q0 -16 -20 -16t-23 16zM262 434q0 -58 40 -98.5t99 -40.5q57 0 96.5 40.5
t39.5 98.5q0 59 -38 98t-98 39q-16 0 -22 -2l80 115h-62l-92 -131q-43 -61 -43 -119zM262 883q0 -57 40.5 -97.5t98.5 -40.5q57 0 96.5 40t39.5 98q0 59 -38 98t-98 39q-16 0 -22 -2l80 117h-62l-92 -136q-43 -64 -43 -116zM272 35v53h15v-53h-15zM272 98q0 6 9 6q6 0 6 -6
q0 -8 -6 -8q-9 0 -9 8zM309 33q0 -8 13 -8q10 0 14 12v8l-4 -8q-2 0 -6.5 -1t-6.5 -1q-22 0 -22 26q0 12 7 19.5t18 7.5q8 0 10 -4l4 -4v8h14v-39q0 -8 -2 -12q0 -23 -26 -23q-25 0 -25 19h12zM309 61q0 -16 13 -16q14 0 14 16q0 17 -14 17q-13 0 -13 -17zM313 434
q0 37 25 61.5t63 24.5q37 0 61.5 -24.5t24.5 -61.5q0 -39 -24.5 -64.5t-61.5 -25.5q-39 0 -63.5 24.5t-24.5 65.5zM313 883q0 39 24.5 63.5t63.5 24.5q37 0 61.5 -25t24.5 -63t-24.5 -63t-61.5 -25q-39 0 -63.5 24.5t-24.5 63.5zM360 35v53h13v-10l4 6q4 4 12 4q15 0 19 -14
q2 -4 2 -11v-28h-15v33q0 10 -10 10q-12 0 -12 -19v-24h-13zM416 61q0 11 7 19t19 8t19.5 -8t7.5 -19q0 -12 -7.5 -20t-19.5 -8t-19 8t-7 20zM430 61q0 -16 12 -16q15 0 15 16q0 17 -15 17q-12 0 -12 -17zM473 88h14l13 -43l12 43h14l-18 -53h-19zM530 49q0 17 29 17h2v6
q0 6 -8 6q-10 0 -10 -8h-13q0 18 23 18q17 0 20 -14v-39h-12v6l-2 -4q-8 -4 -14 -4q-5 0 -10 4.5t-5 11.5zM543 49q0 -4 8 -4q10 0 10 8v6q-18 0 -18 -10zM582 76v10h6v6q0 14 18 14h4v-10q-10 3 -10 -4v-6h10v-10h-10v-41h-12v41h-6zM594 434q0 -58 40 -98.5t99 -40.5
q57 0 96 40t39 99t-38.5 98t-96.5 39q-16 0 -24 -2l82 115h-62l-92 -131q-43 -61 -43 -119zM594 883q0 -58 40 -98t99 -40q57 0 96 40t39 98q0 59 -38.5 98t-96.5 39q-16 0 -24 -2l82 117h-62l-92 -136q-43 -62 -43 -116zM614 61q0 11 7 19t20 8q12 0 19.5 -8t7.5 -19
q0 -12 -7.5 -20t-19.5 -8q-27 0 -27 28zM629 61q0 -16 12 -16t12 16q0 17 -12 17t-12 -17zM645 434q0 37 24.5 61.5t63.5 24.5q36 0 59 -24.5t23 -61.5q0 -40 -22.5 -65t-59.5 -25q-39 0 -63.5 24.5t-24.5 65.5zM645 883q0 39 24.5 63.5t63.5 24.5q36 0 59 -24.5t23 -63.5
t-23 -63.5t-59 -24.5q-39 0 -63.5 24.5t-24.5 63.5zM676 35v53h12v-10l4 6q4 4 13 4q15 0 18 -14v-39h-12v33q-3 10 -9 10q-14 0 -14 -19v-24h-12zM731 76v10h6v12h15v-12h8v-10h-8v-27q0 -9 8 -4v-10h-8q-15 0 -15 10v31h-6zM764 49h14q4 -8 10 -8q9 0 9 8q0 2 -1 3t-5 2.5
t-7 2.5q-16 3 -16 15q0 16 18 16q19 0 25 -16h-16q0 6 -9 6q-4 0 -4 -4q0 -6 11 -11q18 -5 18 -14q0 -16 -23 -16q-18 0 -24 16zM813 41q0 8 10 8q8 0 8 -8t-8 -8q-10 0 -10 8zM838 61q0 12 7.5 19.5t16.5 7.5q23 0 23 -20h-13q-2 10 -10 10q-12 0 -12 -17q0 -16 12 -16
q8 0 10 8h13q0 -20 -23 -20q-24 0 -24 28zM891 61q0 11 7 19t20 8q24 0 24 -27q0 -28 -24 -28q-27 0 -27 28zM903 61q0 -16 15 -16q12 0 12 16q0 17 -12 17q-15 0 -15 -17zM952 35v53h13v-10l6 6q2 4 8 4q13 0 16 -10l6 6q2 4 11 4q6 0 11 -4t5 -8v-13v-28h-12v26v9
q0 8 -10 8q-9 0 -9 -17v-26h-12v35q-5 8 -10 8q-10 0 -10 -17v-26h-13z" />
    </font>
</defs>
</svg>
