<?xml version="1.0" standalone="no"?>
<!DOCTYPE svg PUBLIC "-//W3C//DTD SVG 1.1//EN" "http://www.w3.org/Graphics/SVG/1.1/DTD/svg11.dtd" >
<svg xmlns="http://www.w3.org/2000/svg" xmlns:xlink="http://www.w3.org/1999/xlink" version="1.1">
<metadata>
Created by FontForge 20201107 at Tue May 28 21:44:44 2024
 By 
Copyright (c) 2024 by Designova. All rights reserved.
</metadata>
<defs>
<font id="NORD-Book" horiz-adv-x="1533" >
  <font-face 
    font-family="NORD Book"
    font-weight="400"
    font-stretch="normal"
    units-per-em="2048"
    panose-1="0 0 0 0 0 0 0 0 0 0"
    ascent="1638"
    descent="-410"
    x-height="1360"
    cap-height="1360"
    bbox="6 -414 2492 1978"
    underline-thickness="102"
    underline-position="-255"
    unicode-range="U+0020-2212"
  />
<missing-glyph horiz-adv-x="1458" 
d="M102 0v1411h1254v-1411h-1254zM301 522l119 -116l305 305l311 -305l121 116l-307 309l303 308l-117 116l-311 -305l-303 305l-121 -116l307 -308zM311 170h31v84h2l64 -84h28v131h-30v-82h-3l-65 82h-27v-131zM451 219q0 -30 24 -45q30 -6 31 -6q31 0 49 25q6 12 6 26
q0 32 -26 45q-12 6 -29 6q-37 0 -49 -24q-6 -12 -6 -27zM481 219q0 16 11 27q8 4 14 4q13 0 20 -14q2 -6 2 -17q0 -16 -10 -26q-2 0 -5.5 -1.5t-6.5 -1.5q-18 0 -21 15q-4 4 -4 14zM612 236q0 -44 33 -60q24 -8 39 -8q38 0 55 27q9 12 9 28v19h-62v-23h33q0 -15 -17 -22
q-6 -4 -18 -4q-25 0 -35 20q-4 6 -4 23q0 28 19 38q14 7 18 7q12 0 22 -6.5t11 -16.5h30q0 18 -20 35q-17 10 -43 10q-40 0 -59 -31q-11 -14 -11 -36zM766 170h29v131h-29v-131zM805 270l41 -102l-2 -4q-2 -12 -23 -8l-8 -19q12 -4 21 -4q21 0 32 14q4 2 8 13l44 110h-33
l-23 -73h-2l-22 73h-33zM928 133h30v53q8 -12 19 -14q4 -4 14 -4q27 0 39 25q6 8 6 26q0 32 -20 45q-12 6 -25 6q-16 0 -26 -10q-6 -6 -7 -8v18h-30v-137zM958 219q0 18 11 25q6 6 12 6q17 0 20 -14q5 -15 5 -17q0 -11 -11 -26l-14 -3q-14 0 -20 15q-3 6 -3 14zM1053 170h28
v57q0 15 11 19q4 2 12 2q18 0 18 -19v-59h33v63q0 24 -20 33q-8 4 -19 4q-26 0 -35 -18h-2v49h-26v-131z" />
    <glyph glyph-name=".notdef" horiz-adv-x="1458" 
d="M102 0v1411h1254v-1411h-1254zM301 522l119 -116l305 305l311 -305l121 116l-307 309l303 308l-117 116l-311 -305l-303 305l-121 -116l307 -308zM311 170h31v84h2l64 -84h28v131h-30v-82h-3l-65 82h-27v-131zM451 219q0 -30 24 -45q30 -6 31 -6q31 0 49 25q6 12 6 26
q0 32 -26 45q-12 6 -29 6q-37 0 -49 -24q-6 -12 -6 -27zM481 219q0 16 11 27q8 4 14 4q13 0 20 -14q2 -6 2 -17q0 -16 -10 -26q-2 0 -5.5 -1.5t-6.5 -1.5q-18 0 -21 15q-4 4 -4 14zM612 236q0 -44 33 -60q24 -8 39 -8q38 0 55 27q9 12 9 28v19h-62v-23h33q0 -15 -17 -22
q-6 -4 -18 -4q-25 0 -35 20q-4 6 -4 23q0 28 19 38q14 7 18 7q12 0 22 -6.5t11 -16.5h30q0 18 -20 35q-17 10 -43 10q-40 0 -59 -31q-11 -14 -11 -36zM766 170h29v131h-29v-131zM805 270l41 -102l-2 -4q-2 -12 -23 -8l-8 -19q12 -4 21 -4q21 0 32 14q4 2 8 13l44 110h-33
l-23 -73h-2l-22 73h-33zM928 133h30v53q8 -12 19 -14q4 -4 14 -4q27 0 39 25q6 8 6 26q0 32 -20 45q-12 6 -25 6q-16 0 -26 -10q-6 -6 -7 -8v18h-30v-137zM958 219q0 18 11 25q6 6 12 6q17 0 20 -14q5 -15 5 -17q0 -11 -11 -26l-14 -3q-14 0 -20 15q-3 6 -3 14zM1053 170h28
v57q0 15 11 19q4 2 12 2q18 0 18 -19v-59h33v63q0 24 -20 33q-8 4 -19 4q-26 0 -35 -18h-2v49h-26v-131z" />
    <glyph glyph-name=".null" horiz-adv-x="0" 
 />
    <glyph glyph-name=".null" horiz-adv-x="0" 
 />
    <glyph glyph-name="nonmarkingreturn" horiz-adv-x="682" 
 />
    <glyph glyph-name="space" unicode=" " horiz-adv-x="657" 
 />
    <glyph glyph-name="space" unicode="&#xa0;" horiz-adv-x="657" 
 />
    <glyph glyph-name="exclam" unicode="!" horiz-adv-x="591" 
d="M207 1114q0 -396 43 -737l2 -19h90l2 19q41 374 41 737v246h-178v-246zM166 113q0 -58 32 -101t97 -43q66 0 99.5 42t33.5 102q0 61 -34 102t-99 41q-64 0 -96.5 -42t-32.5 -101z" />
    <glyph glyph-name="quotedbl" unicode="&#x22;" horiz-adv-x="913" 
d="M166 1188q0 -171 35 -301l4 -17h102l4 17q35 130 35 301v172h-180v-172zM571 1188q0 -179 37 -301l4 -17h99l6 17q35 130 35 301v172h-181v-172z" />
    <glyph glyph-name="numbersign" unicode="#" horiz-adv-x="1642" 
d="M307 0h160l57 319h412l-62 -319h156l62 319h251v138h-227l82 444h256v139h-229l57 320h-158l-57 -320h-410l62 320h-160l-55 -320h-256v-139h227l-84 -444h-252v-138h228zM549 457l84 444h409l-84 -444h-409z" />
    <glyph glyph-name="dollar" unicode="$" horiz-adv-x="1112" 
d="M481 -272h127v329q75 6 137 19.5t123 41t102.5 66.5t67 100.5t25.5 139.5q0 82 -26 142.5t-66.5 95.5t-103.5 57t-122 29.5t-137 9.5v401q230 -35 273 -162l6 -16h155l-8 27q-15 71 -58 125t-104 86t-125.5 50.5t-138.5 26.5v322h-127v-318q-74 -6 -134.5 -18t-122.5 -38
t-104 -64t-68.5 -98t-26.5 -138q0 -59 14.5 -107t37 -80t59.5 -56t73 -38t86.5 -22.5t90.5 -12t95 -5.5v-430q-269 33 -317 167l-4 13h-154l4 -23q17 -75 66 -131.5t119.5 -89t139.5 -49.5t146 -25v-327zM178 954q0 161 303 205v-401q-53 4 -90.5 9.5t-81 19t-69.5 33.5
t-44 54t-18 80zM608 197v424q52 -4 91.5 -10.5t82 -21t70 -35.5t45.5 -55.5t18 -80.5q0 -185 -307 -221z" />
    <glyph glyph-name="percent" unicode="%" horiz-adv-x="1972" 
d="M127 1137q0 -102 39.5 -187t123.5 -139.5t197 -54.5q88 0 158 31t113 84.5t65.5 121t22.5 144.5q0 76 -22.5 146t-65.5 126.5t-113.5 90.5t-157.5 34q-86 0 -156 -34t-113.5 -90.5t-67 -126.5t-23.5 -146zM281 1141q0 101 54.5 170t151.5 69q98 0 151.5 -68t53.5 -169
q0 -100 -53.5 -167t-151.5 -67q-97 0 -151.5 66.5t-54.5 165.5zM424 190l106 -116l1016 1097l-106 111zM1124 207q0 -104 40 -189t124 -138.5t199 -53.5q172 0 265 110t93 271q0 76 -22.5 146t-65.5 126t-112.5 89.5t-157.5 33.5q-114 0 -198.5 -57.5t-124.5 -146
t-40 -191.5zM1278 213q0 99 55 168.5t152 69.5q98 0 152.5 -69t54.5 -169q0 -99 -54.5 -166t-152.5 -67t-152.5 67t-54.5 166z" />
    <glyph glyph-name="ampersand" unicode="&#x26;" horiz-adv-x="1335" 
d="M127 354q0 -126 62.5 -215t164 -130.5t230.5 -41.5q120 0 202 42.5t177 133.5q106 -113 190 -161l16 -13l103 142l-17 10q-71 49 -188 166q74 107 115 252l4 18l-146 37l-8 -19q-12 -44 -41 -104l-39 -74l-254 367l82 55q87 66 135 133t48 158q0 87 -48.5 151.5
t-123 94.5t-162.5 30q-49 0 -95.5 -9.5t-89.5 -30t-75 -50t-51 -73t-19 -95.5q0 -87 45.5 -171.5t120.5 -176.5q-60 -32 -104.5 -60t-91 -67.5t-75.5 -81t-48 -97.5t-19 -120zM305 360q0 102 62.5 178t173.5 140l313 -422q-84 -75 -149.5 -112.5t-145.5 -37.5
q-116 0 -185 71.5t-69 182.5zM463 1139q0 59 50.5 86.5t125.5 27.5q79 0 125.5 -39t46.5 -110q0 -77 -72 -139l-69 -54q-34 -18 -60 -41q-80 100 -94 123q-53 75 -53 146z" />
    <glyph glyph-name="quotesingle" unicode="'" horiz-adv-x="509" 
d="M166 1188q0 -171 35 -301l4 -17h102l4 17q35 130 35 301v172h-180v-172z" />
    <glyph glyph-name="parenleft" unicode="(" horiz-adv-x="602" 
d="M127 680q0 -258 68 -512.5t204 -462.5l13 -16l127 92l-9 14q-111 195 -167 423t-56 462q0 233 55.5 461t167.5 420l9 16l-127 92l-13 -18q-136 -205 -204 -458.5t-68 -512.5z" />
    <glyph glyph-name="parenright" unicode=")" horiz-adv-x="602" 
d="M63 -219l130 -92l12 16q135 208 202.5 462.5t67.5 512.5t-67.5 512t-202.5 459l-12 18l-130 -92l9 -14q111 -194 167 -423t56 -460q0 -232 -56.5 -460.5t-166.5 -424.5z" />
    <glyph glyph-name="asterisk" unicode="*" horiz-adv-x="929" 
d="M446 1112q-32 64 -32 107v141h102v-141q0 -36 -31 -107l-16 -47zM127 827l16 9q66 40 95 55q56 22 108 29l43 4l-22 -33q-37 -56 -69.5 -83.5t-98.5 -66.5l-23 -10zM127 1118l49 96l23 -10q64 -38 98 -68t74 -87l18 -27v8l86 29l66 -35v-8l20 33q34 53 71 84.5t103 70.5
l19 10l49 -96l-15 -8q-42 -29 -65 -43t-61 -28.5t-80 -20.5l-41 -6v-72l-68 -74l12 -35q2 -5 9.5 -23t11.5 -28q10 -50 10 -55v-143h-102v143q0 10 14 57q3 10 9.5 27t8.5 22l21 39l-78 54v88l-39 6q-65 9 -110 35q-25 8 -47 24q-18 9 -50 33zM539 924l45 -4q55 -8 110 -29
l18 -11q19 -11 29 -16l47 -28l17 -13l-53 -92l-19 10q-65 37 -99.5 66t-70.5 84z" />
    <glyph glyph-name="plus" unicode="+" horiz-adv-x="1368" 
d="M594 596v-449h182v449h404v166h-404v452h-182v-452h-404v-166h404z" />
    <glyph glyph-name="comma" unicode="," horiz-adv-x="591" 
d="M203 -266l41 -41l14 16q79 70 124.5 174t45.5 209q0 164 -129 164q-68 0 -100.5 -43.5t-32.5 -106.5q0 -53 23.5 -83t72.5 -48l39 -14q-4 -15 -10 -31.5t-13.5 -37.5t-11.5 -33q-26 -72 -55 -113z" />
    <glyph glyph-name="hyphen" unicode="-" horiz-adv-x="1234" 
d="M190 762v-166h854v166h-854z" />
    <glyph glyph-name="period" unicode="." horiz-adv-x="591" 
d="M166 113q0 -58 32 -101t97 -43q66 0 99.5 42t33.5 102q0 61 -34 102t-99 41q-64 0 -96.5 -42t-32.5 -101z" />
    <glyph glyph-name="slash" unicode="/" horiz-adv-x="1110" 
d="M100 -113l140 -75l770 1661l-140 73z" />
    <glyph glyph-name="zero" unicode="0" horiz-adv-x="1507" 
d="M166 676q0 -113 17 -211.5t59 -191.5t106.5 -159t167 -105.5t234.5 -39.5q96 0 177 21t141.5 57.5t107.5 89t78 113.5t51.5 134t29 146.5t8.5 153.5q0 114 -17 212t-59 190t-107.5 157t-168.5 104t-235 39q-133 0 -236.5 -40t-169 -106t-108 -159t-59.5 -192t-17 -213z
M358 680q0 67 8.5 128.5t26.5 122t49.5 110t74 87.5t103 59t134.5 21q88 0 157.5 -30.5t113.5 -81t72.5 -120.5t40 -142.5t11.5 -153.5t-11.5 -153.5t-40 -142t-72.5 -119.5t-113.5 -80.5t-157.5 -30.5t-157.5 30.5t-113.5 80t-72.5 119t-40.5 142.5t-12 154z" />
    <glyph glyph-name="one" unicode="1" horiz-adv-x="559" 
d="M190 1360v-1360h181v1360h-181z" />
    <glyph glyph-name="two" unicode="2" horiz-adv-x="1372" 
d="M334 166q0 74 54.5 146t125.5 122q50 36 193 105q175 80 213 102q74 42 125 87.5t86.5 118t35.5 161.5q0 97 -42.5 172t-115 118.5t-158.5 65.5t-181 22q-126 0 -225 -37.5t-169 -120t-94 -204.5l-4 -20h199l4 14q22 93 107.5 141.5t197.5 48.5q118 0 202.5 -53
t84.5 -151q0 -38 -12 -71.5t-28 -56t-45.5 -45.5t-52 -36t-59.5 -33q-93 -40 -110 -49q-73 -32 -139.5 -69t-137 -90.5t-121.5 -111t-83.5 -132.5t-32.5 -154v-156h1044v166h-862z" />
    <glyph glyph-name="three" unicode="3" horiz-adv-x="1370" 
d="M168 305q11 -75 46 -134t84.5 -96t115 -61.5t131.5 -34.5t139 -10q84 0 157.5 12.5t141.5 42t116.5 74.5t77.5 114t29 157q0 52 -11 94t-27.5 71.5t-48 57.5t-61 47t-77.5 45q33 20 61 45q66 46 94.5 108t28.5 150q0 106 -37.5 184.5t-105.5 124.5t-154.5 68t-193.5 22
q-73 0 -138 -10t-127 -34t-108.5 -60.5t-79.5 -94.5t-43 -132l-2 -23h201l4 17q23 82 103.5 120.5t187.5 38.5q134 0 216.5 -58t82.5 -175q0 -56 -20.5 -96t-51.5 -62.5t-81.5 -35t-95.5 -16t-108 -3.5h-86v-166h95q42 0 71.5 -1t73 -5.5t74.5 -13t65.5 -24.5t55.5 -38
t35 -56t14 -77q0 -61 -27 -106.5t-74.5 -71t-104 -37.5t-122.5 -12q-53 0 -101.5 8t-93.5 25.5t-77 50t-45 75.5l-5 15h-196z" />
    <glyph glyph-name="four" unicode="4" horiz-adv-x="1384" 
d="M831 0h181v289h245v168h-245v903h-178l-758 -901v-170h755v-289zM276 457l555 663v-663h-555z" />
    <glyph glyph-name="five" unicode="5" horiz-adv-x="1370" 
d="M168 305q11 -75 46 -134t84 -96t114 -61.5t131 -34.5t139 -10q89 0 165.5 14.5t143.5 46.5t114 80.5t74 120.5t27 162q0 77 -19 139t-50.5 104.5t-79.5 74.5t-98.5 51t-116 30t-124 15t-128.5 4q-36 0 -108.5 -2t-108.5 -2v383h741v170h-924v-721h496q144 0 235 -59
t91 -183q0 -125 -93 -184t-239 -59q-52 0 -100 8.5t-92 26t-76 49.5t-45 75l-5 15h-196z" />
    <glyph glyph-name="six" unicode="6" horiz-adv-x="1378" 
d="M127 670q0 -113 17.5 -211.5t60 -190.5t108.5 -156.5t169 -103.5t235 -39q85 0 163 15.5t146.5 50t118.5 84t79 122t29 160.5q0 102 -40.5 183t-110 132t-159.5 78t-193 27q-99 0 -224.5 -32t-206.5 -87q5 51 9 83t12 79.5t17 78.5t24 70.5t33.5 65t45.5 52.5t59.5 42
t76 25t94.5 10q68 0 128 -15t110 -52.5t69 -93.5l4 -15h195l-4 23q-13 85 -60 150.5t-116.5 104t-149.5 57.5t-166 19q-93 0 -172 -22t-137 -60t-103.5 -92.5t-75.5 -116t-49.5 -134t-27.5 -144t-8 -147.5zM332 514q81 62 182 100.5t197 38.5q93 0 168.5 -23.5t126.5 -80.5
t51 -141q0 -85 -51 -144t-128 -84.5t-171 -25.5q-88 0 -154 25.5t-109 75.5t-69 112t-43 147z" />
    <glyph glyph-name="seven" unicode="7" horiz-adv-x="1282" 
d="M934 1190l-524 -1190h194l522 1180q2 6 2 14v166h-989v-170h795z" />
    <glyph glyph-name="eight" unicode="8" horiz-adv-x="1372" 
d="M684 -31q-79 0 -150 11t-139.5 39t-118.5 70t-80 108.5t-30 150.5q3 229 194 340q-156 118 -153 322q0 81 25.5 146t69.5 107.5t106 70.5t130.5 40t147.5 12q100 0 183.5 -20.5t152.5 -64t107.5 -120t39.5 -180.5q0 -196 -155 -313q191 -111 194 -340q0 -85 -30.5 -151.5
t-81 -108.5t-120 -69.5t-141 -38.5t-151.5 -11zM358 375q0 -59 27.5 -103.5t75.5 -69t104 -36.5t121 -12t121 12t104 36.5t75.5 69t27.5 103.5q0 77 -48.5 128.5t-119 72t-158.5 20.5q-51 0 -97 -7t-89 -23.5t-74.5 -41.5t-50.5 -63t-19 -86zM401 983q0 -110 79.5 -165.5
t205.5 -55.5q128 0 207.5 55.5t79.5 165.5q0 112 -79 168.5t-208 56.5q-127 0 -206 -56.5t-79 -168.5z" />
    <glyph glyph-name="nine" unicode="9" horiz-adv-x="1378" 
d="M135 305q18 -86 75.5 -153t137 -105.5t165.5 -58t171 -19.5q128 0 228.5 43t163 113t104 166t57.5 194t16 205q0 114 -17.5 212t-60 189t-108 155t-168.5 102t-235 38q-86 0 -163.5 -15t-146 -48.5t-119 -82.5t-79.5 -120.5t-29 -158.5q0 -104 41 -186t111.5 -132.5
t161.5 -77t196 -26.5q123 0 223.5 26.5t198.5 87.5q-6 -113 -31 -211q-34 -149 -110 -218.5t-230 -69.5q-111 0 -215.5 41t-138.5 120l-4 13h-199zM324 950q0 85 51 145t128 86.5t171 26.5q88 0 153.5 -26t109 -76t70 -112t42.5 -146q-96 -71 -187 -107t-198 -36
q-67 0 -126.5 14.5t-108 43t-77 77t-28.5 110.5z" />
    <glyph glyph-name="colon" unicode=":" horiz-adv-x="591" 
d="M166 969q0 -58 32 -98t97 -40t99 39t34 99q0 61 -33.5 102t-99.5 41t-97.5 -41.5t-31.5 -101.5zM166 113q0 -58 32 -101t97 -43q66 0 99.5 42t33.5 102q0 61 -34 102t-99 41q-64 0 -96.5 -42t-32.5 -101z" />
    <glyph glyph-name="semicolon" unicode=";" horiz-adv-x="591" 
d="M166 969q0 -58 32 -98t97 -40t99 39t34 99q0 61 -33.5 102t-99.5 41t-97.5 -41.5t-31.5 -101.5zM166 106q0 -53 23.5 -83t72.5 -48l39 -14q-4 -15 -10 -31.5t-13.5 -37.5t-11.5 -33q-26 -72 -55 -113l-8 -12l41 -41l14 16q79 70 124.5 174t45.5 209q0 164 -129 164
q-68 0 -100.5 -43.5t-32.5 -106.5z" />
    <glyph glyph-name="less" unicode="&#x3c;" horiz-adv-x="835" 
d="M29 651l743 -362v168l-418 194l418 197v164z" />
    <glyph glyph-name="equal" unicode="=" horiz-adv-x="1368" 
d="M190 1055v-168h990v168h-990zM190 307h990v166h-990v-166z" />
    <glyph glyph-name="greater" unicode="&#x3e;" horiz-adv-x="862" 
d="M59 289l742 362l-742 361v-164l416 -197l-416 -194v-168z" />
    <glyph glyph-name="question" unicode="?" horiz-adv-x="1456" 
d="M635 758q0 -130 39 -236l4 -12h102l29 98q60 4 107.5 9.5t104 17t98.5 28.5t84 44.5t68.5 63.5t43 87.5t16.5 114.5q0 91 -33.5 163t-88.5 118t-130.5 76.5t-153.5 43t-163 12.5q-75 0 -149.5 -9.5t-156.5 -34t-146.5 -61.5t-113 -99t-63.5 -140l-6 -24h182l6 12
q17 52 64 91t111 60t127.5 30.5t127.5 9.5q69 0 136 -12t130 -37t101.5 -72.5t38.5 -110.5q0 -49 -23.5 -87t-58.5 -59.5t-84 -35.5t-90.5 -19t-87.5 -6q-55 -4 -152 -4h-20v-20zM598 113q0 -59 33 -101.5t98 -42.5q67 0 98 42t31 102t-31.5 101.5t-97.5 41.5q-65 0 -98 -42
t-33 -101z" />
    <glyph glyph-name="at" unicode="@" horiz-adv-x="2105" 
d="M127 692q0 -216 70 -401.5t198 -321t319.5 -212t424.5 -76.5q139 0 275.5 28.5t236.5 89.5l16 8l-74 132l-18 -9q-85 -41 -196 -61.5t-218 -20.5q-193 0 -352 63.5t-264.5 176t-163 267t-57.5 335.5q0 130 29 249.5t89 223.5t145 181t205.5 121t262.5 44q153 0 285.5 -49
t227 -136t148 -210.5t53.5 -267.5q0 -174 -72.5 -281.5t-234.5 -158.5v641h-184l-4 -48q-37 40 -101 58t-126 18q-179 0 -292.5 -116.5t-113.5 -284.5t114 -285t292 -117q114 0 221 60q22 -38 54 -55t83 -17q140 0 249.5 48t177 131.5t102 191.5t34.5 233q0 184 -70 337.5
t-192 256.5t-288.5 160t-358.5 57q-180 0 -332 -51t-261.5 -141t-186.5 -213.5t-114.5 -269.5t-37.5 -308zM842 676q0 92 64 163.5t157 71.5t157 -71.5t64 -163.5q0 -93 -65 -166.5t-158 -73.5q-94 0 -156.5 72t-62.5 168z" />
    <glyph glyph-name="A" unicode="A" 
d="M76 0h192l154 362h684l158 -362h194l-604 1368h-192zM483 528l277 656l291 -656h-568z" />
    <glyph glyph-name="B" unicode="B" horiz-adv-x="1587" 
d="M1090 0q171 0 265.5 108t94.5 271q0 93 -53 185t-142 128q140 87 140 289q0 161 -94 270t-263 109h-848v-1360h900zM371 166v430h719q87 0 133.5 -63t46.5 -156q0 -95 -45 -153t-135 -58h-719zM371 762v428h667q86 0 131 -62.5t45 -154.5q0 -94 -43.5 -152.5
t-132.5 -58.5h-667z" />
    <glyph glyph-name="C" unicode="C" horiz-adv-x="1550" 
d="M127 680q0 -109 27.5 -212.5t83 -193.5t132.5 -158t184 -107.5t230 -39.5q240 0 407.5 142.5t225.5 367.5l6 23h-200l-4 -15q-46 -147 -163 -240t-274 -93q-107 0 -196 45.5t-145 120.5t-86.5 168.5t-30.5 193.5q0 99 30.5 192t86.5 168t145 120.5t196 45.5
q157 0 274.5 -94t162.5 -244l4 -14h200l-6 27q-57 223 -225.5 363t-407.5 140q-123 0 -230 -39t-184 -106t-132.5 -156.5t-83 -192.5t-27.5 -212z" />
    <glyph glyph-name="D" unicode="D" horiz-adv-x="1603" 
d="M190 1360v-1360h631q149 0 274 56t207.5 150t128.5 217.5t46 258.5t-46 257.5t-128.5 216t-207.5 149t-274 55.5h-631zM371 166v1024h450q86 0 160.5 -28t129 -76.5t93.5 -113t58.5 -139t19.5 -153.5q0 -100 -31.5 -192t-88.5 -164t-146 -115t-195 -43h-450z" />
    <glyph glyph-name="E" unicode="E" horiz-adv-x="1572" 
d="M190 1360v-1360h1231v166h-1050v430h782v166h-782v428h1050v170h-1231z" />
    <glyph glyph-name="F" unicode="F" horiz-adv-x="1521" 
d="M190 1360v-1360h181v596h753v166h-753v428h1024v170h-1205z" />
    <glyph glyph-name="G" unicode="G" horiz-adv-x="1568" 
d="M127 680q0 -109 27.5 -212.5t83 -194t133 -158.5t184.5 -107t231 -39q123 0 230 39.5t184 107.5t132.5 158t82.5 193.5t27 212.5q0 8 -1 25t-1 26l-2 19h-609v-168h420q-28 -180 -153.5 -304t-311.5 -124q-87 0 -162.5 29.5t-129 80.5t-92 118t-57.5 143.5t-19 156.5
q0 99 30 192t86 168t144.5 120.5t195.5 45.5q106 0 202 -48t161 -132l6 -8l221 2l-14 29q-87 157 -239 246t-337 89q-152 0 -278.5 -60.5t-206.5 -160.5t-124 -225.5t-44 -259.5z" />
    <glyph glyph-name="H" unicode="H" horiz-adv-x="1638" 
d="M190 1360v-1360h181v596h899v-596h180v1360h-180v-598h-899v598h-181z" />
    <glyph glyph-name="I" unicode="I" horiz-adv-x="559" 
d="M190 1360v-1360h181v1360h-181z" />
    <glyph glyph-name="J" unicode="J" horiz-adv-x="1316" 
d="M141 434q13 -125 74.5 -229.5t171.5 -170t248 -65.5q115 0 210 46t155 122t93 171t33 196v856h-178v-856q0 -91 -36.5 -169.5t-109.5 -129.5t-169 -51q-124 0 -206 81t-103 205l-2 17h-183z" />
    <glyph glyph-name="K" unicode="K" horiz-adv-x="1517" 
d="M190 1360v-1360h181v354l338 328l505 -682h218l-596 803l573 557h-252l-786 -766v766h-181z" />
    <glyph glyph-name="L" unicode="L" horiz-adv-x="1282" 
d="M190 1360v-1360h990v166h-809v1194h-181z" />
    <glyph glyph-name="M" unicode="M" horiz-adv-x="1638" 
d="M190 1360v-1360h181v1079l381 -518h133l385 520v-1081h180v1360h-178l-449 -612l-458 612h-175z" />
    <glyph glyph-name="N" unicode="N" horiz-adv-x="1638" 
d="M190 1360v-1360h181v1079l899 -1079h180v1360h-180v-1081l-901 1081h-179z" />
    <glyph glyph-name="O" unicode="O" horiz-adv-x="1568" 
d="M127 680q0 -109 27.5 -212.5t83 -193.5t132.5 -158t184 -107.5t230 -39.5q153 0 280 60t208 160t125.5 227t44.5 264q0 109 -27.5 212.5t-83 192.5t-133 156.5t-184.5 106t-230 38.5t-230 -39t-184 -106t-132.5 -156.5t-83 -192.5t-27.5 -212zM324 682q0 79 19 155
t57.5 143.5t92 118t129 80t162.5 29.5q108 0 197.5 -45t147 -120t89 -169t31.5 -194t-31.5 -193.5t-89 -168t-147 -119.5t-197.5 -45q-87 0 -162.5 29.5t-129 80.5t-92 118t-57.5 143.5t-19 156.5z" />
    <glyph glyph-name="P" unicode="P" horiz-adv-x="1589" 
d="M190 0h181v596h745q173 0 267 108t94 271q0 77 -23 146t-66.5 122.5t-113.5 85t-158 31.5h-926v-1360zM371 762v428h745q87 0 132.5 -62.5t45.5 -154.5q0 -94 -44.5 -152.5t-133.5 -58.5h-745z" />
    <glyph glyph-name="Q" unicode="Q" horiz-adv-x="1560" 
d="M958 629l-133 -121l236 -258q-114 -93 -273 -96q-109 1 -199 45.5t-146.5 119t-87.5 168t-31 195.5q0 79 19 155t57.5 143.5t92 118t129 80t162.5 29.5q108 0 197.5 -45t147 -120t89 -169t31.5 -194q0 -160 -73 -291zM127 680q0 -138 44.5 -265t126 -226.5t208.5 -159
t280 -60.5q234 0 404 137l119 -131l139 117l-137 150q131 187 131 434q-1 136 -45 262t-125 226.5t-207.5 161t-280.5 60.5q-123 0 -230 -39t-184 -106t-132.5 -156.5t-83 -192.5t-27.5 -212z" />
    <glyph glyph-name="R" unicode="R" horiz-adv-x="1613" 
d="M190 0h181v596h530l338 -596h203l-342 596q10 0 30.5 1t30.5 1q80 4 142 38t99 88t56 117.5t19 133.5q0 77 -23 146t-66.5 122.5t-113.5 85t-158 31.5h-926v-1360zM371 762v428h745q87 0 132.5 -62.5t45.5 -154.5q0 -94 -44.5 -152.5t-133.5 -58.5h-745z" />
    <glyph glyph-name="S" unicode="S" horiz-adv-x="1456" 
d="M133 319q18 -97 85.5 -168.5t162 -109t189.5 -55t190 -17.5q89 0 169 13.5t154.5 45.5t128.5 80t86.5 122t32.5 167q0 72 -20 130t-53 97t-83 68t-100.5 45t-116 25.5t-119.5 12.5t-120 3q-56 0 -105.5 5t-102.5 19t-90.5 36.5t-62 61t-24.5 89.5q0 62 34.5 109t91 72.5
t120 38t131.5 12.5q61 0 122 -10t120 -30.5t102.5 -59t58.5 -89.5l6 -14h183l-7 24q-13 77 -58 138.5t-106.5 99t-139 62.5t-151 34.5t-147.5 9.5q-85 0 -161 -13t-146.5 -43.5t-121 -76.5t-81 -116.5t-30.5 -159.5q0 -69 18.5 -124.5t49 -93.5t77 -66t94 -43.5t109.5 -24.5
t113.5 -12t115.5 -3q75 0 140.5 -9t133 -31.5t107 -69t39.5 -113.5q0 -54 -26 -97.5t-67 -71t-96.5 -46t-110.5 -26t-112 -7.5q-63 0 -126 9.5t-125.5 30t-109 59t-63.5 90.5l-6 14h-182z" />
    <glyph glyph-name="T" unicode="T" horiz-adv-x="1462" 
d="M639 1190v-1190h180v1190h543v170h-1262v-170h539z" />
    <glyph glyph-name="U" unicode="U" horiz-adv-x="1583" 
d="M190 649q0 -100 24 -197.5t74.5 -184.5t120.5 -153.5t169.5 -105.5t214.5 -39q116 0 215.5 39t169.5 105.5t119.5 154t73.5 184.5t24 197v711h-181v-711q0 -92 -27.5 -179.5t-79 -158.5t-133 -114t-181.5 -43t-182 43t-133 114t-79 158.5t-28 179.5v711h-181v-711z" />
    <glyph glyph-name="V" unicode="V" 
d="M76 1368l586 -1368h192l604 1368h-194l-504 -1145l-492 1145h-192z" />
    <glyph glyph-name="W" unicode="W" horiz-adv-x="1691" 
d="M100 1360l154 -1360h215l377 881l383 -881h213l149 1360h-172l-121 -1073l-344 780h-213l-335 -780l-132 1073h-174z" />
    <glyph glyph-name="X" unicode="X" horiz-adv-x="1425" 
d="M596 707l-545 -707h215l432 571l439 -571h237l-553 709l512 651h-221l-397 -514l-396 514h-225z" />
    <glyph glyph-name="Y" unicode="Y" horiz-adv-x="1341" 
d="M582 0h180l-2 475l530 885h-209l-407 -690l-418 690h-205l531 -885v-475z" />
    <glyph glyph-name="Z" unicode="Z" 
d="M152 164v-164h1230v166h-991l967 1026v168h-1182v-170h938z" />
    <glyph glyph-name="bracketleft" unicode="[" horiz-adv-x="690" 
d="M190 1649v-1938h383v166h-202v1604h202v168h-383z" />
    <glyph glyph-name="backslash" unicode="\" horiz-adv-x="1110" 
d="M100 1473l770 -1661l140 75l-770 1659z" />
    <glyph glyph-name="bracketright" unicode="]" horiz-adv-x="690" 
d="M115 -123l2 -166h381v1938h-383v-168h202l-2 -1604h-200z" />
    <glyph glyph-name="asciicircum" unicode="^" horiz-adv-x="624" 
d="M541 1032l-131 289h-158l-135 -289h133l80 139l80 -139h131z" />
    <glyph glyph-name="underscore" unicode="_" horiz-adv-x="1234" 
d="M190 -111v-165h854v165h-854z" />
    <glyph glyph-name="grave" unicode="`" horiz-adv-x="634" 
d="M72 1470l200 -288h131l-133 288h-198z" />
    <glyph glyph-name="a" unicode="a" 
d="M76 0h192l154 362h684l158 -362h194l-604 1368h-192zM481 528l277 660l293 -660h-570z" />
    <glyph glyph-name="b" unicode="b" horiz-adv-x="1587" 
d="M1090 0q171 0 265.5 108t94.5 271q0 93 -53 185t-142 128q140 87 140 289q0 161 -94 270t-263 109h-848v-1360h900zM371 166v430h719q87 0 133.5 -63t46.5 -156q0 -95 -45 -153t-135 -58h-719zM371 762v428h667q86 0 131 -62.5t45 -154.5q0 -94 -43.5 -152.5
t-132.5 -58.5h-667z" />
    <glyph glyph-name="c" unicode="c" horiz-adv-x="1550" 
d="M127 680q0 -109 27.5 -212.5t83 -193.5t132.5 -158t184 -107.5t230 -39.5q240 0 407.5 142.5t225.5 367.5l6 23h-200l-4 -15q-46 -147 -163 -240t-274 -93q-107 0 -196 45.5t-145 120.5t-86.5 168.5t-30.5 193.5q0 99 30.5 192t86.5 168t145 120.5t196 45.5
q157 0 274.5 -94t162.5 -244l4 -14h200l-6 27q-57 223 -225.5 363t-407.5 140q-123 0 -230 -39t-184 -106t-132.5 -156.5t-83 -192.5t-27.5 -212z" />
    <glyph glyph-name="d" unicode="d" horiz-adv-x="1603" 
d="M190 1360v-1360h631q149 0 274 56t207.5 150t128.5 217.5t46 258.5t-46 257.5t-128.5 216t-207.5 149t-274 55.5h-631zM371 166v1024h450q86 0 160.5 -28t129 -76.5t93.5 -113t58.5 -139t19.5 -153.5q0 -100 -31.5 -192t-88.5 -164t-146 -115t-195 -43h-450z" />
    <glyph glyph-name="e" unicode="e" horiz-adv-x="1572" 
d="M190 1360v-1360h1231v166h-1050v430h782v166h-782v428h1050v170h-1231z" />
    <glyph glyph-name="f" unicode="f" horiz-adv-x="1521" 
d="M190 1360v-1360h181v596h753v166h-753v428h1024v170h-1205z" />
    <glyph glyph-name="g" unicode="g" horiz-adv-x="1568" 
d="M127 680q0 -109 27.5 -212.5t83 -194t133 -158.5t184.5 -107t231 -39q123 0 230 39.5t184 107.5t132.5 158t82.5 193.5t27 212.5q0 8 -1 25t-1 26l-2 19h-609v-168h420q-28 -180 -153.5 -304t-311.5 -124q-87 0 -162.5 29.5t-129 80.5t-92 118t-57.5 143.5t-19 156.5
q0 99 30 192t86 168t144.5 120.5t195.5 45.5q106 0 202 -48t161 -132l6 -8l221 2l-14 29q-87 157 -239 246t-337 89q-152 0 -278.5 -60.5t-206.5 -160.5t-124 -225.5t-44 -259.5z" />
    <glyph glyph-name="h" unicode="h" horiz-adv-x="1638" 
d="M190 1360v-1360h181v596h899v-596h180v1360h-180v-598h-899v598h-181z" />
    <glyph glyph-name="i" unicode="i" horiz-adv-x="559" 
d="M190 1360v-1360h181v1360h-181z" />
    <glyph glyph-name="j" unicode="j" horiz-adv-x="1343" 
d="M168 434q10 -93 48.5 -176.5t100 -148t151 -102.5t194.5 -38q114 0 209 45.5t156 121.5t94.5 171t33.5 197v856h-182v-856q0 -90 -36 -168.5t-108.5 -130t-166.5 -51.5q-124 0 -208 82t-104 204l-2 17h-182z" />
    <glyph glyph-name="k" unicode="k" horiz-adv-x="1517" 
d="M190 1360v-1360h181v354l338 328l505 -682h218l-596 803l573 557h-252l-786 -766v766h-181z" />
    <glyph glyph-name="l" unicode="l" horiz-adv-x="1282" 
d="M190 1360v-1360h990v166h-809v1194h-181z" />
    <glyph glyph-name="m" unicode="m" horiz-adv-x="1638" 
d="M190 1360v-1360h181v1079l381 -518h133l385 520v-1081h180v1360h-178l-449 -612l-458 612h-175z" />
    <glyph glyph-name="n" unicode="n" horiz-adv-x="1638" 
d="M190 1360v-1360h181v1079l899 -1079h180v1360h-180v-1081l-901 1081h-179z" />
    <glyph glyph-name="o" unicode="o" horiz-adv-x="1568" 
d="M127 680q0 -109 27.5 -212.5t83 -193.5t132.5 -158t184 -107.5t230 -39.5q153 0 280 60t208 160t125.5 227t44.5 264q0 109 -27.5 212.5t-83 192.5t-133 156.5t-184.5 106t-230 38.5t-230 -39t-184 -106t-132.5 -156.5t-83 -192.5t-27.5 -212zM324 682q0 79 19 155
t57.5 143.5t92 118t129 80t162.5 29.5q108 0 197.5 -45t147 -120t89 -169t31.5 -194t-31.5 -193.5t-89 -168t-147 -119.5t-197.5 -45q-87 0 -162.5 29.5t-129 80.5t-92 118t-57.5 143.5t-19 156.5z" />
    <glyph glyph-name="p" unicode="p" horiz-adv-x="1603" 
d="M190 0h181v596h745q173 0 267 108t94 271q0 77 -23 146t-66.5 122.5t-113.5 85t-158 31.5h-926v-1360zM371 762v428h745q87 0 132.5 -62.5t45.5 -154.5q0 -94 -44.5 -152.5t-133.5 -58.5h-745z" />
    <glyph glyph-name="q" unicode="q" horiz-adv-x="1560" 
d="M958 629l-133 -121l236 -258q-114 -93 -273 -96q-109 1 -199 45.5t-146.5 119t-87.5 168t-31 195.5q0 79 19 155t57.5 143.5t92 118t129 80t162.5 29.5q108 0 197.5 -45t147 -120t89 -169t31.5 -194q0 -160 -73 -291zM127 680q0 -138 44.5 -265t126 -226.5t208.5 -159
t280 -60.5q234 0 404 137l119 -131l139 117l-137 150q131 187 131 434q-1 136 -45 262t-125 226.5t-207.5 161t-280.5 60.5q-123 0 -230 -39t-184 -106t-132.5 -156.5t-83 -192.5t-27.5 -212z" />
    <glyph glyph-name="r" unicode="r" horiz-adv-x="1613" 
d="M190 0h181v596h530l338 -596h203l-342 596q10 0 30.5 1t30.5 1q80 4 142 38t99 88t56 117.5t19 133.5q0 77 -23 146t-66.5 122.5t-113.5 85t-158 31.5h-926v-1360zM371 762v428h745q87 0 132.5 -62.5t45.5 -154.5q0 -94 -44.5 -152.5t-133.5 -58.5h-745z" />
    <glyph glyph-name="s" unicode="s" horiz-adv-x="1456" 
d="M133 319q18 -97 85.5 -168.5t162 -109t189.5 -55t190 -17.5q89 0 169 13.5t154.5 45.5t128.5 80t86.5 122t32.5 167q0 72 -20 130t-53 97t-83 68t-100.5 45t-116 25.5t-119.5 12.5t-120 3q-56 0 -105.5 5t-102.5 19t-90.5 36.5t-62 61t-24.5 89.5q0 62 34.5 109t91 72.5
t120 38t131.5 12.5q61 0 122 -10t120 -30.5t102.5 -59t58.5 -89.5l6 -14h183l-7 24q-13 77 -58 138.5t-106.5 99t-139 62.5t-151 34.5t-147.5 9.5q-85 0 -161 -13t-146.5 -43.5t-121 -76.5t-81 -116.5t-30.5 -159.5q0 -69 18.5 -124.5t49 -93.5t77 -66t94 -43.5t109.5 -24.5
t113.5 -12t115.5 -3q75 0 140.5 -9t133 -31.5t107 -69t39.5 -113.5q0 -54 -26 -97.5t-67 -71t-96.5 -46t-110.5 -26t-112 -7.5q-63 0 -126 9.5t-125.5 30t-109 59t-63.5 90.5l-6 14h-182z" />
    <glyph glyph-name="t" unicode="t" horiz-adv-x="1462" 
d="M639 1190v-1190h180v1190h543v170h-1262v-170h539z" />
    <glyph glyph-name="u" unicode="u" horiz-adv-x="1583" 
d="M190 649q0 -100 24 -197.5t74.5 -184.5t120.5 -153.5t169.5 -105.5t214.5 -39q116 0 215.5 39t169.5 105.5t119.5 154t73.5 184.5t24 197v711h-181v-711q0 -92 -27.5 -179.5t-79 -158.5t-133 -114t-181.5 -43t-182 43t-133 114t-79 158.5t-28 179.5v711h-181v-711z" />
    <glyph glyph-name="v" unicode="v" 
d="M76 1368l586 -1368h192l604 1368h-194l-504 -1145l-492 1145h-192z" />
    <glyph glyph-name="w" unicode="w" horiz-adv-x="1691" 
d="M100 1360l154 -1360h215l377 881l383 -881h213l149 1360h-172l-121 -1073l-344 780h-213l-335 -780l-132 1073h-174z" />
    <glyph glyph-name="x" unicode="x" horiz-adv-x="1499" 
d="M639 707l-563 -707h223l446 571l457 -571h221l-563 705l524 655h-223l-407 -522l-416 522h-219z" />
    <glyph glyph-name="y" unicode="y" horiz-adv-x="1390" 
d="M582 0h180l-2 475l530 885h-209l-407 -690l-418 690h-205l531 -885v-475z" />
    <glyph glyph-name="z" unicode="z" 
d="M152 164v-164h1230v166h-991l967 1026v168h-1182v-170h938z" />
    <glyph glyph-name="braceleft" unicode="{" horiz-adv-x="761" 
d="M266 100q0 -78 22.5 -147.5t66 -124t113.5 -86t159 -31.5h20v166h-20q-81 0 -132 51.5t-51 128.5v287q0 204 -133 297l-55 39l55 41q133 98 133 293v286q0 78 51 129.5t132 51.5h20v168h-20q-89 0 -159 -31.5t-113.5 -85.5t-66 -123t-22.5 -147v-306q0 -81 -49 -137.5
t-131 -56.5h-23l3 -166h22q81 0 129.5 -55.5t48.5 -134.5v-306z" />
    <glyph glyph-name="bar" unicode="|" horiz-adv-x="559" 
d="M190 1651v-1940h181v1940h-181z" />
    <glyph glyph-name="braceright" unicode="}" horiz-adv-x="759" 
d="M115 -123v-166h22q89 0 159 31.5t113.5 85.5t66 123.5t22.5 148.5v306q0 79 49.5 134.5t130.5 55.5h20l-2 166h-20q-81 0 -129.5 56.5t-48.5 137.5v306q0 106 -38.5 192t-122 140.5t-200.5 54.5h-22v-168h22q81 0 129.5 -51.5t48.5 -129.5v-286q0 -116 48 -191.5
t149 -142.5l-57 -39q-69 -48 -104.5 -129.5t-35.5 -167.5v-287q0 -79 -48 -129.5t-130 -50.5h-22z" />
    <glyph glyph-name="asciitilde" unicode="~" horiz-adv-x="565" 
d="M434 1389q-47 -57 -76 -70h-4q-19 11 -37 29l-36 32q-49 39 -91 39q-51 0 -118 -67l-29 -31v-137q38 33 68 63q7 6 19 17.5t19 18.5t18 16t21 16l5 2q15 -3 30 -21q25 -20 37 -32q45 -45 96 -45q36 0 61 15.5t54 47.5q21 21 35 33v147q-25 -22 -72 -73z" />
    <glyph glyph-name="exclamdown" unicode="&#xa1;" horiz-adv-x="591" 
d="M166 1217q0 -59 32.5 -101.5t96.5 -42.5q65 0 99 41t34 103q0 60 -33.5 101.5t-99.5 41.5q-65 0 -97 -42.5t-32 -100.5zM207 -31h178v246q0 363 -41 737l-2 19h-90l-2 -19q-43 -341 -43 -737v-246z" />
    <glyph glyph-name="cent" unicode="&#xa2;" horiz-adv-x="1138" 
d="M475 -272h127v419q336 46 428 361l8 24h-137l-4 -14q-34 -107 -105 -165t-190 -85v828q119 -31 190 -88.5t105 -163.5l6 -13h135l-8 25q-90 305 -428 358v404h-127v-412q-197 -37 -304.5 -183.5t-107.5 -342.5q0 -198 107 -343.5t305 -182.5v-426zM190 680q0 137 66 246
t193 153q17 3 26 8v-817q-14 3 -22 9q-129 42 -196 152t-67 249z" />
    <glyph glyph-name="sterling" unicode="&#xa3;" horiz-adv-x="1167" 
d="M723 -14q83 -17 121 -17q99 0 205 47l18 7l-76 176l-20 -9q-95 -36 -164 -36q-48 0 -150 28q-63 19 -79 21q-70 16 -228 16h-24q89 107 115 182t26 226v43h266v147h-301q-65 181 -65 291q0 111 62.5 188.5t172.5 77.5q168 0 225 -196l4 -17l185 31l-4 20
q-32 144 -144 238t-266 94q-102 0 -183 -35.5t-132 -97t-78 -140.5t-27 -169q0 -111 60 -285h-179v-147h201q17 -66 17 -117q0 -103 -53 -200.5t-142 -174.5l-12 -10l76 -178l20 12q99 61 213 61q90 0 223 -45q39 -12 117 -32z" />
    <glyph glyph-name="yen" unicode="&#xa5;" horiz-adv-x="1107" 
d="M442 299v-281h181v281h362v137h-362v215h362v137h-280l301 652h-197l-279 -613l-272 613h-195l299 -652h-276v-137h356v-215h-356v-137h356z" />
    <glyph glyph-name="section" unicode="&#xa7;" horiz-adv-x="1107" 
d="M70 260q10 -69 45 -122t83 -84t113 -50.5t125 -26t127 -6.5q64 0 124.5 8t124 29.5t110 54.5t76.5 88t30 125q0 139 -115 205l-6 4l6 4q109 82 109 213q0 61 -21.5 107t-55 74t-85 47.5t-101 28.5t-114.5 14q-26 3 -122.5 11t-139.5 15q-58 12 -89.5 34t-31.5 63
q0 42 30.5 72t77.5 43.5t87.5 19.5t77.5 6q29 0 70.5 -4.5t92.5 -14.5t86 -31t35 -50q0 -6 -1 -17.5t-1 -17.5h182q0 67 -29 119t-74 83t-107 51t-120 27t-120 7q-61 0 -120 -8t-121.5 -28.5t-109 -52.5t-76.5 -84.5t-30 -119.5q0 -144 123 -207l6 -4l-6 -4
q-117 -80 -117 -211q0 -61 21.5 -107t54.5 -72.5t85.5 -44.5t100.5 -25.5t113 -12.5q20 -2 67.5 -5.5t71.5 -5.5q86 -8 123 -16q121 -24 121 -113q0 -44 -32.5 -75.5t-83 -45.5t-94 -20t-83.5 -6q-35 0 -81 6t-100 19t-90 41.5t-36 66.5v6h-186zM268 670q0 41 30.5 71t77 44
t88 20t77.5 6q34 0 77.5 -4.5t100 -15t94 -35.5t37.5 -60q0 -49 -46.5 -84.5t-100 -49t-99.5 -13.5q-54 0 -148 13t-130 30q-58 26 -58 78z" />
    <glyph glyph-name="dieresis" unicode="&#xa8;" horiz-adv-x="583" 
d="M156 1434q-46 0 -75.5 -29.5t-29.5 -75.5q0 -47 29.5 -74.5t75.5 -27.5q49 0 78.5 27t29.5 75q0 47 -30 76t-78 29zM340 1327q0 -47 29 -75.5t75 -28.5q50 0 80.5 28.5t30.5 75.5t-30.5 76t-80.5 29q-46 0 -75 -29.5t-29 -75.5z" />
    <glyph glyph-name="copyright" unicode="&#xa9;" horiz-adv-x="1742" 
d="M117 694q0 -140 55 -270t149 -227t229 -155t286 -58q202 0 368.5 99t258 261t91.5 350q0 139 -54.5 268.5t-148 226.5t-228.5 155.5t-287 58.5q-151 0 -286 -58.5t-229 -155.5t-149 -226.5t-55 -268.5zM344 694q0 96 37.5 185.5t102 156t156.5 106.5t196 40
q138 0 252 -67.5t177.5 -179.5t63.5 -241q0 -130 -63.5 -242t-177.5 -179.5t-252 -67.5t-252 67.5t-177 179.5t-63 242zM485 698q0 -150 97 -258t256 -108q141 0 235 86.5t113 218.5l2 20h-174l-4 -14q-14 -62 -61 -103.5t-111 -41.5q-79 0 -129 59.5t-50 140.5
q0 82 49.5 140.5t129.5 58.5q67 0 112.5 -39t59.5 -104l4 -15h174l-2 21q-19 131 -114 217t-234 86q-160 0 -256.5 -107t-96.5 -258z" />
    <glyph glyph-name="ordfeminine" unicode="&#xaa;" horiz-adv-x="704" 
d="M166 1329l63 150h242l64 -150h141l-283 619h-96l-266 -619h135zM276 1595l72 164l76 -164h-148z" />
    <glyph glyph-name="guillemotleft" unicode="&#xab;" horiz-adv-x="1017" 
d="M590 868v158l-535 -301l535 -301v156l-266 145z" />
    <glyph glyph-name="registered" unicode="&#xae;" horiz-adv-x="1581" 
d="M117 694q0 -140 55 -270t149 -227t229 -155t286 -58q202 0 368.5 99t258 261t91.5 350q0 139 -54.5 268.5t-148 226.5t-228.5 155.5t-287 58.5q-151 0 -286 -58.5t-229 -155.5t-149 -226.5t-55 -268.5zM344 694q0 96 37.5 185.5t102 156t156.5 106.5t196 40
q138 0 252 -67.5t177.5 -179.5t63.5 -241q0 -130 -63.5 -242t-177.5 -179.5t-252 -67.5t-252 67.5t-177 179.5t-63 242zM551 389h151v238h154l141 -238h172l-16 31q-104 174 -129 213q62 17 96.5 67t34.5 113q0 81 -49 137t-137 56h-418v-617zM702 768v92h267q35 0 35 -37
v-16q0 -39 -35 -39h-267z" />
    <glyph glyph-name="macron" unicode="&#xaf;" horiz-adv-x="645" 
d="M92 1128h395v101h-395v-101z" />
    <glyph glyph-name="degree" unicode="&#xb0;" horiz-adv-x="333" 
d="M31 1217q0 -61 38 -100.5t97 -39.5q61 0 98 40t37 102q0 59 -37 97t-98 38q-60 0 -97.5 -38.5t-37.5 -98.5zM127 1217q0 36 39 36q37 0 37 -36q0 -37 -37 -37q-39 0 -39 37z" />
    <glyph glyph-name="acute" unicode="&#xb4;" horiz-adv-x="466" 
d="M215 1182l203 288h-201l-131 -288h129z" />
    <glyph glyph-name="periodcentered" unicode="&#xb7;" horiz-adv-x="643" 
d="M322 842q74 0 115.5 46.5t41.5 121.5q0 73 -42.5 118.5t-114.5 45.5q-71 0 -113.5 -46t-42.5 -118q0 -74 42 -121t114 -47z" />
    <glyph glyph-name="cedilla" unicode="&#xb8;" horiz-adv-x="571" 
d="M276 -8q-11 -29 -32 -85t-27 -73q28 4 64 4q110 0 110 -59q0 -36 -27.5 -52t-62.5 -16q-47 0 -72.5 17.5t-35.5 62.5h-113q14 -99 68.5 -148t156.5 -49q88 0 144.5 51t56.5 138q0 137 -137 164h-4l8 45h-97z" />
    <glyph glyph-name="ordmasculine" unicode="&#xba;" horiz-adv-x="690" 
d="M51 1632q0 -134 81.5 -226.5t213.5 -92.5q129 0 211 92.5t82 226.5q0 132 -82 225t-211 93q-131 0 -213 -93t-82 -225zM186 1632q0 74 43.5 132.5t116.5 58.5q71 0 116.5 -59t45.5 -132q0 -75 -45 -132.5t-117 -57.5q-74 0 -117 57.5t-43 132.5z" />
    <glyph glyph-name="guillemotright" unicode="&#xbb;" horiz-adv-x="997" 
d="M406 1026v-158l266 -143l-266 -145v-156l534 301z" />
    <glyph glyph-name="questiondown" unicode="&#xbf;" horiz-adv-x="1456" 
d="M860 1243q0 60 -31.5 101.5t-97.5 41.5q-67 0 -99 -41.5t-32 -101.5t32.5 -100.5t98.5 -40.5q65 0 97 40.5t32 100.5zM127 383q0 -91 33.5 -163t88.5 -118t130.5 -77t153.5 -43.5t163 -12.5q75 0 150.5 9.5t157.5 34.5t146.5 62.5t113 99.5t63.5 140l4 23h-180l-6 -12
q-17 -52 -64.5 -91t-111.5 -59t-128 -29.5t-128 -9.5q-69 0 -135.5 12t-129 37t-101 72.5t-38.5 110.5q0 60 33.5 102.5t90 63.5t108.5 29.5t110 10.5q69 5 152 5h22v18q0 122 -39 238l-4 12h-102l-31 -100q-60 -3 -107 -8.5t-103.5 -17t-99 -28t-84 -44.5t-68.5 -64
t-43.5 -87.5t-16.5 -115.5z" />
    <glyph glyph-name="Agrave" unicode="&#xc0;" 
d="M602 1978l201 -286h131l-133 286h-199zM76 0h192l154 362h684l158 -362h194l-604 1368h-192zM483 528l277 656l291 -656h-568z" />
    <glyph glyph-name="Aacute" unicode="&#xc1;" 
d="M733 1692l203 286h-201l-133 -286h131zM76 0h192l154 362h684l158 -362h194l-604 1368h-192zM483 528l277 656l291 -656h-568z" />
    <glyph glyph-name="Acircumflex" unicode="&#xc2;" 
d="M981 1692l-133 284h-158l-135 -284h135l78 137l80 -137h133zM76 0h192l154 362h684l158 -362h194l-604 1368h-192zM483 528l277 656l291 -656h-568z" />
    <glyph glyph-name="Atilde" unicode="&#xc3;" 
d="M928 1898q-48 -58 -76 -71h-4q-18 12 -37 31l-35 30q-46 39 -92 39q-56 0 -117 -65l-30 -33v-135q14 10 67 63q9 8 24.5 22.5t28 25t25.5 18.5l4 2q13 -3 33 -19q19 -15 35 -34q54 -46 96 -46q36 0 62 16.5t53 49.5q16 16 34 31v149q-11 -10 -35.5 -36.5t-35.5 -37.5z
M76 0h192l154 362h684l158 -362h194l-604 1368h-192zM483 528l277 656l291 -656h-568z" />
    <glyph glyph-name="Adieresis" unicode="&#xc4;" 
d="M621 1942q-46 0 -75.5 -28.5t-29.5 -74.5q0 -48 29 -75t76 -27q49 0 78.5 26.5t29.5 75.5q0 47 -30 75t-78 28zM76 0h192l154 362h684l158 -362h194l-604 1368h-192zM483 528l277 656l291 -656h-568zM805 1835q0 -47 29 -74.5t75 -27.5q48 0 79.5 28t31.5 74q0 48 -31 76
t-80 28q-46 0 -75 -28.5t-29 -75.5z" />
    <glyph glyph-name="Aring" unicode="&#xc5;" 
d="M766 1978q-61 0 -100 -40t-39 -103q0 -62 39 -102.5t100 -40.5q64 0 102.5 40.5t38.5 102.5q0 65 -38.5 104t-102.5 39zM76 0h192l154 362h684l158 -362h194l-604 1368h-192zM483 528l277 656l291 -656h-568zM735 1835q0 31 31 31t31 -31q0 -29 -31 -29t-31 29z" />
    <glyph glyph-name="AE" unicode="&#xc6;" horiz-adv-x="2150" 
d="M948 762h783v-166h-783v-430h1051v-166h-1233v362h-315l-154 -362h-193l586 1360h1309v-170h-1051v-428zM512 528h254v602z" />
    <glyph glyph-name="Ccedilla" unicode="&#xc7;" horiz-adv-x="1550" 
d="M1223 502h200l-6 -23q-54 -208 -202 -346t-363 -158l-4 -28h4q137 -27 137 -164q0 -87 -56.5 -138t-144.5 -51q-102 0 -156.5 49t-68.5 148h113q10 -45 35.5 -62.5t72.5 -17.5q36 0 64.5 16t28.5 52q0 59 -113 59q-32 0 -64 -4l52 135q-146 7 -266 69t-197.5 161.5
t-119.5 223.5t-42 257q0 109 27.5 212t83 192.5t132.5 156.5t184 106t230 39q239 0 407.5 -140t225.5 -363l6 -27h-200l-4 14q-45 150 -162.5 244t-274.5 94q-107 0 -196 -45.5t-145 -120.5t-86.5 -168t-30.5 -192q0 -100 30.5 -193.5t86.5 -168.5t145 -120.5t196 -45.5
q157 0 274 93t163 240z" />
    <glyph glyph-name="Egrave" unicode="&#xc8;" horiz-adv-x="1572" 
d="M621 1978l200 -286h129l-131 286h-198zM190 0h1231v166h-1050v430h782v166h-782v428h1050v170h-1231v-1360z" />
    <glyph glyph-name="Eacute" unicode="&#xc9;" horiz-adv-x="1572" 
d="M750 1692l202 286h-200l-131 -286h129zM190 0h1231v166h-1050v430h782v166h-782v428h1050v170h-1231v-1360z" />
    <glyph glyph-name="Ecircumflex" unicode="&#xca;" horiz-adv-x="1572" 
d="M999 1692l-135 284h-157l-134 -284h134l79 137l78 -137h135zM190 0h1231v166h-1050v430h782v166h-782v428h1050v170h-1231v-1360z" />
    <glyph glyph-name="Edieresis" unicode="&#xcb;" horiz-adv-x="1572" 
d="M637 1942q-46 0 -75.5 -28.5t-29.5 -74.5q0 -48 29 -75t76 -27q49 0 78.5 26.5t29.5 75.5q0 47 -30 75t-78 28zM190 0h1231v166h-1050v430h782v166h-782v428h1050v170h-1231v-1360zM823 1835q0 -47 28.5 -74.5t76.5 -27.5t79 28t31 74q0 48 -31 76t-79 28
q-47 0 -76 -28.5t-29 -75.5z" />
    <glyph glyph-name="Igrave" unicode="&#xcc;" horiz-adv-x="567" 
d="M119 1978l200 -286h132l-134 286h-198zM195 0h180v1360h-180v-1360z" />
    <glyph glyph-name="Iacute" unicode="&#xcd;" horiz-adv-x="567" 
d="M248 1692l203 286h-201l-133 -286h131zM195 0h180v1360h-180v-1360z" />
    <glyph glyph-name="Icircumflex" unicode="&#xce;" horiz-adv-x="569" 
d="M498 1692l-133 284h-158l-135 -284h135l78 137l80 -137h133zM197 0h180v1360h-180v-1360z" />
    <glyph glyph-name="Idieresis" unicode="&#xcf;" horiz-adv-x="571" 
d="M139 1942q-47 0 -75.5 -28.5t-28.5 -74.5q0 -49 28 -75.5t76 -26.5q49 0 79 26.5t30 75.5q0 47 -30.5 75t-78.5 28zM197 0h180v1360h-180v-1360zM324 1835q0 -47 29 -74.5t75 -27.5q48 0 79.5 28t31.5 74q0 48 -31 76t-80 28q-46 0 -75 -28.5t-29 -75.5z" />
    <glyph glyph-name="Ntilde" unicode="&#xd1;" horiz-adv-x="1638" 
d="M981 1898q-52 -60 -78 -71h-4q-5 4 -11.5 9t-14 12t-11.5 10l-35 30q-46 39 -92 39q-56 0 -117 -65l-30 -33v-135q14 10 67 63q9 8 24.5 22.5t28 25t25.5 18.5l4 2q13 -3 33 -19q19 -15 35 -34q54 -46 96 -46q36 0 62 16.5t53 49.5q11 11 35 31v149q-20 -20 -70 -74z
M190 0h181v1079l899 -1079h180v1360h-180v-1081l-901 1081h-179v-1360z" />
    <glyph glyph-name="Ograve" unicode="&#xd2;" horiz-adv-x="1568" 
d="M621 1978l198 -286h131l-133 286h-196zM127 680q0 -109 27.5 -212.5t83 -193.5t132.5 -158t184 -107.5t230 -39.5q153 0 280 60t208 160t125.5 227t44.5 264q0 109 -27.5 212.5t-83 192.5t-133 156.5t-184.5 106t-230 38.5t-230 -39t-184 -106t-132.5 -156.5t-83 -192.5
t-27.5 -212zM324 682q0 79 19 155t57.5 143.5t92 118t129 80t162.5 29.5q108 0 197.5 -45t147 -120t89 -169t31.5 -194t-31.5 -193.5t-89 -168t-147 -119.5t-197.5 -45q-87 0 -162.5 29.5t-129 80.5t-92 118t-57.5 143.5t-19 156.5z" />
    <glyph glyph-name="Oacute" unicode="&#xd3;" horiz-adv-x="1568" 
d="M750 1692l202 286h-200l-131 -286h129zM127 680q0 -109 27.5 -212.5t83 -193.5t132.5 -158t184 -107.5t230 -39.5q153 0 280 60t208 160t125.5 227t44.5 264q0 109 -27.5 212.5t-83 192.5t-133 156.5t-184.5 106t-230 38.5t-230 -39t-184 -106t-132.5 -156.5t-83 -192.5
t-27.5 -212zM324 682q0 79 19 155t57.5 143.5t92 118t129 80t162.5 29.5q108 0 197.5 -45t147 -120t89 -169t31.5 -194t-31.5 -193.5t-89 -168t-147 -119.5t-197.5 -45q-87 0 -162.5 29.5t-129 80.5t-92 118t-57.5 143.5t-19 156.5z" />
    <glyph glyph-name="Ocircumflex" unicode="&#xd4;" horiz-adv-x="1568" 
d="M999 1692l-135 284h-157l-134 -284h134l79 137l78 -137h135zM127 680q0 -109 27.5 -212.5t83 -193.5t132.5 -158t184 -107.5t230 -39.5q153 0 280 60t208 160t125.5 227t44.5 264q0 109 -27.5 212.5t-83 192.5t-133 156.5t-184.5 106t-230 38.5t-230 -39t-184 -106
t-132.5 -156.5t-83 -192.5t-27.5 -212zM324 682q0 79 19 155t57.5 143.5t92 118t129 80t162.5 29.5q108 0 197.5 -45t147 -120t89 -169t31.5 -194t-31.5 -193.5t-89 -168t-147 -119.5t-197.5 -45q-87 0 -162.5 29.5t-129 80.5t-92 118t-57.5 143.5t-19 156.5z" />
    <glyph glyph-name="Otilde" unicode="&#xd5;" horiz-adv-x="1568" 
d="M946 1898q-54 -61 -78 -71h-4q-12 8 -35 31l-36 30q-46 39 -93 39q-51 0 -116 -65l-31 -33v-135q15 10 39.5 34t30.5 29q7 6 18.5 17t19 18t18 16t19.5 15l4 2q17 -3 33 -19q15 -12 37 -34q50 -46 94 -46q36 0 62 16.5t55 49.5q21 21 33 31v149q-20 -20 -70 -74zM127 680
q0 -109 27.5 -212.5t83 -193.5t132.5 -158t184 -107.5t230 -39.5q153 0 280 60t208 160t125.5 227t44.5 264q0 109 -27.5 212.5t-83 192.5t-133 156.5t-184.5 106t-230 38.5t-230 -39t-184 -106t-132.5 -156.5t-83 -192.5t-27.5 -212zM324 682q0 79 19 155t57.5 143.5
t92 118t129 80t162.5 29.5q108 0 197.5 -45t147 -120t89 -169t31.5 -194t-31.5 -193.5t-89 -168t-147 -119.5t-197.5 -45q-87 0 -162.5 29.5t-129 80.5t-92 118t-57.5 143.5t-19 156.5z" />
    <glyph glyph-name="Odieresis" unicode="&#xd6;" horiz-adv-x="1568" 
d="M637 1942q-46 0 -75.5 -28.5t-29.5 -74.5q0 -48 29 -75t76 -27q49 0 78.5 26.5t29.5 75.5q0 47 -30 75t-78 28zM127 680q0 -109 27.5 -212.5t83 -193.5t132.5 -158t184 -107.5t230 -39.5q153 0 280 60t208 160t125.5 227t44.5 264q0 109 -27.5 212.5t-83 192.5
t-133 156.5t-184.5 106t-230 38.5t-230 -39t-184 -106t-132.5 -156.5t-83 -192.5t-27.5 -212zM324 682q0 79 19 155t57.5 143.5t92 118t129 80t162.5 29.5q108 0 197.5 -45t147 -120t89 -169t31.5 -194t-31.5 -193.5t-89 -168t-147 -119.5t-197.5 -45q-87 0 -162.5 29.5
t-129 80.5t-92 118t-57.5 143.5t-19 156.5zM823 1835q0 -47 28.5 -74.5t74.5 -27.5q50 0 81 27.5t31 74.5q0 49 -31 76.5t-81 27.5q-46 0 -74.5 -28.5t-28.5 -75.5z" />
    <glyph glyph-name="multiply" unicode="&#xd7;" horiz-adv-x="1284" 
d="M643 553l356 -389l121 131l-360 385l360 385l-121 127l-356 -385l-360 385l-117 -127l356 -385l-356 -383l119 -133z" />
    <glyph glyph-name="Oslash" unicode="&#xd8;" horiz-adv-x="1568" 
d="M1102 1546l137 -73l-88 -195q138 -95 214.5 -255.5t76.5 -342.5q0 -137 -44.5 -264t-125.5 -227t-208 -160t-280 -60q-120 0 -223 39l-92 -196l-139 75l90 191q-140 98 -216.5 259t-76.5 343q0 109 27.5 212t83 192.5t132.5 156.5t184 106t230 39q128 0 226 -36zM324 682
q0 -124 45.5 -237.5t130.5 -188.5l434 928q-67 24 -150 24q-87 0 -162.5 -29.5t-129 -80t-92 -118t-57.5 -143.5t-19 -155zM639 176q68 -22 145 -22q108 0 197.5 45t147 119.5t89 168t31.5 193.5q0 124 -47 237t-133 187z" />
    <glyph glyph-name="Ugrave" unicode="&#xd9;" horiz-adv-x="1583" 
d="M627 1978l200 -286h129l-131 286h-198zM190 649q0 -100 24 -197.5t74.5 -184.5t120.5 -153.5t169.5 -105.5t214.5 -39q116 0 215.5 39t169.5 105.5t119.5 154t73.5 184.5t24 197v711h-181v-711q0 -92 -27.5 -179.5t-79 -158.5t-133 -114t-181.5 -43t-182 43t-133 114
t-79 158.5t-28 179.5v711h-181v-711z" />
    <glyph glyph-name="Uacute" unicode="&#xda;" horiz-adv-x="1583" 
d="M756 1692l202 286h-200l-131 -286h129zM190 649q0 -100 24 -197.5t74.5 -184.5t120.5 -153.5t169.5 -105.5t214.5 -39q116 0 215.5 39t169.5 105.5t119.5 154t73.5 184.5t24 197v711h-181v-711q0 -92 -27.5 -179.5t-79 -158.5t-133 -114t-181.5 -43t-182 43t-133 114
t-79 158.5t-28 179.5v711h-181v-711z" />
    <glyph glyph-name="Ucircumflex" unicode="&#xdb;" horiz-adv-x="1583" 
d="M1006 1692l-134 284h-157l-135 -284h135l78 137l79 -137h134zM190 649q0 -100 24 -197.5t74.5 -184.5t120.5 -153.5t169.5 -105.5t214.5 -39q116 0 215.5 39t169.5 105.5t119.5 154t73.5 184.5t24 197v711h-181v-711q0 -92 -27.5 -179.5t-79 -158.5t-133 -114t-181.5 -43
t-182 43t-133 114t-79 158.5t-28 179.5v711h-181v-711z" />
    <glyph glyph-name="Udieresis" unicode="&#xdc;" horiz-adv-x="1583" 
d="M643 1942q-46 0 -75 -28.5t-29 -74.5q0 -48 28.5 -75t75.5 -27q49 0 79 26.5t30 75.5q0 47 -30.5 75t-78.5 28zM190 649q0 -100 24 -197.5t74.5 -184.5t120.5 -153.5t169.5 -105.5t214.5 -39q116 0 215.5 39t169.5 105.5t119.5 154t73.5 184.5t24 197v711h-181v-711
q0 -92 -27.5 -179.5t-79 -158.5t-133 -114t-181.5 -43t-182 43t-133 114t-79 158.5t-28 179.5v711h-181v-711zM829 1835q0 -47 29.5 -74.5t75.5 -27.5q48 0 79 28t31 74q0 48 -31 76t-79 28q-46 0 -75.5 -28.5t-29.5 -75.5z" />
    <glyph glyph-name="Yacute" unicode="&#xdd;" horiz-adv-x="1341" 
d="M635 1692l203 286h-201l-131 -286h129zM51 1360l531 -885v-475h180l-2 475l530 885h-209l-407 -690l-418 690h-205z" />
    <glyph glyph-name="germandbls" unicode="&#xdf;" horiz-adv-x="1118" 
d="M545 -29q237 1 368 100t131 273v2q0 230 -208 338q168 107 168 317v5q0 176 -122.5 274t-346.5 98q-65 0 -123.5 -8t-120 -29.5t-108 -55.5t-81 -90.5t-45.5 -129.5v-1301l168 -6l2 1315q51 88 127.5 122t177.5 34q139 0 230.5 -63t91.5 -191q0 -38 -8.5 -69t-21.5 -53.5
t-36.5 -40t-44 -29t-55 -19.5t-58 -12t-63.5 -6t-63 -2.5t-64 -0.5h-34v-137l6 2h61q45 0 77.5 -1t79.5 -6.5t81 -14.5t71 -26.5t60 -42t38 -62t15 -84.5q0 -68 -30.5 -118.5t-82.5 -77.5t-111 -39.5t-126 -12.5h-25v-154z" />
    <glyph glyph-name="agrave" unicode="&#xe0;" 
d="M602 1978l201 -286h131l-133 286h-199zM76 0h192l154 362h684l158 -362h194l-604 1368h-192zM483 528l277 656l291 -656h-568z" />
    <glyph glyph-name="aacute" unicode="&#xe1;" 
d="M733 1692l203 286h-201l-135 -286h133zM76 0h192l154 362h684l158 -362h194l-604 1368h-192zM483 528l277 656l291 -656h-568z" />
    <glyph glyph-name="acircumflex" unicode="&#xe2;" 
d="M979 1692l-131 284h-158l-135 -284h133l80 137l80 -137h131zM76 0h192l154 362h684l158 -362h194l-604 1368h-192zM483 528l277 656l291 -656h-568z" />
    <glyph glyph-name="atilde" unicode="&#xe3;" 
d="M932 1898q-57 -61 -80 -71h-4q-6 4 -18 15t-19 16q-65 69 -127 69q-61 0 -115 -65l-32 -33v-135q12 8 23 18t25.5 25.5t18.5 19.5q9 8 25 22.5t28.5 25t24.5 18.5l4 2q13 -3 33 -19q14 -9 35 -34q54 -46 98 -46q35 0 60.5 16.5t52.5 49.5q16 16 34 31v149
q-12 -10 -36 -38t-31 -36zM76 0h192l154 362h684l158 -362h194l-604 1368h-192zM483 528l277 656l291 -656h-568z" />
    <glyph glyph-name="adieresis" unicode="&#xe4;" 
d="M621 1942q-46 0 -75.5 -28.5t-29.5 -74.5q0 -48 29 -75t76 -27q49 0 79.5 26.5t30.5 75.5q0 47 -31 75t-79 28zM76 0h192l154 362h684l158 -362h194l-604 1368h-192zM483 528l277 656l291 -656h-568zM807 1835q0 -47 28.5 -74.5t75.5 -27.5t78 28t31 74q0 48 -31 76
t-78 28t-75.5 -28.5t-28.5 -75.5z" />
    <glyph glyph-name="aring" unicode="&#xe5;" 
d="M768 1978q-63 0 -102 -40t-39 -103q0 -62 39.5 -102.5t101.5 -40.5t101.5 40.5t39.5 102.5q0 64 -39 103.5t-102 39.5zM76 0h192l154 362h684l158 -362h194l-604 1368h-192zM483 528l277 656l291 -656h-568zM737 1835q0 31 31 31t31 -31q0 -29 -31 -29t-31 29z" />
    <glyph glyph-name="ae" unicode="&#xe6;" horiz-adv-x="2150" 
d="M948 762h783v-166h-783v-430h1051v-166h-1233v362h-315l-154 -362h-193l586 1360h1309v-170h-1051v-428zM512 528h254v602z" />
    <glyph glyph-name="ccedilla" unicode="&#xe7;" horiz-adv-x="1550" 
d="M852 -25q215 20 363 158t202 346l6 23h-200l-4 -15q-46 -147 -163 -240t-274 -93q-107 0 -196 45.5t-145 120.5t-86.5 168.5t-30.5 193.5q0 99 30.5 192t86.5 168t145 120.5t196 45.5q157 0 274.5 -94t162.5 -244l4 -14h200l-6 27q-57 223 -225.5 363t-407.5 140
q-123 0 -230 -39t-184 -106t-132.5 -156.5t-83 -192.5t-27.5 -212q0 -133 42 -257t119.5 -223t197.5 -161.5t266 -69.5q-3 -8 -52 -135q32 4 64 4q113 0 113 -59q0 -36 -28.5 -52t-64.5 -16q-47 0 -72.5 17.5t-35.5 62.5h-113q14 -99 68.5 -148t156.5 -49q89 0 145 50.5
t56 138.5q0 137 -137 164h-4z" />
    <glyph glyph-name="egrave" unicode="&#xe8;" horiz-adv-x="1572" 
d="M621 1978l200 -286h129l-131 286h-198zM190 0h1231v166h-1050v430h782v166h-782v428h1050v170h-1231v-1360z" />
    <glyph glyph-name="eacute" unicode="&#xe9;" horiz-adv-x="1572" 
d="M750 1692l202 286h-200l-134 -286h132zM190 0h1231v166h-1050v430h782v166h-782v428h1050v170h-1231v-1360z" />
    <glyph glyph-name="ecircumflex" unicode="&#xea;" horiz-adv-x="1572" 
d="M997 1692l-133 284h-157l-134 -284h132l81 137l78 -137h133zM190 0h1231v166h-1050v430h782v166h-782v428h1050v170h-1231v-1360z" />
    <glyph glyph-name="edieresis" unicode="&#xeb;" horiz-adv-x="1572" 
d="M637 1942q-46 0 -75.5 -28.5t-29.5 -74.5q0 -48 29 -75t76 -27q49 0 80 26.5t31 75.5q0 46 -31.5 74.5t-79.5 28.5zM190 0h1231v166h-1050v430h782v166h-782v428h1050v170h-1231v-1360zM825 1835q0 -47 28 -74.5t77 -27.5q47 0 77.5 28t30.5 74q0 48 -30.5 76t-77.5 28
q-49 0 -77 -28t-28 -76z" />
    <glyph glyph-name="igrave" unicode="&#xec;" horiz-adv-x="565" 
d="M119 1978l200 -286h127l-129 286h-198zM195 0h180v1360h-180v-1360z" />
    <glyph glyph-name="iacute" unicode="&#xed;" horiz-adv-x="567" 
d="M248 1692l203 286h-199l-135 -286h131zM195 0h180v1360h-180v-1360z" />
    <glyph glyph-name="icircumflex" unicode="&#xee;" horiz-adv-x="569" 
d="M498 1692l-133 284h-158l-135 -284h135l78 137l80 -137h133zM197 0h180v1360h-180v-1360z" />
    <glyph glyph-name="idieresis" unicode="&#xef;" horiz-adv-x="571" 
d="M139 1942q-49 0 -76.5 -28t-27.5 -75q0 -49 27 -75.5t77 -26.5q49 0 79 26.5t30 75.5q0 47 -30.5 75t-78.5 28zM197 0h180v1360h-180v-1360zM324 1835q0 -47 29 -74.5t75 -27.5q48 0 78.5 27.5t30.5 74.5q0 48 -30.5 76t-78.5 28q-46 0 -75 -28.5t-29 -75.5z" />
    <glyph glyph-name="ntilde" unicode="&#xf1;" horiz-adv-x="1638" 
d="M983 1898q-57 -61 -80 -71h-4q-6 4 -18 15t-19 16q-65 69 -127 69q-60 0 -114 -65l-33 -33v-135q12 8 23 18t25.5 25.5t18.5 19.5q9 8 25 22.5t28.5 25t24.5 18.5l4 2q13 -3 33 -19q14 -9 35 -34q54 -46 98 -46q35 0 60.5 16.5t52.5 49.5q11 11 35 31v149
q-10 -10 -35.5 -38.5t-32.5 -35.5zM190 0h181v1079l899 -1079h180v1360h-180v-1081l-901 1081h-179v-1360z" />
    <glyph glyph-name="ograve" unicode="&#xf2;" horiz-adv-x="1568" 
d="M621 1978l198 -286h131l-133 286h-196zM127 680q0 -109 27.5 -212.5t83 -193.5t132.5 -158t184 -107.5t230 -39.5q153 0 280 60t208 160t125.5 227t44.5 264q0 109 -27.5 212.5t-83 192.5t-133 156.5t-184.5 106t-230 38.5t-230 -39t-184 -106t-132.5 -156.5t-83 -192.5
t-27.5 -212zM324 682q0 79 19 155t57.5 143.5t92 118t129 80t162.5 29.5q108 0 197.5 -45t147 -120t89 -169t31.5 -194t-31.5 -193.5t-89 -168t-147 -119.5t-197.5 -45q-87 0 -162.5 29.5t-129 80.5t-92 118t-57.5 143.5t-19 156.5z" />
    <glyph glyph-name="oacute" unicode="&#xf3;" horiz-adv-x="1568" 
d="M750 1692l202 286h-200l-134 -286h132zM127 680q0 -109 27.5 -212.5t83 -193.5t132.5 -158t184 -107.5t230 -39.5q153 0 280 60t208 160t125.5 227t44.5 264q0 109 -27.5 212.5t-83 192.5t-133 156.5t-184.5 106t-230 38.5t-230 -39t-184 -106t-132.5 -156.5t-83 -192.5
t-27.5 -212zM324 682q0 79 19 155t57.5 143.5t92 118t129 80t162.5 29.5q108 0 197.5 -45t147 -120t89 -169t31.5 -194t-31.5 -193.5t-89 -168t-147 -119.5t-197.5 -45q-87 0 -162.5 29.5t-129 80.5t-92 118t-57.5 143.5t-19 156.5z" />
    <glyph glyph-name="ocircumflex" unicode="&#xf4;" horiz-adv-x="1568" 
d="M997 1692l-133 284h-157l-134 -284h132l81 137l78 -137h133zM127 680q0 -109 27.5 -212.5t83 -193.5t132.5 -158t184 -107.5t230 -39.5q153 0 280 60t208 160t125.5 227t44.5 264q0 109 -27.5 212.5t-83 192.5t-133 156.5t-184.5 106t-230 38.5t-230 -39t-184 -106
t-132.5 -156.5t-83 -192.5t-27.5 -212zM324 682q0 79 19 155t57.5 143.5t92 118t129 80t162.5 29.5q108 0 197.5 -45t147 -120t89 -169t31.5 -194t-31.5 -193.5t-89 -168t-147 -119.5t-197.5 -45q-87 0 -162.5 29.5t-129 80.5t-92 118t-57.5 143.5t-19 156.5z" />
    <glyph glyph-name="otilde" unicode="&#xf5;" horiz-adv-x="1568" 
d="M948 1898q-59 -62 -80 -71h-4q-7 5 -19 16.5t-16 14.5q-69 69 -129 69q-56 0 -114 -65l-33 -33v-135q16 11 40.5 35t29.5 28q60 55 75 66l4 2q17 -3 33 -19q9 -6 37 -34q50 -46 96 -46q35 0 60.5 16.5t54.5 49.5q21 21 33 31v149q-10 -10 -35.5 -38.5t-32.5 -35.5z
M127 680q0 -109 27.5 -212.5t83 -193.5t132.5 -158t184 -107.5t230 -39.5q153 0 280 60t208 160t125.5 227t44.5 264q0 109 -27.5 212.5t-83 192.5t-133 156.5t-184.5 106t-230 38.5t-230 -39t-184 -106t-132.5 -156.5t-83 -192.5t-27.5 -212zM324 682q0 79 19 155
t57.5 143.5t92 118t129 80t162.5 29.5q108 0 197.5 -45t147 -120t89 -169t31.5 -194t-31.5 -193.5t-89 -168t-147 -119.5t-197.5 -45q-87 0 -162.5 29.5t-129 80.5t-92 118t-57.5 143.5t-19 156.5z" />
    <glyph glyph-name="odieresis" unicode="&#xf6;" horiz-adv-x="1568" 
d="M637 1942q-46 0 -75.5 -28.5t-29.5 -74.5q0 -48 29 -75t76 -27q49 0 80 26.5t31 75.5q0 46 -31.5 74.5t-79.5 28.5zM127 680q0 -109 27.5 -212.5t83 -193.5t132.5 -158t184 -107.5t230 -39.5q153 0 280 60t208 160t125.5 227t44.5 264q0 109 -27.5 212.5t-83 192.5
t-133 156.5t-184.5 106t-230 38.5t-230 -39t-184 -106t-132.5 -156.5t-83 -192.5t-27.5 -212zM324 682q0 79 19 155t57.5 143.5t92 118t129 80t162.5 29.5q108 0 197.5 -45t147 -120t89 -169t31.5 -194t-31.5 -193.5t-89 -168t-147 -119.5t-197.5 -45q-87 0 -162.5 29.5
t-129 80.5t-92 118t-57.5 143.5t-19 156.5zM825 1835q0 -47 28 -74.5t77 -27.5q47 0 77.5 28t30.5 74q0 48 -30.5 76t-77.5 28q-49 0 -77 -28t-28 -76z" />
    <glyph glyph-name="divide" unicode="&#xf7;" horiz-adv-x="1368" 
d="M567 1114q0 -49 30 -87t87 -38q54 0 85.5 38.5t31.5 86.5q0 50 -31.5 88.5t-85.5 38.5q-57 0 -87 -38.5t-30 -88.5zM190 596h990v166h-990v-166zM567 244q0 -49 31 -88t86 -39q54 0 85.5 38.5t31.5 88.5q0 49 -31 88t-86 39q-57 0 -87 -39t-30 -88z" />
    <glyph glyph-name="oslash" unicode="&#xf8;" horiz-adv-x="1568" 
d="M1102 1546l137 -73l-88 -195q138 -95 214.5 -255.5t76.5 -342.5q0 -137 -44.5 -264t-125.5 -227t-208 -160t-280 -60q-120 0 -223 39l-92 -196l-139 75l90 191q-140 98 -216.5 259t-76.5 343q0 109 27.5 212t83 192.5t132.5 156.5t184 106t230 39q128 0 226 -36zM324 682
q0 -124 45.5 -237.5t130.5 -188.5l434 928q-67 24 -150 24q-87 0 -162.5 -29.5t-129 -80t-92 -118t-57.5 -143.5t-19 -155zM639 176q68 -22 145 -22q108 0 197.5 45t147 119.5t89 168t31.5 193.5q0 124 -47 237t-133 187z" />
    <glyph glyph-name="ugrave" unicode="&#xf9;" horiz-adv-x="1583" 
d="M627 1978l200 -286h129l-131 286h-198zM190 649q0 -100 24 -197.5t74.5 -184.5t120.5 -153.5t169.5 -105.5t214.5 -39q116 0 215.5 39t169.5 105.5t119.5 154t73.5 184.5t24 197v711h-181v-711q0 -92 -27.5 -179.5t-79 -158.5t-133 -114t-181.5 -43t-182 43t-133 114
t-79 158.5t-28 179.5v711h-181v-711z" />
    <glyph glyph-name="uacute" unicode="&#xfa;" horiz-adv-x="1583" 
d="M756 1692l202 286h-200l-133 -286h131zM190 649q0 -100 24 -197.5t74.5 -184.5t120.5 -153.5t169.5 -105.5t214.5 -39q116 0 215.5 39t169.5 105.5t119.5 154t73.5 184.5t24 197v711h-181v-711q0 -92 -27.5 -179.5t-79 -158.5t-133 -114t-181.5 -43t-182 43t-133 114
t-79 158.5t-28 179.5v711h-181v-711z" />
    <glyph glyph-name="ucircumflex" unicode="&#xfb;" horiz-adv-x="1583" 
d="M1004 1692l-132 284h-157l-135 -284h133l80 137l79 -137h132zM190 649q0 -100 24 -197.5t74.5 -184.5t120.5 -153.5t169.5 -105.5t214.5 -39q116 0 215.5 39t169.5 105.5t119.5 154t73.5 184.5t24 197v711h-181v-711q0 -92 -27.5 -179.5t-79 -158.5t-133 -114t-181.5 -43
t-182 43t-133 114t-79 158.5t-28 179.5v711h-181v-711z" />
    <glyph glyph-name="udieresis" unicode="&#xfc;" horiz-adv-x="1583" 
d="M643 1942q-46 0 -75 -28.5t-29 -74.5q0 -48 28.5 -75t75.5 -27q49 0 80 26.5t31 75.5q0 46 -31.5 74.5t-79.5 28.5zM190 649q0 -100 24 -197.5t74.5 -184.5t120.5 -153.5t169.5 -105.5t214.5 -39q116 0 215.5 39t169.5 105.5t119.5 154t73.5 184.5t24 197v711h-181v-711
q0 -92 -27.5 -179.5t-79 -158.5t-133 -114t-181.5 -43t-182 43t-133 114t-79 158.5t-28 179.5v711h-181v-711zM831 1835q0 -47 28.5 -74.5t76.5 -27.5q47 0 77.5 28t30.5 74q0 48 -30.5 76t-77.5 28t-76 -28.5t-29 -75.5z" />
    <glyph glyph-name="yacute" unicode="&#xfd;" horiz-adv-x="1341" 
d="M635 1692l203 286h-199l-133 -286h129zM51 1360l531 -885v-475h180l-2 475l530 885h-209l-407 -690l-418 690h-205z" />
    <glyph glyph-name="ydieresis" unicode="&#xff;" horiz-adv-x="1341" 
d="M524 1942q-47 0 -75.5 -28.5t-28.5 -74.5q0 -49 28 -75.5t76 -26.5q49 0 79 26.5t30 75.5q0 47 -30.5 75t-78.5 28zM51 1360l531 -885v-475h180l-2 475l530 885h-209l-407 -690l-418 690h-205zM709 1835q0 -47 29 -74.5t75 -27.5q50 0 79.5 27.5t29.5 74.5
q0 49 -29.5 76.5t-79.5 27.5q-46 0 -75 -28.5t-29 -75.5z" />
    <glyph glyph-name="Amacron" unicode="&#x100;" 
d="M569 1638h396v101h-396v-101zM76 0h192l154 362h684l158 -362h194l-604 1368h-192zM483 528l277 656l291 -656h-568z" />
    <glyph glyph-name="amacron" unicode="&#x101;" 
d="M569 1638h398v101h-398v-101zM76 0h192l154 362h684l158 -362h194l-604 1368h-192zM483 528l277 656l291 -656h-568z" />
    <glyph glyph-name="Cacute" unicode="&#x106;" horiz-adv-x="1550" 
d="M739 1692l203 286h-201l-131 -286h129zM127 680q0 -109 27.5 -212.5t83 -193.5t132.5 -158t184 -107.5t230 -39.5q240 0 407.5 142.5t225.5 367.5l6 23h-200l-4 -15q-46 -147 -163 -240t-274 -93q-107 0 -196 45.5t-145 120.5t-86.5 168.5t-30.5 193.5q0 99 30.5 192
t86.5 168t145 120.5t196 45.5q157 0 274.5 -94t162.5 -244l4 -14h200l-6 27q-57 223 -225.5 363t-407.5 140q-123 0 -230 -39t-184 -106t-132.5 -156.5t-83 -192.5t-27.5 -212z" />
    <glyph glyph-name="cacute" unicode="&#x107;" horiz-adv-x="1550" 
d="M739 1692l203 286h-199l-133 -286h129zM127 680q0 -109 27.5 -212.5t83 -193.5t132.5 -158t184 -107.5t230 -39.5q240 0 407.5 142.5t225.5 367.5l6 23h-200l-4 -15q-46 -147 -163 -240t-274 -93q-107 0 -196 45.5t-145 120.5t-86.5 168.5t-30.5 193.5q0 99 30.5 192
t86.5 168t145 120.5t196 45.5q157 0 274.5 -94t162.5 -244l4 -14h200l-6 27q-57 223 -225.5 363t-407.5 140q-123 0 -230 -39t-184 -106t-132.5 -156.5t-83 -192.5t-27.5 -212z" />
    <glyph glyph-name="Ccircumflex" unicode="&#x108;" horiz-adv-x="1550" 
d="M989 1692l-135 284h-158l-133 -284h133l80 137l78 -137h135zM127 680q0 -109 27.5 -212.5t83 -193.5t132.5 -158t184 -107.5t230 -39.5q240 0 407.5 142.5t225.5 367.5l6 23h-200l-4 -15q-46 -147 -163 -240t-274 -93q-107 0 -196 45.5t-145 120.5t-86.5 168.5
t-30.5 193.5q0 99 30.5 192t86.5 168t145 120.5t196 45.5q157 0 274.5 -94t162.5 -244l4 -14h200l-6 27q-57 223 -225.5 363t-407.5 140q-123 0 -230 -39t-184 -106t-132.5 -156.5t-83 -192.5t-27.5 -212z" />
    <glyph glyph-name="ccircumflex" unicode="&#x109;" horiz-adv-x="1550" 
d="M989 1692l-135 284h-158l-133 -284h133l80 137l78 -137h135zM127 680q0 -109 27.5 -212.5t83 -193.5t132.5 -158t184 -107.5t230 -39.5q240 0 407.5 142.5t225.5 367.5l6 23h-200l-4 -15q-46 -147 -163 -240t-274 -93q-107 0 -196 45.5t-145 120.5t-86.5 168.5
t-30.5 193.5q0 99 30.5 192t86.5 168t145 120.5t196 45.5q157 0 274.5 -94t162.5 -244l4 -14h200l-6 27q-57 223 -225.5 363t-407.5 140q-123 0 -230 -39t-184 -106t-132.5 -156.5t-83 -192.5t-27.5 -212z" />
    <glyph glyph-name="Cdotaccent" unicode="&#x10a;" horiz-adv-x="1550" 
d="M774 1939q-48 0 -76 -27.5t-28 -76.5q0 -46 28.5 -74t75.5 -28q48 0 78.5 27.5t30.5 74.5q0 48 -30.5 76t-78.5 28zM127 680q0 -109 27.5 -212.5t83 -193.5t132.5 -158t184 -107.5t230 -39.5q240 0 407.5 142.5t225.5 367.5l6 23h-200l-4 -15q-46 -147 -163 -240
t-274 -93q-107 0 -196 45.5t-145 120.5t-86.5 168.5t-30.5 193.5q0 99 30.5 192t86.5 168t145 120.5t196 45.5q157 0 274.5 -94t162.5 -244l4 -14h200l-6 27q-57 223 -225.5 363t-407.5 140q-123 0 -230 -39t-184 -106t-132.5 -156.5t-83 -192.5t-27.5 -212z" />
    <glyph glyph-name="cdotaccent" unicode="&#x10b;" horiz-adv-x="1550" 
d="M774 1939q-48 0 -76 -27.5t-28 -76.5q0 -46 28.5 -74t75.5 -28q48 0 78.5 27.5t30.5 74.5q0 48 -30.5 76t-78.5 28zM127 680q0 -109 27.5 -212.5t83 -193.5t132.5 -158t184 -107.5t230 -39.5q240 0 407.5 142.5t225.5 367.5l6 23h-200l-4 -15q-46 -147 -163 -240
t-274 -93q-107 0 -196 45.5t-145 120.5t-86.5 168.5t-30.5 193.5q0 99 30.5 192t86.5 168t145 120.5t196 45.5q157 0 274.5 -94t162.5 -244l4 -14h200l-6 27q-57 223 -225.5 363t-407.5 140q-123 0 -230 -39t-184 -106t-132.5 -156.5t-83 -192.5t-27.5 -212z" />
    <glyph glyph-name="Ccaron" unicode="&#x10c;" horiz-adv-x="1550" 
d="M563 1978l133 -286h158l135 286h-135l-78 -137l-80 137h-133zM127 680q0 -109 27.5 -212.5t83 -193.5t132.5 -158t184 -107.5t230 -39.5q240 0 407.5 142.5t225.5 367.5l6 23h-200l-4 -15q-46 -147 -163 -240t-274 -93q-107 0 -196 45.5t-145 120.5t-86.5 168.5
t-30.5 193.5q0 99 30.5 192t86.5 168t145 120.5t196 45.5q157 0 274.5 -94t162.5 -244l4 -14h200l-6 27q-57 223 -225.5 363t-407.5 140q-123 0 -230 -39t-184 -106t-132.5 -156.5t-83 -192.5t-27.5 -212z" />
    <glyph glyph-name="ccaron" unicode="&#x10d;" horiz-adv-x="1550" 
d="M563 1978l133 -286h158l135 286h-135l-78 -137l-80 137h-133zM127 680q0 -109 27.5 -212.5t83 -193.5t132.5 -158t184 -107.5t230 -39.5q240 0 407.5 142.5t225.5 367.5l6 23h-200l-4 -15q-46 -147 -163 -240t-274 -93q-107 0 -196 45.5t-145 120.5t-86.5 168.5
t-30.5 193.5q0 99 30.5 192t86.5 168t145 120.5t196 45.5q157 0 274.5 -94t162.5 -244l4 -14h200l-6 27q-57 223 -225.5 363t-407.5 140q-123 0 -230 -39t-184 -106t-132.5 -156.5t-83 -192.5t-27.5 -212z" />
    <glyph glyph-name="Emacron" unicode="&#x112;" horiz-adv-x="1572" 
d="M586 1638h397v101h-397v-101zM190 0h1231v166h-1050v430h782v166h-782v428h1050v170h-1231v-1360z" />
    <glyph glyph-name="emacron" unicode="&#x113;" horiz-adv-x="1572" 
d="M586 1638h399v101h-399v-101zM190 0h1231v166h-1050v430h782v166h-782v428h1050v170h-1231v-1360z" />
    <glyph glyph-name="Edotaccent" unicode="&#x116;" horiz-adv-x="1572" 
d="M782 1939q-47 0 -75.5 -27.5t-28.5 -76.5q0 -46 29 -74t75 -28q48 0 78.5 27.5t30.5 74.5q0 48 -30.5 76t-78.5 28zM190 0h1231v166h-1050v430h782v166h-782v428h1050v170h-1231v-1360z" />
    <glyph glyph-name="edotaccent" unicode="&#x117;" horiz-adv-x="1572" 
d="M784 1939q-48 0 -77 -27.5t-29 -76.5q0 -46 29.5 -74t76.5 -28t78 28t31 74q0 48 -31 76t-78 28zM190 0h1231v166h-1050v430h782v166h-782v428h1050v170h-1231v-1360z" />
    <glyph glyph-name="Ecaron" unicode="&#x11a;" horiz-adv-x="1572" 
d="M573 1978l134 -286h157l135 286h-135l-78 -137l-79 137h-134zM190 0h1231v166h-1050v430h782v166h-782v428h1050v170h-1231v-1360z" />
    <glyph glyph-name="ecaron" unicode="&#x11b;" horiz-adv-x="1572" 
d="M573 1978l134 -286h157l133 286h-133l-78 -137l-81 137h-132zM190 0h1231v166h-1050v430h782v166h-782v428h1050v170h-1231v-1360z" />
    <glyph glyph-name="Gcircumflex" unicode="&#x11c;" horiz-adv-x="1568" 
d="M999 1692l-135 284h-157l-134 -284h134l79 137l78 -137h135zM127 680q0 -109 27.5 -212.5t83 -194t133 -158.5t184.5 -107t231 -39q123 0 230 39.5t184 107.5t132.5 158t82.5 193.5t27 212.5q0 8 -1 25t-1 26l-2 19h-609v-168h420q-28 -180 -153.5 -304t-311.5 -124
q-87 0 -162.5 29.5t-129 80.5t-92 118t-57.5 143.5t-19 156.5q0 99 30 192t86 168t144.5 120.5t195.5 45.5q106 0 202 -48t161 -132l6 -8l221 2l-14 29q-87 157 -239 246t-337 89q-152 0 -278.5 -60.5t-206.5 -160.5t-124 -225.5t-44 -259.5z" />
    <glyph glyph-name="gcircumflex" unicode="&#x11d;" horiz-adv-x="1568" 
d="M997 1692l-133 284h-157l-134 -284h132l81 137l78 -137h133zM127 680q0 -109 27.5 -212.5t83 -194t133 -158.5t184.5 -107t231 -39q123 0 230 39.5t184 107.5t132.5 158t82.5 193.5t27 212.5q0 8 -1 25t-1 26l-2 19h-609v-168h420q-28 -180 -153.5 -304t-311.5 -124
q-87 0 -162.5 29.5t-129 80.5t-92 118t-57.5 143.5t-19 156.5q0 99 30 192t86 168t144.5 120.5t195.5 45.5q106 0 202 -48t161 -132l6 -8l221 2l-14 29q-87 157 -239 246t-337 89q-152 0 -278.5 -60.5t-206.5 -160.5t-124 -225.5t-44 -259.5z" />
    <glyph glyph-name="Gdotaccent" unicode="&#x120;" horiz-adv-x="1568" 
d="M782 1939q-47 0 -75.5 -27.5t-28.5 -76.5q0 -46 29 -74t75 -28q48 0 78.5 27.5t30.5 74.5q0 48 -30.5 76t-78.5 28zM127 680q0 -109 27.5 -212.5t83 -194t133 -158.5t184.5 -107t231 -39q123 0 230 39.5t184 107.5t132.5 158t82.5 193.5t27 212.5q0 8 -1 25t-1 26l-2 19
h-609v-168h420q-28 -180 -153.5 -304t-311.5 -124q-87 0 -162.5 29.5t-129 80.5t-92 118t-57.5 143.5t-19 156.5q0 99 30 192t86 168t144.5 120.5t195.5 45.5q106 0 202 -48t161 -132l6 -8l221 2l-14 29q-87 157 -239 246t-337 89q-152 0 -278.5 -60.5t-206.5 -160.5
t-124 -225.5t-44 -259.5z" />
    <glyph glyph-name="gdotaccent" unicode="&#x121;" horiz-adv-x="1568" 
d="M784 1939q-48 0 -77 -27.5t-29 -76.5q0 -46 29.5 -74t76.5 -28t78 28t31 74q0 48 -31 76t-78 28zM127 680q0 -109 27.5 -212.5t83 -194t133 -158.5t184.5 -107t231 -39q123 0 230 39.5t184 107.5t132.5 158t82.5 193.5t27 212.5q0 8 -1 25t-1 26l-2 19h-609v-168h420
q-28 -180 -153.5 -304t-311.5 -124q-87 0 -162.5 29.5t-129 80.5t-92 118t-57.5 143.5t-19 156.5q0 99 30 192t86 168t144.5 120.5t195.5 45.5q106 0 202 -48t161 -132l6 -8l221 2l-14 29q-87 157 -239 246t-337 89q-152 0 -278.5 -60.5t-206.5 -160.5t-124 -225.5
t-44 -259.5z" />
    <glyph glyph-name="Hcircumflex" unicode="&#x124;" horiz-adv-x="1638" 
d="M1034 1692l-135 284h-158l-133 -284h133l80 137l78 -137h135zM190 0h181v596h899v-596h180v1360h-180v-598h-899v598h-181v-1360z" />
    <glyph glyph-name="hcircumflex" unicode="&#x125;" horiz-adv-x="1638" 
d="M1032 1692l-133 284h-158l-133 -284h131l82 137l78 -137h133zM190 0h181v596h899v-596h180v1360h-180v-598h-899v598h-181v-1360z" />
    <glyph glyph-name="Itilde" unicode="&#x128;" horiz-adv-x="571" 
d="M446 1898q-48 -59 -75 -71h-4q-18 12 -37 31l-35 30q-46 39 -92 39q-56 0 -117 -65l-31 -33v-135q18 13 68 63q9 8 24.5 22.5t28 25t25.5 18.5l4 2q15 -3 31 -19q16 -11 36 -34q54 -46 97 -46q36 0 61 16.5t53 49.5q11 11 35 31v149q-11 -10 -36.5 -37t-35.5 -37zM197 0
h180v1360h-180v-1360z" />
    <glyph glyph-name="itilde" unicode="&#x129;" horiz-adv-x="571" 
d="M446 1898q-53 -60 -75 -71h-4q-18 12 -37 31l-35 30q-46 39 -92 39q-68 0 -148 -98v-135q14 10 37 33t31 30q59 54 78 66l2 2q17 -3 33 -19q6 -4 36 -34q54 -46 97 -46q59 0 114 66l33 31v149zM197 0h180v1360h-180v-1360z" />
    <glyph glyph-name="Imacron" unicode="&#x12a;" horiz-adv-x="567" 
d="M86 1638h395v101h-395v-101zM195 0h180v1360h-180v-1360z" />
    <glyph glyph-name="imacron" unicode="&#x12b;" horiz-adv-x="567" 
d="M86 1638h395v101h-395v-101zM195 0h180v1360h-180v-1360z" />
    <glyph glyph-name="dotlessi" unicode="&#x131;" horiz-adv-x="559" 
d="M190 1360v-1360h181v1360h-181z" />
    <glyph glyph-name="Lacute" unicode="&#x139;" horiz-adv-x="1282" 
d="M602 1692l203 286h-199l-133 -286h129zM190 0h990v166h-809v1194h-181v-1360z" />
    <glyph glyph-name="lacute" unicode="&#x13a;" horiz-adv-x="1282" 
d="M602 1692l203 286h-197l-135 -286h129zM190 0h990v166h-809v1194h-181v-1360z" />
    <glyph glyph-name="Nacute" unicode="&#x143;" horiz-adv-x="1638" 
d="M784 1692l203 286h-201l-133 -286h131zM190 0h181v1079l899 -1079h180v1360h-180v-1081l-901 1081h-179v-1360z" />
    <glyph glyph-name="nacute" unicode="&#x144;" horiz-adv-x="1638" 
d="M784 1692l203 286h-201l-135 -286h133zM190 0h181v1079l899 -1079h180v1360h-180v-1081l-901 1081h-179v-1360z" />
    <glyph glyph-name="Ncaron" unicode="&#x147;" horiz-adv-x="1638" 
d="M608 1978l133 -286h158l135 286h-135l-78 -137l-80 137h-133zM190 0h181v1079l899 -1079h180v1360h-180v-1081l-901 1081h-179v-1360z" />
    <glyph glyph-name="ncaron" unicode="&#x148;" horiz-adv-x="1638" 
d="M608 1978l133 -286h158l133 286h-133l-78 -137l-82 137h-131zM190 0h181v1079l899 -1079h180v1360h-180v-1081l-901 1081h-179v-1360z" />
    <glyph glyph-name="Omacron" unicode="&#x14c;" horiz-adv-x="1568" 
d="M586 1638h397v101h-397v-101zM127 680q0 -109 27.5 -212.5t83 -193.5t132.5 -158t184 -107.5t230 -39.5q153 0 280 60t208 160t125.5 227t44.5 264q0 109 -27.5 212.5t-83 192.5t-133 156.5t-184.5 106t-230 38.5t-230 -39t-184 -106t-132.5 -156.5t-83 -192.5
t-27.5 -212zM324 682q0 79 19 155t57.5 143.5t92 118t129 80t162.5 29.5q108 0 197.5 -45t147 -120t89 -169t31.5 -194t-31.5 -193.5t-89 -168t-147 -119.5t-197.5 -45q-87 0 -162.5 29.5t-129 80.5t-92 118t-57.5 143.5t-19 156.5z" />
    <glyph glyph-name="omacron" unicode="&#x14d;" horiz-adv-x="1568" 
d="M586 1638h399v101h-399v-101zM127 680q0 -109 27.5 -212.5t83 -193.5t132.5 -158t184 -107.5t230 -39.5q153 0 280 60t208 160t125.5 227t44.5 264q0 109 -27.5 212.5t-83 192.5t-133 156.5t-184.5 106t-230 38.5t-230 -39t-184 -106t-132.5 -156.5t-83 -192.5
t-27.5 -212zM324 682q0 79 19 155t57.5 143.5t92 118t129 80t162.5 29.5q108 0 197.5 -45t147 -120t89 -169t31.5 -194t-31.5 -193.5t-89 -168t-147 -119.5t-197.5 -45q-87 0 -162.5 29.5t-129 80.5t-92 118t-57.5 143.5t-19 156.5z" />
    <glyph glyph-name="OE" unicode="&#x152;" horiz-adv-x="2619" 
d="M784 -31q-123 0 -230 39.5t-184 107.5t-132.5 158t-83 193.5t-27.5 212.5t27.5 212t83 192.5t132.5 156.5t184 106t230 39q298 0 478 -206v180h1230v-170h-1050v-428h782v-166h-782v-430h1050v-168h-1230v178q-184 -207 -478 -207zM324 682q0 -80 19 -156.5t57.5 -143.5
t92 -118t129 -80.5t162.5 -29.5q108 0 197.5 45t147 119.5t89 168t31.5 193.5t-31.5 194t-89 169t-147 120t-197.5 45q-87 0 -162.5 -29.5t-129 -80t-92 -118t-57.5 -143.5t-19 -155z" />
    <glyph glyph-name="oe" unicode="&#x153;" horiz-adv-x="2619" 
d="M784 -31q-123 0 -230 39.5t-184 107.5t-132.5 158t-83 193.5t-27.5 212.5t27.5 212t83 192.5t132.5 156.5t184 106t230 39q298 0 478 -206v180h1230v-170h-1050v-428h782v-166h-782v-430h1050v-168h-1230v178q-184 -207 -478 -207zM324 682q0 -80 19 -156.5t57.5 -143.5
t92 -118t129 -80.5t162.5 -29.5q108 0 197.5 45t147 119.5t89 168t31.5 193.5t-31.5 194t-89 169t-147 120t-197.5 45q-87 0 -162.5 -29.5t-129 -80t-92 -118t-57.5 -143.5t-19 -155z" />
    <glyph glyph-name="Racute" unicode="&#x154;" horiz-adv-x="1613" 
d="M770 1692l201 286h-199l-133 -286h131zM190 0h181v596h530l338 -596h203l-342 596q10 0 30.5 1t30.5 1q80 4 142 38t99 88t56 117.5t19 133.5q0 77 -23 146t-66.5 122.5t-113.5 85t-158 31.5h-926v-1360zM371 762v428h745q87 0 132.5 -62.5t45.5 -154.5
q0 -94 -44.5 -152.5t-133.5 -58.5h-745z" />
    <glyph glyph-name="racute" unicode="&#x155;" horiz-adv-x="1613" 
d="M770 1692l201 286h-197l-135 -286h131zM190 0h181v596h530l338 -596h203l-342 596q10 0 30.5 1t30.5 1q80 4 142 38t99 88t56 117.5t19 133.5q0 77 -23 146t-66.5 122.5t-113.5 85t-158 31.5h-926v-1360zM371 762v428h745q87 0 132.5 -62.5t45.5 -154.5
q0 -94 -44.5 -152.5t-133.5 -58.5h-745z" />
    <glyph glyph-name="Rcaron" unicode="&#x158;" horiz-adv-x="1613" 
d="M592 1978l135 -286h158l133 286h-133l-80 -137l-78 137h-135zM190 0h181v596h530l338 -596h203l-342 596q10 0 30.5 1t30.5 1q80 4 142 38t99 88t56 117.5t19 133.5q0 77 -23 146t-66.5 122.5t-113.5 85t-158 31.5h-926v-1360zM371 762v428h745q87 0 132.5 -62.5
t45.5 -154.5q0 -94 -44.5 -152.5t-133.5 -58.5h-745z" />
    <glyph glyph-name="rcaron" unicode="&#x159;" horiz-adv-x="1613" 
d="M592 1978l135 -286h158l133 286h-133l-80 -137l-78 137h-135zM190 0h181v596h530l338 -596h203l-342 596q10 0 30.5 1t30.5 1q80 4 142 38t99 88t56 117.5t19 133.5q0 77 -23 146t-66.5 122.5t-113.5 85t-158 31.5h-926v-1360zM371 762v428h745q87 0 132.5 -62.5
t45.5 -154.5q0 -94 -44.5 -152.5t-133.5 -58.5h-745z" />
    <glyph glyph-name="Sacute" unicode="&#x15a;" horiz-adv-x="1456" 
d="M692 1692l203 286h-201l-131 -286h129zM127 342l6 -23q18 -97 85.5 -168.5t162 -109t189.5 -55t190 -17.5q89 0 169 13.5t154.5 45.5t128.5 80t86.5 122t32.5 167q0 72 -20 130t-53 97t-83 68t-100.5 45t-116 25.5t-119.5 12.5t-120 3q-56 0 -105.5 5t-102.5 19
t-90.5 36.5t-62 61t-24.5 89.5q0 62 34.5 109t91 72.5t120 38t131.5 12.5q61 0 122 -10t120 -30.5t102.5 -59t58.5 -89.5l6 -14h183l-7 24q-13 77 -58 138.5t-106.5 99t-139 62.5t-151 34.5t-147.5 9.5q-85 0 -161 -13t-146.5 -43.5t-121 -76.5t-81 -116.5t-30.5 -159.5
q0 -69 18.5 -124.5t49 -93.5t77 -66t94 -43.5t109.5 -24.5t113.5 -12t115.5 -3q75 0 140.5 -9t133 -31.5t107 -69t39.5 -113.5q0 -54 -26 -97.5t-67 -71t-96.5 -46t-110.5 -26t-112 -7.5q-63 0 -126 9.5t-125.5 30t-109 59t-63.5 90.5l-6 14h-182z" />
    <glyph glyph-name="sacute" unicode="&#x15b;" horiz-adv-x="1456" 
d="M692 1692l203 286h-199l-133 -286h129zM127 342l6 -23q18 -97 85.5 -168.5t162 -109t189.5 -55t190 -17.5q89 0 169 13.5t154.5 45.5t128.5 80t86.5 122t32.5 167q0 72 -20 130t-53 97t-83 68t-100.5 45t-116 25.5t-119.5 12.5t-120 3q-56 0 -105.5 5t-102.5 19
t-90.5 36.5t-62 61t-24.5 89.5q0 62 34.5 109t91 72.5t120 38t131.5 12.5q61 0 122 -10t120 -30.5t102.5 -59t58.5 -89.5l6 -14h183l-7 24q-13 77 -58 138.5t-106.5 99t-139 62.5t-151 34.5t-147.5 9.5q-85 0 -161 -13t-146.5 -43.5t-121 -76.5t-81 -116.5t-30.5 -159.5
q0 -69 18.5 -124.5t49 -93.5t77 -66t94 -43.5t109.5 -24.5t113.5 -12t115.5 -3q75 0 140.5 -9t133 -31.5t107 -69t39.5 -113.5q0 -54 -26 -97.5t-67 -71t-96.5 -46t-110.5 -26t-112 -7.5q-63 0 -126 9.5t-125.5 30t-109 59t-63.5 90.5l-6 14h-182z" />
    <glyph glyph-name="Scircumflex" unicode="&#x15c;" horiz-adv-x="1456" 
d="M942 1692l-135 284h-158l-133 -284h133l80 137l78 -137h135zM127 342l6 -23q18 -97 85.5 -168.5t162 -109t189.5 -55t190 -17.5q89 0 169 13.5t154.5 45.5t128.5 80t86.5 122t32.5 167q0 72 -20 130t-53 97t-83 68t-100.5 45t-116 25.5t-119.5 12.5t-120 3
q-56 0 -105.5 5t-102.5 19t-90.5 36.5t-62 61t-24.5 89.5q0 62 34.5 109t91 72.5t120 38t131.5 12.5q61 0 122 -10t120 -30.5t102.5 -59t58.5 -89.5l6 -14h183l-7 24q-13 77 -58 138.5t-106.5 99t-139 62.5t-151 34.5t-147.5 9.5q-85 0 -161 -13t-146.5 -43.5t-121 -76.5
t-81 -116.5t-30.5 -159.5q0 -69 18.5 -124.5t49 -93.5t77 -66t94 -43.5t109.5 -24.5t113.5 -12t115.5 -3q75 0 140.5 -9t133 -31.5t107 -69t39.5 -113.5q0 -54 -26 -97.5t-67 -71t-96.5 -46t-110.5 -26t-112 -7.5q-63 0 -126 9.5t-125.5 30t-109 59t-63.5 90.5l-6 14h-182z
" />
    <glyph glyph-name="scircumflex" unicode="&#x15d;" horiz-adv-x="1456" 
d="M942 1692l-135 284h-158l-133 -284h133l80 137l78 -137h135zM127 342l6 -23q18 -97 85.5 -168.5t162 -109t189.5 -55t190 -17.5q89 0 169 13.5t154.5 45.5t128.5 80t86.5 122t32.5 167q0 72 -20 130t-53 97t-83 68t-100.5 45t-116 25.5t-119.5 12.5t-120 3
q-56 0 -105.5 5t-102.5 19t-90.5 36.5t-62 61t-24.5 89.5q0 62 34.5 109t91 72.5t120 38t131.5 12.5q61 0 122 -10t120 -30.5t102.5 -59t58.5 -89.5l6 -14h183l-7 24q-13 77 -58 138.5t-106.5 99t-139 62.5t-151 34.5t-147.5 9.5q-85 0 -161 -13t-146.5 -43.5t-121 -76.5
t-81 -116.5t-30.5 -159.5q0 -69 18.5 -124.5t49 -93.5t77 -66t94 -43.5t109.5 -24.5t113.5 -12t115.5 -3q75 0 140.5 -9t133 -31.5t107 -69t39.5 -113.5q0 -54 -26 -97.5t-67 -71t-96.5 -46t-110.5 -26t-112 -7.5q-63 0 -126 9.5t-125.5 30t-109 59t-63.5 90.5l-6 14h-182z
" />
    <glyph glyph-name="Scedilla" unicode="&#x15e;" horiz-adv-x="1456" 
d="M829 -229q0 59 -110 59q-34 0 -66 -4q28 68 54 145q-73 4 -143 16t-144 38.5t-131.5 64.5t-100 97t-55.5 132l-6 23h182l6 -14q17 -52 63.5 -90.5t109 -59t125.5 -30t126 -9.5q57 0 112 7.5t110.5 26t96.5 46t67 71t26 97.5q0 67 -39.5 113.5t-107 69t-133 31.5t-140.5 9
q-64 0 -115.5 3t-113.5 12t-109.5 24.5t-94 43.5t-77 66t-49 93.5t-18.5 124.5q0 89 30.5 159.5t81 116.5t121 76.5t146.5 43.5t161 13q74 0 147.5 -9.5t151 -34.5t139 -62.5t106.5 -99t58 -138.5l7 -24h-183l-6 14q-15 51 -58.5 89.5t-102.5 59t-120 30.5t-122 10
q-68 0 -131.5 -12.5t-120 -38t-91 -72.5t-34.5 -109q0 -51 24.5 -89.5t62 -61t90.5 -36.5t102.5 -19t105.5 -5q66 0 120 -3t119.5 -12.5t116 -25.5t100.5 -45t83 -68t53 -97t20 -130q0 -87 -29.5 -158t-78.5 -118.5t-117 -81t-142 -50t-157 -20.5l-6 -30h4q137 -30 137 -164
q0 -88 -56 -138.5t-145 -50.5q-102 0 -156.5 48.5t-68.5 148.5h113q10 -45 35.5 -63.5t72.5 -18.5q35 0 63.5 17t28.5 53z" />
    <glyph glyph-name="scedilla" unicode="&#x15f;" horiz-adv-x="1456" 
d="M829 -229q0 59 -110 59q-34 0 -66 -4q28 68 54 145q-73 4 -143 16t-144 38.5t-131.5 64.5t-100 97t-55.5 132l-6 23h182l6 -14q17 -52 63.5 -90.5t109 -59t125.5 -30t126 -9.5q57 0 112 7.5t110.5 26t96.5 46t67 71t26 97.5q0 67 -39.5 113.5t-107 69t-133 31.5t-140.5 9
q-64 0 -115.5 3t-113.5 12t-109.5 24.5t-94 43.5t-77 66t-49 93.5t-18.5 124.5q0 89 30.5 159.5t81 116.5t121 76.5t146.5 43.5t161 13q74 0 147.5 -9.5t151 -34.5t139 -62.5t106.5 -99t58 -138.5l7 -24h-183l-6 14q-15 51 -58.5 89.5t-102.5 59t-120 30.5t-122 10
q-68 0 -131.5 -12.5t-120 -38t-91 -72.5t-34.5 -109q0 -51 24.5 -89.5t62 -61t90.5 -36.5t102.5 -19t105.5 -5q66 0 120 -3t119.5 -12.5t116 -25.5t100.5 -45t83 -68t53 -97t20 -130q0 -87 -29.5 -158t-78.5 -118.5t-117 -81t-142 -50t-157 -20.5l-6 -30h4q137 -30 137 -164
q0 -88 -56 -138.5t-145 -50.5q-102 0 -156.5 48.5t-68.5 148.5h113q10 -45 35.5 -63.5t72.5 -18.5q35 0 63.5 17t28.5 53z" />
    <glyph glyph-name="Scaron" unicode="&#x160;" horiz-adv-x="1456" 
d="M516 1978l133 -286h158l135 286h-135l-78 -137l-80 137h-133zM127 342l6 -23q18 -97 85.5 -168.5t162 -109t189.5 -55t190 -17.5q89 0 169 13.5t154.5 45.5t128.5 80t86.5 122t32.5 167q0 72 -20 130t-53 97t-83 68t-100.5 45t-116 25.5t-119.5 12.5t-120 3
q-56 0 -105.5 5t-102.5 19t-90.5 36.5t-62 61t-24.5 89.5q0 62 34.5 109t91 72.5t120 38t131.5 12.5q61 0 122 -10t120 -30.5t102.5 -59t58.5 -89.5l6 -14h183l-7 24q-13 77 -58 138.5t-106.5 99t-139 62.5t-151 34.5t-147.5 9.5q-85 0 -161 -13t-146.5 -43.5t-121 -76.5
t-81 -116.5t-30.5 -159.5q0 -69 18.5 -124.5t49 -93.5t77 -66t94 -43.5t109.5 -24.5t113.5 -12t115.5 -3q75 0 140.5 -9t133 -31.5t107 -69t39.5 -113.5q0 -54 -26 -97.5t-67 -71t-96.5 -46t-110.5 -26t-112 -7.5q-63 0 -126 9.5t-125.5 30t-109 59t-63.5 90.5l-6 14h-182z
" />
    <glyph glyph-name="scaron" unicode="&#x161;" horiz-adv-x="1456" 
d="M516 1978l133 -286h158l135 286h-135l-78 -137l-80 137h-133zM127 342l6 -23q18 -97 85.5 -168.5t162 -109t189.5 -55t190 -17.5q89 0 169 13.5t154.5 45.5t128.5 80t86.5 122t32.5 167q0 72 -20 130t-53 97t-83 68t-100.5 45t-116 25.5t-119.5 12.5t-120 3
q-56 0 -105.5 5t-102.5 19t-90.5 36.5t-62 61t-24.5 89.5q0 62 34.5 109t91 72.5t120 38t131.5 12.5q61 0 122 -10t120 -30.5t102.5 -59t58.5 -89.5l6 -14h183l-7 24q-13 77 -58 138.5t-106.5 99t-139 62.5t-151 34.5t-147.5 9.5q-85 0 -161 -13t-146.5 -43.5t-121 -76.5
t-81 -116.5t-30.5 -159.5q0 -69 18.5 -124.5t49 -93.5t77 -66t94 -43.5t109.5 -24.5t113.5 -12t115.5 -3q75 0 140.5 -9t133 -31.5t107 -69t39.5 -113.5q0 -54 -26 -97.5t-67 -71t-96.5 -46t-110.5 -26t-112 -7.5q-63 0 -126 9.5t-125.5 30t-109 59t-63.5 90.5l-6 14h-182z
" />
    <glyph glyph-name="Utilde" unicode="&#x168;" horiz-adv-x="1583" 
d="M952 1898q-48 -59 -75 -71h-5q-12 7 -36 31l-37 30q-42 39 -92 39q-52 0 -117 -65l-29 -33v-135q23 18 68 63q61 56 76 66l4 2q16 -3 32 -19q25 -20 37 -34q50 -46 96 -46q36 0 60.5 16t54.5 50q21 21 33 31v149q-8 -8 -31.5 -33.5t-38.5 -40.5zM190 649
q0 -100 24 -197.5t74.5 -184.5t120.5 -153.5t169.5 -105.5t214.5 -39q116 0 215.5 39t169.5 105.5t119.5 154t73.5 184.5t24 197v711h-181v-711q0 -92 -27.5 -179.5t-79 -158.5t-133 -114t-181.5 -43t-182 43t-133 114t-79 158.5t-28 179.5v711h-181v-711z" />
    <glyph glyph-name="utilde" unicode="&#x169;" horiz-adv-x="1583" 
d="M954 1898q-53 -60 -77 -71h-5q-8 5 -21 17t-15 14q-69 69 -129 69q-57 0 -115 -65l-31 -33v-135q18 13 68 63q56 52 76 66l4 2q16 -3 32 -19q18 -12 37 -34q50 -46 99 -46q35 0 58.5 16t53.5 50q21 21 33 31v149q-8 -8 -30.5 -33.5t-37.5 -40.5zM190 649
q0 -100 24 -197.5t74.5 -184.5t120.5 -153.5t169.5 -105.5t214.5 -39q116 0 215.5 39t169.5 105.5t119.5 154t73.5 184.5t24 197v711h-181v-711q0 -92 -27.5 -179.5t-79 -158.5t-133 -114t-181.5 -43t-182 43t-133 114t-79 158.5t-28 179.5v711h-181v-711z" />
    <glyph glyph-name="Umacron" unicode="&#x16a;" horiz-adv-x="1583" 
d="M592 1638h397v101h-397v-101zM190 649q0 -100 24 -197.5t74.5 -184.5t120.5 -153.5t169.5 -105.5t214.5 -39q116 0 215.5 39t169.5 105.5t119.5 154t73.5 184.5t24 197v711h-181v-711q0 -92 -27.5 -179.5t-79 -158.5t-133 -114t-181.5 -43t-182 43t-133 114t-79 158.5
t-28 179.5v711h-181v-711z" />
    <glyph glyph-name="umacron" unicode="&#x16b;" horiz-adv-x="1583" 
d="M592 1638h399v101h-399v-101zM190 649q0 -100 24 -197.5t74.5 -184.5t120.5 -153.5t169.5 -105.5t214.5 -39q116 0 215.5 39t169.5 105.5t119.5 154t73.5 184.5t24 197v711h-181v-711q0 -92 -27.5 -179.5t-79 -158.5t-133 -114t-181.5 -43t-182 43t-133 114t-79 158.5
t-28 179.5v711h-181v-711z" />
    <glyph glyph-name="Uring" unicode="&#x16e;" horiz-adv-x="1583" 
d="M791 1978q-63 0 -102.5 -40t-39.5 -103q0 -62 39.5 -102.5t102.5 -40.5q64 0 102.5 40.5t38.5 102.5q0 65 -38.5 104t-102.5 39zM190 649q0 -100 24 -197.5t74.5 -184.5t120.5 -153.5t169.5 -105.5t214.5 -39q116 0 215.5 39t169.5 105.5t119.5 154t73.5 184.5t24 197
v711h-181v-711q0 -92 -27.5 -179.5t-79 -158.5t-133 -114t-181.5 -43t-182 43t-133 114t-79 158.5t-28 179.5v711h-181v-711zM758 1835q0 31 33 31q30 0 30 -31q0 -29 -30 -29q-33 0 -33 29z" />
    <glyph glyph-name="uring" unicode="&#x16f;" horiz-adv-x="1583" 
d="M793 1978q-64 0 -104 -40t-40 -103q0 -62 40 -102.5t104 -40.5q62 0 101.5 40.5t39.5 102.5q0 64 -39 103.5t-102 39.5zM190 649q0 -100 24 -197.5t74.5 -184.5t120.5 -153.5t169.5 -105.5t214.5 -39q116 0 215.5 39t169.5 105.5t119.5 154t73.5 184.5t24 197v711h-181
v-711q0 -92 -27.5 -179.5t-79 -158.5t-133 -114t-181.5 -43t-182 43t-133 114t-79 158.5t-28 179.5v711h-181v-711zM760 1835q0 31 33 31q30 0 30 -31q0 -29 -30 -29q-33 0 -33 29z" />
    <glyph glyph-name="Wcircumflex" unicode="&#x174;" horiz-adv-x="1691" 
d="M1059 1692l-135 284h-158l-133 -284h133l80 137l78 -137h135zM100 1360l154 -1360h215l377 881l383 -881h213l149 1360h-172l-121 -1073l-344 780h-213l-335 -780l-132 1073h-174z" />
    <glyph glyph-name="wcircumflex" unicode="&#x175;" horiz-adv-x="1691" 
d="M1059 1692l-135 284h-158l-133 -284h133l80 137l78 -137h135zM100 1360l154 -1360h215l377 881l383 -881h213l149 1360h-172l-121 -1073l-344 780h-213l-335 -780l-132 1073h-174z" />
    <glyph glyph-name="Ycircumflex" unicode="&#x176;" horiz-adv-x="1341" 
d="M885 1692l-135 284h-158l-133 -284h133l80 137l78 -137h135zM51 1360l531 -885v-475h180l-2 475l530 885h-209l-407 -690l-418 690h-205z" />
    <glyph glyph-name="ycircumflex" unicode="&#x177;" horiz-adv-x="1341" 
d="M885 1692l-135 284h-158l-133 -284h133l80 137l78 -137h135zM51 1360l531 -885v-475h180l-2 475l530 885h-209l-407 -690l-418 690h-205z" />
    <glyph glyph-name="Ydieresis" unicode="&#x178;" horiz-adv-x="1341" 
d="M524 1942q-46 0 -75 -28.5t-29 -74.5q0 -48 28.5 -75t75.5 -27q49 0 79 26.5t30 75.5q0 47 -30.5 75t-78.5 28zM51 1360l531 -885v-475h180l-2 475l530 885h-209l-407 -690l-418 690h-205zM709 1835q0 -47 29 -74.5t75 -27.5q50 0 80.5 27.5t30.5 74.5q0 49 -30.5 76.5
t-80.5 27.5q-46 0 -75 -28.5t-29 -75.5z" />
    <glyph glyph-name="Zacute" unicode="&#x179;" 
d="M731 1692l203 286h-201l-133 -286h131zM152 0h1230v166h-991l967 1026v168h-1182v-170h938l-962 -1026v-164z" />
    <glyph glyph-name="zacute" unicode="&#x17a;" 
d="M731 1692l203 286h-199l-135 -286h131zM152 0h1230v166h-991l967 1026v168h-1182v-170h938l-962 -1026v-164z" />
    <glyph glyph-name="Zdotaccent" unicode="&#x17b;" 
d="M764 1939q-46 0 -74 -27.5t-28 -76.5q0 -46 28 -74t74 -28q50 0 80 27.5t30 74.5q0 49 -30 76.5t-80 27.5zM152 0h1230v166h-991l967 1026v168h-1182v-170h938l-962 -1026v-164z" />
    <glyph glyph-name="zdotaccent" unicode="&#x17c;" 
d="M764 1939q-46 0 -74 -27.5t-28 -76.5q0 -46 28 -74t74 -28q50 0 80 27.5t30 74.5q0 49 -30 76.5t-80 27.5zM152 0h1230v166h-991l967 1026v168h-1182v-170h938l-962 -1026v-164z" />
    <glyph glyph-name="Zcaron" unicode="&#x17d;" 
d="M555 1978l133 -286h158l135 286h-135l-78 -137l-80 137h-133zM152 0h1230v166h-991l967 1026v168h-1182v-170h938l-962 -1026v-164z" />
    <glyph glyph-name="zcaron" unicode="&#x17e;" 
d="M555 1978l133 -286h158l135 286h-135l-78 -137l-80 137h-133zM152 0h1230v166h-991l967 1026v168h-1182v-170h938l-962 -1026v-164z" />
    <glyph glyph-name="circumflex" unicode="&#x2c6;" horiz-adv-x="624" 
d="M543 1182l-133 286h-158l-135 -286h135l78 139l80 -139h133z" />
    <glyph glyph-name="caron" unicode="&#x2c7;" horiz-adv-x="624" 
d="M117 1470l135 -288h158l133 288h-133l-80 -139l-78 139h-135z" />
    <glyph glyph-name="dotaccent" unicode="&#x2d9;" horiz-adv-x="282" 
d="M147 1432q-46 0 -75 -29t-29 -76q0 -46 29 -75t75 -29q48 0 78.5 28.5t30.5 75.5t-30.5 76t-78.5 29z" />
    <glyph glyph-name="ring" unicode="&#x2da;" horiz-adv-x="585" 
d="M252 1470q-62 0 -101.5 -40.5t-39.5 -102.5q0 -63 39 -104t102 -41q62 0 100.5 40.5t38.5 104.5q0 65 -38 104t-101 39zM219 1327q0 29 33 29q29 0 29 -29q0 -31 -29 -31q-18 0 -25.5 6.5t-7.5 24.5z" />
    <glyph glyph-name="tilde" unicode="&#x2dc;" horiz-adv-x="565" 
d="M434 1389q-47 -57 -76 -70h-4q-19 11 -37 29l-36 32q-49 39 -91 39q-51 0 -118 -67l-29 -31v-137q38 33 68 63q7 6 19 17.5t19 18.5t18 16t21 16l5 2q15 -3 30 -21q25 -20 37 -32q45 -45 96 -45q36 0 61 15.5t54 47.5q21 21 35 33v147q-25 -22 -72 -73z" />
    <glyph glyph-name="Wgrave" unicode="&#x1e80;" horiz-adv-x="1691" 
d="M682 1978l201 -286h129l-131 286h-199zM100 1360l154 -1360h215l377 881l383 -881h213l149 1360h-172l-121 -1073l-344 780h-213l-335 -780l-132 1073h-174z" />
    <glyph glyph-name="wgrave" unicode="&#x1e81;" horiz-adv-x="1691" 
d="M682 1978l201 -286h127l-129 286h-199zM100 1360l154 -1360h215l377 881l383 -881h213l149 1360h-172l-121 -1073l-344 780h-213l-335 -780l-132 1073h-174z" />
    <glyph glyph-name="Wacute" unicode="&#x1e82;" horiz-adv-x="1691" 
d="M809 1692l203 286h-201l-131 -286h129zM100 1360l154 -1360h215l377 881l383 -881h213l149 1360h-172l-121 -1073l-344 780h-213l-335 -780l-132 1073h-174z" />
    <glyph glyph-name="wacute" unicode="&#x1e83;" horiz-adv-x="1691" 
d="M809 1692l203 286h-199l-133 -286h129zM100 1360l154 -1360h215l377 881l383 -881h213l149 1360h-172l-121 -1073l-344 780h-213l-335 -780l-132 1073h-174z" />
    <glyph glyph-name="Wdieresis" unicode="&#x1e84;" horiz-adv-x="1691" 
d="M698 1942q-46 0 -75 -28.5t-29 -74.5q0 -48 28.5 -75t75.5 -27q49 0 79 26.5t30 75.5q0 47 -30.5 75t-78.5 28zM100 1360l154 -1360h215l377 881l383 -881h213l149 1360h-172l-121 -1073l-344 780h-213l-335 -780l-132 1073h-174zM885 1835q0 -47 28.5 -74.5t75.5 -27.5
q48 0 79.5 28t31.5 74q0 48 -31 76t-80 28q-47 0 -75.5 -28.5t-28.5 -75.5z" />
    <glyph glyph-name="wdieresis" unicode="&#x1e85;" horiz-adv-x="1691" 
d="M698 1942q-47 0 -75.5 -28.5t-28.5 -74.5q0 -49 28 -75.5t76 -26.5q49 0 79 26.5t30 75.5q0 47 -30.5 75t-78.5 28zM100 1360l154 -1360h215l377 881l383 -881h213l149 1360h-172l-121 -1073l-344 780h-213l-335 -780l-132 1073h-174zM885 1835q0 -47 28.5 -74.5
t75.5 -27.5q48 0 78.5 27.5t30.5 74.5q0 48 -30.5 76t-78.5 28q-47 0 -75.5 -28.5t-28.5 -75.5z" />
    <glyph glyph-name="uni1E9E" unicode="&#x1e9e;" horiz-adv-x="1118" 
d="M545 -29q499 43 499 373v2q0 230 -208 338q168 107 168 317v5q0 176 -122.5 274t-346.5 98h-478v-1614l168 -6l2 1471h305q139 0 230.5 -63t91.5 -191q0 -38 -8.5 -69t-21.5 -53.5t-36.5 -40t-44 -29t-55 -19.5t-58 -12t-63.5 -6t-63 -2.5t-64 -0.5h-34v-137l6 2h61
q45 0 77.5 -1t79.5 -6.5t81 -14.5t71 -26.5t60 -42t38 -62t15 -84.5q0 -68 -30.5 -118.5t-82.5 -77.5t-111 -39.5t-126 -12.5h-25v-154z" />
    <glyph glyph-name="Ygrave" unicode="&#x1ef2;" horiz-adv-x="1341" 
d="M582 0h180l-2 475l530 885h-209l-407 -690l-418 690h-205l531 -885v-475zM436 1978l201 -286h131l-133 286h-199z" />
    <glyph glyph-name="ygrave" unicode="&#x1ef3;" horiz-adv-x="1341" 
d="M582 0h180l-2 475l530 885h-209l-407 -690l-418 690h-205l531 -885v-475zM436 1978l201 -286h131l-133 286h-199z" />
    <glyph glyph-name="endash" unicode="&#x2013;" horiz-adv-x="2043" 
d="M190 762v-166h1665v166h-1665z" />
    <glyph glyph-name="emdash" unicode="&#x2014;" horiz-adv-x="2580" 
d="M190 762v-166h2202v166h-2202z" />
    <glyph glyph-name="quoteleft" unicode="&#x2018;" horiz-adv-x="516" 
d="M127 995q0 -30 5.5 -58.5t19 -58t42 -47.5t68.5 -18q66 0 96.5 44.5t30.5 103.5q0 54 -23 83.5t-73 49.5l-39 12q35 132 86 217l8 12l-39 37l-14 -12q-76 -69 -122 -169t-46 -196z" />
    <glyph glyph-name="quoteright" unicode="&#x2019;" horiz-adv-x="516" 
d="M166 866l39 -37l14 13q76 67 123 167t47 199q0 29 -5.5 56.5t-19 56.5t-42 47t-68.5 18q-66 0 -96.5 -43.5t-30.5 -103.5q0 -56 22.5 -83.5t75.5 -47.5l39 -12q-41 -137 -90 -215z" />
    <glyph glyph-name="quotesinglbase" unicode="&#x201a;" horiz-adv-x="516" 
d="M168 10l37 -43l16 17q74 67 121 168t47 198q0 29 -5.5 57t-19 58t-42 48.5t-68.5 18.5q-66 0 -96.5 -44t-30.5 -103q0 -105 98 -135q33 -11 39 -14q-45 -145 -90 -216z" />
    <glyph glyph-name="quotedblleft" unicode="&#x201c;" horiz-adv-x="1052" 
d="M127 995q0 -30 5.5 -58.5t19 -58t42 -47.5t68.5 -18q66 0 96.5 44.5t30.5 103.5q0 54 -23 83.5t-73 49.5l-39 12q35 132 86 217l8 12l-39 37l-14 -12q-76 -69 -122 -169t-46 -196zM668 995q0 -30 5.5 -58t18.5 -58t41 -48t68 -18q66 0 95.5 44.5t29.5 103.5
q0 55 -21.5 83.5t-73.5 49.5l-38 12q33 126 88 217l8 12l-39 37l-14 -12q-76 -69 -122 -169t-46 -196z" />
    <glyph glyph-name="quotedblright" unicode="&#x201d;" horiz-adv-x="1052" 
d="M166 866l39 -37l14 13q76 67 123 167t47 199q0 28 -5.5 55t-19 56.5t-42 48t-68.5 18.5q-66 0 -96.5 -43.5t-30.5 -103.5q0 -56 22.5 -83.5t75.5 -47.5l39 -12q-41 -137 -90 -215zM668 1239q0 -70 45 -106q19 -14 51 -25l39 -12q-43 -144 -90 -215l-6 -15l38 -37l15 13
q74 66 120 167t46 199q0 22 -3 43t-11.5 46.5t-22.5 44.5t-38 31.5t-56 12.5q-66 0 -96.5 -43.5t-30.5 -103.5z" />
    <glyph glyph-name="quotedblbase" unicode="&#x201e;" horiz-adv-x="1052" 
d="M168 10l37 -43l16 17q74 67 121 167.5t47 196.5q0 29 -5.5 57.5t-19.5 58.5t-42.5 49t-69.5 19q-64 0 -94.5 -45t-30.5 -102q0 -105 98 -135q33 -11 39 -14q-45 -145 -90 -216zM668 385q0 -54 22 -86t72 -49l41 -14q-45 -144 -86 -216l-10 -10l36 -43l17 17
q74 67 120 166.5t46 197.5q0 29 -5.5 57t-18.5 59t-41 49.5t-68 18.5q-65 0 -95 -45t-30 -102z" />
    <glyph glyph-name="dagger" unicode="&#x2020;" horiz-adv-x="937" 
d="M913 98h-335v-387h-183v387h-336v166h336v1387h183v-1387h335v-166z" />
    <glyph glyph-name="bullet" unicode="&#x2022;" horiz-adv-x="706" 
d="M127 680q0 -103 57.5 -173.5t167.5 -70.5q111 0 169.5 70t58.5 174q0 103 -58.5 172.5t-169.5 69.5q-110 0 -167.5 -70t-57.5 -172z" />
    <glyph glyph-name="ellipsis" unicode="&#x2026;" horiz-adv-x="1802" 
d="M166 113q0 -58 32 -101t97 -43q66 0 99.5 42t33.5 102q0 61 -34 102t-99 41q-64 0 -96.5 -42t-32.5 -101zM772 113q0 -59 31 -101.5t96 -42.5q67 0 101 42t34 102q0 62 -34 102.5t-101 40.5q-64 0 -95.5 -42t-31.5 -101zM1376 113q0 -58 31.5 -101t95.5 -43q67 0 101 42
t34 102q0 62 -34 102.5t-101 40.5q-63 0 -95 -42t-32 -101z" />
    <glyph glyph-name="guilsinglleft" unicode="&#x2039;" horiz-adv-x="835" 
d="M29 651l743 -362v168l-418 194l418 197v164z" />
    <glyph glyph-name="guilsinglright" unicode="&#x203a;" horiz-adv-x="862" 
d="M59 289l742 362l-742 361v-164l416 -197l-416 -194v-168z" />
    <glyph glyph-name="Euro" unicode="&#x20ac;" horiz-adv-x="1443" 
d="M201 596q15 -101 47.5 -191t86.5 -170.5t125.5 -139t170 -92.5t213.5 -34q141 0 267.5 52.5t217.5 152.5l14 14l-143 127l-16 -14q-61 -70 -148 -108.5t-184 -38.5q-172 0 -286 107.5t-156 277.5l-15 57h660v166h-660l15 57q43 172 155.5 280.5t284.5 108.5
q97 0 184 -38.5t150 -108.5l16 -17l143 125l-14 15q-88 100 -214.5 151t-268.5 51q-116 0 -214.5 -33t-170 -90.5t-126 -137.5t-87 -170.5t-47.5 -192.5h-138v-166h138z" />
    <glyph glyph-name="uni2120" unicode="&#x2120;" horiz-adv-x="1632" 
d="M63 870q0 -54 24 -97t62 -70t87.5 -44.5t97 -24.5t94.5 -7q52 0 98.5 7.5t90.5 26.5t75.5 47t50.5 72.5t19 100.5q0 52 -16.5 91t-41.5 62.5t-63.5 38.5t-73 21.5t-78.5 9.5q-19 1 -57 2.5t-65 3.5t-48 6q-34 6 -47.5 17.5t-13.5 33.5q0 39 49 54q39 16 96 16q21 0 46 -3
t54.5 -11t48.5 -24.5t19 -39.5l-2 -20h181v20q0 66 -34 116t-89 76.5t-114 39t-120 12.5q-63 0 -117.5 -13.5t-100.5 -41t-72.5 -76.5t-26.5 -115q0 -52 17 -91t42 -61t64 -36.5t73 -20t78 -8.5q15 -1 46 -2t46 -2q29 -2 80 -10q33 -6 47.5 -19t14.5 -37q0 -39 -54 -61
q-47 -16 -106 -16q-23 0 -49.5 3t-58.5 10.5t-53 24t-21 39.5v21h-179v-21zM795 639h176v428l108 -428h162l113 430v-430h178v762h-262l-107 -434l-110 434h-258v-762z" />
    <glyph glyph-name="trademark" unicode="&#x2122;" horiz-adv-x="1546" 
d="M276 1235v-596h187v596h209v166h-609v-166h213zM711 639h178v428l110 -428h158l115 432v-432h174v762h-258l-109 -434l-112 434h-256v-762z" />
    <glyph glyph-name="minus" unicode="&#x2212;" horiz-adv-x="1368" 
d="M190 762v-166h990v166h-990z" />
    <glyph glyph-name="_Designova" horiz-adv-x="1435" 
d="M717 39q-166 0 -308 83t-224.5 225t-82.5 308q1 125 50 238t131.5 195.5t196.5 131t239 48.5q166 0 307.5 -82t224 -223.5t82.5 -307.5q0 -167 -82.5 -309t-224.5 -224.5t-309 -82.5zM176 655q0 -148 72.5 -273t197.5 -197t273 -72q146 0 270.5 72t197.5 196.5t73 271.5
q0 148 -72.5 273t-197 197.5t-271.5 72.5t-272 -72.5t-198 -197t-73 -271.5zM369 762q8 0 12 -4q63 -22 111 -29q41 -3 77 2q34 8 49 14q5 0 11.5 3.5t7.5 3.5q-7 4 -22 11.5t-25.5 14.5t-18.5 17h21q37 0 82 18q83 51 151 70q27 8 62 8q7 0 24 1.5t25 0.5q65 -4 96 -37
q9 -6 33 -35v-2q-4 2 -6 2q-52 20 -92 5.5t-68 -56.5q-3 -4 -29 -65q-49 -113 -53 -121q-28 -63 -69 -113q-16 -23 -70 -63q-57 -40 -131 -60h-6l26 23q16 14 29 49q4 12 22.5 63t26.5 78q35 96 62 144q-7 -7 -11 -13q-9 -9 -10 -14q-19 -21 -35 -62q-4 -6 -10 -6
q-114 6 -195 76l-61 59q-3 3 -8 8.5t-8 8.5z" />
    <glyph glyph-name="_Origin" horiz-adv-x="1918" 
d="M102 41v1178h1715v-1176l-43 -2v2zM147 84h1627v641h-1627v-641zM297 229v131h31v-131h-31zM301 905h70q60 0 86 41q10 18 10 47q0 56 -45 78q-18 10 -49 10h-72v-176zM319 451v129h111v-23h-80v-29h72v-22h-72v-33h80v-22h-111zM342 938v111h27q37 0 51 -23q6 -24 6 -33
q0 -37 -27 -49q-12 -6 -30 -6h-27zM348 229v131h25l65 -77v77h31v-131h-25l-65 82v-82h-31zM451 451v129h26l66 -78v78h28v-129h-24l-66 79v-79h-30zM483 971q0 -46 35 -60q10 -6 39 -6q38 0 55 17q11 15 13 22l-39 2q-3 -8 -17 -14h-12q-23 0 -29 14q-6 9 -6 17h103v10
q0 33 -21 51q-19 16 -49 16q-42 0 -63 -32q-9 -22 -9 -37zM522 985q3 16 17 23q6 6 16 6q24 0 27 -17q4 -4 4 -12h-64zM537 229v131h65q53 0 53 -32q0 -22 -18 -29q2 0 2 -2q20 -7 20 -31q0 -37 -53 -37h-69zM567 254h37q25 0 25 16q0 15 -25 15h-37v-31zM567 311h33
q25 0 25 15q0 16 -25 16h-33v-31zM594 557v23h115v-23h-43v-106h-29v106h-43zM637 944q6 -39 68 -39q41 0 59 21q6 9 6 20q0 29 -41 37l-29 4q-18 3 -18 14q0 13 23 13q24 0 24 -15l39 2q-7 39 -63 39q-39 0 -56 -20q-8 -8 -8 -21q0 -30 41 -38l27 -5q20 -3 20 -12
q0 -14 -24 -14t-27 16zM674 229v131h108v-24h-80v-27h72v-24h-72v-29h78v-27h-106zM721 580h33l30 -91l31 91h27l30 -93l31 93h29l-41 -129h-35l-29 88l-28 -88h-33zM786 905h43v133h-43v-133zM786 1073q0 -7 7 -12.5t16 -5.5t15.5 5.5t6.5 12.5q0 8 -6.5 13.5t-15.5 5.5
t-16 -6t-7 -13zM803 229v131h61q21 0 29 -4q29 -14 29 -43q0 -12 -9 -24q-18 -18 -20 -19l27 -41h-33l-25 39h-26v-39h-33zM836 293h26q29 0 29 20q0 23 -29 23h-26v-43zM848 973q0 -46 31 -58q12 -6 30 -6q22 0 33 11q8 4 8 10h2v-25q0 -24 -30 -24q-19 0 -27 8l-4 8
l-39 -6q3 -16 21 -26.5t47 -10.5q43 0 63 23q10 10 10 28v133h-41v-22h-2q-3 14 -22 20q-8 4 -19 4q-38 0 -53 -30q-8 -13 -8 -37zM891 973q0 24 12 33q9 6 19 6q18 0 28 -21q0 -2 1 -8.5t1 -9.5q0 -37 -30 -37q-20 0 -29 18q-2 4 -2 19zM936 229v131h29v-104h77v-27h-106z
M938 516q0 27 20 47q18 21 52 21q33 0 51 -21q20 -20 20 -47q0 -26 -20 -49q-18 -18 -51 -18q-34 0 -52 18q-20 23 -20 49zM969 516q0 -19 11 -31t30 -12t30 12t11 31t-11 31t-30 12t-30 -12t-11 -31zM1018 905h41v78q0 17 14 23q4 4 14 4q25 0 25 -27v-78h43v84
q0 34 -25 43q-11 8 -26 8q-32 0 -45 -26v24h-41v-133zM1065 229v131h31v-131h-31zM1100 451v129h57q23 0 31 -2q26 -14 26 -43q0 -15 -6 -27q-7 -10 -22 -16l28 -41h-32l-25 36h-29v-36h-28zM1116 229v131h27l63 -77v77h33v-131h-27l-65 82v-82h-31zM1128 512h27q29 0 29 23
q0 22 -29 22h-27v-45zM1174 971q0 -42 34 -60q10 -6 39 -6q44 0 66 31q8 20 8 35q0 40 -35 61q-24 8 -39 8q-44 0 -65 -32q-8 -20 -8 -37zM1217 973q0 24 12 33q9 6 18 6q20 0 27 -21q4 -8 4 -18q0 -27 -14 -35q-6 -6 -17 -6q-18 0 -28 20q-2 6 -2 21zM1231 451v129h108v-23
h-77v-29h69v-22h-69v-55h-31zM1257 248q0 18 19 18q8 0 13 -5t5 -13q0 -7 -6 -19l-10 -28h-18l8 30q-11 4 -11 17zM1321 1038l53 -133h45l54 133h-43l-31 -94h-2l-31 94h-45zM1352 451v129h108v-23h-78v-29h70v-22h-70v-33h78v-22h-108zM1368 229v131h59q23 0 39 -8
q33 -13 33 -55q0 -24 -8 -37q-17 -31 -64 -31h-59zM1399 256h26q17 0 25 4q18 12 18 37q0 16 -4 20q-10 19 -39 19h-26v-80zM1475 944q0 -29 22 -35q8 -4 27 -4q22 0 35 8l8 13h2v-21h37v90q0 21 -17 35q-23 10 -45 10q-35 0 -53 -18q-9 -9 -12 -21l39 -4q4 17 26 17
q21 0 21 -17v-2q0 -7 -15 -10q-12 0 -20 -2q-22 0 -39 -10q-16 -8 -16 -29zM1483 451v129h22l68 -78v78h31v-129h-27l-66 79v-79h-28zM1513 944q0 8 13 14q3 3 12 3q3 1 14.5 3t14.5 3v-13q0 -15 -17 -22q-1 0 -6 -1t-10 -1q-21 0 -21 14zM1518 229v131h108v-24h-78v-27h70
v-24h-70v-29h78v-27h-108z" />
    <glyph glyph-name="_Typeface" horiz-adv-x="1718" 
d="M102 365v553h1514v-553h-1514zM268 510h35v211l174 -211h35v264h-35v-209l-174 209h-35v-264zM569 643q0 -56 35 -97.5t92 -41.5q59 0 94 41.5t35 97.5t-35 96.5t-94 40.5q-57 0 -92 -41.5t-35 -95.5zM608 643q0 40 24 71t64 31t65 -31t25 -71q0 -41 -24.5 -72.5
t-65.5 -31.5q-40 0 -64 31.5t-24 72.5zM887 510h35v117h104l64 -117h38l-65 117h12q30 1 46 22.5t16 50.5q0 31 -19 52.5t-53 21.5h-178v-264zM922 657v84h143q18 0 27.5 -12.5t9.5 -30.5q0 -41 -37 -41h-143zM1202 510h123q58 0 92.5 39t34.5 94t-34.5 93t-92.5 38h-123
v-264zM1239 543v198h86q41 0 64.5 -29.5t23.5 -68.5q0 -41 -23.5 -70.5t-64.5 -29.5h-86z" />
    <glyph glyph-name="_VendorID" horiz-adv-x="1132" 
d="M102 147v1131h928v-1131h-928zM106 61q0 11 8 19t17 8q8 0 10 -4l4 -4v24h13v-69h-13v10l-4 -8q-4 -4 -14 -4q-21 0 -21 28zM119 61q0 -16 12 -16q14 0 14 16q0 17 -12 17q-14 0 -14 -17zM168 61q0 11 7.5 19t17.5 8t17 -8t7 -19q0 -2 -2 -4h-35q2 -12 13 -12q10 0 12 8
h10q-3 -20 -22 -20q-25 0 -25 28zM180 63h25q-3 15 -12 15q-10 0 -13 -15zM221 49h15q4 -8 8 -8q8 0 8 8q0 1 -10 8q-19 3 -19 15q0 16 21 16q20 0 20 -16h-14q0 6 -6 6t-6 -4t10 -11q16 -3 16 -14q0 -16 -20 -16t-23 16zM262 434q0 -58 40 -98.5t99 -40.5q57 0 96.5 40.5
t39.5 98.5q0 59 -38 98t-98 39q-16 0 -22 -2l80 115h-62l-92 -131q-43 -61 -43 -119zM262 883q0 -57 40.5 -97.5t98.5 -40.5q57 0 96.5 40t39.5 98q0 59 -38 98t-98 39q-16 0 -22 -2l80 117h-62l-92 -136q-43 -64 -43 -116zM272 35v53h15v-53h-15zM272 98q0 6 9 6q6 0 6 -6
q0 -8 -6 -8q-9 0 -9 8zM309 33q0 -8 13 -8q10 0 14 12v8l-4 -8q-2 0 -6.5 -1t-6.5 -1q-22 0 -22 26q0 12 7 19.5t18 7.5q8 0 10 -4l4 -4v8h14v-39q0 -8 -2 -12q0 -23 -26 -23q-25 0 -25 19h12zM309 61q0 -16 13 -16q14 0 14 16q0 17 -14 17q-13 0 -13 -17zM313 434
q0 37 25 61.5t63 24.5q37 0 61.5 -24.5t24.5 -61.5q0 -39 -24.5 -64.5t-61.5 -25.5q-39 0 -63.5 24.5t-24.5 65.5zM313 883q0 39 24.5 63.5t63.5 24.5q37 0 61.5 -25t24.5 -63t-24.5 -63t-61.5 -25q-39 0 -63.5 24.5t-24.5 63.5zM360 35v53h13v-10l4 6q4 4 12 4q15 0 19 -14
q2 -4 2 -11v-28h-15v33q0 10 -10 10q-12 0 -12 -19v-24h-13zM416 61q0 11 7 19t19 8t19.5 -8t7.5 -19q0 -12 -7.5 -20t-19.5 -8t-19 8t-7 20zM430 61q0 -16 12 -16q15 0 15 16q0 17 -15 17q-12 0 -12 -17zM473 88h14l13 -43l12 43h14l-18 -53h-19zM530 49q0 17 29 17h2v6
q0 6 -8 6q-10 0 -10 -8h-13q0 18 23 18q17 0 20 -14v-39h-12v6l-2 -4q-8 -4 -14 -4q-5 0 -10 4.5t-5 11.5zM543 49q0 -4 8 -4q10 0 10 8v6q-18 0 -18 -10zM582 76v10h6v6q0 14 18 14h4v-10q-10 3 -10 -4v-6h10v-10h-10v-41h-12v41h-6zM594 434q0 -58 40 -98.5t99 -40.5
q57 0 96 40t39 99t-38.5 98t-96.5 39q-16 0 -24 -2l82 115h-62l-92 -131q-43 -61 -43 -119zM594 883q0 -58 40 -98t99 -40q57 0 96 40t39 98q0 59 -38.5 98t-96.5 39q-16 0 -24 -2l82 117h-62l-92 -136q-43 -62 -43 -116zM614 61q0 11 7 19t20 8q12 0 19.5 -8t7.5 -19
q0 -12 -7.5 -20t-19.5 -8q-27 0 -27 28zM629 61q0 -16 12 -16t12 16q0 17 -12 17t-12 -17zM645 434q0 37 24.5 61.5t63.5 24.5q36 0 59 -24.5t23 -61.5q0 -40 -22.5 -65t-59.5 -25q-39 0 -63.5 24.5t-24.5 65.5zM645 883q0 39 24.5 63.5t63.5 24.5q36 0 59 -24.5t23 -63.5
t-23 -63.5t-59 -24.5q-39 0 -63.5 24.5t-24.5 63.5zM676 35v53h12v-10l4 6q4 4 13 4q15 0 18 -14v-39h-12v33q-3 10 -9 10q-14 0 -14 -19v-24h-12zM731 76v10h6v12h15v-12h8v-10h-8v-27q0 -9 8 -4v-10h-8q-15 0 -15 10v31h-6zM764 49h14q4 -8 10 -8q9 0 9 8q0 2 -1 3t-5 2.5
t-7 2.5q-16 3 -16 15q0 16 18 16q19 0 25 -16h-16q0 6 -9 6q-4 0 -4 -4q0 -6 11 -11q18 -5 18 -14q0 -16 -23 -16q-18 0 -24 16zM813 41q0 8 10 8q8 0 8 -8t-8 -8q-10 0 -10 8zM838 61q0 12 7.5 19.5t16.5 7.5q23 0 23 -20h-13q-2 10 -10 10q-12 0 -12 -17q0 -16 12 -16
q8 0 10 8h13q0 -20 -23 -20q-24 0 -24 28zM891 61q0 11 7 19t20 8q24 0 24 -27q0 -28 -24 -28q-27 0 -27 28zM903 61q0 -16 15 -16q12 0 12 16q0 17 -12 17q-15 0 -15 -17zM952 35v53h13v-10l6 6q2 4 8 4q13 0 16 -10l6 6q2 4 11 4q6 0 11 -4t5 -8v-13v-28h-12v26v9
q0 8 -10 8q-9 0 -9 -17v-26h-12v35q-5 8 -10 8q-10 0 -10 -17v-26h-13z" />
    </font>
</defs>
</svg>
